<svg width="32" height="32" viewBox="0 0 32 32" fill="none" xmlns="http://www.w3.org/2000/svg">
<path d="M26.9397 24.6575C27.0047 24.8363 27.0174 25.0299 26.9762 25.2157C26.935 25.4015 26.8417 25.5716 26.7072 25.7062L23.7072 28.7062C23.6143 28.7993 23.5041 28.8731 23.3827 28.9235C23.2613 28.9739 23.1311 28.9999 22.9997 29C22.9668 29.0018 22.9338 29.0018 22.9009 29C22.7537 28.9855 22.6115 28.9385 22.4846 28.8624C22.3577 28.7863 22.2493 28.683 22.1672 28.56L16.6584 20.295L13.9997 22.9487V26C13.9995 26.2648 13.8944 26.5188 13.7072 26.7062C13.7072 26.7062 11.9572 28.4637 11.7222 28.6912C11.6245 28.7935 11.506 28.8736 11.3747 28.9262C11.1299 29.0259 10.8557 29.0247 10.6119 28.9228C10.368 28.8209 10.1745 28.6266 10.0734 28.3825L10.0659 28.3637L8.22842 23.7687L3.62467 21.9275C3.47109 21.866 3.33515 21.7675 3.22903 21.6406C3.1229 21.5137 3.04991 21.3625 3.01659 21.2004C2.98327 21.0384 2.99066 20.8707 3.0381 20.7122C3.08554 20.5537 3.17155 20.4095 3.28842 20.2925L5.28842 18.2925C5.3818 18.1992 5.49273 18.1253 5.6148 18.0751C5.73687 18.0249 5.86768 17.9994 5.99967 18H9.04967L11.7084 15.3412L3.44467 9.83121C3.32141 9.74917 3.21792 9.64077 3.14166 9.51386C3.06539 9.38694 3.01826 9.24468 3.00367 9.09733C2.98908 8.94999 3.00739 8.80124 3.05728 8.66184C3.10718 8.52243 3.1874 8.39584 3.29217 8.29121L6.29217 5.29121C6.42675 5.1567 6.59691 5.06337 6.78267 5.02219C6.96844 4.981 7.1621 4.99368 7.34092 5.05871L18.0834 8.96496L22.0247 5.02371C22.6811 4.3673 23.5714 3.99854 24.4997 3.99854C24.9593 3.99854 25.4145 4.08907 25.8391 4.26497C26.2638 4.44087 26.6496 4.69869 26.9747 5.02371C27.2997 5.34874 27.5575 5.73459 27.7334 6.15925C27.9093 6.58391 27.9998 7.03906 27.9998 7.49871C27.9998 7.95836 27.9093 8.41351 27.7334 8.83817C27.5575 9.26284 27.2997 9.64869 26.9747 9.97371L23.0334 13.915L26.9397 24.6575Z" fill="#222222"/>
</svg>
