<svg width="32" height="32" viewBox="0 0 32 32" fill="none" xmlns="http://www.w3.org/2000/svg">
<path d="M7.70708 4.70757L3.70708 8.70757C3.51944 8.89521 3.26494 9.00062 2.99958 9.00062C2.73422 9.00062 2.47972 8.89521 2.29208 8.70757C2.10444 8.51993 1.99902 8.26543 1.99902 8.00007C1.99902 7.7347 2.10444 7.48021 2.29208 7.29257L6.29208 3.29257C6.47972 3.10493 6.73422 2.99951 6.99958 2.99951C7.26494 2.99951 7.51944 3.10493 7.70708 3.29257C7.89472 3.48021 8.00014 3.7347 8.00014 4.00007C8.00014 4.26543 7.89472 4.51993 7.70708 4.70757ZM29.7071 7.29257L25.7071 3.29257C25.5194 3.10493 25.2649 2.99951 24.9996 2.99951C24.7342 2.99951 24.4797 3.10493 24.2921 3.29257C24.1044 3.48021 23.999 3.7347 23.999 4.00007C23.999 4.26543 24.1044 4.51993 24.2921 4.70757L28.2921 8.70757C28.385 8.80048 28.4953 8.87418 28.6167 8.92446C28.7381 8.97474 28.8682 9.00062 28.9996 9.00062C29.131 9.00062 29.2611 8.97474 29.3825 8.92446C29.5039 8.87418 29.6142 8.80048 29.7071 8.70757C29.8 8.61466 29.8737 8.50436 29.924 8.38296C29.9743 8.26157 30.0001 8.13146 30.0001 8.00007C30.0001 7.86867 29.9743 7.73856 29.924 7.61717C29.8737 7.49578 29.8 7.38548 29.7071 7.29257ZM27.9996 17.0001C27.9996 19.3734 27.2958 21.6935 25.9772 23.6669C24.6586 25.6403 22.7845 27.1784 20.5918 28.0866C18.3991 28.9949 15.9863 29.2325 13.6585 28.7695C11.3307 28.3065 9.19253 27.1636 7.5143 25.4853C5.83607 23.8071 4.69318 21.6689 4.23016 19.3412C3.76713 17.0134 4.00477 14.6006 4.91302 12.4079C5.82128 10.2152 7.35935 8.34101 9.33274 7.02243C11.3061 5.70386 13.6262 5.00007 15.9996 5.00007C19.1811 5.00371 22.2312 6.26916 24.4808 8.51881C26.7305 10.7685 27.9959 13.8186 27.9996 17.0001ZM23.9996 17.0001C23.9996 16.7349 23.8942 16.4805 23.7067 16.293C23.5192 16.1054 23.2648 16.0001 22.9996 16.0001H16.9996V10.0001C16.9996 9.73485 16.8942 9.4805 16.7067 9.29296C16.5192 9.10542 16.2648 9.00007 15.9996 9.00007C15.7344 9.00007 15.48 9.10542 15.2925 9.29296C15.1049 9.4805 14.9996 9.73485 14.9996 10.0001V17.0001C14.9996 17.2653 15.1049 17.5196 15.2925 17.7072C15.48 17.8947 15.7344 18.0001 15.9996 18.0001H22.9996C23.2648 18.0001 23.5192 17.8947 23.7067 17.7072C23.8942 17.5196 23.9996 17.2653 23.9996 17.0001Z" fill="#222222"/>
</svg>
