<svg width="32" height="32" viewBox="0 0 32 32" fill="none" xmlns="http://www.w3.org/2000/svg">
<path d="M25.8825 10.0837C25.79 9.99125 25.6963 9.90125 25.6025 9.8125L28.7075 6.7075C28.8004 6.61459 28.8741 6.50429 28.9244 6.3829C28.9747 6.2615 29.0006 6.13139 29.0006 6C29.0006 5.8686 28.9747 5.7385 28.9244 5.6171C28.8741 5.49571 28.8004 5.38541 28.7075 5.2925C28.6146 5.19959 28.5043 5.12589 28.3829 5.07561C28.2615 5.02532 28.1314 4.99944 28 4.99944C27.8686 4.99944 27.7385 5.02532 27.6171 5.07561C27.4957 5.12589 27.3854 5.19959 27.2925 5.2925L24.0425 8.5425C21.6897 6.88629 18.8817 5.99937 16.0044 6.00362C13.1271 6.00787 10.3217 6.90309 7.97376 8.56625L4.70751 5.2925C4.51987 5.10486 4.26537 4.99944 4.00001 4.99944C3.73464 4.99944 3.48015 5.10486 3.29251 5.2925C3.10487 5.48014 2.99945 5.73464 2.99945 6C2.99945 6.26536 3.10487 6.51986 3.29251 6.7075L6.42501 9.84C5.02562 11.1658 3.91143 12.7632 3.15058 14.5345C2.38973 16.3057 1.99822 18.2135 2.00001 20.1412V23C2.00001 23.5304 2.21072 24.0391 2.58579 24.4142C2.96087 24.7893 3.46957 25 4.00001 25H28C28.5304 25 29.0391 24.7893 29.4142 24.4142C29.7893 24.0391 30 23.5304 30 23V20C30.0051 18.1567 29.6438 16.3308 28.9369 14.6285C28.23 12.9261 27.1918 11.3812 25.8825 10.0837ZM11.5 20C11.2033 20 10.9133 19.912 10.6667 19.7472C10.42 19.5824 10.2277 19.3481 10.1142 19.074C10.0007 18.7999 9.97095 18.4983 10.0288 18.2074C10.0867 17.9164 10.2296 17.6491 10.4393 17.4393C10.6491 17.2296 10.9164 17.0867 11.2074 17.0288C11.4983 16.9709 11.7999 17.0006 12.074 17.1142C12.3481 17.2277 12.5824 17.42 12.7472 17.6666C12.912 17.9133 13 18.2033 13 18.5C13 18.8978 12.842 19.2794 12.5607 19.5607C12.2794 19.842 11.8978 20 11.5 20ZM20.5 20C20.2033 20 19.9133 19.912 19.6667 19.7472C19.42 19.5824 19.2277 19.3481 19.1142 19.074C19.0007 18.7999 18.9709 18.4983 19.0288 18.2074C19.0867 17.9164 19.2296 17.6491 19.4393 17.4393C19.6491 17.2296 19.9164 17.0867 20.2074 17.0288C20.4983 16.9709 20.7999 17.0006 21.074 17.1142C21.3481 17.2277 21.5824 17.42 21.7472 17.6666C21.912 17.9133 22 18.2033 22 18.5C22 18.8978 21.842 19.2794 21.5607 19.5607C21.2794 19.842 20.8978 20 20.5 20Z" fill="#222222"/>
</svg>
