<svg width="32" height="32" viewBox="0 0 32 32" fill="none" xmlns="http://www.w3.org/2000/svg">
<path d="M29.9998 24C29.9998 24.2652 29.8945 24.5196 29.7069 24.7071C29.5194 24.8946 29.265 25 28.9998 25H10.9998C10.7346 25 10.4802 24.8946 10.2927 24.7071C10.1052 24.5196 9.99981 24.2652 9.99981 24V13H4.99981C4.80192 13.0001 4.60842 12.9416 4.44383 12.8317C4.27923 12.7218 4.15094 12.5656 4.07519 12.3828C3.99944 12.2 3.97963 11.9988 4.01828 11.8047C4.05693 11.6106 4.1523 11.4323 4.29231 11.2925L10.2923 5.29249C10.3852 5.19952 10.4955 5.12576 10.6169 5.07543C10.7383 5.02511 10.8684 4.99921 10.9998 4.99921C11.1312 4.99921 11.2614 5.02511 11.3828 5.07543C11.5041 5.12576 11.6144 5.19952 11.7073 5.29249L17.7073 11.2925C17.8473 11.4323 17.9427 11.6106 17.9813 11.8047C18.02 11.9988 18.0002 12.2 17.9244 12.3828C17.8487 12.5656 17.7204 12.7218 17.5558 12.8317C17.3912 12.9416 17.1977 13.0001 16.9998 13H11.9998V23H28.9998C29.265 23 29.5194 23.1053 29.7069 23.2929C29.8945 23.4804 29.9998 23.7348 29.9998 24Z" fill="#222222"/>
</svg>
