<svg width="32" height="32" viewBox="0 0 32 32" fill="none" xmlns="http://www.w3.org/2000/svg">
<path d="M10.7073 18.2925C10.895 18.4801 11.0004 18.7346 11.0004 19C11.0004 19.2654 10.895 19.5199 10.7073 19.7075C10.5197 19.8951 10.2652 20.0006 9.99981 20.0006C9.73445 20.0006 9.47995 19.8951 9.29231 19.7075L3.29231 13.7075C3.19933 13.6146 3.12557 13.5043 3.07525 13.3829C3.02493 13.2615 2.99902 13.1314 2.99902 13C2.99902 12.8686 3.02493 12.7385 3.07525 12.6171C3.12557 12.4957 3.19933 12.3854 3.29231 12.2925L9.29231 6.2925C9.47995 6.10486 9.73445 5.99945 9.99981 5.99945C10.2652 5.99945 10.5197 6.10486 10.7073 6.2925C10.895 6.48014 11.0004 6.73464 11.0004 7C11.0004 7.26537 10.895 7.51986 10.7073 7.7075L5.41356 13L10.7073 18.2925ZM16.9998 12.0375V7C17 6.80211 16.9414 6.60861 16.8315 6.44402C16.7217 6.27943 16.5654 6.15113 16.3826 6.07538C16.1998 5.99963 15.9986 5.97982 15.8045 6.01847C15.6104 6.05712 15.4322 6.15249 15.2923 6.2925L9.29231 12.2925C9.19933 12.3854 9.12558 12.4957 9.07525 12.6171C9.02493 12.7385 8.99902 12.8686 8.99902 13C8.99902 13.1314 9.02493 13.2615 9.07525 13.3829C9.12558 13.5043 9.19933 13.6146 9.29231 13.7075L15.2923 19.7075C15.4322 19.8475 15.6104 19.9429 15.8045 19.9815C15.9986 20.0202 16.1998 20.0004 16.3826 19.9246C16.5654 19.8489 16.7217 19.7206 16.8315 19.556C16.9414 19.3914 17 19.1979 16.9998 19V14.0463C19.7314 14.2987 22.2705 15.5616 24.12 17.5875C25.9696 19.6135 26.9965 22.2568 26.9998 25C26.9998 25.2652 27.1052 25.5196 27.2927 25.7071C27.4802 25.8946 27.7346 26 27.9998 26C28.265 26 28.5194 25.8946 28.7069 25.7071C28.8945 25.5196 28.9998 25.2652 28.9998 25C28.9957 21.7264 27.7585 18.5745 25.5346 16.1722C23.3107 13.7699 20.2634 12.2937 16.9998 12.0375Z" fill="#222222"/>
</svg>
