<svg width="32" height="32" viewBox="0 0 32 32" fill="none" xmlns="http://www.w3.org/2000/svg">
<path d="M28 5.99999V12C28 12.2652 27.8946 12.5196 27.7071 12.7071C27.5196 12.8946 27.2652 13 27 13H21C20.8021 13.0001 20.6086 12.9416 20.444 12.8317C20.2794 12.7218 20.1511 12.5656 20.0754 12.3828C19.9996 12.2 19.9798 11.9988 20.0185 11.8047C20.0571 11.6106 20.1525 11.4323 20.2925 11.2925L22.5812 8.99999C20.7401 7.23591 18.2911 6.24728 15.7413 6.23874H15.685C13.0722 6.23361 10.5624 7.25746 8.69875 9.08874C8.50778 9.26701 8.25462 9.36347 7.99343 9.35748C7.73225 9.35149 7.48378 9.24352 7.30118 9.05668C7.11858 8.86983 7.01635 8.61895 7.01636 8.35769C7.01638 8.09644 7.11863 7.84556 7.30125 7.65874C9.53047 5.48071 12.5196 4.25541 15.6362 4.24211C18.7528 4.22882 21.7523 5.42856 24 7.58749L26.295 5.29249C26.435 5.15333 26.613 5.05872 26.8067 5.02056C27.0003 4.9824 27.201 5.0024 27.3833 5.07806C27.5656 5.15371 27.7214 5.28162 27.8312 5.44568C27.9409 5.60974 27.9997 5.8026 28 5.99999ZM23.3013 22.9112C21.4489 24.7204 18.9671 25.7406 16.3779 25.7571C13.7887 25.7737 11.294 24.7853 9.41875 23L11.7075 20.7112C11.8488 20.5716 11.9453 20.393 11.9847 20.1983C12.0241 20.0036 12.0046 19.8015 11.9287 19.6179C11.8528 19.4343 11.7239 19.2775 11.5585 19.1674C11.3931 19.0574 11.1987 18.9991 11 19H5C4.73478 19 4.48043 19.1053 4.29289 19.2929C4.10536 19.4804 4 19.7348 4 20V26C3.99984 26.1979 4.05841 26.3914 4.16828 26.556C4.27815 26.7206 4.43439 26.8489 4.61721 26.9246C4.80003 27.0004 5.00122 27.0202 5.19531 26.9815C5.38939 26.9429 5.56764 26.8475 5.7075 26.7075L8 24.4125C10.2152 26.5504 13.1714 27.749 16.25 27.7575H16.3162C19.4514 27.7656 22.4634 26.5382 24.7 24.3412C24.8826 24.1544 24.9849 23.9035 24.9849 23.6423C24.9849 23.381 24.8827 23.1301 24.7001 22.9433C24.5175 22.7564 24.269 22.6485 24.0078 22.6425C23.7466 22.6365 23.4935 22.733 23.3025 22.9112H23.3013Z" fill="#222222"/>
</svg>
