<svg width="32" height="32" viewBox="0 0 32 32" fill="none" xmlns="http://www.w3.org/2000/svg">
<path d="M14.9236 21.6175C14.9994 21.8002 15.0193 22.0013 14.9808 22.1953C14.9423 22.3893 14.8471 22.5676 14.7073 22.7075L10.7073 26.7075C10.6144 26.8005 10.5041 26.8742 10.3828 26.9246C10.2614 26.9749 10.1312 27.0008 9.99981 27.0008C9.8684 27.0008 9.73827 26.9749 9.61687 26.9246C9.49547 26.8742 9.38518 26.8005 9.29231 26.7075L5.29231 22.7075C5.1523 22.5676 5.05693 22.3894 5.01828 22.1953C4.97963 22.0012 4.99944 21.8 5.07519 21.6172C5.15094 21.4344 5.27923 21.2781 5.44383 21.1683C5.60842 21.0584 5.80192 20.9998 5.99981 21H8.99981V5.99999C8.99981 5.73478 9.10517 5.48042 9.2927 5.29289C9.48024 5.10535 9.73459 4.99999 9.99981 4.99999C10.265 4.99999 10.5194 5.10535 10.7069 5.29289C10.8945 5.48042 10.9998 5.73478 10.9998 5.99999V21H13.9998C14.1976 21 14.3909 21.0587 14.5553 21.1686C14.7198 21.2786 14.8479 21.4348 14.9236 21.6175ZM26.7073 9.29249L22.7073 5.29249C22.6144 5.19952 22.5042 5.12576 22.3828 5.07543C22.2614 5.02511 22.1312 4.99921 21.9998 4.99921C21.8684 4.99921 21.7383 5.02511 21.6169 5.07543C21.4955 5.12576 21.3852 5.19952 21.2923 5.29249L17.2923 9.29249C17.1523 9.43235 17.0569 9.6106 17.0183 9.80469C16.9796 9.99877 16.9994 10.2 17.0752 10.3828C17.1509 10.5656 17.2792 10.7218 17.4438 10.8317C17.6084 10.9416 17.8019 11.0001 17.9998 11H20.9998V26C20.9998 26.2652 21.1052 26.5196 21.2927 26.7071C21.4802 26.8946 21.7346 27 21.9998 27C22.265 27 22.5194 26.8946 22.7069 26.7071C22.8945 26.5196 22.9998 26.2652 22.9998 26V11H25.9998C26.1977 11.0001 26.3912 10.9416 26.5558 10.8317C26.7204 10.7218 26.8487 10.5656 26.9244 10.3828C27.0002 10.2 27.02 9.99877 26.9813 9.80469C26.9427 9.6106 26.8473 9.43235 26.7073 9.29249Z" fill="#222222"/>
</svg>
