<svg width="32" height="32" viewBox="0 0 32 32" fill="none" xmlns="http://www.w3.org/2000/svg">
<path d="M27.9237 10.3825C27.8481 10.5652 27.72 10.7214 27.5555 10.8314C27.3911 10.9413 27.1978 11 27 11H22V21C22 23.1217 21.1571 25.1566 19.6569 26.6568C18.1566 28.1571 16.1217 29 14 29C11.8783 29 9.84344 28.1571 8.34315 26.6568C6.84285 25.1566 6 23.1217 6 21V9.99999C6 9.73478 6.10536 9.48042 6.29289 9.29289C6.48043 9.10535 6.73478 8.99999 7 8.99999C7.26522 8.99999 7.51957 9.10535 7.70711 9.29289C7.89464 9.48042 8 9.73478 8 9.99999V21C8 22.5913 8.63214 24.1174 9.75736 25.2426C10.8826 26.3679 12.4087 27 14 27C15.5913 27 17.1174 26.3679 18.2426 25.2426C19.3679 24.1174 20 22.5913 20 21V11H15C14.8021 11.0001 14.6086 10.9416 14.444 10.8317C14.2794 10.7218 14.1511 10.5656 14.0754 10.3828C13.9996 10.2 13.9798 9.99877 14.0185 9.80469C14.0571 9.6106 14.1525 9.43235 14.2925 9.29249L20.2925 3.29249C20.3854 3.19952 20.4957 3.12576 20.6171 3.07543C20.7385 3.02511 20.8686 2.99921 21 2.99921C21.1314 2.99921 21.2615 3.02511 21.3829 3.07543C21.5043 3.12576 21.6146 3.19952 21.7075 3.29249L27.7075 9.29249C27.8473 9.43242 27.9425 9.61067 27.981 9.80469C28.0195 9.99871 27.9995 10.1998 27.9237 10.3825Z" fill="#222222"/>
</svg>
