<svg width="32" height="32" viewBox="0 0 32 32" fill="none" xmlns="http://www.w3.org/2000/svg">
<path d="M11.0763 6.38249C11.0005 6.19979 10.9805 5.99871 11.019 5.80469C11.0575 5.61067 11.1527 5.43242 11.2925 5.29249L15.2925 1.29249C15.3854 1.19952 15.4957 1.12576 15.6171 1.07543C15.7385 1.02511 15.8686 0.999207 16 0.999207C16.1314 0.999207 16.2615 1.02511 16.3829 1.07543C16.5043 1.12576 16.6146 1.19952 16.7075 1.29249L20.7075 5.29249C20.8475 5.43235 20.9429 5.6106 20.9815 5.80469C21.0202 5.99877 21.0004 6.19996 20.9246 6.38278C20.8489 6.56561 20.7206 6.72184 20.556 6.83171C20.3914 6.94158 20.1979 7.00015 20 6.99999H17V12C17 12.2652 16.8946 12.5196 16.7071 12.7071C16.5196 12.8946 16.2652 13 16 13C15.7348 13 15.4804 12.8946 15.2929 12.7071C15.1054 12.5196 15 12.2652 15 12V6.99999H12C11.8022 6.99995 11.6089 6.94126 11.4445 6.83135C11.28 6.72144 11.1519 6.56523 11.0763 6.38249ZM27 15H5C4.73478 15 4.48043 15.1054 4.29289 15.2929C4.10536 15.4804 4 15.7348 4 16C4 16.2652 4.10536 16.5196 4.29289 16.7071C4.48043 16.8946 4.73478 17 5 17H27C27.2652 17 27.5196 16.8946 27.7071 16.7071C27.8946 16.5196 28 16.2652 28 16C28 15.7348 27.8946 15.4804 27.7071 15.2929C27.5196 15.1054 27.2652 15 27 15ZM20 25H17V20C17 19.7348 16.8946 19.4804 16.7071 19.2929C16.5196 19.1053 16.2652 19 16 19C15.7348 19 15.4804 19.1053 15.2929 19.2929C15.1054 19.4804 15 19.7348 15 20V25H12C11.8021 24.9998 11.6086 25.0584 11.444 25.1683C11.2794 25.2781 11.1511 25.4344 11.0754 25.6172C10.9996 25.8 10.9798 26.0012 11.0185 26.1953C11.0571 26.3894 11.1525 26.5676 11.2925 26.7075L15.2925 30.7075C15.3854 30.8005 15.4957 30.8742 15.6171 30.9246C15.7385 30.9749 15.8686 31.0008 16 31.0008C16.1314 31.0008 16.2615 30.9749 16.3829 30.9246C16.5043 30.8742 16.6146 30.8005 16.7075 30.7075L20.7075 26.7075C20.8475 26.5676 20.9429 26.3894 20.9815 26.1953C21.0202 26.0012 21.0004 25.8 20.9246 25.6172C20.8489 25.4344 20.7206 25.2781 20.556 25.1683C20.3914 25.0584 20.1979 24.9998 20 25Z" fill="#222222"/>
</svg>
