<svg width="32" height="32" viewBox="0 0 32 32" fill="none" xmlns="http://www.w3.org/2000/svg">
<path d="M5.29231 10.7075C5.19933 10.6146 5.12557 10.5043 5.07525 10.3829C5.02493 10.2615 4.99902 10.1314 4.99902 9.99999C4.99902 9.86858 5.02493 9.73845 5.07525 9.61705C5.12557 9.49566 5.19933 9.38537 5.29231 9.29249L9.29231 5.29249C9.43217 5.15248 9.61042 5.05712 9.8045 5.01846C9.99859 4.97981 10.1998 4.99962 10.3826 5.07537C10.5654 5.15112 10.7217 5.27942 10.8315 5.44401C10.9414 5.60861 11 5.8021 10.9998 5.99999V8.99999H25.9998C26.265 8.99999 26.5194 9.10535 26.7069 9.29289C26.8945 9.48042 26.9998 9.73478 26.9998 9.99999C26.9998 10.2652 26.8945 10.5196 26.7069 10.7071C26.5194 10.8946 26.265 11 25.9998 11H10.9998V14C11 14.1979 10.9414 14.3914 10.8315 14.556C10.7217 14.7206 10.5654 14.8489 10.3826 14.9246C10.1998 15.0004 9.99859 15.0202 9.8045 14.9815C9.61042 14.9429 9.43217 14.8475 9.29231 14.7075L5.29231 10.7075ZM26.7073 21.2925L22.7073 17.2925C22.5675 17.1525 22.3892 17.0571 22.1951 17.0185C22.001 16.9798 21.7998 16.9996 21.617 17.0754C21.4342 17.1511 21.278 17.2794 21.1681 17.444C21.0582 17.6086 20.9997 17.8021 20.9998 18V21H5.99981C5.73459 21 5.48024 21.1054 5.2927 21.2929C5.10517 21.4804 4.99981 21.7348 4.99981 22C4.99981 22.2652 5.10517 22.5196 5.2927 22.7071C5.48024 22.8946 5.73459 23 5.99981 23H20.9998V26C20.9997 26.1979 21.0582 26.3914 21.1681 26.556C21.278 26.7206 21.4342 26.8489 21.617 26.9246C21.7998 27.0004 22.001 27.0202 22.1951 26.9815C22.3892 26.9429 22.5675 26.8475 22.7073 26.7075L26.7073 22.7075C26.8003 22.6146 26.874 22.5043 26.9244 22.3829C26.9747 22.2615 27.0006 22.1314 27.0006 22C27.0006 21.8686 26.9747 21.7385 26.9244 21.6171C26.874 21.4957 26.8003 21.3854 26.7073 21.2925Z" fill="#222222"/>
</svg>
