<svg width="32" height="32" viewBox="0 0 32 32" fill="none" xmlns="http://www.w3.org/2000/svg">
<path d="M28.9236 15.3825C28.8479 15.5652 28.7198 15.7214 28.5553 15.8314C28.3909 15.9413 28.1976 16 27.9998 16H22.9998V26C22.9998 26.5304 22.7891 27.0391 22.414 27.4142C22.039 27.7893 21.5302 28 20.9998 28H10.9998C10.4694 28 9.96067 27.7893 9.5856 27.4142C9.21053 27.0391 8.99981 26.5304 8.99981 26V16H3.99981C3.80192 16.0001 3.60842 15.9416 3.44383 15.8317C3.27923 15.7218 3.15094 15.5656 3.07519 15.3828C2.99944 15.2 2.97963 14.9988 3.01828 14.8047C3.05693 14.6106 3.1523 14.4323 3.29231 14.2925L15.2923 2.29249C15.3852 2.19952 15.4955 2.12576 15.6169 2.07543C15.7383 2.02511 15.8684 1.99921 15.9998 1.99921C16.1312 1.99921 16.2614 2.02511 16.3828 2.07543C16.5041 2.12576 16.6144 2.19952 16.7073 2.29249L28.7073 14.2925C28.8471 14.4324 28.9423 14.6107 28.9808 14.8047C29.0193 14.9987 28.9994 15.1998 28.9236 15.3825Z" fill="#222222"/>
</svg>
