<svg width="32" height="32" viewBox="0 0 32 32" fill="none" xmlns="http://www.w3.org/2000/svg">
<path d="M27.7075 10.7075L21.7075 16.7075C21.5676 16.8475 21.3894 16.9429 21.1953 16.9815C21.0012 17.0202 20.8 17.0004 20.6172 16.9246C20.4344 16.8489 20.2782 16.7206 20.1683 16.556C20.0584 16.3914 19.9998 16.1979 20 16V11H10V28C10 28.2652 9.89464 28.5196 9.70711 28.7071C9.51957 28.8946 9.26522 29 9 29C8.73478 29 8.48043 28.8946 8.29289 28.7071C8.10536 28.5196 8 28.2652 8 28V9.99999C8 9.73478 8.10536 9.48042 8.29289 9.29289C8.48043 9.10535 8.73478 8.99999 9 8.99999H20V3.99999C19.9998 3.8021 20.0584 3.60861 20.1683 3.44401C20.2782 3.27942 20.4344 3.15112 20.6172 3.07537C20.8 2.99962 21.0012 2.97981 21.1953 3.01846C21.3894 3.05712 21.5676 3.15248 21.7075 3.29249L27.7075 9.29249C27.8005 9.38537 27.8742 9.49566 27.9246 9.61705C27.9749 9.73845 28.0008 9.86858 28.0008 9.99999C28.0008 10.1314 27.9749 10.2615 27.9246 10.3829C27.8742 10.5043 27.8005 10.6146 27.7075 10.7075Z" fill="#222222"/>
</svg>
