<svg width="32" height="32" viewBox="0 0 32 32" fill="none" xmlns="http://www.w3.org/2000/svg">
<path d="M27.9998 16C27.9998 16.2652 27.8945 16.5196 27.7069 16.7071C27.5194 16.8946 27.265 17 26.9998 17H14.9998V25C15 25.1979 14.9414 25.3914 14.8315 25.556C14.7217 25.7206 14.5654 25.8489 14.3826 25.9246C14.1998 26.0004 13.9986 26.0202 13.8045 25.9815C13.6104 25.9429 13.4322 25.8475 13.2923 25.7075L4.29231 16.7075C4.19933 16.6146 4.12557 16.5043 4.07525 16.3829C4.02493 16.2615 3.99902 16.1314 3.99902 16C3.99902 15.8686 4.02493 15.7385 4.07525 15.6171C4.12557 15.4957 4.19933 15.3854 4.29231 15.2925L13.2923 6.29249C13.4322 6.15248 13.6104 6.05712 13.8045 6.01846C13.9986 5.97981 14.1998 5.99962 14.3826 6.07537C14.5654 6.15112 14.7217 6.27942 14.8315 6.44401C14.9414 6.60861 15 6.8021 14.9998 6.99999V15H26.9998C27.265 15 27.5194 15.1054 27.7069 15.2929C27.8945 15.4804 27.9998 15.7348 27.9998 16Z" fill="#222222"/>
</svg>
