<svg width="32" height="32" viewBox="0 0 32 32" fill="none" xmlns="http://www.w3.org/2000/svg">
<path d="M28.7075 13.7075L22.7075 19.7075C22.5199 19.8951 22.2654 20.0006 22 20.0006C21.7346 20.0006 21.4801 19.8951 21.2925 19.7075C21.1049 19.5199 20.9994 19.2654 20.9994 19C20.9994 18.7346 21.1049 18.4801 21.2925 18.2925L26.5863 13L21.2925 7.7075C21.1996 7.61459 21.1259 7.50429 21.0756 7.3829C21.0253 7.26151 20.9994 7.1314 20.9994 7C20.9994 6.86861 21.0253 6.7385 21.0756 6.61711C21.1259 6.49571 21.1996 6.38541 21.2925 6.2925C21.4801 6.10486 21.7346 5.99945 22 5.99945C22.1314 5.99945 22.2615 6.02533 22.3829 6.07561C22.5043 6.12589 22.6146 6.19959 22.7075 6.2925L28.7075 12.2925C28.8005 12.3854 28.8742 12.4957 28.9246 12.6171C28.9749 12.7385 29.0008 12.8686 29.0008 13C29.0008 13.1314 28.9749 13.2615 28.9246 13.3829C28.8742 13.5043 28.8005 13.6146 28.7075 13.7075ZM22.7075 12.2925L16.7075 6.2925C16.5676 6.15249 16.3894 6.05712 16.1953 6.01847C16.0012 5.97982 15.8 5.99963 15.6172 6.07538C15.4344 6.15113 15.2782 6.27943 15.1683 6.44402C15.0584 6.60861 14.9998 6.80211 15 7V12.0375C11.7364 12.2937 8.68913 13.7699 6.46524 16.1722C4.24135 18.5745 3.00411 21.7264 3 25C3 25.2652 3.10536 25.5196 3.29289 25.7071C3.48043 25.8946 3.73478 26 4 26C4.26522 26 4.51957 25.8946 4.70711 25.7071C4.89464 25.5196 5 25.2652 5 25C5.0033 22.2568 6.03022 19.6135 7.87979 17.5875C9.72935 15.5616 12.2684 14.2987 15 14.0463V19C14.9998 19.1979 15.0584 19.3914 15.1683 19.556C15.2782 19.7206 15.4344 19.8489 15.6172 19.9246C15.8 20.0004 16.0012 20.0202 16.1953 19.9815C16.3894 19.9429 16.5676 19.8475 16.7075 19.7075L22.7075 13.7075C22.8005 13.6146 22.8742 13.5043 22.9246 13.3829C22.9749 13.2615 23.0008 13.1314 23.0008 13C23.0008 12.8686 22.9749 12.7385 22.9246 12.6171C22.8742 12.4957 22.8005 12.3854 22.7075 12.2925Z" fill="#222222"/>
</svg>
