<svg width="32" height="32" viewBox="0 0 32 32" fill="none" xmlns="http://www.w3.org/2000/svg">
<path d="M29.7075 16.7075L17.7075 28.7075C17.5676 28.8475 17.3894 28.9429 17.1953 28.9815C17.0012 29.0202 16.8 29.0004 16.6172 28.9246C16.4344 28.8489 16.2782 28.7206 16.1683 28.556C16.0584 28.3914 15.9998 28.1979 16 28V23H6C5.46957 23 4.96086 22.7893 4.58579 22.4142C4.21071 22.0391 4 21.5304 4 21V11C4 10.4696 4.21071 9.96085 4.58579 9.58578C4.96086 9.21071 5.46957 8.99999 6 8.99999H16V3.99999C15.9998 3.8021 16.0584 3.60861 16.1683 3.44401C16.2782 3.27942 16.4344 3.15112 16.6172 3.07537C16.8 2.99962 17.0012 2.97981 17.1953 3.01846C17.3894 3.05712 17.5676 3.15248 17.7075 3.29249L29.7075 15.2925C29.8005 15.3854 29.8742 15.4957 29.9246 15.6171C29.9749 15.7385 30.0008 15.8686 30.0008 16C30.0008 16.1314 29.9749 16.2615 29.9246 16.3829C29.8742 16.5043 29.8005 16.6146 29.7075 16.7075Z" fill="#222222"/>
</svg>
