<svg width="32" height="32" viewBox="0 0 32 32" fill="none" xmlns="http://www.w3.org/2000/svg">
<path d="M25.9998 9.99999V21C25.9998 23.1217 25.157 25.1566 23.6567 26.6568C22.1564 28.1571 20.1215 29 17.9998 29C15.8781 29 13.8432 28.1571 12.343 26.6568C10.8427 25.1566 9.99981 23.1217 9.99981 21V11H4.99981C4.80192 11.0001 4.60842 10.9416 4.44383 10.8317C4.27923 10.7218 4.15094 10.5656 4.07519 10.3828C3.99944 10.2 3.97963 9.99877 4.01828 9.80469C4.05693 9.6106 4.1523 9.43235 4.29231 9.29249L10.2923 3.29249C10.3852 3.19952 10.4955 3.12576 10.6169 3.07543C10.7383 3.02511 10.8684 2.99921 10.9998 2.99921C11.1312 2.99921 11.2614 3.02511 11.3828 3.07543C11.5041 3.12576 11.6144 3.19952 11.7073 3.29249L17.7073 9.29249C17.8473 9.43235 17.9427 9.6106 17.9813 9.80469C18.02 9.99877 18.0002 10.2 17.9244 10.3828C17.8487 10.5656 17.7204 10.7218 17.5558 10.8317C17.3912 10.9416 17.1977 11.0001 16.9998 11H11.9998V21C11.9998 22.5913 12.632 24.1174 13.7572 25.2426C14.8824 26.3679 16.4085 27 17.9998 27C19.5911 27 21.1172 26.3679 22.2425 25.2426C23.3677 24.1174 23.9998 22.5913 23.9998 21V9.99999C23.9998 9.73478 24.1052 9.48042 24.2927 9.29289C24.4802 9.10535 24.7346 8.99999 24.9998 8.99999C25.265 8.99999 25.5194 9.10535 25.7069 9.29289C25.8945 9.48042 25.9998 9.73478 25.9998 9.99999Z" fill="#222222"/>
</svg>
