<svg width="32" height="32" viewBox="0 0 32 32" fill="none" xmlns="http://www.w3.org/2000/svg">
<path d="M24.9996 11V24C24.9996 24.2652 24.8942 24.5196 24.7067 24.7071C24.5192 24.8947 24.2648 25 23.9996 25H10.9996C10.8017 25.0002 10.6082 24.9416 10.4436 24.8317C10.279 24.7219 10.1507 24.5656 10.075 24.3828C9.9992 24.2 9.9794 23.9988 10.0181 23.8047C10.0567 23.6106 10.1521 23.4324 10.2921 23.2925L16.0858 17.5L7.29208 8.70751C7.10444 8.51987 6.99902 8.26537 6.99902 8.00001C6.99902 7.73464 7.10444 7.48015 7.29208 7.29251C7.47972 7.10487 7.73422 6.99945 7.99958 6.99945C8.26494 6.99945 8.51944 7.10487 8.70708 7.29251L17.4996 16.0863L23.2921 10.2925C23.4319 10.1525 23.6102 10.0571 23.8043 10.0185C23.9984 9.97983 24.1995 9.99963 24.3824 10.0754C24.5652 10.1511 24.7214 10.2794 24.8313 10.444C24.9412 10.6086 24.9997 10.8021 24.9996 11Z" fill="#222222"/>
</svg>
