<svg width="32" height="32" viewBox="0 0 32 32" fill="none" xmlns="http://www.w3.org/2000/svg">
<path d="M20.9236 24.6175C20.9994 24.8002 21.0193 25.0013 20.9808 25.1953C20.9423 25.3893 20.8471 25.5676 20.7073 25.7075L16.7073 29.7075C16.6144 29.8005 16.5041 29.8742 16.3828 29.9246C16.2614 29.9749 16.1312 30.0008 15.9998 30.0008C15.8684 30.0008 15.7383 29.9749 15.6169 29.9246C15.4955 29.8742 15.3852 29.8005 15.2923 29.7075L11.2923 25.7075C11.1523 25.5676 11.0569 25.3894 11.0183 25.1953C10.9796 25.0012 10.9994 24.8 11.0752 24.6172C11.1509 24.4344 11.2792 24.2781 11.4438 24.1683C11.6084 24.0584 11.8019 23.9998 11.9998 24H14.9998V7.99999H11.9998C11.8019 8.00015 11.6084 7.94158 11.4438 7.83171C11.2792 7.72184 11.1509 7.56561 11.0752 7.38278C10.9994 7.19996 10.9796 6.99877 11.0183 6.80469C11.0569 6.6106 11.1523 6.43235 11.2923 6.29249L15.2923 2.29249C15.3852 2.19952 15.4955 2.12576 15.6169 2.07543C15.7383 2.02511 15.8684 1.99921 15.9998 1.99921C16.1312 1.99921 16.2614 2.02511 16.3828 2.07543C16.5041 2.12576 16.6144 2.19952 16.7073 2.29249L20.7073 6.29249C20.8473 6.43235 20.9427 6.6106 20.9813 6.80469C21.02 6.99877 21.0002 7.19996 20.9244 7.38278C20.8487 7.56561 20.7204 7.72184 20.5558 7.83171C20.3912 7.94158 20.1977 8.00015 19.9998 7.99999H16.9998V24H19.9998C20.1976 24 20.3909 24.0587 20.5553 24.1686C20.7198 24.2785 20.8479 24.4348 20.9236 24.6175Z" fill="#222222"/>
</svg>
