<svg width="32" height="32" viewBox="0 0 32 32" fill="none" xmlns="http://www.w3.org/2000/svg">
<path d="M17.9996 13V8.00001C17.9994 7.80211 18.058 7.60862 18.1679 7.44402C18.2777 7.27943 18.434 7.15114 18.6168 7.07538C18.7996 6.99963 19.0008 6.97983 19.1949 7.01848C19.389 7.05713 19.5672 7.1525 19.7071 7.29251L21.4996 9.08626L25.2921 5.29251C25.4797 5.10487 25.7342 4.99945 25.9996 4.99945C26.2649 4.99945 26.5194 5.10487 26.7071 5.29251C26.8947 5.48015 27.0001 5.73464 27.0001 6.00001C27.0001 6.26537 26.8947 6.51987 26.7071 6.70751L22.9133 10.5L24.7071 12.2925C24.8471 12.4324 24.9425 12.6106 24.9811 12.8047C25.0198 12.9988 25 13.2 24.9242 13.3828C24.8484 13.5656 24.7202 13.7219 24.5556 13.8317C24.391 13.9416 24.1975 14.0002 23.9996 14H18.9996C18.7344 14 18.48 13.8946 18.2925 13.7071C18.1049 13.5196 17.9996 13.2652 17.9996 13ZM12.9996 18H7.99958C7.80168 17.9999 7.60819 18.0584 7.4436 18.1683C7.279 18.2782 7.15071 18.4344 7.07496 18.6172C6.9992 18.8 6.9794 19.0012 7.01805 19.1953C7.0567 19.3894 7.15207 19.5677 7.29208 19.7075L9.08583 21.5L5.29208 25.2925C5.10444 25.4801 4.99902 25.7346 4.99902 26C4.99902 26.2654 5.10444 26.5199 5.29208 26.7075C5.47972 26.8951 5.73422 27.0006 5.99958 27.0006C6.26494 27.0006 6.51944 26.8951 6.70708 26.7075L10.4996 22.9138L12.2921 24.7075C12.4319 24.8475 12.6102 24.9429 12.8043 24.9815C12.9984 25.0202 13.1995 25.0004 13.3824 24.9246C13.5652 24.8489 13.7214 24.7206 13.8313 24.556C13.9412 24.3914 13.9997 24.1979 13.9996 24V19C13.9996 18.7348 13.8942 18.4804 13.7067 18.2929C13.5191 18.1054 13.2648 18 12.9996 18ZM13.3821 7.07626C13.1994 7.00046 12.9983 6.98055 12.8043 7.01904C12.6103 7.05753 12.432 7.1527 12.2921 7.29251L10.4996 9.08626L6.70708 5.29251C6.51944 5.10487 6.26494 4.99945 5.99958 4.99945C5.73422 4.99945 5.47972 5.10487 5.29208 5.29251C5.10444 5.48015 4.99902 5.73464 4.99902 6.00001C4.99902 6.26537 5.10444 6.51987 5.29208 6.70751L9.08583 10.5L7.29208 12.2925C7.15207 12.4324 7.0567 12.6106 7.01805 12.8047C6.9794 12.9988 6.9992 13.2 7.07496 13.3828C7.15071 13.5656 7.279 13.7219 7.4436 13.8317C7.60819 13.9416 7.80168 14.0002 7.99958 14H12.9996C13.2648 14 13.5191 13.8946 13.7067 13.7071C13.8942 13.5196 13.9996 13.2652 13.9996 13V8.00001C13.9995 7.80223 13.9409 7.6089 13.8309 7.44447C13.721 7.28005 13.5648 7.15191 13.3821 7.07626ZM22.9133 21.5L24.7071 19.7075C24.8471 19.5677 24.9425 19.3894 24.9811 19.1953C25.0198 19.0012 25 18.8 24.9242 18.6172C24.8484 18.4344 24.7202 18.2782 24.5556 18.1683C24.391 18.0584 24.1975 17.9999 23.9996 18H18.9996C18.7344 18 18.48 18.1054 18.2925 18.2929C18.1049 18.4804 17.9996 18.7348 17.9996 19V24C17.9994 24.1979 18.058 24.3914 18.1679 24.556C18.2777 24.7206 18.434 24.8489 18.6168 24.9246C18.7996 25.0004 19.0008 25.0202 19.1949 24.9815C19.389 24.9429 19.5672 24.8475 19.7071 24.7075L21.4996 22.9138L25.2921 26.7075C25.385 26.8004 25.4953 26.8741 25.6167 26.9244C25.7381 26.9747 25.8682 27.0006 25.9996 27.0006C26.131 27.0006 26.2611 26.9747 26.3825 26.9244C26.5039 26.8741 26.6142 26.8004 26.7071 26.7075C26.8 26.6146 26.8737 26.5043 26.924 26.3829C26.9743 26.2615 27.0001 26.1314 27.0001 26C27.0001 25.8686 26.9743 25.7385 26.924 25.6171C26.8737 25.4957 26.8 25.3854 26.7071 25.2925L22.9133 21.5Z" fill="#222222"/>
</svg>
