<svg width="32" height="32" viewBox="0 0 32 32" fill="none" xmlns="http://www.w3.org/2000/svg">
<path d="M21 17V12H11C9.4087 12 7.88258 12.6321 6.75736 13.7574C5.63214 14.8826 5 16.4087 5 18C5 19.5913 5.63214 21.1174 6.75736 22.2426C7.88258 23.3679 9.4087 24 11 24H22C22.2652 24 22.5196 24.1054 22.7071 24.2929C22.8946 24.4804 23 24.7348 23 25C23 25.2652 22.8946 25.5196 22.7071 25.7071C22.5196 25.8946 22.2652 26 22 26H11C8.87827 26 6.84344 25.1571 5.34315 23.6568C3.84285 22.1566 3 20.1217 3 18C3 15.8783 3.84285 13.8434 5.34315 12.3431C6.84344 10.8428 8.87827 9.99999 11 9.99999H21V4.99999C20.9998 4.8021 21.0584 4.60861 21.1683 4.44401C21.2782 4.27942 21.4344 4.15112 21.6172 4.07537C21.8 3.99962 22.0012 3.97981 22.1953 4.01846C22.3894 4.05712 22.5676 4.15248 22.7075 4.29249L28.7075 10.2925C28.8005 10.3854 28.8742 10.4957 28.9246 10.6171C28.9749 10.7385 29.0008 10.8686 29.0008 11C29.0008 11.1314 28.9749 11.2615 28.9246 11.3829C28.8742 11.5043 28.8005 11.6146 28.7075 11.7075L22.7075 17.7075C22.5676 17.8475 22.3894 17.9429 22.1953 17.9815C22.0012 18.0202 21.8 18.0004 21.6172 17.9246C21.4344 17.8489 21.2782 17.7206 21.1683 17.556C21.0584 17.3914 20.9998 17.1979 21 17Z" fill="#222222"/>
</svg>
