<svg width="32" height="32" viewBox="0 0 32 32" fill="none" xmlns="http://www.w3.org/2000/svg">
<path d="M11.9998 17H7.99981V20C7.99997 20.1979 7.9414 20.3914 7.83153 20.556C7.72166 20.7206 7.56542 20.8489 7.3826 20.9246C7.19978 21.0004 6.99859 21.0202 6.8045 20.9815C6.61042 20.9429 6.43217 20.8475 6.29231 20.7075L2.29231 16.7075C2.19933 16.6146 2.12557 16.5043 2.07525 16.3829C2.02493 16.2615 1.99902 16.1314 1.99902 16C1.99902 15.8686 2.02493 15.7385 2.07525 15.6171C2.12557 15.4957 2.19933 15.3854 2.29231 15.2925L6.29231 11.2925C6.43217 11.1525 6.61042 11.0571 6.8045 11.0185C6.99859 10.9798 7.19978 10.9996 7.3826 11.0754C7.56542 11.1511 7.72166 11.2794 7.83153 11.444C7.9414 11.6086 7.99997 11.8021 7.99981 12V15H11.9998C12.265 15 12.5194 15.1054 12.7069 15.2929C12.8945 15.4804 12.9998 15.7348 12.9998 16C12.9998 16.2652 12.8945 16.5196 12.7069 16.7071C12.5194 16.8946 12.265 17 11.9998 17ZM11.9998 7.99999H14.9998V12C14.9998 12.2652 15.1052 12.5196 15.2927 12.7071C15.4802 12.8946 15.7346 13 15.9998 13C16.265 13 16.5194 12.8946 16.7069 12.7071C16.8945 12.5196 16.9998 12.2652 16.9998 12V7.99999H19.9998C20.1977 8.00015 20.3912 7.94158 20.5558 7.83171C20.7204 7.72184 20.8487 7.56561 20.9244 7.38278C21.0002 7.19996 21.02 6.99877 20.9813 6.80469C20.9427 6.6106 20.8473 6.43235 20.7073 6.29249L16.7073 2.29249C16.6144 2.19952 16.5041 2.12576 16.3828 2.07543C16.2614 2.02511 16.1312 1.99921 15.9998 1.99921C15.8684 1.99921 15.7383 2.02511 15.6169 2.07543C15.4955 2.12576 15.3852 2.19952 15.2923 2.29249L11.2923 6.29249C11.1523 6.43235 11.0569 6.6106 11.0183 6.80469C10.9796 6.99877 10.9994 7.19996 11.0752 7.38278C11.1509 7.56561 11.2792 7.72184 11.4438 7.83171C11.6084 7.94158 11.8019 8.00015 11.9998 7.99999ZM29.7073 15.2925L25.7073 11.2925C25.5675 11.1525 25.3892 11.0571 25.1951 11.0185C25.001 10.9798 24.7998 10.9996 24.617 11.0754C24.4342 11.1511 24.278 11.2794 24.1681 11.444C24.0582 11.6086 23.9997 11.8021 23.9998 12V15H19.9998C19.7346 15 19.4802 15.1054 19.2927 15.2929C19.1052 15.4804 18.9998 15.7348 18.9998 16C18.9998 16.2652 19.1052 16.5196 19.2927 16.7071C19.4802 16.8946 19.7346 17 19.9998 17H23.9998V20C23.9997 20.1979 24.0582 20.3914 24.1681 20.556C24.278 20.7206 24.4342 20.8489 24.617 20.9246C24.7998 21.0004 25.001 21.0202 25.1951 20.9815C25.3892 20.9429 25.5675 20.8475 25.7073 20.7075L29.7073 16.7075C29.8003 16.6146 29.874 16.5043 29.9244 16.3829C29.9747 16.2615 30.0006 16.1314 30.0006 16C30.0006 15.8686 29.9747 15.7385 29.9244 15.6171C29.874 15.4957 29.8003 15.3854 29.7073 15.2925ZM19.9998 24H16.9998V20C16.9998 19.7348 16.8945 19.4804 16.7069 19.2929C16.5194 19.1053 16.265 19 15.9998 19C15.7346 19 15.4802 19.1053 15.2927 19.2929C15.1052 19.4804 14.9998 19.7348 14.9998 20V24H11.9998C11.8019 23.9998 11.6084 24.0584 11.4438 24.1683C11.2792 24.2781 11.1509 24.4344 11.0752 24.6172C10.9994 24.8 10.9796 25.0012 11.0183 25.1953C11.0569 25.3894 11.1523 25.5676 11.2923 25.7075L15.2923 29.7075C15.3852 29.8005 15.4955 29.8742 15.6169 29.9246C15.7383 29.9749 15.8684 30.0008 15.9998 30.0008C16.1312 30.0008 16.2614 29.9749 16.3828 29.9246C16.5041 29.8742 16.6144 29.8005 16.7073 29.7075L20.7073 25.7075C20.8473 25.5676 20.9427 25.3894 20.9813 25.1953C21.02 25.0012 21.0002 24.8 20.9244 24.6172C20.8487 24.4344 20.7204 24.2781 20.5558 24.1683C20.3912 24.0584 20.1977 23.9998 19.9998 24Z" fill="#222222"/>
</svg>
