<svg width="32" height="32" viewBox="0 0 32 32" fill="none" xmlns="http://www.w3.org/2000/svg">
<path d="M24.9998 9.99999V28C24.9998 28.2652 24.8945 28.5196 24.7069 28.7071C24.5194 28.8946 24.265 29 23.9998 29C23.7346 29 23.4802 28.8946 23.2927 28.7071C23.1052 28.5196 22.9998 28.2652 22.9998 28V11H12.9998V16C13 16.1979 12.9414 16.3914 12.8315 16.556C12.7217 16.7206 12.5654 16.8489 12.3826 16.9246C12.1998 17.0004 11.9986 17.0202 11.8045 16.9815C11.6104 16.9429 11.4322 16.8475 11.2923 16.7075L5.29231 10.7075C5.19933 10.6146 5.12557 10.5043 5.07525 10.3829C5.02493 10.2615 4.99902 10.1314 4.99902 9.99999C4.99902 9.86858 5.02493 9.73845 5.07525 9.61705C5.12557 9.49566 5.19933 9.38537 5.29231 9.29249L11.2923 3.29249C11.4322 3.15248 11.6104 3.05712 11.8045 3.01846C11.9986 2.97981 12.1998 2.99962 12.3826 3.07537C12.5654 3.15112 12.7217 3.27942 12.8315 3.44401C12.9414 3.60861 13 3.8021 12.9998 3.99999V8.99999H23.9998C24.265 8.99999 24.5194 9.10535 24.7069 9.29289C24.8945 9.48042 24.9998 9.73478 24.9998 9.99999Z" fill="#222222"/>
</svg>
