<svg width="32" height="32" viewBox="0 0 32 32" fill="none" xmlns="http://www.w3.org/2000/svg">
<path d="M7.94968 5.79878C9.82442 4.31302 12.0745 3.37623 14.4497 3.09253C14.5199 3.08458 14.591 3.0916 14.6583 3.11315C14.7256 3.13469 14.7876 3.17025 14.8402 3.2175C14.8927 3.26475 14.9347 3.3226 14.9633 3.38725C14.9918 3.45189 15.0064 3.52186 15.0059 3.59253V15H11.9622C11.7137 11.7803 10.2731 8.76899 7.92218 6.55503C7.86958 6.50615 7.82813 6.44651 7.80065 6.38018C7.77316 6.31385 7.76028 6.24237 7.76289 6.17061C7.7655 6.09886 7.78354 6.02851 7.81577 5.96434C7.848 5.90018 7.89367 5.84371 7.94968 5.79878ZM5.74968 8.00878C4.29162 9.86957 3.37122 12.0943 3.08843 14.4413C3.08009 14.5117 3.08683 14.5831 3.1082 14.6507C3.12957 14.7183 3.16507 14.7806 3.21236 14.8335C3.25965 14.8863 3.31764 14.9285 3.38247 14.9572C3.44731 14.9859 3.51752 15.0005 3.58843 15H9.95343C9.70675 12.3024 8.47181 9.79113 6.48593 7.94878C6.43506 7.90141 6.37487 7.86516 6.30921 7.84236C6.24354 7.81956 6.17384 7.8107 6.10456 7.81634C6.03528 7.82199 5.96794 7.84202 5.90683 7.87515C5.84573 7.90829 5.7922 7.9538 5.74968 8.00878ZM24.0497 5.79878C22.1749 4.31302 19.9249 3.37623 17.5497 3.09253C17.4794 3.08458 17.4083 3.0916 17.341 3.11315C17.2737 3.13469 17.2117 3.17025 17.1592 3.2175C17.1066 3.26475 17.0647 3.3226 17.0361 3.38725C17.0075 3.45189 16.993 3.52186 16.9934 3.59253V15H20.0309C20.2794 11.7803 21.72 8.76899 24.0709 6.55503C24.1239 6.50659 24.1658 6.44731 24.1938 6.38122C24.2218 6.31514 24.2353 6.24379 24.2333 6.17205C24.2312 6.1003 24.2138 6.02982 24.1821 5.96542C24.1504 5.90101 24.1053 5.84417 24.0497 5.79878ZM28.9072 14.4413C28.6255 12.0946 27.7064 9.86998 26.2497 8.00878C26.2072 7.95438 26.1538 7.90938 26.0931 7.87661C26.0323 7.84384 25.9654 7.82401 25.8966 7.81838C25.8277 7.81274 25.7585 7.82142 25.6932 7.84386C25.6279 7.8663 25.568 7.90203 25.5172 7.94878C23.5299 9.79053 22.2936 12.3019 22.0459 15H28.4097C28.4804 15.0002 28.5503 14.9853 28.6148 14.9564C28.6794 14.9276 28.7371 14.8853 28.7841 14.8325C28.8311 14.7797 28.8664 14.7175 28.8876 14.6501C28.9088 14.5827 28.9155 14.5115 28.9072 14.4413ZM3.09218 17.5588C3.37388 19.9054 4.29296 22.1301 5.74968 23.9913C5.7922 24.0457 5.84553 24.0907 5.9063 24.1234C5.96707 24.1562 6.03397 24.176 6.10279 24.1817C6.1716 24.1873 6.24084 24.1786 6.30613 24.1562C6.37143 24.1338 6.43137 24.098 6.48218 24.0513C8.46945 22.2095 9.70576 19.6982 9.95343 17H3.58968C3.51898 16.9999 3.44905 17.0148 3.38451 17.0436C3.31998 17.0725 3.2623 17.1147 3.21528 17.1675C3.16827 17.2203 3.13299 17.2825 3.11177 17.35C3.09055 17.4174 3.08387 17.4886 3.09218 17.5588ZM26.2497 23.9913C27.7077 22.1305 28.6281 19.9058 28.9109 17.5588C28.9193 17.4884 28.9125 17.417 28.8912 17.3494C28.8698 17.2817 28.8343 17.2194 28.787 17.1666C28.7397 17.1138 28.6817 17.0716 28.6169 17.0429C28.552 17.0141 28.4818 16.9995 28.4109 17H22.0459C22.2926 19.6976 23.5275 22.2089 25.5134 24.0513C25.5643 24.0987 25.6245 24.1349 25.6901 24.1577C25.7558 24.1805 25.8255 24.1894 25.8948 24.1837C25.9641 24.1781 26.0314 24.158 26.0925 24.1249C26.1536 24.0918 26.2071 24.0463 26.2497 23.9913ZM7.94968 26.2013C9.82442 27.687 12.0745 28.6238 14.4497 28.9075C14.5199 28.9155 14.591 28.9085 14.6583 28.8869C14.7256 28.8654 14.7876 28.8298 14.8402 28.7826C14.8927 28.7353 14.9347 28.6775 14.9633 28.6128C14.9918 28.5482 15.0064 28.4782 15.0059 28.4075V17H11.9622C11.7137 20.2198 10.2731 23.2311 7.92218 25.445C7.86958 25.4939 7.82813 25.5535 7.80065 25.6199C7.77316 25.6862 7.76028 25.7577 7.76289 25.8294C7.7655 25.9012 7.78354 25.9716 7.81577 26.0357C7.848 26.0999 7.89367 26.1563 7.94968 26.2013ZM20.0372 17H16.9997V28.41C16.9992 28.4807 17.0138 28.5507 17.0423 28.6153C17.0709 28.68 17.1129 28.7378 17.1654 28.7851C17.218 28.8323 17.28 28.8679 17.3473 28.8894C17.4146 28.911 17.4857 28.918 17.5559 28.91C19.9311 28.6263 22.1812 27.6895 24.0559 26.2038C24.1119 26.1588 24.1576 26.1024 24.1898 26.0382C24.2221 25.9741 24.2401 25.9037 24.2427 25.8319C24.2453 25.7602 24.2324 25.6887 24.205 25.6224C24.1775 25.556 24.136 25.4964 24.0834 25.4475C21.7296 23.2339 20.2867 20.2215 20.0372 17Z" fill="#222222"/>
</svg>
