<svg width="32" height="32" viewBox="0 0 32 32" fill="none" xmlns="http://www.w3.org/2000/svg">
<path d="M6.80714 20.5888L10.2909 15.8125C11.3407 16.8901 11.9474 18.3228 11.9907 19.8266C12.034 21.3304 11.5108 22.7956 10.5248 23.9318C9.53876 25.0681 8.16186 25.7925 6.66694 25.9614C5.17203 26.1303 3.66819 25.7315 2.45346 24.844C1.23872 23.9564 0.401737 22.6449 0.108366 21.1694C-0.185004 19.6938 0.0866495 18.1619 0.869495 16.8772C1.65234 15.5925 2.88924 14.6488 4.33509 14.233C5.78094 13.8173 7.33021 13.9598 8.67589 14.6325L5.19214 19.4112C5.10908 19.5169 5.04817 19.6382 5.01304 19.7679C4.97791 19.8976 4.96927 20.033 4.98766 20.1662C5.00605 20.2993 5.05107 20.4273 5.12005 20.5426C5.18903 20.658 5.28054 20.7582 5.38912 20.8374C5.4977 20.9165 5.62112 20.973 5.75201 21.0034C5.88291 21.0338 6.01858 21.0375 6.15094 21.0143C6.2833 20.9911 6.40963 20.9415 6.52237 20.8683C6.63511 20.7952 6.73196 20.7001 6.80714 20.5888ZM25.9996 14C25.2767 13.9997 24.5596 14.1306 23.8834 14.3862L26.8634 19.5C26.9391 19.6137 26.9907 19.7417 27.0151 19.8761C27.0394 20.0105 27.0359 20.1485 27.0049 20.2816C26.9739 20.4146 26.9159 20.5399 26.8346 20.6496C26.7532 20.7594 26.6503 20.8513 26.5321 20.9198C26.4138 20.9882 26.2828 21.0317 26.1472 21.0475C26.0115 21.0634 25.874 21.0513 25.7432 21.012C25.6123 20.9726 25.491 20.9069 25.3865 20.8189C25.2821 20.7308 25.1968 20.6223 25.1359 20.5L22.1571 15.3925C21.0733 16.2966 20.3429 17.5538 20.0943 18.9431C19.8456 20.3325 20.0948 21.765 20.7978 22.9888C21.5009 24.2126 22.6129 25.1494 23.9383 25.6345C25.2637 26.1196 26.7177 26.1219 28.0447 25.641C29.3717 25.1601 30.4866 24.2268 31.1936 23.0053C31.9005 21.7837 32.1541 20.3519 31.9099 18.9618C31.6657 17.5717 30.9393 16.3122 29.8583 15.4047C28.7773 14.4972 27.411 13.9998 25.9996 14ZM20.7409 9H23.9996C24.2649 9 24.5192 9.10536 24.7067 9.29289C24.8943 9.48043 24.9996 9.73478 24.9996 10C24.9996 10.2652 25.105 10.5196 25.2925 10.7071C25.4801 10.8946 25.7344 11 25.9996 11C26.2649 11 26.5192 10.8946 26.7067 10.7071C26.8943 10.5196 26.9996 10.2652 26.9996 10C26.9996 9.20435 26.6836 8.44129 26.121 7.87868C25.5583 7.31607 24.7953 7 23.9996 7H18.9996C18.8243 7.0004 18.6521 7.0469 18.5004 7.13483C18.3487 7.22276 18.2228 7.34903 18.1353 7.50098C18.0478 7.65294 18.0018 7.82522 18.0019 8.00057C18.002 8.17591 18.0482 8.34815 18.1359 8.5L19.5921 11H12.4071L10.3634 7.5C10.2758 7.34831 10.1499 7.22229 9.99835 7.13454C9.84676 7.04679 9.67479 7.0004 9.49964 7H5.99964C5.73442 7 5.48007 7.10536 5.29253 7.29289C5.10499 7.48043 4.99964 7.73478 4.99964 8C4.99964 8.26522 5.10499 8.51957 5.29253 8.70711C5.48007 8.89464 5.73442 9 5.99964 9H8.92589L10.6396 11.9388L8.67589 14.6325C9.27661 14.9324 9.82257 15.3313 10.2909 15.8125L11.7396 13.825L15.6359 20.5C15.6968 20.6223 15.7821 20.7308 15.8865 20.8189C15.991 20.9069 16.1123 20.9726 16.2432 21.012C16.374 21.0513 16.5115 21.0634 16.6472 21.0475C16.7828 21.0317 16.9138 20.9882 17.0321 20.9198C17.1503 20.8513 17.2532 20.7594 17.3346 20.6496C17.4159 20.5399 17.4739 20.4146 17.5049 20.2816C17.5359 20.1485 17.5394 20.0105 17.5151 19.8761C17.4907 19.7417 17.4391 19.6137 17.3634 19.5L13.5734 13H20.7584L22.1571 15.3962C22.6721 14.9656 23.2556 14.6242 23.8834 14.3862L20.7409 9Z" fill="#222222"/>
</svg>
