<svg width="32" height="32" viewBox="0 0 32 32" fill="none" xmlns="http://www.w3.org/2000/svg">
<path d="M29.9785 19.9476C29.8457 18.182 29.0935 16.52 27.8546 15.255C26.6157 13.99 24.9697 13.2033 23.2072 13.0339C23.0943 12.7947 22.9691 12.5614 22.8322 12.3351C23.625 10.5907 23.7193 8.60874 23.0958 6.79689C22.4722 4.98503 21.1782 3.48093 19.4797 2.59386L19.4622 2.58386C19.4163 2.56025 19.3687 2.5402 19.3197 2.52386C19.0811 2.44483 18.8215 2.45856 18.5925 2.56232C18.3636 2.66607 18.1821 2.85225 18.0842 3.08377C17.9863 3.3153 17.9792 3.57519 18.0643 3.81171C18.1495 4.04822 18.3205 4.24402 18.5435 4.36011H18.5522C18.6997 4.44636 20.9997 5.71636 20.9997 8.50011C21.0002 9.03217 20.9158 9.5609 20.7497 10.0664C19.3754 9.04806 17.7102 8.49837 15.9997 8.49837C14.2892 8.49837 12.624 9.04806 11.2497 10.0664C11.0836 9.5609 10.9992 9.03217 10.9997 8.50011C10.9997 5.70636 13.316 4.43636 13.456 4.36261C13.6874 4.23869 13.8608 4.02875 13.9388 3.7781C14.0168 3.52744 13.9931 3.25618 13.8728 3.02285C13.7525 2.78952 13.5453 2.61283 13.2959 2.53094C13.0465 2.44904 12.7749 2.4685 12.5397 2.58511L12.521 2.59511C10.821 3.48299 9.52573 4.98839 8.90148 6.80184C8.27724 8.61528 8.37143 10.599 9.1647 12.3451C9.0272 12.5701 8.8997 12.8026 8.7897 13.0414C7.02763 13.2119 5.38236 13.9991 4.14402 15.2642C2.90567 16.5293 2.15379 18.191 2.02095 19.9564C2.00132 20.1586 1.99548 20.362 2.00345 20.5651C2.02506 20.8204 2.14386 21.0577 2.33533 21.228C2.5268 21.3983 2.77633 21.4886 3.03243 21.4802C3.28853 21.4719 3.53166 21.3656 3.71165 21.1832C3.89164 21.0008 3.99475 20.7563 3.9997 20.5001C3.9997 20.3301 4.00845 20.1614 4.02345 20.0001C4.1147 19.2189 4.53095 17.6151 6.35345 16.5639C6.86808 16.2656 7.43199 16.062 8.01845 15.9626C8.00595 16.1414 7.99845 16.3226 7.99845 16.5051C8.00004 18.0752 8.46295 19.6102 9.32966 20.9194C10.1964 22.2286 11.4287 23.2542 12.8735 23.8689C12.466 24.4203 11.9489 24.8817 11.3547 25.2239C8.97095 26.5989 6.7447 25.2689 6.55595 25.1514L6.54095 25.1414C6.31853 25.0009 6.04971 24.9537 5.79275 25.0101C5.5358 25.0664 5.3114 25.2218 5.16818 25.4425C5.02496 25.6631 4.97447 25.9313 5.02763 26.189C5.08079 26.4466 5.23333 26.6729 5.4522 26.8189L5.4822 26.8376C6.3153 27.3665 7.24466 27.7256 8.21691 27.8943C9.18917 28.0631 10.1852 28.0382 11.1478 27.821C12.1104 27.6038 13.0206 27.1986 13.8262 26.6287C14.6318 26.0589 15.3169 25.3355 15.8422 24.5001C15.8947 24.5001 15.946 24.5001 15.9985 24.5001C16.051 24.5001 16.1035 24.5001 16.1572 24.5001C16.6832 25.3349 17.3687 26.0577 18.1745 26.6271C18.9803 27.1965 19.8905 27.6013 20.853 27.8183C21.8155 28.0354 22.8114 28.0603 23.7836 27.8918C24.7558 27.7233 25.6851 27.3647 26.5184 26.8364L26.5472 26.8176C26.7661 26.6717 26.9186 26.4453 26.9718 26.1877C27.0249 25.9301 26.9744 25.6619 26.8312 25.4412C26.688 25.2205 26.4636 25.0652 26.2066 25.0088C25.9497 24.9525 25.6809 24.9996 25.4585 25.1401L25.4435 25.1501C25.2547 25.2676 23.0285 26.5989 20.6447 25.2226C20.0496 24.879 19.5321 24.416 19.1247 23.8626C20.5693 23.248 21.8014 22.2226 22.6681 20.9136C23.5348 19.6047 23.9979 18.07 23.9997 16.5001C23.9997 16.3176 23.9909 16.1376 23.9797 15.9589C24.5665 16.0577 25.1308 16.2609 25.646 16.5589C27.4547 17.6026 27.8785 19.1914 27.9747 19.9739C27.991 20.1476 27.9997 20.3226 27.9997 20.5001C27.9959 20.6314 28.0181 20.7622 28.0648 20.885C28.1116 21.0077 28.1821 21.1201 28.2723 21.2156C28.3625 21.3112 28.4706 21.388 28.5905 21.4417C28.7103 21.4955 28.8396 21.5251 28.971 21.5289C29.1023 21.5326 29.2331 21.5105 29.3558 21.4637C29.4786 21.417 29.591 21.3465 29.6865 21.2563C29.782 21.1661 29.8588 21.058 29.9126 20.9381C29.9663 20.8182 29.9959 20.6889 29.9997 20.5576C30.0064 20.354 29.9993 20.1502 29.9785 19.9476ZM13.716 22.0476C12.6174 21.594 11.678 20.8249 11.0165 19.8374C10.3551 18.85 10.0012 17.6886 9.9997 16.5001C9.9997 16.3414 10.0085 16.1839 10.021 16.0276L10.146 16.0589C11.4032 16.3963 12.4792 17.2107 13.1454 18.329C13.8116 19.4474 14.0154 20.7814 13.7135 22.0476H13.716ZM15.9997 16.7639L15.986 16.7401H16.0135L15.9997 16.7639ZM15.9997 13.5001C15.2922 13.5004 14.5927 13.3502 13.9477 13.0595C13.3026 12.7688 12.7268 12.3442 12.2585 11.8139C13.3195 10.9634 14.6387 10.5 15.9985 10.5C17.3582 10.5 18.6774 10.9634 19.7385 11.8139C19.2705 12.344 18.6951 12.7686 18.0505 13.0593C17.4059 13.35 16.7068 13.5003 15.9997 13.5001ZM18.2859 22.0464C18.1328 21.4088 18.107 20.7472 18.2098 20.0996C18.3126 19.452 18.5422 18.8311 18.8852 18.2723C19.2283 17.7135 19.6782 17.2278 20.2092 16.8431C20.7402 16.4583 21.3418 16.1821 21.9797 16.0301C21.9922 16.1851 21.9997 16.3414 21.9997 16.5001C21.9982 17.6883 21.6445 18.8494 20.9833 19.8366C20.322 20.8238 19.3829 21.5928 18.2847 22.0464H18.2859Z" fill="#222222"/>
</svg>
