<svg width="32" height="32" viewBox="0 0 32 32" fill="none" xmlns="http://www.w3.org/2000/svg">
<path d="M28.8896 13.465C28.1865 14.2716 27.2183 14.8005 26.1597 14.9563C25.1011 15.1122 24.0216 14.8847 23.1158 14.315C23.1118 14.3134 23.1074 14.3134 23.1033 14.315L14.3096 23.11C14.3096 23.11 14.3096 23.11 14.3096 23.12C14.6659 23.6939 14.8884 24.3407 14.9606 25.0123C15.0329 25.684 14.9529 26.3633 14.7268 26.9999C14.5006 27.6364 14.1341 28.2139 13.6543 28.6894C13.1745 29.165 12.5938 29.5264 11.9553 29.7469C11.3168 29.9674 10.6368 30.0414 9.96581 29.9632C9.29481 29.8851 8.65002 29.6568 8.07927 29.2955C7.50851 28.9341 7.02643 28.4489 6.6688 27.8758C6.31116 27.3027 6.08713 26.6565 6.01335 25.985C5.34186 25.9112 4.6956 25.6872 4.1225 25.3295C3.54941 24.9719 3.06419 24.4898 2.70283 23.919C2.34147 23.3483 2.11325 22.7035 2.0351 22.0325C1.95695 21.3615 2.03087 20.6815 2.25137 20.043C2.47188 19.4045 2.83332 18.8238 3.30888 18.344C3.78443 17.8642 4.36191 17.4977 4.99846 17.2715C5.63502 17.0454 6.31432 16.9655 6.98598 17.0377C7.65764 17.1099 8.30442 17.3324 8.87835 17.6887C8.88237 17.6903 8.88682 17.6903 8.89085 17.6887L17.6846 8.89372C17.6846 8.89372 17.6846 8.89372 17.6846 8.88372C17.3283 8.30979 17.1058 7.66301 17.0336 6.99135C16.9613 6.31969 17.0413 5.64039 17.2674 5.00383C17.4935 4.36728 17.8601 3.7898 18.3399 3.31425C18.8197 2.83869 19.4003 2.47725 20.0389 2.25674C20.6774 2.03624 21.3574 1.96232 22.0284 2.04047C22.6994 2.11862 23.3442 2.34684 23.9149 2.7082C24.4857 3.06956 24.9678 3.55478 25.3254 4.12787C25.683 4.70097 25.9071 5.34723 25.9808 6.01872C26.8016 6.10511 27.5828 6.41555 28.2389 6.91607C28.8951 7.41659 29.401 8.08792 29.7013 8.85663C30.0016 9.62535 30.0847 10.4618 29.9415 11.2746C29.7984 12.0874 29.4345 12.8451 28.8896 13.465Z" fill="#222222"/>
</svg>
