<svg width="32" height="32" viewBox="0 0 32 32" fill="none" xmlns="http://www.w3.org/2000/svg">
<path d="M10.2212 6.875C10.89 6.0425 11.055 5.48 10.9862 5.2325C10.9338 5.04625 10.685 4.95 10.6825 4.95C10.4561 4.87561 10.2638 4.72284 10.1401 4.5192C10.0164 4.31557 9.96941 4.07445 10.0077 3.83928C10.046 3.60411 10.167 3.39034 10.3489 3.23646C10.5308 3.08259 10.7617 2.99874 11 3C11.1009 3.00012 11.2011 3.01528 11.2975 3.045C11.4225 3.08375 12.5363 3.46125 12.8962 4.64C13.2037 5.64875 12.8275 6.82125 11.7788 8.12625C11.11 8.95875 10.945 9.52125 11.0138 9.76875C11.0662 9.955 11.31 10.0487 11.3125 10.05C11.5384 10.1243 11.7305 10.2766 11.8543 10.4797C11.978 10.6828 12.0253 10.9234 11.9877 11.1582C11.95 11.3931 11.8299 11.6068 11.6489 11.7611C11.4679 11.9154 11.2378 12.0001 11 12C10.8991 11.9999 10.7989 11.9847 10.7025 11.955C10.5775 11.9162 9.46375 11.5387 9.10375 10.36C8.79625 9.35125 9.1725 8.17875 10.2212 6.875ZM14.1038 10.3612C14.4637 11.54 15.5775 11.9175 15.7025 11.9562C15.7989 11.9855 15.8992 12.0003 16 12C16.2378 12.0001 16.4679 11.9154 16.6489 11.7611C16.8299 11.6068 16.95 11.3931 16.9877 11.1582C17.0253 10.9234 16.978 10.6828 16.8543 10.4797C16.7305 10.2766 16.5384 10.1243 16.3125 10.05C16.3125 10.05 16.0625 9.955 16.0138 9.76875C15.945 9.51875 16.11 8.95875 16.7787 8.12625C17.8275 6.82125 18.2037 5.64875 17.8962 4.64C17.5363 3.46125 16.4238 3.08375 16.2975 3.045C16.2011 3.01528 16.1009 3.00012 16 3C15.7624 2.99965 15.5324 3.08391 15.3513 3.23768C15.1702 3.39145 15.0497 3.60469 15.0115 3.83919C14.9733 4.0737 15.0199 4.31414 15.1428 4.51746C15.2658 4.72077 15.4571 4.87366 15.6825 4.94875C15.6825 4.94875 15.9325 5.045 15.9862 5.23125C16.055 5.48125 15.89 6.04125 15.2212 6.87375C14.1725 8.17875 13.7963 9.35125 14.1038 10.36V10.3612ZM19.1038 10.3612C19.4638 11.54 20.5775 11.9175 20.7025 11.9562C20.7989 11.9855 20.8992 12.0003 21 12C21.2378 12.0001 21.4679 11.9154 21.6489 11.7611C21.8299 11.6068 21.95 11.3931 21.9877 11.1582C22.0253 10.9234 21.978 10.6828 21.8543 10.4797C21.7305 10.2766 21.5384 10.1243 21.3125 10.05C21.3125 10.05 21.0625 9.955 21.0138 9.76875C20.945 9.51875 21.11 8.95875 21.7787 8.12625C22.8275 6.82125 23.2038 5.64875 22.8962 4.64C22.5362 3.46125 21.4237 3.08375 21.2975 3.045C21.2011 3.01528 21.1009 3.00012 21 3C20.7624 2.99965 20.5324 3.08391 20.3513 3.23768C20.1702 3.39145 20.0497 3.60469 20.0115 3.83919C19.9733 4.0737 20.0199 4.31414 20.1428 4.51746C20.2658 4.72077 20.4571 4.87366 20.6825 4.94875C20.6825 4.94875 20.9325 5.045 20.9862 5.23125C21.055 5.48125 20.89 6.04125 20.2213 6.87375C19.1725 8.17875 18.7963 9.35125 19.1038 10.36V10.3612ZM28 14H4C3.73478 14 3.48043 14.1054 3.29289 14.2929C3.10536 14.4804 3 14.7348 3 15C3.00439 17.3781 3.65887 19.7098 4.89264 21.7429C6.12641 23.776 7.89253 25.4331 10 26.535V27C10 27.5304 10.2107 28.0391 10.5858 28.4142C10.9609 28.7893 11.4696 29 12 29H20C20.5304 29 21.0391 28.7893 21.4142 28.4142C21.7893 28.0391 22 27.5304 22 27V26.535C24.1075 25.4331 25.8736 23.776 27.1074 21.7429C28.3411 19.7098 28.9956 17.3781 29 15C29 14.7348 28.8946 14.4804 28.7071 14.2929C28.5196 14.1054 28.2652 14 28 14Z" fill="#222222"/>
</svg>
