<svg width="32" height="32" viewBox="0 0 32 32" fill="none" xmlns="http://www.w3.org/2000/svg">
<path d="M23.9788 6.43495L25.7075 4.70745C25.8951 4.5198 26.0006 4.26531 26.0006 3.99995C26.0006 3.73458 25.8951 3.48009 25.7075 3.29245C25.5199 3.1048 25.2654 2.99939 25 2.99939C24.7346 2.99939 24.4801 3.10481 24.2925 3.29245L22.4738 5.11245C20.5943 3.73982 18.3273 3.00009 16 3.00009C13.6727 3.00009 11.4057 3.73982 9.52625 5.11245L7.7075 3.29245C7.51986 3.1048 7.26537 2.99939 7 2.99939C6.73464 2.99939 6.48014 3.1048 6.2925 3.29245C6.10486 3.48009 5.99945 3.73458 5.99945 3.99995C5.99945 4.26531 6.10486 4.5198 6.2925 4.70745L8.02125 6.43495C6.0801 8.47509 4.99828 11.1839 5 13.9999V18.9999C5 21.9173 6.15893 24.7152 8.22183 26.7781C10.2847 28.841 13.0826 29.9999 16 29.9999C18.9174 29.9999 21.7153 28.841 23.7782 26.7781C25.8411 24.7152 27 21.9173 27 18.9999V13.9999C27.0017 11.1839 25.9199 8.47509 23.9788 6.43495ZM16 4.99995C18.3861 5.00259 20.6738 5.95165 22.361 7.63891C24.0483 9.32616 24.9974 11.6138 25 13.9999V14.9999H7V13.9999C7.00265 11.6138 7.95171 9.32616 9.63896 7.63891C11.3262 5.95165 13.6139 5.00259 16 4.99995ZM18 11.4999C18 11.2033 18.088 10.9133 18.2528 10.6666C18.4176 10.4199 18.6519 10.2277 18.926 10.1141C19.2001 10.0006 19.5017 9.97089 19.7926 10.0288C20.0836 10.0866 20.3509 10.2295 20.5607 10.4393C20.7704 10.6491 20.9133 10.9163 20.9712 11.2073C21.0291 11.4983 20.9994 11.7999 20.8858 12.074C20.7723 12.3481 20.58 12.5823 20.3334 12.7472C20.0867 12.912 19.7967 12.9999 19.5 12.9999C19.1022 12.9999 18.7206 12.8419 18.4393 12.5606C18.158 12.2793 18 11.8978 18 11.4999ZM11 11.4999C11 11.2033 11.088 10.9133 11.2528 10.6666C11.4176 10.4199 11.6519 10.2277 11.926 10.1141C12.2001 10.0006 12.5017 9.97089 12.7926 10.0288C13.0836 10.0866 13.3509 10.2295 13.5607 10.4393C13.7704 10.6491 13.9133 10.9163 13.9712 11.2073C14.0291 11.4983 13.9994 11.7999 13.8858 12.074C13.7723 12.3481 13.58 12.5823 13.3334 12.7472C13.0867 12.912 12.7967 12.9999 12.5 12.9999C12.1022 12.9999 11.7206 12.8419 11.4393 12.5606C11.158 12.2793 11 11.8978 11 11.4999Z" fill="#222222"/>
</svg>
