<svg width="32" height="32" viewBox="0 0 32 32" fill="none" xmlns="http://www.w3.org/2000/svg">
<path d="M26.9236 20.3825C26.8479 20.5652 26.7198 20.7214 26.5553 20.8314C26.3909 20.9413 26.1976 21 25.9998 21H5.99981C5.80192 21.0001 5.60842 20.9416 5.44383 20.8317C5.27923 20.7218 5.15094 20.5656 5.07519 20.3828C4.99944 20.2 4.97963 19.9988 5.01828 19.8047C5.05693 19.6106 5.1523 19.4323 5.29231 19.2925L15.2923 9.29249C15.3852 9.19952 15.4955 9.12576 15.6169 9.07543C15.7383 9.02511 15.8684 8.99921 15.9998 8.99921C16.1312 8.99921 16.2614 9.02511 16.3828 9.07543C16.5041 9.12576 16.6144 9.19952 16.7073 9.29249L26.7073 19.2925C26.8471 19.4324 26.9423 19.6107 26.9808 19.8047C27.0193 19.9987 26.9994 20.1998 26.9236 20.3825Z" fill="#222222"/>
</svg>
