<svg width="32" height="32" viewBox="0 0 32 32" fill="none" xmlns="http://www.w3.org/2000/svg">
<path d="M26.7073 24.2925C26.8473 24.4323 26.9427 24.6106 26.9813 24.8047C27.02 24.9988 27.0002 25.2 26.9244 25.3828C26.8487 25.5656 26.7204 25.7218 26.5558 25.8317C26.3912 25.9416 26.1977 26.0001 25.9998 26H5.99981C5.80192 26.0001 5.60842 25.9416 5.44383 25.8317C5.27923 25.7218 5.15094 25.5656 5.07519 25.3828C4.99944 25.2 4.97963 24.9988 5.01828 24.8047C5.05693 24.6106 5.1523 24.4323 5.29231 24.2925L13.5861 16H5.99981C5.80192 16.0001 5.60842 15.9416 5.44383 15.8317C5.27923 15.7218 5.15094 15.5656 5.07519 15.3828C4.99944 15.2 4.97963 14.9988 5.01828 14.8047C5.05693 14.6106 5.1523 14.4323 5.29231 14.2925L15.2923 4.29249C15.3852 4.19952 15.4955 4.12576 15.6169 4.07543C15.7383 4.02511 15.8684 3.99921 15.9998 3.99921C16.1312 3.99921 16.2614 4.02511 16.3828 4.07543C16.5041 4.12576 16.6144 4.19952 16.7073 4.29249L26.7073 14.2925C26.8473 14.4323 26.9427 14.6106 26.9813 14.8047C27.02 14.9988 27.0002 15.2 26.9244 15.3828C26.8487 15.5656 26.7204 15.7218 26.5558 15.8317C26.3912 15.9416 26.1977 16.0001 25.9998 16H18.4136L26.7073 24.2925Z" fill="#222222"/>
</svg>
