<svg width="32" height="32" viewBox="0 0 32 32" fill="none" xmlns="http://www.w3.org/2000/svg">
<path d="M20.9998 5.99999V26C21 26.1979 20.9414 26.3914 20.8315 26.556C20.7217 26.7206 20.5654 26.8489 20.3826 26.9246C20.1998 27.0004 19.9986 27.0202 19.8045 26.9815C19.6104 26.9429 19.4322 26.8475 19.2923 26.7075L9.29231 16.7075C9.19933 16.6146 9.12557 16.5043 9.07525 16.3829C9.02493 16.2615 8.99902 16.1314 8.99902 16C8.99902 15.8686 9.02493 15.7385 9.07525 15.6171C9.12557 15.4957 9.19933 15.3854 9.29231 15.2925L19.2923 5.29249C19.4322 5.15248 19.6104 5.05712 19.8045 5.01846C19.9986 4.97981 20.1998 4.99962 20.3826 5.07537C20.5654 5.15112 20.7217 5.27942 20.8315 5.44401C20.9414 5.60861 21 5.8021 20.9998 5.99999Z" fill="#222222"/>
</svg>
