<svg width="32" height="32" viewBox="0 0 32 32" fill="none" xmlns="http://www.w3.org/2000/svg">
<path d="M27.7075 16.7075L17.7075 26.7075C17.5676 26.8475 17.3894 26.9429 17.1953 26.9815C17.0012 27.0202 16.8 27.0004 16.6172 26.9246C16.4344 26.8489 16.2782 26.7206 16.1683 26.556C16.0584 26.3914 15.9998 26.1979 16 26V18.4137L7.7075 26.7075C7.56764 26.8475 7.38939 26.9429 7.19531 26.9815C7.00122 27.0202 6.80003 27.0004 6.61721 26.9246C6.43439 26.8489 6.27815 26.7206 6.16828 26.556C6.05841 26.3914 5.99984 26.1979 6 26V5.99999C5.99984 5.8021 6.05841 5.60861 6.16828 5.44401C6.27815 5.27942 6.43439 5.15112 6.61721 5.07537C6.80003 4.99962 7.00122 4.97981 7.19531 5.01846C7.38939 5.05712 7.56764 5.15248 7.7075 5.29249L16 13.5862V5.99999C15.9998 5.8021 16.0584 5.60861 16.1683 5.44401C16.2782 5.27942 16.4344 5.15112 16.6172 5.07537C16.8 4.99962 17.0012 4.97981 17.1953 5.01846C17.3894 5.05712 17.5676 5.15248 17.7075 5.29249L27.7075 15.2925C27.8005 15.3854 27.8742 15.4957 27.9246 15.6171C27.9749 15.7385 28.0008 15.8686 28.0008 16C28.0008 16.1314 27.9749 16.2615 27.9246 16.3829C27.8742 16.5043 27.8005 16.6146 27.7075 16.7075Z" fill="#222222"/>
</svg>
