<svg width="32" height="32" viewBox="0 0 32 32" fill="none" xmlns="http://www.w3.org/2000/svg">
<path d="M22.7075 16.7075L12.7075 26.7075C12.5676 26.8475 12.3894 26.9429 12.1953 26.9815C12.0012 27.0202 11.8 27.0004 11.6172 26.9246C11.4344 26.8489 11.2782 26.7206 11.1683 26.556C11.0584 26.3914 10.9998 26.1979 11 26V5.99999C10.9998 5.8021 11.0584 5.60861 11.1683 5.44401C11.2782 5.27942 11.4344 5.15112 11.6172 5.07537C11.8 4.99962 12.0012 4.97981 12.1953 5.01846C12.3894 5.05712 12.5676 5.15248 12.7075 5.29249L22.7075 15.2925C22.8005 15.3854 22.8742 15.4957 22.9246 15.6171C22.9749 15.7385 23.0008 15.8686 23.0008 16C23.0008 16.1314 22.9749 16.2615 22.9246 16.3829C22.8742 16.5043 22.8005 16.6146 22.7075 16.7075Z" fill="#222222"/>
</svg>
