<svg width="32" height="32" viewBox="0 0 32 32" fill="none" xmlns="http://www.w3.org/2000/svg">
<path d="M25.9998 5.99999V26C26 26.1979 25.9414 26.3914 25.8315 26.556C25.7217 26.7206 25.5654 26.8489 25.3826 26.9246C25.1998 27.0004 24.9986 27.0202 24.8045 26.9815C24.6104 26.9429 24.4322 26.8475 24.2923 26.7075L15.9998 18.4137V26C16 26.1979 15.9414 26.3914 15.8315 26.556C15.7217 26.7206 15.5654 26.8489 15.3826 26.9246C15.1998 27.0004 14.9986 27.0202 14.8045 26.9815C14.6104 26.9429 14.4322 26.8475 14.2923 26.7075L4.29231 16.7075C4.19933 16.6146 4.12557 16.5043 4.07525 16.3829C4.02493 16.2615 3.99902 16.1314 3.99902 16C3.99902 15.8686 4.02493 15.7385 4.07525 15.6171C4.12557 15.4957 4.19933 15.3854 4.29231 15.2925L14.2923 5.29249C14.4322 5.15248 14.6104 5.05712 14.8045 5.01846C14.9986 4.97981 15.1998 4.99962 15.3826 5.07537C15.5654 5.15112 15.7217 5.27942 15.8315 5.44401C15.9414 5.60861 16 5.8021 15.9998 5.99999V13.5862L24.2923 5.29249C24.4322 5.15248 24.6104 5.05712 24.8045 5.01846C24.9986 4.97981 25.1998 4.99962 25.3826 5.07537C25.5654 5.15112 25.7217 5.27942 25.8315 5.44401C25.9414 5.60861 26 5.8021 25.9998 5.99999Z" fill="#222222"/>
</svg>
