<svg width="32" height="32" viewBox="0 0 32 32" fill="none" xmlns="http://www.w3.org/2000/svg">
<path d="M26.9236 16.6175C26.9994 16.8002 27.0193 17.0013 26.9808 17.1953C26.9423 17.3893 26.8471 17.5676 26.7073 17.7075L16.7073 27.7075C16.6144 27.8005 16.5041 27.8742 16.3828 27.9246C16.2614 27.9749 16.1312 28.0008 15.9998 28.0008C15.8684 28.0008 15.7383 27.9749 15.6169 27.9246C15.4955 27.8742 15.3852 27.8005 15.2923 27.7075L5.29231 17.7075C5.1523 17.5676 5.05693 17.3894 5.01828 17.1953C4.97963 17.0012 4.99944 16.8 5.07519 16.6172C5.15094 16.4344 5.27923 16.2782 5.44383 16.1683C5.60842 16.0584 5.80192 15.9998 5.99981 16H13.5861L5.29231 7.7075C5.1523 7.56764 5.05693 7.38939 5.01828 7.19531C4.97963 7.00122 4.99944 6.80003 5.07519 6.61721C5.15094 6.43439 5.27923 6.27815 5.44383 6.16828C5.60842 6.05841 5.80192 5.99984 5.99981 6H25.9998C26.1977 5.99984 26.3912 6.05841 26.5558 6.16828C26.7204 6.27815 26.8487 6.43439 26.9244 6.61721C27.0002 6.80003 27.02 7.00122 26.9813 7.19531C26.9427 7.38939 26.8473 7.56764 26.7073 7.7075L18.4136 16H25.9998C26.1976 16 26.3909 16.0587 26.5553 16.1686C26.7198 16.2786 26.8479 16.4348 26.9236 16.6175Z" fill="#222222"/>
</svg>
