<svg width="32" height="32" viewBox="0 0 32 32" fill="none" xmlns="http://www.w3.org/2000/svg">
<path d="M26.74 26.3262C26.8302 26.4231 26.9002 26.5369 26.9461 26.661C26.992 26.7851 27.0128 26.9171 27.0072 27.0493C27.0017 27.1815 26.97 27.3113 26.9139 27.4312C26.8579 27.5511 26.7786 27.6586 26.6806 27.7476C26.5827 27.8366 26.4681 27.9053 26.3434 27.9497C26.2188 27.9941 26.0865 28.0133 25.9544 28.0061C25.8222 27.999 25.6928 27.9658 25.5736 27.9083C25.4544 27.8508 25.3479 27.7702 25.26 27.6712L23.74 26H10.375L6.30003 29.52L6.29003 29.5287C5.92947 29.8337 5.47229 30.0007 5.00003 30C4.70624 29.9993 4.41614 29.9345 4.15003 29.81C3.80487 29.6504 3.5129 29.3949 3.30899 29.074C3.10507 28.753 2.99782 28.3802 3.00003 28V7.99996C3.00003 7.46953 3.21075 6.96082 3.58582 6.58575C3.96089 6.21068 4.4696 5.99996 5.00003 5.99996H5.55753L5.26003 5.67246C5.16987 5.5756 5.09982 5.46181 5.05396 5.33769C5.00809 5.21356 4.98732 5.08156 4.99284 4.94934C4.99837 4.81713 5.03008 4.68732 5.08614 4.56746C5.1422 4.44759 5.22149 4.34003 5.31942 4.25104C5.41735 4.16204 5.53198 4.09336 5.65665 4.04899C5.78131 4.00461 5.91355 3.98542 6.04569 3.99253C6.17783 3.99964 6.30724 4.03291 6.42643 4.0904C6.54562 4.14789 6.65222 4.22847 6.74003 4.32746L26.74 26.3262ZM27 5.99996H12.0938C11.9965 5.99899 11.9011 6.02642 11.8191 6.07889C11.7372 6.13136 11.6724 6.20659 11.6326 6.29535C11.5928 6.38412 11.5797 6.48256 11.595 6.57863C11.6104 6.6747 11.6534 6.76422 11.7188 6.83621L28.125 24.8825C28.1925 24.959 28.2818 25.0131 28.3809 25.0374C28.48 25.0617 28.5842 25.0551 28.6794 25.0185C28.7747 24.9819 28.8564 24.917 28.9137 24.8326C28.9711 24.7482 29.0012 24.6482 29 24.5462V7.99996C29 7.46953 28.7893 6.96082 28.4142 6.58575C28.0392 6.21068 27.5305 5.99996 27 5.99996Z" fill="#222222"/>
</svg>
