<svg width="32" height="32" viewBox="0 0 32 32" fill="none" xmlns="http://www.w3.org/2000/svg">
<path d="M26.74 26.3276C26.8302 26.4244 26.9002 26.5382 26.9461 26.6623C26.9919 26.7865 27.0127 26.9185 27.0072 27.0507C27.0017 27.1829 26.97 27.3127 26.9139 27.4326C26.8578 27.5524 26.7785 27.66 26.6806 27.749C26.5827 27.838 26.4681 27.9067 26.3434 27.951C26.2187 27.9954 26.0865 28.0146 25.9543 28.0075C25.8222 28.0004 25.6928 27.9671 25.5736 27.9096C25.4544 27.8521 25.3478 27.7716 25.26 27.6726L23.5638 25.8076C21.4863 27.2385 19.0226 28.0032 16.5 28.0001H6.00001C5.46957 28.0001 4.96086 27.7893 4.58579 27.4143C4.21072 27.0392 4.00001 26.5305 4.00001 26.0001V15.5001C3.99723 12.5706 5.02816 9.73409 6.91126 7.49006L5.26001 5.67256C5.16998 5.5735 5.10075 5.45738 5.05643 5.33108C5.01211 5.20478 4.9936 5.07086 5.00199 4.93727C5.01039 4.80368 5.04551 4.67314 5.10529 4.55337C5.16507 4.43361 5.24829 4.32707 5.35001 4.24006C5.55597 4.07318 5.81846 3.99236 6.08263 4.01449C6.34679 4.03662 6.59218 4.15998 6.76751 4.35881L26.74 26.3276ZM26.0438 22.5888C26.0942 22.6444 26.1566 22.6879 26.2262 22.716C26.2958 22.7442 26.3709 22.7563 26.4458 22.7515C26.5207 22.7467 26.5936 22.7251 26.659 22.6883C26.7245 22.6515 26.7808 22.6004 26.8238 22.5388C28.4021 20.2174 29.1531 17.4322 28.9558 14.6319C28.7584 11.8317 27.6243 9.17935 25.7359 7.1022C23.8476 5.02504 21.315 3.64398 18.5462 3.18147C15.7774 2.71895 12.9334 3.20192 10.4725 4.55256C10.4069 4.58938 10.3505 4.64053 10.3074 4.70218C10.2643 4.76384 10.2357 4.83442 10.2237 4.90867C10.2117 4.98291 10.2166 5.05891 10.238 5.13101C10.2595 5.2031 10.2969 5.26943 10.3475 5.32506L26.0438 22.5888Z" fill="#222222"/>
</svg>
