<svg width="32" height="32" viewBox="0 0 32 32" fill="none" xmlns="http://www.w3.org/2000/svg">
<path d="M30.0003 14C29.9983 12.1441 29.2601 10.3648 27.9478 9.05244C26.6355 7.74011 24.8562 7.00198 23.0003 6.99999C22.779 6.99999 22.5578 7.01249 22.339 7.03249C21.7746 5.82784 20.8786 4.80897 19.756 4.09521C18.6334 3.38146 17.3306 3.00238 16.0003 3.00238C14.6699 3.00238 13.3672 3.38146 12.2446 4.09521C11.1219 4.80897 10.2259 5.82784 9.66151 7.03249C9.44276 7.01249 9.22151 6.99999 9.00026 6.99999C7.41124 7.00038 5.86963 7.54139 4.62885 8.5341C3.38808 9.52681 2.52198 10.9121 2.17293 12.4624C1.82388 14.0126 2.01265 15.6354 2.70822 17.0641C3.40379 18.4928 4.56475 19.6423 6.00026 20.3237V26C6.00026 26.5304 6.21098 27.0391 6.58605 27.4142C6.96112 27.7893 7.46983 28 8.00026 28H24.0003C24.5307 28 25.0394 27.7893 25.4145 27.4142C25.7895 27.0391 26.0003 26.5304 26.0003 26V20.3237C27.1961 19.755 28.2065 18.8592 28.9144 17.7401C29.6223 16.6209 29.9988 15.3242 30.0003 14ZM19.0303 17.7575L20.0303 13.7575C20.0982 13.5042 20.263 13.2877 20.489 13.1547C20.715 13.0218 20.9842 12.9829 21.2386 13.0465C21.4931 13.1101 21.7123 13.2711 21.8492 13.4948C21.986 13.7185 22.0295 13.987 21.9703 14.2425L20.9703 18.2425C20.9162 18.4588 20.7914 18.6509 20.6156 18.7881C20.4398 18.9254 20.2233 19 20.0003 19C19.9181 18.9999 19.8363 18.9898 19.7565 18.97C19.4995 18.9054 19.2787 18.7414 19.1425 18.514C19.0063 18.2867 18.966 18.0146 19.0303 17.7575ZM15.0003 14C15.0003 13.7348 15.1056 13.4804 15.2932 13.2929C15.4807 13.1053 15.735 13 16.0003 13C16.2655 13 16.5198 13.1053 16.7074 13.2929C16.8949 13.4804 17.0003 13.7348 17.0003 14V18C17.0003 18.2652 16.8949 18.5196 16.7074 18.7071C16.5198 18.8946 16.2655 19 16.0003 19C15.735 19 15.4807 18.8946 15.2932 18.7071C15.1056 18.5196 15.0003 18.2652 15.0003 18V14ZM10.7578 13.03C11.015 12.9657 11.2873 13.0062 11.5147 13.1427C11.742 13.2791 11.9059 13.5003 11.9703 13.7575L12.9703 17.7575C13.0345 18.0147 12.994 18.287 12.8576 18.5144C12.7212 18.7418 12.5 18.9056 12.2428 18.97C12.161 18.9903 12.077 19.0004 11.9928 19C11.77 18.9997 11.5537 18.925 11.3782 18.7878C11.2027 18.6505 11.078 18.4586 11.024 18.2425L10.024 14.2425C9.99229 14.1147 9.98611 13.9819 10.0058 13.8517C10.0256 13.7215 10.0708 13.5965 10.139 13.4838C10.2072 13.3712 10.2969 13.2731 10.4031 13.1952C10.5093 13.1173 10.6298 13.0612 10.7578 13.03ZM24.0003 26H8.00026V20.9275C8.33141 20.9757 8.66562 21 9.00026 21H23.0003C23.3349 21 23.6691 20.9757 24.0003 20.9275V26Z" fill="#222222"/>
</svg>
