<svg width="32" height="32" viewBox="0 0 32 32" fill="none" xmlns="http://www.w3.org/2000/svg">
<path d="M22.3021 9C21.8762 8.98649 21.4498 9.00194 21.0259 9.04625C20.3235 7.84611 19.4091 6.78346 18.3271 5.91C13.5971 2.09875 7.13088 2.97125 6.85838 3.01C6.63171 3.04175 6.42279 3.15028 6.2665 3.31749C6.11021 3.4847 6.01601 3.70046 5.99963 3.92875C5.98934 4.10835 6.02656 4.28748 6.10754 4.44812C6.18851 4.60875 6.31038 4.74521 6.46088 4.84375C8.63588 6.30375 9.63213 8.7075 10.0484 11.05C7.75942 11.2899 5.64904 12.3966 4.15019 14.1432C2.65134 15.8897 1.87767 18.1436 1.98789 20.4424C2.0981 22.7413 3.08386 24.9108 4.74292 26.5059C6.40199 28.101 8.60857 29.0008 10.91 29.0206C13.2114 29.0404 15.4331 28.1788 17.1194 26.6125C18.8057 25.0462 19.8287 22.8939 19.9784 20.5973C20.1282 18.3007 19.3935 16.0338 17.9249 14.2618C16.4564 12.4897 14.3654 11.3468 12.0809 11.0675C11.6921 8.57375 10.8196 6.5 9.49963 4.92125C11.5834 5.01125 14.6546 5.51875 17.0796 7.48125C17.8032 8.06697 18.4352 8.75751 18.9546 9.53C18.7171 9.61625 18.4809 9.71 18.2484 9.81625C18.1214 9.87111 18.0064 9.95045 17.9101 10.0498C17.8138 10.1491 17.7381 10.2664 17.6871 10.395C17.6136 10.5905 17.6031 10.8041 17.6571 11.0059C17.7111 11.2077 17.827 11.3874 17.9884 11.52C18.6171 12.0392 19.1868 12.6261 19.6871 13.27C19.7107 13.3004 19.738 13.3277 19.7684 13.3513C19.9996 13.5188 20.7284 14 21.9996 14C23.5184 14 24.2721 13.3113 24.3034 13.2813L24.2921 13.2925C24.385 13.1996 24.4953 13.1259 24.6167 13.0756C24.7381 13.0253 24.8682 12.9994 24.9996 12.9994C25.131 12.9994 25.2611 13.0253 25.3825 13.0756C25.5039 13.1259 25.6142 13.1996 25.7071 13.2925C25.8 13.3854 25.8737 13.4957 25.924 13.6171C25.9743 13.7385 26.0002 13.8686 26.0002 14C26.0002 14.1314 25.9743 14.2615 25.924 14.3829C25.8737 14.5043 25.8 14.6146 25.7071 14.7075C25.5746 14.84 24.3459 16 21.9996 16H21.7984C21.7366 15.9964 21.6749 16.0082 21.6188 16.0343C21.5626 16.0603 21.5138 16.0999 21.4767 16.1494C21.4396 16.1989 21.4153 16.2568 21.406 16.318C21.3967 16.3792 21.4026 16.4417 21.4234 16.5C21.9169 17.9692 22.0941 19.5261 21.9433 21.0686C21.7925 22.6111 21.3171 24.1043 20.5484 25.45C20.4066 25.6838 20.3618 25.9636 20.4234 26.23C20.4752 26.433 20.5894 26.6146 20.75 26.7492C20.9106 26.8838 21.1094 26.9645 21.3184 26.98C21.5409 26.9963 21.7671 27.005 21.9896 27.005C24.3766 27.0451 26.6817 26.1354 28.3979 24.4759C30.1141 22.8165 31.1008 20.5432 31.1409 18.1563C31.181 15.7693 30.2712 13.4642 28.6118 11.748C26.9523 10.0318 24.6791 9.04512 22.2921 9.005L22.3021 9ZM13.3021 15.2763L13.2909 15.2875C13.4785 15.0999 13.733 14.9944 13.9984 14.9944C14.2637 14.9944 14.5182 15.0999 14.7059 15.2875C14.8935 15.4751 14.9989 15.7296 14.9989 15.995C14.9989 16.2604 14.8935 16.5149 14.7059 16.7025C14.5746 16.84 13.3459 18 10.9996 18C8.65338 18 7.42463 16.84 7.29213 16.7075C7.19922 16.6146 7.12552 16.5043 7.07523 16.3829C7.02495 16.2615 6.99907 16.1314 6.99907 16C6.99907 15.7346 7.10449 15.4801 7.29213 15.2925C7.47977 15.1049 7.73426 14.9994 7.99963 14.9994C8.26499 14.9994 8.51949 15.1049 8.70713 15.2925L8.69588 15.2813C8.72713 15.3113 9.48088 16 10.9996 16C12.5184 16 13.2721 15.3113 13.3034 15.2813L13.3021 15.2763Z" fill="#222222"/>
</svg>
