<svg width="32" height="32" viewBox="0 0 32 32" fill="none" xmlns="http://www.w3.org/2000/svg">
<path d="M25.9236 15.3823C25.8479 15.5651 25.7198 15.7213 25.5553 15.8312C25.3909 15.9411 25.1976 15.9998 24.9998 15.9998H6.99981C6.80192 16 6.60842 15.9414 6.44383 15.8315C6.27923 15.7217 6.15094 15.5654 6.07519 15.3826C5.99944 15.1998 5.97963 14.9986 6.01828 14.8045C6.05693 14.6104 6.1523 14.4322 6.29231 14.2923L15.2923 5.29231C15.3852 5.19933 15.4955 5.12557 15.6169 5.07525C15.7383 5.02493 15.8684 4.99902 15.9998 4.99902C16.1312 4.99902 16.2614 5.02493 16.3828 5.07525C16.5041 5.12557 16.6144 5.19933 16.7073 5.29231L25.7073 14.2923C25.8471 14.4322 25.9423 14.6105 25.9808 14.8045C26.0193 14.9985 25.9994 15.1996 25.9236 15.3823Z" fill="#222222"/>
</svg>
