<svg width="32" height="32" viewBox="0 0 32 32" fill="none" xmlns="http://www.w3.org/2000/svg">
<path d="M29.9683 11.3511C29.9683 11.3649 29.9683 11.3774 29.9596 11.3911L27.1246 24.3749C27.0373 24.8321 26.7933 25.2445 26.4346 25.5411C26.0759 25.8378 25.625 26 25.1596 25.9999H6.83833C6.3731 25.9997 5.92248 25.8373 5.56405 25.5407C5.20563 25.2441 4.96181 24.8319 4.87458 24.3749L2.03958 11.3911C2.03958 11.3774 2.03333 11.3649 2.03083 11.3511C1.95324 10.9213 2.01852 10.4778 2.21669 10.0885C2.41487 9.69925 2.73504 9.38555 3.12829 9.19538C3.52154 9.0052 3.96624 8.949 4.39444 9.03536C4.82264 9.12172 5.21079 9.3459 5.49958 9.67364L9.70833 14.2099L14.1833 4.17364C14.1835 4.16947 14.1835 4.1653 14.1833 4.16114C14.3433 3.81407 14.5995 3.52012 14.9213 3.31408C15.2432 3.10804 15.6174 2.99854 15.9996 2.99854C16.3818 2.99854 16.7559 3.10804 17.0778 3.31408C17.3997 3.52012 17.6558 3.81407 17.8158 4.16114C17.8156 4.1653 17.8156 4.16947 17.8158 4.17364L22.2908 14.2099L26.4996 9.67364C26.789 9.34833 27.1766 9.12635 27.6036 9.0414C28.0307 8.95645 28.4738 9.01316 28.8656 9.20294C29.2575 9.39272 29.5767 9.70519 29.7748 10.0929C29.9729 10.4806 30.0391 10.9224 29.9633 11.3511H29.9683Z" fill="#222222"/>
</svg>
