<svg width="32" height="32" viewBox="0 0 32 32" fill="none" xmlns="http://www.w3.org/2000/svg">
<path d="M30.9383 21.7987L27.2496 7.25C27.1525 6.87125 26.9471 6.52903 26.6584 6.26527C26.3698 6.0015 26.0105 5.82765 25.6246 5.765L21.1171 5.025C20.6202 4.94508 20.1113 5.05283 19.6894 5.3273C19.2676 5.60177 18.9629 6.02333 18.8346 6.51L18.8083 6.61625C18.7913 6.68375 18.7886 6.75406 18.8004 6.82268C18.8121 6.89129 18.838 6.95669 18.8765 7.0147C18.915 7.07271 18.9652 7.12205 19.0238 7.15955C19.0824 7.19706 19.1483 7.2219 19.2171 7.2325C20.2514 7.3843 21.2718 7.61923 22.2683 7.935C22.5175 8.01017 22.7287 8.17729 22.8591 8.40245C22.9896 8.62762 23.0295 8.89398 22.9708 9.1475C22.9371 9.27961 22.8767 9.40343 22.7933 9.51135C22.71 9.61926 22.6055 9.70899 22.4862 9.77502C22.3669 9.84105 22.2353 9.88199 22.0996 9.89531C21.9639 9.90863 21.8269 9.89407 21.6971 9.8525C17.9994 8.71848 14.0473 8.71413 10.3471 9.84C10.0967 9.9242 9.82344 9.90871 9.58415 9.79674C9.34486 9.68478 9.1579 9.48495 9.06207 9.23875C9.01653 9.11242 8.9969 8.97821 9.00435 8.84412C9.01181 8.71004 9.04619 8.57883 9.10545 8.45832C9.16471 8.33781 9.24764 8.23047 9.34929 8.14271C9.45093 8.05495 9.56921 7.98856 9.69707 7.9475C10.7061 7.62611 11.7395 7.387 12.7871 7.2325C12.8559 7.2219 12.9217 7.19706 12.9803 7.15955C13.039 7.12205 13.0892 7.07271 13.1276 7.0147C13.1661 6.95669 13.192 6.89129 13.2038 6.82268C13.2155 6.75406 13.2128 6.68375 13.1958 6.61625L13.1696 6.51C13.0413 6.02291 12.7361 5.60108 12.3137 5.32676C11.8912 5.05244 11.3817 4.94531 10.8846 5.02625L6.37457 5.76625C5.98879 5.82881 5.62961 6.00248 5.341 6.266C5.05238 6.52953 4.84686 6.87148 4.74957 7.25L1.06082 21.7987C0.945165 22.2561 0.995502 22.7396 1.20288 23.1633C1.41026 23.5869 1.76122 23.9233 2.19332 24.1125L10.5683 27.8263C10.8202 27.9382 11.0922 27.9975 11.3678 28.0004C11.6434 28.0034 11.9166 27.9499 12.1708 27.8434C12.425 27.7369 12.6546 27.5795 12.8458 27.3809C13.0369 27.1824 13.1853 26.9468 13.2821 26.6887L13.7183 25.5075C13.7443 25.4367 13.754 25.361 13.7466 25.286C13.7392 25.211 13.7149 25.1386 13.6756 25.0743C13.6363 25.01 13.583 24.9554 13.5196 24.9146C13.4562 24.8738 13.3844 24.8479 13.3096 24.8388C12.0952 24.6917 10.8972 24.4323 9.73082 24.0637C9.48272 23.9883 9.27241 23.8217 9.14228 23.5974C9.01216 23.3731 8.97188 23.1078 9.02957 22.855C9.06301 22.7225 9.12325 22.5983 9.20656 22.49C9.28987 22.3817 9.39449 22.2916 9.51396 22.2253C9.63344 22.159 9.76523 22.1179 9.90121 22.1045C10.0372 22.0911 10.1745 22.1058 10.3046 22.1475C14.0162 23.2842 17.983 23.2842 21.6946 22.1475C21.8245 22.106 21.9616 22.0914 22.0974 22.1048C22.2331 22.1182 22.3647 22.1593 22.484 22.2254C22.6033 22.2916 22.7079 22.3815 22.7911 22.4895C22.8744 22.5976 22.9347 22.7215 22.9683 22.8538C23.0267 23.1068 22.9867 23.3725 22.8565 23.5972C22.7263 23.8218 22.5156 23.9886 22.2671 24.0637C21.1012 24.4324 19.9035 24.6918 18.6896 24.8388C18.6148 24.8479 18.543 24.8738 18.4796 24.9146C18.4162 24.9554 18.3628 25.01 18.3235 25.0743C18.2842 25.1386 18.26 25.211 18.2526 25.286C18.2452 25.361 18.2548 25.4367 18.2808 25.5075L18.7171 26.6887C18.814 26.9467 18.9625 27.1821 19.1537 27.3806C19.3448 27.579 19.5745 27.7364 19.8286 27.8429C20.0827 27.9494 20.3559 28.0029 20.6314 28C20.9069 27.9971 21.179 27.938 21.4308 27.8263L29.8058 24.1125C30.2379 23.9233 30.5889 23.5869 30.7963 23.1633C31.0036 22.7396 31.054 22.2561 30.9383 21.7987ZM11.4996 19C11.2029 19 10.9129 18.912 10.6662 18.7472C10.4195 18.5824 10.2273 18.3481 10.1138 18.074C10.0002 17.7999 9.97052 17.4983 10.0284 17.2074C10.0863 16.9164 10.2291 16.6491 10.4389 16.4393C10.6487 16.2296 10.916 16.0867 11.2069 16.0288C11.4979 15.9709 11.7995 16.0007 12.0736 16.1142C12.3477 16.2277 12.582 16.42 12.7468 16.6666C12.9116 16.9133 12.9996 17.2033 12.9996 17.5C12.9996 17.8978 12.8415 18.2794 12.5602 18.5607C12.2789 18.842 11.8974 19 11.4996 19ZM20.4996 19C20.2029 19 19.9129 18.912 19.6662 18.7472C19.4195 18.5824 19.2273 18.3481 19.1138 18.074C19.0002 17.7999 18.9705 17.4983 19.0284 17.2074C19.0863 16.9164 19.2291 16.6491 19.4389 16.4393C19.6487 16.2296 19.916 16.0867 20.2069 16.0288C20.4979 15.9709 20.7995 16.0007 21.0736 16.1142C21.3477 16.2277 21.582 16.42 21.7468 16.6666C21.9116 16.9133 21.9996 17.2033 21.9996 17.5C21.9996 17.8978 21.8415 18.2794 21.5602 18.5607C21.2789 18.842 20.8974 19 20.4996 19Z" fill="#222222"/>
</svg>
