<svg width="32" height="32" viewBox="0 0 32 32" fill="none" xmlns="http://www.w3.org/2000/svg">
<path d="M23.4997 15L15.9997 10L22.9447 5.375C23.109 5.26536 23.3021 5.20685 23.4997 5.20685C23.6972 5.20685 23.8904 5.26536 24.0547 5.375L29.7497 9.1675C29.8869 9.25878 29.9993 9.38254 30.0771 9.52778C30.1549 9.67302 30.1957 9.83523 30.1957 10C30.1957 10.1648 30.1549 10.327 30.0771 10.4722C29.9993 10.6175 29.8869 10.7412 29.7497 10.8325L23.4997 15ZM9.05469 5.375C8.89036 5.26536 8.69723 5.20685 8.49969 5.20685C8.30214 5.20685 8.10902 5.26536 7.94469 5.375L2.24969 9.1675C2.11252 9.25878 2.00003 9.38254 1.92223 9.52778C1.84442 9.67302 1.80371 9.83523 1.80371 10C1.80371 10.1648 1.84442 10.327 1.92223 10.4722C2.00003 10.6175 2.11252 10.7412 2.24969 10.8325L8.49969 15L15.9997 10L9.05469 5.375ZM29.7497 19.1675L23.4997 15L15.9997 20L22.9447 24.625C23.109 24.7346 23.3021 24.7931 23.4997 24.7931C23.6972 24.7931 23.8904 24.7346 24.0547 24.625L29.7497 20.8325C29.8869 20.7412 29.9993 20.6175 30.0771 20.4722C30.1549 20.327 30.1957 20.1648 30.1957 20C30.1957 19.8352 30.1549 19.673 30.0771 19.5278C29.9993 19.3825 29.8869 19.2588 29.7497 19.1675ZM2.24969 19.1675C2.11252 19.2588 2.00003 19.3825 1.92223 19.5278C1.84442 19.673 1.80371 19.8352 1.80371 20C1.80371 20.1648 1.84442 20.327 1.92223 20.4722C2.00003 20.6175 2.11252 20.7412 2.24969 20.8325L7.94469 24.625C8.10902 24.7346 8.30214 24.7931 8.49969 24.7931C8.69723 24.7931 8.89036 24.7346 9.05469 24.625L15.9997 20L8.49969 15L2.24969 19.1675ZM21.0759 25.7862L16.2797 22.5887C16.1975 22.5339 16.101 22.5047 16.0022 22.5047C15.9034 22.5047 15.8069 22.5339 15.7247 22.5887L10.9259 25.7862C10.8576 25.8319 10.8016 25.8938 10.7629 25.9663C10.7241 26.0388 10.7039 26.1197 10.7039 26.2019C10.7039 26.2841 10.7241 26.365 10.7629 26.4375C10.8016 26.51 10.8576 26.5718 10.9259 26.6175L15.4447 29.625C15.609 29.7346 15.8021 29.7931 15.9997 29.7931C16.1972 29.7931 16.3904 29.7346 16.5547 29.625L21.0734 26.6125C21.1407 26.5666 21.1958 26.505 21.2338 26.433C21.2719 26.361 21.2918 26.2808 21.2918 26.1994C21.2918 26.1179 21.2719 26.0377 21.2338 25.9657C21.1958 25.8937 21.1407 25.8321 21.0734 25.7862H21.0759Z" fill="#222222"/>
</svg>
