<svg width="32" height="32" viewBox="0 0 32 32" fill="none" xmlns="http://www.w3.org/2000/svg">
<path d="M30.0004 20C29.9989 22.4921 29.067 24.8938 27.3872 26.7346C25.7074 28.5754 23.4008 29.7227 20.9194 29.9517C18.4379 30.1807 15.9603 29.4749 13.972 27.9726C11.9837 26.4703 10.628 24.2797 10.1704 21.83C11.7665 22.1269 13.4108 22.0307 14.9614 21.5498C16.512 21.0689 17.9221 20.2177 19.0701 19.0697C20.218 17.9218 21.0692 16.5116 21.5502 14.961C22.0311 13.4105 22.1273 11.7661 21.8304 10.17C24.1255 10.5973 26.1988 11.814 27.691 13.6093C29.1831 15.4047 30.0001 17.6655 30.0004 20ZM20.0004 10C20.6143 10.0006 21.2269 10.0575 21.8304 10.17C21.4973 8.3793 20.6815 6.71354 19.4709 5.35257C18.2604 3.99159 16.7011 2.9871 14.9614 2.44751C13.2217 1.90793 11.3677 1.85375 9.59943 2.29083C7.8312 2.7279 6.21592 3.63963 4.92796 4.92759C3.63999 6.21555 2.72827 7.83083 2.29119 9.59907C1.85412 11.3673 1.9083 13.2213 2.44788 14.961C2.98746 16.7007 3.99196 18.26 5.35293 19.4706C6.71391 20.6811 8.37967 21.497 10.1704 21.83C9.90174 20.3867 9.95418 18.9019 10.324 17.481C10.6938 16.0602 11.372 14.7383 12.3103 13.6091C13.2486 12.4799 14.424 11.5711 15.7531 10.9474C17.0821 10.3237 18.5323 10.0002 20.0004 10Z" fill="#222222"/>
</svg>
