<svg width="32" height="32" viewBox="0 0 32 32" fill="none" xmlns="http://www.w3.org/2000/svg">
<path d="M28.7687 14.6375L26.2812 5.125C26.2021 4.81606 26.026 4.54059 25.7789 4.33899C25.5318 4.13738 25.2266 4.02023 24.908 4.00472C24.5895 3.9892 24.2743 4.07613 24.0088 4.25277C23.7432 4.42941 23.5413 4.68646 23.4325 4.98625L21.2225 11H10.7775L8.56746 4.98375C8.45842 4.68401 8.25622 4.42708 7.99051 4.25064C7.72479 4.07419 7.40954 3.98752 7.09097 4.00331C6.7724 4.01911 6.46727 4.13655 6.22031 4.33841C5.97336 4.54027 5.79757 4.81594 5.71871 5.125L3.23121 14.6375C2.86382 16.0374 2.93002 17.5159 3.42106 18.8774C3.91209 20.2389 4.80483 21.4193 5.98121 22.2625L15.14 28.7325C15.3912 28.9099 15.6912 29.0051 15.9987 29.0051C16.3063 29.0051 16.6062 28.9099 16.8575 28.7325L26.0162 22.2625C27.193 21.4197 28.0863 20.2394 28.5778 18.8779C29.0693 17.5164 29.1358 16.0377 28.7687 14.6375ZM5.08496 15.5125L14.2662 22L11.6762 23.8313L7.13621 20.625C6.34396 20.056 5.73024 19.273 5.36695 18.3678C5.00366 17.4626 4.90585 16.4726 5.08496 15.5138V15.5125ZM16 26.8875L13.4087 25.0563L16 23.225L18.5912 25.055L16 26.8875ZM24.8637 20.625L20.3237 23.8325L17.7337 22L26.915 15.5125C27.0943 16.4715 26.9966 17.4618 26.6333 18.3673C26.27 19.2727 25.6562 20.0559 24.8637 20.625Z" fill="#222222"/>
</svg>
