<svg width="32" height="32" viewBox="0 0 32 32" fill="none" xmlns="http://www.w3.org/2000/svg">
<path d="M27.0003 8.00002V18C27.0012 19.3008 26.7705 20.5914 26.319 21.8113C26.2886 21.8912 26.2383 21.962 26.1728 22.017C26.1072 22.0719 26.0287 22.1091 25.9447 22.125C25.8607 22.141 25.774 22.1351 25.6929 22.1079C25.6118 22.0808 25.539 22.0333 25.4815 21.97L20.3153 16.2875C20.2651 16.2319 20.2281 16.1658 20.2069 16.0939C20.1858 16.0221 20.181 15.9464 20.193 15.8725C20.205 15.7986 20.2335 15.7283 20.2762 15.6669C20.319 15.6055 20.3751 15.5544 20.4403 15.5175C21.8326 14.6956 23.3901 14.1931 25.0003 14.0463V9.05626C23.754 9.19797 22.5509 9.59743 21.4673 10.2293C20.3838 10.8611 19.4436 11.7114 18.7065 12.7263C18.6237 12.8412 18.5173 12.9373 18.3946 13.0081C18.2718 13.0788 18.1354 13.1227 17.9944 13.1368C17.8534 13.1508 17.711 13.1348 17.5767 13.0896C17.4424 13.0445 17.3192 12.9714 17.2153 12.875C17.0366 12.7028 16.9268 12.4714 16.9063 12.2241C16.8859 11.9768 16.9561 11.7305 17.104 11.5313C17.9478 10.3742 19.0093 9.39299 20.229 8.64252C19.0778 6.22502 16.9315 4.71752 16.0003 4.15002C14.9024 4.82477 13.9156 5.66558 13.0753 6.64252C12.9838 6.75107 12.8703 6.83892 12.7423 6.90023C12.6143 6.96153 12.4748 6.99489 12.3329 6.99808C12.191 7.00127 12.05 6.97423 11.9194 6.91874C11.7888 6.86325 11.6715 6.7806 11.5753 6.67627C11.4102 6.49056 11.3184 6.25112 11.317 6.00268C11.3157 5.75424 11.4048 5.51379 11.5678 5.32627C12.6867 4.01791 14.0366 2.92643 15.5503 2.10627C15.6892 2.03674 15.8424 2.00055 15.9978 2.00055C16.1531 2.00055 16.3063 2.03674 16.4453 2.10627C16.6103 2.18877 20.229 4.03502 22.019 7.75002C23.2838 7.25696 24.629 7.00267 25.9865 7.00002C26.119 6.99819 26.2505 7.02271 26.3734 7.07215C26.4963 7.12159 26.6082 7.19496 26.7025 7.288C26.7968 7.38104 26.8717 7.4919 26.9228 7.61413C26.974 7.73636 27.0003 7.86753 27.0003 8.00002ZM26.7403 26.3275C26.8304 26.4244 26.9005 26.5382 26.9463 26.6623C26.9922 26.7864 27.013 26.9184 27.0074 27.0506C27.0019 27.1828 26.9702 27.3127 26.9141 27.4325C26.8581 27.5524 26.7788 27.6599 26.6809 27.7489C26.5829 27.8379 26.4683 27.9066 26.3436 27.951C26.219 27.9954 26.0867 28.0146 25.9546 28.0074C25.8225 28.0003 25.693 27.9671 25.5739 27.9096C25.4547 27.8521 25.3481 27.7715 25.2603 27.6725L23.6478 25.8988C21.6155 27.8728 18.8984 28.9841 16.0653 29C9.979 29.035 5.00025 23.9388 5.00025 17.8538V8.00002C5.00024 7.86774 5.02648 7.73678 5.07743 7.61472C5.12839 7.49265 5.20306 7.38191 5.29711 7.2889C5.39116 7.19589 5.50273 7.12247 5.62536 7.07288C5.74799 7.02329 5.87924 6.99853 6.0115 7.00002C6.16775 7.00002 6.3215 7.00002 6.4765 7.01127L5.26025 5.67252C5.17008 5.57566 5.10004 5.46187 5.05417 5.33774C5.00831 5.21361 4.98754 5.08161 4.99306 4.9494C4.99858 4.81718 5.03029 4.68738 5.08635 4.56751C5.14241 4.44764 5.22171 4.34009 5.31964 4.25109C5.41757 4.16209 5.53219 4.09341 5.65686 4.04904C5.78153 4.00467 5.91377 3.98548 6.04591 3.99259C6.17805 3.9997 6.30746 4.03296 6.42665 4.09045C6.54584 4.14795 6.65243 4.22852 6.74025 4.32752L26.7403 26.3275ZM17.0403 18.6313L8.64775 9.39877C8.11065 9.23248 7.55903 9.11738 7.00025 9.05502V14.0475C8.92818 14.2259 10.7751 14.9091 12.355 16.0283C13.935 17.1474 15.1923 18.663 16.0003 20.4225C16.29 19.7941 16.6382 19.1944 17.0403 18.6313Z" fill="#222222"/>
</svg>
