<svg width="32" height="32" viewBox="0 0 32 32" fill="none" xmlns="http://www.w3.org/2000/svg">
<path d="M27.9995 12.9999V19.3661C27.9995 25.1411 23.3933 29.9349 17.6245 29.9986C16.2244 30.0175 14.8348 29.7552 13.5379 29.2272C12.241 28.6992 11.0633 27.9163 10.0745 26.9249C7.34828 24.0411 4.26828 16.9999 4.26828 16.9999C4.1328 16.7654 4.04635 16.5058 4.01417 16.237C3.98199 15.9681 4.00475 15.6955 4.08108 15.4356C4.1574 15.1758 4.2857 14.9342 4.45818 14.7254C4.63067 14.5166 4.84376 14.3451 5.08453 14.2211C6.04203 13.7211 7.22203 14.1161 7.75953 15.0486L10.3845 19.6036C10.4575 19.7348 10.5677 19.8414 10.7011 19.9101C10.8346 19.9789 10.9854 20.0066 11.1345 19.9899H11.1495C11.3897 19.9485 11.6073 19.8228 11.7631 19.6354C11.9189 19.448 12.0028 19.2111 11.9995 18.9674V3.99988C11.9992 3.72893 12.054 3.46075 12.1604 3.21161C12.2669 2.96246 12.4229 2.73755 12.6189 2.55051C12.815 2.36348 13.047 2.21823 13.3008 2.12358C13.5547 2.02892 13.8252 1.98684 14.0958 1.99988C15.172 2.04988 15.9995 2.97738 15.9995 4.05363V12.9999C15.9992 13.137 16.0271 13.2726 16.0815 13.3985C16.1358 13.5244 16.2155 13.6377 16.3154 13.7315C16.4154 13.8253 16.5336 13.8975 16.6627 13.9436C16.7918 13.9898 16.929 14.009 17.0658 13.9999C17.3229 13.9778 17.5622 13.8592 17.7354 13.6678C17.9086 13.4765 18.003 13.2267 17.9995 12.9686V10.9999C17.9992 10.7289 18.054 10.4608 18.1604 10.2116C18.2669 9.96246 18.4229 9.73755 18.6189 9.55051C18.815 9.36348 19.047 9.21823 19.3008 9.12358C19.5547 9.02892 19.8252 8.98684 20.0958 8.99988C21.172 9.04988 21.9995 9.97738 21.9995 11.0536V13.9999C21.9992 14.137 22.0271 14.2726 22.0815 14.3985C22.1358 14.5244 22.2155 14.6377 22.3154 14.7315C22.4154 14.8253 22.5336 14.8975 22.6627 14.9436C22.7918 14.9898 22.929 15.009 23.0658 14.9999C23.3229 14.9778 23.5622 14.8592 23.7354 14.6678C23.9086 14.4765 24.003 14.2267 23.9995 13.9686V13.0586C23.9995 11.9824 24.827 11.0586 25.9033 11.0049C26.1735 10.9919 26.4435 11.0338 26.6971 11.1281C26.9506 11.2225 27.1824 11.3673 27.3783 11.5538C27.5743 11.7403 27.7304 11.9646 27.8372 12.2132C27.9439 12.4617 27.9992 12.7294 27.9995 12.9999Z" fill="#222222"/>
</svg>
