<svg width="32" height="32" viewBox="0 0 32 32" fill="none" xmlns="http://www.w3.org/2000/svg">
<path d="M29.5001 6.12498C29.4985 5.50832 29.3145 4.90593 28.9713 4.39363C28.628 3.88134 28.1409 3.48205 27.5712 3.24605C27.0015 3.01004 26.3747 2.94786 25.7697 3.06734C25.1647 3.18681 24.6086 3.48261 24.1714 3.91748L17.8951 10.1925L2.29264 25.8C2.16649 25.9262 2.07642 26.0839 2.03178 26.2567C1.98714 26.4295 1.98957 26.6111 2.0388 26.7827C2.08803 26.9542 2.18228 27.1095 2.31176 27.2323C2.44124 27.3552 2.60124 27.4411 2.77514 27.4812C4.25893 27.8252 5.77702 27.9992 7.30014 28C11.4189 28 15.5389 26.725 19.4176 24.2212C23.3876 21.6587 25.6914 18.7437 25.7926 18.6212C25.9433 18.4289 26.0184 18.1881 26.0036 17.9442C25.9889 17.7003 25.8854 17.4703 25.7126 17.2975L22.6639 14.25L28.5864 8.32623C28.8762 8.03758 29.1061 7.69453 29.2629 7.31677C29.4197 6.93901 29.5003 6.53399 29.5001 6.12498ZM18.2789 22.575C13.9751 25.3375 9.53639 26.44 5.05889 25.8625L18.2501 12.6675L23.6364 18.055C22.0506 19.7839 20.2501 21.3029 18.2789 22.575Z" fill="#222222"/>
</svg>
