<svg width="32" height="32" viewBox="0 0 32 32" fill="none" xmlns="http://www.w3.org/2000/svg">
<path d="M27.4075 10H26.4613C26.8149 9.39288 27.0009 8.70265 27 8.00001C27.0004 7.32309 26.8289 6.65714 26.5017 6.06454C26.1745 5.47194 25.7023 4.97206 25.1293 4.61172C24.5562 4.25138 23.9011 4.04236 23.2253 4.00424C22.5494 3.96612 21.8749 4.10015 21.265 4.39376C20.651 3.39148 19.7036 2.63753 18.5891 2.2643C17.4745 1.89107 16.2641 1.92242 15.1704 2.35284C14.0766 2.78326 13.1695 3.58524 12.6082 4.61796C12.047 5.65068 11.8675 6.84811 12.1012 8.00001H5C4.46957 8.00001 3.96086 8.21073 3.58579 8.5858C3.21071 8.96087 3 9.46958 3 10V22C3 22.5304 3.21071 23.0392 3.58579 23.4142C3.96086 23.7893 4.46957 24 5 24H9.58375C10.1824 25.4781 11.2091 26.7436 12.5321 27.634C13.8552 28.5243 15.4141 28.999 17.0088 28.997C18.6036 28.9949 20.1613 28.5164 21.4821 27.6227C22.8028 26.7289 23.8264 25.4609 24.4212 23.9813C25.6698 23.8757 26.8332 23.3052 27.6811 22.3827C28.5291 21.4602 28.9998 20.253 29 19V11.5925C28.9993 11.1704 28.8313 10.7657 28.5328 10.4672C28.2343 10.1687 27.8297 10.0007 27.4075 10ZM17 4.00001C17.6206 3.99997 18.226 4.19241 18.7327 4.55082C19.2393 4.90923 19.6224 5.41595 19.829 6.00117C20.0357 6.58639 20.0557 7.22129 19.8864 7.81838C19.7171 8.41546 19.3668 8.94535 18.8838 9.33501C18.7463 8.94507 18.4913 8.60731 18.154 8.36824C17.8166 8.12916 17.4135 8.00052 17 8.00001H14.1725C14.0125 7.54759 13.9635 7.0634 14.0293 6.58809C14.0952 6.11277 14.2742 5.66019 14.5512 5.26834C14.8282 4.87649 15.1951 4.5568 15.6212 4.33611C16.0473 4.11542 16.5201 4.00016 17 4.00001ZM11 20C10.7348 20 10.4804 19.8947 10.2929 19.7071C10.1054 19.5196 10 19.2652 10 19V14H9C8.73478 14 8.48043 13.8947 8.29289 13.7071C8.10536 13.5196 8 13.2652 8 13C8 12.7348 8.10536 12.4804 8.29289 12.2929C8.48043 12.1054 8.73478 12 9 12H13C13.2652 12 13.5196 12.1054 13.7071 12.2929C13.8946 12.4804 14 12.7348 14 13C14 13.2652 13.8946 13.5196 13.7071 13.7071C13.5196 13.8947 13.2652 14 13 14H12V19C12 19.2652 11.8946 19.5196 11.7071 19.7071C11.5196 19.8947 11.2652 20 11 20ZM23 21C22.9996 22.3204 22.5636 23.6039 21.7596 24.6513C20.9556 25.6988 19.8285 26.4517 18.5531 26.7935C17.2776 27.1353 15.9251 27.0468 14.705 26.5418C13.485 26.0367 12.4657 25.1433 11.805 24H17C17.5304 24 18.0391 23.7893 18.4142 23.4142C18.7893 23.0392 19 22.5304 19 22V12H23V21ZM23 10H21C21.3938 9.47599 21.6804 8.87948 21.8434 8.24459C22.0064 7.60971 22.0426 6.94891 21.95 6.30001C22.2131 6.13694 22.5105 6.03718 22.8188 6.00857C23.127 5.97997 23.4377 6.0233 23.7263 6.13517C24.0149 6.24704 24.2737 6.42438 24.4821 6.65323C24.6906 6.88209 24.8431 7.15621 24.9276 7.45401C25.0121 7.75181 25.0263 8.06516 24.9692 8.3694C24.912 8.67364 24.785 8.96045 24.5981 9.20725C24.4113 9.45406 24.1697 9.65412 23.8923 9.79168C23.615 9.92925 23.3096 10.0006 23 10ZM27 19C27 19.6285 26.8025 20.2411 26.4356 20.7513C26.0687 21.2616 25.5508 21.6437 24.955 21.8438C24.9851 21.5635 25.0002 21.2819 25 21V12H27V19Z" fill="#222222"/>
</svg>
