<svg width="32" height="32" viewBox="0 0 32 32" fill="none" xmlns="http://www.w3.org/2000/svg">
<path d="M31.8599 24.49L25.0399 12.98C24.864 12.6802 24.6124 12.4318 24.3103 12.2598C24.0082 12.0878 23.6663 11.9982 23.3186 12C22.9712 11.9982 22.6294 12.0878 22.3275 12.2598C22.0256 12.4318 21.7742 12.6802 21.5986 12.98L19.6436 16.2788C19.5981 16.3558 19.5741 16.4436 19.5741 16.5331C19.5741 16.6226 19.5981 16.7105 19.6436 16.7875L22.9936 22.4713C23.1209 22.6823 23.1671 22.9325 23.1236 23.1751C23.0801 23.4177 22.95 23.6362 22.7574 23.79C22.6451 23.8772 22.5156 23.9394 22.3774 23.9725C22.2392 24.0057 22.0956 24.009 21.956 23.9823C21.8164 23.9555 21.6842 23.8994 21.568 23.8175C21.4519 23.7356 21.3545 23.63 21.2824 23.5075L12.7236 8.985C12.547 8.68483 12.2951 8.43598 11.9927 8.26309C11.6904 8.09019 11.3482 7.99924 10.9999 7.99924C10.6516 7.99924 10.3094 8.09019 10.007 8.26309C9.7047 8.43598 9.45276 8.68483 9.27614 8.985L0.138641 24.4925C0.0283895 24.6778 -0.0190069 24.8938 0.0035197 25.1083C0.0260462 25.3227 0.117289 25.5241 0.26364 25.6825C0.362189 25.7855 0.481082 25.867 0.612776 25.9216C0.744469 25.9763 0.886086 26.003 1.02864 26H30.9711C31.1131 26.0019 31.2539 25.9745 31.3849 25.9197C31.5158 25.8648 31.6341 25.7837 31.7324 25.6813C31.8794 25.5231 31.9713 25.3216 31.9943 25.1068C32.0173 24.8921 31.9701 24.6757 31.8599 24.49ZM8.05364 15L10.9999 10L13.9461 15H8.05364ZM17.4999 6.5C17.4999 5.90666 17.6758 5.32664 18.0055 4.83329C18.3351 4.33994 18.8037 3.95543 19.3518 3.72836C19.9 3.5013 20.5032 3.44189 21.0852 3.55765C21.6671 3.6734 22.2017 3.95912 22.6212 4.37868C23.0408 4.79824 23.3265 5.33279 23.4422 5.91473C23.558 6.49667 23.4986 7.09987 23.2715 7.64805C23.0445 8.19623 22.6599 8.66477 22.1666 8.99441C21.6733 9.32405 21.0932 9.5 20.4999 9.5C19.7042 9.5 18.9412 9.18393 18.3786 8.62132C17.816 8.05871 17.4999 7.29565 17.4999 6.5Z" fill="#222222"/>
</svg>
