<svg width="32" height="32" viewBox="0 0 32 32" fill="none" xmlns="http://www.w3.org/2000/svg">
<path d="M31.9997 25.9999C31.9997 26.7956 31.6836 27.5586 31.121 28.1212C30.5584 28.6838 29.7954 28.9999 28.9997 28.9999C28.2041 28.9999 27.441 28.6838 26.8784 28.1212C26.3158 27.5586 25.9997 26.7956 25.9997 25.9999C25.9997 23.7612 27.946 20.7787 28.1672 20.4449C28.2585 20.3078 28.3822 20.1953 28.5275 20.1175C28.6727 20.0397 28.8349 19.9989 28.9997 19.9989C29.1645 19.9989 29.3267 20.0397 29.4719 20.1175C29.6172 20.1953 29.7409 20.3078 29.8322 20.4449C30.0535 20.7787 31.9997 23.7612 31.9997 25.9999ZM16.561 15.5612C16.8427 15.2794 17.0011 14.8972 17.0011 14.4987C17.0011 14.1002 16.8427 13.718 16.561 13.4362C16.2792 13.1544 15.897 12.9961 15.4985 12.9961C15.0999 12.9961 14.7177 13.1544 14.436 13.4362C14.1588 13.7187 14.0046 14.0993 14.0069 14.4951C14.0092 14.8908 14.1677 15.2697 14.4481 15.549C14.7284 15.8284 15.1078 15.9856 15.5036 15.9865C15.8993 15.9873 16.2794 15.8318 16.561 15.5537V15.5612ZM4.70595 2.29242C4.51831 2.10494 4.26388 1.99969 3.99864 1.9998C3.73339 1.99992 3.47905 2.1054 3.29158 2.29304C3.1041 2.48068 2.99885 2.73511 2.99896 3.00036C2.99908 3.26561 3.10456 3.51994 3.2922 3.70742L7.3672 7.78242L8.78095 6.37492L4.70595 2.29242ZM29.316 17.3837C29.4775 17.3297 29.6227 17.2354 29.7376 17.1097C29.8525 16.9839 29.9334 16.8309 29.9726 16.6652C30.0118 16.4994 30.008 16.3263 29.9615 16.1624C29.9151 15.9985 29.8275 15.8492 29.7072 15.7287L15.271 1.29242C15.0834 1.10502 14.8292 0.999756 14.5641 0.999756C14.299 0.999756 14.0447 1.10502 13.8572 1.29242L8.78095 6.37492L13.8347 11.4274C14.5741 11.0273 15.4328 10.9066 16.2538 11.0876C17.0748 11.2685 17.8032 11.7389 18.3059 12.4127C18.8086 13.0866 19.052 13.9188 18.9915 14.7574C18.931 15.5959 18.5707 16.3846 17.9765 16.9793C17.3823 17.5741 16.5939 17.935 15.7554 17.9963C14.917 18.0575 14.0845 17.8149 13.4102 17.3128C12.7359 16.8107 12.2649 16.0826 12.0832 15.2618C11.9016 14.4409 12.0215 13.5821 12.421 12.8424L7.3672 7.78242L1.8747 13.2712C1.31214 13.8338 0.996094 14.5968 0.996094 15.3924C0.996094 16.188 1.31214 16.9511 1.8747 17.5137L12.486 28.1249C13.0486 28.6875 13.8116 29.0035 14.6072 29.0035C15.4028 29.0035 16.1659 28.6875 16.7285 28.1249L26.5397 18.3137L29.316 17.3837Z" fill="#222222"/>
</svg>
