<svg width="32" height="32" viewBox="0 0 32 32" fill="none" xmlns="http://www.w3.org/2000/svg">
<path d="M28.9249 5.54254C28.9249 5.54254 28.9249 5.55504 28.9249 5.56129L21.6499 29.5538C21.5398 29.9435 21.3131 30.2902 21.0003 30.5473C20.6875 30.8045 20.3035 30.9599 19.8999 30.9925C19.8424 30.9975 19.7849 31 19.7274 31C19.3491 31.0012 18.9784 30.8942 18.6591 30.6915C18.3397 30.4888 18.0849 30.199 17.9249 29.8563L13.3749 20.5188C13.3294 20.4252 13.3142 20.3198 13.3314 20.2171C13.3487 20.1145 13.3975 20.0198 13.4711 19.9463L20.7111 12.7063C20.8908 12.5172 20.9894 12.2655 20.9861 12.0047C20.9827 11.744 20.8777 11.4948 20.6933 11.3104C20.5089 11.126 20.2597 11.0209 19.999 11.0176C19.7382 11.0143 19.4865 11.1129 19.2974 11.2925L12.0536 18.5325C11.9801 18.6062 11.8854 18.655 11.7828 18.6723C11.6802 18.6895 11.5747 18.6743 11.4811 18.6288L2.1349 14.08C1.76942 13.9047 1.46585 13.6224 1.26442 13.2707C1.06298 12.9189 0.973194 12.5142 1.00695 12.1103C1.0407 11.7063 1.1964 11.3222 1.45342 11.0087C1.71044 10.6953 2.05664 10.4673 2.44615 10.355L26.4386 3.08004H26.4574C26.799 2.98407 27.16 2.9807 27.5033 3.07029C27.8467 3.15988 28.16 3.3392 28.4111 3.58985C28.6623 3.84049 28.8422 4.15345 28.9325 4.4966C29.0228 4.83975 29.0202 5.20074 28.9249 5.54254Z" fill="#222222"/>
</svg>
