<svg width="32" height="32" viewBox="0 0 32 32" fill="none" xmlns="http://www.w3.org/2000/svg">
<path d="M29.5353 20.2301C29.2709 20.5681 28.9048 20.812 28.4911 20.9259C28.0774 21.0398 27.638 21.0176 27.2378 20.8626L21.1128 18.6889L21.0766 18.6751C20.7703 18.5526 20.4991 18.3562 20.2871 18.1034C20.0751 17.8506 19.9289 17.5493 19.8616 17.2264L19.0853 13.5076C17.0714 12.8214 14.8862 12.8262 12.8753 13.5214L12.1378 17.2114C12.0728 17.5379 11.9273 17.843 11.7144 18.0991C11.5016 18.3551 11.2282 18.554 10.9191 18.6776L10.8828 18.6914L4.75785 20.8626C4.53049 20.9522 4.28847 20.9988 4.0441 21.0001C3.73991 21.0007 3.4396 20.9318 3.16602 20.7988C2.89244 20.6658 2.65281 20.4722 2.46535 20.2326C0.311599 17.4551 0.552849 13.7689 3.0516 11.2689C10.0703 4.24762 21.9266 4.24762 28.9491 11.2689C31.4478 13.7664 31.6891 17.4526 29.5353 20.2301ZM27.0003 24.0001H5.00035C4.73513 24.0001 4.48078 24.1055 4.29324 24.293C4.10571 24.4805 4.00035 24.7349 4.00035 25.0001C4.00035 25.2653 4.10571 25.5197 4.29324 25.7072C4.48078 25.8948 4.73513 26.0001 5.00035 26.0001H27.0003C27.2656 26.0001 27.5199 25.8948 27.7075 25.7072C27.895 25.5197 28.0003 25.2653 28.0003 25.0001C28.0003 24.7349 27.895 24.4805 27.7075 24.293C27.5199 24.1055 27.2656 24.0001 27.0003 24.0001Z" fill="#222222"/>
</svg>
