<svg width="32" height="32" viewBox="0 0 32 32" fill="none" xmlns="http://www.w3.org/2000/svg">
<path d="M30 24.5001C29.976 24.2106 29.8892 23.9297 29.7456 23.6772C29.6021 23.4246 29.4052 23.2063 29.1687 23.0376L24.4187 19.6438L26.5437 17.5251C27.1235 16.9502 27.5524 16.2411 27.7923 15.4606C28.0321 14.6802 28.0756 13.8526 27.9187 13.0513C27.337 10.1953 25.7709 7.6343 23.4937 5.81507C21.1811 3.95341 18.291 2.95776 15.3225 3.00007C12.0715 3.05505 8.9691 4.37096 6.66999 6.67006C4.37088 8.96917 3.05497 12.0716 3 15.3226C2.96337 18.2874 3.95998 21.1725 5.81875 23.4826C7.63797 25.7597 10.199 27.3258 13.055 27.9076C13.8563 28.0643 14.6838 28.0208 15.4643 27.7809C16.2447 27.5411 16.9538 27.1123 17.5287 26.5326L19.6475 24.4076L23.0412 29.1576C23.2085 29.3957 23.4256 29.5944 23.6776 29.7399C23.9295 29.8854 24.2102 29.9742 24.5 30.0001C24.555 30.0001 24.61 30.0063 24.665 30.0063C25.1953 30.0061 25.7039 29.7952 26.0787 29.4201L29.4087 26.0901C29.6178 25.8846 29.7791 25.6356 29.8813 25.3609C29.9835 25.0861 30.024 24.7922 30 24.5001ZM24.675 28.0001L20.5962 22.2888C20.5118 22.1707 20.4026 22.0724 20.2764 22.0007C20.1501 21.9291 20.0097 21.8858 19.865 21.8738C19.8375 21.8738 19.81 21.8738 19.7825 21.8738C19.6511 21.8737 19.521 21.8995 19.3996 21.9497C19.2783 21.9999 19.1679 22.0735 19.075 22.1663L16.1212 25.1201C15.7789 25.4675 15.3561 25.7249 14.8903 25.8695C14.4244 26.0141 13.9301 26.0414 13.4512 25.9488C12.9279 25.8441 12.4138 25.6978 11.9137 25.5113L25.5137 11.9113C25.7001 12.4114 25.8464 12.9255 25.9512 13.4488C26.0439 13.9277 26.0167 14.4221 25.8721 14.8879C25.7275 15.3537 25.47 15.7766 25.1225 16.1188L22.1625 19.0688C22.0597 19.1715 21.9805 19.2953 21.9304 19.4316C21.8803 19.568 21.8605 19.7136 21.8724 19.8584C21.8843 20.0032 21.9276 20.1437 21.9993 20.27C22.0709 20.3964 22.1693 20.5056 22.2875 20.5901L28 24.6701L24.675 28.0001Z" fill="#222222"/>
</svg>
