<svg width="32" height="32" viewBox="0 0 32 32" fill="none" xmlns="http://www.w3.org/2000/svg">
<path d="M24.9999 18H15.4124L18.2136 15.1987C19.2264 15.7088 20.3423 15.9807 21.4761 15.9937C22.6174 15.9967 23.7374 15.6844 24.7124 15.0912C27.6774 13.2962 29.2661 9.14122 28.9624 3.97623C28.9481 3.73158 28.8445 3.5007 28.6712 3.32742C28.4979 3.15413 28.267 3.05051 28.0224 3.03623C22.8574 2.73248 18.7024 4.32123 16.9061 7.28623C15.7374 9.21748 15.7074 11.55 16.7986 13.7862L14.9999 15.585L13.4736 14.0587C14.2236 12.4025 14.1699 10.6837 13.2999 9.24872C11.9411 6.99998 8.82614 5.80123 4.96614 6.02748C4.72192 6.04203 4.4915 6.1456 4.31851 6.3186C4.14551 6.49159 4.04194 6.72201 4.02739 6.96623C3.79989 10.825 4.99989 13.94 7.24989 15.3C8.00263 15.7596 8.86792 16.0019 9.74989 16C10.55 15.992 11.3393 15.8135 12.0649 15.4762L13.5861 17L12.5861 18H6.99989C6.73467 18 6.48032 18.1053 6.29278 18.2929C6.10524 18.4804 5.99989 18.7348 5.99989 19C5.99989 19.2652 6.10524 19.5195 6.29278 19.7071C6.48032 19.8946 6.73467 20 6.99989 20H8.19864L9.84989 27.4337C9.94625 27.8792 10.1929 28.2779 10.5484 28.5631C10.9039 28.8483 11.3466 29.0025 11.8024 29H20.1986C20.6543 29.0021 21.0968 28.8477 21.4522 28.5625C21.8076 28.2774 22.0543 27.879 22.1511 27.4337L23.8024 20H24.9999C25.2651 20 25.5195 19.8946 25.707 19.7071C25.8945 19.5195 25.9999 19.2652 25.9999 19C25.9999 18.7348 25.8945 18.4804 25.707 18.2929C25.5195 18.1053 25.2651 18 24.9999 18Z" fill="#222222"/>
</svg>
