<svg width="32" height="32" viewBox="0 0 32 32" fill="none" xmlns="http://www.w3.org/2000/svg">
<path d="M29.4159 12.9999L23.4634 18.9724C23.4155 19.0203 23.3584 19.0579 23.2956 19.0831C23.2327 19.1082 23.1654 19.1203 23.0978 19.1187C23.0301 19.1171 22.9635 19.1017 22.9019 19.0735C22.8403 19.0454 22.7851 19.005 22.7396 18.9549L13.4996 8.78366C13.4135 8.68867 13.3672 8.56422 13.3702 8.43604C13.3732 8.30786 13.4254 8.18574 13.5159 8.09491L18.9996 2.58741C19.1854 2.40165 19.4059 2.25429 19.6485 2.15375C19.8912 2.05321 20.1513 2.00146 20.414 2.00146C20.6767 2.00146 20.9368 2.05321 21.1795 2.15375C21.4222 2.25429 21.6427 2.40165 21.8284 2.58741L29.4146 10.1724C29.7896 10.5473 30.0004 11.0557 30.0006 11.5859C30.0008 12.1161 29.7905 12.6247 29.4159 12.9999ZM6.73964 4.32741C6.64395 4.22263 6.52705 4.13941 6.39672 4.08328C6.26639 4.02716 6.1256 3.99941 5.98372 4.0019C5.84183 4.00438 5.7021 4.03703 5.57381 4.09768C5.44552 4.15833 5.33161 4.24559 5.23964 4.35366C5.08362 4.5454 5.00234 4.78716 5.01084 5.03421C5.01934 5.28126 5.11706 5.51686 5.28589 5.69741L8.41464 9.14366C7.28214 9.38616 6.02464 9.92116 4.74964 10.9537C4.5308 11.1296 4.35147 11.3497 4.22332 11.5996C4.09517 11.8495 4.02108 12.1235 4.00587 12.4039C3.99065 12.6843 4.03466 12.9648 4.13503 13.2271C4.2354 13.4894 4.38987 13.7275 4.58839 13.9262L10.6246 19.9637L5.31839 25.2674C5.13349 25.4465 5.02303 25.6888 5.00912 25.9458C4.99521 26.2029 5.07889 26.4557 5.24339 26.6537C5.33323 26.7577 5.44354 26.8421 5.56745 26.9016C5.69136 26.9611 5.8262 26.9944 5.96356 26.9994C6.10091 27.0045 6.23784 26.9811 6.36577 26.9309C6.49371 26.8806 6.60992 26.8046 6.70714 26.7074L12.0359 21.3749L18.0721 27.4112C18.2577 27.5975 18.4782 27.7454 18.721 27.8465C18.9638 27.9475 19.2242 27.9996 19.4871 27.9999C19.5346 27.9999 19.5809 27.9999 19.6284 27.9999C19.9135 27.9802 20.191 27.8993 20.4421 27.7627C20.6931 27.6262 20.9119 27.4372 21.0834 27.2087C21.6775 26.4347 22.1667 25.5857 22.5384 24.6837L25.2596 27.6774C25.3475 27.7764 25.4541 27.857 25.5732 27.9145C25.6924 27.972 25.8218 28.0052 25.954 28.0123C26.0861 28.0194 26.2184 28.0003 26.343 27.9559C26.4677 27.9115 26.5823 27.8428 26.6803 27.7538C26.7782 27.6648 26.8575 27.5573 26.9135 27.4374C26.9696 27.3175 27.0013 27.1877 27.0068 27.0555C27.0124 26.9233 26.9916 26.7913 26.9457 26.6672C26.8999 26.5431 26.8298 26.4293 26.7396 26.3324L6.73964 4.32741Z" fill="#222222"/>
</svg>
