<svg width="32" height="32" viewBox="0 0 32 32" fill="none" xmlns="http://www.w3.org/2000/svg">
<path d="M12.0001 26C12.0001 26.2652 11.8948 26.5196 11.7072 26.7071C11.5197 26.8947 11.2653 27 11.0001 27H5.00013C4.47367 26.9997 3.95657 26.8608 3.50077 26.5974C3.04496 26.334 2.66651 25.9552 2.40342 25.4992C2.14033 25.0432 2.00187 24.526 2.00195 23.9996C2.00203 23.4731 2.14065 22.9559 2.40388 22.5L5.90388 16.4625L4.17638 15.4625C4.00326 15.3644 3.86334 15.2169 3.77452 15.0388C3.6857 14.8608 3.65202 14.6603 3.67779 14.463C3.70356 14.2657 3.78761 14.0805 3.91918 13.9313C4.05076 13.782 4.22387 13.6754 4.41638 13.625L8.51263 12.5288C8.63952 12.4947 8.77187 12.4861 8.90212 12.5032C9.03236 12.5204 9.15796 12.563 9.27172 12.6287C9.38548 12.6944 9.48518 12.7819 9.56512 12.8861C9.64506 12.9904 9.70368 13.1094 9.73763 13.2363L10.8364 17.3325C10.8877 17.5236 10.8811 17.7256 10.8176 17.913C10.754 18.1004 10.6363 18.2647 10.4793 18.3851C10.3223 18.5056 10.1331 18.5767 9.93569 18.5896C9.73825 18.6025 9.54143 18.5565 9.37013 18.4575L7.63513 17.4575L4.13888 23.5C4.05131 23.6517 4.00511 23.8237 4.0049 23.9988C4.00469 24.174 4.05047 24.3461 4.13768 24.498C4.22488 24.6498 4.35044 24.7761 4.5018 24.8643C4.65315 24.9524 4.825 24.9992 5.00013 25H11.0001C11.2653 25 11.5197 25.1054 11.7072 25.2929C11.8948 25.4804 12.0001 25.7348 12.0001 26ZM16.0001 4.00002C16.1759 3.99825 16.3489 4.04373 16.501 4.13168C16.6532 4.21964 16.7789 4.34685 16.8651 4.50002L20.3651 10.5375L18.6376 11.5375C18.4677 11.6367 18.3309 11.7837 18.2441 11.9603C18.1574 12.1368 18.1247 12.335 18.15 12.5301C18.1754 12.7251 18.2577 12.9084 18.3867 13.0569C18.5156 13.2054 18.6855 13.3126 18.8751 13.365L22.9726 14.4638C23.0571 14.486 23.144 14.4973 23.2314 14.4975C23.4514 14.4973 23.6651 14.4246 23.8396 14.2906C24.0141 14.1566 24.1395 13.9688 24.1964 13.7563L25.2951 9.65752C25.3462 9.46659 25.3395 9.26481 25.276 9.07766C25.2125 8.89051 25.0949 8.72639 24.9381 8.60602C24.7814 8.48564 24.5925 8.41442 24.3953 8.40134C24.1981 8.38825 24.0014 8.4339 23.8301 8.53252L22.0939 9.53252L18.5964 3.50002C18.3328 3.04481 17.9542 2.6669 17.4985 2.40419C17.0429 2.14147 16.5261 2.00317 16.0001 2.00317C15.4741 2.00317 14.9574 2.14147 14.5017 2.40419C14.046 2.6669 13.6674 3.04481 13.4039 3.50002L10.5089 8.50002C10.3845 8.72908 10.3545 8.99766 10.4252 9.24854C10.4959 9.49942 10.6618 9.71277 10.8875 9.84314C11.1132 9.97351 11.3809 10.0106 11.6336 9.94651C11.8862 9.88242 12.1039 9.72221 12.2401 9.50002L15.1351 4.50002C15.2213 4.34685 15.3471 4.21964 15.4992 4.13168C15.6514 4.04373 15.8244 3.99825 16.0001 4.00002ZM29.5914 22.5L26.6989 17.5C26.5605 17.2824 26.3434 17.1266 26.0929 17.0652C25.8424 17.0038 25.5778 17.0416 25.3545 17.1707C25.1312 17.2998 24.9664 17.5102 24.8946 17.7579C24.8227 18.0056 24.8493 18.2715 24.9689 18.5L27.8614 23.5C27.9489 23.6517 27.9951 23.8237 27.9954 23.9988C27.9956 24.174 27.9498 24.3461 27.8626 24.498C27.7754 24.6498 27.6498 24.7761 27.4985 24.8643C27.3471 24.9524 27.1753 24.9992 27.0001 25H20.0001V23C20.0003 22.8021 19.9417 22.6086 19.8318 22.444C19.722 22.2794 19.5657 22.1511 19.3829 22.0754C19.2001 21.9996 18.9989 21.9798 18.8048 22.0185C18.6107 22.0571 18.4325 22.1525 18.2926 22.2925L15.2926 25.2925C15.1997 25.3854 15.1259 25.4957 15.0756 25.6171C15.0252 25.7385 14.9993 25.8686 14.9993 26C14.9993 26.1314 15.0252 26.2616 15.0756 26.383C15.1259 26.5044 15.1997 26.6146 15.2926 26.7075L18.2926 29.7075C18.4325 29.8475 18.6107 29.9429 18.8048 29.9815C18.9989 30.0202 19.2001 30.0004 19.3829 29.9246C19.5657 29.8489 19.722 29.7206 19.8318 29.556C19.9417 29.3914 20.0003 29.1979 20.0001 29V27H27.0001C27.5266 26.9997 28.0437 26.8608 28.4995 26.5974C28.9553 26.334 29.3337 25.9552 29.5968 25.4992C29.8599 25.0432 29.9984 24.526 29.9983 23.9996C29.9982 23.4731 29.8596 22.9559 29.5964 22.5H29.5914Z" fill="#222222"/>
</svg>
