<svg width="32" height="32" viewBox="0 0 32 32" fill="none" xmlns="http://www.w3.org/2000/svg">
<path d="M26.4996 24.9999C26.4997 25.6567 26.356 26.3056 26.0786 26.9009C25.8012 27.4963 25.3969 28.0237 24.894 28.4462C24.391 28.8686 23.8017 29.1758 23.1674 29.3463C22.5331 29.5168 21.8692 29.5463 21.2223 29.4328C20.5753 29.3194 19.9611 29.0657 19.4226 28.6896C18.8842 28.3134 18.4346 27.824 18.1055 27.2556C17.7763 26.6872 17.5756 26.0537 17.5173 25.3995C17.4591 24.7453 17.5448 24.0862 17.7684 23.4686L11.1434 19.2124C10.5106 19.8331 9.70869 20.253 8.83817 20.4197C7.96765 20.5863 7.06731 20.4921 6.2501 20.149C5.43289 19.8059 4.7352 19.2291 4.24456 18.4909C3.75392 17.7528 3.49219 16.8862 3.49219 15.9999C3.49219 15.1136 3.75392 14.247 4.24456 13.5089C4.7352 12.7707 5.43289 12.1939 6.2501 11.8508C7.06731 11.5077 7.96765 11.4135 8.83817 11.5801C9.70869 11.7468 10.5106 12.1667 11.1434 12.7874L17.7684 8.5374C17.389 7.49496 17.407 6.34928 17.819 5.31929C18.231 4.2893 19.008 3.44721 20.0016 2.95394C20.9952 2.46066 22.1358 2.35078 23.2053 2.64529C24.2748 2.93981 25.1983 3.61806 25.7994 4.55046C26.4004 5.48286 26.6368 6.60402 26.4634 7.69971C26.29 8.79541 25.719 9.78881 24.8595 10.4901C24 11.1914 22.9122 11.5514 21.804 11.5013C20.6958 11.4512 19.6449 10.9946 18.8521 10.2186L12.2271 14.4749C12.5852 15.4643 12.5852 16.548 12.2271 17.5374L18.8521 21.7936C19.4846 21.1746 20.2857 20.7558 21.155 20.5897C22.0243 20.4236 22.9233 20.5175 23.7395 20.8597C24.5557 21.2019 25.2529 21.7772 25.7439 22.5136C26.2348 23.25 26.4977 24.1148 26.4996 24.9999Z" fill="#222222"/>
</svg>
