<svg width="32" height="32" viewBox="0 0 32 32" fill="none" xmlns="http://www.w3.org/2000/svg">
<path d="M30.7075 8.70745C30.6146 8.80042 30.5043 8.87418 30.3829 8.92451C30.2616 8.97483 30.1314 9.00073 30 9.00073C29.8686 9.00073 29.7385 8.97483 29.6171 8.92451C29.4957 8.87418 29.3854 8.80042 29.2925 8.70745L27 6.4137L18.125 15.2887L16.7075 13.8749L25.5825 4.99995L23.2925 2.70745C23.1996 2.61454 23.1259 2.50424 23.0756 2.38284C23.0253 2.26145 22.9995 2.13134 22.9995 1.99995C22.9995 1.86855 23.0253 1.73844 23.0756 1.61705C23.1259 1.49566 23.1996 1.38536 23.2925 1.29245C23.4802 1.10481 23.7346 0.99939 24 0.99939C24.1314 0.99939 24.2615 1.02527 24.3829 1.07555C24.5043 1.12584 24.6146 1.19954 24.7075 1.29245L30.7075 7.29245C30.8005 7.38532 30.8742 7.49561 30.9246 7.61701C30.9749 7.7384 31.0008 7.86853 31.0008 7.99995C31.0008 8.13136 30.9749 8.26149 30.9246 8.38289C30.8742 8.50428 30.8005 8.61457 30.7075 8.70745ZM11 21.9999C10.8021 22.0001 10.6086 21.9415 10.444 21.8317C10.2794 21.7218 10.1511 21.5656 10.0754 21.3827C9.99963 21.1999 9.97983 20.9987 10.0185 20.8046C10.0571 20.6106 10.1525 20.4323 10.2925 20.2924L16.7075 13.8749L12.4138 9.58495C12.0387 9.21016 11.5302 8.99962 11 8.99962C10.4698 8.99962 9.96129 9.21016 9.58626 9.58495L2.58626 16.5849C2.39975 16.7703 2.25189 16.9908 2.15126 17.2337C2.05062 17.4766 1.99921 17.737 2.00001 17.9999V27.9999C2.00001 28.5304 2.21072 29.0391 2.5858 29.4142C2.96087 29.7892 3.46958 29.9999 4.00001 29.9999H14C14.2627 30.0008 14.523 29.9494 14.7657 29.8487C15.0084 29.7481 15.2287 29.6002 15.4138 29.4137L22.4138 22.4137C22.7885 22.0387 22.9991 21.5302 22.9991 20.9999C22.9991 20.4697 22.7885 19.9612 22.4138 19.5862L18.125 15.2924L11.7075 21.7074C11.6146 21.8003 11.5043 21.8739 11.3829 21.9241C11.2615 21.9743 11.1314 22 11 21.9999Z" fill="#222222"/>
</svg>
