<svg width="32" height="32" viewBox="0 0 32 32" fill="none" xmlns="http://www.w3.org/2000/svg">
<path d="M27.74 26.3277C27.8302 26.4246 27.9002 26.5384 27.9461 26.6625C27.9919 26.7866 28.0127 26.9186 28.0072 27.0509C28.0017 27.1831 27.97 27.3129 27.9139 27.4327C27.8578 27.5526 27.7785 27.6602 27.6806 27.7492C27.5827 27.8382 27.4681 27.9068 27.3434 27.9512C27.2187 27.9956 27.0865 28.0148 26.9543 28.0077C26.8222 28.0006 26.6928 27.9673 26.5736 27.9098C26.4544 27.8523 26.3478 27.7717 26.26 27.6727L21 21.8865V27.9615C21.003 28.1406 20.9596 28.3174 20.874 28.4747C20.7883 28.632 20.6633 28.7644 20.5112 28.859C20.3384 28.9618 20.1386 29.0101 19.9379 28.9976C19.7373 28.9851 19.545 28.9124 19.3862 28.789L10.6562 22.0002H5C4.46957 22.0002 3.96086 21.7895 3.58579 21.4145C3.21071 21.0394 3 20.5307 3 20.0002V12.0002C3 11.4698 3.21071 10.9611 3.58579 10.586C3.96086 10.211 4.46957 10.0002 5 10.0002H10.1938L6.26 5.67274C6.08537 5.4759 5.99537 5.21815 6.00951 4.95539C6.02364 4.69264 6.14078 4.44604 6.33552 4.26906C6.53025 4.09209 6.7869 3.999 7.04981 4.00999C7.31272 4.02097 7.5607 4.13514 7.74 4.32774L27.74 26.3277ZM25.0662 20.0002C25.3234 19.9782 25.5626 19.8595 25.7359 19.6682C25.9091 19.4769 26.0035 19.2271 26 18.969V13.034C26.0041 12.7755 25.91 12.5251 25.7367 12.3332C25.5634 12.1413 25.3238 12.0224 25.0662 12.0002C24.9295 11.9912 24.7923 12.0103 24.6632 12.0565C24.5341 12.1026 24.4159 12.1749 24.3159 12.2686C24.2159 12.3624 24.1363 12.4758 24.0819 12.6016C24.0276 12.7275 23.9997 12.8632 24 13.0002V19.0002C23.9997 19.1373 24.0276 19.273 24.0819 19.3989C24.1363 19.5247 24.2159 19.6381 24.3159 19.7318C24.4159 19.8256 24.5341 19.8978 24.6632 19.944C24.7923 19.9902 24.9295 20.0093 25.0662 20.0002ZM20.125 14.984C20.1926 15.0606 20.282 15.1147 20.3812 15.139C20.4804 15.1633 20.5847 15.1566 20.68 15.1198C20.7753 15.0831 20.857 15.018 20.9143 14.9334C20.9715 14.8488 21.0014 14.7486 21 14.6465V4.03024C21.0023 3.87884 20.9713 3.72878 20.909 3.59074C20.8468 3.45269 20.755 3.33004 20.64 3.23149C20.4649 3.08663 20.2457 3.00572 20.0185 3.00208C19.7913 2.99845 19.5696 3.0723 19.39 3.21149L13.9788 7.41649C13.9244 7.45883 13.8793 7.51194 13.8464 7.57251C13.8136 7.63308 13.7936 7.69979 13.7877 7.76846C13.7818 7.83713 13.7902 7.90626 13.8123 7.97153C13.8345 8.0368 13.8698 8.09679 13.9163 8.14774L20.125 14.984ZM28.9338 10.0002C28.6762 10.0224 28.4366 10.1413 28.2633 10.3332C28.09 10.5251 27.9959 10.7755 28 11.034V20.9665C27.9965 21.2246 28.0909 21.4744 28.2641 21.6657C28.4374 21.857 28.6766 21.9757 28.9338 21.9977C29.0705 22.0068 29.2077 21.9877 29.3368 21.9415C29.4659 21.8953 29.5841 21.8231 29.6841 21.7293C29.7841 21.6356 29.8637 21.5222 29.9181 21.3964C29.9724 21.2705 30.0003 21.1348 30 20.9977V11.0002C30.0003 10.8632 29.9724 10.7275 29.9181 10.6016C29.8637 10.4758 29.7841 10.3624 29.6841 10.2686C29.5841 10.1749 29.4659 10.1026 29.3368 10.0565C29.2077 10.0103 29.0705 9.99116 28.9338 10.0002Z" fill="#222222"/>
</svg>
