<svg width="32" height="32" viewBox="0 0 32 32" fill="none" xmlns="http://www.w3.org/2000/svg">
<path d="M20 4.03149V27.9615C20.003 28.1406 19.9596 28.3174 19.874 28.4747C19.7883 28.632 19.6633 28.7644 19.5112 28.859C19.3384 28.9618 19.1386 29.0101 18.9379 28.9976C18.7373 28.9851 18.545 28.9124 18.3862 28.789L10.19 22.414C10.1306 22.367 10.0826 22.3072 10.0497 22.239C10.0168 22.1708 9.99978 22.096 10 22.0202V9.98024C10.0002 9.9042 10.0178 9.82921 10.0514 9.76098C10.0849 9.69274 10.1336 9.63307 10.1938 9.58649L18.39 3.21149C18.5696 3.0723 18.7913 2.99845 19.0185 3.00208C19.2457 3.00572 19.4649 3.08663 19.64 3.23149C19.755 3.33028 19.8469 3.45316 19.9091 3.59141C19.9713 3.72966 20.0023 3.87991 20 4.03149ZM7.5 10.0002H4C3.46957 10.0002 2.96086 10.211 2.58579 10.586C2.21071 10.9611 2 11.4698 2 12.0002V20.0002C2 20.5307 2.21071 21.0394 2.58579 21.4145C2.96086 21.7895 3.46957 22.0002 4 22.0002H7.5C7.63261 22.0002 7.75979 21.9476 7.85355 21.8538C7.94732 21.76 8 21.6329 8 21.5002V10.5002C8 10.3676 7.94732 10.2405 7.85355 10.1467C7.75979 10.0529 7.63261 10.0002 7.5 10.0002ZM23.3463 12.6052C23.2475 12.692 23.1668 12.7974 23.1089 12.9154C23.0509 13.0334 23.0167 13.1616 23.0084 13.2928C23 13.424 23.0176 13.5556 23.0601 13.68C23.1027 13.8044 23.1693 13.9191 23.2563 14.0177C23.7386 14.5655 24.0047 15.2704 24.0047 16.0002C24.0047 16.7301 23.7386 17.435 23.2563 17.9827C23.167 18.0808 23.0981 18.1957 23.0536 18.3207C23.0092 18.4457 22.9901 18.5783 22.9973 18.7107C23.0046 18.8432 23.0382 18.9728 23.0961 19.0922C23.1539 19.2115 23.235 19.3182 23.3345 19.4059C23.434 19.4936 23.5499 19.5607 23.6756 19.6032C23.8013 19.6456 23.9341 19.6627 24.0665 19.6533C24.1988 19.6439 24.3279 19.6083 24.4463 19.5486C24.5648 19.4888 24.6701 19.4061 24.7563 19.3052C25.5606 18.3921 26.0043 17.2171 26.0043 16.0002C26.0043 14.7834 25.5606 13.6083 24.7563 12.6952C24.6695 12.5963 24.564 12.5155 24.4459 12.4574C24.3278 12.3993 24.1994 12.3651 24.0681 12.3567C23.9367 12.3484 23.805 12.366 23.6805 12.4087C23.556 12.4513 23.4411 12.5181 23.3425 12.6052H23.3463ZM28.4575 9.33399C28.3715 9.23115 28.2656 9.14666 28.1462 9.08555C28.0269 9.02444 27.8964 8.98796 27.7627 8.97829C27.6289 8.96861 27.4946 8.98593 27.3677 9.02922C27.2408 9.07251 27.1239 9.14088 27.0239 9.23027C26.924 9.31966 26.843 9.42824 26.7859 9.54956C26.7287 9.67087 26.6966 9.80243 26.6913 9.93642C26.686 10.0704 26.7078 10.2041 26.7552 10.3295C26.8027 10.4549 26.8749 10.5695 26.9675 10.6665C28.2796 12.1333 29.005 14.0322 29.005 16.0002C29.005 17.9683 28.2796 19.8672 26.9675 21.334C26.8749 21.4309 26.8027 21.5455 26.7552 21.671C26.7078 21.7964 26.686 21.9301 26.6913 22.0641C26.6966 22.1981 26.7287 22.3296 26.7859 22.4509C26.843 22.5722 26.924 22.6808 27.0239 22.7702C27.1239 22.8596 27.2408 22.928 27.3677 22.9713C27.4946 23.0146 27.6289 23.0319 27.7627 23.0222C27.8964 23.0125 28.0269 22.976 28.1462 22.9149C28.2656 22.8538 28.3715 22.7693 28.4575 22.6665C30.0971 20.8331 31.0036 18.4598 31.0036 16.0002C31.0036 13.5407 30.0971 11.1673 28.4575 9.33399Z" fill="#222222"/>
</svg>
