<svg width="32" height="32" viewBox="0 0 32 32" fill="none" xmlns="http://www.w3.org/2000/svg">
<path d="M8 10.5002V21.5002C8 21.6329 7.94732 21.76 7.85355 21.8538C7.75979 21.9476 7.63261 22.0002 7.5 22.0002H4C3.46957 22.0002 2.96086 21.7895 2.58579 21.4145C2.21071 21.0394 2 20.5307 2 20.0002V12.0002C2 11.4698 2.21071 10.9611 2.58579 10.586C2.96086 10.211 3.46957 10.0002 4 10.0002H7.5C7.63261 10.0002 7.75979 10.0529 7.85355 10.1467C7.94732 10.2405 8 10.3676 8 10.5002ZM19.6437 3.23149C19.4687 3.08663 19.2495 3.00572 19.0223 3.00208C18.795 2.99845 18.5734 3.0723 18.3937 3.21149L10.1975 9.58649C10.1367 9.63269 10.0873 9.69219 10.0531 9.76045C10.0188 9.8287 10.0007 9.90389 10 9.98024V22.0202C10.0002 22.0963 10.0178 22.1713 10.0514 22.2395C10.0849 22.3077 10.1336 22.3674 10.1938 22.414L18.39 28.789C18.5487 28.9124 18.741 28.9851 18.9417 28.9976C19.1424 29.0101 19.3422 28.9618 19.515 28.859C19.6671 28.7644 19.792 28.632 19.8777 28.4747C19.9634 28.3174 20.0068 28.1406 20.0037 27.9615V4.03149C20.0056 3.87961 19.974 3.72918 19.9111 3.59091C19.8482 3.45264 19.7557 3.32993 19.64 3.23149H19.6437Z" fill="#222222"/>
</svg>
