<svg width="32" height="32" viewBox="0 0 32 32" fill="none" xmlns="http://www.w3.org/2000/svg">
<path d="M26.74 26.3277C26.8302 26.4246 26.9002 26.5384 26.9461 26.6625C26.9919 26.7866 27.0127 26.9186 27.0072 27.0509C27.0017 27.1831 26.97 27.3129 26.9139 27.4327C26.8578 27.5526 26.7785 27.6602 26.6806 27.7492C26.5827 27.8382 26.4681 27.9068 26.3434 27.9512C26.2187 27.9956 26.0865 28.0148 25.9543 28.0077C25.8222 28.0006 25.6928 27.9673 25.5736 27.9098C25.4544 27.8523 25.3478 27.7717 25.26 27.6727L20 21.8865V27.9615C20.003 28.1406 19.9596 28.3174 19.874 28.4747C19.7883 28.632 19.6633 28.7644 19.5112 28.859C19.3384 28.9618 19.1386 29.0101 18.9379 28.9976C18.7373 28.9851 18.545 28.9124 18.3862 28.789L10.1925 22.414C10.1329 22.3675 10.0847 22.3082 10.0514 22.2405C10.018 22.1727 10.0005 22.0983 10 22.0227V10.8865L5.26 5.67274C5.16983 5.57588 5.09979 5.46209 5.05392 5.33797C5.00806 5.21384 4.98728 5.08184 4.99281 4.94963C4.99833 4.81741 5.03004 4.68761 5.0861 4.56774C5.14216 4.44787 5.22146 4.34032 5.31939 4.25132C5.41732 4.16232 5.53194 4.09364 5.65661 4.04927C5.78128 4.00489 5.91352 3.9857 6.04566 3.99281C6.1778 3.99992 6.30721 4.03319 6.4264 4.09068C6.54559 4.14817 6.65218 4.22875 6.74 4.32774L26.74 26.3277ZM23.3388 19.3952C23.5375 19.5707 23.7978 19.6601 24.0625 19.6437C24.3271 19.6273 24.5744 19.5064 24.75 19.3077C25.5543 18.3946 25.9981 17.2196 25.9981 16.0027C25.9981 14.7859 25.5543 13.6108 24.75 12.6977C24.6647 12.5943 24.5595 12.509 24.4406 12.447C24.3217 12.3851 24.1916 12.3476 24.0579 12.3369C23.9243 12.3263 23.7898 12.3426 23.6626 12.3849C23.5354 12.4273 23.418 12.4947 23.3174 12.5834C23.2167 12.672 23.135 12.7799 23.0769 12.9008C23.0189 13.0217 22.9857 13.153 22.9794 13.2869C22.9731 13.4208 22.9939 13.5547 23.0403 13.6804C23.0868 13.8062 23.1581 13.9213 23.25 14.019C23.7323 14.5668 23.9984 15.2716 23.9984 16.0015C23.9984 16.7314 23.7323 17.4362 23.25 17.984C23.0747 18.1829 22.9855 18.4433 23.0021 18.708C23.0188 18.9726 23.1399 19.2199 23.3388 19.3952ZM28.4538 9.33399C28.3677 9.23115 28.2618 9.14666 28.1425 9.08555C28.0231 9.02444 27.8927 8.98796 27.7589 8.97829C27.6252 8.96861 27.4909 8.98593 27.364 9.02922C27.237 9.07251 27.1201 9.14088 27.0202 9.23027C26.9202 9.31966 26.8393 9.42824 26.7821 9.54956C26.725 9.67087 26.6928 9.80243 26.6876 9.93642C26.6823 10.0704 26.704 10.2041 26.7515 10.3295C26.7989 10.4549 26.8711 10.5695 26.9638 10.6665C28.2759 12.1333 29.0013 14.0322 29.0013 16.0002C29.0013 17.9683 28.2759 19.8672 26.9638 21.334C26.8711 21.4309 26.7989 21.5455 26.7515 21.671C26.704 21.7964 26.6823 21.9301 26.6876 22.0641C26.6928 22.1981 26.725 22.3296 26.7821 22.4509C26.8393 22.5722 26.9202 22.6808 27.0202 22.7702C27.1201 22.8596 27.237 22.928 27.364 22.9713C27.4909 23.0146 27.6252 23.0319 27.7589 23.0222C27.8927 23.0125 28.0231 22.976 28.1425 22.9149C28.2618 22.8538 28.3677 22.7693 28.4538 22.6665C30.0934 20.8331 30.9998 18.4598 30.9998 16.0002C30.9998 13.5407 30.0934 11.1673 28.4538 9.33399ZM19.125 14.984C19.1926 15.0606 19.282 15.1147 19.3812 15.139C19.4804 15.1633 19.5847 15.1566 19.68 15.1198C19.7753 15.0831 19.857 15.018 19.9143 14.9334C19.9715 14.8488 20.0014 14.7486 20 14.6465V4.03149C20.0023 3.87991 19.9713 3.72966 19.9091 3.59141C19.8469 3.45316 19.755 3.33028 19.64 3.23149C19.4649 3.08663 19.2457 3.00572 19.0185 3.00208C18.7913 2.99845 18.5696 3.0723 18.39 3.21149L12.9788 7.41649C12.9244 7.45883 12.8793 7.51194 12.8464 7.57251C12.8136 7.63308 12.7936 7.69979 12.7877 7.76846C12.7818 7.83713 12.7902 7.90626 12.8123 7.97153C12.8345 8.0368 12.8698 8.09679 12.9163 8.14774L19.125 14.984ZM7.5 10.0002H4C3.46957 10.0002 2.96086 10.211 2.58579 10.586C2.21071 10.9611 2 11.4698 2 12.0002V20.0002C2 20.5307 2.21071 21.0394 2.58579 21.4145C2.96086 21.7895 3.46957 22.0002 4 22.0002H7.5C7.63261 22.0002 7.75979 21.9476 7.85355 21.8538C7.94732 21.76 8 21.6329 8 21.5002V10.5002C8 10.3676 7.94732 10.2405 7.85355 10.1467C7.75979 10.0529 7.63261 10.0002 7.5 10.0002Z" fill="#222222"/>
</svg>
