<svg width="32" height="32" viewBox="0 0 32 32" fill="none" xmlns="http://www.w3.org/2000/svg">
<path d="M20.44 3.10142C20.2717 3.01923 20.0837 2.98596 19.8974 3.0054C19.7111 3.02485 19.534 3.09624 19.3862 3.21142L10.6562 10.0002H5C4.46957 10.0002 3.96086 10.2109 3.58579 10.586C3.21071 10.961 3 11.4697 3 12.0002V20.0002C3 20.5306 3.21071 21.0393 3.58579 21.4144C3.96086 21.7895 4.46957 22.0002 5 22.0002H10.6562L19.3862 28.7889C19.5614 28.9261 19.7775 29.0005 20 29.0002C20.2652 29.0002 20.5196 28.8948 20.7071 28.7073C20.8946 28.5197 21 28.2654 21 28.0002V4.00017C21.0001 3.81297 20.9477 3.62948 20.8487 3.47059C20.7497 3.3117 20.6081 3.18379 20.44 3.10142Z" fill="#222222"/>
</svg>
