<svg width="32" height="32" viewBox="0 0 32 32" fill="none" xmlns="http://www.w3.org/2000/svg">
<path d="M30.7075 18.2927C30.8951 18.4804 31.0006 18.7349 31.0006 19.0002C31.0006 19.2656 30.8951 19.5201 30.7075 19.7077C30.5199 19.8954 30.2654 20.0008 30 20.0008C29.7346 20.0008 29.4801 19.8954 29.2925 19.7077L27 17.414L24.7075 19.7077C24.5199 19.8954 24.2654 20.0008 24 20.0008C23.7346 20.0008 23.4801 19.8954 23.2925 19.7077C23.1049 19.5201 22.9994 19.2656 22.9994 19.0002C22.9994 18.7349 23.1049 18.4804 23.2925 18.2927L25.5863 16.0002L23.2925 13.7077C23.1049 13.5201 22.9994 13.2656 22.9994 13.0002C22.9994 12.7349 23.1049 12.4804 23.2925 12.2927C23.4801 12.1051 23.7346 11.9997 24 11.9997C24.2654 11.9997 24.5199 12.1051 24.7075 12.2927L27 14.5865L29.2925 12.2927C29.4801 12.1051 29.7346 11.9997 30 11.9997C30.2654 11.9997 30.5199 12.1051 30.7075 12.2927C30.8951 12.4804 31.0006 12.7349 31.0006 13.0002C31.0006 13.2656 30.8951 13.5201 30.7075 13.7077L28.4137 16.0002L30.7075 18.2927ZM7.5 10.0002H4C3.46957 10.0002 2.96086 10.211 2.58579 10.586C2.21071 10.9611 2 11.4698 2 12.0002V20.0002C2 20.5307 2.21071 21.0394 2.58579 21.4145C2.96086 21.7895 3.46957 22.0002 4 22.0002H7.5C7.63261 22.0002 7.75979 21.9476 7.85355 21.8538C7.94732 21.76 8 21.6329 8 21.5002V10.5002C8 10.3676 7.94732 10.2405 7.85355 10.1467C7.75979 10.0529 7.63261 10.0002 7.5 10.0002ZM19.6437 3.23149C19.4687 3.08663 19.2495 3.00572 19.0223 3.00208C18.795 2.99845 18.5734 3.0723 18.3937 3.21149L10.1975 9.58649C10.1367 9.63269 10.0873 9.69219 10.0531 9.76045C10.0188 9.8287 10.0007 9.90389 10 9.98024V22.0202C10.0002 22.0963 10.0178 22.1713 10.0514 22.2395C10.0849 22.3077 10.1336 22.3674 10.1938 22.414L18.39 28.789C18.5487 28.9124 18.741 28.9851 18.9417 28.9976C19.1424 29.0101 19.3422 28.9618 19.515 28.859C19.6671 28.7644 19.792 28.632 19.8777 28.4747C19.9634 28.3174 20.0068 28.1406 20.0037 27.9615V4.03149C20.0056 3.87961 19.974 3.72918 19.9111 3.59091C19.8482 3.45264 19.7557 3.32993 19.64 3.23149H19.6437Z" fill="#222222"/>
</svg>
