<svg width="32" height="32" viewBox="0 0 32 32" fill="none" xmlns="http://www.w3.org/2000/svg">
<path d="M20.44 3.10142C20.2717 3.01923 20.0837 2.98596 19.8974 3.0054C19.7111 3.02485 19.534 3.09624 19.3862 3.21142L10.6562 10.0002H5C4.46957 10.0002 3.96086 10.2109 3.58579 10.586C3.21071 10.961 3 11.4697 3 12.0002V20.0002C3 20.5306 3.21071 21.0393 3.58579 21.4144C3.96086 21.7895 4.46957 22.0002 5 22.0002H10.6562L19.3862 28.7889C19.5614 28.9261 19.7775 29.0005 20 29.0002C20.2652 29.0002 20.5196 28.8948 20.7071 28.7073C20.8946 28.5197 21 28.2654 21 28.0002V4.00017C21.0001 3.81297 20.9477 3.62948 20.8487 3.47059C20.7497 3.3117 20.6081 3.18379 20.44 3.10142Z" fill="#222222"/>
<path d="M29.4133 16.0001L31.7071 13.7076C31.8947 13.5199 32.0001 13.2654 32.0001 13.0001C32.0001 12.7347 31.8947 12.4802 31.7071 12.2926C31.5194 12.1049 31.2649 11.9995 30.9996 11.9995C30.7342 11.9995 30.4797 12.1049 30.2921 12.2926L27.9996 14.5863L25.7071 12.2926C25.5194 12.1049 25.2649 11.9995 24.9996 11.9995C24.7342 11.9995 24.4797 12.1049 24.2921 12.2926C24.1044 12.4802 23.999 12.7347 23.999 13.0001C23.999 13.2654 24.1044 13.5199 24.2921 13.7076L26.5858 16.0001L24.2921 18.2926C24.1044 18.4802 23.999 18.7347 23.999 19.0001C23.999 19.2654 24.1044 19.5199 24.2921 19.7076C24.4797 19.8952 24.7342 20.0006 24.9996 20.0006C25.2649 20.0006 25.5194 19.8952 25.7071 19.7076L27.9996 17.4138L30.2921 19.7076C30.4797 19.8952 30.7342 20.0006 30.9996 20.0006C31.2649 20.0006 31.5194 19.8952 31.7071 19.7076C31.8947 19.5199 32.0001 19.2654 32.0001 19.0001C32.0001 18.7347 31.8947 18.4802 31.7071 18.2926L29.4133 16.0001Z" fill="#222222"/>
</svg>
