<svg width="32" height="32" viewBox="0 0 32 32" fill="none" xmlns="http://www.w3.org/2000/svg">
<path d="M28.899 24.4389C28.8168 24.6072 28.6889 24.7491 28.53 24.8483C28.3711 24.9476 28.1876 25.0002 28.0002 25.0001H17.0002V30.0001C17.0002 30.2653 16.8949 30.5197 16.7073 30.7072C16.5198 30.8948 16.2654 31.0001 16.0002 31.0001C15.735 31.0001 15.4807 30.8948 15.2931 30.7072C15.1056 30.5197 15.0002 30.2653 15.0002 30.0001V25.0001H4.00023C3.81311 25 3.62978 24.9473 3.47109 24.8482C3.3124 24.7491 3.18472 24.6074 3.10255 24.4393C3.02038 24.2711 2.98703 24.0833 3.00629 23.8972C3.02554 23.7111 3.09663 23.5341 3.21148 23.3864L8.96148 16.0001H6.00023C5.81344 16.0001 5.63038 15.9478 5.47179 15.8492C5.3132 15.7505 5.18542 15.6093 5.10293 15.4418C5.02044 15.2742 4.98654 15.0868 5.00506 14.901C5.02358 14.7151 5.09379 14.5381 5.20773 14.3901L15.2077 1.39013C15.3011 1.26876 15.4212 1.17046 15.5586 1.10282C15.696 1.03518 15.8471 1 16.0002 1C16.1534 1 16.3045 1.03518 16.4419 1.10282C16.5793 1.17046 16.6993 1.26876 16.7927 1.39013L26.7927 14.3901C26.9067 14.5381 26.9769 14.7151 26.9954 14.901C27.0139 15.0868 26.98 15.2742 26.8975 15.4418C26.815 15.6093 26.6873 15.7505 26.5287 15.8492C26.3701 15.9478 26.187 16.0001 26.0002 16.0001H23.0452L28.789 23.3864C28.9039 23.534 28.9752 23.7108 28.9946 23.8969C29.0141 24.0829 28.9809 24.2707 28.899 24.4389Z" fill="#222222"/>
</svg>
