<svg width="32" height="32" viewBox="0 0 32 32" fill="none" xmlns="http://www.w3.org/2000/svg">
<path d="M29.4695 17.354C29.2825 17.5574 29.0553 17.7199 28.8022 17.8311C28.5492 17.9423 28.2759 17.9999 27.9995 18.0002H16.9995V25.0002C16.9995 25.5307 17.2102 26.0394 17.5853 26.4144C17.9604 26.7895 18.4691 27.0002 18.9995 27.0002C19.53 27.0002 20.0387 26.7895 20.4137 26.4144C20.7888 26.0394 20.9995 25.5307 20.9995 25.0002C20.9995 24.735 21.1049 24.4806 21.2924 24.2931C21.48 24.1056 21.7343 24.0002 21.9995 24.0002C22.2648 24.0002 22.5191 24.1056 22.7066 24.2931C22.8942 24.4806 22.9995 24.735 22.9995 25.0002C22.9995 26.0611 22.5781 27.0785 21.828 27.8286C21.0778 28.5788 20.0604 29.0002 18.9995 29.0002C17.9387 29.0002 16.9213 28.5788 16.1711 27.8286C15.421 27.0785 14.9995 26.0611 14.9995 25.0002V18.0002H3.99953C3.72184 18.0012 3.44697 17.9444 3.19244 17.8334C2.93791 17.7223 2.7093 17.5595 2.52115 17.3552C2.33301 17.151 2.18947 16.9098 2.09966 16.647C2.00985 16.3842 1.97575 16.1056 1.99953 15.829C2.22873 13.2126 3.18646 10.7127 4.76411 8.6129C6.34177 6.5131 8.47622 4.89736 10.9254 3.94891C13.3746 3.00046 16.0406 2.75725 18.621 3.24686C21.2014 3.73647 23.593 4.93931 25.5245 6.71897C28.1076 9.08571 29.7052 12.338 29.9995 15.829C30.0213 16.106 29.9854 16.3845 29.8942 16.6469C29.8029 16.9094 29.6584 17.1501 29.4695 17.354Z" fill="#222222"/>
</svg>
