<svg width="32" height="32" viewBox="0 0 32 32" fill="none" xmlns="http://www.w3.org/2000/svg">
<path d="M16.0003 9.5001C17.0881 9.5001 18.1515 9.82267 19.0559 10.427C19.9604 11.0314 20.6653 11.8903 21.0816 12.8953C21.4979 13.9003 21.6068 15.0062 21.3946 16.0731C21.1824 17.14 20.6586 18.12 19.8894 18.8892C19.1202 19.6584 18.1402 20.1822 17.0733 20.3944C16.0064 20.6066 14.9005 20.4977 13.8955 20.0814C12.8905 19.6652 12.0316 18.9602 11.4272 18.0557C10.8229 17.1513 10.5003 16.0879 10.5003 15.0001C10.5003 13.5414 11.0797 12.1425 12.1112 11.111C13.1426 10.0796 14.5416 9.5001 16.0003 9.5001ZM22.0003 8.0001H28.0003C28.2655 8.0001 28.5199 7.89474 28.7074 7.70721C28.8949 7.51967 29.0003 7.26532 29.0003 7.0001C29.0003 6.73489 28.8949 6.48053 28.7074 6.293C28.5199 6.10546 28.2655 6.0001 28.0003 6.0001H22.0003C21.7351 6.0001 21.4807 6.10546 21.2932 6.293C21.1056 6.48053 21.0003 6.73489 21.0003 7.0001C21.0003 7.26532 21.1056 7.51967 21.2932 7.70721C21.4807 7.89474 21.7351 8.0001 22.0003 8.0001ZM26.984 11.0576C26.7341 11.1462 26.5296 11.3303 26.4154 11.5697C26.3012 11.809 26.2868 12.0839 26.3753 12.3339C27.029 14.1876 27.174 16.1827 26.7952 18.1115C26.4164 20.0403 25.5277 21.8324 24.2215 23.3014C23.4938 22.247 22.5699 21.3427 21.5003 20.6376C21.409 20.5771 21.3003 20.5482 21.191 20.5554C21.0817 20.5627 20.9778 20.6056 20.8953 20.6776C19.5366 21.8532 17.8001 22.5002 16.0034 22.5002C14.2068 22.5002 12.4702 21.8532 11.1115 20.6776C11.0285 20.6041 10.9234 20.5603 10.8128 20.553C10.7021 20.5458 10.5922 20.5755 10.5003 20.6376C9.42949 21.3421 8.50467 22.2465 7.77654 23.3014C6.36972 21.7161 5.45086 19.7581 5.13045 17.663C4.81005 15.5678 5.10175 13.4248 5.97048 11.4915C6.8392 9.5582 8.24796 7.91706 10.0273 6.76546C11.8066 5.61385 13.8808 5.00082 16.0003 5.0001C16.6151 5 17.2289 5.05101 17.8353 5.1526C18.0957 5.19369 18.3618 5.13029 18.5756 4.97621C18.7895 4.82213 18.9339 4.58983 18.9774 4.32983C19.0209 4.06983 18.96 3.80318 18.8079 3.58787C18.6558 3.37255 18.4249 3.22601 18.1653 3.1801C15.3556 2.70794 12.4687 3.17275 9.9492 4.50294C7.42973 5.83313 5.41757 7.95487 4.22272 10.5413C3.02788 13.1277 2.71666 16.0352 3.33701 18.8159C3.95737 21.5966 5.47487 24.0962 7.65572 25.9295C9.83657 27.7628 12.5597 28.8281 15.4057 28.9613C18.2516 29.0945 21.0624 28.2882 23.405 26.6666C25.7475 25.045 27.4919 22.6981 28.3692 19.9875C29.2466 17.2769 29.2083 14.353 28.2603 11.6664C28.1717 11.4164 27.9875 11.2119 27.7482 11.0977C27.5089 10.9836 27.234 10.9691 26.984 11.0576Z" fill="#222222"/>
</svg>
