<svg width="32" height="32" viewBox="0 0 32 32" fill="none" xmlns="http://www.w3.org/2000/svg">
<path d="M31.7079 16.7076L27.7079 20.7076C27.615 20.8006 27.5047 20.8744 27.3833 20.9247C27.2619 20.975 27.1318 21.0009 27.0004 21.0009C26.869 21.0009 26.7388 20.975 26.6174 20.9247C26.496 20.8744 26.3857 20.8006 26.2929 20.7076L24.2929 18.7076C24.1052 18.52 23.9998 18.2655 23.9998 18.0001C23.9998 17.7348 24.1052 17.4803 24.2929 17.2926C24.4805 17.105 24.735 16.9996 25.0004 16.9996C25.2657 16.9996 25.5202 17.105 25.7079 17.2926L27.0004 18.5864L30.2929 15.2926C30.4805 15.105 30.735 14.9996 31.0004 14.9996C31.2657 14.9996 31.5202 15.105 31.7079 15.2926C31.8955 15.4803 32.0009 15.7348 32.0009 16.0001C32.0009 16.2655 31.8955 16.52 31.7079 16.7076ZM18.0004 19.7101C19.568 18.7337 20.775 17.2734 21.4387 15.55C22.1024 13.8265 22.1868 11.9338 21.6791 10.1582C21.1713 8.38254 20.0991 6.82057 18.6245 5.70859C17.15 4.59661 15.3534 3.99512 13.5066 3.99512C11.6598 3.99512 9.86323 4.59661 8.38871 5.70859C6.91418 6.82057 5.84193 8.38254 5.33418 10.1582C4.82643 11.9338 4.9108 13.8265 5.57454 15.55C6.23827 17.2734 7.44525 18.7337 9.01287 19.7101C6.43162 20.5551 4.10912 22.1339 2.24162 24.3564C2.11936 24.5017 2.04101 24.6788 2.01573 24.8671C1.99046 25.0553 2.0193 25.2468 2.0989 25.4192C2.17849 25.5917 2.30554 25.7379 2.46518 25.8407C2.62482 25.9436 2.81046 25.9989 3.00037 26.0001H24.0004C24.1909 26.0003 24.3776 25.9461 24.5383 25.8437C24.6991 25.7414 24.8272 25.5953 24.9077 25.4226C24.9882 25.2499 25.0177 25.0578 24.9927 24.8689C24.9677 24.68 24.8893 24.5022 24.7666 24.3564C22.8979 22.1339 20.5754 20.5551 18.0004 19.7101Z" fill="#222222"/>
</svg>
