<svg width="32" height="32" viewBox="0 0 32 32" fill="none" xmlns="http://www.w3.org/2000/svg">
<path d="M28.7073 24.7076L24.7073 28.7076C24.5675 28.8476 24.3892 28.9429 24.1951 28.9816C24.001 29.0202 23.7998 29.0004 23.617 28.9247C23.4342 28.8489 23.278 28.7206 23.1681 28.556C23.0582 28.3914 22.9997 28.1979 22.9998 28.0001V25.0001H9.99981C9.73459 25.0001 9.48024 24.8947 9.2927 24.7072C9.10517 24.5196 8.99981 24.2653 8.99981 24.0001V10.0001H5.99981C5.80192 10.0002 5.60842 9.94165 5.44383 9.83177C5.27923 9.7219 5.15094 9.56567 5.07519 9.38284C4.99944 9.20002 4.97963 8.99883 5.01828 8.80475C5.05693 8.61066 5.1523 8.43241 5.29231 8.29255L9.29231 4.29255C9.38518 4.19958 9.49547 4.12582 9.61687 4.07549C9.73827 4.02517 9.8684 3.99927 9.99981 3.99927C10.1312 3.99927 10.2614 4.02517 10.3828 4.07549C10.5041 4.12582 10.6144 4.19958 10.7073 4.29255L14.7073 8.29255C14.8473 8.43241 14.9427 8.61066 14.9813 8.80475C15.02 8.99883 15.0002 9.20002 14.9244 9.38284C14.8487 9.56567 14.7204 9.7219 14.5558 9.83177C14.3912 9.94165 14.1977 10.0002 13.9998 10.0001H10.9998V23.0001H22.9998V20.0001C22.9997 19.8022 23.0582 19.6087 23.1681 19.4441C23.278 19.2795 23.4342 19.1512 23.617 19.0754C23.7998 18.9997 24.001 18.9799 24.1951 19.0185C24.3892 19.0572 24.5675 19.1525 24.7073 19.2926L28.7073 23.2926C28.8003 23.3854 28.874 23.4957 28.9244 23.6171C28.9747 23.7385 29.0006 23.8686 29.0006 24.0001C29.0006 24.1315 28.9747 24.2616 28.9244 24.383C28.874 24.5044 28.8003 24.6147 28.7073 24.7076Z" fill="#222222"/>
</svg>
