<svg width="32" height="32" viewBox="0 0 32 32" fill="none" xmlns="http://www.w3.org/2000/svg">
<path d="M21.0003 16C21.0003 16.9889 20.7071 17.9556 20.1577 18.7779C19.6083 19.6001 18.8274 20.241 17.9137 20.6194C17.0001 20.9979 15.9948 21.0969 15.0249 20.9039C14.055 20.711 13.164 20.2348 12.4648 19.5355C11.7655 18.8363 11.2893 17.9454 11.0964 16.9755C10.9035 16.0056 11.0025 15.0002 11.3809 14.0866C11.7594 13.173 12.4002 12.3921 13.2225 11.8427C14.0447 11.2933 15.0114 11 16.0003 11C17.3264 11 18.5982 11.5268 19.5358 12.4645C20.4735 13.4022 21.0003 14.6739 21.0003 16ZM26.0003 16C26.0033 13.5398 25.0964 11.1655 23.4541 9.33376C23.3672 9.23353 23.2612 9.15158 23.1423 9.0927C23.0234 9.03382 22.894 8.99917 22.7616 8.99079C22.6292 8.98241 22.4965 9.00045 22.3712 9.04387C22.2458 9.08729 22.1303 9.15522 22.0315 9.2437C21.9327 9.33218 21.8524 9.43944 21.7954 9.55924C21.7384 9.67903 21.7059 9.80897 21.6996 9.94148C21.6933 10.074 21.7135 10.2064 21.7589 10.3311C21.8043 10.4557 21.874 10.5701 21.9641 10.6675C23.2758 12.1342 24.001 14.0329 24.001 16.0006C24.001 17.9684 23.2758 19.8671 21.9641 21.3338C21.7921 21.5321 21.7051 21.79 21.7217 22.052C21.7382 22.3139 21.8571 22.5588 22.0527 22.7339C22.2483 22.9089 22.5048 23.0001 22.767 22.9877C23.0291 22.9753 23.2759 22.8603 23.4541 22.6675C25.0962 20.8352 26.003 18.4605 26.0003 16ZM10.0366 10.6675C10.1266 10.5701 10.1964 10.4557 10.2418 10.3311C10.2872 10.2064 10.3073 10.074 10.301 9.94148C10.2948 9.80897 10.2622 9.67903 10.2052 9.55924C10.1482 9.43944 10.068 9.33218 9.96912 9.2437C9.87028 9.15522 9.75482 9.08729 9.62947 9.04387C9.50411 9.00045 9.37137 8.98241 9.23898 8.99079C9.10658 8.99917 8.97718 9.03382 8.85831 9.0927C8.73943 9.15158 8.63346 9.23353 8.54656 9.33376C6.90505 11.1664 5.99737 13.5403 5.99737 16.0006C5.99737 18.461 6.90505 20.8348 8.54656 22.6675C8.7247 22.8603 8.97148 22.9753 9.23365 22.9877C9.49582 23.0001 9.75236 22.9089 9.94792 22.7339C10.1435 22.5588 10.2624 22.3139 10.279 22.052C10.2955 21.79 10.2085 21.5321 10.0366 21.3338C8.72351 19.8677 7.99746 17.9688 7.99746 16.0006C7.99746 14.0325 8.72351 12.1336 10.0366 10.6675ZM29.8216 10.1675C29.0897 8.42944 28.0353 6.8457 26.7141 5.50001C26.623 5.40265 26.5134 5.32448 26.3917 5.27009C26.2699 5.21571 26.1386 5.18621 26.0053 5.18334C25.872 5.18046 25.7395 5.20427 25.6155 5.25335C25.4916 5.30244 25.3787 5.37581 25.2835 5.46916C25.1884 5.5625 25.1128 5.67394 25.0613 5.79691C25.0098 5.91988 24.9834 6.05191 24.9837 6.18522C24.984 6.31854 25.0109 6.45045 25.063 6.5732C25.115 6.69596 25.191 6.80707 25.2866 6.90001C27.67 9.32831 29.0053 12.595 29.0053 15.9975C29.0053 19.4001 27.67 22.6667 25.2866 25.095C25.1943 25.1887 25.1214 25.2997 25.0721 25.4216C25.0227 25.5435 24.9978 25.674 24.9989 25.8055C24.9999 25.937 25.0269 26.067 25.0781 26.1881C25.1294 26.3092 25.2041 26.419 25.2978 26.5113C25.3915 26.6035 25.5025 26.6764 25.6244 26.7258C25.7463 26.7751 25.8768 26.8 26.0083 26.799C26.1398 26.7979 26.2698 26.771 26.3909 26.7197C26.512 26.6684 26.6218 26.5937 26.7141 26.5C28.7843 24.3858 30.1838 21.7071 30.7367 18.8002C31.2895 15.8933 30.9712 12.8878 29.8216 10.1613V10.1675ZM4.02156 21.06C3.02236 18.698 2.74485 16.093 3.22402 13.5736C3.70318 11.0541 4.91756 8.73283 6.71406 6.90251C6.90004 6.71322 7.00321 6.45779 7.00087 6.19243C6.99852 5.92706 6.89086 5.6735 6.70156 5.48751C6.51226 5.30153 6.25684 5.19836 5.99147 5.20071C5.72611 5.20305 5.47254 5.31072 5.28656 5.50001C2.53429 8.30192 0.992188 12.0725 0.992188 16C0.992188 19.9276 2.53429 23.6981 5.28656 26.5C5.37763 26.5974 5.48724 26.6756 5.60896 26.7299C5.73068 26.7843 5.86204 26.8138 5.99533 26.8167C6.12861 26.8196 6.26113 26.7958 6.38508 26.7467C6.50903 26.6976 6.62191 26.6242 6.71709 26.5309C6.81227 26.4375 6.88783 26.3261 6.93931 26.2031C6.9908 26.0801 7.01717 25.9481 7.01689 25.8148C7.01661 25.6815 6.98967 25.5496 6.93767 25.4268C6.88566 25.3041 6.80964 25.193 6.71406 25.1C5.56992 23.9351 4.65637 22.5644 4.02156 21.06Z" fill="#222222"/>
</svg>
