<svg width="32" height="32" viewBox="0 0 32 32" fill="none" xmlns="http://www.w3.org/2000/svg">
<path d="M16.8947 10.5525C16.8118 10.3861 16.6841 10.2461 16.526 10.1483C16.3679 10.0504 16.1857 9.99858 15.9997 9.99858C15.8138 9.99858 15.6316 10.0504 15.4735 10.1483C15.3154 10.2461 15.1877 10.3861 15.1047 10.5525L6.10473 28.5525C5.98605 28.7897 5.96645 29.0644 6.05026 29.316C6.13406 29.5676 6.3144 29.7757 6.55161 29.8944C6.78881 30.0131 7.06344 30.0327 7.31509 29.9489C7.56674 29.8651 7.7748 29.6847 7.89348 29.4475L9.62473 26H22.3872L24.111 29.4475C24.1936 29.6127 24.3204 29.7518 24.4773 29.8493C24.6342 29.9468 24.815 29.999 24.9997 30C25.1702 29.9999 25.3378 29.9563 25.4866 29.8732C25.6354 29.7901 25.7605 29.6704 25.8501 29.5254C25.9396 29.3804 25.9906 29.2149 25.9982 29.0446C26.0058 28.8743 25.9698 28.7049 25.8935 28.5525L16.8947 10.5525ZM15.9997 13.2363L19.3822 20H12.6172L15.9997 13.2363ZM19.936 11.7175C20.039 11.1417 20.0144 10.5503 19.8641 9.98507C19.7138 9.41979 19.4413 8.89436 19.0658 8.44582C18.6904 7.99727 18.2212 7.63652 17.6912 7.38899C17.1612 7.14146 16.5834 7.01317 15.9985 7.01317C15.4136 7.01317 14.8357 7.14146 14.3058 7.38899C13.7758 7.63652 13.3066 7.99727 12.9311 8.44582C12.5557 8.89436 12.2832 9.41979 12.1329 9.98507C11.9825 10.5503 11.958 11.1417 12.061 11.7175C12.0877 11.848 12.088 11.9826 12.062 12.1132C12.0359 12.2439 11.9841 12.368 11.9094 12.4783C11.8347 12.5886 11.7388 12.6829 11.6271 12.7557C11.5155 12.8284 11.3905 12.8781 11.2594 12.9018C11.1283 12.9255 10.9938 12.9228 10.8638 12.8939C10.7338 12.8649 10.6108 12.8102 10.5022 12.7331C10.3936 12.656 10.3015 12.5579 10.2313 12.4447C10.1611 12.3315 10.1143 12.2053 10.0935 12.0738C9.93674 11.2093 9.97177 10.3209 10.1961 9.47144C10.4204 8.62198 10.8286 7.83214 11.3917 7.15775C11.9548 6.48335 12.6591 5.94085 13.455 5.56859C14.2508 5.19632 15.1186 5.00337 15.9972 5.00337C16.8758 5.00337 17.7437 5.19632 18.5395 5.56859C19.3353 5.94085 20.0397 6.48335 20.6028 7.15775C21.1659 7.83214 21.574 8.62198 21.7984 9.47144C22.0227 10.3209 22.0577 11.2093 21.901 12.0738C21.8594 12.3042 21.7383 12.5127 21.5588 12.663C21.3792 12.8133 21.1526 12.8959 20.9185 12.8963C20.8586 12.8958 20.7988 12.8903 20.7397 12.88C20.4791 12.8323 20.248 12.683 20.0973 12.4651C19.9466 12.2471 19.8886 11.9782 19.936 11.7175ZM8.01848 17.0263C6.89799 15.5419 6.21361 13.7745 6.04227 11.9227C5.87092 10.0708 6.21938 8.20788 7.0485 6.54316C7.87762 4.87844 9.15454 3.47791 10.7358 2.49894C12.317 1.51996 14.14 1.00134 15.9997 1.00134C17.8595 1.00134 19.6824 1.51996 21.2637 2.49894C22.8449 3.47791 24.1218 4.87844 24.951 6.54316C25.7801 8.20788 26.1285 10.0708 25.9572 11.9227C25.7858 13.7745 25.1015 15.5419 23.981 17.0263C23.8194 17.2332 23.5829 17.3684 23.3226 17.4025C23.0622 17.4366 22.7989 17.3669 22.5895 17.2085C22.3801 17.0501 22.2414 16.8158 22.2033 16.556C22.1652 16.2962 22.2308 16.0318 22.386 15.82C23.282 14.6325 23.8291 13.2186 23.9658 11.7373C24.1026 10.2559 23.8236 8.76579 23.1603 7.43426C22.4969 6.10272 21.4753 4.98254 20.2104 4.19953C18.9455 3.41653 17.4874 3.00173 15.9997 3.00173C14.5121 3.00173 13.0539 3.41653 11.789 4.19953C10.5241 4.98254 9.5026 6.10272 8.83921 7.43426C8.17582 8.76579 7.89684 10.2559 8.03361 11.7373C8.17039 13.2186 8.7175 14.6325 9.61348 15.82C9.76864 16.0318 9.83426 16.2962 9.79618 16.556C9.7581 16.8158 9.61937 17.0501 9.40995 17.2085C9.20053 17.3669 8.93722 17.4366 8.67687 17.4025C8.41653 17.3684 8.18005 17.2332 8.01848 17.0263Z" fill="#222222"/>
</svg>
