<svg width="32" height="32" viewBox="0 0 32 32" fill="none" xmlns="http://www.w3.org/2000/svg">
<path d="M29 7.00002V23C29.0001 23.2661 28.9468 23.5296 28.8433 23.7748C28.7398 24.02 28.5882 24.2419 28.3975 24.4275C28.349 24.4724 28.2921 24.5072 28.23 24.5299C28.1679 24.5527 28.102 24.5629 28.036 24.56C27.97 24.5571 27.9052 24.5411 27.8453 24.513C27.7855 24.4849 27.7319 24.4452 27.6875 24.3963L10.815 5.83627C10.7496 5.76427 10.7066 5.67476 10.6913 5.57869C10.6759 5.48262 10.689 5.38417 10.7288 5.2954C10.7686 5.20664 10.8334 5.13141 10.9154 5.07895C10.9973 5.02648 11.0927 4.99905 11.19 5.00002H27C27.5304 5.00002 28.0391 5.21073 28.4142 5.5858C28.7893 5.96087 29 6.46958 29 7.00002ZM6.74 4.32752C6.60424 4.17816 6.42647 4.07338 6.23005 4.02694C6.03363 3.98051 5.82776 3.9946 5.63949 4.06737C5.45123 4.14013 5.28939 4.26815 5.17526 4.43462C5.06112 4.60108 5.00002 4.79818 5 5.00002C4.46957 5.00002 3.96086 5.21073 3.58579 5.5858C3.21071 5.96087 3 6.46958 3 7.00002V23C3 23.5304 3.21071 24.0392 3.58579 24.4142C3.96086 24.7893 4.46957 25 5 25H12.5538L14.2638 27.9925C14.4387 28.2985 14.6914 28.5529 14.9964 28.7298C15.3013 28.9067 15.6475 28.9998 16 28.9998C16.3525 28.9998 16.6987 28.9067 17.0036 28.7298C17.3086 28.5529 17.5613 28.2985 17.7362 27.9925L19.4463 25H22.83L25.26 27.6725C25.3478 27.7715 25.4544 27.8521 25.5736 27.9096C25.6928 27.9671 25.8222 28.0003 25.9543 28.0074C26.0865 28.0146 26.2187 27.9954 26.3434 27.951C26.4681 27.9066 26.5827 27.8379 26.6806 27.7489C26.7785 27.6599 26.8578 27.5524 26.9139 27.4325C26.97 27.3127 27.0017 27.1828 27.0072 27.0506C27.0127 26.9184 26.9919 26.7864 26.9461 26.6623C26.9002 26.5382 26.8302 26.4244 26.74 26.3275L6.74 4.32752Z" fill="#222222"/>
</svg>
