<svg width="32" height="32" viewBox="0 0 32 32" fill="none" xmlns="http://www.w3.org/2000/svg">
<path d="M24.9997 9C23.6097 9.00129 22.2515 9.41637 21.0983 10.1924C19.945 10.9684 19.0489 12.0701 18.5242 13.3572C17.9994 14.6444 17.8697 16.0586 18.1516 17.4197C18.4335 18.7808 19.1143 20.0272 20.1072 21H11.8922C13.0513 19.8643 13.7799 18.361 13.9532 16.7475C14.1264 15.1339 13.7337 13.5103 12.8422 12.1543C11.9506 10.7983 10.6156 9.79424 9.06553 9.3138C7.51544 8.83336 5.84659 8.90642 4.34442 9.52049C2.84226 10.1346 1.60012 11.2515 0.830476 12.6802C0.0608345 14.1089 -0.188488 15.7607 0.125155 17.3529C0.438798 18.9451 1.29592 20.3789 2.54991 21.409C3.80389 22.4391 5.37683 23.0015 6.99966 23H24.9997C26.8562 23 28.6367 22.2625 29.9494 20.9497C31.2622 19.637 31.9997 17.8565 31.9997 16C31.9997 14.1435 31.2622 12.363 29.9494 11.0503C28.6367 9.7375 26.8562 9 24.9997 9ZM6.99966 21C6.01075 21 5.04405 20.7068 4.22181 20.1573C3.39956 19.6079 2.7587 18.827 2.38026 17.9134C2.00182 16.9998 1.90281 15.9945 2.09573 15.0245C2.28866 14.0546 2.76486 13.1637 3.46412 12.4645C4.16339 11.7652 5.0543 11.289 6.02421 11.0961C6.99411 10.9031 7.99944 11.0022 8.91307 11.3806C9.8267 11.759 10.6076 12.3999 11.157 13.2221C11.7064 14.0444 11.9997 15.0111 11.9997 16C11.9997 16.6566 11.8703 17.3068 11.6191 17.9134C11.3678 18.52 10.9995 19.0712 10.5352 19.5355C10.0709 19.9998 9.5197 20.3681 8.91307 20.6194C8.30645 20.8707 7.65627 21 6.99966 21ZM24.9997 21C24.0108 21 23.0441 20.7068 22.2218 20.1573C21.3996 19.6079 20.7587 18.827 20.3803 17.9134C20.0018 16.9998 19.9028 15.9945 20.0957 15.0245C20.2887 14.0546 20.7649 13.1637 21.4641 12.4645C22.1634 11.7652 23.0543 11.289 24.0242 11.0961C24.9941 10.9031 25.9994 11.0022 26.9131 11.3806C27.8267 11.759 28.6076 12.3999 29.157 13.2221C29.7064 14.0444 29.9997 15.0111 29.9997 16C29.9997 17.3261 29.4729 18.5979 28.5352 19.5355C27.5975 20.4732 26.3257 21 24.9997 21ZM27.9997 16C27.9997 16.5933 27.8237 17.1734 27.4941 17.6667C27.1644 18.1601 26.6959 18.5446 26.1477 18.7716C25.5995 18.9987 24.9963 19.0581 24.4144 18.9424C23.8324 18.8266 23.2979 18.5409 22.8783 18.1213C22.4588 17.7018 22.1731 17.1672 22.0573 16.5853C21.9415 16.0033 22.001 15.4001 22.228 14.8519C22.4551 14.3038 22.8396 13.8352 23.3329 13.5056C23.8263 13.1759 24.4063 13 24.9997 13C25.7953 13 26.5584 13.3161 27.121 13.8787C27.6836 14.4413 27.9997 15.2044 27.9997 16ZM9.99966 16C9.99966 16.5933 9.82371 17.1734 9.49407 17.6667C9.16442 18.1601 8.69589 18.5446 8.14771 18.7716C7.59953 18.9987 6.99633 19.0581 6.41439 18.9424C5.83244 18.8266 5.2979 18.5409 4.87834 18.1213C4.45878 17.7018 4.17306 17.1672 4.0573 16.5853C3.94155 16.0033 4.00096 15.4001 4.22802 14.8519C4.45508 14.3038 4.8396 13.8352 5.33295 13.5056C5.82629 13.1759 6.40631 13 6.99966 13C7.79531 13 8.55837 13.3161 9.12098 13.8787C9.68359 14.4413 9.99966 15.2044 9.99966 16Z" fill="#222222"/>
</svg>
