<svg width="32" height="32" viewBox="0 0 32 32" fill="none" xmlns="http://www.w3.org/2000/svg">
<path d="M11.659 4.6075C11.5784 4.55762 11.5136 4.48582 11.4722 4.4005C11.4308 4.31518 11.4145 4.21985 11.4253 4.12563C11.436 4.03141 11.4733 3.94218 11.5329 3.86837C11.5924 3.79456 11.6717 3.7392 11.7615 3.70875C13.5853 3.08037 15.5261 2.86595 17.443 3.08109C19.3599 3.29622 21.2049 3.93549 22.844 4.9525C22.9034 4.98995 22.9543 5.03949 22.9932 5.0979C23.0322 5.15631 23.0585 5.22227 23.0703 5.29149C23.082 5.36071 23.0791 5.43164 23.0617 5.49965C23.0442 5.56767 23.0127 5.63125 22.969 5.68625C21.5217 7.53572 19.7468 9.10343 17.7328 10.3113C16.1058 8.02658 14.0413 6.08782 11.659 4.6075ZM15.9478 11.25C14.1221 8.75888 11.7203 6.74695 8.94777 5.38625C8.86838 5.3477 8.78009 5.33118 8.69213 5.33844C8.60417 5.3457 8.51977 5.37646 8.44777 5.4275C6.20325 7.03301 4.5254 9.30865 3.65527 11.9275C3.63341 11.9945 3.62595 12.0653 3.63337 12.1353C3.64079 12.2054 3.66293 12.2731 3.69833 12.334C3.73374 12.3949 3.78161 12.4476 3.83882 12.4887C3.89602 12.5298 3.96127 12.5584 4.03027 12.5725C5.33497 12.8537 6.66562 12.997 8.00027 13C10.7452 13.0015 13.4574 12.4043 15.9478 11.25ZM28.9228 14.5863C28.6049 11.6869 27.3195 8.9792 25.274 6.9C25.2242 6.84934 25.1641 6.80989 25.0977 6.7843C25.0314 6.7587 24.9604 6.74754 24.8894 6.75156C24.8184 6.75558 24.7491 6.7747 24.6861 6.80762C24.6231 6.84055 24.5679 6.88653 24.524 6.9425C22.942 8.95798 21.0068 10.6691 18.8128 11.9925C19.4982 13.18 20.0655 14.4318 20.5065 15.73C22.2974 15.2445 24.1448 14.999 26.0003 15C26.7938 15 27.5867 15.0447 28.3753 15.1338C28.4487 15.1411 28.5228 15.1321 28.5923 15.1074C28.6617 15.0827 28.7249 15.043 28.7773 14.991C28.8296 14.939 28.8698 14.8761 28.8949 14.8068C28.9201 14.7375 28.9296 14.6634 28.9228 14.59V14.5863ZM21.059 17.6488C21.4295 19.2248 21.6162 20.8385 21.6153 22.4575C21.6145 24.0072 21.4422 25.552 21.1015 27.0638C21.0797 27.1563 21.0848 27.2532 21.1162 27.343C21.1475 27.4328 21.2038 27.5118 21.2785 27.5708C21.3532 27.6297 21.4431 27.6661 21.5377 27.6757C21.6324 27.6853 21.7278 27.6677 21.8128 27.625C23.7086 26.6739 25.3437 25.2745 26.576 23.5482C27.8083 21.8218 28.6006 19.8208 28.884 17.7188C28.8926 17.6532 28.8881 17.5866 28.8707 17.5228C28.8534 17.459 28.8236 17.3993 28.783 17.3471C28.7424 17.2949 28.6919 17.2513 28.6344 17.2187C28.5768 17.1862 28.5134 17.1654 28.4478 17.1575C25.9759 16.8394 23.4655 17.0092 21.059 17.6575V17.6488ZM18.604 16.3425C18.201 15.1605 17.6822 14.0213 17.0553 12.9413C14.2298 14.2987 11.1349 15.0023 8.00027 15C6.53502 15.0001 5.07377 14.8472 3.64027 14.5438C3.57111 14.5292 3.49964 14.5294 3.43058 14.5445C3.36151 14.5595 3.29643 14.589 3.23961 14.6311C3.18279 14.6731 3.13554 14.7268 3.10096 14.7884C3.06639 14.8501 3.04528 14.9183 3.03902 14.9888C3.01319 15.3221 2.99986 15.6592 2.99902 16C2.99837 17.7801 3.36428 19.5412 4.07396 21.1737C4.78364 22.8062 5.82189 24.275 7.12402 25.4888C7.17895 25.5391 7.24443 25.5765 7.31568 25.5983C7.38693 25.6201 7.46215 25.6257 7.53583 25.6147C7.60952 25.6036 7.67981 25.5763 7.74157 25.5346C7.80332 25.4929 7.85498 25.438 7.89277 25.3738C10.3325 21.2339 14.1108 18.0496 18.604 16.3463V16.3425ZM9.46152 26.6563C9.42867 26.7136 9.40751 26.7769 9.39928 26.8425C9.39106 26.9081 9.39592 26.9747 9.41359 27.0384C9.43126 27.1021 9.46138 27.1617 9.50223 27.2137C9.54307 27.2656 9.59381 27.309 9.65152 27.3413C12.2657 28.8069 15.3064 29.3232 18.2578 28.8025C18.3456 28.7872 18.4276 28.7483 18.495 28.6899C18.5623 28.6316 18.6126 28.556 18.6403 28.4713C19.285 26.533 19.6142 24.5039 19.6153 22.4613C19.6155 21.054 19.4587 19.6512 19.1478 18.2788C15.0519 19.8746 11.6311 22.8332 9.46152 26.6563Z" fill="#222222"/>
</svg>
