<svg width="32" height="32" viewBox="0 0 32 32" fill="none" xmlns="http://www.w3.org/2000/svg">
<path d="M26.4998 12C26.0498 11.9976 25.6036 12.0825 25.186 12.25L21.3748 7.4925C21.688 7.04128 21.8907 6.52264 21.9664 5.97856C22.0421 5.43448 21.9886 4.88023 21.8103 4.36064C21.6321 3.84105 21.334 3.37071 20.9403 2.98767C20.5465 2.60463 20.0682 2.31965 19.5439 2.15578C19.0196 1.99191 18.464 1.95375 17.9223 2.04439C17.3805 2.13502 16.8676 2.35192 16.4252 2.67751C15.9828 3.00311 15.6232 3.42828 15.3756 3.91861C15.1279 4.40895 14.9992 4.95068 14.9998 5.5C14.9997 5.62274 15.006 5.7454 15.0185 5.8675L9.20975 8.2875C8.85984 7.85832 8.41309 7.51829 7.90621 7.29534C7.39932 7.0724 6.84677 6.97291 6.29396 7.00504C5.74114 7.03718 5.20384 7.20002 4.72621 7.4802C4.24857 7.76037 3.84422 8.14988 3.5464 8.61671C3.24857 9.08355 3.06577 9.61439 3.013 10.1656C2.96023 10.7168 3.03901 11.2727 3.24286 11.7876C3.44671 12.3024 3.76981 12.7616 4.18562 13.1273C4.60143 13.493 5.09808 13.7548 5.63475 13.8913L5.866 19.6888C5.3361 19.8697 4.85735 20.1751 4.46993 20.5794C4.08252 20.9837 3.79776 21.475 3.63955 22.0121C3.48135 22.5492 3.45432 23.1165 3.56074 23.6662C3.66716 24.2159 3.90392 24.7321 4.25115 25.1714C4.59837 25.6107 5.04592 25.9602 5.55622 26.1907C6.06651 26.4212 6.62466 26.5259 7.1838 26.496C7.74294 26.4661 8.28674 26.3025 8.76956 26.0189C9.25237 25.7353 9.6601 25.34 9.9585 24.8663L15.9998 26.5588C16.0082 27.1217 16.1524 27.6743 16.42 28.1696C16.6876 28.665 17.0708 29.0884 17.5369 29.4041C18.0031 29.7198 18.5386 29.9183 19.0979 29.9829C19.6572 30.0475 20.2238 29.9762 20.7496 29.7751C21.2755 29.574 21.7451 29.249 22.1185 28.8277C22.492 28.4063 22.7583 27.9011 22.8948 27.355C23.0314 26.8088 23.0342 26.2377 22.9029 25.6902C22.7717 25.1427 22.5103 24.6349 22.141 24.21L25.5423 18.8663C26.0237 19.0033 26.5289 19.0355 27.0238 18.9607C27.5187 18.8859 27.9918 18.7057 28.4112 18.4325C28.8305 18.1593 29.1864 17.7993 29.4548 17.3768C29.7232 16.9543 29.8979 16.4791 29.967 15.9834C30.0362 15.4877 29.9981 14.9829 29.8556 14.5031C29.713 14.0233 29.4692 13.5796 29.1406 13.2021C28.8119 12.8245 28.4061 12.5219 27.9506 12.3145C27.495 12.1071 27.0003 11.9999 26.4998 12ZM8.8985 13.045L14.2148 16.125L9.03225 20.1525C8.68007 19.9006 8.2842 19.7162 7.86475 19.6088L7.6335 13.8113C8.10494 13.6489 8.53623 13.3876 8.8985 13.045ZM18.696 9C19.0798 8.97904 19.4574 8.89456 19.8135 8.75L23.6248 13.5075C23.3817 13.8565 23.2046 14.2472 23.1023 14.66L17.281 14.9375L18.696 9ZM10.261 21.7313L15.4998 17.6575L17.4923 23.6363C17.1128 23.9038 16.79 24.2436 16.5423 24.6363L10.4998 22.9413C10.4924 22.527 10.4116 22.1173 10.261 21.7313ZM19.4998 23H19.3885L17.366 16.9338L23.1973 16.6563C23.3447 17.0694 23.5686 17.451 23.8573 17.7813L20.456 23.125C20.1445 23.0394 19.8227 22.9973 19.4998 23ZM15.7898 7.7125C16.0585 8.04003 16.3836 8.31688 16.7498 8.53L15.3373 14.4613L9.9035 11.315C9.96744 11.048 9.99974 10.7745 9.99975 10.5C9.99981 10.3773 9.99355 10.2546 9.981 10.1325L15.7898 7.7125Z" fill="#222222"/>
</svg>
