<svg width="32" height="32" viewBox="0 0 32 32" fill="none" xmlns="http://www.w3.org/2000/svg">
<path d="M26.0172 22.2575L16.8584 28.7275C16.6072 28.9049 16.3072 29.0001 15.9997 29.0001C15.6921 29.0001 15.3922 28.9049 15.1409 28.7275L5.98219 22.2575C4.80581 21.4143 3.91307 20.2339 3.42204 18.8724C2.931 17.5109 2.8648 16.0324 3.23219 14.6325L5.71844 5.125C5.7976 4.81606 5.97364 4.54059 6.22076 4.33899C6.46788 4.13738 6.77308 4.02023 7.09163 4.00472C7.41018 3.9892 7.72532 4.07613 7.99086 4.25277C8.2564 4.42941 8.45838 4.68646 8.56719 4.98625L10.7772 11H21.2222L23.4322 4.98375C23.5412 4.68401 23.7434 4.42708 24.0091 4.25064C24.2749 4.07419 24.5901 3.98752 24.9087 4.00331C25.2273 4.01911 25.5324 4.13655 25.7793 4.33841C26.0263 4.54027 26.2021 4.81594 26.2809 5.125L28.7684 14.64C29.134 16.039 29.0668 17.516 28.5756 18.876C28.0844 20.2359 27.1924 21.415 26.0172 22.2575Z" fill="#222222"/>
</svg>
