<svg width="32" height="32" viewBox="0 0 32 32" fill="none" xmlns="http://www.w3.org/2000/svg">
<path d="M28.9995 11.6463C28.9995 16.7713 25.2883 18.205 22.3058 19.355C21.2545 19.76 20.262 20.1425 19.5295 20.64C18.1058 21.605 17.2058 23.3625 16.3358 25.0625C15.0933 27.49 13.807 30 10.9395 30C9.32578 30 7.86328 28.545 6.70828 25.7925C5.55328 23.04 4.91953 19.4175 5.00703 16.1113C5.14203 11.03 6.82953 8.27625 8.21953 6.86125C10.0883 4.96125 12.6245 3.69875 15.5545 3.21125C18.2783 2.75875 21.072 3.03875 23.4208 3.99875C26.9658 5.45 28.9995 8.2375 28.9995 11.6463Z" fill="#222222"/>
</svg>
