<svg width="32" height="32" viewBox="0 0 32 32" fill="none" xmlns="http://www.w3.org/2000/svg">
<path d="M30.9999 13C30.9998 12.2335 30.7793 11.4832 30.3649 10.8383C29.9505 10.1935 29.3595 9.68132 28.6623 9.36276C27.9652 9.04419 27.1911 8.93265 26.4324 9.04142C25.6736 9.15018 24.9621 9.47467 24.3824 9.97626C22.2887 8.86376 19.7874 8.19126 17.1749 8.03501L17.8237 4.13876L20.0387 4.47876C20.1511 5.17747 20.5068 5.81396 21.0431 6.27573C21.5794 6.7375 22.2616 6.99483 22.9693 7.00222C23.6769 7.00961 24.3644 6.76659 24.9102 6.31612C25.456 5.86565 25.825 5.23673 25.952 4.54052C26.0789 3.84431 25.9556 3.12564 25.604 2.51152C25.2523 1.8974 24.6948 1.42738 24.0301 1.18454C23.3654 0.941695 22.6362 0.94166 21.9715 1.18444C21.3067 1.42722 20.7492 1.89718 20.3974 2.51126L17.1474 2.01126C16.8874 1.97117 16.6221 2.03516 16.409 2.18935C16.1958 2.34354 16.052 2.57552 16.0087 2.83501L15.1499 8.02001C12.4199 8.13751 9.79744 8.81751 7.61744 9.97626C6.82132 9.30372 5.79416 8.96845 4.75457 9.04181C3.71499 9.11517 2.74508 9.59137 2.0513 10.369C1.35751 11.1467 0.99464 12.1645 1.03991 13.2057C1.08518 14.2468 1.53503 15.2292 2.29369 15.9438C2.09926 16.6119 2.00036 17.3042 1.99994 18C1.99994 20.7413 3.49994 23.2938 6.23869 25.1863C8.85994 27 12.3262 28 15.9999 28C19.6737 28 23.1399 27 25.7612 25.1863C28.4999 23.2938 29.9999 20.7413 29.9999 18C29.9995 17.3042 29.9006 16.6119 29.7062 15.9438C30.1128 15.5685 30.4376 15.1134 30.6602 14.6069C30.8828 14.1003 30.9985 13.5533 30.9999 13ZM8.99994 16C8.99994 15.6045 9.11724 15.2178 9.337 14.8889C9.55677 14.56 9.86913 14.3036 10.2346 14.1523C10.6 14.0009 11.0022 13.9613 11.3901 14.0384C11.7781 14.1156 12.1345 14.3061 12.4142 14.5858C12.6939 14.8655 12.8843 15.2219 12.9615 15.6098C13.0387 15.9978 12.9991 16.3999 12.8477 16.7654C12.6963 17.1308 12.44 17.4432 12.1111 17.663C11.7822 17.8827 11.3955 18 10.9999 18C10.4695 18 9.9608 17.7893 9.58573 17.4142C9.21066 17.0392 8.99994 16.5304 8.99994 16ZM20.4687 22.8838C19.0927 23.615 17.5582 23.9974 15.9999 23.9974C14.4417 23.9974 12.9072 23.615 11.5312 22.8838C11.4151 22.8222 11.3123 22.7384 11.2287 22.6371C11.145 22.5358 11.0821 22.4191 11.0436 22.2935C11.005 22.1679 10.9916 22.0359 11.0041 21.9051C11.0165 21.7744 11.0546 21.6473 11.1162 21.5313C11.1778 21.4152 11.2616 21.3124 11.3628 21.2287C11.4641 21.1451 11.5809 21.0822 11.7065 21.0437C11.8321 21.0051 11.964 20.9917 12.0948 21.0042C12.2256 21.0166 12.3526 21.0547 12.4687 21.1163C13.556 21.6943 14.7685 21.9966 15.9999 21.9966C17.2313 21.9966 18.4439 21.6943 19.5312 21.1163C19.6472 21.0547 19.7743 21.0166 19.9051 21.0042C20.0359 20.9917 20.1678 21.0051 20.2934 21.0437C20.419 21.0822 20.5358 21.1451 20.637 21.2287C20.7383 21.3124 20.8221 21.4152 20.8837 21.5313C20.9453 21.6473 20.9833 21.7744 20.9958 21.9051C21.0083 22.0359 20.9948 22.1679 20.9563 22.2935C20.9178 22.4191 20.8549 22.5358 20.7712 22.6371C20.6875 22.7384 20.5847 22.8222 20.4687 22.8838ZM20.9999 18C20.6044 18 20.2177 17.8827 19.8888 17.663C19.5599 17.4432 19.3036 17.1308 19.1522 16.7654C19.0008 16.3999 18.9612 15.9978 19.0384 15.6098C19.1155 15.2219 19.306 14.8655 19.5857 14.5858C19.8654 14.3061 20.2218 14.1156 20.6098 14.0384C20.9977 13.9613 21.3999 14.0009 21.7653 14.1523C22.1308 14.3036 22.4431 14.56 22.6629 14.8889C22.8826 15.2178 22.9999 15.6045 22.9999 16C22.9999 16.5304 22.7892 17.0392 22.4142 17.4142C22.0391 17.7893 21.5304 18 20.9999 18Z" fill="#222222"/>
</svg>
