<svg width="32" height="32" viewBox="0 0 32 32" fill="none" xmlns="http://www.w3.org/2000/svg">
<path d="M27.6416 16C28.3787 15.3423 28.8464 14.4351 28.9545 13.4532C29.0627 12.4713 28.8036 11.484 28.2273 10.6817C27.651 9.87939 26.7981 9.31871 25.8331 9.10767C24.868 8.89664 23.859 9.05019 23.0004 9.53874V6.99999C22.9995 6.18789 22.7514 5.3953 22.2891 4.7276C21.8269 4.0599 21.1723 3.54873 20.4125 3.26203C19.6527 2.97534 18.8236 2.92671 18.0355 3.12261C17.2474 3.31851 16.5375 3.74966 16.0004 4.35874C15.3427 3.62163 14.4355 3.15396 13.4536 3.04583C12.4717 2.9377 11.4844 3.19674 10.6821 3.77307C9.87978 4.3494 9.3191 5.20224 9.10807 6.1673C8.89704 7.13236 9.05059 8.14138 9.53913 8.99999H7.00039C6.18828 9.0009 5.3957 9.24898 4.728 9.71125C4.0603 10.1735 3.54912 10.8281 3.26243 11.5879C2.97574 12.3477 2.92711 13.1768 3.12301 13.9649C3.31891 14.753 3.75006 15.4628 4.35914 16C3.62203 16.6577 3.15436 17.5649 3.04623 18.5468C2.93809 19.5287 3.19714 20.5159 3.77347 21.3183C4.3498 22.1206 5.20263 22.6813 6.1677 22.8923C7.13276 23.1033 8.14178 22.9498 9.00039 22.4612V25C9.0013 25.8121 9.24938 26.6047 9.71165 27.2724C10.1739 27.9401 10.8285 28.4513 11.5883 28.7379C12.3481 29.0246 13.1772 29.0733 13.9653 28.8774C14.7534 28.6815 15.4632 28.2503 16.0004 27.6412C16.6581 28.3783 17.5653 28.846 18.5472 28.9541C19.5291 29.0623 20.5163 28.8032 21.3187 28.2269C22.121 27.6506 22.6817 26.7977 22.8927 25.8327C23.1037 24.8676 22.9502 23.8586 22.4616 23H25.0004C25.8125 22.9991 26.6051 22.751 27.2728 22.2887C27.9405 21.8265 28.4516 21.1719 28.7383 20.4121C29.025 19.6523 29.0737 18.8232 28.8778 18.0351C28.6819 17.247 28.2507 16.5371 27.6416 16ZM11.0004 6.99999C11.0004 6.46956 11.2111 5.96085 11.5862 5.58577C11.9612 5.2107 12.47 4.99999 13.0004 4.99999C13.5308 4.99999 14.0395 5.2107 14.4146 5.58577C14.7897 5.96085 15.0004 6.46956 15.0004 6.99999V8.99999H13.0004C12.47 8.99999 11.9612 8.78927 11.5862 8.4142C11.2111 8.03913 11.0004 7.53042 11.0004 6.99999ZM5.00039 13C5.00039 12.4696 5.2111 11.9608 5.58617 11.5858C5.96124 11.2107 6.46995 11 7.00039 11H13.0004C13.5308 11 14.0395 11.2107 14.4146 11.5858C14.7897 11.9608 15.0004 12.4696 15.0004 13V15H7.00039C6.46995 15 5.96124 14.7893 5.58617 14.4142C5.2111 14.0391 5.00039 13.5304 5.00039 13ZM21.0004 25C21.0004 25.5304 20.7897 26.0391 20.4146 26.4142C20.0395 26.7893 19.5308 27 19.0004 27C18.47 27 17.9612 26.7893 17.5862 26.4142C17.2111 26.0391 17.0004 25.5304 17.0004 25V23H19.0004C19.5308 23 20.0395 23.2107 20.4146 23.5858C20.7897 23.9608 21.0004 24.4696 21.0004 25ZM25.0004 21H19.0004C18.47 21 17.9612 20.7893 17.5862 20.4142C17.2111 20.0391 17.0004 19.5304 17.0004 19V17H25.0004C25.5308 17 26.0395 17.2107 26.4146 17.5858C26.7897 17.9608 27.0004 18.4696 27.0004 19C27.0004 19.5304 26.7897 20.0391 26.4146 20.4142C26.0395 20.7893 25.5308 21 25.0004 21Z" fill="#222222"/>
</svg>
