<svg width="32" height="32" viewBox="0 0 32 32" fill="none" xmlns="http://www.w3.org/2000/svg">
<path d="M28.99 16.5138C28.7288 23.2638 23.2613 28.7288 16.5138 28.99C14.572 29.0656 12.6379 28.7052 10.8536 27.9352C9.06939 27.1653 7.48034 26.0053 6.20326 24.5406C4.92618 23.0758 3.99351 21.3436 3.4738 19.4711C2.95409 17.5986 2.86054 15.6334 3.20002 13.72C3.21684 13.6304 3.25784 13.5471 3.31857 13.4791C3.3793 13.4112 3.45746 13.3611 3.54459 13.3343C3.63173 13.3075 3.72452 13.3051 3.81295 13.3273C3.90137 13.3494 3.98205 13.3953 4.04627 13.46L9.42127 18.835C9.03664 19.5488 8.91178 20.3741 9.06804 21.1697C9.22429 21.9654 9.65197 22.6821 10.278 23.1974C10.904 23.7128 11.6896 23.9948 12.5004 23.9953C13.3113 23.9957 14.0972 23.7146 14.7238 23.2L22.3613 16.97C22.8447 16.5706 23.2393 16.0745 23.5198 15.5136C23.8003 14.9527 23.9604 14.3394 23.9899 13.713C24.0195 13.0866 23.9178 12.4609 23.6913 11.8761C23.4649 11.2913 23.1187 10.7603 22.675 10.3171C22.2313 9.87395 21.6999 9.52841 21.1149 9.30266C20.5298 9.07692 19.904 8.97595 19.2776 9.00623C18.6513 9.03651 18.0381 9.19738 17.4776 9.47852C16.917 9.75965 16.4214 10.1548 16.0225 10.6388L10.6475 17.2313L4.37502 10.9587C4.30107 10.8849 4.25213 10.7897 4.23509 10.6865C4.21805 10.5834 4.23376 10.4775 4.28002 10.3837C5.57281 7.68737 7.75563 5.51911 10.4606 4.24439C13.1656 2.96968 16.2273 2.66646 19.1298 3.38583C22.0322 4.10521 24.5979 5.80319 26.3945 8.19361C28.1911 10.584 29.1086 13.5207 28.9925 16.5088L28.99 16.5138ZM15.1975 14.8188L11.3463 19.5413C11.1422 19.7827 11.0208 20.0833 11 20.3988C10.9896 20.6017 11.0199 20.8048 11.0892 20.9959C11.1584 21.187 11.2652 21.3623 11.4032 21.5115C11.5413 21.6607 11.7077 21.7808 11.8929 21.8647C12.078 21.9486 12.2781 21.9946 12.4813 22C12.836 22.0061 13.1811 21.8845 13.4538 21.6575L18.1763 17.8062C17.4744 17.5879 16.8362 17.2017 16.3172 16.6811C15.7982 16.1606 15.4138 15.5213 15.1975 14.8188ZM21.9875 13.75C22.0391 13.2368 21.9307 12.7202 21.6771 12.271C21.4235 11.8218 21.0372 11.4621 20.5712 11.2411C20.1051 11.0201 19.5821 10.9487 19.0739 11.0366C18.5656 11.1246 18.097 11.3675 17.7323 11.7323C17.3676 12.097 17.1246 12.5656 17.0366 13.0738C16.9487 13.5821 17.0201 14.1051 17.2411 14.5712C17.4621 15.0372 17.8219 15.4235 18.271 15.6771C18.7202 15.9306 19.2368 16.0391 19.75 15.9875C20.3238 15.9298 20.86 15.6756 21.2678 15.2678C21.6756 14.86 21.9299 14.3238 21.9875 13.75Z" fill="#222222"/>
</svg>
