<svg width="32" height="32" viewBox="0 0 32 32" fill="none" xmlns="http://www.w3.org/2000/svg">
<path d="M31.7073 12.7075L27.2073 17.2075C27.1144 17.3005 27.0041 17.3742 26.8827 17.4246C26.7614 17.4749 26.6312 17.5008 26.4998 17.5008C26.3684 17.5008 26.2383 17.4749 26.1169 17.4246C25.9955 17.3742 25.8852 17.3005 25.7923 17.2075L21.2923 12.7075L21.2498 12.66L21.2073 12.7075L16.9136 17L21.2073 21.2925C21.3003 21.3854 21.374 21.4957 21.4244 21.6171C21.4747 21.7385 21.5006 21.8686 21.5006 22C21.5006 22.1314 21.4747 22.2615 21.4244 22.3829C21.374 22.5043 21.3003 22.6146 21.2073 22.7075L16.7073 27.2075C16.6144 27.3005 16.5041 27.3742 16.3827 27.4246C16.2614 27.4749 16.1312 27.5008 15.9998 27.5008C15.8684 27.5008 15.7383 27.4749 15.6169 27.4246C15.4955 27.3742 15.3852 27.3005 15.2923 27.2075L10.7923 22.7075C10.6993 22.6146 10.6256 22.5043 10.5753 22.3829C10.5249 22.2615 10.499 22.1314 10.499 22C10.499 21.8686 10.5249 21.7385 10.5753 21.6171C10.6256 21.4957 10.6993 21.3854 10.7923 21.2925L15.0861 17L10.7923 12.7075L10.7498 12.66L10.7073 12.7075L6.20731 17.2075C6.11444 17.3005 6.00415 17.3742 5.88275 17.4246C5.76135 17.4749 5.63123 17.5008 5.49981 17.5008C5.36839 17.5008 5.23827 17.4749 5.11687 17.4246C4.99547 17.3742 4.88518 17.3005 4.79231 17.2075L0.29231 12.7075C0.199334 12.6146 0.125575 12.5043 0.0752504 12.3829C0.0249261 12.2615 -0.000976562 12.1314 -0.000976562 12C-0.000976562 11.8686 0.0249261 11.7385 0.0752504 11.6171C0.125575 11.4957 0.199334 11.3854 0.29231 11.2925L4.79231 6.79249C4.88518 6.69952 4.99547 6.62576 5.11687 6.57543C5.23827 6.52511 5.36839 6.49921 5.49981 6.49921C5.63123 6.49921 5.76135 6.52511 5.88275 6.57543C6.00415 6.62576 6.11444 6.69952 6.20731 6.79249L10.7073 11.2925L10.7498 11.34L10.7923 11.2925L15.2923 6.79249C15.3852 6.69952 15.4955 6.62576 15.6169 6.57543C15.7383 6.52511 15.8684 6.49921 15.9998 6.49921C16.1312 6.49921 16.2614 6.52511 16.3827 6.57543C16.5041 6.62576 16.6144 6.69952 16.7073 6.79249L21.2073 11.2925L21.2498 11.34L21.2923 11.2925L25.7923 6.79249C25.8852 6.69952 25.9955 6.62576 26.1169 6.57543C26.2383 6.52511 26.3684 6.49921 26.4998 6.49921C26.6312 6.49921 26.7614 6.52511 26.8827 6.57543C27.0041 6.62576 27.1144 6.69952 27.2073 6.79249L31.7073 11.2925C31.8003 11.3854 31.874 11.4957 31.9244 11.6171C31.9747 11.7385 32.0006 11.8686 32.0006 12C32.0006 12.1314 31.9747 12.2615 31.9244 12.3829C31.874 12.5043 31.8003 12.6146 31.7073 12.7075Z" fill="#222222"/>
</svg>
