<svg width="32" height="32" viewBox="0 0 32 32" fill="none" xmlns="http://www.w3.org/2000/svg">
<path d="M30.7071 9.70752L26.9696 13.445C26.2146 22.1975 18.8333 29 9.99957 29C8.18457 29 6.68832 28.7125 5.55207 28.145C4.63582 27.6863 4.26082 27.195 4.16707 27.055C4.08348 26.9297 4.0293 26.787 4.00857 26.6378C3.98785 26.4885 4.00112 26.3365 4.0474 26.1931C4.09368 26.0497 4.17176 25.9186 4.27582 25.8097C4.37988 25.7007 4.50722 25.6166 4.64832 25.5638C4.68082 25.5513 7.67832 24.4 9.58207 22.2088C8.5263 21.3407 7.60467 20.3214 6.84707 19.1838C5.29707 16.8825 3.56207 12.885 4.09707 6.91127C4.11403 6.72145 4.18488 6.54043 4.30126 6.38952C4.41765 6.23862 4.57474 6.12411 4.75402 6.05949C4.9333 5.99487 5.12732 5.98283 5.31322 6.02478C5.49912 6.06672 5.66916 6.16092 5.80332 6.29627C5.84707 6.34002 9.96332 10.4338 14.9958 11.7613V11C14.9939 10.2018 15.1517 9.41119 15.46 8.67485C15.7683 7.93852 16.2208 7.27131 16.7908 6.71252C17.3444 6.15967 18.0032 5.72332 18.7282 5.4292C19.4532 5.13507 20.2298 4.98914 21.0121 5.00002C22.0615 5.01037 23.0904 5.29208 23.9988 5.81777C24.9071 6.34346 25.664 7.09524 26.1958 8.00002H29.9996C30.1975 7.99986 30.391 8.05843 30.5556 8.1683C30.7202 8.27817 30.8484 8.4344 30.9242 8.61723C30.9999 8.80005 31.0198 9.00124 30.9811 9.19532C30.9425 9.38941 30.8471 9.56766 30.7071 9.70752Z" fill="#222222"/>
</svg>
