<svg width="32" height="32" viewBox="0 0 32 32" fill="none" xmlns="http://www.w3.org/2000/svg">
<path d="M26.0001 12H18.4151L12.7076 6.2925C12.6147 6.19967 12.5044 6.12605 12.383 6.07586C12.2616 6.02568 12.1315 5.9999 12.0001 6H11.0001C10.6833 6.00017 10.3711 6.07561 10.0891 6.2201C9.80719 6.36458 9.56359 6.57398 9.37842 6.83105C9.19325 7.08811 9.0718 7.38549 9.02407 7.69869C8.97634 8.01189 9.0037 8.33195 9.10389 8.6325L10.2289 12H7.41514L4.70764 9.2925C4.6147 9.19967 4.50439 9.12605 4.38299 9.07586C4.2616 9.02568 4.1315 8.9999 4.00014 9H3.00014C2.68848 9.00028 2.3812 9.0734 2.10282 9.21351C1.82443 9.35362 1.58264 9.55685 1.39673 9.80699C1.21083 10.0571 1.08595 10.3473 1.03207 10.6542C0.978188 10.9612 0.99679 11.2765 1.08639 11.575L2.84514 17.4363C3.14954 18.4689 3.78108 19.3747 4.64471 20.0174C5.50835 20.6601 6.55736 21.0049 7.63389 21H30.0001C30.2654 21 30.5197 20.8946 30.7073 20.7071C30.8948 20.5196 31.0001 20.2652 31.0001 20V17C31.0001 15.6739 30.4734 14.4021 29.5357 13.4645C28.598 12.5268 27.3262 12 26.0001 12ZM29.0001 19H7.63389C6.98777 19.0034 6.35804 18.7968 5.83952 18.4113C5.32099 18.0257 4.94175 17.4822 4.75889 16.8625L3.00014 11H3.58514L6.29264 13.7075C6.38558 13.8003 6.4959 13.8739 6.61729 13.9241C6.73869 13.9743 6.86878 14.0001 7.00014 14H11.6126C11.7711 14 11.9273 13.9624 12.0684 13.8902C12.2094 13.818 12.3313 13.7133 12.4239 13.5847C12.5166 13.4562 12.5774 13.3075 12.6013 13.1508C12.6252 12.9942 12.6115 12.8341 12.5614 12.6838L11.0001 8H11.5851L17.2926 13.7075C17.3856 13.8003 17.4959 13.8739 17.6173 13.9241C17.7387 13.9743 17.8688 14.0001 18.0001 14H26.0001C26.7958 14 27.5589 14.3161 28.1215 14.8787C28.6841 15.4413 29.0001 16.2044 29.0001 17V19ZM28.0001 25C28.0001 25.3956 27.8828 25.7822 27.6631 26.1111C27.4433 26.44 27.131 26.6964 26.7655 26.8478C26.4001 26.9991 25.9979 27.0387 25.61 26.9616C25.222 26.8844 24.8656 26.6939 24.5859 26.4142C24.3062 26.1345 24.1157 25.7781 24.0386 25.3902C23.9614 25.0022 24.001 24.6001 24.1524 24.2346C24.3038 23.8692 24.5601 23.5568 24.889 23.3371C25.2179 23.1173 25.6046 23 26.0001 23C26.5306 23 27.0393 23.2107 27.4144 23.5858C27.7894 23.9609 28.0001 24.4696 28.0001 25ZM16.0001 25C16.0001 25.3956 15.8828 25.7822 15.6631 26.1111C15.4433 26.44 15.131 26.6964 14.7655 26.8478C14.4001 26.9991 13.9979 27.0387 13.61 26.9616C13.222 26.8844 12.8656 26.6939 12.5859 26.4142C12.3062 26.1345 12.1157 25.7781 12.0386 25.3902C11.9614 25.0022 12.001 24.6001 12.1524 24.2346C12.3038 23.8692 12.5601 23.5568 12.889 23.3371C13.2179 23.1173 13.6046 23 14.0001 23C14.5306 23 15.0393 23.2107 15.4144 23.5858C15.7894 23.9609 16.0001 24.4696 16.0001 25Z" fill="#222222"/>
</svg>
