<svg width="32" height="32" viewBox="0 0 32 32" fill="none" xmlns="http://www.w3.org/2000/svg">
<path d="M32 26.9999C32 27.2651 31.8946 27.5195 31.7071 27.707C31.5196 27.8945 31.2652 27.9999 31 27.9999H13C12.7348 27.9999 12.4804 27.8945 12.2929 27.707C12.1054 27.5195 12 27.2651 12 26.9999C12 26.7347 12.1054 26.4803 12.2929 26.2928C12.4804 26.1053 12.7348 25.9999 13 25.9999H31C31.2652 25.9999 31.5196 26.1053 31.7071 26.2928C31.8946 26.4803 32 26.7347 32 26.9999ZM28.73 23.9624L6.65125 17.7799C5.60193 17.4834 4.67784 16.8529 4.01898 15.9841C3.36012 15.1152 3.0024 14.0553 3 12.9649V5.9999C2.99998 5.68298 3.07527 5.3706 3.21967 5.08848C3.36407 4.80637 3.57344 4.56261 3.83054 4.3773C4.08763 4.19199 4.38509 4.07043 4.69838 4.02263C5.01168 3.97484 5.33185 4.00218 5.6325 4.1024L6.31625 4.3299C6.45965 4.37756 6.59039 4.45709 6.69864 4.56252C6.80689 4.66796 6.88984 4.79656 6.94125 4.93865L8.26625 8.6099L12 9.67365V5.9999C12 5.68298 12.0753 5.3706 12.2197 5.08848C12.3641 4.80637 12.5734 4.56261 12.8305 4.3773C13.0876 4.19199 13.3851 4.07043 13.6984 4.02263C14.0117 3.97484 14.3318 4.00218 14.6325 4.1024L15.3162 4.3299C15.4516 4.375 15.5757 4.44853 15.6802 4.54555C15.7848 4.64257 15.8674 4.76083 15.9225 4.8924L18.735 11.5962L26.34 13.7212C27.3915 14.0164 28.3178 14.6468 28.9784 15.5165C29.639 16.3862 29.9977 17.4478 30 18.5399V22.9999C29.9999 23.1542 29.9642 23.3065 29.8955 23.4447C29.8268 23.5829 29.727 23.7033 29.604 23.7965C29.481 23.8897 29.3381 23.9532 29.1865 23.982C29.0348 24.0108 28.8786 24.0041 28.73 23.9624ZM28 18.5399C27.9983 17.8845 27.7827 17.2475 27.3861 16.7257C26.9895 16.2039 26.4335 15.8258 25.8025 15.6487L17.7313 13.3987C17.5859 13.3582 17.4515 13.2853 17.3383 13.1855C17.2251 13.0857 17.1359 12.9616 17.0775 12.8224L14.25 6.08365L14 5.9999V10.9999C14.0001 11.1547 13.9643 11.3073 13.8954 11.4459C13.8265 11.5845 13.7263 11.7051 13.6029 11.7984C13.4794 11.8917 13.336 11.9551 13.1839 11.9836C13.0317 12.012 12.8751 12.0048 12.7262 11.9624L7.22625 10.3949C7.07354 10.3511 6.93345 10.2716 6.81759 10.1629C6.70173 10.0542 6.61343 9.91951 6.56 9.7699L5.22375 6.07365L5 5.9999V12.9649C5.00162 13.6193 5.21637 14.2553 5.61174 14.7768C6.00711 15.2982 6.56159 15.6767 7.19125 15.8549L28 21.6812V18.5399Z" fill="#222222"/>
</svg>
