<svg width="32" height="32" viewBox="0 0 32 32" fill="none" xmlns="http://www.w3.org/2000/svg">
<path d="M15.9996 5.00007C13.6262 5.00007 11.3061 5.70386 9.33274 7.02243C7.35935 8.34101 5.82128 10.2152 4.91302 12.4079C4.00477 14.6006 3.76713 17.0134 4.23016 19.3412C4.69318 21.6689 5.83607 23.8071 7.5143 25.4853C9.19253 27.1636 11.3307 28.3065 13.6585 28.7695C15.9863 29.2325 18.3991 28.9949 20.5918 28.0866C22.7845 27.1784 24.6586 25.6403 25.9772 23.6669C27.2958 21.6935 27.9996 19.3734 27.9996 17.0001C27.9959 13.8186 26.7305 10.7685 24.4808 8.51881C22.2312 6.26916 19.1811 5.00371 15.9996 5.00007ZM15.9996 27.0001C14.0218 27.0001 12.0884 26.4136 10.4439 25.3148C8.79939 24.2159 7.51766 22.6542 6.76078 20.8269C6.00391 18.9996 5.80587 16.989 6.19173 15.0492C6.57758 13.1094 7.52999 11.3275 8.92851 9.929C10.327 8.53047 12.1089 7.57807 14.0487 7.19221C15.9885 6.80636 17.9992 7.0044 19.8264 7.76127C21.6537 8.51815 23.2155 9.79987 24.3143 11.4444C25.4131 13.0889 25.9996 15.0223 25.9996 17.0001C25.9966 19.6513 24.9421 22.1931 23.0674 24.0678C21.1926 25.9426 18.6508 26.9971 15.9996 27.0001ZM7.70708 4.70757L3.70708 8.70757C3.51944 8.89521 3.26494 9.00062 2.99958 9.00062C2.73422 9.00062 2.47972 8.89521 2.29208 8.70757C2.10444 8.51993 1.99902 8.26543 1.99902 8.00007C1.99902 7.7347 2.10444 7.48021 2.29208 7.29257L6.29208 3.29257C6.47972 3.10493 6.73422 2.99951 6.99958 2.99951C7.26494 2.99951 7.51944 3.10493 7.70708 3.29257C7.89472 3.48021 8.00014 3.7347 8.00014 4.00007C8.00014 4.26543 7.89472 4.51993 7.70708 4.70757ZM29.7071 8.70757C29.6142 8.80054 29.5039 8.8743 29.3825 8.92463C29.2611 8.97495 29.131 9.00085 28.9996 9.00085C28.8682 9.00085 28.738 8.97495 28.6166 8.92463C28.4952 8.8743 28.385 8.80054 28.2921 8.70757L24.2921 4.70757C24.1044 4.51993 23.999 4.26543 23.999 4.00007C23.999 3.7347 24.1044 3.48021 24.2921 3.29257C24.4797 3.10493 24.7342 2.99951 24.9996 2.99951C25.2649 2.99951 25.5194 3.10493 25.7071 3.29257L29.7071 7.29257C29.8001 7.38544 29.8738 7.49573 29.9241 7.61713C29.9745 7.73853 30.0004 7.86865 30.0004 8.00007C30.0004 8.13148 29.9745 8.26161 29.9241 8.38301C29.8738 8.50441 29.8001 8.6147 29.7071 8.70757ZM22.9996 16.0001C23.2648 16.0001 23.5192 16.1054 23.7067 16.293C23.8942 16.4805 23.9996 16.7349 23.9996 17.0001C23.9996 17.2653 23.8942 17.5196 23.7067 17.7072C23.5192 17.8947 23.2648 18.0001 22.9996 18.0001H15.9996C15.7344 18.0001 15.48 17.8947 15.2925 17.7072C15.1049 17.5196 14.9996 17.2653 14.9996 17.0001V10.0001C14.9996 9.73485 15.1049 9.4805 15.2925 9.29296C15.48 9.10542 15.7344 9.00007 15.9996 9.00007C16.2648 9.00007 16.5192 9.10542 16.7067 9.29296C16.8942 9.4805 16.9996 9.73485 16.9996 10.0001V16.0001H22.9996Z" fill="#222222"/>
</svg>
