<svg width="32" height="32" viewBox="0 0 32 32" fill="none" xmlns="http://www.w3.org/2000/svg">
<path d="M25.1927 6.80741C22.7547 4.36941 19.448 2.99976 16.0002 2.99976C12.5523 2.99976 9.24566 4.36941 6.80766 6.80741C4.36966 9.24542 3 12.5521 3 15.9999C3 19.4478 4.36966 22.7544 6.80766 25.1924C9.24566 27.6304 12.5523 29.0001 16.0002 29.0001C19.448 29.0001 22.7547 27.6304 25.1927 25.1924C27.6307 22.7544 29.0003 19.4478 29.0003 15.9999C29.0003 12.5521 27.6307 9.24542 25.1927 6.80741ZM23.7789 8.22241C24.2917 8.73738 24.7522 9.30179 25.1539 9.90741L20.9439 14.8749L17.4539 5.09741C19.85 5.4104 22.0745 6.50948 23.7789 8.22241ZM19.4489 16.6249L17.1789 19.2962L13.7302 18.6712L12.5514 15.3749L14.8214 12.7037L18.2702 13.3287L19.4489 16.6249ZM8.22141 8.22241C10.11 6.32356 12.6306 5.18513 15.3039 5.02366L17.4927 11.1487L7.28766 9.28991C7.57562 8.91437 7.88752 8.55779 8.22141 8.22241ZM5.83141 20.1924C5.238 18.7433 4.95932 17.1846 5.01384 15.6197C5.06836 14.0547 5.45484 12.5192 6.14766 11.1149L12.5489 12.2837L5.83141 20.1924ZM8.22141 23.7774C7.70865 23.2624 7.24808 22.698 6.84641 22.0924L11.0564 17.1249L14.5464 26.8974C12.151 26.5858 9.92651 25.4885 8.22141 23.7774ZM23.7789 23.7774C21.8903 25.6763 19.3697 26.8147 16.6964 26.9762L14.5077 20.8512L24.7127 22.7149C24.4245 23.0887 24.1126 23.4436 23.7789 23.7774ZM19.4514 19.7162L26.1689 11.8074C26.7623 13.2565 27.041 14.8152 26.9865 16.3802C26.932 17.9451 26.5455 19.4806 25.8527 20.8849L19.4514 19.7162Z" fill="#222222"/>
</svg>
