<svg width="32" height="32" viewBox="0 0 32 32" fill="none" xmlns="http://www.w3.org/2000/svg">
<path d="M27.7698 19.1576C27.9393 19.3608 28.0213 19.6229 27.9978 19.8865C27.9744 20.1501 27.8474 20.3937 27.6448 20.5638C25.4748 22.3613 23.5373 23.0001 21.7698 23.0001C19.4473 23.0001 17.4173 21.8988 15.5285 20.8751C12.3598 19.1563 9.62353 17.6713 5.64478 20.9676C5.5445 21.0565 5.42737 21.1243 5.30035 21.167C5.17334 21.2098 5.03903 21.2265 4.9054 21.2163C4.77178 21.2062 4.64157 21.1692 4.5225 21.1077C4.40344 21.0462 4.29795 20.9614 4.2123 20.8583C4.12666 20.7552 4.06261 20.636 4.02395 20.5077C3.98529 20.3794 3.97282 20.2446 3.98728 20.1114C4.00174 19.9781 4.04283 19.8492 4.10811 19.7321C4.17338 19.6151 4.26152 19.5124 4.36728 19.4301C9.38853 15.2713 13.1573 17.3151 16.4835 19.1201C19.6523 20.8388 22.3885 22.3226 26.3673 19.0263C26.5711 18.8587 26.8329 18.7785 27.0956 18.8031C27.3583 18.8277 27.6006 18.9551 27.7698 19.1576ZM5.64478 12.9751C9.62353 9.67881 12.3598 11.1626 15.5285 12.8813C17.4173 13.9063 19.4473 15.0063 21.7698 15.0063C23.5373 15.0063 25.4748 14.3676 27.6448 12.5701C27.7505 12.4878 27.8387 12.385 27.904 12.268C27.9692 12.151 28.0103 12.022 28.0248 11.8888C28.0392 11.7555 28.0268 11.6208 27.9881 11.4924C27.9495 11.3641 27.8854 11.2449 27.7998 11.1418C27.7141 11.0387 27.6086 10.9539 27.4896 10.8924C27.3705 10.8309 27.2403 10.794 27.1067 10.7838C26.973 10.7736 26.8387 10.7904 26.7117 10.8331C26.5847 10.8758 26.4676 10.9437 26.3673 11.0326C22.3885 14.3288 19.6523 12.8438 16.4835 11.1251C13.1573 9.32131 9.38853 7.27631 4.36728 11.4351C4.1795 11.6085 4.06524 11.8472 4.04799 12.1022C4.03074 12.3573 4.1118 12.6092 4.27452 12.8063C4.43725 13.0035 4.66927 13.1308 4.92295 13.1622C5.17662 13.1935 5.43268 13.1266 5.63853 12.9751H5.64478Z" fill="#222222"/>
</svg>
