<svg width="32" height="32" viewBox="0 0 32 32" fill="none" xmlns="http://www.w3.org/2000/svg">
<path d="M25.7071 14.7075C25.6142 14.8005 25.5039 14.8742 25.3825 14.9246C25.2611 14.9749 25.131 15.0008 24.9996 15.0008C24.8682 15.0008 24.738 14.9749 24.6166 14.9246C24.4952 14.8742 24.385 14.8005 24.2921 14.7075L16.9996 7.41374V27C16.9996 27.2652 16.8942 27.5196 16.7067 27.7071C16.5192 27.8946 16.2648 28 15.9996 28C15.7344 28 15.48 27.8946 15.2925 27.7071C15.1049 27.5196 14.9996 27.2652 14.9996 27V7.41374L7.70708 14.7075C7.51944 14.8951 7.26494 15.0005 6.99958 15.0005C6.73422 15.0005 6.47972 14.8951 6.29208 14.7075C6.10444 14.5199 5.99902 14.2654 5.99902 14C5.99902 13.7346 6.10444 13.4801 6.29208 13.2925L15.2921 4.29249C15.385 4.19952 15.4952 4.12576 15.6166 4.07543C15.738 4.02511 15.8682 3.99921 15.9996 3.99921C16.131 3.99921 16.2611 4.02511 16.3825 4.07543C16.5039 4.12576 16.6142 4.19952 16.7071 4.29249L25.7071 13.2925C25.8001 13.3854 25.8738 13.4957 25.9241 13.6171C25.9745 13.7385 26.0004 13.8686 26.0004 14C26.0004 14.1314 25.9745 14.2615 25.9241 14.3829C25.8738 14.5043 25.8001 14.6146 25.7071 14.7075Z" fill="#222222"/>
</svg>
