<svg width="32" height="32" viewBox="0 0 32 32" fill="none" xmlns="http://www.w3.org/2000/svg">
<path d="M29.9996 24C29.9996 24.2652 29.8942 24.5196 29.7067 24.7071C29.5192 24.8946 29.2648 25 28.9996 25H10.9996C10.7344 25 10.48 24.8946 10.2925 24.7071C10.1049 24.5196 9.99958 24.2652 9.99958 24V8.41374L5.70708 12.7075C5.51944 12.8951 5.26494 13.0005 4.99958 13.0005C4.73422 13.0005 4.47972 12.8951 4.29208 12.7075C4.10444 12.5199 3.99902 12.2654 3.99902 12C3.99902 11.7346 4.10444 11.4801 4.29208 11.2925L10.2921 5.29249C10.385 5.19952 10.4952 5.12576 10.6166 5.07543C10.738 5.02511 10.8682 4.99921 10.9996 4.99921C11.131 4.99921 11.2611 5.02511 11.3825 5.07543C11.5039 5.12576 11.6142 5.19952 11.7071 5.29249L17.7071 11.2925C17.8 11.3854 17.8737 11.4957 17.924 11.6171C17.9743 11.7385 18.0001 11.8686 18.0001 12C18.0001 12.1314 17.9743 12.2615 17.924 12.3829C17.8737 12.5043 17.8 12.6146 17.7071 12.7075C17.6142 12.8004 17.5039 12.8741 17.3825 12.9244C17.2611 12.9747 17.131 13.0005 16.9996 13.0005C16.8682 13.0005 16.7381 12.9747 16.6167 12.9244C16.4953 12.8741 16.385 12.8004 16.2921 12.7075L11.9996 8.41374V23H28.9996C29.2648 23 29.5192 23.1053 29.7067 23.2929C29.8942 23.4804 29.9996 23.7348 29.9996 24Z" fill="#222222"/>
</svg>
