<svg width="32" height="32" viewBox="0 0 32 32" fill="none" xmlns="http://www.w3.org/2000/svg">
<path d="M29.9996 10V19C29.9996 19.2652 29.8942 19.5196 29.7067 19.7071C29.5192 19.8946 29.2648 20 28.9996 20C28.7344 20 28.48 19.8946 28.2925 19.7071C28.1049 19.5196 27.9996 19.2652 27.9996 19V12.4137L15.7071 24.7075C15.6142 24.8005 15.5039 24.8742 15.3825 24.9246C15.2611 24.9749 15.131 25.0008 14.9996 25.0008C14.8682 25.0008 14.738 24.9749 14.6166 24.9246C14.4952 24.8742 14.385 24.8005 14.2921 24.7075L2.29208 12.7075C2.10444 12.5199 1.99902 12.2654 1.99902 12C1.99902 11.7346 2.10444 11.4801 2.29208 11.2925C2.47972 11.1049 2.73422 10.9994 2.99958 10.9994C3.26494 10.9994 3.51944 11.1049 3.70708 11.2925L14.9996 22.5863L26.5858 11H19.9996C19.7344 11 19.48 10.8946 19.2925 10.7071C19.1049 10.5196 18.9996 10.2652 18.9996 10C18.9996 9.73478 19.1049 9.48043 19.2925 9.29289C19.48 9.10536 19.7344 9 19.9996 9H28.9996C29.2648 9 29.5192 9.10536 29.7067 9.29289C29.8942 9.48043 29.9996 9.73478 29.9996 10Z" fill="#222222"/>
</svg>
