<svg width="32" height="32" viewBox="0 0 32 32" fill="none" xmlns="http://www.w3.org/2000/svg">
<path d="M11.2923 7.70749C11.1993 7.61462 11.1256 7.50433 11.0753 7.38293C11.0249 7.26154 10.999 7.13141 10.999 6.99999C10.999 6.86858 11.0249 6.73845 11.0753 6.61705C11.1256 6.49566 11.1993 6.38537 11.2923 6.29249L15.2923 2.29249C15.3852 2.19952 15.4955 2.12576 15.6169 2.07543C15.7383 2.02511 15.8684 1.99921 15.9998 1.99921C16.1312 1.99921 16.2614 2.02511 16.3828 2.07543C16.5041 2.12576 16.6144 2.19952 16.7073 2.29249L20.7073 6.29249C20.895 6.48013 21.0004 6.73463 21.0004 6.99999C21.0004 7.26536 20.895 7.51985 20.7073 7.70749C20.5197 7.89513 20.2652 8.00055 19.9998 8.00055C19.7344 8.00055 19.4799 7.89513 19.2923 7.70749L16.9998 5.41374V12C16.9998 12.2652 16.8945 12.5196 16.7069 12.7071C16.5194 12.8946 16.265 13 15.9998 13C15.7346 13 15.4802 12.8946 15.2927 12.7071C15.1052 12.5196 14.9998 12.2652 14.9998 12V5.41374L12.7073 7.70749C12.6144 7.80047 12.5041 7.87423 12.3828 7.92455C12.2614 7.97488 12.1312 8.00078 11.9998 8.00078C11.8684 8.00078 11.7383 7.97488 11.6169 7.92455C11.4955 7.87423 11.3852 7.80047 11.2923 7.70749ZM19.2923 24.2925L16.9998 26.5862V20C16.9998 19.7348 16.8945 19.4804 16.7069 19.2929C16.5194 19.1053 16.265 19 15.9998 19C15.7346 19 15.4802 19.1053 15.2927 19.2929C15.1052 19.4804 14.9998 19.7348 14.9998 20V26.5862L12.7073 24.2925C12.5197 24.1049 12.2652 23.9994 11.9998 23.9994C11.7344 23.9994 11.4799 24.1049 11.2923 24.2925C11.1047 24.4801 10.9993 24.7346 10.9993 25C10.9993 25.2654 11.1047 25.5199 11.2923 25.7075L15.2923 29.7075C15.3852 29.8005 15.4955 29.8742 15.6169 29.9246C15.7383 29.9749 15.8684 30.0008 15.9998 30.0008C16.1312 30.0008 16.2614 29.9749 16.3828 29.9246C16.5041 29.8742 16.6144 29.8005 16.7073 29.7075L20.7073 25.7075C20.895 25.5199 21.0004 25.2654 21.0004 25C21.0004 24.7346 20.895 24.4801 20.7073 24.2925C20.5197 24.1049 20.2652 23.9994 19.9998 23.9994C19.7344 23.9994 19.4799 24.1049 19.2923 24.2925ZM29.7073 15.2925L25.7073 11.2925C25.5197 11.1049 25.2652 10.9994 24.9998 10.9994C24.7344 10.9994 24.4799 11.1049 24.2923 11.2925C24.1047 11.4801 23.9993 11.7346 23.9993 12C23.9993 12.2654 24.1047 12.5199 24.2923 12.7075L26.5861 15H19.9998C19.7346 15 19.4802 15.1054 19.2927 15.2929C19.1052 15.4804 18.9998 15.7348 18.9998 16C18.9998 16.2652 19.1052 16.5196 19.2927 16.7071C19.4802 16.8946 19.7346 17 19.9998 17H26.5861L24.2923 19.2925C24.1047 19.4801 23.9993 19.7346 23.9993 20C23.9993 20.2654 24.1047 20.5199 24.2923 20.7075C24.4799 20.8951 24.7344 21.0005 24.9998 21.0005C25.2652 21.0005 25.5197 20.8951 25.7073 20.7075L29.7073 16.7075C29.8003 16.6146 29.874 16.5043 29.9244 16.3829C29.9747 16.2615 30.0006 16.1314 30.0006 16C30.0006 15.8686 29.9747 15.7385 29.9244 15.6171C29.874 15.4957 29.8003 15.3854 29.7073 15.2925ZM5.41356 17H11.9998C12.265 17 12.5194 16.8946 12.7069 16.7071C12.8945 16.5196 12.9998 16.2652 12.9998 16C12.9998 15.7348 12.8945 15.4804 12.7069 15.2929C12.5194 15.1054 12.265 15 11.9998 15H5.41356L7.70731 12.7075C7.89495 12.5199 8.00037 12.2654 8.00037 12C8.00037 11.7346 7.89495 11.4801 7.70731 11.2925C7.51967 11.1049 7.26517 10.9994 6.99981 10.9994C6.73445 10.9994 6.47995 11.1049 6.29231 11.2925L2.29231 15.2925C2.19933 15.3854 2.12557 15.4957 2.07525 15.6171C2.02493 15.7385 1.99902 15.8686 1.99902 16C1.99902 16.1314 2.02493 16.2615 2.07525 16.3829C2.12557 16.5043 2.19933 16.6146 2.29231 16.7075L6.29231 20.7075C6.47995 20.8951 6.73445 21.0005 6.99981 21.0005C7.26517 21.0005 7.51967 20.8951 7.70731 20.7075C7.89495 20.5199 8.00037 20.2654 8.00037 20C8.00037 19.7346 7.89495 19.4801 7.70731 19.2925L5.41356 17Z" fill="#222222"/>
</svg>
