<svg width="32" height="32" viewBox="0 0 32 32" fill="none" xmlns="http://www.w3.org/2000/svg">
<path d="M28.7073 14.2925L16.7073 2.29249C16.6144 2.19952 16.5041 2.12576 16.3828 2.07543C16.2614 2.02511 16.1312 1.99921 15.9998 1.99921C15.8684 1.99921 15.7383 2.02511 15.6169 2.07543C15.4955 2.12576 15.3852 2.19952 15.2923 2.29249L3.29231 14.2925C3.1523 14.4323 3.05693 14.6106 3.01828 14.8047C2.97963 14.9988 2.99944 15.2 3.07519 15.3828C3.15094 15.5656 3.27923 15.7218 3.44383 15.8317C3.60842 15.9416 3.80192 16.0001 3.99981 16H8.99981V26C8.99981 26.5304 9.21053 27.0391 9.5856 27.4142C9.96067 27.7893 10.4694 28 10.9998 28H20.9998C21.5302 28 22.039 27.7893 22.414 27.4142C22.7891 27.0391 22.9998 26.5304 22.9998 26V16H27.9998C28.1977 16.0001 28.3912 15.9416 28.5558 15.8317C28.7204 15.7218 28.8487 15.5656 28.9244 15.3828C29.0002 15.2 29.02 14.9988 28.9813 14.8047C28.9427 14.6106 28.8473 14.4323 28.7073 14.2925ZM21.9998 14C21.7346 14 21.4802 14.1054 21.2927 14.2929C21.1052 14.4804 20.9998 14.7348 20.9998 15V26H10.9998V15C10.9998 14.7348 10.8945 14.4804 10.7069 14.2929C10.5194 14.1054 10.265 14 9.99981 14H6.41356L15.9998 4.41374L25.5861 14H21.9998Z" fill="#222222"/>
</svg>
