<svg width="32" height="32" viewBox="0 0 32 32" fill="none" xmlns="http://www.w3.org/2000/svg">
<path d="M14.7071 21.2925C14.8001 21.3854 14.8738 21.4957 14.9241 21.6171C14.9745 21.7385 15.0004 21.8686 15.0004 22C15.0004 22.1314 14.9745 22.2615 14.9241 22.3829C14.8738 22.5043 14.8001 22.6146 14.7071 22.7075L10.7071 26.7075C10.6142 26.8005 10.5039 26.8742 10.3825 26.9246C10.2611 26.9749 10.131 27.0008 9.99958 27.0008C9.86816 27.0008 9.73804 26.9749 9.61664 26.9246C9.49524 26.8742 9.38495 26.8005 9.29208 26.7075L5.29208 22.7075C5.19917 22.6146 5.12547 22.5043 5.07519 22.3829C5.0249 22.2615 4.99902 22.1314 4.99902 22C4.99902 21.8686 5.0249 21.7385 5.07519 21.6171C5.12547 21.4957 5.19917 21.3854 5.29208 21.2925C5.47972 21.1049 5.73422 20.9994 5.99958 20.9994C6.13097 20.9994 6.26108 21.0253 6.38248 21.0756C6.50387 21.1259 6.61417 21.1996 6.70708 21.2925L8.99958 23.5862V5.99999C8.99958 5.73478 9.10494 5.48042 9.29247 5.29289C9.48001 5.10535 9.73436 4.99999 9.99958 4.99999C10.2648 4.99999 10.5191 5.10535 10.7067 5.29289C10.8942 5.48042 10.9996 5.73478 10.9996 5.99999V23.5862L13.2921 21.2925C13.385 21.1995 13.4952 21.1258 13.6166 21.0754C13.738 21.0251 13.8682 20.9992 13.9996 20.9992C14.131 20.9992 14.2611 21.0251 14.3825 21.0754C14.5039 21.1258 14.6142 21.1995 14.7071 21.2925ZM26.7071 9.29249L22.7071 5.29249C22.6142 5.19952 22.5039 5.12576 22.3825 5.07543C22.2611 5.02511 22.131 4.99921 21.9996 4.99921C21.8682 4.99921 21.738 5.02511 21.6166 5.07543C21.4952 5.12576 21.385 5.19952 21.2921 5.29249L17.2921 9.29249C17.1044 9.48013 16.999 9.73463 16.999 9.99999C16.999 10.2654 17.1044 10.5199 17.2921 10.7075C17.4797 10.8951 17.7342 11.0005 17.9996 11.0005C18.2649 11.0005 18.5194 10.8951 18.7071 10.7075L20.9996 8.41374V26C20.9996 26.2652 21.1049 26.5196 21.2925 26.7071C21.48 26.8946 21.7344 27 21.9996 27C22.2648 27 22.5192 26.8946 22.7067 26.7071C22.8942 26.5196 22.9996 26.2652 22.9996 26V8.41374L25.2921 10.7075C25.4797 10.8951 25.7342 11.0005 25.9996 11.0005C26.2649 11.0005 26.5194 10.8951 26.7071 10.7075C26.8947 10.5199 27.0001 10.2654 27.0001 9.99999C27.0001 9.73463 26.8947 9.48013 26.7071 9.29249Z" fill="#222222"/>
</svg>
