<svg width="32" height="32" viewBox="0 0 32 32" fill="none" xmlns="http://www.w3.org/2000/svg">
<path d="M25.9996 4C25.9996 4.26522 25.8942 4.51957 25.7067 4.70711C25.5192 4.89464 25.2648 5 24.9996 5C22.0832 5.00331 19.2872 6.1633 17.2251 8.22548C15.1629 10.2877 14.0029 13.0836 13.9996 16V25.5863L18.2921 21.2925C18.4797 21.1049 18.7342 20.9994 18.9996 20.9994C19.2649 20.9994 19.5194 21.1049 19.7071 21.2925C19.8947 21.4801 20.0001 21.7346 20.0001 22C20.0001 22.2654 19.8947 22.5199 19.7071 22.7075L13.7071 28.7075C13.6142 28.8005 13.5039 28.8742 13.3825 28.9246C13.2611 28.9749 13.131 29.0008 12.9996 29.0008C12.8682 29.0008 12.738 28.9749 12.6166 28.9246C12.4952 28.8742 12.385 28.8005 12.2921 28.7075L6.29208 22.7075C6.19917 22.6146 6.12547 22.5043 6.07519 22.3829C6.0249 22.2615 5.99902 22.1314 5.99902 22C5.99902 21.8686 6.0249 21.7385 6.07519 21.6171C6.12547 21.4957 6.19917 21.3854 6.29208 21.2925C6.47972 21.1049 6.73422 20.9994 6.99958 20.9994C7.13097 20.9994 7.26108 21.0253 7.38248 21.0756C7.50387 21.1259 7.61417 21.1996 7.70708 21.2925L11.9996 25.5863V16C12.0032 12.5533 13.374 9.24882 15.8112 6.81163C18.2484 4.37445 21.5529 3.00364 24.9996 3C25.2648 3 25.5192 3.10536 25.7067 3.29289C25.8942 3.48043 25.9996 3.73478 25.9996 4Z" fill="#222222"/>
</svg>
