<svg width="32" height="32" viewBox="0 0 32 32" fill="none" xmlns="http://www.w3.org/2000/svg">
<path d="M25.9996 28C25.9996 28.2652 25.8942 28.5196 25.7067 28.7071C25.5192 28.8946 25.2648 29 24.9996 29C21.5529 28.9964 18.2484 27.6256 15.8112 25.1884C13.374 22.7512 12.0032 19.4467 11.9996 16V6.41375L7.70708 10.7075C7.51944 10.8951 7.26494 11.0006 6.99958 11.0006C6.73422 11.0006 6.47972 10.8951 6.29208 10.7075C6.10444 10.5199 5.99902 10.2654 5.99902 10C5.99902 9.73464 6.10444 9.48014 6.29208 9.2925L12.2921 3.2925C12.385 3.19952 12.4952 3.12577 12.6166 3.07544C12.738 3.02512 12.8682 2.99921 12.9996 2.99921C13.131 2.99921 13.2611 3.02512 13.3825 3.07544C13.5039 3.12577 13.6142 3.19952 13.7071 3.2925L19.7071 9.2925C19.8947 9.48014 20.0001 9.73464 20.0001 10C20.0001 10.2654 19.8947 10.5199 19.7071 10.7075C19.5194 10.8951 19.2649 11.0006 18.9996 11.0006C18.7342 11.0006 18.4797 10.8951 18.2921 10.7075L13.9996 6.41375V16C14.0029 18.9164 15.1629 21.7123 17.2251 23.7745C19.2872 25.8367 22.0832 26.9967 24.9996 27C25.2648 27 25.5192 27.1054 25.7067 27.2929C25.8942 27.4804 25.9996 27.7348 25.9996 28Z" fill="#222222"/>
</svg>
