<svg width="32" height="32" viewBox="0 0 32 32" fill="none" xmlns="http://www.w3.org/2000/svg">
<path d="M25.9996 11V22C25.9996 22.2652 25.8942 22.5196 25.7067 22.7071C25.5192 22.8946 25.2648 23 24.9996 23C24.7344 23 24.48 22.8946 24.2925 22.7071C24.1049 22.5196 23.9996 22.2652 23.9996 22V11C23.9996 9.4087 23.3674 7.88258 22.2422 6.75736C21.117 5.63214 19.5909 5 17.9996 5C16.4083 5 14.8822 5.63214 13.7569 6.75736C12.6317 7.88258 11.9996 9.4087 11.9996 11V25.5863L16.2921 21.2925C16.4797 21.1049 16.7342 20.9994 16.9996 20.9994C17.2649 20.9994 17.5194 21.1049 17.7071 21.2925C17.8947 21.4801 18.0001 21.7346 18.0001 22C18.0001 22.2654 17.8947 22.5199 17.7071 22.7075L11.7071 28.7075C11.6142 28.8005 11.5039 28.8742 11.3825 28.9246C11.2611 28.9749 11.131 29.0008 10.9996 29.0008C10.8682 29.0008 10.738 28.9749 10.6166 28.9246C10.4952 28.8742 10.385 28.8005 10.2921 28.7075L4.29208 22.7075C4.19917 22.6146 4.12547 22.5043 4.07519 22.3829C4.0249 22.2615 3.99902 22.1314 3.99902 22C3.99902 21.8686 4.0249 21.7385 4.07519 21.6171C4.12547 21.4957 4.19917 21.3854 4.29208 21.2925C4.47972 21.1049 4.73422 20.9994 4.99958 20.9994C5.13097 20.9994 5.26108 21.0253 5.38248 21.0756C5.50387 21.1259 5.61417 21.1996 5.70708 21.2925L9.99958 25.5863V11C9.99958 8.87827 10.8424 6.84344 12.3427 5.34315C13.843 3.84285 15.8778 3 17.9996 3C20.1213 3 22.1561 3.84285 23.6564 5.34315C25.1567 6.84344 25.9996 8.87827 25.9996 11Z" fill="#222222"/>
</svg>
