<svg width="32" height="32" viewBox="0 0 32 32" fill="none" xmlns="http://www.w3.org/2000/svg">
<path d="M20.7071 24.2925C20.8001 24.3854 20.8738 24.4957 20.9241 24.6171C20.9745 24.7385 21.0004 24.8686 21.0004 25C21.0004 25.1314 20.9745 25.2615 20.9241 25.3829C20.8738 25.5043 20.8001 25.6146 20.7071 25.7075L16.7071 29.7075C16.6142 29.8005 16.5039 29.8742 16.3825 29.9246C16.2611 29.9749 16.131 30.0008 15.9996 30.0008C15.8682 30.0008 15.738 29.9749 15.6166 29.9246C15.4952 29.8742 15.385 29.8005 15.2921 29.7075L11.2921 25.7075C11.1044 25.5199 10.999 25.2654 10.999 25C10.999 24.7346 11.1044 24.4801 11.2921 24.2925C11.4797 24.1049 11.7342 23.9994 11.9996 23.9994C12.2649 23.9994 12.5194 24.1049 12.7071 24.2925L14.9996 26.5862V5.41374L12.7071 7.70749C12.5194 7.89513 12.2649 8.00055 11.9996 8.00055C11.7342 8.00055 11.4797 7.89513 11.2921 7.70749C11.1044 7.51985 10.999 7.26536 10.999 6.99999C10.999 6.73463 11.1044 6.48013 11.2921 6.29249L15.2921 2.29249C15.385 2.19952 15.4952 2.12576 15.6166 2.07543C15.738 2.02511 15.8682 1.99921 15.9996 1.99921C16.131 1.99921 16.2611 2.02511 16.3825 2.07543C16.5039 2.12576 16.6142 2.19952 16.7071 2.29249L20.7071 6.29249C20.8947 6.48013 21.0001 6.73463 21.0001 6.99999C21.0001 7.26536 20.8947 7.51985 20.7071 7.70749C20.5194 7.89513 20.2649 8.00055 19.9996 8.00055C19.7342 8.00055 19.4797 7.89513 19.2921 7.70749L16.9996 5.41374V26.5862L19.2921 24.2925C19.385 24.1995 19.4952 24.1258 19.6166 24.0754C19.738 24.0251 19.8682 23.9992 19.9996 23.9992C20.131 23.9992 20.2611 24.0251 20.3825 24.0754C20.5039 24.1258 20.6142 24.1995 20.7071 24.2925Z" fill="#222222"/>
</svg>
