<svg width="32" height="32" viewBox="0 0 32 32" fill="none" xmlns="http://www.w3.org/2000/svg">
<path d="M24.9997 10V28C24.9997 28.2652 24.8943 28.5196 24.7068 28.7071C24.5193 28.8947 24.2649 29 23.9997 29C23.7345 29 23.4801 28.8947 23.2926 28.7071C23.105 28.5196 22.9997 28.2652 22.9997 28V11H8.41344L12.7072 15.2925C12.8948 15.4801 13.0002 15.7346 13.0002 16C13.0002 16.2654 12.8948 16.5199 12.7072 16.7075C12.5195 16.8951 12.2651 17.0006 11.9997 17.0006C11.7343 17.0006 11.4798 16.8951 11.2922 16.7075L5.29219 10.7075L5.28469 10.6988C5.26469 10.6788 5.24469 10.6563 5.22594 10.6338L5.19719 10.595C5.1869 10.5822 5.17731 10.5688 5.16844 10.555L5.13969 10.5088C5.13187 10.4967 5.12477 10.4842 5.11844 10.4713C5.10969 10.4563 5.10219 10.44 5.09469 10.4238C5.08719 10.4075 5.08219 10.3975 5.07594 10.3825C5.06969 10.3675 5.06469 10.3513 5.05844 10.3363L5.04219 10.2913L5.03094 10.2425C5.03094 10.2263 5.02219 10.2113 5.01844 10.1963C5.01469 10.1813 5.01844 10.1575 5.01094 10.1388C5.00344 10.12 5.01094 10.1125 5.00469 10.0988C4.99844 10.0331 4.99844 9.96694 5.00469 9.90126C5.00469 9.88751 5.00469 9.87501 5.01094 9.86126C5.01719 9.84751 5.01094 9.82251 5.01844 9.80376C5.02594 9.78501 5.02594 9.77376 5.03094 9.75751L5.04219 9.70876L5.05844 9.66376C5.06469 9.64876 5.06969 9.63251 5.07594 9.61751C5.08219 9.60251 5.08844 9.59001 5.09469 9.57626C5.10094 9.56251 5.10969 9.54376 5.11844 9.52876C5.12477 9.51585 5.13187 9.50333 5.13969 9.49126L5.16844 9.44501C5.17731 9.43117 5.1869 9.41782 5.19719 9.40501L5.22594 9.36626C5.24469 9.34376 5.26469 9.32126 5.28469 9.30126L5.29219 9.29251L11.2922 3.29251C11.4798 3.10487 11.7343 2.99945 11.9997 2.99945C12.2651 2.99945 12.5195 3.10487 12.7072 3.29251C12.8948 3.48015 13.0002 3.73464 13.0002 4.00001C13.0002 4.26537 12.8948 4.51987 12.7072 4.70751L8.41344 9.00001H23.9997C24.2649 9.00001 24.5193 9.10536 24.7068 9.2929C24.8943 9.48044 24.9997 9.73479 24.9997 10Z" fill="#222222"/>
</svg>
