<svg width="32" height="32" viewBox="0 0 32 32" fill="none" xmlns="http://www.w3.org/2000/svg">
<path d="M24.9996 11V24C24.9996 24.2652 24.8942 24.5196 24.7067 24.7071C24.5192 24.8947 24.2648 25 23.9996 25H10.9996C10.7344 25 10.48 24.8947 10.2925 24.7071C10.1049 24.5196 9.99958 24.2652 9.99958 24C9.99958 23.7348 10.1049 23.4804 10.2925 23.2929C10.48 23.1054 10.7344 23 10.9996 23H21.5858L7.29208 8.70751C7.10444 8.51987 6.99902 8.26537 6.99902 8.00001C6.99902 7.73464 7.10444 7.48015 7.29208 7.29251C7.47972 7.10487 7.73422 6.99945 7.99958 6.99945C8.26494 6.99945 8.51944 7.10487 8.70708 7.29251L22.9996 21.5863V11C22.9996 10.7348 23.1049 10.4804 23.2925 10.2929C23.48 10.1054 23.7344 10 23.9996 10C24.2648 10 24.5192 10.1054 24.7067 10.2929C24.8942 10.4804 24.9996 10.7348 24.9996 11Z" fill="#222222"/>
</svg>
