<svg width="32" height="32" viewBox="0 0 32 32" fill="none" xmlns="http://www.w3.org/2000/svg">
<path d="M15.9996 17V25C15.9996 25.2652 15.8942 25.5196 15.7067 25.7071C15.5191 25.8946 15.2648 26 14.9996 26C14.7344 26 14.48 25.8946 14.2925 25.7071C14.1049 25.5196 13.9996 25.2652 13.9996 25V19.415L5.70708 27.7075C5.61417 27.8004 5.50387 27.8741 5.38248 27.9244C5.26108 27.9747 5.13097 28.0006 4.99958 28.0006C4.86818 28.0006 4.73808 27.9747 4.61668 27.9244C4.49529 27.8741 4.38499 27.8004 4.29208 27.7075C4.19917 27.6146 4.12547 27.5043 4.07519 27.3829C4.0249 27.2615 3.99902 27.1314 3.99902 27C3.99902 26.8686 4.0249 26.7385 4.07519 26.6171C4.12547 26.4957 4.19917 26.3854 4.29208 26.2925L12.5846 18H6.99958C6.73436 18 6.48001 17.8946 6.29247 17.7071C6.10494 17.5196 5.99958 17.2652 5.99958 17C5.99958 16.7348 6.10494 16.4804 6.29247 16.2929C6.48001 16.1054 6.73436 16 6.99958 16H14.9996C15.2648 16 15.5191 16.1054 15.7067 16.2929C15.8942 16.4804 15.9996 16.7348 15.9996 17ZM25.9996 4H9.99958C9.46915 4 8.96044 4.21071 8.58537 4.58579C8.21029 4.96086 7.99958 5.46957 7.99958 6V12C7.99958 12.2652 8.10494 12.5196 8.29247 12.7071C8.48001 12.8946 8.73436 13 8.99958 13C9.2648 13 9.51915 12.8946 9.70669 12.7071C9.89422 12.5196 9.99958 12.2652 9.99958 12V6H25.9996V22H19.9996C19.7344 22 19.48 22.1054 19.2925 22.2929C19.1049 22.4804 18.9996 22.7348 18.9996 23C18.9996 23.2652 19.1049 23.5196 19.2925 23.7071C19.48 23.8946 19.7344 24 19.9996 24H25.9996C26.53 24 27.0387 23.7893 27.4138 23.4142C27.7889 23.0391 27.9996 22.5304 27.9996 22V6C27.9996 5.46957 27.7889 4.96086 27.4138 4.58579C27.0387 4.21071 26.53 4 25.9996 4Z" fill="#222222"/>
</svg>
