<svg width="32" height="32" viewBox="0 0 32 32" fill="none" xmlns="http://www.w3.org/2000/svg">
<path d="M26.3746 12.9288L17.6084 16.4287L23.7921 24.38C23.8749 24.4835 23.9364 24.6023 23.9728 24.7297C24.0093 24.8571 24.02 24.9905 24.0045 25.1221C23.989 25.2537 23.9475 25.3809 23.8823 25.4963C23.8172 25.6117 23.7298 25.713 23.6252 25.7943C23.5206 25.8756 23.4009 25.9354 23.273 25.97C23.1451 26.0047 23.0116 26.0136 22.8802 25.9962C22.7489 25.9788 22.6223 25.9355 22.5078 25.8688C22.3933 25.8021 22.2933 25.7132 22.2134 25.6075L15.9996 17.625L9.78965 25.6138C9.62545 25.8189 9.38709 25.9512 9.12612 25.982C8.86515 26.0128 8.60255 25.9396 8.3951 25.7783C8.18765 25.617 8.05202 25.3806 8.01755 25.1201C7.98308 24.8596 8.05254 24.596 8.2109 24.3862L14.3946 16.435L5.62465 12.9288C5.37833 12.8293 5.1816 12.6361 5.07776 12.3916C4.97391 12.1471 4.97144 11.8713 5.0709 11.625C5.17035 11.3787 5.36359 11.182 5.60809 11.0781C5.85259 10.9743 6.12833 10.9718 6.37465 11.0712L14.9996 14.5225V5C14.9996 4.73478 15.105 4.48043 15.2925 4.29289C15.4801 4.10536 15.7344 4 15.9996 4C16.2649 4 16.5192 4.10536 16.7068 4.29289C16.8943 4.48043 16.9996 4.73478 16.9996 5V14.5225L25.6246 11.0712C25.7466 11.022 25.8771 10.9973 26.0086 10.9984C26.1401 10.9996 26.2701 11.0267 26.3912 11.0781C26.5123 11.1295 26.622 11.2043 26.7142 11.2981C26.8064 11.392 26.8792 11.503 26.9284 11.625C26.9776 11.747 27.0024 11.8774 27.0012 12.009C27 12.1405 26.973 12.2705 26.9215 12.3916C26.8701 12.5126 26.7954 12.6224 26.7015 12.7145C26.6077 12.8067 26.4966 12.8795 26.3746 12.9288Z" fill="#222222"/>
</svg>
