<svg width="32" height="32" viewBox="0 0 32 32" fill="none" xmlns="http://www.w3.org/2000/svg">
<path d="M27.0003 5H8.56656C8.22136 5.00099 7.88223 5.09088 7.58184 5.26099C7.28146 5.43111 7.02996 5.67571 6.85156 5.97125L1.14281 15.485C1.04937 15.6405 1 15.8186 1 16C1 16.1814 1.04937 16.3595 1.14281 16.515L6.85156 26.0287C7.02996 26.3243 7.28146 26.5689 7.58184 26.739C7.88223 26.9091 8.22136 26.999 8.56656 27H27.0003C27.5307 27 28.0394 26.7893 28.4145 26.4142C28.7896 26.0391 29.0003 25.5304 29.0003 25V7C29.0003 6.46957 28.7896 5.96086 28.4145 5.58579C28.0394 5.21071 27.5307 5 27.0003 5ZM27.0003 25H8.56656L3.16656 16L8.56656 7H27.0003V25ZM13.2928 18.2925L15.5866 16L13.2928 13.7075C13.1052 13.5199 12.9998 13.2654 12.9998 13C12.9998 12.7346 13.1052 12.4801 13.2928 12.2925C13.4804 12.1049 13.7349 11.9994 14.0003 11.9994C14.2657 11.9994 14.5202 12.1049 14.7078 12.2925L17.0003 14.5863L19.2928 12.2925C19.3857 12.1996 19.496 12.1259 19.6174 12.0756C19.7388 12.0253 19.8689 11.9994 20.0003 11.9994C20.1317 11.9994 20.2618 12.0253 20.3832 12.0756C20.5046 12.1259 20.6149 12.1996 20.7078 12.2925C20.8007 12.3854 20.8744 12.4957 20.9247 12.6171C20.975 12.7385 21.0009 12.8686 21.0009 13C21.0009 13.1314 20.975 13.2615 20.9247 13.3829C20.8744 13.5043 20.8007 13.6146 20.7078 13.7075L18.4141 16L20.7078 18.2925C20.8007 18.3854 20.8744 18.4957 20.9247 18.6171C20.975 18.7385 21.0009 18.8686 21.0009 19C21.0009 19.1314 20.975 19.2615 20.9247 19.3829C20.8744 19.5043 20.8007 19.6146 20.7078 19.7075C20.6149 19.8004 20.5046 19.8741 20.3832 19.9244C20.2618 19.9747 20.1317 20.0006 20.0003 20.0006C19.8689 20.0006 19.7388 19.9747 19.6174 19.9244C19.496 19.8741 19.3857 19.8004 19.2928 19.7075L17.0003 17.4137L14.7078 19.7075C14.6149 19.8004 14.5046 19.8741 14.3832 19.9244C14.2618 19.9747 14.1317 20.0006 14.0003 20.0006C13.8689 20.0006 13.7388 19.9747 13.6174 19.9244C13.496 19.8741 13.3857 19.8004 13.2928 19.7075C13.1999 19.6146 13.1262 19.5043 13.0759 19.3829C13.0256 19.2615 12.9998 19.1314 12.9998 19C12.9998 18.8686 13.0256 18.7385 13.0759 18.6171C13.1262 18.4957 13.1999 18.3854 13.2928 18.2925Z" fill="#222222"/>
</svg>
