<svg width="32" height="32" viewBox="0 0 32 32" fill="none" xmlns="http://www.w3.org/2000/svg">
<path d="M28 20.27V18C27.995 15.3339 27.1041 12.7452 25.4672 10.6408C23.8303 8.53642 21.5404 7.03582 18.9575 6.37499C19.2925 5.84565 19.4793 5.2361 19.4984 4.60995C19.5175 3.98381 19.3681 3.36401 19.066 2.81525C18.7639 2.26649 18.32 1.80887 17.7807 1.49015C17.2414 1.17144 16.6264 1.00331 16 1.00331C15.3736 1.00331 14.7586 1.17144 14.2193 1.49015C13.68 1.80887 13.2361 2.26649 12.934 2.81525C12.6319 3.36401 12.4825 3.98381 12.5016 4.60995C12.5207 5.2361 12.7075 5.84565 13.0425 6.37499C10.4596 7.03582 8.16971 8.53642 6.53282 10.6408C4.89593 12.7452 4.00495 15.3339 4 18V20.27C3.69626 20.4454 3.44398 20.6975 3.26846 21.0012C3.09294 21.3048 3.00036 21.6493 3 22V26C3 26.5304 3.21071 27.0391 3.58579 27.4142C3.96086 27.7893 4.46957 28 5 28H27C27.5304 28 28.0391 27.7893 28.4142 27.4142C28.7893 27.0391 29 26.5304 29 26V22C28.9996 21.6493 28.9071 21.3048 28.7315 21.0012C28.556 20.6975 28.3037 20.4454 28 20.27ZM14.5 4.49999C14.5 4.20332 14.588 3.91331 14.7528 3.66664C14.9176 3.41996 15.1519 3.22771 15.426 3.11417C15.7001 3.00064 16.0017 2.97094 16.2926 3.02882C16.5836 3.08669 16.8509 3.22955 17.0607 3.43933C17.2704 3.64911 17.4133 3.91639 17.4712 4.20736C17.5291 4.49833 17.4993 4.79993 17.3858 5.07402C17.2723 5.34811 17.08 5.58238 16.8334 5.7472C16.5867 5.91202 16.2967 5.99999 16 5.99999C15.6022 5.99999 15.2206 5.84196 14.9393 5.56065C14.658 5.27935 14.5 4.89782 14.5 4.49999ZM16 7.99999C18.6513 8.00297 21.1931 9.0575 23.0678 10.9322C24.9425 12.8069 25.997 15.3487 26 18V20H6V18C6.00298 15.3487 7.0575 12.8069 8.93222 10.9322C10.8069 9.0575 13.3487 8.00297 16 7.99999ZM15 22V26H10V22H15ZM17 22H22V26H17V22ZM5 22H8V26H5V22ZM27 26H24V22H27V26Z" fill="#222222"/>
</svg>
