<svg width="32" height="32" viewBox="0 0 32 32" fill="none" xmlns="http://www.w3.org/2000/svg">
<path d="M19.0002 18C19.0002 18.2652 18.8949 18.5196 18.7073 18.7071C18.5198 18.8946 18.2654 19 18.0002 19H14.0002C13.8193 18.9999 13.6417 18.9507 13.4865 18.8576C13.3313 18.7645 13.2043 18.631 13.1189 18.4714C13.0336 18.3118 12.9932 18.1321 13.002 17.9513C13.0108 17.7705 13.0685 17.5955 13.169 17.445L16.1315 13H14.0002C13.735 13 13.4807 12.8946 13.2931 12.7071C13.1056 12.5196 13.0002 12.2652 13.0002 12C13.0002 11.7348 13.1056 11.4804 13.2931 11.2929C13.4807 11.1054 13.735 11 14.0002 11H18.0002C18.1812 11.0001 18.3588 11.0493 18.514 11.1424C18.6692 11.2355 18.7962 11.369 18.8815 11.5286C18.9669 11.6882 19.0073 11.8679 18.9984 12.0487C18.9896 12.2295 18.9319 12.4045 18.8315 12.555L15.8752 17H18.0002C18.2654 17 18.5198 17.1054 18.7073 17.2929C18.8949 17.4804 19.0002 17.7348 19.0002 18ZM27.7302 24C27.5568 24.3055 27.3051 24.5592 27.001 24.7349C26.6969 24.9107 26.3515 25.0022 26.0002 25H20.899C20.6683 26.1289 20.0547 27.1436 19.1621 27.8722C18.2694 28.6009 17.1525 28.9989 16.0002 28.9989C14.848 28.9989 13.731 28.6009 12.8384 27.8722C11.9458 27.1436 11.3322 26.1289 11.1015 25H6.00023C5.64865 24.9995 5.30341 24.9064 4.9993 24.73C4.69519 24.5535 4.44297 24.3 4.26804 23.9951C4.09312 23.6901 4.00168 23.3444 4.00294 22.9928C4.0042 22.6412 4.09812 22.2962 4.27523 21.9925C4.96898 20.7975 6.00023 17.4175 6.00023 13C6.00023 10.3478 7.0538 7.8043 8.92916 5.92893C10.8045 4.05357 13.3481 3 16.0002 3C18.6524 3 21.1959 4.05357 23.0713 5.92893C24.9467 7.8043 26.0002 10.3478 26.0002 13C26.0002 17.4163 27.0327 20.7975 27.7265 21.9925C27.9054 22.2966 28 22.6429 28.0006 22.9957C28.0013 23.3486 27.908 23.6952 27.7302 24ZM18.8277 25H13.1727C13.3799 25.5843 13.763 26.09 14.2693 26.4477C14.7756 26.8053 15.3803 26.9974 16.0002 26.9974C16.6201 26.9974 17.2248 26.8053 17.7311 26.4477C18.2375 26.09 18.6206 25.5843 18.8277 25ZM26.0002 23C25.034 21.3412 24.0002 17.5063 24.0002 13C24.0002 10.8783 23.1574 8.84344 21.6571 7.34315C20.1568 5.84285 18.122 5 16.0002 5C13.8785 5 11.8437 5.84285 10.3434 7.34315C8.84309 8.84344 8.00023 10.8783 8.00023 13C8.00023 17.5075 6.96523 21.3425 6.00023 23H26.0002Z" fill="#222222"/>
</svg>
