<svg width="32" height="32" viewBox="0 0 32 32" fill="none" xmlns="http://www.w3.org/2000/svg">
<path d="M6.73953 4.32738C6.65171 4.22839 6.54512 4.14781 6.42593 4.09032C6.30674 4.03282 6.17732 3.99956 6.04518 3.99245C5.91304 3.98534 5.78081 4.00453 5.65614 4.0489C5.53147 4.09328 5.41685 4.16195 5.31892 4.25095C5.22098 4.33995 5.14169 4.4475 5.08563 4.56737C5.02957 4.68724 4.99786 4.81705 4.99234 4.94926C4.98681 5.08148 5.00758 5.21348 5.05345 5.3376C5.09932 5.46173 5.16936 5.57552 5.25953 5.67238L7.35203 7.97488C6.46335 9.50022 5.99655 11.2345 5.99953 12.9999C5.99953 17.4174 4.96703 20.7974 4.27328 21.9924C4.09612 22.2962 4.0022 22.6413 4.00099 22.993C3.99978 23.3447 4.09133 23.6905 4.2664 23.9955C4.44147 24.3005 4.69388 24.554 4.99816 24.7303C5.30244 24.9066 5.64784 24.9996 5.99953 24.9999H22.8295L25.2595 27.6724C25.3473 27.7714 25.4539 27.8519 25.5731 27.9094C25.6923 27.9669 25.8217 28.0002 25.9539 28.0073C26.086 28.0144 26.2182 27.9952 26.3429 27.9509C26.4676 27.9065 26.5822 27.8378 26.6801 27.7488C26.7781 27.6598 26.8574 27.5523 26.9134 27.4324C26.9695 27.3125 27.0012 27.1827 27.0067 27.0505C27.0122 26.9183 26.9915 26.7863 26.9456 26.6622C26.8997 26.538 26.8297 26.4242 26.7395 26.3274L6.73953 4.32738ZM5.99953 22.9999C6.96203 21.3449 7.99953 17.5099 7.99953 12.9999C7.99778 11.8049 8.26523 10.6248 8.78203 9.54738L21.0108 22.9999H5.99953ZM20.9995 27.9999C20.9995 28.2651 20.8942 28.5195 20.7066 28.707C20.5191 28.8945 20.2647 28.9999 19.9995 28.9999H11.9995C11.7343 28.9999 11.48 28.8945 11.2924 28.707C11.1049 28.5195 10.9995 28.2651 10.9995 27.9999C10.9995 27.7347 11.1049 27.4803 11.2924 27.2928C11.48 27.1052 11.7343 26.9999 11.9995 26.9999H19.9995C20.2647 26.9999 20.5191 27.1052 20.7066 27.2928C20.8942 27.4803 20.9995 27.7347 20.9995 27.9999ZM26.7495 22.4061C26.6327 22.4514 26.5086 22.4747 26.3833 22.4749C26.1824 22.4747 25.9863 22.414 25.8204 22.3007C25.6545 22.1875 25.5266 22.0269 25.4533 21.8399C24.5433 19.5236 23.9995 16.2186 23.9995 12.9999C23.9999 11.6006 23.6333 10.2258 22.9363 9.01249C22.2393 7.79922 21.2363 6.78997 20.0273 6.0855C18.8183 5.38102 17.4458 5.00595 16.0465 4.99773C14.6473 4.9895 13.2704 5.34841 12.0533 6.03863C11.8231 6.16333 11.5533 6.19282 11.3016 6.12077C11.05 6.04872 10.8366 5.88086 10.7073 5.65325C10.5781 5.42564 10.5432 5.15641 10.6102 4.90337C10.6772 4.65034 10.8408 4.43367 11.0658 4.29988C12.5871 3.43694 14.3082 2.98812 16.0572 2.99821C17.8063 3.00831 19.522 3.47696 21.0333 4.3574C22.5446 5.23784 23.7986 6.49927 24.67 8.01577C25.5414 9.53228 25.9998 11.2508 25.9995 12.9999C25.9995 17.4186 27.0058 20.3236 27.3145 21.1099C27.4115 21.3567 27.4064 21.6319 27.3004 21.875C27.1945 22.1181 26.9963 22.3091 26.7495 22.4061Z" fill="#222222"/>
</svg>
