<svg width="32" height="32" viewBox="0 0 32 32" fill="none" xmlns="http://www.w3.org/2000/svg">
<path d="M20.9997 27.9998C20.9997 28.265 20.8943 28.5194 20.7068 28.7069C20.5193 28.8945 20.2649 28.9998 19.9997 28.9998H11.9997C11.7345 28.9998 11.4801 28.8945 11.2926 28.7069C11.1051 28.5194 10.9997 28.265 10.9997 27.9998C10.9997 27.7346 11.1051 27.4803 11.2926 27.2927C11.4801 27.1052 11.7345 26.9998 11.9997 26.9998H19.9997C20.2649 26.9998 20.5193 27.1052 20.7068 27.2927C20.8943 27.4803 20.9997 27.7346 20.9997 27.9998ZM28.4234 7.53982C27.2995 5.34314 25.6119 3.48469 23.5334 2.15482C23.4224 2.08388 23.2984 2.03559 23.1686 2.01273C23.0389 1.98986 22.9058 1.99287 22.7772 2.02159C22.6486 2.0503 22.527 2.10415 22.4192 2.18004C22.3115 2.25593 22.2198 2.35236 22.1495 2.4638C22.0791 2.57524 22.0315 2.69948 22.0094 2.82938C21.9872 2.95928 21.9909 3.09228 22.0203 3.22073C22.0498 3.34918 22.1043 3.47056 22.1807 3.57788C22.2572 3.68519 22.3541 3.77634 22.4659 3.84607C24.2492 4.98045 25.6939 6.57419 26.6484 8.45982C26.7746 8.68774 26.9847 8.85745 27.234 8.93283C27.4834 9.00821 27.7523 8.98331 27.9836 8.86344C28.2148 8.74357 28.3902 8.53818 28.4724 8.29098C28.5545 8.04378 28.537 7.77428 28.4234 7.53982ZM4.46345 8.99982C4.64665 8.99975 4.82631 8.94934 4.98282 8.85411C5.13933 8.75889 5.26667 8.62249 5.35095 8.45982C6.30545 6.57419 7.75022 4.98045 9.53345 3.84607C9.64526 3.77634 9.74219 3.68519 9.81867 3.57788C9.89514 3.47056 9.94965 3.34918 9.97906 3.22073C10.0085 3.09228 10.0122 2.95928 9.99003 2.82938C9.96787 2.69948 9.92025 2.57524 9.84991 2.4638C9.77958 2.35236 9.68791 2.25593 9.58018 2.18004C9.47245 2.10415 9.35078 2.0503 9.22217 2.02159C9.09356 1.99287 8.96054 1.98986 8.83076 2.01273C8.70098 2.03559 8.577 2.08388 8.46595 2.15482C6.38748 3.48469 4.69986 5.34314 3.57595 7.53982C3.497 7.69222 3.4586 7.86238 3.46445 8.03391C3.4703 8.20545 3.5202 8.37259 3.60936 8.51926C3.69851 8.66592 3.82392 8.78717 3.9735 8.87134C4.12308 8.9555 4.29181 8.99975 4.46345 8.99982ZM27.7259 21.9923C27.9031 22.2961 27.997 22.6413 27.9982 22.993C27.9994 23.3446 27.9079 23.6904 27.7328 23.9954C27.5578 24.3004 27.3053 24.5539 27.0011 24.7302C26.6968 24.9066 26.3514 24.9996 25.9997 24.9998H5.9997C5.64822 24.9991 5.30314 24.9058 4.99921 24.7293C4.69527 24.5528 4.44322 24.2993 4.26845 23.9944C4.09367 23.6894 4.00234 23.3438 4.00366 22.9923C4.00498 22.6409 4.09889 22.2959 4.27595 21.9923C5.4022 20.0486 5.9997 17.2848 5.9997 13.9998C5.9997 11.3477 7.05327 8.80412 8.92863 6.92875C10.804 5.05339 13.3475 3.99982 15.9997 3.99982C18.6519 3.99982 21.1954 5.05339 23.0708 6.92875C24.9461 8.80412 25.9997 11.3477 25.9997 13.9998C25.9997 17.2836 26.5972 20.0473 27.7259 21.9923ZM25.9997 22.9998C24.6697 20.7161 23.9997 17.6886 23.9997 13.9998C23.9997 11.8781 23.1568 9.84326 21.6566 8.34297C20.1563 6.84268 18.1214 5.99982 15.9997 5.99982C13.878 5.99982 11.8431 6.84268 10.3428 8.34297C8.84255 9.84326 7.9997 11.8781 7.9997 13.9998C7.9997 17.6898 7.3272 20.7173 5.9997 22.9998H25.9997Z" fill="#222222"/>
</svg>
