<svg width="32" height="32" viewBox="0 0 32 32" fill="none" xmlns="http://www.w3.org/2000/svg">
<path d="M27.9997 8.88753C27.7643 9.00943 27.4901 9.03287 27.2375 8.95271C26.9848 8.87255 26.7743 8.69534 26.6522 8.46003C25.6977 6.57439 24.2529 4.98065 22.4697 3.84628C22.3586 3.77619 22.2623 3.68489 22.1865 3.57761C22.1106 3.47032 22.0567 3.34915 22.0276 3.221C21.9986 3.09286 21.9951 2.96025 22.0174 2.83075C22.0396 2.70126 22.0871 2.57741 22.1572 2.46628C22.2273 2.35515 22.3186 2.25891 22.4259 2.18306C22.5332 2.10721 22.6543 2.05324 22.7825 2.02422C22.9106 1.9952 23.0432 1.99171 23.1727 2.01394C23.3022 2.03617 23.4261 2.08369 23.5372 2.15378C25.6154 3.48445 27.303 5.34323 28.4272 7.54003C28.5491 7.77543 28.5725 8.04959 28.4924 8.30227C28.4122 8.55495 28.235 8.76546 27.9997 8.88753ZM4.46345 9.00003C4.64665 8.99995 4.82631 8.94955 4.98282 8.85432C5.13933 8.75909 5.26667 8.6227 5.35095 8.46003C6.30545 6.57439 7.75022 4.98065 9.53345 3.84628C9.75789 3.70472 9.9169 3.4798 9.97551 3.221C10.0341 2.9622 9.98751 2.69072 9.84595 2.46628C9.70439 2.24184 9.47947 2.08283 9.22067 2.02422C8.96187 1.96562 8.69039 2.01222 8.46595 2.15378C6.3877 3.48445 4.70017 5.34323 3.57595 7.54003C3.497 7.69243 3.4586 7.86258 3.46445 8.03412C3.4703 8.20566 3.5202 8.3728 3.60936 8.51946C3.69851 8.66613 3.82392 8.78738 3.9735 8.87154C4.12308 8.95571 4.29181 8.99996 4.46345 9.00003ZM27.7259 21.9925C27.9031 22.2963 27.997 22.6415 27.9982 22.9932C27.9994 23.3448 27.9079 23.6906 27.7328 23.9956C27.5578 24.3007 27.3053 24.5541 27.0011 24.7304C26.6968 24.9068 26.3514 24.9998 25.9997 25H20.8997C20.6702 26.1303 20.057 27.1465 19.164 27.8764C18.2709 28.6063 17.1531 29.005 15.9997 29.005C14.8463 29.005 13.7285 28.6063 12.8354 27.8764C11.9424 27.1465 11.3292 26.1303 11.0997 25H5.9997C5.64822 24.9993 5.30314 24.906 4.99921 24.7295C4.69527 24.553 4.44322 24.2995 4.26845 23.9946C4.09367 23.6896 4.00234 23.344 4.00366 22.9925C4.00498 22.6411 4.09889 22.2962 4.27595 21.9925C5.4022 20.0488 5.9997 17.285 5.9997 14C5.9997 11.3479 7.05327 8.80433 8.92863 6.92896C10.804 5.0536 13.3475 4.00003 15.9997 4.00003C18.6519 4.00003 21.1954 5.0536 23.0708 6.92896C24.9461 8.80433 25.9997 11.3479 25.9997 14C25.9997 17.2838 26.5972 20.0475 27.7259 21.9925ZM18.8272 25H13.1722C13.3794 25.5843 13.7625 26.09 14.2688 26.4477C14.7751 26.8054 15.3798 26.9974 15.9997 26.9974C16.6196 26.9974 17.2243 26.8054 17.7306 26.4477C18.2369 26.09 18.62 25.5843 18.8272 25ZM25.9997 23C24.6697 20.7163 23.9997 17.6888 23.9997 14C23.9997 11.8783 23.1568 9.84347 21.6566 8.34317C20.1563 6.84288 18.1214 6.00003 15.9997 6.00003C13.878 6.00003 11.8431 6.84288 10.3428 8.34317C8.84255 9.84347 7.9997 11.8783 7.9997 14C7.9997 17.69 7.3272 20.7175 5.9997 23H25.9997Z" fill="#222222"/>
</svg>
