<svg width="32" height="32" viewBox="0 0 32 32" fill="none" xmlns="http://www.w3.org/2000/svg">
<path d="M27.6333 18.0513C26.8908 15.1634 25.1069 12.652 22.6246 11H29.9996C30.2648 11 30.5191 10.8947 30.7067 10.7071C30.8942 10.5196 30.9996 10.2652 30.9996 10C30.9996 9.73481 30.8942 9.48046 30.7067 9.29292C30.5191 9.10539 30.2648 9.00003 29.9996 9.00003H19.8746C19.6543 8.13962 19.1539 7.37699 18.4523 6.83239C17.7507 6.28779 16.8877 5.99219 15.9996 5.99219C15.1114 5.99219 14.2485 6.28779 13.5469 6.83239C12.8453 7.37699 12.3449 8.13962 12.1246 9.00003H1.99958C1.73436 9.00003 1.48 9.10539 1.29247 9.29292C1.10493 9.48046 0.999575 9.73481 0.999575 10C0.999575 10.2652 1.10493 10.5196 1.29247 10.7071C1.48 10.8947 1.73436 11 1.99958 11H9.37458C6.89227 12.652 5.10835 15.1634 4.36583 18.0513C3.40567 18.2045 2.53418 18.7022 1.91433 19.4513C1.29447 20.2004 0.968691 21.1496 0.997901 22.1215C1.02711 23.0933 1.40931 24.0213 2.07303 24.7318C2.73675 25.4424 3.63655 25.8868 4.60418 25.9821C5.57181 26.0773 6.54101 25.8169 7.33055 25.2494C8.12009 24.682 8.67592 23.8464 8.89409 22.8989C9.11227 21.9514 8.97786 20.9568 8.51599 20.1012C8.05412 19.2456 7.29642 18.5875 6.38458 18.25C6.81392 16.7697 7.5772 15.4076 8.61567 14.2686C9.65413 13.1295 10.9401 12.244 12.3746 11.68C12.6955 12.3721 13.2077 12.9579 13.8506 13.3684C14.4936 13.779 15.2405 13.9971 16.0033 13.9971C16.7662 13.9971 17.5131 13.779 18.156 13.3684C18.799 12.9579 19.3111 12.3721 19.6321 11.68C21.0652 12.2449 22.3496 13.1309 23.3867 14.2699C24.4239 15.4088 25.186 16.7704 25.6146 18.25C24.7023 18.5864 23.9438 19.2435 23.4808 20.0986C23.0179 20.9536 22.8822 21.948 23.0992 22.8958C23.3162 23.8436 23.871 24.6799 24.6599 25.2483C25.4487 25.8167 26.4176 26.0784 27.3854 25.9843C28.3531 25.8902 29.2535 25.4469 29.9181 24.7371C30.5827 24.0274 30.966 23.0999 30.9964 22.1281C31.0268 21.1562 30.7021 20.2066 30.0832 19.4567C29.4642 18.7069 28.5933 18.2081 27.6333 18.0538V18.0513ZM6.99958 22C6.99958 22.3956 6.88228 22.7823 6.66251 23.1112C6.44275 23.4401 6.13039 23.6964 5.76494 23.8478C5.39949 23.9992 4.99736 24.0388 4.60939 23.9616C4.22143 23.8844 3.86507 23.6939 3.58536 23.4142C3.30566 23.1345 3.11518 22.7782 3.038 22.3902C2.96083 22.0022 3.00044 21.6001 3.15182 21.2347C3.30319 20.8692 3.55954 20.5569 3.88843 20.3371C4.21733 20.1173 4.60401 20 4.99958 20C5.53001 20 6.03872 20.2107 6.41379 20.5858C6.78886 20.9609 6.99958 21.4696 6.99958 22ZM15.9996 12C15.604 12 15.2173 11.8827 14.8884 11.663C14.5595 11.4432 14.3032 11.1308 14.1518 10.7654C14.0004 10.3999 13.9608 9.99781 14.038 9.60985C14.1152 9.22189 14.3057 8.86552 14.5854 8.58582C14.8651 8.30611 15.2214 8.11563 15.6094 8.03846C15.9974 7.96129 16.3995 8.0009 16.7649 8.15227C17.1304 8.30365 17.4428 8.55999 17.6625 8.88889C17.8823 9.21779 17.9996 9.60447 17.9996 10C17.9996 10.5305 17.7889 11.0392 17.4138 11.4142C17.0387 11.7893 16.53 12 15.9996 12ZM26.9996 24C26.604 24 26.2173 23.8827 25.8884 23.663C25.5595 23.4432 25.3032 23.1308 25.1518 22.7654C25.0004 22.3999 24.9608 21.9978 25.038 21.6098C25.1152 21.2219 25.3057 20.8655 25.5854 20.5858C25.8651 20.3061 26.2214 20.1156 26.6094 20.0385C26.9974 19.9613 27.3995 20.0009 27.7649 20.1523C28.1304 20.3036 28.4428 20.56 28.6625 20.8889C28.8823 21.2178 28.9996 21.6045 28.9996 22C28.9996 22.5305 28.7889 23.0392 28.4138 23.4142C28.0387 23.7893 27.53 24 26.9996 24Z" fill="#222222"/>
</svg>
