<svg width="32" height="32" viewBox="0 0 32 32" fill="none" xmlns="http://www.w3.org/2000/svg">
<path d="M27.7397 26.3275L7.73975 4.3275C7.56045 4.1349 7.31247 4.02073 7.04956 4.00975C6.78665 3.99876 6.53 4.09185 6.33527 4.26882C6.14053 4.44579 6.02339 4.69239 6.00926 4.95515C5.99512 5.21791 6.08512 5.47566 6.25975 5.6725L15.1147 15.4137L7.39975 21.2C7.29469 21.2788 7.20618 21.3775 7.13928 21.4905C7.07237 21.6035 7.02837 21.7286 7.0098 21.8586C6.97229 22.1211 7.04062 22.3878 7.19975 22.6C7.35888 22.8122 7.59578 22.9524 7.85833 22.99C8.12088 23.0275 8.38758 22.9591 8.59975 22.8L14.9998 18V28C14.9998 28.1857 15.0515 28.3678 15.1491 28.5257C15.2467 28.6837 15.3864 28.8114 15.5525 28.8944C15.7186 28.9775 15.9046 29.0126 16.0896 28.996C16.2745 28.9793 16.4512 28.9114 16.5998 28.8L22.9535 24.035L26.2598 27.6725C26.3476 27.7715 26.4542 27.8521 26.5734 27.9096C26.6925 27.9671 26.822 28.0003 26.9541 28.0074C27.0862 28.0145 27.2185 27.9953 27.3431 27.951C27.4678 27.9066 27.5824 27.8379 27.6804 27.7489C27.7783 27.6599 27.8576 27.5524 27.9136 27.4325C27.9697 27.3126 28.0014 27.1828 28.0069 27.0506C28.0125 26.9184 27.9917 26.7864 27.9458 26.6623C27.9 26.5381 27.8299 26.4244 27.7397 26.3275ZM16.9998 26V18L18.466 19.1L21.601 22.5487L16.9998 26ZM14.9998 8.95375V4C14.9998 3.81429 15.0515 3.63225 15.1491 3.47427C15.2467 3.31629 15.3864 3.18863 15.5525 3.10557C15.7186 3.02252 15.9046 2.98736 16.0896 3.00404C16.2745 3.02072 16.4512 3.08857 16.5998 3.2L24.5998 9.2C24.7239 9.29315 24.8247 9.41393 24.8942 9.55279C24.9636 9.69164 24.9998 9.84476 24.9998 10C24.9998 10.1552 24.9636 10.3084 24.8942 10.4472C24.8247 10.5861 24.7239 10.7069 24.5998 10.8L20.4085 13.9438C20.1963 14.1029 19.9296 14.1712 19.6671 14.1337C19.4045 14.0962 19.1676 13.9559 19.0085 13.7437C18.8494 13.5316 18.781 13.2649 18.8186 13.0023C18.8561 12.7398 18.9963 12.5029 19.2085 12.3438L22.3335 10L16.9998 6V8.95375C16.9998 9.21897 16.8944 9.47332 16.7069 9.66086C16.5193 9.84839 16.265 9.95375 15.9998 9.95375C15.7345 9.95375 15.4802 9.84839 15.2926 9.66086C15.1051 9.47332 14.9998 9.21897 14.9998 8.95375Z" fill="#222222"/>
</svg>
