<svg width="32" height="32" viewBox="0 0 32 32" fill="none" xmlns="http://www.w3.org/2000/svg">
<path d="M28.9592 7.61122C28.2126 6.71215 27.144 6.14063 25.9817 6.01872C25.9079 5.34723 25.6839 4.70097 25.3263 4.12787C24.9686 3.55478 24.4865 3.06956 23.9158 2.7082C23.345 2.34684 22.7002 2.11862 22.0292 2.04047C21.3582 1.96232 20.6783 2.03624 20.0397 2.25674C19.4012 2.47725 18.8205 2.83869 18.3407 3.31425C17.861 3.7898 17.4944 4.36728 17.2683 5.00383C17.0421 5.64039 16.9622 6.31969 17.0344 6.99135C17.1066 7.66301 17.3292 8.30979 17.6855 8.88372C17.686 8.88703 17.686 8.89041 17.6855 8.89372L8.89671 17.6887C8.89671 17.6887 8.89671 17.6887 8.88421 17.6887C8.31028 17.3324 7.6635 17.1099 6.99184 17.0377C6.32018 16.9655 5.64088 17.0454 5.00432 17.2715C4.36777 17.4977 3.79029 17.8642 3.31473 18.344C2.83918 18.8238 2.47774 19.4045 2.25723 20.043C2.03673 20.6815 1.96281 21.3615 2.04096 22.0325C2.11911 22.7035 2.34733 23.3483 2.70869 23.919C3.07005 24.4898 3.55527 24.9719 4.12836 25.3295C4.70146 25.6872 5.34772 25.9112 6.01921 25.985C6.09299 26.6565 6.31702 27.3027 6.67465 27.8758C7.03229 28.4489 7.51437 28.9341 8.08513 29.2955C8.65588 29.6568 9.30067 29.8851 9.97167 29.9632C10.6427 30.0414 11.3226 29.9674 11.9612 29.7469C12.5997 29.5264 13.1804 29.165 13.6602 28.6894C14.1399 28.2139 14.5065 27.6364 14.7326 26.9999C14.9588 26.3633 15.0387 25.684 14.9665 25.0123C14.8943 24.3407 14.6718 23.6939 14.3155 23.12C14.3152 23.1166 14.3152 23.1133 14.3155 23.11L23.1092 14.315C23.1092 14.315 23.1092 14.315 23.1217 14.315C24.0298 14.887 25.1125 15.1155 26.1743 14.9595C27.2362 14.8034 28.2073 14.273 28.9124 13.4639C29.6176 12.6548 30.0103 11.6203 30.0198 10.5471C30.0293 9.47392 29.6549 8.43266 28.9642 7.61122H28.9592ZM27.388 12.145C26.9969 12.5927 26.4591 12.8865 25.8711 12.9735C25.283 13.0606 24.6832 12.9352 24.1792 12.62C23.7955 12.3765 23.3403 12.271 22.8887 12.3207C22.437 12.3705 22.0157 12.5726 21.6942 12.8937L12.8942 21.6937C12.5738 22.0158 12.3727 22.4374 12.3238 22.8891C12.275 23.3407 12.3814 23.7956 12.6255 24.1787C12.8383 24.5211 12.9652 24.9098 12.9953 25.3118C13.0254 25.7139 12.9579 26.1172 12.7984 26.4874C12.639 26.8577 12.3924 27.1839 12.0796 27.4382C11.7668 27.6926 11.3972 27.8675 11.0022 27.9481C10.6072 28.0287 10.1986 28.0126 9.81115 27.9012C9.42373 27.7897 9.06901 27.5863 8.77723 27.3081C8.48545 27.0299 8.26526 26.6853 8.13545 26.3037C8.00563 25.922 7.97004 25.5146 8.03171 25.1162C8.0541 24.9735 8.0453 24.8276 8.00589 24.6885C7.96649 24.5495 7.89742 24.4207 7.80345 24.3109C7.70948 24.2011 7.59284 24.113 7.46155 24.0527C7.33027 23.9923 7.18746 23.9611 7.04296 23.9612C6.99147 23.9617 6.94008 23.9658 6.88921 23.9737C6.49123 24.0349 6.08436 23.9991 5.70321 23.8692C5.32205 23.7394 4.9779 23.5195 4.70002 23.2281C4.42214 22.9367 4.21876 22.5824 4.10717 22.1956C3.99559 21.8087 3.97911 21.4006 4.05913 21.0059C4.13914 20.6113 4.3133 20.2419 4.56677 19.929C4.82024 19.6161 5.14554 19.3691 5.51498 19.209C5.88442 19.0488 6.28707 18.9803 6.68869 19.0092C7.0903 19.0381 7.479 19.1636 7.82171 19.375C8.2054 19.6184 8.66056 19.724 9.11225 19.6742C9.56393 19.6245 9.98521 19.4224 10.3067 19.1012L19.1067 10.3012C19.4259 9.97945 19.6263 9.55882 19.6751 9.10825C19.7239 8.65768 19.6183 8.20389 19.3755 7.82122C19.1626 7.47885 19.0357 7.09009 19.0056 6.68809C18.9755 6.28608 19.043 5.88276 19.2025 5.5125C19.3619 5.14224 19.6086 4.81603 19.9213 4.56169C20.2341 4.30735 20.6037 4.13241 20.9987 4.0518C21.3937 3.97119 21.8023 3.9873 22.1898 4.09874C22.5772 4.21019 22.9319 4.41368 23.2237 4.69185C23.5155 4.97002 23.7356 5.31462 23.8655 5.69628C23.9953 6.07794 24.0309 6.48533 23.9692 6.88372C23.9449 7.03931 23.9576 7.19844 24.0064 7.34817C24.0553 7.4979 24.1387 7.63398 24.2501 7.74533C24.3614 7.85669 24.4975 7.94017 24.6473 7.98898C24.797 8.03779 24.9561 8.05055 25.1117 8.02622C25.6208 7.94384 26.1429 8.02091 26.6064 8.24685C27.07 8.47279 27.4523 8.83656 27.701 9.2883C27.9498 9.74004 28.0527 10.2576 27.9958 10.7702C27.9388 11.2827 27.7248 11.7651 27.383 12.1512L27.388 12.145Z" fill="#222222"/>
</svg>
