<svg width="32" height="32" viewBox="0 0 32 32" fill="none" xmlns="http://www.w3.org/2000/svg">
<path d="M29.4375 27.1012C26.6175 25.7262 25 22.7787 25 19.0012V16.8412C25.0011 16.4405 24.8813 16.0488 24.6563 15.7172C24.4313 15.3856 24.1115 15.1296 23.7388 14.9825L20.625 13.75C20.3801 13.652 20.1837 13.4612 20.0788 13.2191C19.9739 12.977 19.969 12.7032 20.065 12.4575L22.73 5.83249C22.9109 5.39767 23.0021 4.93081 22.9983 4.45989C22.9945 3.98896 22.8957 3.52365 22.7078 3.09182C22.5199 2.65999 22.2467 2.27052 21.9048 1.94674C21.5628 1.62296 21.159 1.37152 20.7175 1.20749C19.8577 0.892446 18.9089 0.925133 18.0728 1.2986C17.2367 1.67207 16.5792 2.35688 16.24 3.20749C16.2395 3.21248 16.2395 3.2175 16.24 3.22249L13.6125 9.87499C13.5148 10.1211 13.3235 10.3184 13.0804 10.4236C12.8374 10.5288 12.5626 10.5334 12.3163 10.4362L9.13878 9.14249C8.77242 8.99404 8.3701 8.95827 7.98331 9.03977C7.59651 9.12128 7.24283 9.31633 6.96753 9.59999C4.33503 12.3062 3.00003 15.4687 3.00003 19C2.99311 22.6136 4.39061 26.0886 6.89753 28.6912C6.99145 28.7894 7.1044 28.8674 7.22948 28.9205C7.35456 28.9736 7.48915 29.0007 7.62503 29H29C29.226 28.9998 29.4453 28.923 29.6221 28.7822C29.7989 28.6413 29.9228 28.4448 29.9735 28.2245C30.0243 28.0043 29.9989 27.7733 29.9016 27.5693C29.8042 27.3653 29.6407 27.2003 29.4375 27.1012ZM8.39253 11L11.5688 12.2875C11.9354 12.4342 12.3274 12.507 12.7223 12.5019C13.1171 12.4967 13.5071 12.4136 13.8698 12.2575C14.2324 12.1013 14.5607 11.875 14.8358 11.5916C15.1108 11.3083 15.3272 10.9734 15.4725 10.6062L18.0975 3.98124C18.4175 3.21749 19.2813 2.82249 20.0263 3.10624C20.2162 3.17671 20.3899 3.28493 20.5369 3.42436C20.6838 3.56379 20.801 3.73155 20.8814 3.91751C20.9618 4.10348 21.0036 4.30379 21.0045 4.50638C21.0053 4.70896 20.9651 4.90962 20.8863 5.09624L18.2113 11.72C17.9184 12.4588 17.9307 13.2837 18.2454 14.0135C18.5602 14.7433 19.1517 15.3184 19.89 15.6125L23 16.8412V19C23 19.0412 23 19.0825 23 19.125L6.97128 12.7137C7.39741 12.1046 7.87275 11.5315 8.39253 11ZM14.3925 27C12.9037 25.5718 11.8489 23.7518 11.35 21.75C11.2805 21.4968 11.1142 21.2811 10.887 21.1495C10.6598 21.0179 10.3899 20.9809 10.1357 21.0466C9.88147 21.1122 9.66326 21.2752 9.52819 21.5004C9.39312 21.7255 9.35202 21.9948 9.41378 22.25C9.84994 23.9721 10.6307 25.588 11.7088 27H8.05503C6.08276 24.8027 4.99439 21.9526 5.00003 19C4.98779 17.4356 5.31757 15.8874 5.96628 14.4637L23.1913 21.3537C23.5663 23.6037 24.5113 25.5387 25.9275 26.9987L14.3925 27Z" fill="#222222"/>
</svg>
