<svg width="32" height="32" viewBox="0 0 32 32" fill="none" xmlns="http://www.w3.org/2000/svg">
<path d="M30.9834 3.82381C30.9365 3.56297 30.788 3.33142 30.5705 3.18001C30.353 3.0286 30.0843 2.96972 29.8234 3.01631L1.82342 8.01631C1.57813 8.06107 1.35842 8.19584 1.20736 8.3942C1.0563 8.59257 0.98479 8.84021 1.00686 9.08856C1.02892 9.33692 1.14297 9.56807 1.32664 9.73669C1.5103 9.90531 1.75034 9.99924 1.99967 10.0001C2.05915 9.99998 2.11852 9.99496 2.17717 9.98506L14.9997 7.69381V12.0001H7.99967C6.9388 12.0001 5.92139 12.4215 5.17124 13.1716C4.42109 13.9218 3.99967 14.9392 3.99967 16.0001V24.0001C3.99967 25.0609 4.42109 26.0783 5.17124 26.8285C5.92139 27.5786 6.9388 28.0001 7.99967 28.0001H23.9997C25.0605 28.0001 26.0779 27.5786 26.8281 26.8285C27.5782 26.0783 27.9997 25.0609 27.9997 24.0001V16.0001C27.9997 14.9392 27.5782 13.9218 26.8281 13.1716C26.0779 12.4215 25.0605 12.0001 23.9997 12.0001H16.9997V7.33756L30.1747 4.98506C30.3041 4.96199 30.4276 4.91364 30.5383 4.84278C30.649 4.77192 30.7447 4.67993 30.8198 4.57208C30.8949 4.46423 30.948 4.34263 30.9761 4.21423C31.0042 4.08584 31.0067 3.95317 30.9834 3.82381ZM12.9997 20.0001V14.0001H18.9997V20.0001H12.9997ZM7.99967 14.0001H10.9997V20.0001H5.99967V16.0001C5.99967 15.4696 6.21038 14.9609 6.58545 14.5858C6.96053 14.2108 7.46923 14.0001 7.99967 14.0001ZM23.9997 26.0001H7.99967C7.46923 26.0001 6.96053 25.7893 6.58545 25.4143C6.21038 25.0392 5.99967 24.5305 5.99967 24.0001V22.0001H25.9997V24.0001C25.9997 24.5305 25.789 25.0392 25.4139 25.4143C25.0388 25.7893 24.5301 26.0001 23.9997 26.0001ZM25.9997 16.0001V20.0001H20.9997V14.0001H23.9997C24.5301 14.0001 25.0388 14.2108 25.4139 14.5858C25.789 14.9609 25.9997 15.4696 25.9997 16.0001Z" fill="#222222"/>
</svg>
