<svg width="32" height="32" viewBox="0 0 32 32" fill="none" xmlns="http://www.w3.org/2000/svg">
<path d="M22.7071 16.7075L12.7071 26.7075C12.6142 26.8004 12.5039 26.8741 12.3825 26.9244C12.2611 26.9747 12.131 27.0006 11.9996 27.0006C11.8682 27.0006 11.7381 26.9747 11.6167 26.9244C11.4953 26.8741 11.385 26.8004 11.2921 26.7075C11.1992 26.6146 11.1255 26.5043 11.0752 26.3829C11.0249 26.2615 10.999 26.1314 10.999 26C10.999 25.8686 11.0249 25.7385 11.0752 25.6171C11.1255 25.4957 11.1992 25.3854 11.2921 25.2925L20.5858 16L11.2921 6.70751C11.1044 6.51987 10.999 6.26537 10.999 6.00001C10.999 5.73464 11.1044 5.48015 11.2921 5.29251C11.4797 5.10487 11.7342 4.99945 11.9996 4.99945C12.2649 4.99945 12.5194 5.10487 12.7071 5.29251L22.7071 15.2925C22.8001 15.3854 22.8738 15.4957 22.9241 15.6171C22.9745 15.7385 23.0004 15.8686 23.0004 16C23.0004 16.1314 22.9745 16.2615 22.9241 16.3829C22.8738 16.5043 22.8001 16.6146 22.7071 16.7075Z" fill="#222222"/>
</svg>
