<svg width="32" height="32" viewBox="0 0 32 32" fill="none" xmlns="http://www.w3.org/2000/svg">
<path d="M18.7071 15.2925C18.8001 15.3854 18.8738 15.4957 18.9241 15.6171C18.9745 15.7385 19.0004 15.8686 19.0004 16C19.0004 16.1314 18.9745 16.2615 18.9241 16.3829C18.8738 16.5043 18.8001 16.6146 18.7071 16.7075L8.70708 26.7075C8.51944 26.8951 8.26494 27.0006 7.99958 27.0006C7.73422 27.0006 7.47972 26.8951 7.29208 26.7075C7.10444 26.5199 6.99902 26.2654 6.99902 26C6.99902 25.7346 7.10444 25.4801 7.29208 25.2925L16.5858 16L7.29208 6.70751C7.10444 6.51987 6.99902 6.26537 6.99902 6.00001C6.99902 5.73464 7.10444 5.48015 7.29208 5.29251C7.47972 5.10487 7.73422 4.99945 7.99958 4.99945C8.26494 4.99945 8.51944 5.10487 8.70708 5.29251L18.7071 15.2925ZM22.9996 5.00001C22.7344 5.00001 22.48 5.10536 22.2925 5.2929C22.1049 5.48044 21.9996 5.73479 21.9996 6.00001V26C21.9996 26.2652 22.1049 26.5196 22.2925 26.7071C22.48 26.8947 22.7344 27 22.9996 27C23.2648 27 23.5192 26.8947 23.7067 26.7071C23.8942 26.5196 23.9996 26.2652 23.9996 26V6.00001C23.9996 5.73479 23.8942 5.48044 23.7067 5.2929C23.5192 5.10536 23.2648 5.00001 22.9996 5.00001Z" fill="#222222"/>
</svg>
