<svg width="32" height="32" viewBox="0 0 32 32" fill="none" xmlns="http://www.w3.org/2000/svg">
<path d="M26.7071 16.2925C26.8001 16.3854 26.8738 16.4957 26.9241 16.6171C26.9745 16.7385 27.0004 16.8686 27.0004 17C27.0004 17.1314 26.9745 17.2615 26.9241 17.3829C26.8738 17.5043 26.8001 17.6146 26.7071 17.7075L16.7071 27.7075C16.6142 27.8005 16.5039 27.8742 16.3825 27.9246C16.2611 27.9749 16.131 28.0008 15.9996 28.0008C15.8682 28.0008 15.738 27.9749 15.6166 27.9246C15.4952 27.8742 15.385 27.8005 15.2921 27.7075L5.29208 17.7075C5.10444 17.5199 4.99902 17.2654 4.99902 17C4.99902 16.7346 5.10444 16.4801 5.29208 16.2925C5.47972 16.1049 5.73422 15.9995 5.99958 15.9995C6.26494 15.9995 6.51944 16.1049 6.70708 16.2925L15.9996 25.5863L25.2921 16.2925C25.385 16.1995 25.4952 16.1258 25.6166 16.0754C25.738 16.0251 25.8682 15.9992 25.9996 15.9992C26.131 15.9992 26.2611 16.0251 26.3825 16.0754C26.5039 16.1258 26.6142 16.1995 26.7071 16.2925ZM15.2921 17.7075C15.385 17.8005 15.4952 17.8742 15.6166 17.9246C15.738 17.9749 15.8682 18.0008 15.9996 18.0008C16.131 18.0008 16.2611 17.9749 16.3825 17.9246C16.5039 17.8742 16.6142 17.8005 16.7071 17.7075L26.7071 7.70751C26.8947 7.51987 27.0001 7.26537 27.0001 7.00001C27.0001 6.73464 26.8947 6.48015 26.7071 6.29251C26.5194 6.10487 26.2649 5.99945 25.9996 5.99945C25.7342 5.99945 25.4797 6.10487 25.2921 6.29251L15.9996 15.5863L6.70708 6.29251C6.51944 6.10487 6.26494 5.99945 5.99958 5.99945C5.73422 5.99945 5.47972 6.10487 5.29208 6.29251C5.10444 6.48015 4.99902 6.73464 4.99902 7.00001C4.99902 7.26537 5.10444 7.51987 5.29208 7.70751L15.2921 17.7075Z" fill="#222222"/>
</svg>
