<svg width="32" height="32" viewBox="0 0 32 32" fill="none" xmlns="http://www.w3.org/2000/svg">
<path d="M5.29208 9.70751C5.10444 9.51987 4.99902 9.26537 4.99902 9.00001C4.99902 8.73464 5.10444 8.48015 5.29208 8.29251C5.47972 8.10487 5.73422 7.99945 5.99958 7.99945C6.26494 7.99945 6.51944 8.10487 6.70708 8.29251L15.9996 17.5863L25.2921 8.29251C25.4797 8.10487 25.7342 7.99945 25.9996 7.99945C26.2649 7.99945 26.5194 8.10487 26.7071 8.29251C26.8947 8.48015 27.0001 8.73464 27.0001 9.00001C27.0001 9.26537 26.8947 9.51987 26.7071 9.70751L16.7071 19.7075C16.6142 19.8005 16.5039 19.8742 16.3825 19.9246C16.2611 19.9749 16.131 20.0008 15.9996 20.0008C15.8682 20.0008 15.738 19.9749 15.6166 19.9246C15.4952 19.8742 15.385 19.8005 15.2921 19.7075L5.29208 9.70751ZM25.9996 23H5.99958C5.73436 23 5.48001 23.1054 5.29247 23.2929C5.10494 23.4804 4.99958 23.7348 4.99958 24C4.99958 24.2652 5.10494 24.5196 5.29247 24.7071C5.48001 24.8947 5.73436 25 5.99958 25H25.9996C26.2648 25 26.5192 24.8947 26.7067 24.7071C26.8942 24.5196 26.9996 24.2652 26.9996 24C26.9996 23.7348 26.8942 23.4804 26.7067 23.2929C26.5192 23.1054 26.2648 23 25.9996 23Z" fill="#222222"/>
</svg>
