<svg width="32" height="32" viewBox="0 0 32 32" fill="none" xmlns="http://www.w3.org/2000/svg">
<path d="M25.1927 6.80747C22.7547 4.36947 19.448 2.99982 16.0002 2.99982C12.5523 2.99982 9.24566 4.36947 6.80766 6.80748C4.36966 9.24548 3 12.5521 3 16C3 19.4478 4.36966 22.7545 6.80766 25.1925C9.24566 27.6305 12.5523 29.0001 16.0002 29.0001C19.448 29.0001 22.7547 27.6305 25.1927 25.1925C27.6307 22.7545 29.0003 19.4478 29.0003 16C29.0003 12.5521 27.6307 9.24548 25.1927 6.80747ZM23.7789 23.7787C22.2405 25.3169 20.2805 26.3644 18.1467 26.7887C16.013 27.213 13.8013 26.9951 11.7914 26.1625C9.78152 25.3299 8.06365 23.92 6.85503 22.1111C5.64641 20.3022 5.00131 18.1755 5.00131 16C5.00131 13.8244 5.64641 11.6978 6.85503 9.88887C8.06365 8.07997 9.78152 6.67007 11.7914 5.83746C13.8013 5.00484 16.013 4.78691 18.1467 5.21122C20.2805 5.63552 22.2405 6.68301 23.7789 8.22122C25.8388 10.286 26.9956 13.0834 26.9956 16C26.9956 18.9165 25.8388 21.714 23.7789 23.7787ZM20.7077 10.2925C20.8006 10.3853 20.8744 10.4956 20.9247 10.617C20.975 10.7384 21.0009 10.8686 21.0009 11C21.0009 11.1314 20.975 11.2615 20.9247 11.3829C20.8744 11.5043 20.8006 11.6146 20.7077 11.7075L16.7077 15.7075C16.6148 15.8005 16.5045 15.8742 16.3831 15.9245C16.2617 15.9749 16.1316 16.0008 16.0002 16.0008C15.8687 16.0008 15.7386 15.9749 15.6172 15.9245C15.4958 15.8742 15.3855 15.8005 15.2927 15.7075L11.2927 11.7075C11.105 11.5198 10.9996 11.2653 10.9996 11C10.9996 10.7346 11.105 10.4801 11.2927 10.2925C11.4803 10.1048 11.7348 9.99942 12.0002 9.99942C12.2655 9.99942 12.52 10.1048 12.7077 10.2925L16.0002 13.5862L19.2927 10.2925C19.3855 10.1995 19.4958 10.1257 19.6172 10.0754C19.7386 10.0251 19.8687 9.99919 20.0002 9.99919C20.1316 9.99919 20.2617 10.0251 20.3831 10.0754C20.5045 10.1257 20.6148 10.1995 20.7077 10.2925ZM20.7077 17.2925C20.8006 17.3853 20.8744 17.4956 20.9247 17.617C20.975 17.7384 21.0009 17.8686 21.0009 18C21.0009 18.1314 20.975 18.2615 20.9247 18.3829C20.8744 18.5043 20.8006 18.6146 20.7077 18.7075L16.7077 22.7075C16.6148 22.8005 16.5045 22.8742 16.3831 22.9245C16.2617 22.9749 16.1316 23.0008 16.0002 23.0008C15.8687 23.0008 15.7386 22.9749 15.6172 22.9245C15.4958 22.8742 15.3855 22.8005 15.2927 22.7075L11.2927 18.7075C11.105 18.5198 10.9996 18.2653 10.9996 18C10.9996 17.7346 11.105 17.4801 11.2927 17.2925C11.4803 17.1048 11.7348 16.9994 12.0002 16.9994C12.2655 16.9994 12.52 17.1048 12.7077 17.2925L16.0002 20.5862L19.2927 17.2925C19.3855 17.1995 19.4958 17.1257 19.6172 17.0754C19.7386 17.0251 19.8687 16.9992 20.0002 16.9992C20.1316 16.9992 20.2617 17.0251 20.3831 17.0754C20.5045 17.1257 20.6148 17.1995 20.7077 17.2925Z" fill="#222222"/>
</svg>
