<svg width="32" height="32" viewBox="0 0 32 32" fill="none" xmlns="http://www.w3.org/2000/svg">
<path d="M26.7071 24.2925C26.8 24.3854 26.8737 24.4957 26.924 24.6171C26.9743 24.7385 27.0001 24.8686 27.0001 25C27.0001 25.1314 26.9743 25.2615 26.924 25.3829C26.8737 25.5043 26.8 25.6146 26.7071 25.7075C26.6142 25.8004 26.5039 25.8741 26.3825 25.9244C26.2611 25.9747 26.131 26.0005 25.9996 26.0005C25.8682 26.0005 25.7381 25.9747 25.6167 25.9244C25.4953 25.8741 25.385 25.8004 25.2921 25.7075L15.9996 16.4137L6.70708 25.7075C6.51944 25.8951 6.26494 26.0005 5.99958 26.0005C5.73422 26.0005 5.47972 25.8951 5.29208 25.7075C5.10444 25.5199 4.99902 25.2654 4.99902 25C4.99902 24.7346 5.10444 24.4801 5.29208 24.2925L15.2921 14.2925C15.385 14.1995 15.4952 14.1258 15.6166 14.0754C15.738 14.0251 15.8682 13.9992 15.9996 13.9992C16.131 13.9992 16.2611 14.0251 16.3825 14.0754C16.5039 14.1258 16.6142 14.1995 16.7071 14.2925L26.7071 24.2925ZM6.70708 15.7075L15.9996 6.41374L25.2921 15.7075C25.385 15.8004 25.4953 15.8741 25.6167 15.9244C25.7381 15.9747 25.8682 16.0006 25.9996 16.0006C26.131 16.0006 26.2611 15.9747 26.3825 15.9244C26.5039 15.8741 26.6142 15.8004 26.7071 15.7075C26.8 15.6146 26.8737 15.5043 26.924 15.3829C26.9743 15.2615 27.0001 15.1314 27.0001 15C27.0001 14.8686 26.9743 14.7385 26.924 14.6171C26.8737 14.4957 26.8 14.3854 26.7071 14.2925L16.7071 4.29249C16.6142 4.19952 16.5039 4.12576 16.3825 4.07543C16.2611 4.02511 16.131 3.99921 15.9996 3.99921C15.8682 3.99921 15.738 4.02511 15.6166 4.07543C15.4952 4.12576 15.385 4.19952 15.2921 4.29249L5.29208 14.2925C5.10444 14.4801 4.99902 14.7346 4.99902 15C4.99902 15.2654 5.10444 15.5199 5.29208 15.7075C5.47972 15.8951 5.73422 16.0006 5.99958 16.0006C6.26494 16.0006 6.51944 15.8951 6.70708 15.7075Z" fill="#222222"/>
</svg>
