<svg width="32" height="32" viewBox="0 0 32 32" fill="none" xmlns="http://www.w3.org/2000/svg">
<path d="M16.8947 10.5525C16.8118 10.3861 16.6841 10.2461 16.526 10.1482C16.3679 10.0504 16.1857 9.99856 15.9997 9.99856C15.8138 9.99856 15.6316 10.0504 15.4735 10.1482C15.3154 10.2461 15.1877 10.3861 15.1047 10.5525L6.10473 28.5525C5.98605 28.7897 5.96645 29.0643 6.05026 29.316C6.13406 29.5676 6.3144 29.7757 6.55161 29.8944C6.78881 30.0131 7.06344 30.0326 7.31509 29.9488C7.56674 29.865 7.7748 29.6847 7.89348 29.4475L9.62473 26H22.3872L24.111 29.4475C24.1936 29.6127 24.3204 29.7518 24.4773 29.8493C24.6342 29.9468 24.815 29.999 24.9997 30C25.1702 29.9999 25.3378 29.9563 25.4866 29.8732C25.6354 29.7901 25.7605 29.6704 25.8501 29.5254C25.9396 29.3803 25.9906 29.2148 25.9982 29.0446C26.0058 28.8743 25.9698 28.7049 25.8935 28.5525L16.8947 10.5525ZM15.9997 13.2362L19.3822 20H12.6172L15.9997 13.2362ZM10.6247 24L11.6247 22H20.3872L21.3872 24H10.6247ZM19.9422 11.7175C20.0452 11.1417 20.0207 10.5503 19.8703 9.98505C19.72 9.41978 19.4475 8.89435 19.0721 8.4458C18.6967 7.99725 18.2274 7.6365 17.6974 7.38897C17.1675 7.14144 16.5897 7.01316 16.0047 7.01316C15.4198 7.01316 14.842 7.14144 14.312 7.38897C13.782 7.6365 13.3128 7.99725 12.9374 8.4458C12.5619 8.89435 12.2895 9.41978 12.1391 9.98505C11.9888 10.5503 11.9642 11.1417 12.0672 11.7175C12.0939 11.848 12.0942 11.9825 12.0682 12.1132C12.0422 12.2438 11.9903 12.368 11.9156 12.4783C11.841 12.5886 11.745 12.6829 11.6334 12.7556C11.5218 12.8284 11.3968 12.8781 11.2657 12.9018C11.1346 12.9255 11.0001 12.9228 10.87 12.8939C10.74 12.8649 10.6171 12.8102 10.5085 12.7331C10.3999 12.656 10.3077 12.5579 10.2376 12.4447C10.1674 12.3314 10.1205 12.2053 10.0997 12.0737C9.94299 11.2093 9.97802 10.3209 10.2023 9.47143C10.4267 8.62196 10.8348 7.83213 11.3979 7.15773C11.961 6.48334 12.6654 5.94084 13.4612 5.56857C14.257 5.19631 15.1249 5.00336 16.0035 5.00336C16.8821 5.00336 17.7499 5.19631 18.5457 5.56857C19.3416 5.94084 20.0459 6.48334 20.609 7.15773C21.1722 7.83213 21.5803 8.62196 21.8046 9.47143C22.0289 10.3209 22.064 11.2093 21.9072 12.0737C21.8657 12.3042 21.7446 12.5127 21.565 12.663C21.3855 12.8133 21.1589 12.8959 20.9247 12.8962C20.8648 12.8957 20.805 12.8903 20.746 12.88C20.6164 12.8571 20.4925 12.8088 20.3816 12.7379C20.2707 12.667 20.1748 12.575 20.0996 12.4669C20.0243 12.3589 19.9711 12.2371 19.9431 12.1085C19.915 11.9799 19.9126 11.847 19.936 11.7175H19.9422ZM8.01848 17.0262C6.89799 15.5419 6.21361 13.7745 6.04227 11.9227C5.87092 10.0708 6.21938 8.20787 7.0485 6.54314C7.87762 4.87842 9.15454 3.47789 10.7358 2.49892C12.317 1.51995 14.14 1.00133 15.9997 1.00133C17.8595 1.00133 19.6824 1.51995 21.2637 2.49892C22.8449 3.47789 24.1218 4.87842 24.951 6.54314C25.7801 8.20787 26.1285 10.0708 25.9572 11.9227C25.7858 13.7745 25.1015 15.5419 23.981 17.0262C23.8194 17.2332 23.5829 17.3683 23.3226 17.4025C23.0622 17.4366 22.7989 17.3669 22.5895 17.2085C22.3801 17.0501 22.2414 16.8157 22.2033 16.556C22.1652 16.2962 22.2308 16.0318 22.386 15.82C23.282 14.6324 23.8291 13.2186 23.9658 11.7372C24.1026 10.2559 23.8236 8.76578 23.1603 7.43424C22.4969 6.10271 21.4753 4.98252 20.2104 4.19952C18.9455 3.41652 17.4874 3.00172 15.9997 3.00172C14.5121 3.00172 13.0539 3.41652 11.789 4.19952C10.5241 4.98252 9.5026 6.10271 8.83921 7.43424C8.17582 8.76578 7.89684 10.2559 8.03361 11.7372C8.17039 13.2186 8.7175 14.6324 9.61348 15.82C9.76864 16.0318 9.83426 16.2962 9.79618 16.556C9.7581 16.8157 9.61937 17.0501 9.40995 17.2085C9.20053 17.3669 8.93722 17.4366 8.67687 17.4025C8.41653 17.3683 8.18005 17.2332 8.01848 17.0262Z" fill="#222222"/>
</svg>
