<svg width="32" height="32" viewBox="0 0 32 32" fill="none" xmlns="http://www.w3.org/2000/svg">
<path d="M12.5002 14.5538C12.6522 14.466 12.7785 14.3397 12.8663 14.1876C12.954 14.0356 13.0002 13.8631 13.0002 13.6875V4.6875C12.9993 4.52807 12.9603 4.37116 12.8864 4.22986C12.8126 4.08857 12.706 3.96698 12.5756 3.87524C12.4452 3.7835 12.2948 3.72426 12.1368 3.70248C11.9789 3.68069 11.818 3.69699 11.6677 3.75C8.74891 4.78302 6.29433 6.8233 4.7452 9.50409C3.19608 12.1849 2.65401 15.3303 3.21643 18.375C3.24559 18.5324 3.31212 18.6806 3.41044 18.807C3.50876 18.9333 3.63599 19.0343 3.78143 19.1012C3.9125 19.1625 4.05549 19.1941 4.20018 19.1938C4.3757 19.1938 4.54814 19.1477 4.70018 19.06L12.5002 14.5538ZM11.0002 6.2025V13.11L5.01518 16.5637C5.00018 16.375 5.00018 16.185 5.00018 16C5.00196 13.973 5.56305 11.9857 6.62168 10.2571C7.6803 8.5284 9.19541 7.12539 11.0002 6.2025ZM16.0002 3C15.735 3 15.4806 3.10536 15.2931 3.29289C15.1055 3.48043 15.0002 3.73478 15.0002 4V15.4775L5.14893 21.2162C5.03462 21.2825 4.93457 21.3708 4.85457 21.4759C4.77456 21.5811 4.7162 21.7011 4.68284 21.8289C4.64948 21.9568 4.64179 22.09 4.66022 22.2208C4.67864 22.3517 4.72281 22.4776 4.79018 22.5912C5.94482 24.5541 7.59482 26.1793 9.575 27.304C11.5552 28.4286 13.7961 29.0134 16.0733 28.9998C18.3506 28.9861 20.5843 28.3745 22.5508 27.2261C24.5174 26.0777 26.1478 24.4329 27.2788 22.4563C28.4098 20.4797 29.0017 18.2407 28.9953 15.9634C28.9889 13.6861 28.3844 11.4505 27.2423 9.48029C26.1002 7.51009 24.4606 5.87448 22.4876 4.73719C20.5146 3.5999 18.2775 3.00085 16.0002 3ZM16.0002 27C14.2545 26.9953 12.5347 26.5774 10.9815 25.7805C9.42832 24.9836 8.08585 23.8303 7.06393 22.415L16.5039 16.915C16.6558 16.8273 16.7819 16.7012 16.8697 16.5494C16.9575 16.3976 17.0038 16.2254 17.0039 16.05V5.045C19.8245 5.3009 22.4376 6.6348 24.2993 8.769C26.161 10.9032 27.1279 13.6732 26.9985 16.5024C26.8692 19.3315 25.6536 22.0018 23.6049 23.9572C21.5562 25.9126 18.8323 27.0025 16.0002 27Z" fill="#222222"/>
</svg>
