<svg width="32" height="32" viewBox="0 0 32 32" fill="none" xmlns="http://www.w3.org/2000/svg">
<path d="M21 14C21 14.2652 20.8946 14.5196 20.7071 14.7071C20.5196 14.8946 20.2652 15 20 15H12C11.7348 15 11.4804 14.8946 11.2929 14.7071C11.1054 14.5196 11 14.2652 11 14C11 13.7348 11.1054 13.4804 11.2929 13.2929C11.4804 13.1054 11.7348 13 12 13H20C20.2652 13 20.5196 13.1054 20.7071 13.2929C20.8946 13.4804 21 13.7348 21 14ZM20 17H12C11.7348 17 11.4804 17.1053 11.2929 17.2929C11.1054 17.4804 11 17.7348 11 18C11 18.2652 11.1054 18.5196 11.2929 18.7071C11.4804 18.8946 11.7348 19 12 19H20C20.2652 19 20.5196 18.8946 20.7071 18.7071C20.8946 18.5196 21 18.2652 21 18C21 17.7348 20.8946 17.4804 20.7071 17.2929C20.5196 17.1053 20.2652 17 20 17ZM29 16C29.0005 18.2444 28.4199 20.4507 27.3147 22.4042C26.2095 24.3576 24.6174 25.9917 22.6934 27.1473C20.7693 28.3029 18.5788 28.9406 16.3352 28.9985C14.0915 29.0564 11.8711 28.5324 9.89 27.4775L5.63375 28.8962C5.28136 29.0138 4.9032 29.0308 4.54166 28.9455C4.18012 28.8602 3.84948 28.6758 3.58681 28.4132C3.32414 28.1505 3.13982 27.8199 3.0545 27.4583C2.96918 27.0968 2.98623 26.7186 3.10375 26.3662L4.5225 22.11C3.59519 20.3665 3.07725 18.4347 3.008 16.4612C2.93875 14.4877 3.32001 12.5243 4.12284 10.7202C4.92567 8.91599 6.12897 7.31843 7.6414 6.04873C9.15383 4.77904 10.9356 3.87059 12.8516 3.39234C14.7675 2.91408 16.7672 2.8786 18.699 3.28858C20.6307 3.69856 22.4436 4.54322 24.0001 5.75846C25.5566 6.97369 26.8158 8.52756 27.6822 10.3021C28.5485 12.0767 28.9992 14.0253 29 16ZM27 16C26.9995 14.3126 26.6109 12.648 25.8641 11.1349C25.1174 9.62182 24.0325 8.30079 22.6935 7.27403C21.3545 6.24728 19.7973 5.54233 18.1422 5.21373C16.4872 4.88512 14.7787 4.94167 13.149 5.37899C11.5194 5.81631 10.0121 6.62269 8.74394 7.73573C7.47577 8.84878 6.48065 10.2386 5.83558 11.7978C5.1905 13.357 4.91277 15.0437 5.02387 16.7274C5.13496 18.411 5.63191 20.0466 6.47625 21.5075C6.54712 21.6301 6.59112 21.7664 6.60534 21.9074C6.61956 22.0483 6.60368 22.1907 6.55875 22.325L5 27L9.675 25.4412C9.77683 25.4065 9.88367 25.3888 9.99125 25.3887C10.1669 25.3891 10.3393 25.4356 10.4912 25.5237C12.1635 26.4913 14.0611 27.0013 15.9931 27.0025C17.925 27.0037 19.8232 26.4961 21.4967 25.5307C23.1702 24.5653 24.5599 23.1762 25.526 21.5031C26.492 19.83 27.0004 17.932 27 16Z" fill="#222222"/>
</svg>
