<svg width="32" height="32" viewBox="0 0 32 32" fill="none" xmlns="http://www.w3.org/2000/svg">
<path d="M27.9996 6V26C27.9996 26.5304 27.7889 27.0391 27.4138 27.4142C27.0387 27.7893 26.53 28 25.9996 28H16.9996C16.7344 28 16.48 27.8946 16.2925 27.7071C16.1049 27.5196 15.9996 27.2652 15.9996 27C15.9996 26.7348 16.1049 26.4804 16.2925 26.2929C16.48 26.1054 16.7344 26 16.9996 26H25.9996V6H5.99958V18C5.99958 18.2652 5.89422 18.5196 5.70669 18.7071C5.51915 18.8946 5.2648 19 4.99958 19C4.73436 19 4.48001 18.8946 4.29247 18.7071C4.10494 18.5196 3.99958 18.2652 3.99958 18V6C3.99958 5.46957 4.21029 4.96086 4.58537 4.58579C4.96044 4.21071 5.46915 4 5.99958 4H25.9996C26.53 4 27.0387 4.21071 27.4138 4.58579C27.7889 4.96086 27.9996 5.46957 27.9996 6ZM15.7071 19.2925C15.6142 19.1995 15.5039 19.1258 15.3825 19.0754C15.2611 19.0251 15.131 18.9992 14.9996 18.9992C14.8682 18.9992 14.738 19.0251 14.6166 19.0754C14.4952 19.1258 14.385 19.1995 14.2921 19.2925L7.99958 25.5863L5.70708 23.2925C5.61417 23.1996 5.50387 23.1259 5.38248 23.0756C5.26108 23.0253 5.13097 22.9994 4.99958 22.9994C4.86818 22.9994 4.73808 23.0253 4.61668 23.0756C4.49529 23.1259 4.38499 23.1996 4.29208 23.2925C4.19917 23.3854 4.12547 23.4957 4.07519 23.6171C4.0249 23.7385 3.99902 23.8686 3.99902 24C3.99902 24.1314 4.0249 24.2615 4.07519 24.3829C4.12547 24.5043 4.19917 24.6146 4.29208 24.7075L7.29208 27.7075C7.38495 27.8005 7.49524 27.8742 7.61664 27.9246C7.73804 27.9749 7.86816 28.0008 7.99958 28.0008C8.13099 28.0008 8.26112 27.9749 8.38252 27.9246C8.50392 27.8742 8.61421 27.8005 8.70708 27.7075L15.7071 20.7075C15.8001 20.6146 15.8738 20.5043 15.9241 20.3829C15.9745 20.2615 16.0004 20.1314 16.0004 20C16.0004 19.8686 15.9745 19.7385 15.9241 19.6171C15.8738 19.4957 15.8001 19.3854 15.7071 19.2925Z" fill="#222222"/>
</svg>
