<svg width="32" height="32" viewBox="0 0 32 32" fill="none" xmlns="http://www.w3.org/2000/svg">
<path d="M30.4103 8.52992L27.4103 5.58492C27.0354 5.21127 26.5277 5.00146 25.9984 5.00146C25.4691 5.00146 24.9614 5.21127 24.5865 5.58492L13.0003 17.0287L8.41403 12.5787C8.03838 12.2062 7.53048 11.9978 7.00149 11.999C6.47251 12.0001 5.96554 12.2108 5.59153 12.5849L2.59153 15.5849C2.21713 15.9599 2.00684 16.4681 2.00684 16.998C2.00684 17.5279 2.21713 18.0362 2.59153 18.4112L11.544 27.4112C11.7298 27.5969 11.9503 27.7443 12.1929 27.8448C12.4356 27.9454 12.6957 27.9971 12.9584 27.9971C13.2211 27.9971 13.4812 27.9454 13.7239 27.8448C13.9666 27.7443 14.1871 27.5969 14.3728 27.4112L30.4165 11.3637C30.6026 11.1774 30.7501 10.9563 30.8506 10.7129C30.951 10.4696 31.0024 10.2088 31.0019 9.94549C31.0013 9.68222 30.9487 9.42164 30.8472 9.17872C30.7457 8.9358 30.5972 8.71532 30.4103 8.52992ZM12.9528 25.9999L4.00028 16.9999L7.00028 13.9999C7.00393 14.0029 7.00727 14.0063 7.01028 14.0099L12.304 19.1462C12.4909 19.329 12.742 19.4314 13.0034 19.4314C13.2649 19.4314 13.5159 19.329 13.7028 19.1462L26.0078 6.99992L29.0003 9.94992L12.9528 25.9999Z" fill="#222222"/>
</svg>
