<svg width="32" height="32" viewBox="0 0 32 32" fill="none" xmlns="http://www.w3.org/2000/svg">
<path d="M30.0003 14C29.9983 12.1441 29.2601 10.3648 27.9478 9.05244C26.6355 7.74011 24.8562 7.00198 23.0003 6.99999C22.779 6.99999 22.5578 7.01249 22.339 7.03249C21.7746 5.82784 20.8786 4.80897 19.756 4.09521C18.6334 3.38146 17.3306 3.00238 16.0003 3.00238C14.6699 3.00238 13.3672 3.38146 12.2446 4.09521C11.1219 4.80897 10.2259 5.82784 9.66151 7.03249C9.44276 7.01249 9.22151 6.99999 9.00026 6.99999C7.41124 7.00038 5.86963 7.54139 4.62885 8.5341C3.38808 9.52681 2.52198 10.9121 2.17293 12.4624C1.82388 14.0126 2.01265 15.6354 2.70822 17.0641C3.40379 18.4928 4.56475 19.6423 6.00026 20.3237V26C6.00026 26.5304 6.21098 27.0391 6.58605 27.4142C6.96112 27.7893 7.46983 28 8.00026 28H24.0003C24.5307 28 25.0394 27.7893 25.4145 27.4142C25.7895 27.0391 26.0003 26.5304 26.0003 26V20.3237C27.1961 19.755 28.2065 18.8592 28.9144 17.7401C29.6223 16.6209 29.9988 15.3242 30.0003 14ZM24.0003 26H8.00026V20.9275C8.33141 20.9757 8.66562 21 9.00026 21H23.0003C23.3349 21 23.6691 20.9757 24.0003 20.9275V26ZM23.0003 19H21.2815L21.9703 16.2425C22.0295 15.987 21.986 15.7185 21.8492 15.4948C21.7123 15.2711 21.4931 15.1101 21.2386 15.0465C20.9842 14.9829 20.715 15.0218 20.489 15.1547C20.263 15.2877 20.0982 15.5042 20.0303 15.7575L19.219 19H17.0003V16C17.0003 15.7348 16.8949 15.4804 16.7074 15.2929C16.5198 15.1053 16.2655 15 16.0003 15C15.735 15 15.4807 15.1053 15.2932 15.2929C15.1056 15.4804 15.0003 15.7348 15.0003 16V19H12.7815L11.9703 15.7575C11.9403 15.6282 11.8848 15.5061 11.8072 15.3984C11.7295 15.2907 11.6312 15.1996 11.5179 15.1303C11.4047 15.061 11.2788 15.015 11.1475 14.9949C11.0163 14.9748 10.8824 14.981 10.7536 15.0132C10.6248 15.0454 10.5037 15.1029 10.3973 15.1824C10.291 15.2619 10.2016 15.3618 10.1342 15.4762C10.0669 15.5907 10.023 15.7173 10.0052 15.8489C9.98734 15.9805 9.99586 16.1143 10.0303 16.2425L10.719 19H9.00026C7.67418 19 6.40241 18.4732 5.46473 17.5355C4.52705 16.5978 4.00026 15.3261 4.00026 14C4.00026 12.6739 4.52705 11.4021 5.46473 10.4645C6.40241 9.52677 7.67418 8.99999 9.00026 8.99999H9.07276C9.02438 9.33112 9.00015 9.66534 9.00026 9.99999C9.00026 10.2652 9.10562 10.5196 9.29316 10.7071C9.48069 10.8946 9.73505 11 10.0003 11C10.2655 11 10.5198 10.8946 10.7074 10.7071C10.8949 10.5196 11.0003 10.2652 11.0003 9.99999C11.0003 8.67391 11.527 7.40214 12.4647 6.46446C13.4024 5.52677 14.6742 4.99999 16.0003 4.99999C17.3263 4.99999 18.5981 5.52677 19.5358 6.46446C20.4735 7.40214 21.0003 8.67391 21.0003 9.99999C21.0003 10.2652 21.1056 10.5196 21.2932 10.7071C21.4807 10.8946 21.735 11 22.0003 11C22.2655 11 22.5198 10.8946 22.7074 10.7071C22.8949 10.5196 23.0003 10.2652 23.0003 9.99999C23.0004 9.66534 22.9761 9.33112 22.9278 8.99999H23.0003C24.3263 8.99999 25.5981 9.52677 26.5358 10.4645C27.4735 11.4021 28.0003 12.6739 28.0003 14C28.0003 15.3261 27.4735 16.5978 26.5358 17.5355C25.5981 18.4732 24.3263 19 23.0003 19Z" fill="#222222"/>
</svg>
