<svg width="32" height="32" viewBox="0 0 32 32" fill="none" xmlns="http://www.w3.org/2000/svg">
<path d="M22.0002 8.99999C21.6761 9.0003 21.3523 9.01825 21.0302 9.05374C20.3273 7.85218 19.4115 6.78859 18.3277 5.91499C13.5977 2.09874 7.13143 2.97124 6.85893 3.00999C6.65828 3.03844 6.47102 3.12719 6.32194 3.26446C6.17287 3.40174 6.06902 3.58107 6.02416 3.77869C5.97929 3.97631 5.99553 4.1829 6.07071 4.37109C6.1459 4.55928 6.27649 4.72018 6.44518 4.83249C8.63268 6.28999 9.63393 8.70749 10.0514 11.05C8.59405 11.202 7.19583 11.7076 5.97825 12.5228C4.76066 13.338 3.76053 14.4382 3.06474 15.7278C2.36895 17.0173 1.99854 18.4573 1.9857 19.9225C1.97285 21.3877 2.31795 22.8339 2.99102 24.1355C3.6641 25.437 4.64478 26.5546 5.84788 27.391C7.05099 28.2274 8.44012 28.7575 9.89461 28.9351C11.3491 29.1126 12.825 28.9324 14.194 28.41C15.563 27.8876 16.7837 27.0389 17.7502 25.9375C18.9564 26.5822 20.2937 26.9434 21.6605 26.9939C23.0273 27.0443 24.3876 26.7826 25.638 26.2285C26.8885 25.6745 27.9963 24.8428 28.8771 23.7965C29.758 22.7502 30.3889 21.517 30.7217 20.1904C31.0546 18.8638 31.0808 17.4788 30.7982 16.1406C30.5156 14.8024 29.9318 13.5462 29.091 12.4674C28.2502 11.3887 27.1747 10.5157 25.946 9.91489C24.7173 9.31407 23.3679 9.00118 22.0002 8.99999ZM9.50018 4.92124C11.5839 5.01124 14.6552 5.51874 17.0802 7.48124C17.8032 8.06804 18.435 8.7589 18.9552 9.53124C17.5223 10.0478 16.2434 10.9186 15.2377 12.0625C14.2579 11.5357 13.1883 11.1965 12.0839 11.0625C11.6927 8.57374 10.8202 6.49999 9.50018 4.92124ZM11.0002 27C9.20669 26.9991 7.48197 26.3098 6.18185 25.0744C4.88174 23.8389 4.10542 22.1516 4.01305 20.3605C3.92069 18.5694 4.51934 16.8111 5.68548 15.4485C6.85162 14.0859 8.4963 13.2229 10.2802 13.0375C10.3529 14.3336 10.3111 15.6337 10.1552 16.9225C9.20768 16.7437 8.73643 16.3162 8.71143 16.2975C8.61852 16.2046 8.50822 16.1309 8.38682 16.0806C8.26543 16.0303 8.13532 16.0044 8.00393 16.0044C7.87253 16.0044 7.74242 16.0303 7.62103 16.0806C7.49964 16.1309 7.38934 16.2046 7.29643 16.2975C7.20352 16.3904 7.12982 16.5007 7.07953 16.6221C7.02925 16.7435 7.00337 16.8736 7.00337 17.005C7.00337 17.1364 7.02925 17.2665 7.07953 17.3879C7.12982 17.5093 7.20352 17.6196 7.29643 17.7125C7.42518 17.8387 8.65018 19 10.9902 19H11.0214C13.3539 18.9937 14.5752 17.84 14.7077 17.7087C14.8006 17.6158 14.8743 17.5055 14.9246 17.3841C14.9749 17.2627 15.0007 17.1326 15.0007 17.0012C15.0007 16.8698 14.9749 16.7397 14.9246 16.6183C14.8743 16.4969 14.8006 16.3866 14.7077 16.2937C14.6148 16.2008 14.5045 16.1271 14.3831 16.0768C14.2617 16.0266 14.1316 16.0007 14.0002 16.0007C13.8688 16.0007 13.7387 16.0266 13.6173 16.0768C13.4959 16.1271 13.3856 16.2008 13.2927 16.2937C12.9672 16.5606 12.5856 16.7503 12.1764 16.8487C12.3124 15.6124 12.3513 14.3674 12.2927 13.125C14.0016 13.4523 15.5273 14.4043 16.5724 15.7953C17.6175 17.1864 18.1071 18.9169 17.9458 20.6493C17.7844 22.3817 16.9836 23.992 15.6995 25.1661C14.4154 26.3402 12.7401 26.994 11.0002 27ZM18.1252 14.5137C17.7601 14.04 17.3489 13.6037 16.8977 13.2112C17.7266 12.3291 18.7695 11.6763 19.9252 11.3162C20.3975 12.4502 20.717 13.6418 20.8752 14.86C20.1139 14.66 19.7302 14.3137 19.7089 14.2925C19.5995 14.1825 19.466 14.0996 19.319 14.0501C19.1719 14.0006 19.0154 13.9861 18.8618 14.0075C18.7082 14.029 18.5616 14.0859 18.4338 14.1738C18.3059 14.2616 18.2003 14.378 18.1252 14.5137ZM22.0002 25C20.9301 25.0013 19.8741 24.7562 18.9139 24.2837C19.5698 23.0746 19.9391 21.7309 19.9933 20.3564C20.0474 18.9819 19.7851 17.6133 19.2264 16.3562C20.0727 16.7863 21.0097 17.0071 21.9589 17H22.0002C24.3464 17 25.5752 15.84 25.7077 15.7075C25.8006 15.6146 25.8743 15.5043 25.9246 15.3829C25.9749 15.2615 26.0007 15.1314 26.0007 15C26.0007 14.8686 25.9749 14.7385 25.9246 14.6171C25.8743 14.4957 25.8006 14.3854 25.7077 14.2925C25.6148 14.1996 25.5045 14.1259 25.3831 14.0756C25.2617 14.0253 25.1316 13.9994 25.0002 13.9994C24.8688 13.9994 24.7387 14.0253 24.6173 14.0756C24.4959 14.1259 24.3856 14.1996 24.2927 14.2925C24.2689 14.3162 23.8127 14.7287 22.8989 14.9175C22.7484 13.5782 22.434 12.2626 21.9627 11H22.0002C23.8567 11 25.6372 11.7375 26.9499 13.0502C28.2627 14.363 29.0002 16.1435 29.0002 18C29.0002 19.8565 28.2627 21.637 26.9499 22.9497C25.6372 24.2625 23.8567 25 22.0002 25Z" fill="#222222"/>
</svg>
