<svg width="32" height="32" viewBox="0 0 32 32" fill="none" xmlns="http://www.w3.org/2000/svg">
<path d="M15 26.0002H9C8.73478 26.0002 8.48043 25.8948 8.29289 25.7073C8.10536 25.5198 8 25.2654 8 25.0002C8 24.735 8.10536 24.4806 8.29289 24.2931C8.48043 24.1056 8.73478 24.0002 9 24.0002H15C15.2652 24.0002 15.5196 24.1056 15.7071 24.2931C15.8946 24.4806 16 24.735 16 25.0002C16 25.2654 15.8946 25.5198 15.7071 25.7073C15.5196 25.8948 15.2652 26.0002 15 26.0002ZM23 24.0002H20C19.7348 24.0002 19.4804 24.1056 19.2929 24.2931C19.1054 24.4806 19 24.735 19 25.0002C19 25.2654 19.1054 25.5198 19.2929 25.7073C19.4804 25.8948 19.7348 26.0002 20 26.0002H23C23.2652 26.0002 23.5196 25.8948 23.7071 25.7073C23.8946 25.5198 24 25.2654 24 25.0002C24 24.735 23.8946 24.4806 23.7071 24.2931C23.5196 24.1056 23.2652 24.0002 23 24.0002ZM20 28.0002H13C12.7348 28.0002 12.4804 28.1056 12.2929 28.2931C12.1054 28.4806 12 28.735 12 29.0002C12 29.2654 12.1054 29.5198 12.2929 29.7073C12.4804 29.8948 12.7348 30.0002 13 30.0002H20C20.2652 30.0002 20.5196 29.8948 20.7071 29.7073C20.8946 29.5198 21 29.2654 21 29.0002C21 28.735 20.8946 28.4806 20.7071 28.2931C20.5196 28.1056 20.2652 28.0002 20 28.0002ZM29 12.5002C28.9974 15.0189 27.9956 17.4338 26.2146 19.2148C24.4336 20.9958 22.0187 21.9975 19.5 22.0002H9.5C7.77609 22.0002 6.12279 21.3154 4.90381 20.0964C3.68482 18.8774 3 17.2241 3 15.5002C3 13.7763 3.68482 12.123 4.90381 10.904C6.12279 9.68502 7.77609 9.0002 9.5 9.0002C9.87367 9.00052 10.2467 9.03229 10.615 9.0952C11.4125 7.02366 12.9096 5.29636 14.8467 4.21256C16.7839 3.12876 19.0392 2.75676 21.2219 3.16099C23.4045 3.56523 25.377 4.72024 26.7975 6.42591C28.2181 8.13158 28.9973 10.2804 29 12.5002ZM27 12.5002C26.992 10.5528 26.2276 8.68465 24.8681 7.29023C23.5087 5.89582 21.6605 5.08423 19.7139 5.0268C17.7673 4.96938 15.8746 5.67061 14.4353 6.98247C12.996 8.29432 12.1228 10.1141 12 12.0577C11.9924 12.189 11.9591 12.3176 11.9019 12.436C11.8446 12.5544 11.7646 12.6604 11.6664 12.748C11.4681 12.9247 11.2077 13.0154 10.9425 13.0002C10.6773 12.9849 10.429 12.865 10.2522 12.6666C10.0755 12.4683 9.98475 12.2079 10 11.9427C10.0175 11.6377 10.0496 11.3364 10.0962 11.0389C9.89851 11.0136 9.69937 11.0006 9.5 11.0002C8.30653 11.0002 7.16193 11.4743 6.31802 12.3182C5.47411 13.1621 5 14.3067 5 15.5002C5 16.6937 5.47411 17.8383 6.31802 18.6822C7.16193 19.5261 8.30653 20.0002 9.5 20.0002H19.5C21.4884 19.9979 23.3947 19.207 24.8007 17.8009C26.2068 16.3949 26.9977 14.4886 27 12.5002Z" fill="#222222"/>
</svg>
