<svg width="32" height="32" viewBox="0 0 32 32" fill="none" xmlns="http://www.w3.org/2000/svg">
<path d="M7.29231 12.7074L3.29231 8.70745C3.19933 8.61457 3.12557 8.50428 3.07525 8.38289C3.02493 8.26149 2.99902 8.13136 2.99902 7.99995C2.99902 7.86853 3.02493 7.7384 3.07525 7.61701C3.12557 7.49561 3.19933 7.38532 3.29231 7.29245L7.29231 3.29245C7.47995 3.1048 7.73445 2.99939 7.99981 2.99939C8.26517 2.99939 8.51967 3.1048 8.70731 3.29245C8.89495 3.48009 9.00037 3.73458 9.00037 3.99995C9.00037 4.26531 8.89495 4.5198 8.70731 4.70745L5.41356 7.99995L8.70731 11.2924C8.89495 11.4801 9.00037 11.7346 9.00037 11.9999C9.00037 12.2653 8.89495 12.5198 8.70731 12.7074C8.51967 12.8951 8.26517 13.0005 7.99981 13.0005C7.73445 13.0005 7.47995 12.8951 7.29231 12.7074ZM12.2923 12.7074C12.3852 12.8004 12.4955 12.8742 12.6169 12.9245C12.7383 12.9748 12.8684 13.0007 12.9998 13.0007C13.1312 13.0007 13.2614 12.9748 13.3828 12.9245C13.5041 12.8742 13.6144 12.8004 13.7073 12.7074L17.7073 8.70745C17.8003 8.61457 17.874 8.50428 17.9244 8.38289C17.9747 8.26149 18.0006 8.13136 18.0006 7.99995C18.0006 7.86853 17.9747 7.7384 17.9244 7.61701C17.874 7.49561 17.8003 7.38532 17.7073 7.29245L13.7073 3.29245C13.5197 3.1048 13.2652 2.99939 12.9998 2.99939C12.7344 2.99939 12.4799 3.1048 12.2923 3.29245C12.1047 3.48009 11.9993 3.73458 11.9993 3.99995C11.9993 4.26531 12.1047 4.5198 12.2923 4.70745L15.5861 7.99995L12.2923 11.2924C12.1993 11.3853 12.1256 11.4956 12.0753 11.617C12.0249 11.7384 11.999 11.8685 11.999 11.9999C11.999 12.1314 12.0249 12.2615 12.0753 12.3829C12.1256 12.5043 12.1993 12.6146 12.2923 12.7074ZM24.9998 4.99995H21.9998C21.7346 4.99995 21.4802 5.1053 21.2927 5.29284C21.1052 5.48038 20.9998 5.73473 20.9998 5.99995C20.9998 6.26516 21.1052 6.51952 21.2927 6.70705C21.4802 6.89459 21.7346 6.99995 21.9998 6.99995H24.9998V24.9999H6.99981V16.9999C6.99981 16.7347 6.89445 16.4804 6.70692 16.2928C6.51938 16.1053 6.26503 15.9999 5.99981 15.9999C5.73459 15.9999 5.48024 16.1053 5.2927 16.2928C5.10517 16.4804 4.99981 16.7347 4.99981 16.9999V24.9999C4.99981 25.5304 5.21052 26.0391 5.5856 26.4142C5.96067 26.7892 6.46938 26.9999 6.99981 26.9999H24.9998C25.5302 26.9999 26.0389 26.7892 26.414 26.4142C26.7891 26.0391 26.9998 25.5304 26.9998 24.9999V6.99995C26.9998 6.46951 26.7891 5.9608 26.414 5.58573C26.0389 5.21066 25.5302 4.99995 24.9998 4.99995Z" fill="#222222"/>
</svg>
