<svg width="32" height="32" viewBox="0 0 32 32" fill="none" xmlns="http://www.w3.org/2000/svg">
<path d="M25.7071 15.7073C25.6142 15.8003 25.5039 15.874 25.3825 15.9244C25.2611 15.9747 25.131 16.0006 24.9996 16.0006C24.8682 16.0006 24.738 15.9747 24.6166 15.9244C24.4952 15.874 24.385 15.8003 24.2921 15.7073L15.9996 7.41356L7.70708 15.7073C7.51944 15.895 7.26494 16.0004 6.99958 16.0004C6.73422 16.0004 6.47972 15.895 6.29208 15.7073C6.10444 15.5197 5.99902 15.2652 5.99902 14.9998C5.99902 14.7344 6.10444 14.4799 6.29208 14.2923L15.2921 5.29231C15.385 5.19933 15.4952 5.12557 15.6166 5.07525C15.738 5.02493 15.8682 4.99902 15.9996 4.99902C16.131 4.99902 16.2611 5.02493 16.3825 5.07525C16.5039 5.12557 16.6142 5.19933 16.7071 5.29231L25.7071 14.2923C25.8001 14.3852 25.8738 14.4955 25.9241 14.6169C25.9745 14.7383 26.0004 14.8684 26.0004 14.9998C26.0004 15.1312 25.9745 15.2614 25.9241 15.3828C25.8738 15.5041 25.8001 15.6144 25.7071 15.7073Z" fill="#222222"/>
</svg>
