<svg width="32" height="32" viewBox="0 0 32 32" fill="none" xmlns="http://www.w3.org/2000/svg">
<path d="M28.8621 9.20001C28.471 9.00831 28.0276 8.95083 27.6005 9.03647C27.1735 9.1221 26.7865 9.34608 26.4996 9.67376L22.2908 14.21L17.8158 4.17376C17.8156 4.16959 17.8156 4.16542 17.8158 4.16126C17.6558 3.81419 17.3997 3.52024 17.0778 3.3142C16.7559 3.10816 16.3818 2.99866 15.9996 2.99866C15.6174 2.99866 15.2432 3.10816 14.9213 3.3142C14.5995 3.52024 14.3433 3.81419 14.1833 4.16126C14.1835 4.16542 14.1835 4.16959 14.1833 4.17376L9.70833 14.21L5.49958 9.67376C5.21079 9.34602 4.82264 9.12185 4.39444 9.03548C3.96624 8.94912 3.52154 9.00532 3.12829 9.1955C2.73504 9.38568 2.41487 9.69937 2.21669 10.0886C2.01852 10.4779 1.95324 10.9214 2.03083 11.3513C2.03083 11.365 2.03083 11.3775 2.03958 11.3913L4.87458 24.375C4.96185 24.8322 5.20585 25.2446 5.56454 25.5413C5.92322 25.8379 6.37413 26.0001 6.83958 26H25.1608C25.6261 25.9998 26.0767 25.8375 26.4351 25.5409C26.7935 25.2443 27.0373 24.832 27.1246 24.375L29.9596 11.3913C29.9596 11.3775 29.9596 11.365 29.9683 11.3513C30.0474 10.9209 29.9818 10.4764 29.7816 10.0872C29.5815 9.69804 29.2582 9.38607 28.8621 9.20001ZM25.1683 23.96L25.1608 24H6.83833L6.83083 23.96L3.99958 11L4.01708 11.02L9.26708 16.675C9.3795 16.7965 9.52031 16.8882 9.67689 16.9418C9.83347 16.9955 10.0009 17.0094 10.1642 16.9824C10.3275 16.9554 10.4815 16.8883 10.6125 16.7871C10.7435 16.6858 10.8473 16.5537 10.9146 16.4025L15.9996 5.00001L21.0858 16.4063C21.1531 16.5575 21.2569 16.6896 21.3879 16.7908C21.5189 16.892 21.6729 16.9591 21.8362 16.9861C21.9995 17.0132 22.1669 16.9992 22.3235 16.9456C22.4801 16.8919 22.6209 16.8002 22.7333 16.6788L27.9833 11.0238L27.9996 11L25.1683 23.96Z" fill="#222222"/>
</svg>
