<svg width="32" height="32" viewBox="0 0 32 32" fill="none" xmlns="http://www.w3.org/2000/svg">
<path d="M25.7739 6.63373L18.1102 16H22.0002C22.2654 16 22.5197 16.1053 22.7073 16.2929C22.8948 16.4804 23.0002 16.7348 23.0002 17C23.0002 17.2652 22.8948 17.5196 22.7073 17.7071C22.5197 17.8946 22.2654 18 22.0002 18H17.0002V20H22.0002C22.2654 20 22.5197 20.1053 22.7073 20.2929C22.8948 20.4804 23.0002 20.7348 23.0002 21C23.0002 21.2652 22.8948 21.5196 22.7073 21.7071C22.5197 21.8946 22.2654 22 22.0002 22H17.0002V27C17.0002 27.2652 16.8948 27.5196 16.7073 27.7071C16.5197 27.8946 16.2654 28 16.0002 28C15.735 28 15.4806 27.8946 15.2931 27.7071C15.1055 27.5196 15.0002 27.2652 15.0002 27V22H10.0002C9.73495 22 9.4806 21.8946 9.29306 21.7071C9.10552 21.5196 9.00017 21.2652 9.00017 21C9.00017 20.7348 9.10552 20.4804 9.29306 20.2929C9.4806 20.1053 9.73495 20 10.0002 20H15.0002V18H10.0002C9.73495 18 9.4806 17.8946 9.29306 17.7071C9.10552 17.5196 9.00017 17.2652 9.00017 17C9.00017 16.7348 9.10552 16.4804 9.29306 16.2929C9.4806 16.1053 9.73495 16 10.0002 16H13.8902L6.22642 6.63373C6.05834 6.42852 5.97866 6.16495 6.00491 5.90099C6.03117 5.63703 6.16121 5.39431 6.36642 5.22623C6.57163 5.05815 6.8352 4.97848 7.09916 5.00473C7.36312 5.03099 7.60584 5.16102 7.77392 5.36623L16.0002 15.4212L24.2264 5.36623C24.3096 5.26462 24.4121 5.1804 24.5278 5.11837C24.6436 5.05635 24.7705 5.01773 24.9012 5.00473C25.0319 4.99173 25.1639 5.0046 25.2896 5.04261C25.4153 5.08061 25.5323 5.14301 25.6339 5.22623C25.7355 5.30946 25.8198 5.41188 25.8818 5.52766C25.9438 5.64343 25.9824 5.77029 25.9954 5.90099C26.0084 6.03169 25.9956 6.16367 25.9575 6.28939C25.9195 6.41512 25.8571 6.53212 25.7739 6.63373Z" fill="#222222"/>
</svg>
