<svg width="32" height="32" viewBox="0 0 32 32" fill="none" xmlns="http://www.w3.org/2000/svg">
<path d="M25.7073 27.7076L22.7073 30.7076C22.5197 30.8952 22.2652 31.0006 21.9998 31.0006C21.7344 31.0006 21.4799 30.8952 21.2923 30.7076C21.1047 30.5199 20.9993 30.2654 20.9993 30.0001C20.9993 29.7347 21.1047 29.4802 21.2923 29.2926L22.5861 28.0001H9.99981C9.20416 28.0001 8.4411 27.684 7.87849 27.1214C7.31588 26.5588 6.99981 25.7957 6.99981 25.0001V13.0001C6.99981 12.7349 7.10517 12.4805 7.2927 12.293C7.48024 12.1054 7.73459 12.0001 7.99981 12.0001C8.26503 12.0001 8.51938 12.1054 8.70692 12.293C8.89445 12.4805 8.99981 12.7349 8.99981 13.0001V25.0001C8.99981 25.2653 9.10517 25.5196 9.2927 25.7072C9.48024 25.8947 9.73459 26.0001 9.99981 26.0001H22.5861L21.2923 24.7076C21.1047 24.5199 20.9993 24.2654 20.9993 24.0001C20.9993 23.7347 21.1047 23.4802 21.2923 23.2926C21.4799 23.1049 21.7344 22.9995 21.9998 22.9995C22.2652 22.9995 22.5197 23.1049 22.7073 23.2926L25.7073 26.2926C25.8003 26.3854 25.874 26.4957 25.9244 26.6171C25.9747 26.7385 26.0006 26.8687 26.0006 27.0001C26.0006 27.1315 25.9747 27.2616 25.9244 27.383C25.874 27.5044 25.8003 27.6147 25.7073 27.7076ZM9.99981 9.00007C10.1977 9.00022 10.3912 8.94166 10.5558 8.83179C10.7204 8.72192 10.8487 8.56568 10.9244 8.38286C11.0002 8.20004 11.02 7.99885 10.9813 7.80476C10.9427 7.61068 10.8473 7.43242 10.7073 7.29257L9.41356 6.00007H21.9998C22.265 6.00007 22.5194 6.10542 22.7069 6.29296C22.8945 6.4805 22.9998 6.73485 22.9998 7.00007V19.0001C22.9998 19.2653 23.1052 19.5196 23.2927 19.7072C23.4802 19.8947 23.7346 20.0001 23.9998 20.0001C24.265 20.0001 24.5194 19.8947 24.7069 19.7072C24.8945 19.5196 24.9998 19.2653 24.9998 19.0001V7.00007C24.9998 6.20442 24.6837 5.44136 24.1211 4.87875C23.5585 4.31614 22.7955 4.00007 21.9998 4.00007H9.41356L10.7073 2.70757C10.895 2.51993 11.0004 2.26543 11.0004 2.00007C11.0004 1.7347 10.895 1.48021 10.7073 1.29257C10.5197 1.10493 10.2652 0.999512 9.99981 0.999512C9.73445 0.999512 9.47995 1.10493 9.29231 1.29257L6.29231 4.29257C6.19933 4.38544 6.12557 4.49573 6.07525 4.61713C6.02493 4.73853 5.99902 4.86865 5.99902 5.00007C5.99902 5.13148 6.02493 5.26161 6.07525 5.38301C6.12557 5.50441 6.19933 5.61469 6.29231 5.70757L9.29231 8.70757C9.38525 8.8004 9.49557 8.87402 9.61696 8.9242C9.73836 8.97439 9.86845 9.00017 9.99981 9.00007Z" fill="#222222"/>
</svg>
