<svg width="32" height="32" viewBox="0 0 32 32" fill="none" xmlns="http://www.w3.org/2000/svg">
<path d="M6.74025 4.32746C6.65243 4.22847 6.54584 4.14789 6.42665 4.0904C6.30746 4.03291 6.17805 3.99964 6.04591 3.99253C5.91377 3.98543 5.78153 4.00461 5.65686 4.04899C5.53219 4.09336 5.41757 4.16204 5.31964 4.25104C5.22171 4.34004 5.14241 4.44759 5.08635 4.56746C5.03029 4.68733 4.99858 4.81713 4.99306 4.94935C4.98754 5.08156 5.00831 5.21356 5.05417 5.33769C5.10004 5.46182 5.17008 5.57561 5.26025 5.67246L8.09025 8.78621C6.04025 11.875 5.00025 14.9725 5.00025 18C5.00036 20.1603 5.63663 22.2729 6.82966 24.074C8.0227 25.8751 9.71968 27.285 11.7089 28.1278C13.6981 28.9706 15.8914 29.209 18.0152 28.8133C20.1391 28.4175 22.0994 27.4052 23.6515 25.9025L25.2603 27.6725C25.3481 27.7715 25.4547 27.852 25.5739 27.9095C25.693 27.967 25.8225 28.0003 25.9546 28.0074C26.0867 28.0145 26.219 27.9953 26.3436 27.9509C26.4683 27.9066 26.5829 27.8379 26.6809 27.7489C26.7788 27.6599 26.8581 27.5523 26.9141 27.4325C26.9702 27.3126 27.0019 27.1828 27.0074 27.0506C27.013 26.9184 26.9922 26.7864 26.9463 26.6622C26.9005 26.5381 26.8304 26.4243 26.7403 26.3275L6.74025 4.32746ZM16.0003 27C13.6141 26.9973 11.3265 26.0483 9.63921 24.361C7.95196 22.6737 7.0029 20.3861 7.00025 18C7.00025 15.5087 7.83525 12.9287 9.48275 10.3175L22.304 24.42C20.6231 26.0744 18.3588 27.0011 16.0003 27ZM11.2503 6.31371C11.0583 6.13071 10.9469 5.87895 10.9406 5.61383C10.9343 5.3487 11.0335 5.09192 11.2165 4.89996C12.5043 3.53543 13.9134 2.29073 15.4265 1.18121C15.5946 1.06343 15.795 1.00024 16.0003 1.00024C16.2055 1.00024 16.4059 1.06343 16.574 1.18121C17.0003 1.47871 27.0003 8.58746 27.0003 18C27.0009 18.9882 26.8684 19.9721 26.6065 20.925C26.5485 21.1361 26.4228 21.3223 26.2487 21.4551C26.0746 21.5879 25.8617 21.6599 25.6428 21.66C25.5524 21.6608 25.4624 21.649 25.3753 21.625C25.1197 21.5546 24.9026 21.3856 24.7716 21.1552C24.6405 20.9248 24.6064 20.6518 24.6765 20.3962C24.8909 19.6155 24.9998 18.8096 25.0003 18C25.0003 10.845 18.0653 4.87496 16.0003 3.24996C14.8186 4.17883 13.705 5.19099 12.6678 6.27871C12.5772 6.3744 12.4686 6.45123 12.3482 6.5048C12.2278 6.55838 12.098 6.58763 11.9663 6.59088C11.8346 6.59413 11.7035 6.57132 11.5806 6.52376C11.4577 6.47619 11.3455 6.40481 11.2503 6.31371Z" fill="#222222"/>
</svg>
