<svg width="32" height="32" viewBox="0 0 32 32" fill="none" xmlns="http://www.w3.org/2000/svg">
<path d="M28.9997 25.0001C28.9997 25.2653 28.8943 25.5197 28.7068 25.7072C28.5193 25.8947 28.2649 26.0001 27.9997 26.0001H3.99968C3.73447 26.0001 3.48011 25.8947 3.29258 25.7072C3.10504 25.5197 2.99968 25.2653 2.99968 25.0001C2.99968 24.7349 3.10504 24.4805 3.29258 24.293C3.48011 24.1055 3.73447 24.0001 3.99968 24.0001H27.9997C28.2649 24.0001 28.5193 24.1055 28.7068 24.293C28.8943 24.4805 28.9997 24.7349 28.9997 25.0001ZM3.19843 18.8551C3.03279 18.5125 2.96833 18.1298 3.01261 17.7518C3.0569 17.3739 3.20808 17.0164 3.44843 16.7214L13.6572 4.1176C13.9397 3.76856 14.2967 3.48708 14.702 3.29371C15.1072 3.10035 15.5506 3 15.9997 3C16.4487 3 16.8921 3.10035 17.2974 3.29371C17.7027 3.48708 18.0597 3.76856 18.3422 4.1176L28.5484 16.7214C28.7873 17.0165 28.9379 17.3732 28.9827 17.7503C29.0275 18.1273 28.9647 18.5094 28.8015 18.8523C28.6384 19.1951 28.3815 19.4849 28.0607 19.688C27.7399 19.8911 27.3681 19.9993 26.9884 20.0001H5.01093C4.6313 20.0009 4.25926 19.8937 3.9383 19.691C3.61735 19.4882 3.36073 19.1983 3.19843 18.8551ZM4.99968 17.9889C4.99968 17.9889 4.99968 18.0001 5.00968 18.0026H26.9884C26.9884 18.0026 26.9984 17.9914 26.9984 17.9864L16.7872 5.3751C16.6923 5.25765 16.5723 5.16293 16.436 5.09785C16.2998 5.03277 16.1507 4.999 15.9997 4.999C15.8487 4.999 15.6996 5.03277 15.5633 5.09785C15.4271 5.16293 15.3071 5.25765 15.2122 5.3751L4.99968 17.9801C4.99932 17.983 4.99932 17.9859 4.99968 17.9889Z" fill="#222222"/>
</svg>
