<svg width="32" height="32" viewBox="0 0 32 32" fill="none" xmlns="http://www.w3.org/2000/svg">
<path d="M26 18.9999H6C5.46957 18.9999 4.96086 19.2106 4.58579 19.5857C4.21071 19.9608 4 20.4695 4 20.9999V23.9999C4 24.5304 4.21071 25.0391 4.58579 25.4141C4.96086 25.7892 5.46957 25.9999 6 25.9999H26C26.5304 25.9999 27.0391 25.7892 27.4142 25.4141C27.7893 25.0391 28 24.5304 28 23.9999V20.9999C28 20.4695 27.7893 19.9608 27.4142 19.5857C27.0391 19.2106 26.5304 18.9999 26 18.9999ZM26 23.9999H6V20.9999H26V23.9999ZM6.03 16.9999H25.97C26.3664 17.0018 26.7546 16.8872 27.0864 16.6703C27.4182 16.4534 27.679 16.1438 27.8363 15.7799C27.9917 15.4251 28.0378 15.032 27.9688 14.6508C27.8998 14.2697 27.7187 13.9177 27.4487 13.6399L18.2325 3.95117C17.9437 3.65036 17.597 3.41102 17.2134 3.24753C16.8297 3.08403 16.417 2.99976 16 2.99976C15.583 2.99976 15.1703 3.08403 14.7866 3.24753C14.403 3.41102 14.0563 3.65036 13.7675 3.95117L4.55125 13.6399C4.28128 13.9177 4.10023 14.2697 4.03121 14.6508C3.96219 15.032 4.00833 15.4251 4.16375 15.7799C4.32103 16.1438 4.58178 16.4534 4.91358 16.6703C5.24537 16.8872 5.6336 17.0018 6.03 16.9999ZM15.2163 5.32992C15.3183 5.22553 15.4403 5.14258 15.5749 5.08595C15.7094 5.02932 15.854 5.00015 16 5.00015C16.146 5.00015 16.2906 5.02932 16.4251 5.08595C16.5597 5.14258 16.6817 5.22553 16.7838 5.32992L25.9813 14.9999H6.0175L15.2163 5.32992Z" fill="#222222"/>
</svg>
