<svg width="32" height="32" viewBox="0 0 32 32" fill="none" xmlns="http://www.w3.org/2000/svg">
<path d="M21.829 10.1713C21.4965 8.38018 20.681 6.71394 19.4705 5.35249C18.2601 3.99103 16.7008 2.98608 14.9609 2.44615C13.2211 1.90621 11.3668 1.85181 9.59824 2.28881C7.82971 2.72581 6.21415 3.63761 4.926 4.92576C3.63785 6.21391 2.72605 7.82947 2.28905 9.59799C1.85205 11.3665 1.90646 13.2208 2.44639 14.9607C2.98632 16.7006 3.99127 18.2599 5.35273 19.4703C6.71419 20.6807 8.38042 21.4962 10.1715 21.8288C10.5041 23.6199 11.3196 25.2861 12.53 26.6476C13.7404 28.009 15.2998 29.014 17.0396 29.5539C18.7795 30.0939 20.6338 30.1483 22.4023 29.7113C24.1708 29.2743 25.7864 28.3625 27.0746 27.0743C28.3627 25.7862 29.2745 24.1706 29.7115 22.4021C30.1485 20.6335 30.0941 18.7792 29.5542 17.0394C29.0142 15.2995 28.0093 13.7402 26.6478 12.5298C25.2864 11.3194 23.6201 10.5038 21.829 10.1713ZM28.0003 20C28.0003 20.19 27.9915 20.375 27.9778 20.5638L21.7278 14.3138C21.8902 13.6372 21.9815 12.9456 22.0003 12.25C23.717 12.6957 25.2374 13.6984 26.3232 15.1008C27.409 16.5033 27.9988 18.2264 28.0003 20ZM26.3165 24.9013L19.739 18.325C20.225 17.7311 20.6415 17.0836 20.9803 16.395L27.4628 22.875C27.1815 23.6027 26.7954 24.2854 26.3165 24.9013ZM22.8753 27.4625L16.3928 20.98C17.0813 20.6412 17.7289 20.2248 18.3228 19.7388L24.899 26.3163C24.2839 26.7949 23.6021 27.1811 22.8753 27.4625ZM5.68403 7.09878L12.2615 13.675C11.7755 14.2689 11.3591 14.9165 11.0203 15.605L4.53778 9.12503C4.81902 8.39734 5.20519 7.7147 5.68403 7.09878ZM9.12528 4.53753L15.6078 11.02C14.9192 11.3588 14.2717 11.7753 13.6778 12.2613L7.09903 5.68378C7.71494 5.20495 8.39758 4.81878 9.12528 4.53753ZM20.0003 12C19.998 14.1211 19.1544 16.1545 17.6546 17.6543C16.1548 19.1541 14.1213 19.9977 12.0003 20C12.0026 17.879 12.8462 15.8455 14.346 14.3457C15.8458 12.8459 17.8793 12.0024 20.0003 12ZM19.7503 10C19.0558 10.0169 18.365 10.1062 17.689 10.2663L11.439 4.01628C11.6253 4.00878 11.8103 4.00003 12.0003 4.00003C13.7748 4.00186 15.4985 4.59259 16.901 5.67959C18.3036 6.76659 19.3058 8.28838 19.7503 10.0063V10ZM4.00028 12C4.00028 11.81 4.00903 11.625 4.02278 11.4363L10.2728 17.6863C10.1125 18.3631 10.0233 19.0547 10.0065 19.75C8.28862 19.3055 6.76684 18.3034 5.67984 16.9008C4.59284 15.4982 4.0021 13.7745 4.00028 12ZM12.2503 22C12.9447 21.9831 13.6356 21.8939 14.3115 21.7338L20.5615 27.9838C20.3753 27.9975 20.1865 28.0063 19.9978 28.0063C18.2237 28.0039 16.5006 27.4129 15.0985 26.326C13.6965 25.239 12.6947 23.7175 12.2503 22Z" fill="#222222"/>
</svg>
