<svg width="32" height="32" viewBox="0 0 32 32" fill="none" xmlns="http://www.w3.org/2000/svg">
<path d="M22 12.9999C22 13.2651 21.8946 13.5195 21.7071 13.707C21.5196 13.8946 21.2652 13.9999 21 13.9999H11C10.7348 13.9999 10.4804 13.8946 10.2929 13.707C10.1054 13.5195 10 13.2651 10 12.9999C10 12.7347 10.1054 12.4804 10.2929 12.2928C10.4804 12.1053 10.7348 11.9999 11 11.9999H21C21.2652 11.9999 21.5196 12.1053 21.7071 12.2928C21.8946 12.4804 22 12.7347 22 12.9999ZM21 15.9999H11C10.7348 15.9999 10.4804 16.1053 10.2929 16.2928C10.1054 16.4804 10 16.7347 10 16.9999C10 17.2651 10.1054 17.5195 10.2929 17.707C10.4804 17.8946 10.7348 17.9999 11 17.9999H21C21.2652 17.9999 21.5196 17.8946 21.7071 17.707C21.8946 17.5195 22 17.2651 22 16.9999C22 16.7347 21.8946 16.4804 21.7071 16.2928C21.5196 16.1053 21.2652 15.9999 21 15.9999ZM32 12.9999V15.9999C32 17.0608 31.5786 18.0782 30.8284 18.8284C30.0783 19.5785 29.0609 19.9999 28 19.9999H27.3512C26.4525 21.9749 24.6275 23.6787 21.9475 25.0199C20.1163 25.918 18.1776 26.578 16.1787 26.9837C16.0606 27.0054 15.9394 27.0054 15.8212 26.9837C13.8224 26.578 11.8837 25.918 10.0525 25.0199C7.375 23.6787 5.5475 21.9749 4.64875 19.9999H4C2.93913 19.9999 1.92172 19.5785 1.17157 18.8284C0.421427 18.0782 0 17.0608 0 15.9999V12.9999C0 11.9391 0.421427 10.9217 1.17157 10.1715C1.92172 9.42136 2.93913 8.99993 4 8.99993H4.10625C4.20078 8.7139 4.3587 8.45292 4.56822 8.23648C4.77774 8.02003 5.03345 7.85371 5.31625 7.74993L15.3162 4.11368C15.758 3.95364 16.242 3.95364 16.6838 4.11368L26.6838 7.74993C26.9666 7.85371 27.2223 8.02003 27.4318 8.23648C27.6413 8.45292 27.7992 8.7139 27.8937 8.99993H28C29.0609 8.99993 30.0783 9.42136 30.8284 10.1715C31.5786 10.9217 32 11.9391 32 12.9999ZM4.06875 17.9999C4.02308 17.6686 4.00011 17.3344 4 16.9999V10.9999C3.46957 10.9999 2.96086 11.2106 2.58579 11.5857C2.21071 11.9608 2 12.4695 2 12.9999V15.9999C2 16.5304 2.21071 17.0391 2.58579 17.4141C2.96086 17.7892 3.46957 17.9999 4 17.9999H4.06875ZM26 16.9999V9.63618L16 5.99993L6 9.63618V16.9999C6 22.6249 14.6362 24.6899 16 24.9799C17.3612 24.6899 26 22.6249 26 16.9999ZM30 12.9999C30 12.4695 29.7893 11.9608 29.4142 11.5857C29.0391 11.2106 28.5304 10.9999 28 10.9999V16.9999C27.9999 17.3344 27.9769 17.6686 27.9312 17.9999H28C28.5304 17.9999 29.0391 17.7892 29.4142 17.4141C29.7893 17.0391 30 16.5304 30 15.9999V12.9999Z" fill="#222222"/>
</svg>
