<svg width="32" height="32" viewBox="0 0 32 32" fill="none" xmlns="http://www.w3.org/2000/svg">
<path d="M31.0837 14.3325L20.06 7.31245C19.76 7.12066 19.4141 7.01292 19.0582 7.00048C18.7024 6.98804 18.3498 7.07135 18.0371 7.24172C17.7245 7.41209 17.4633 7.66327 17.2809 7.96902C17.0984 8.27478 17.0014 8.62391 17 8.97995V13.6425L7.06 7.31245C6.76002 7.12066 6.41406 7.01292 6.05823 7.00048C5.7024 6.98804 5.34976 7.07135 5.03712 7.24172C4.72448 7.41209 4.46331 7.66327 4.28088 7.96902C4.09844 8.27478 4.00144 8.62391 4 8.97995V23.02C4.00185 23.3758 4.0991 23.7247 4.28162 24.0302C4.46415 24.3357 4.72526 24.5867 5.03776 24.757C5.35026 24.9273 5.7027 25.0107 6.05838 24.9984C6.41405 24.9862 6.75994 24.8788 7.06 24.6875L17 18.3575V23.02C17.0018 23.3758 17.0991 23.7247 17.2816 24.0302C17.4641 24.3357 17.7253 24.5867 18.0378 24.757C18.3503 24.9273 18.7027 25.0107 19.0584 24.9984C19.4141 24.9862 19.7599 24.8788 20.06 24.6875L31.0837 17.6675C31.3646 17.4892 31.5959 17.2429 31.7561 16.9514C31.9164 16.6599 32.0004 16.3326 32.0004 16C32.0004 15.6673 31.9164 15.34 31.7561 15.0485C31.5959 14.757 31.3646 14.5107 31.0837 14.3325ZM6 22.9925V9.0087L16.9775 16L6 22.9925ZM19 22.9925V9.0087L29.9775 16L19 22.9925Z" fill="#222222"/>
</svg>
