<svg width="32" height="32" viewBox="0 0 32 32" fill="none" xmlns="http://www.w3.org/2000/svg">
<path d="M27.6596 4.34387C26.1594 2.84433 24.1251 2.00195 22.004 2.00195C19.8828 2.00195 17.8485 2.84433 16.3483 4.34387L7.58583 13.0001C7.39953 13.1853 7.25179 13.4056 7.15117 13.6483C7.05054 13.891 6.99902 14.1512 6.99958 14.4139V23.5864L3.29208 27.2926C3.19917 27.3855 3.12547 27.4958 3.07519 27.6172C3.0249 27.7386 2.99902 27.8687 2.99902 28.0001C2.99902 28.1315 3.0249 28.2616 3.07519 28.383C3.12547 28.5044 3.19917 28.6147 3.29208 28.7076C3.47972 28.8953 3.73422 29.0007 3.99958 29.0007C4.13097 29.0007 4.26108 28.9748 4.38248 28.9245C4.50387 28.8742 4.61417 28.8005 4.70708 28.7076L8.41458 25.0001H17.5871C17.8495 25.0005 18.1093 24.9491 18.3518 24.8487C18.5942 24.7483 18.8143 24.6009 18.9996 24.4151L27.6533 15.6651C28.3977 14.9225 28.9885 14.0405 29.3917 13.0694C29.7949 12.0983 30.0028 11.0573 30.0034 10.0058C30.004 8.95432 29.7972 7.91304 29.3951 6.94152C28.9929 5.97 28.4032 5.08729 27.6596 4.34387ZM17.7583 5.75762C18.863 4.65246 20.3552 4.02186 21.9177 3.99992C23.4801 3.97799 24.9895 4.56646 26.1247 5.64017C27.26 6.71388 27.9316 8.18812 27.9967 9.74935C28.0618 11.3106 27.5153 12.8356 26.4733 14.0001H19.4158L23.7096 9.70762C23.8972 9.51998 24.0026 9.26548 24.0026 9.00012C24.0026 8.73476 23.8972 8.48026 23.7096 8.29262C23.5219 8.10498 23.2674 7.99956 23.0021 7.99956C22.7367 7.99956 22.4822 8.10498 22.2946 8.29262L14.9996 15.5864V8.48387L17.7583 5.75762ZM8.99958 14.4189L12.9996 10.4601V17.5851L8.99958 21.5851V14.4189ZM17.5871 23.0001H10.4146L17.4146 16.0001H24.5071L17.5871 23.0001Z" fill="#222222"/>
</svg>
