<svg width="32" height="32" viewBox="0 0 32 32" fill="none" xmlns="http://www.w3.org/2000/svg">
<path d="M26.4998 12C26.0498 11.9976 25.6036 12.0825 25.186 12.25L21.3748 7.4925C21.688 7.04128 21.8907 6.52264 21.9664 5.97856C22.0421 5.43448 21.9886 4.88023 21.8103 4.36064C21.6321 3.84105 21.334 3.37071 20.9403 2.98767C20.5465 2.60463 20.0682 2.31965 19.5439 2.15578C19.0196 1.99191 18.464 1.95375 17.9223 2.04439C17.3805 2.13502 16.8676 2.35192 16.4252 2.67751C15.9828 3.00311 15.6232 3.42828 15.3756 3.91861C15.1279 4.40895 14.9992 4.95068 14.9998 5.5C14.9997 5.62274 15.006 5.7454 15.0185 5.8675L9.20975 8.2875C8.85984 7.85832 8.41309 7.51829 7.90621 7.29534C7.39932 7.0724 6.84677 6.97291 6.29396 7.00504C5.74114 7.03718 5.20384 7.20002 4.72621 7.4802C4.24857 7.76037 3.84422 8.14988 3.5464 8.61671C3.24857 9.08355 3.06577 9.61439 3.013 10.1656C2.96023 10.7168 3.03901 11.2727 3.24286 11.7876C3.44671 12.3024 3.76981 12.7616 4.18562 13.1273C4.60143 13.493 5.09808 13.7548 5.63475 13.8913L5.866 19.6888C5.3361 19.8697 4.85735 20.1751 4.46993 20.5794C4.08252 20.9837 3.79776 21.475 3.63955 22.0121C3.48135 22.5492 3.45432 23.1165 3.56074 23.6662C3.66716 24.2159 3.90392 24.7321 4.25115 25.1714C4.59837 25.6107 5.04592 25.9602 5.55622 26.1907C6.06651 26.4212 6.62466 26.5259 7.1838 26.496C7.74294 26.4661 8.28674 26.3025 8.76956 26.0189C9.25237 25.7353 9.6601 25.34 9.9585 24.8663L15.9998 26.5588C16.0082 27.1217 16.1524 27.6743 16.42 28.1696C16.6876 28.665 17.0708 29.0884 17.5369 29.4041C18.0031 29.7198 18.5386 29.9183 19.0979 29.9829C19.6572 30.0475 20.2238 29.9762 20.7496 29.7751C21.2755 29.574 21.7451 29.249 22.1185 28.8277C22.492 28.4063 22.7583 27.9011 22.8948 27.355C23.0314 26.8088 23.0342 26.2377 22.9029 25.6902C22.7717 25.1427 22.5103 24.6349 22.141 24.21L25.5423 18.8663C26.0237 19.0033 26.5289 19.0355 27.0238 18.9607C27.5187 18.8859 27.9918 18.7057 28.4112 18.4325C28.8305 18.1593 29.1864 17.7993 29.4548 17.3768C29.7232 16.9543 29.8979 16.4791 29.967 15.9834C30.0362 15.4877 29.9981 14.9829 29.8556 14.5031C29.713 14.0233 29.4692 13.5796 29.1406 13.2021C28.8119 12.8245 28.4061 12.5219 27.9506 12.3145C27.495 12.1071 27.0003 11.9999 26.4998 12ZM19.4998 23H19.3885L17.366 16.9338L23.1973 16.6563C23.3447 17.0694 23.5686 17.451 23.8573 17.7813L20.456 23.125C20.1445 23.0394 19.8227 22.9973 19.4998 23ZM7.86475 19.6088L7.6335 13.8113C8.10494 13.6489 8.53623 13.3876 8.8985 13.045L14.2148 16.125L9.03225 20.1525C8.68007 19.9006 8.2842 19.7162 7.86475 19.6088ZM18.696 9C19.0798 8.97904 19.4574 8.89456 19.8135 8.75L23.6248 13.5075C23.3817 13.8565 23.2046 14.2472 23.1023 14.66L17.281 14.9375L18.696 9ZM10.261 21.7313L15.4998 17.6575L17.4923 23.6363C17.1128 23.9038 16.79 24.2436 16.5423 24.6363L10.4998 22.9413C10.4924 22.527 10.4116 22.1173 10.261 21.7313ZM18.4998 4C18.7964 4 19.0864 4.08798 19.3331 4.2528C19.5798 4.41762 19.772 4.65189 19.8856 4.92598C19.9991 5.20007 20.0288 5.50167 19.9709 5.79264C19.9131 6.08361 19.7702 6.35088 19.5604 6.56066C19.3506 6.77044 19.0834 6.9133 18.7924 6.97118C18.5014 7.02906 18.1998 6.99935 17.9257 6.88582C17.6516 6.77229 17.4174 6.58003 17.2526 6.33336C17.0877 6.08668 16.9998 5.79667 16.9998 5.5C16.9998 5.10218 17.1578 4.72065 17.4391 4.43934C17.7204 4.15804 18.1019 4 18.4998 4ZM15.7898 7.7125C16.0585 8.04003 16.3836 8.31688 16.7498 8.53L15.3373 14.4613L9.9035 11.315C9.96744 11.048 9.99974 10.7745 9.99975 10.5C9.99981 10.3773 9.99355 10.2546 9.981 10.1325L15.7898 7.7125ZM4.99975 10.5C4.99975 10.2033 5.08773 9.91332 5.25255 9.66665C5.41737 9.41997 5.65164 9.22771 5.92573 9.11418C6.19982 9.00065 6.50142 8.97095 6.79239 9.02882C7.08336 9.0867 7.35064 9.22956 7.56041 9.43934C7.77019 9.64912 7.91305 9.91639 7.97093 10.2074C8.02881 10.4983 7.9991 10.7999 7.88557 11.074C7.77204 11.3481 7.57978 11.5824 7.33311 11.7472C7.08644 11.912 6.79643 12 6.49975 12C6.10193 12 5.7204 11.842 5.43909 11.5607C5.15779 11.2794 4.99975 10.8978 4.99975 10.5ZM6.99975 24.5C6.70308 24.5 6.41307 24.412 6.1664 24.2472C5.91972 24.0824 5.72747 23.8481 5.61393 23.574C5.5004 23.2999 5.4707 22.9983 5.52858 22.7074C5.58645 22.4164 5.72931 22.1491 5.93909 21.9393C6.14887 21.7296 6.41615 21.5867 6.70712 21.5288C6.99809 21.4709 7.29969 21.5007 7.57378 21.6142C7.84787 21.7277 8.08214 21.92 8.24696 22.1666C8.41178 22.4133 8.49975 22.7033 8.49975 23C8.49975 23.3978 8.34172 23.7794 8.06041 24.0607C7.77911 24.342 7.39758 24.5 6.99975 24.5ZM19.4998 28C19.2031 28 18.9131 27.912 18.6664 27.7472C18.4197 27.5824 18.2275 27.3481 18.1139 27.074C18.0004 26.7999 17.9707 26.4983 18.0286 26.2074C18.0865 25.9164 18.2293 25.6491 18.4391 25.4393C18.6489 25.2296 18.9161 25.0867 19.2071 25.0288C19.4981 24.9709 19.7997 25.0007 20.0738 25.1142C20.3479 25.2277 20.5821 25.42 20.747 25.6666C20.9118 25.9133 20.9998 26.2033 20.9998 26.5C20.9998 26.8978 20.8417 27.2794 20.5604 27.5607C20.2791 27.842 19.8976 28 19.4998 28ZM26.4998 17C26.2031 17 25.9131 16.912 25.6664 16.7472C25.4197 16.5824 25.2275 16.3481 25.1139 16.074C25.0004 15.7999 24.9707 15.4983 25.0286 15.2074C25.0865 14.9164 25.2293 14.6491 25.4391 14.4393C25.6489 14.2296 25.9161 14.0867 26.2071 14.0288C26.4981 13.9709 26.7997 14.0007 27.0738 14.1142C27.3479 14.2277 27.5821 14.42 27.747 14.6666C27.9118 14.9133 27.9998 15.2033 27.9998 15.5C27.9998 15.8978 27.8417 16.2794 27.5604 16.5607C27.2791 16.842 26.8976 17 26.4998 17Z" fill="#222222"/>
</svg>
