<svg width="32" height="32" viewBox="0 0 32 32" fill="none" xmlns="http://www.w3.org/2000/svg">
<path d="M27.0004 12.9999H12.7617L26.2504 9.43867C26.3781 9.40502 26.4979 9.34643 26.6028 9.26626C26.7077 9.1861 26.7957 9.08595 26.8617 8.9716C26.9277 8.85724 26.9704 8.73095 26.9874 8.6C27.0043 8.46906 26.9952 8.33605 26.9604 8.20866L25.9404 4.45866C25.8 3.95415 25.4666 3.52525 25.0122 3.26485C24.5578 3.00445 24.0192 2.93352 23.5129 3.06742L4.47668 8.09241C4.22321 8.15821 3.98542 8.27391 3.77722 8.43274C3.56903 8.59157 3.39461 8.79034 3.26418 9.01742C3.13302 9.2417 3.04828 9.49006 3.015 9.74774C2.98171 10.0054 3.00056 10.2672 3.07043 10.5174L4.00043 13.9449C4.00043 13.9624 4.00043 13.9812 4.00043 13.9999V24.9999C4.00043 25.5303 4.21114 26.0391 4.58621 26.4141C4.96129 26.7892 5.46999 26.9999 6.00043 26.9999H26.0004C26.5309 26.9999 27.0396 26.7892 27.4146 26.4141C27.7897 26.0391 28.0004 25.5303 28.0004 24.9999V13.9999C28.0004 13.7347 27.8951 13.4803 27.7075 13.2928C27.52 13.1053 27.2656 12.9999 27.0004 12.9999ZM24.0204 4.99992L24.7704 7.75867L21.9429 8.50867L18.4279 6.47867L24.0204 4.99992ZM15.6842 7.19991L19.1992 9.22991L14.5817 10.4487L11.0667 8.42117L15.6842 7.19991ZM5.75918 12.7774L5.00918 10.0174L8.32168 9.14242L11.8367 11.1749L5.75918 12.7774ZM26.0004 24.9999H6.00043V14.9999H26.0004V24.9999Z" fill="#222222"/>
</svg>
