<svg width="32" height="32" viewBox="0 0 32 32" fill="none" xmlns="http://www.w3.org/2000/svg">
<path d="M27.2875 6.04248L19.7025 3.76748L23.4525 1.89248C23.6894 1.77313 23.8691 1.56458 23.9522 1.31269C24.0353 1.06081 24.015 0.786226 23.8956 0.549355C23.7763 0.312483 23.5677 0.132724 23.3158 0.0496219C23.064 -0.0334802 22.7894 -0.0131178 22.5525 0.10623L16.75 3.00623C14.1422 3.07399 11.6639 4.15708 9.84284 6.02487C8.02174 7.89266 7.00173 10.3976 7 13.0062V26C7 26.2652 7.10536 26.5196 7.29289 26.7071C7.48043 26.8946 7.73478 27 8 27C8.26522 27 8.51957 26.8946 8.70711 26.7071C8.89464 26.5196 9 26.2652 9 26V22H11V29C11 29.5304 11.2107 30.0391 11.5858 30.4142C11.9609 30.7893 12.4696 31 13 31H21C21.5304 31 22.0391 30.7893 22.4142 30.4142C22.7893 30.0391 23 29.5304 23 29V13C22.998 11.5827 22.4951 10.2118 21.5802 9.12941C20.6652 8.04704 19.3971 7.32291 18 7.08498V5.34373L26.7125 7.95748C26.8392 7.99875 26.9729 8.01428 27.1057 8.00315C27.2385 7.99202 27.3678 7.95446 27.4859 7.89267C27.6039 7.83087 27.7085 7.7461 27.7933 7.64333C27.8782 7.54056 27.9416 7.42187 27.98 7.29422C28.0183 7.16658 28.0307 7.03256 28.0165 6.90005C28.0023 6.76754 27.9617 6.6392 27.8972 6.52258C27.8327 6.40596 27.7456 6.30342 27.6408 6.22097C27.5361 6.13852 27.416 6.07784 27.2875 6.04248ZM9 20V13C9.00242 11.0524 9.71449 9.17235 11.0029 7.71181C12.2914 6.25127 14.0679 5.31029 16 5.06498V7.08498C14.6029 7.32291 13.3348 8.04704 12.4198 9.12941C11.5049 10.2118 11.002 11.5827 11 13V20H9ZM21 29H13V22H21V29ZM21 13V20H13V13C13 11.9391 13.4214 10.9217 14.1716 10.1716C14.9217 9.42141 15.9391 8.99998 17 8.99998C18.0609 8.99998 19.0783 9.42141 19.8284 10.1716C20.5786 10.9217 21 11.9391 21 13Z" fill="#222222"/>
</svg>
