<svg width="32" height="32" viewBox="0 0 32 32" fill="none" xmlns="http://www.w3.org/2000/svg">
<path d="M29.8448 6.46625C29.7547 6.32355 29.63 6.20596 29.4823 6.12444C29.3345 6.04292 29.1686 6.00011 28.9998 6H4.99981C4.80192 5.99984 4.60842 6.05841 4.44383 6.16828C4.27923 6.27815 4.15094 6.43439 4.07519 6.61721C3.99944 6.80003 3.97963 7.00122 4.01828 7.19531C4.05693 7.38939 4.1523 7.56764 4.29231 7.7075L9.58606 13L4.29231 18.2925C4.1523 18.4324 4.05693 18.6106 4.01828 18.8047C3.97963 18.9988 3.99944 19.2 4.07519 19.3828C4.15094 19.5656 4.27923 19.7218 4.44383 19.8317C4.60842 19.9416 4.80192 20.0002 4.99981 20H21.7023L18.0973 27.57C18.037 27.689 18.0012 27.8188 17.9918 27.9518C17.9824 28.0849 17.9998 28.2185 18.0428 28.3447C18.0859 28.4709 18.1537 28.5873 18.2424 28.6869C18.3311 28.7865 18.4388 28.8674 18.5592 28.9248C18.6796 28.9821 18.8103 29.0148 18.9435 29.0209C19.0767 29.0271 19.2098 29.0065 19.335 28.9604C19.4601 28.9143 19.5748 28.8436 19.6722 28.7525C19.7697 28.6614 19.8479 28.5518 19.9023 28.43L29.9023 7.43C29.9749 7.27756 30.0076 7.10924 29.9976 6.94073C29.9875 6.77221 29.935 6.60898 29.8448 6.46625ZM22.6536 18H7.41356L11.7073 13.7075C11.8003 13.6146 11.874 13.5043 11.9244 13.3829C11.9747 13.2615 12.0006 13.1314 12.0006 13C12.0006 12.8686 11.9747 12.7385 11.9244 12.6171C11.874 12.4957 11.8003 12.3854 11.7073 12.2925L7.41356 8H27.4136L22.6536 18Z" fill="#222222"/>
</svg>
