<svg width="32" height="32" viewBox="0 0 32 32" fill="none" xmlns="http://www.w3.org/2000/svg">
<path d="M29.8412 5.45875C29.7505 5.31798 29.626 5.20221 29.4791 5.12205C29.3321 5.0419 29.1673 4.99994 28.9999 5H18.9999C18.808 5.00008 18.6201 5.05539 18.4587 5.15935C18.2974 5.2633 18.1693 5.4115 18.0899 5.58625L16.9924 8H3.4999C3.3062 8.00002 3.11667 8.05629 2.95435 8.16199C2.79202 8.26768 2.66389 8.41825 2.58551 8.59538C2.50714 8.77252 2.4819 8.96861 2.51285 9.15982C2.54381 9.35104 2.62964 9.52914 2.7599 9.6725L7.14865 14.5L2.7599 19.3275C2.62964 19.4709 2.54381 19.649 2.51285 19.8402C2.4819 20.0314 2.50714 20.2275 2.58551 20.4046C2.66389 20.5818 2.79202 20.7323 2.95435 20.838C3.11667 20.9437 3.3062 21 3.4999 21H12.6362C12.8281 20.9999 13.016 20.9446 13.1773 20.8407C13.3387 20.7367 13.4667 20.5885 13.5462 20.4137L14.6437 18H22.4474L18.0899 27.5863C18.0314 27.7063 17.9975 27.8369 17.9903 27.9703C17.9831 28.1036 18.0027 28.2371 18.0479 28.3628C18.0931 28.4885 18.1631 28.6038 18.2536 28.702C18.3441 28.8002 18.4534 28.8793 18.575 28.9346C18.6966 28.9899 18.828 29.0202 18.9615 29.0239C19.095 29.0276 19.2279 29.0044 19.3523 28.9559C19.4768 28.9073 19.5902 28.8343 19.686 28.7412C19.7817 28.6481 19.8579 28.5368 19.9099 28.4137L29.9099 6.41375C29.9792 6.26152 30.0093 6.09433 29.9973 5.92749C29.9852 5.76064 29.9316 5.59948 29.8412 5.45875ZM11.9924 19H5.7599L9.2399 15.1725C9.40714 14.9884 9.49981 14.7487 9.49981 14.5C9.49981 14.2513 9.40714 14.0116 9.2399 13.8275L5.7599 10H16.0837L11.9924 19ZM23.3562 16H15.5524L19.6437 7H27.4474L23.3562 16Z" fill="#222222"/>
</svg>
