<svg width="32" height="32" viewBox="0 0 32 32" fill="none" xmlns="http://www.w3.org/2000/svg">
<path d="M13.3972 3.04131C12.9447 2.94604 12.4731 3.01196 12.0641 3.22768C11.655 3.44339 11.3342 3.79532 11.1572 4.22256L11.1497 4.24006L3.14974 24.2313C3.02308 24.5355 2.97355 24.8663 3.00555 25.1943C3.03754 25.5222 3.15008 25.8372 3.33315 26.1112C3.51622 26.3852 3.76415 26.6097 4.05491 26.7648C4.34566 26.9198 4.67022 27.0007 4.99974 27.0001H12.9997C13.5302 27.0001 14.0389 26.7893 14.414 26.4143C14.789 26.0392 14.9997 25.5305 14.9997 25.0001V5.00006C15.003 4.53792 14.8446 4.08918 14.552 3.73148C14.2593 3.37379 13.8509 3.12965 13.3972 3.04131ZM12.9997 25.0001H4.99974L5.00724 24.9813L12.9997 5.00006V25.0001ZM28.846 24.2313L20.846 4.24006L20.8385 4.22256C20.6576 3.79971 20.3364 3.45213 19.9292 3.23838C19.522 3.02463 19.0535 2.95778 18.6027 3.04908C18.1519 3.14038 17.7464 3.38425 17.4544 3.73962C17.1624 4.09499 17.0019 4.54013 16.9997 5.00006V25.0001C16.9997 25.5305 17.2105 26.0392 17.5855 26.4143C17.9606 26.7893 18.4693 27.0001 18.9997 27.0001H26.9997C27.3291 27.0002 27.6533 26.9191 27.9437 26.7639C28.2342 26.6086 28.4817 26.3841 28.6645 26.1102C28.8473 25.8362 28.9596 25.5214 28.9915 25.1936C29.0234 24.8659 28.9738 24.5353 28.8472 24.2313H28.846ZM18.9997 25.0001V5.00006L26.991 24.9801L26.9985 24.9988L18.9997 25.0001Z" fill="#222222"/>
</svg>
