<svg width="32" height="32" viewBox="0 0 32 32" fill="none" xmlns="http://www.w3.org/2000/svg">
<path d="M26.0004 13V5C26.0004 4.73479 25.895 4.48043 25.7075 4.2929C25.5199 4.10536 25.2656 4 25.0004 4H7.00036C6.79704 3.99953 6.59841 4.06105 6.43095 4.17635C6.26348 4.29165 6.13515 4.45526 6.06304 4.64537C5.99094 4.83547 5.97849 5.04304 6.02737 5.24039C6.07625 5.43775 6.18412 5.61552 6.33661 5.75L13.3754 12H7.00036C6.73515 12 6.48079 12.1054 6.29326 12.2929C6.10572 12.4804 6.00036 12.7348 6.00036 13V21C6.00026 21.1314 6.02604 21.2615 6.07623 21.3829C6.12641 21.5042 6.20003 21.6146 6.29286 21.7075L15.2929 30.7075C15.4327 30.8475 15.611 30.9429 15.8051 30.9815C15.9991 31.0202 16.2003 31.0004 16.3832 30.9246C16.566 30.8489 16.7222 30.7206 16.8321 30.556C16.942 30.3914 17.0005 30.1979 17.0004 30V22H25.0004C25.2037 22.0005 25.4023 21.939 25.5698 21.8237C25.7372 21.7084 25.8656 21.5447 25.9377 21.3546C26.0098 21.1645 26.0222 20.957 25.9734 20.7596C25.9245 20.5623 25.8166 20.3845 25.6641 20.25L18.6254 14H25.0004C25.2656 14 25.5199 13.8946 25.7075 13.7071C25.895 13.5196 26.0004 13.2652 26.0004 13ZM22.3754 20H16.0004C15.7351 20 15.4808 20.1054 15.2933 20.2929C15.1057 20.4804 15.0004 20.7348 15.0004 21V27.5863L8.00036 20.5863V14H15.6254L22.3754 20ZM24.0004 12H16.3754L9.62536 6H24.0004V12Z" fill="#222222"/>
</svg>
