<svg width="32" height="32" viewBox="0 0 32 32" fill="none" xmlns="http://www.w3.org/2000/svg">
<path d="M27.0003 4H21.0003C20.7351 4 20.4807 4.10536 20.2932 4.29289C20.1057 4.48043 20.0003 4.73478 20.0003 5C20.0003 5.26522 20.1057 5.51957 20.2932 5.70711C20.4807 5.89464 20.7351 6 21.0003 6H24.5865L19.3278 11.2587C17.3414 9.63509 14.807 8.83697 12.2487 9.02946C9.69043 9.22195 7.30398 10.3903 5.58294 12.2929C3.8619 14.1956 2.93794 16.6869 3.00216 19.2516C3.06638 21.8163 4.11386 24.2582 5.92796 26.0723C7.74206 27.8864 10.184 28.9339 12.7487 28.9981C15.3134 29.0624 17.8047 28.1384 19.7074 26.4174C21.61 24.6963 22.7783 22.3099 22.9708 19.7516C23.1633 17.1933 22.3652 14.6589 20.7415 12.6725L26.0003 7.415V11C26.0003 11.2652 26.1057 11.5196 26.2932 11.7071C26.4807 11.8946 26.7351 12 27.0003 12C27.2655 12 27.5199 11.8946 27.7074 11.7071C27.8949 11.5196 28.0003 11.2652 28.0003 11V5C28.0003 4.73478 27.8949 4.48043 27.7074 4.29289C27.5199 4.10536 27.2655 4 27.0003 4ZM18.6553 24.6612C17.5363 25.7797 16.1109 26.5413 14.5591 26.8497C13.0074 27.1581 11.399 26.9994 9.93742 26.3938C8.47582 25.7882 7.2266 24.7628 6.34771 23.4473C5.46882 22.1318 4.99972 20.5852 4.99972 19.0031C4.99972 17.421 5.46882 15.8745 6.34771 14.5589C7.2266 13.2434 8.47582 12.218 9.93742 11.6124C11.399 11.0068 13.0074 10.8482 14.5591 11.1566C16.1109 11.465 17.5363 12.2265 18.6553 13.345C20.1533 14.847 20.9945 16.8818 20.9945 19.0031C20.9945 21.1245 20.1533 23.1592 18.6553 24.6612Z" fill="#222222"/>
</svg>
