<svg width="32" height="32" viewBox="0 0 32 32" fill="none" xmlns="http://www.w3.org/2000/svg">
<path d="M6.65523 19.0613L23.1077 13.0001L6.65523 6.9388C6.52704 6.89735 6.40854 6.83042 6.30686 6.74204C6.20517 6.65365 6.1224 6.54563 6.0635 6.42445C6.00461 6.30328 5.9708 6.17146 5.96412 6.03689C5.95744 5.90233 5.97802 5.76781 6.02462 5.6414C6.07123 5.51499 6.14289 5.39929 6.23532 5.30127C6.32775 5.20325 6.43903 5.12491 6.56249 5.07096C6.68595 5.01702 6.81903 4.98858 6.95375 4.98735C7.08848 4.98612 7.22206 5.01212 7.34648 5.0638L26.3465 12.0638C26.5379 12.1348 26.7029 12.2627 26.8195 12.4303C26.936 12.5979 26.9985 12.7972 26.9985 13.0013C26.9985 13.2054 26.936 13.4047 26.8195 13.5723C26.7029 13.7399 26.5379 13.8678 26.3465 13.9388L7.34648 20.9388C7.2355 20.9792 7.11833 20.9999 7.00023 21C6.76533 21.0001 6.53789 20.9175 6.3578 20.7667C6.1777 20.6159 6.05645 20.4065 6.01529 20.1752C5.97414 19.944 6.01571 19.7056 6.13272 19.5019C6.24974 19.2982 6.43472 19.1422 6.65523 19.0613ZM26.0002 24H7.00023C6.73501 24 6.48066 24.1054 6.29312 24.2929C6.10559 24.4805 6.00023 24.7348 6.00023 25C6.00023 25.2653 6.10559 25.5196 6.29312 25.7072C6.48066 25.8947 6.73501 26 7.00023 26H26.0002C26.2654 26 26.5198 25.8947 26.7073 25.7072C26.8949 25.5196 27.0002 25.2653 27.0002 25C27.0002 24.7348 26.8949 24.4805 26.7073 24.2929C26.5198 24.1054 26.2654 24 26.0002 24Z" fill="#222222"/>
</svg>
