<svg width="32" height="32" viewBox="0 0 32 32" fill="none" xmlns="http://www.w3.org/2000/svg">
<path d="M31.2075 5.79261L26.2075 0.792614C26.0199 0.605139 25.7654 0.499883 25.5002 0.5C25.235 0.500117 24.9806 0.605599 24.7931 0.793239C24.6057 0.98088 24.5004 1.23531 24.5005 1.50056C24.5006 1.7658 24.6061 2.02014 24.7938 2.20761L25.0863 2.50011L17.565 10.0201C14.7163 8.53761 11.5263 8.66136 9.59377 10.5926C9.08378 11.1048 8.68429 11.7161 8.42002 12.3889C8.33886 12.5712 8.20646 12.7261 8.03891 12.8346C7.87136 12.9431 7.67589 13.0006 7.47627 13.0001C5.65252 13.0614 4.06877 13.7151 2.89502 14.8889C1.38502 16.4026 0.750017 18.5751 1.09252 21.0089C1.42502 23.3376 2.63377 25.6439 4.50002 27.5001C6.36627 29.3564 8.66752 30.5701 11 30.9026C11.418 30.9651 11.8399 30.9977 12.2625 31.0001C14.1775 31.0001 15.8663 30.3464 17.1075 29.1051C18.2813 27.9314 18.935 26.3476 18.9963 24.5239C18.9961 24.3238 19.0541 24.1281 19.1633 23.9605C19.2725 23.7929 19.4282 23.6607 19.6113 23.5801C20.2842 23.3163 20.8957 22.9168 21.4075 22.4064C23.3388 20.4739 23.4625 17.2814 21.98 14.4351L29.5 6.91386L29.7925 7.20636C29.8853 7.29927 29.9956 7.37299 30.1169 7.42331C30.2382 7.47362 30.3682 7.49955 30.4996 7.4996C30.6309 7.49966 30.761 7.47385 30.8823 7.42364C31.0037 7.37344 31.114 7.29982 31.2069 7.20699C31.2998 7.11416 31.3735 7.00394 31.4238 6.88262C31.4741 6.76131 31.5001 6.63127 31.5001 6.49993C31.5002 6.36859 31.4744 6.23853 31.4242 6.11717C31.374 5.99581 31.3003 5.88552 31.2075 5.79261ZM20 20.9914C19.6813 21.3088 19.3004 21.5569 18.8813 21.7201C18.3366 21.9445 17.8691 22.3229 17.5361 22.8089C17.2031 23.2949 17.019 23.8674 17.0063 24.4564C16.9613 25.7639 16.5063 26.8826 15.7025 27.6914C14.6475 28.7451 13.0775 29.1851 11.2825 28.9276C9.37502 28.6564 7.46627 27.6489 5.90877 26.0914C4.35127 24.5339 3.34377 22.6251 3.07252 20.7264C2.82252 18.9301 3.25502 17.3614 4.30877 16.3064C5.11752 15.5001 6.23627 15.0464 7.54377 15.0001C8.13283 14.9877 8.70549 14.8037 9.19153 14.4707C9.67756 14.1376 10.0559 13.67 10.28 13.1251C10.4425 12.7037 10.6907 12.3207 11.0088 12.0001C11.695 11.3139 12.6338 10.9839 13.6813 10.9839C14.5053 10.9971 15.3184 11.1751 16.0725 11.5076L13.5625 14.0239C12.8132 14.1064 12.1025 14.3989 11.5123 14.8678C10.922 15.3366 10.4763 15.9627 10.2264 16.6739C9.97657 17.3851 9.93275 18.1524 10.1 18.8874C10.2673 19.6225 10.6388 20.2952 11.1719 20.8283C11.7049 21.3613 12.3777 21.7328 13.1127 21.9001C13.8477 22.0674 14.615 22.0236 15.3262 21.7737C16.0374 21.5238 16.6635 21.0781 17.1324 20.4878C17.6012 19.8976 17.8938 19.1869 17.9763 18.4376L20.4863 15.9276C21.3013 17.8389 21.1838 19.8014 20 20.9914ZM18.7 13.3064C18.9642 13.5721 19.2118 13.8539 19.4413 14.1501L17.5138 16.0776C17.1461 15.4099 16.5964 14.8603 15.9288 14.4926L17.8563 12.5639C18.1504 12.794 18.4301 13.042 18.6938 13.3064H18.7ZM14 16.0001C14.5304 16.0001 15.0392 16.2108 15.4142 16.5859C15.7893 16.961 16 17.4697 16 18.0001C16 18.3957 15.8827 18.7824 15.663 19.1113C15.4432 19.4402 15.1308 19.6965 14.7654 19.8479C14.3999 19.9992 13.9978 20.0389 13.6098 19.9617C13.2219 19.8845 12.8655 19.694 12.5858 19.4143C12.3061 19.1346 12.1156 18.7783 12.0384 18.3903C11.9613 18.0023 12.0009 17.6002 12.1523 17.2347C12.3036 16.8693 12.56 16.5569 12.8889 16.3372C13.2178 16.1174 13.6045 16.0001 14 16.0001ZM20.1063 11.8939C19.841 11.6296 19.5623 11.3793 19.2713 11.1439L22 8.41386L23.5863 10.0001L20.8575 12.7276C20.6221 12.4365 20.3717 12.1578 20.1075 11.8926L20.1063 11.8939ZM25 8.58511L23.415 7.00011L26.5 3.91386L28.0863 5.50011L25 8.58511ZM11.7075 24.2914C11.8004 24.3842 11.8741 24.4944 11.9245 24.6157C11.9748 24.737 12.0007 24.8671 12.0008 24.9984C12.0008 25.1298 11.975 25.2598 11.9248 25.3812C11.8746 25.5025 11.801 25.6128 11.7081 25.7057C11.6153 25.7987 11.5051 25.8724 11.3838 25.9227C11.2625 25.973 11.1324 25.9989 11.0011 25.999C10.8697 25.999 10.7397 25.9732 10.6183 25.923C10.497 25.8728 10.3867 25.7992 10.2938 25.7064L6.29377 21.7064C6.10629 21.5187 6.00104 21.2643 6.00115 20.999C6.00127 20.7338 6.10675 20.4795 6.29439 20.292C6.48203 20.1045 6.73646 19.9993 7.00171 19.9994C7.26696 19.9995 7.52129 20.105 7.70877 20.2926L11.7075 24.2914Z" fill="#222222"/>
</svg>
