<svg width="32" height="32" viewBox="0 0 32 32" fill="none" xmlns="http://www.w3.org/2000/svg">
<path d="M26.5301 3.7502C26.1829 3.15295 25.6669 2.67178 25.0468 2.36728C24.4267 2.06279 23.7304 1.94859 23.0456 2.03907C22.3607 2.12956 21.718 2.42067 21.1983 2.87576C20.6786 3.33084 20.3052 3.92954 20.1251 4.59645L18.5001 10.6364L16.8813 4.59645C16.7769 4.1372 16.581 3.70374 16.3051 3.32202C16.0293 2.94031 15.6792 2.61819 15.2759 2.37497C14.8726 2.13174 14.4244 1.9724 13.9581 1.9065C13.4918 1.8406 13.0169 1.86949 12.562 1.99144C12.1071 2.1134 11.6815 2.3259 11.3107 2.61622C10.9399 2.90655 10.6315 3.26873 10.4039 3.68107C10.1764 4.09342 10.0344 4.54744 9.9865 5.01595C9.93858 5.48446 9.98571 5.95783 10.1251 6.4077L11.2976 10.7827L10.2063 10.5727C9.46026 10.4192 8.68449 10.5132 7.99672 10.8405C7.30895 11.1679 6.74674 11.7106 6.3954 12.3864C6.04406 13.0622 5.92277 13.8342 6.04994 14.5852C6.17712 15.3362 6.54581 16.0252 7.10006 16.5477C6.75021 16.8758 6.47192 17.2727 6.28263 17.7135C6.09334 18.1542 5.99714 18.6293 6.00006 19.1089V20.0002C6.00006 22.6524 7.05363 25.1959 8.929 27.0713C10.8044 28.9466 13.3479 30.0002 16.0001 30.0002H16.0763C21.5488 29.9589 26.0001 25.4227 26.0001 19.8877V19.4702C25.9991 17.9185 25.4814 16.4113 24.5288 15.1864L26.8751 6.4077C26.9963 5.96395 27.0283 5.50054 26.969 5.04435C26.9098 4.58816 26.7606 4.14827 26.5301 3.7502ZM12.2013 4.7502C12.3494 4.4926 12.5708 4.28481 12.8372 4.15317C13.1036 4.02154 13.4031 3.972 13.6977 4.01083C13.9923 4.04967 14.2687 4.17513 14.4919 4.3713C14.7151 4.56747 14.875 4.82551 14.9513 5.1127L16.7976 12.0064C16.1713 12.0448 15.5669 12.2507 15.0476 12.6027C15.0416 12.5914 15.035 12.5806 15.0276 12.5702C14.6546 12.0042 14.1234 11.5604 13.5001 11.2939L12.0526 5.8902C12.0008 5.69978 11.9872 5.50098 12.0128 5.3053C12.0383 5.10962 12.1024 4.92095 12.2013 4.7502ZM8.03131 13.7002C8.07089 13.5062 8.14847 13.322 8.2596 13.1581C8.37072 12.9942 8.51319 12.854 8.67878 12.7455C8.84437 12.6369 9.02981 12.5622 9.2244 12.5257C9.41899 12.4892 9.61889 12.4916 9.81256 12.5327L12.4013 13.0327C12.5944 13.0721 12.7778 13.1491 12.9411 13.2593C13.1044 13.3696 13.2443 13.5109 13.353 13.6753C13.4616 13.8397 13.5369 14.0238 13.5743 14.2173C13.6118 14.4107 13.6108 14.6096 13.5713 14.8027C13.5317 14.9967 13.4542 15.1809 13.343 15.3448C13.2319 15.5087 13.0894 15.6489 12.9239 15.7574C12.7583 15.866 12.5728 15.9407 12.3782 15.9772C12.1836 16.0137 11.9837 16.0113 11.7901 15.9702L9.19631 15.4702C8.80759 15.3896 8.46669 15.1581 8.24832 14.8266C8.02994 14.495 7.95191 14.0904 8.03131 13.7014V13.7002ZM8.03131 18.7902C8.11071 18.4042 8.33878 18.065 8.66624 17.8459C8.9937 17.6267 9.39425 17.5452 9.78131 17.6189L11.0451 17.8689C11.4347 17.9485 11.7768 18.1794 11.9962 18.5111C12.2156 18.8428 12.2943 19.248 12.2151 19.6377C12.1756 19.8312 12.0983 20.0149 11.9877 20.1785C11.877 20.342 11.7352 20.4821 11.5703 20.5906C11.4053 20.6992 11.2206 20.7742 11.0267 20.8112C10.8327 20.8483 10.6334 20.8466 10.4401 20.8064L9.19006 20.5564C8.80062 20.4764 8.45889 20.245 8.23997 19.9131C8.02105 19.5812 7.94285 19.176 8.02256 18.7864L8.03131 18.7902ZM24.0001 19.8877C24.0001 24.3289 20.4388 27.9677 16.0626 28.0002C14.35 28.0124 12.6787 27.4753 11.2938 26.4679C9.9089 25.4605 8.88332 24.0357 8.36756 22.4027C8.51012 22.4508 8.65536 22.4904 8.80256 22.5214L10.0526 22.7714C10.2834 22.8185 10.5183 22.8423 10.7538 22.8427C11.3698 22.8425 11.9749 22.6798 12.5079 22.3709C13.0409 22.062 13.4829 21.6179 13.7893 21.0835C14.0957 20.5491 14.2556 19.9433 14.2529 19.3273C14.2502 18.7113 14.0849 18.1069 13.7738 17.5752C13.8726 17.5214 13.9701 17.4639 14.0638 17.4002L14.0838 17.4327C14.3366 17.8174 14.6632 18.148 15.0447 18.4055C15.4262 18.663 15.855 18.8422 16.3063 18.9327L17.0963 19.0902C16.9466 19.8129 16.9769 20.5614 17.1847 21.2696C17.3924 21.9778 17.7712 22.6241 18.2876 23.1514C18.4749 23.3332 18.726 23.4345 18.987 23.4337C19.2481 23.4328 19.4985 23.33 19.6847 23.147C19.8709 22.9641 19.9782 22.7155 19.9836 22.4545C19.9891 22.1935 19.8922 21.9408 19.7138 21.7502C19.34 21.3688 19.0982 20.8777 19.0237 20.3489C18.9492 19.82 19.0461 19.2812 19.3001 18.8114C19.3747 18.6738 19.4161 18.5206 19.4207 18.3641C19.4254 18.2076 19.3932 18.0522 19.3268 17.9104C19.2604 17.7686 19.1616 17.6444 19.0384 17.5477C18.9152 17.4511 18.7711 17.3847 18.6176 17.3539L16.7001 16.9702C16.3107 16.8904 15.9688 16.6593 15.7497 16.3277C15.5305 15.996 15.452 15.591 15.5313 15.2014C15.5708 15.0082 15.648 14.8247 15.7585 14.6614C15.869 14.498 16.0106 14.3581 16.1752 14.2495C16.3398 14.141 16.5243 14.0659 16.7179 14.0287C16.9116 13.9915 17.1107 13.9929 17.3038 14.0327L19.9801 14.5677C21.1125 14.7964 22.1311 15.4093 22.8636 16.3027C23.5961 17.196 23.9976 18.3149 24.0001 19.4702V19.8877ZM24.9488 5.8877L22.8713 13.6377C22.1139 13.1321 21.2645 12.7804 20.3713 12.6027L20.0588 12.5402L22.0501 5.11395C22.0987 4.92116 22.1852 4.73996 22.3045 4.58089C22.4238 4.42182 22.5735 4.28806 22.745 4.18738C22.9164 4.08669 23.1062 4.02111 23.3032 3.99442C23.5002 3.96774 23.7006 3.9805 23.8927 4.03195C24.0847 4.0834 24.2646 4.17253 24.4219 4.29414C24.5792 4.41575 24.7108 4.56742 24.809 4.74033C24.9071 4.91324 24.9699 5.10394 24.9937 5.30135C25.0175 5.49875 25.0018 5.69891 24.9476 5.8902L24.9488 5.8877Z" fill="#222222"/>
</svg>
