<svg width="32" height="32" viewBox="0 0 32 32" fill="none" xmlns="http://www.w3.org/2000/svg">
<path d="M6.99983 9.5C6.99983 7.51088 7.79001 5.60322 9.19653 4.1967C10.6031 2.79018 12.5107 2 14.4998 2C16.489 2 18.3966 2.79018 19.8031 4.1967C21.2097 5.60322 21.9998 7.51088 21.9998 9.5C21.9998 9.76522 21.8945 10.0196 21.7069 10.2071C21.5194 10.3946 21.265 10.5 20.9998 10.5C20.7346 10.5 20.4803 10.3946 20.2927 10.2071C20.1052 10.0196 19.9998 9.76522 19.9998 9.5C19.9998 8.04131 19.4204 6.64236 18.3889 5.61091C17.3575 4.57946 15.9585 4 14.4998 4C13.0411 4 11.6422 4.57946 10.6107 5.61091C9.57929 6.64236 8.99983 8.04131 8.99983 9.5C8.99983 9.76522 8.89447 10.0196 8.70694 10.2071C8.5194 10.3946 8.26505 10.5 7.99983 10.5C7.73461 10.5 7.48026 10.3946 7.29272 10.2071C7.10519 10.0196 6.99983 9.76522 6.99983 9.5ZM24.4998 15C23.9165 14.9994 23.3423 15.1451 22.8298 15.4237C22.6767 14.9499 22.4242 14.5141 22.0892 14.1456C21.7542 13.7771 21.3444 13.4844 20.8872 13.2869C20.4301 13.0894 19.936 12.9918 19.4381 13.0005C18.9401 13.0092 18.4498 13.1241 17.9998 13.3375V9.5C17.9998 8.57174 17.6311 7.6815 16.9747 7.02513C16.3183 6.36875 15.4281 6 14.4998 6C13.5716 6 12.6813 6.36875 12.025 7.02513C11.3686 7.6815 10.9998 8.57174 10.9998 9.5V19.5L10.5223 18.7337C10.0554 17.9313 9.28879 17.3472 8.39119 17.11C7.4936 16.8728 6.53852 17.0018 5.73608 17.4688C4.93363 17.9357 4.34955 18.7023 4.11231 19.5999C3.87508 20.4975 4.00413 21.4526 4.47108 22.255L8.13608 28.505C8.19755 28.6267 8.28326 28.7346 8.38795 28.822C8.49264 28.9094 8.6141 28.9744 8.74486 29.0131C8.87562 29.0518 9.01291 29.0634 9.1483 29.0471C9.28368 29.0308 9.41431 28.987 9.53213 28.9183C9.64996 28.8497 9.7525 28.7576 9.83346 28.6479C9.91441 28.5382 9.97206 28.413 10.0029 28.2802C10.0337 28.1473 10.037 28.0096 10.0126 27.8754C9.98823 27.7413 9.93666 27.6135 9.86108 27.5L6.19983 21.25C6.09704 21.0793 6.0293 20.8898 6.00057 20.6926C5.97184 20.4954 5.98269 20.2944 6.03249 20.1014C6.0823 19.9085 6.17005 19.7274 6.29063 19.5687C6.41121 19.4101 6.5622 19.277 6.73477 19.1773C6.90735 19.0777 7.09805 19.0134 7.29575 18.9883C7.49344 18.9632 7.69416 18.9777 7.88618 19.031C8.07821 19.0843 8.25768 19.1753 8.41412 19.2988C8.57056 19.4222 8.70083 19.5756 8.79733 19.75L8.81483 19.7787L11.1498 23.5287C11.2645 23.7137 11.4363 23.8563 11.6393 23.9347C11.8423 24.0132 12.0654 24.0233 12.2746 23.9635C12.4839 23.9037 12.6679 23.7772 12.7988 23.6033C12.9297 23.4295 13.0003 23.2176 12.9998 23V9.5C12.9998 9.10218 13.1579 8.72064 13.4392 8.43934C13.7205 8.15804 14.102 8 14.4998 8C14.8977 8 15.2792 8.15804 15.5605 8.43934C15.8418 8.72064 15.9998 9.10218 15.9998 9.5V18C15.9998 18.2652 16.1052 18.5196 16.2927 18.7071C16.4803 18.8946 16.7346 19 16.9998 19C17.265 19 17.5194 18.8946 17.7069 18.7071C17.8945 18.5196 17.9998 18.2652 17.9998 18V16.5C17.9998 16.1022 18.1579 15.7206 18.4392 15.4393C18.7205 15.158 19.102 15 19.4998 15C19.8977 15 20.2792 15.158 20.5605 15.4393C20.8418 15.7206 20.9998 16.1022 20.9998 16.5V19C20.9998 19.2652 21.1052 19.5196 21.2927 19.7071C21.4803 19.8946 21.7346 20 21.9998 20C22.265 20 22.5194 19.8946 22.7069 19.7071C22.8945 19.5196 22.9998 19.2652 22.9998 19V18.5C22.9998 18.1022 23.1579 17.7206 23.4392 17.4393C23.7205 17.158 24.102 17 24.4998 17C24.8977 17 25.2792 17.158 25.5605 17.4393C25.8418 17.7206 25.9998 18.1022 25.9998 18.5V23C25.9998 25.7013 25.1123 27.5375 25.1048 27.5525C24.9864 27.7897 24.967 28.0643 25.0509 28.3158C25.1348 28.5673 25.3152 28.7752 25.5523 28.8937C25.6911 28.9639 25.8444 29.0003 25.9998 29C26.1856 29.0001 26.3678 28.9485 26.5258 28.8509C26.6839 28.7533 26.8117 28.6136 26.8948 28.4475C26.9411 28.3563 28.0011 26.1975 28.0011 23V18.5C28.0011 18.0403 27.9105 17.585 27.7345 17.1603C27.5586 16.7356 27.3006 16.3497 26.9755 16.0247C26.6504 15.6997 26.2644 15.4419 25.8396 15.2661C25.4148 15.0902 24.9596 14.9998 24.4998 15Z" fill="#222222"/>
</svg>
