<svg width="32" height="32" viewBox="0 0 32 32" fill="none" xmlns="http://www.w3.org/2000/svg">
<path d="M27.0001 17.5001V22.0001C27.0001 25.1989 25.9389 27.3564 25.8939 27.4476C25.8108 27.6136 25.6832 27.7531 25.5254 27.8507C25.3675 27.9483 25.1857 28 25.0001 28.0001C24.8451 28.0002 24.6922 27.9638 24.5539 27.8939C24.3167 27.7753 24.1363 27.5674 24.0524 27.3159C23.9685 27.0644 23.9879 26.7898 24.1064 26.5526C24.1139 26.5376 25.0014 24.7014 25.0014 22.0001V17.5001C25.0014 17.1023 24.8433 16.7208 24.562 16.4395C24.2807 16.1582 23.8992 16.0001 23.5014 16.0001C23.1035 16.0001 22.722 16.1582 22.4407 16.4395C22.1594 16.7208 22.0014 17.1023 22.0014 17.5001V18.0001C22.0014 18.2653 21.896 18.5197 21.7085 18.7072C21.5209 18.8948 21.2666 19.0001 21.0014 19.0001C20.7361 19.0001 20.4818 18.8948 20.2942 18.7072C20.1067 18.5197 20.0014 18.2653 20.0014 18.0001V15.5001C20.0014 15.1023 19.8433 14.7208 19.562 14.4395C19.2807 14.1581 18.8992 14.0001 18.5014 14.0001C18.1035 14.0001 17.722 14.1581 17.4407 14.4395C17.1594 14.7208 17.0014 15.1023 17.0014 15.5001V17.0001C17.0014 17.2653 16.896 17.5197 16.7085 17.7072C16.5209 17.8948 16.2666 18.0001 16.0014 18.0001C15.7361 18.0001 15.4818 17.8948 15.2942 17.7072C15.1067 17.5197 15.0014 17.2653 15.0014 17.0001V8.50011C15.0014 8.10229 14.8433 7.72076 14.562 7.43945C14.2807 7.15815 13.8992 7.00011 13.5014 7.00011C13.1035 7.00011 12.722 7.15815 12.4407 7.43945C12.1594 7.72076 12.0014 8.10229 12.0014 8.50011V22.0001C12.0013 22.2174 11.9306 22.4287 11.7998 22.6022C11.669 22.7756 11.4852 22.9018 11.2763 22.9615C11.0674 23.0213 10.8448 23.0114 10.642 22.9333C10.4393 22.8552 10.2675 22.7133 10.1526 22.5289L7.8176 18.7789L7.8001 18.7501C7.70161 18.5794 7.57046 18.4297 7.41413 18.3097C7.25781 18.1897 7.07937 18.1016 6.88901 18.0505C6.69865 17.9995 6.5001 17.9864 6.30468 18.0121C6.10927 18.0377 5.92082 18.1016 5.7501 18.2001C5.57938 18.2986 5.42974 18.4298 5.3097 18.5861C5.18967 18.7424 5.10161 18.9208 5.05053 19.1112C4.99946 19.3016 4.98638 19.5001 5.01205 19.6955C5.03771 19.8909 5.10161 20.0794 5.2001 20.2501L8.86135 26.5001C8.93841 26.6137 8.99124 26.742 9.01657 26.8769C9.04189 27.0119 9.03916 27.1506 9.00854 27.2844C8.97792 27.4182 8.92008 27.5443 8.8386 27.6548C8.75713 27.7653 8.65378 27.8579 8.53498 27.9267C8.41619 27.9955 8.2845 28.0391 8.14811 28.0548C8.01172 28.0705 7.87356 28.058 7.74224 28.018C7.61091 27.9779 7.48923 27.9113 7.38478 27.8222C7.28032 27.7331 7.19533 27.6235 7.1351 27.5001L3.4701 21.2501C3.00316 20.4477 2.8741 19.4926 3.11134 18.595C3.34857 17.6974 3.93266 16.9308 4.7351 16.4639C5.53755 15.9969 6.49262 15.8679 7.39022 16.1051C8.28781 16.3423 9.05441 16.9264 9.52135 17.7289L10.0001 18.5001V8.50011C10.0001 7.57186 10.3689 6.68162 11.0252 6.02524C11.6816 5.36886 12.5718 5.00011 13.5001 5.00011C14.4284 5.00011 15.3186 5.36886 15.975 6.02524C16.6314 6.68162 17.0001 7.57186 17.0001 8.50011V12.3376C17.4501 12.124 17.9406 12.009 18.4387 12.0001C18.9367 11.9913 19.431 12.0889 19.8883 12.2864C20.3456 12.4839 20.7555 12.7767 21.0906 13.1453C21.4257 13.5139 21.6782 13.9498 21.8314 14.4239C22.3644 14.1347 22.9635 13.989 23.5699 14.0011C24.1762 14.0132 24.769 14.1826 25.2901 14.4928C25.8113 14.803 26.2429 15.2432 26.5426 15.7704C26.8424 16.2976 27 16.8937 27.0001 17.5001ZM31.0001 6.00011H24.4139L26.7064 3.70761C26.894 3.52014 26.9995 3.2658 26.9996 3.00056C26.9997 2.73531 26.8945 2.48088 26.707 2.29324C26.5195 2.1056 26.2652 2.00012 25.9999 2C25.7347 1.99988 25.4802 2.10514 25.2926 2.29261L21.2926 6.29261C21.1996 6.38549 21.1259 6.49578 21.0755 6.61717C21.0252 6.73857 20.9993 6.8687 20.9993 7.00011C20.9993 7.13153 21.0252 7.26166 21.0755 7.38305C21.1259 7.50445 21.1996 7.61474 21.2926 7.70761L25.2926 11.7076C25.4802 11.8951 25.7347 12.0003 25.9999 12.0002C26.2652 12.0001 26.5195 11.8946 26.707 11.707C26.8945 11.5193 26.9997 11.2649 26.9996 10.9997C26.9995 10.7344 26.894 10.4801 26.7064 10.2926L24.4139 8.00011H31.0001C31.2653 8.00011 31.5197 7.89476 31.7072 7.70722C31.8947 7.51968 32.0001 7.26533 32.0001 7.00011C32.0001 6.7349 31.8947 6.48054 31.7072 6.29301C31.5197 6.10547 31.2653 6.00011 31.0001 6.00011Z" fill="#222222"/>
</svg>
