<svg width="32" height="32" viewBox="0 0 32 32" fill="none" xmlns="http://www.w3.org/2000/svg">
<path d="M16 4.41356V15.9998C16 16.265 15.8946 16.5194 15.7071 16.7069C15.5196 16.8945 15.2652 16.9998 15 16.9998C14.7348 16.9998 14.4804 16.8945 14.2929 16.7069C14.1054 16.5194 14 16.265 14 15.9998V4.41356L11.7075 6.70731C11.6146 6.80022 11.5043 6.87392 11.3829 6.9242C11.2615 6.97449 11.1314 7.00037 11 7.00037C10.7346 7.00037 10.4801 6.89495 10.2925 6.70731C10.1996 6.6144 10.1259 6.5041 10.0756 6.38271C10.0253 6.26131 9.99944 6.13121 9.99944 5.99981C9.99944 5.73445 10.1049 5.47995 10.2925 5.29231L14.2925 1.29231C14.3854 1.19933 14.4957 1.12557 14.6171 1.07525C14.7385 1.02493 14.8686 0.999023 15 0.999023C15.1314 0.999023 15.2615 1.02493 15.3829 1.07525C15.5043 1.12557 15.6146 1.19933 15.7075 1.29231L19.7075 5.29231C19.8951 5.47995 20.0006 5.73445 20.0006 5.99981C20.0006 6.26517 19.8951 6.51967 19.7075 6.70731C19.5199 6.89495 19.2654 7.00037 19 7.00037C18.7346 7.00037 18.4801 6.89495 18.2925 6.70731L16 4.41356ZM24 15.4523V11.9998C24 11.4694 23.7893 10.9607 23.4142 10.5856C23.0391 10.2105 22.5304 9.99981 22 9.99981H20C19.7348 9.99981 19.4804 10.1052 19.2929 10.2927C19.1054 10.4802 19 10.7346 19 10.9998C19 11.265 19.1054 11.5194 19.2929 11.7069C19.4804 11.8945 19.7348 11.9998 20 11.9998H22V22.0498C21.4036 21.4406 20.6055 21.07 19.7552 21.0076C18.905 20.9451 18.0612 21.1951 17.3823 21.7107C16.7033 22.2262 16.2359 22.9719 16.0677 23.8076C15.8995 24.6433 16.0421 25.5117 16.4688 26.2498L16.4988 26.2973L19.2812 30.5473C19.4265 30.7693 19.6539 30.9244 19.9135 30.9787C20.1731 31.033 20.4437 30.9819 20.6656 30.8367C20.8876 30.6915 21.0428 30.464 21.097 30.2044C21.1513 29.9448 21.1002 29.6743 20.955 29.4523L18.1887 25.2286C17.9927 24.8823 17.9421 24.4723 18.0483 24.0888C18.1545 23.7053 18.4087 23.3797 18.755 23.1836C19.1013 22.9875 19.5113 22.937 19.8948 23.0432C20.2783 23.1493 20.6039 23.4035 20.8 23.7498C20.8087 23.7661 20.8188 23.7823 20.8288 23.7973L22.1637 25.8361C22.2818 26.016 22.4547 26.1531 22.6568 26.227C22.8589 26.3008 23.0795 26.3075 23.2857 26.246C23.492 26.1845 23.6729 26.0582 23.8015 25.8857C23.9302 25.7132 23.9998 25.5038 24 25.2886V17.9998C24.9426 18.8723 25.6954 19.9296 26.2115 21.1057C26.7276 22.2818 26.996 23.5517 27 24.8361V29.9998C27 30.265 27.1054 30.5194 27.2929 30.7069C27.4804 30.8945 27.7348 30.9998 28 30.9998C28.2652 30.9998 28.5196 30.8945 28.7071 30.7069C28.8946 30.5194 29 30.265 29 29.9998V24.8311C28.9943 22.9786 28.5358 21.1556 27.6643 19.521C26.7928 17.8863 25.5349 16.4895 24 15.4523ZM10 9.99981H8C7.46957 9.99981 6.96086 10.2105 6.58579 10.5856C6.21071 10.9607 6 11.4694 6 11.9998V24.9998C6 25.265 6.10536 25.5194 6.29289 25.7069C6.48043 25.8945 6.73478 25.9998 7 25.9998C7.26522 25.9998 7.51957 25.8945 7.70711 25.7069C7.89464 25.5194 8 25.265 8 24.9998V11.9998H10C10.2652 11.9998 10.5196 11.8945 10.7071 11.7069C10.8946 11.5194 11 11.265 11 10.9998C11 10.7346 10.8946 10.4802 10.7071 10.2927C10.5196 10.1052 10.2652 9.99981 10 9.99981Z" fill="#222222"/>
</svg>
