<svg width="32" height="32" viewBox="0 0 32 32" fill="none" xmlns="http://www.w3.org/2000/svg">
<path d="M29.6641 15.0662L22.8754 4.89C22.6931 4.61691 22.4465 4.39286 22.1572 4.23765C21.8679 4.08243 21.5449 4.00081 21.2166 4H10.7841C10.4558 4.00081 10.1328 4.08243 9.84347 4.23765C9.55419 4.39286 9.30756 4.61691 9.12535 4.89L2.3366 15.0662C2.17782 15.3041 2.07189 15.5732 2.02596 15.8555C1.98003 16.1378 1.99517 16.4266 2.07035 16.7025L4.75035 26.5263C4.86576 26.9494 5.11707 27.3229 5.46559 27.5892C5.8141 27.8555 6.24049 27.9998 6.6791 28H10.0004C10.5308 28 11.0395 27.7893 11.4146 27.4142C11.7896 27.0391 12.0004 26.5304 12.0004 26V24H20.0004V26C20.0004 26.5304 20.2111 27.0391 20.5861 27.4142C20.9612 27.7893 21.4699 28 22.0004 28H25.3216C25.7602 27.9998 26.1866 27.8555 26.5351 27.5892C26.8836 27.3229 27.1349 26.9494 27.2504 26.5263L29.9304 16.7025C30.0055 16.4266 30.0207 16.1378 29.9747 15.8555C29.9288 15.5732 29.8229 15.3041 29.6641 15.0662ZM10.0004 22V8.625L13.0004 10.3938V17C13.0004 17.2652 13.1057 17.5196 13.2932 17.7071C13.4808 17.8946 13.7351 18 14.0004 18C14.2656 18 14.5199 17.8946 14.7075 17.7071C14.895 17.5196 15.0004 17.2652 15.0004 17V11.5712L15.4929 11.8612C15.6466 11.9518 15.8219 11.9996 16.0004 11.9996C16.1788 11.9996 16.3541 11.9518 16.5079 11.8612L17.0004 11.5712V16C17.0004 16.2652 17.1057 16.5196 17.2932 16.7071C17.4808 16.8946 17.7351 17 18.0004 17C18.2656 17 18.5199 16.8946 18.7075 16.7071C18.895 16.5196 19.0004 16.2652 19.0004 16V10.3925L22.0004 8.625V22H10.0004ZM21.2166 6L21.5816 6.54875L16.0004 9.83875L10.4191 6.54875L10.7841 6H21.2166ZM10.0004 26H6.6791L4.00035 16.1763L8.00035 10.1763V22C8.00035 22.5304 8.21107 23.0391 8.58614 23.4142C8.96121 23.7893 9.46992 24 10.0004 24V26ZM25.3216 26H22.0004V24C22.5308 24 23.0395 23.7893 23.4146 23.4142C23.7896 23.0391 24.0004 22.5304 24.0004 22V10.1763L28.0004 16.1763L25.3216 26Z" fill="#222222"/>
</svg>
