<svg width="32" height="32" viewBox="0 0 32 32" fill="none" xmlns="http://www.w3.org/2000/svg">
<path d="M17.0003 12.5C17.0003 12.7967 16.9124 13.0867 16.7475 13.3334C16.5827 13.58 16.3484 13.7723 16.0744 13.8858C15.8003 13.9994 15.4987 14.0291 15.2077 13.9712C14.9167 13.9133 14.6495 13.7704 14.4397 13.5607C14.2299 13.3509 14.087 13.0836 14.0292 12.7926C13.9713 12.5017 14.001 12.2001 14.1145 11.926C14.228 11.6519 14.4203 11.4176 14.667 11.2528C14.9137 11.088 15.2037 11 15.5003 11C15.8982 11 16.2797 11.158 16.561 11.4393C16.8423 11.7206 17.0003 12.1022 17.0003 12.5ZM29.0003 16.185C28.944 19.5528 27.5864 22.7682 25.2118 25.1572C22.8373 27.5461 19.6303 28.9233 16.2628 29H15.9916C12.8035 29.0224 9.71986 27.8648 7.33409 25.75C7.13517 25.5731 7.01467 25.3245 6.99908 25.0588C6.99136 24.9272 7.00963 24.7954 7.05285 24.6709C7.09607 24.5464 7.16339 24.4316 7.25096 24.3331C7.33854 24.2346 7.44465 24.1544 7.56325 24.0969C7.68185 24.0394 7.81061 24.0058 7.94218 23.9981C8.2079 23.9825 8.46892 24.0731 8.66784 24.25C9.42126 24.9242 10.2673 25.487 11.1803 25.9212L14.5003 21.355C11.6528 20.1262 8.56659 20.6488 6.82534 20.9438C6.08838 21.071 5.33048 20.9881 4.63849 20.7044C3.94651 20.4208 3.34844 19.9479 2.91284 19.34L2.87534 19.2862L1.15284 16.5362C1.08298 16.4244 1.03594 16.2999 1.0144 16.1698C0.992869 16.0397 0.997273 15.9066 1.02736 15.7783C1.05745 15.6499 1.11263 15.5287 1.18973 15.4218C1.26683 15.3148 1.36432 15.2241 1.47659 15.155L14.0003 7.44125V4C14.0003 3.73478 14.1057 3.48043 14.2932 3.29289C14.4808 3.10536 14.7351 3 15.0003 3H16.0003C17.7232 2.99983 19.4289 3.34211 21.0183 4.00696C22.6077 4.67181 24.0491 5.64596 25.2588 6.87278C26.4684 8.09961 27.4221 9.55464 28.0644 11.1533C28.7067 12.7519 29.0249 14.4623 29.0003 16.185ZM27.0003 16.1575C27.0212 14.6998 26.7521 13.2524 26.2087 11.8996C25.6652 10.5468 24.8583 9.31549 23.8347 8.27731C22.8112 7.23912 21.5915 6.41476 20.2466 5.85213C18.9016 5.28951 17.4582 4.99985 16.0003 5V8C16.0002 8.17075 15.9564 8.33862 15.873 8.48763C15.7897 8.63664 15.6695 8.76182 15.5241 8.85125L3.38284 16.3237L4.55284 18.1987C4.77351 18.4959 5.07266 18.7256 5.41669 18.862C5.76073 18.9985 6.136 19.0363 6.50034 18.9713C8.50034 18.6338 12.5966 17.9412 16.2591 19.9937C17.5381 19.9256 18.7424 19.37 19.6243 18.4412C20.5062 17.5123 20.9986 16.2808 21.0003 15C21.0003 14.7348 21.1057 14.4804 21.2932 14.2929C21.4808 14.1054 21.7351 14 22.0003 14C22.2656 14 22.5199 14.1054 22.7074 14.2929C22.895 14.4804 23.0003 14.7348 23.0003 15C22.9979 16.7648 22.3298 18.4637 21.1295 19.7574C19.9292 21.0511 18.285 21.8444 16.5253 21.9788L13.1366 26.6388C14.1439 26.8999 15.1824 27.0215 16.2228 27C19.0715 26.9336 21.7842 25.768 23.793 23.7471C25.8018 21.7261 26.9511 19.0065 27.0003 16.1575Z" fill="#222222"/>
</svg>
