<svg width="32" height="32" viewBox="0 0 32 32" fill="none" xmlns="http://www.w3.org/2000/svg">
<path d="M27.4138 13.5851L17.4138 3.58508C17.0387 3.21029 16.5302 2.99976 16 2.99976C15.4698 2.99976 14.9613 3.21029 14.5863 3.58508L4.58626 13.5851C4.39964 13.7703 4.25171 13.9908 4.15107 14.2337C4.05042 14.4766 3.99908 14.7371 4.00001 15.0001V27.0001C4.00001 27.2653 4.10537 27.5196 4.29291 27.7072C4.48044 27.8947 4.7348 28.0001 5.00001 28.0001H27C27.2652 28.0001 27.5196 27.8947 27.7071 27.7072C27.8947 27.5196 28 27.2653 28 27.0001V15.0001C28.0009 14.7371 27.9496 14.4766 27.849 14.2337C27.7483 13.9908 27.6004 13.7703 27.4138 13.5851ZM26 26.0001H6.00001V15.0001L16 5.00008L26 15.0001V26.0001Z" fill="#222222"/>
</svg>
