<svg width="32" height="32" viewBox="0 0 32 32" fill="none" xmlns="http://www.w3.org/2000/svg">
<path d="M28.9839 4.01622C28.3315 3.36557 27.4478 3.00018 26.5264 3.00018C25.605 3.00018 24.7213 3.36557 24.0689 4.01622L2.29264 25.8C2.16649 25.9262 2.07642 26.0839 2.03178 26.2567C1.98714 26.4295 1.98957 26.6111 2.0388 26.7827C2.08803 26.9542 2.18228 27.1095 2.31176 27.2323C2.44124 27.3552 2.60124 27.4411 2.77514 27.4812C4.25893 27.8252 5.77702 27.9992 7.30014 28C11.4189 28 15.5401 26.725 19.4189 24.2212C23.3889 21.6587 25.6926 18.7437 25.7939 18.62C25.9446 18.4276 26.0196 18.1868 26.0049 17.9429C25.9902 17.6991 25.8866 17.469 25.7139 17.2962L23.1651 14.75L28.9839 8.92997C29.6339 8.2775 29.9988 7.39406 29.9988 6.4731C29.9988 5.55213 29.6339 4.6687 28.9839 4.01622ZM23.6376 18.055C22.0515 19.7836 20.2511 21.3026 18.2801 22.575C13.9764 25.3375 9.53764 26.44 5.05889 25.8625L18.2501 12.6662L23.6376 18.055ZM27.5701 7.51747L21.7501 13.3375L19.6651 11.25L25.4839 5.42997C25.7605 5.15332 26.1358 4.9979 26.527 4.9979C26.9183 4.9979 27.2935 5.15332 27.5701 5.42997C27.8468 5.70663 28.0022 6.08185 28.0022 6.4731C28.0022 6.86435 27.8468 7.23957 27.5701 7.51622V7.51747Z" fill="#222222"/>
</svg>
