<svg width="32" height="32" viewBox="0 0 32 32" fill="none" xmlns="http://www.w3.org/2000/svg">
<path d="M27.9308 5.0089C27.9165 4.76425 27.8129 4.53337 27.6396 4.36009C27.4664 4.1868 27.2355 4.08318 26.9908 4.0689C17.4746 3.51015 9.85208 6.37514 6.60208 11.7501C5.47554 13.5888 4.9204 15.7206 5.00708 17.8751C5.07833 19.8651 5.65833 21.8751 6.73083 23.8564L4.29208 26.2939C4.10444 26.4815 3.99902 26.736 3.99902 27.0014C3.99902 27.2668 4.10444 27.5213 4.29208 27.7089C4.47972 27.8965 4.73422 28.002 4.99958 28.002C5.26494 28.002 5.51944 27.8965 5.70708 27.7089L8.14458 25.2701C10.1246 26.3414 12.1358 26.9214 14.1246 26.9926C14.2637 26.9976 14.4025 27.0001 14.5408 27.0001C16.5555 27.0055 18.532 26.4507 20.2496 25.3976C25.6246 22.1476 28.4908 14.5264 27.9308 5.0089ZM19.2183 23.6876C16.3746 25.4101 13.0083 25.4376 9.62958 23.7839L20.7083 12.7064C20.8012 12.6135 20.8749 12.5032 20.9252 12.3818C20.9755 12.2604 21.0014 12.1303 21.0014 11.9989C21.0014 11.8675 20.9755 11.7374 20.9252 11.616C20.8749 11.4946 20.8012 11.3843 20.7083 11.2914C20.6154 11.1985 20.5051 11.1248 20.3837 11.0745C20.2623 11.0242 20.1322 10.9983 20.0008 10.9983C19.8694 10.9983 19.7393 11.0242 19.6179 11.0745C19.4965 11.1248 19.3862 11.1985 19.2933 11.2914L8.21583 22.3751C6.56708 19.0001 6.59083 15.6251 8.31208 12.7864C11.0733 8.22764 17.6371 5.7314 25.9758 6.0289C26.2746 14.3614 23.7771 20.9264 19.2183 23.6876Z" fill="#222222"/>
</svg>
