<svg width="32" height="32" viewBox="0 0 32 32" fill="none" xmlns="http://www.w3.org/2000/svg">
<path d="M5 12.9999C5.00013 12.7956 5.06286 12.5962 5.17974 12.4286C5.29662 12.261 5.46205 12.1332 5.65375 12.0624L24.6537 5.06242C24.8994 4.98298 25.1663 5.00165 25.3986 5.11453C25.6308 5.22741 25.8104 5.42574 25.8997 5.66801C25.989 5.91028 25.9811 6.17771 25.8778 6.41432C25.7744 6.65093 25.5835 6.83837 25.345 6.93742L8.8925 12.9999L25.345 19.0612C25.5655 19.1421 25.7505 19.2981 25.8675 19.5018C25.9845 19.7055 26.0261 19.9439 25.9849 20.1751C25.9438 20.4064 25.8225 20.6158 25.6424 20.7666C25.4623 20.9174 25.2349 21 25 20.9999C24.8819 20.9998 24.7647 20.9791 24.6537 20.9387L5.65375 13.9387C5.46185 13.8678 5.29628 13.7399 5.17938 13.572C5.06249 13.4041 4.99988 13.2045 5 12.9999ZM25 23.9999H6C5.73478 23.9999 5.48043 24.1053 5.29289 24.2928C5.10536 24.4804 5 24.7347 5 24.9999C5 25.2651 5.10536 25.5195 5.29289 25.707C5.48043 25.8946 5.73478 25.9999 6 25.9999H25C25.2652 25.9999 25.5196 25.8946 25.7071 25.707C25.8946 25.5195 26 25.2651 26 24.9999C26 24.7347 25.8946 24.4804 25.7071 24.2928C25.5196 24.1053 25.2652 23.9999 25 23.9999Z" fill="#222222"/>
</svg>
