<svg width="32" height="32" viewBox="0 0 32 32" fill="none" xmlns="http://www.w3.org/2000/svg">
<path d="M26.8298 5.16996C26.1416 4.47985 25.2252 4.06472 24.2526 4.00254C23.28 3.94036 22.3181 4.23541 21.5477 4.83227C20.7773 5.42914 20.2512 6.28675 20.0684 7.24404C19.8856 8.20133 20.0585 9.19243 20.5548 10.0312L10.0311 20.555C9.26663 20.1056 8.37473 19.9224 7.49506 20.0341C6.61538 20.1459 5.79761 20.5462 5.16981 21.1725C4.64098 21.7016 4.27113 22.3684 4.10227 23.0972C3.9334 23.8259 3.97228 24.5875 4.2145 25.2952C4.45672 26.003 4.89257 26.6287 5.47254 27.1012C6.05251 27.5737 6.75336 27.8741 7.49549 27.9683C8.23762 28.0625 8.99129 27.9466 9.67089 27.6339C10.3505 27.3213 10.9288 26.8243 11.3401 26.1994C11.7514 25.5746 11.9793 24.8469 11.9978 24.0991C12.0163 23.3512 11.8247 22.6131 11.4448 21.9687L21.9686 11.445C22.8073 11.9412 23.7984 12.1142 24.7557 11.9314C25.713 11.7485 26.5706 11.2225 27.1675 10.4521C27.7644 9.68163 28.0594 8.71978 27.9972 7.74718C27.9351 6.77457 27.5199 5.85813 26.8298 5.16996ZM9.41356 25.42C9.03828 25.7952 8.52929 26.0061 7.99856 26.0061C7.46783 26.0061 6.95884 25.7952 6.58356 25.42C6.20828 25.0447 5.99745 24.5357 5.99745 24.005C5.99745 23.4742 6.20828 22.9652 6.58356 22.59C6.76928 22.4042 6.98978 22.2568 7.23246 22.1563C7.47514 22.0558 7.73525 22.004 7.99794 22.004C8.26062 22.004 8.52073 22.0558 8.76341 22.1563C9.00609 22.2568 9.22659 22.4042 9.41231 22.59C9.78688 22.9648 9.9974 23.4729 9.99763 24.0028C9.99787 24.5327 9.7878 25.0411 9.41356 25.4162V25.42ZM25.4136 9.41996C25.1338 9.69962 24.7775 9.89006 24.3895 9.96719C24.0016 10.0443 23.5995 10.0047 23.234 9.8533C22.8686 9.70191 22.5563 9.44557 22.3365 9.11668C22.1168 8.78779 21.9995 8.40113 21.9995 8.00559C21.9995 7.61004 22.1168 7.22338 22.3365 6.89449C22.5563 6.5656 22.8686 6.30926 23.234 6.15787C23.5995 6.00648 24.0016 5.96685 24.3895 6.04398C24.7775 6.12112 25.1338 6.31155 25.4136 6.59121C25.7868 6.96566 25.9965 7.47264 25.997 8.00132C25.9975 8.53 25.7886 9.03735 25.4161 9.41246L25.4136 9.41996Z" fill="#222222"/>
</svg>
