<svg width="32" height="32" viewBox="0 0 32 32" fill="none" xmlns="http://www.w3.org/2000/svg">
<path d="M29.0004 10C29.0027 10.9196 28.8227 11.8306 28.4708 12.6802C28.119 13.5299 27.6022 14.3013 26.9504 14.95L23.1916 18.7075C23.004 18.895 22.7495 19.0002 22.4843 19.0001C22.219 19 21.9647 18.8945 21.7772 18.7069C21.5898 18.5193 21.4845 18.2648 21.4846 17.9996C21.4847 17.7343 21.5902 17.48 21.7779 17.2925L25.5366 13.535C26.0094 13.0726 26.3858 12.521 26.6439 11.9122C26.902 11.3033 27.0368 10.6493 27.0405 9.98799C27.0441 9.32668 26.9165 8.67122 26.6651 8.05956C26.4137 7.4479 26.0434 6.89219 25.5758 6.4246C25.1081 5.95702 24.5523 5.58686 23.9406 5.33555C23.3289 5.08424 22.6734 4.95677 22.0121 4.96053C21.3508 4.96429 20.6968 5.0992 20.088 5.35745C19.4792 5.6157 18.9277 5.99215 18.4654 6.46502L14.7079 10.2213C14.5202 10.4089 14.2657 10.5143 14.0004 10.5143C13.735 10.5143 13.4805 10.4089 13.2929 10.2213C13.1052 10.0336 12.9998 9.77913 12.9998 9.51377C12.9998 9.24841 13.1052 8.99391 13.2929 8.80627L17.0504 5.05002C18.0293 4.07095 19.2767 3.40418 20.6346 3.13405C21.9925 2.86391 23.4001 3.00253 24.6792 3.53239C25.9584 4.06224 27.0516 4.95953 27.8208 6.11076C28.59 7.262 29.0005 8.61548 29.0004 10ZM17.2929 21.7775L13.5354 25.535C13.073 26.0078 12.5214 26.3842 11.9125 26.6423C11.3036 26.9004 10.6496 27.0352 9.98832 27.0389C9.32702 27.0425 8.67156 26.9149 8.05989 26.6635C7.44823 26.4121 6.89252 26.0418 6.42494 25.5742C5.95736 25.1065 5.5872 24.5507 5.33589 23.939C5.08458 23.3273 4.95711 22.6718 4.96087 22.0105C4.96463 21.3492 5.09954 20.6952 5.35779 20.0864C5.61603 19.4776 5.99249 18.9261 6.46536 18.4638L10.2216 14.7075C10.4092 14.5199 10.5147 14.2654 10.5147 14C10.5147 13.7347 10.4092 13.4802 10.2216 13.2925C10.034 13.1049 9.77947 12.9995 9.51411 12.9995C9.24874 12.9995 8.99425 13.1049 8.80661 13.2925L5.05036 17.05C3.73754 18.3628 3 20.1434 3 22C3 23.8566 3.73754 25.6372 5.05036 26.95C6.36318 28.2628 8.14375 29.0004 10.0004 29.0004C11.857 29.0004 13.6375 28.2628 14.9504 26.95L18.7079 23.1913C18.8953 23.0036 19.0006 22.7492 19.0005 22.484C19.0004 22.2187 18.8949 21.9644 18.7072 21.7769C18.5196 21.5894 18.2652 21.4842 17.9999 21.4843C17.7347 21.4844 17.4803 21.5899 17.2929 21.7775Z" fill="#222222"/>
</svg>
