<svg width="32" height="32" viewBox="0 0 32 32" fill="none" xmlns="http://www.w3.org/2000/svg">
<path d="M19.0003 13.9998C19.0003 14.265 18.8949 14.5194 18.7074 14.7069C18.5199 14.8944 18.2655 14.9998 18.0003 14.9998H10.0003C9.73507 14.9998 9.48071 14.8944 9.29318 14.7069C9.10564 14.5194 9.00029 14.265 9.00029 13.9998C9.00029 13.7346 9.10564 13.4802 9.29318 13.2927C9.48071 13.1052 9.73507 12.9998 10.0003 12.9998H18.0003C18.2655 12.9998 18.5199 13.1052 18.7074 13.2927C18.8949 13.4802 19.0003 13.7346 19.0003 13.9998ZM28.7078 28.7073C28.6149 28.8003 28.5046 28.874 28.3832 28.9244C28.2618 28.9747 28.1317 29.0006 28.0003 29.0006C27.8689 29.0006 27.7387 28.9747 27.6173 28.9244C27.4959 28.874 27.3857 28.8003 27.2928 28.7073L21.0353 22.4485C18.8574 24.2626 16.064 25.1672 13.2362 24.9741C10.4084 24.781 7.76385 23.5052 5.85275 21.412C3.94164 19.3188 2.9111 16.5694 2.9755 13.7357C3.0399 10.902 4.19429 8.20225 6.19851 6.19802C8.20274 4.1938 10.9025 3.03941 13.7362 2.97501C16.5698 2.91061 19.3193 3.94116 21.4125 5.85226C23.5057 7.76337 24.7815 10.4079 24.9746 13.2357C25.1676 16.0635 24.2631 18.8569 22.449 21.0348L28.7078 27.2923C28.8008 27.3852 28.8745 27.4955 28.9248 27.6169C28.9752 27.7383 29.0011 27.8684 29.0011 27.9998C29.0011 28.1312 28.9752 28.2613 28.9248 28.3827C28.8745 28.5041 28.8008 28.6144 28.7078 28.7073ZM14.0003 22.9998C15.7803 22.9998 17.5204 22.472 19.0004 21.483C20.4805 20.4941 21.634 19.0885 22.3152 17.4439C22.9964 15.7994 23.1746 13.9898 22.8274 12.244C22.4801 10.4982 21.6229 8.89451 20.3642 7.63584C19.1056 6.37716 17.5019 5.52 15.7561 5.17273C14.0103 4.82546 12.2007 5.00369 10.5561 5.68488C8.9116 6.36607 7.50599 7.51962 6.51706 8.99966C5.52813 10.4797 5.00029 12.2198 5.00029 13.9998C5.00293 16.3859 5.95199 18.6736 7.63925 20.3608C9.3265 22.0481 11.6141 22.9972 14.0003 22.9998Z" fill="#222222"/>
</svg>
