<svg width="32" height="32" viewBox="0 0 32 32" fill="none" xmlns="http://www.w3.org/2000/svg">
<path d="M25.1927 6.80741C22.7547 4.36941 19.448 2.99976 16.0002 2.99976C12.5523 2.99976 9.24566 4.36941 6.80766 6.80741C4.36966 9.24542 3 12.5521 3 15.9999C3 19.4478 4.36966 22.7544 6.80766 25.1924C9.24566 27.6304 12.5523 29.0001 16.0002 29.0001C19.448 29.0001 22.7547 27.6304 25.1927 25.1924C27.6307 22.7544 29.0003 19.4478 29.0003 15.9999C29.0003 12.5521 27.6307 9.24542 25.1927 6.80741ZM11.0002 25.7962V21.9999H21.0002V25.7962C19.4508 26.5826 17.7377 26.9924 16.0002 26.9924C14.2626 26.9924 12.5496 26.5826 11.0002 25.7962ZM13.0002 17.9999H19.0002V19.9999H13.0002V17.9999ZM14.7502 15.9999L16.0002 9.99991L17.2502 15.9999H14.7502ZM23.7777 23.7787C23.5277 24.0287 23.2677 24.2624 23.0002 24.4837V21.9999C23.0002 21.4695 22.7894 20.9608 22.4144 20.5857C22.0393 20.2106 21.5306 19.9999 21.0002 19.9999V17.9999C20.9995 17.5217 20.8276 17.0595 20.5155 16.6972C20.2034 16.3349 19.7718 16.0963 19.2989 16.0249L17.9577 9.59241C17.8635 9.14295 17.6175 8.73959 17.2611 8.45007C16.9046 8.16056 16.4594 8.00253 16.0002 8.00253C15.5409 8.00253 15.0957 8.16056 14.7393 8.45007C14.3828 8.73959 14.1368 9.14295 14.0427 9.59241L12.7014 16.0249C12.2285 16.0963 11.7969 16.3349 11.4848 16.6972C11.1727 17.0595 11.0008 17.5217 11.0002 17.9999V19.9999C10.4697 19.9999 9.96102 20.2106 9.58595 20.5857C9.21087 20.9608 9.00016 21.4695 9.00016 21.9999V24.4837C8.73266 24.2624 8.47266 24.0287 8.22266 23.7787C6.68409 22.2404 5.63625 20.2804 5.21166 18.1465C4.78707 16.0127 5.00479 13.8008 5.8373 11.7907C6.66981 9.78064 8.07971 8.06256 9.88869 6.85378C11.6977 5.645 13.8245 4.99981 16.0002 4.99981C18.1758 4.99981 20.3026 5.645 22.1116 6.85378C23.9206 8.06256 25.3305 9.78064 26.163 11.7907C26.9955 13.8008 27.2132 16.0127 26.7887 18.1465C26.3641 20.2804 25.3162 22.2404 23.7777 23.7787Z" fill="#222222"/>
</svg>
