<svg width="32" height="32" viewBox="0 0 32 32" fill="none" xmlns="http://www.w3.org/2000/svg">
<path d="M12.0001 15.0001C11.0112 15.0001 10.0445 15.2933 9.22222 15.8427C8.39997 16.3921 7.75911 17.173 7.38067 18.0867C7.00223 19.0003 6.90322 20.0056 7.09614 20.9755C7.28907 21.9454 7.76527 22.8363 8.46453 23.5356C9.1638 24.2349 10.0547 24.7111 11.0246 24.904C11.9945 25.0969 12.9999 24.9979 13.9135 24.6195C14.8271 24.241 15.608 23.6002 16.1574 22.7779C16.7068 21.9557 17.0001 20.989 17.0001 20.0001C17.0001 18.674 16.4733 17.4022 15.5356 16.4645C14.5979 15.5269 13.3261 15.0001 12.0001 15.0001ZM12.0001 23.0001C11.4067 23.0001 10.8267 22.8241 10.3334 22.4945C9.84001 22.1648 9.45549 21.6963 9.22843 21.1481C9.00137 20.5999 8.94196 19.9967 9.05771 19.4148C9.17347 18.8329 9.45919 18.2983 9.87875 17.8787C10.2983 17.4592 10.8329 17.1735 11.4148 17.0577C11.9967 16.942 12.5999 17.0014 13.1481 17.2284C13.6963 17.4555 14.1648 17.84 14.4945 18.3334C14.8241 18.8267 15.0001 19.4067 15.0001 20.0001C15.0001 20.7957 14.684 21.5588 14.1214 22.1214C13.5588 22.684 12.7957 23.0001 12.0001 23.0001ZM27.7076 15.2926C27.8005 15.3854 27.8743 15.4957 27.9246 15.6171C27.975 15.7385 28.0009 15.8687 28.0009 16.0001C28.0009 16.1315 27.975 16.2616 27.9246 16.383C27.8743 16.5044 27.8005 16.6147 27.7076 16.7076L21.7076 22.7076C21.5199 22.8952 21.2654 23.0006 21.0001 23.0006C20.7347 23.0006 20.4802 22.8952 20.2926 22.7076C20.1049 22.5199 19.9995 22.2654 19.9995 22.0001C19.9995 21.7347 20.1049 21.4802 20.2926 21.2926L26.2926 15.2926C26.3854 15.1996 26.4957 15.1258 26.6171 15.0755C26.7385 15.0252 26.8687 14.9993 27.0001 14.9993C27.1315 14.9993 27.2616 15.0252 27.383 15.0755C27.5044 15.1258 27.6147 15.1996 27.7076 15.2926ZM20.0001 17.0001C19.8022 17.0002 19.6087 16.9417 19.4441 16.8318C19.2795 16.7219 19.1512 16.5657 19.0754 16.3829C18.9997 16.2 18.9799 15.9988 19.0185 15.8048C19.0572 15.6107 19.1526 15.4324 19.2926 15.2926L22.2926 12.2926C22.3855 12.1997 22.4958 12.126 22.6172 12.0757C22.7386 12.0254 22.8687 11.9995 23.0001 11.9995C23.1315 11.9995 23.2616 12.0254 23.383 12.0757C23.5044 12.126 23.6147 12.1997 23.7076 12.2926C23.8005 12.3855 23.8742 12.4958 23.9245 12.6172C23.9747 12.7386 24.0006 12.8687 24.0006 13.0001C24.0006 13.1315 23.9747 13.2616 23.9245 13.383C23.8742 13.5044 23.8005 13.6147 23.7076 13.7076L20.7076 16.7076C20.6146 16.8004 20.5043 16.874 20.3829 16.9242C20.2615 16.9744 20.1314 17.0002 20.0001 17.0001ZM28.7076 8.70757L26.7076 10.7076C26.5199 10.8952 26.2654 11.0006 26.0001 11.0006C25.7347 11.0006 25.4802 10.8952 25.2926 10.7076C25.1049 10.5199 24.9995 10.2654 24.9995 10.0001C24.9995 9.7347 25.1049 9.48021 25.2926 9.29257L27.2926 7.29257C27.3855 7.19966 27.4958 7.12596 27.6172 7.07567C27.7386 7.02539 27.8687 6.99951 28.0001 6.99951C28.1315 6.99951 28.2616 7.02539 28.383 7.07567C28.5044 7.12596 28.6147 7.19966 28.7076 7.29257C28.8005 7.38548 28.8742 7.49578 28.9245 7.61717C28.9747 7.73856 29.0006 7.86867 29.0006 8.00007C29.0006 8.13146 28.9747 8.26157 28.9245 8.38296C28.8742 8.50436 28.8005 8.61466 28.7076 8.70757ZM15.2926 11.2926L24.2926 2.29257C24.3855 2.19966 24.4958 2.12596 24.6172 2.07567C24.7386 2.02539 24.8687 1.99951 25.0001 1.99951C25.1315 1.99951 25.2616 2.02539 25.383 2.07567C25.5044 2.12596 25.6147 2.19966 25.7076 2.29257C25.8005 2.38548 25.8742 2.49578 25.9245 2.61717C25.9747 2.73856 26.0006 2.86867 26.0006 3.00007C26.0006 3.13146 25.9747 3.26157 25.9245 3.38296C25.8742 3.50436 25.8005 3.61466 25.7076 3.70757L16.7076 12.7076C16.5199 12.8952 16.2654 13.0006 16.0001 13.0006C15.7347 13.0006 15.4802 12.8952 15.2926 12.7076C15.1049 12.5199 14.9995 12.2654 14.9995 12.0001C14.9995 11.7347 15.1049 11.4802 15.2926 11.2926ZM18.3638 24.9501C18.5512 25.1376 18.6565 25.3918 18.6565 25.6569C18.6565 25.922 18.5512 26.1763 18.3638 26.3638C17.5306 27.2107 16.5379 27.8843 15.4431 28.3456C14.3483 28.807 13.1729 29.047 11.9849 29.0518C10.7968 29.0567 9.61958 28.8262 8.52103 28.3738C7.42248 27.9214 6.42437 27.2559 5.58428 26.4159C4.74419 25.5758 4.07875 24.5777 3.62633 23.4791C3.17391 22.3806 2.94348 21.2033 2.94832 20.0152C2.95315 18.8272 3.19317 17.6519 3.65452 16.557C4.11587 15.4622 4.78942 14.4695 5.63632 13.6363L15.9788 3.29257C16.0717 3.19966 16.182 3.12596 16.3034 3.07567C16.4248 3.02539 16.5549 2.99951 16.6863 2.99951C16.8177 2.99951 16.9478 3.02539 17.0692 3.07567C17.1906 3.12596 17.3009 3.19966 17.3938 3.29257C17.4867 3.38548 17.5604 3.49578 17.6107 3.61717C17.661 3.73856 17.6869 3.86867 17.6869 4.00007C17.6869 4.13146 17.661 4.26157 17.6107 4.38296C17.5604 4.50436 17.4867 4.61466 17.3938 4.70757L7.05007 15.0501C5.73725 16.3629 4.99971 18.1435 4.99971 20.0001C4.99971 21.8567 5.73725 23.6372 7.05007 24.9501C8.36289 26.2629 10.1435 27.0004 12.0001 27.0004C13.8567 27.0004 15.6372 26.2629 16.9501 24.9501C17.1376 24.7627 17.3918 24.6574 17.6569 24.6574C17.922 24.6574 18.1763 24.7627 18.3638 24.9501Z" fill="#222222"/>
</svg>
