<svg width="32" height="32" viewBox="0 0 32 32" fill="none" xmlns="http://www.w3.org/2000/svg">
<path d="M26.7397 27.3274L6.73975 5.32744C6.56045 5.13484 6.31247 5.02067 6.04956 5.00969C5.78665 4.9987 5.53 5.09179 5.33527 5.26876C5.14053 5.44574 5.02339 5.69234 5.00926 5.9551C4.99512 6.21785 5.08512 6.4756 5.25975 6.67244L9.99975 11.8862V15.9999C9.99951 17.0186 10.2586 18.0205 10.7527 18.9114C11.2467 19.8022 11.9594 20.5526 12.8237 21.0918C13.6879 21.631 14.6752 21.9413 15.6925 21.9935C16.7098 22.0456 17.7236 21.8379 18.6385 21.3899L20.026 22.9149C18.8048 23.6295 17.4146 24.0041 15.9998 23.9999C13.8787 23.9976 11.8452 23.154 10.3455 21.6542C8.84566 20.1544 8.00207 18.121 7.99975 15.9999C7.99975 15.7347 7.89439 15.4804 7.70686 15.2928C7.51932 15.1053 7.26497 14.9999 6.99975 14.9999C6.73453 14.9999 6.48018 15.1053 6.29264 15.2928C6.10511 15.4804 5.99975 15.7347 5.99975 15.9999C6.0028 18.4781 6.92465 20.8671 8.58705 22.705C10.2495 24.5429 12.5343 25.6991 14.9998 25.9499V29.9999C14.9998 30.2652 15.1051 30.5195 15.2926 30.7071C15.4802 30.8946 15.7345 30.9999 15.9998 30.9999C16.265 30.9999 16.5193 30.8946 16.7069 30.7071C16.8944 30.5195 16.9998 30.2652 16.9998 29.9999V25.9487C18.5657 25.7977 20.0727 25.2739 21.3948 24.4212L25.2598 28.6712C25.3476 28.7702 25.4542 28.8508 25.5734 28.9083C25.6925 28.9657 25.822 28.999 25.9541 29.0061C26.0862 29.0132 26.2185 28.994 26.3431 28.9497C26.4678 28.9053 26.5824 28.8366 26.6804 28.7476C26.7783 28.6586 26.8576 28.5511 26.9136 28.4312C26.9697 28.3113 27.0014 28.1815 27.0069 28.0493C27.0125 27.9171 26.9917 27.7851 26.9458 27.661C26.9 27.5368 26.8299 27.423 26.7397 27.3262V27.3274ZM15.9998 19.9999C14.9389 19.9999 13.9215 19.5785 13.1713 18.8284C12.4212 18.0782 11.9998 17.0608 11.9998 15.9999V14.0862L17.2073 19.8137C16.8167 19.9372 16.4094 20.0001 15.9998 19.9999ZM23.1898 19.5112C23.7261 18.4186 24.0033 17.2171 23.9998 15.9999C23.9998 15.7347 24.1051 15.4804 24.2926 15.2928C24.4802 15.1053 24.7345 14.9999 24.9998 14.9999C25.265 14.9999 25.5193 15.1053 25.7069 15.2928C25.8944 15.4804 25.9998 15.7347 25.9998 15.9999C26.0039 17.5218 25.657 19.024 24.986 20.3899C24.9038 20.5583 24.776 20.7002 24.6171 20.7994C24.4582 20.8986 24.2746 20.9512 24.0872 20.9512C23.935 20.9514 23.7849 20.9163 23.6485 20.8487C23.4103 20.7321 23.2282 20.5257 23.1422 20.2749C23.0562 20.0241 23.0733 19.7494 23.1898 19.5112ZM10.4998 5.60869C11.0505 4.34546 12.0193 3.31032 13.2433 2.67723C14.4674 2.04415 15.872 1.8517 17.2212 2.13225C18.5704 2.4128 19.782 3.14923 20.6522 4.21779C21.5224 5.28634 21.9982 6.62188 21.9998 7.99994V15.9999C21.9995 16.2087 21.9887 16.4173 21.9673 16.6249C21.9415 16.8718 21.8249 17.1002 21.6401 17.2659C21.4552 17.4315 21.2154 17.5225 20.9673 17.5212C20.9323 17.523 20.8972 17.523 20.8622 17.5212C20.5985 17.4935 20.3566 17.3621 20.1897 17.1561C20.0228 16.9501 19.9446 16.6862 19.9722 16.4224C19.986 16.2849 19.9935 16.1424 19.9935 16.0024V7.99994C19.9909 7.08246 19.6729 6.19378 19.0929 5.48286C18.5129 4.77195 17.7062 4.28203 16.8079 4.09523C15.9097 3.90842 14.9745 4.0361 14.1592 4.45684C13.3438 4.87759 12.6979 5.56583 12.3298 6.40619C12.283 6.53444 12.2105 6.65175 12.1167 6.75092C12.0229 6.85008 11.9098 6.929 11.7844 6.9828C11.6589 7.0366 11.5238 7.06415 11.3873 7.06375C11.2508 7.06335 11.1158 7.03502 10.9907 6.98049C10.8656 6.92596 10.7529 6.84639 10.6597 6.74668C10.5665 6.64697 10.4947 6.52923 10.4487 6.40072C10.4027 6.2722 10.3835 6.13564 10.3923 5.99942C10.4011 5.86321 10.4376 5.73024 10.4998 5.60869Z" fill="#222222"/>
</svg>
