<svg width="32" height="32" viewBox="0 0 32 32" fill="none" xmlns="http://www.w3.org/2000/svg">
<path d="M30.53 7.49997C30.386 7.41012 30.2216 7.35839 30.0521 7.34964C29.8826 7.34089 29.7137 7.37542 29.5613 7.44997C24.195 10.075 20.3625 8.84497 16.3113 7.54747C12.0613 6.18622 7.655 4.77997 1.5675 7.75247C1.39741 7.83406 1.25387 7.96209 1.15345 8.12179C1.05304 8.28149 0.999837 8.46633 1 8.65497V23.6462C0.999976 23.8159 1.04312 23.9828 1.12538 24.1312C1.20764 24.2796 1.3263 24.4046 1.4702 24.4945C1.6141 24.5844 1.77851 24.6362 1.94794 24.645C2.11738 24.6538 2.28628 24.6194 2.43875 24.545C7.805 21.92 11.6375 23.15 15.695 24.4475C18.1 25.2162 20.55 26 23.32 26C25.4562 26 27.7863 25.535 30.4338 24.2425C30.6019 24.1604 30.7437 24.0327 30.8429 23.8741C30.9421 23.7154 30.9948 23.5321 30.995 23.345V8.35372C30.9965 8.18361 30.9546 8.01593 30.8732 7.86654C30.7919 7.71714 30.6737 7.59098 30.53 7.49997ZM29 22.7087C23.925 24.98 20.2188 23.795 16.305 22.5437C13.9 21.775 11.45 20.9912 8.68 20.9912C6.73388 21.0007 4.80755 21.3825 3.005 22.1162V9.29122C8.08 7.01997 11.7863 8.20497 15.7 9.45622C19.6138 10.7075 23.6425 12 29 9.88622V22.7087ZM16 12C15.2089 12 14.4355 12.2346 13.7777 12.6741C13.1199 13.1136 12.6072 13.7383 12.3045 14.4692C12.0017 15.2001 11.9225 16.0044 12.0769 16.7803C12.2312 17.5563 12.6122 18.269 13.1716 18.8284C13.731 19.3878 14.4437 19.7688 15.2196 19.9231C15.9956 20.0775 16.7998 19.9982 17.5307 19.6955C18.2616 19.3927 18.8864 18.88 19.3259 18.2223C19.7654 17.5645 20 16.7911 20 16C20 14.9391 19.5786 13.9217 18.8284 13.1715C18.0783 12.4214 17.0609 12 16 12ZM16 18C15.6044 18 15.2178 17.8827 14.8889 17.6629C14.56 17.4431 14.3036 17.1308 14.1522 16.7653C14.0009 16.3999 13.9613 15.9978 14.0384 15.6098C14.1156 15.2218 14.3061 14.8655 14.5858 14.5858C14.8655 14.3061 15.2219 14.1156 15.6098 14.0384C15.9978 13.9612 16.3999 14.0008 16.7654 14.1522C17.1308 14.3036 17.4432 14.5599 17.6629 14.8888C17.8827 15.2177 18 15.6044 18 16C18 16.5304 17.7893 17.0391 17.4142 17.4142C17.0391 17.7893 16.5304 18 16 18ZM7 12V18C7 18.2652 6.89464 18.5195 6.70711 18.7071C6.51957 18.8946 6.26522 19 6 19C5.73478 19 5.48043 18.8946 5.29289 18.7071C5.10536 18.5195 5 18.2652 5 18V12C5 11.7348 5.10536 11.4804 5.29289 11.2929C5.48043 11.1053 5.73478 11 6 11C6.26522 11 6.51957 11.1053 6.70711 11.2929C6.89464 11.4804 7 11.7348 7 12ZM25 20V14C25 13.7348 25.1054 13.4804 25.2929 13.2929C25.4804 13.1053 25.7348 13 26 13C26.2652 13 26.5196 13.1053 26.7071 13.2929C26.8946 13.4804 27 13.7348 27 14V20C27 20.2652 26.8946 20.5195 26.7071 20.7071C26.5196 20.8946 26.2652 21 26 21C25.7348 21 25.4804 20.8946 25.2929 20.7071C25.1054 20.5195 25 20.2652 25 20Z" fill="#222222"/>
</svg>
