<svg width="32" height="32" viewBox="0 0 32 32" fill="none" xmlns="http://www.w3.org/2000/svg">
<path d="M26.615 2.21119C26.4952 2.11785 26.3557 2.05302 26.2072 2.02162C26.0586 1.99021 25.9048 1.99306 25.7575 2.02994L9.75751 6.02994C9.54117 6.08402 9.34911 6.20885 9.21186 6.3846C9.07461 6.56036 9.00004 6.77694 9.00001 6.99994V20.7599C8.1658 20.2026 7.16925 19.9399 6.16869 20.0138C5.16813 20.0877 4.22095 20.4938 3.47764 21.1676C2.73433 21.8415 2.23752 22.7444 2.06614 23.7329C1.89477 24.7215 2.05866 25.7389 2.53177 26.6236C3.00489 27.5084 3.76009 28.2096 4.6774 28.616C5.5947 29.0223 6.6215 29.1105 7.59464 28.8664C8.56779 28.6224 9.43147 28.0601 10.0485 27.269C10.6655 26.4779 11.0004 25.5032 11 24.4999V13.7812L25 10.2812V16.7599C24.1658 16.2026 23.1692 15.9399 22.1687 16.0138C21.1681 16.0877 20.221 16.4938 19.4776 17.1676C18.7343 17.8415 18.2375 18.7444 18.0661 19.7329C17.8948 20.7215 18.0587 21.7389 18.5318 22.6236C19.0049 23.5084 19.7601 24.2096 20.6774 24.616C21.5947 25.0223 22.6215 25.1105 23.5946 24.8664C24.5678 24.6224 25.4315 24.0601 26.0485 23.269C26.6655 22.4779 27.0004 21.5032 27 20.4999V2.99994C27 2.84785 26.9654 2.69775 26.8987 2.56107C26.8319 2.42439 26.7349 2.30473 26.615 2.21119ZM6.50001 26.9999C6.00555 26.9999 5.5222 26.8533 5.11108 26.5786C4.69996 26.3039 4.37953 25.9135 4.19031 25.4566C4.00109 24.9998 3.95158 24.4972 4.04804 24.0122C4.14451 23.5273 4.38261 23.0818 4.73224 22.7322C5.08187 22.3825 5.52733 22.1444 6.01228 22.048C6.49723 21.9515 6.9999 22.001 7.45671 22.1902C7.91353 22.3795 8.30398 22.6999 8.57868 23.111C8.85338 23.5221 9.00001 24.0055 9.00001 24.4999C9.00001 25.163 8.73661 25.7989 8.26777 26.2677C7.79893 26.7365 7.16305 26.9999 6.50001 26.9999ZM11 11.7187V7.78119L25 4.28119V8.21869L11 11.7187ZM22.5 22.9999C22.0056 22.9999 21.5222 22.8533 21.1111 22.5786C20.7 22.3039 20.3795 21.9135 20.1903 21.4566C20.0011 20.9998 19.9516 20.4972 20.048 20.0122C20.1445 19.5273 20.3826 19.0818 20.7322 18.7322C21.0819 18.3825 21.5273 18.1444 22.0123 18.048C22.4972 17.9515 22.9999 18.001 23.4567 18.1902C23.9135 18.3795 24.304 18.6999 24.5787 19.111C24.8534 19.5221 25 20.0055 25 20.4999C25 21.163 24.7366 21.7989 24.2678 22.2677C23.7989 22.7365 23.163 22.9999 22.5 22.9999Z" fill="#222222"/>
</svg>
