<svg width="32" height="32" viewBox="0 0 32 32" fill="none" xmlns="http://www.w3.org/2000/svg">
<path d="M29.666 13.2762L7.67599 5.12497L7.65599 5.11872C7.30203 4.99685 6.92097 4.97676 6.55616 5.06075C6.19136 5.14474 5.85744 5.32943 5.59241 5.59381C5.32738 5.8582 5.14187 6.19165 5.05698 6.55625C4.97209 6.92085 4.99124 7.30196 5.11224 7.65622C5.11376 7.66305 5.11585 7.66974 5.11849 7.67622L13.276 29.6662C13.41 30.0583 13.6641 30.3982 14.0022 30.6376C14.3404 30.8771 14.7454 31.0038 15.1597 31H15.1972C15.6197 30.9967 16.03 30.8578 16.3676 30.6038C16.7052 30.3497 16.9522 29.9938 17.0722 29.5887L17.0797 29.5637L19.8097 19.8137L29.5597 17.0837L29.5847 17.0762C29.9869 16.9525 30.3397 16.7051 30.5931 16.3692C30.8465 16.0333 30.9875 15.6261 30.9961 15.2055C31.0047 14.7848 30.8804 14.3722 30.6409 14.0263C30.4014 13.6804 30.059 13.4188 29.6622 13.2787L29.666 13.2762ZM18.7297 18.0375C18.5646 18.0838 18.4142 18.1719 18.2929 18.2931C18.1716 18.4144 18.0836 18.5648 18.0372 18.73L15.1622 29L15.1547 28.9787L6.99974 6.99997L28.9772 15.1525L28.9972 15.16L18.7297 18.0375Z" fill="#222222"/>
</svg>
