<svg width="32" height="32" viewBox="0 0 32 32" fill="none" xmlns="http://www.w3.org/2000/svg">
<path d="M23.708 8.29247C23.8009 8.38534 23.8747 8.49563 23.925 8.61703C23.9753 8.73843 24.0013 8.86855 24.0013 8.99997C24.0013 9.13139 23.9753 9.26151 23.925 9.38291C23.8747 9.50431 23.8009 9.6146 23.708 9.70747L21.708 11.7075C21.5203 11.8951 21.2658 12.0005 21.0005 12.0005C20.7351 12.0005 20.4806 11.8951 20.293 11.7075C20.1053 11.5198 19.9999 11.2653 19.9999 11C19.9999 10.7346 20.1053 10.4801 20.293 10.2925L22.293 8.29247C22.3858 8.19949 22.4961 8.12573 22.6175 8.07541C22.7389 8.02509 22.869 7.99918 23.0005 7.99918C23.1319 7.99918 23.262 8.02509 23.3834 8.07541C23.5048 8.12573 23.6151 8.19949 23.708 8.29247ZM28.0005 8.99997C28.0023 9.65682 27.8738 10.3075 27.6223 10.9143C27.3708 11.5211 27.0014 12.072 26.5355 12.535L23.5355 15.535C23.3894 15.6812 23.2016 15.7786 22.998 15.8137C16.5617 16.9187 5.81547 27.5987 5.70797 27.7075C5.52033 27.8949 5.2659 28.0002 5.00065 28.0001C4.7354 28 4.48107 27.8945 4.29359 27.7068C4.10612 27.5192 4.00086 27.2648 4.00098 26.9995C4.00109 26.7343 4.10658 26.4799 4.29422 26.2925C4.50047 26.0912 15.0867 15.41 16.1867 8.99997C16.2219 8.7963 16.3192 8.60853 16.4655 8.46247L19.4655 5.46247C20.1649 4.76327 21.0559 4.28719 22.0259 4.09443C22.9959 3.90167 24.0013 4.0009 24.9149 4.37956C25.8285 4.75822 26.6093 5.3993 27.1585 6.22174C27.7077 7.04417 28.0007 8.01101 28.0005 8.99997ZM26.0005 8.99997C26.0019 8.40555 25.8268 7.8241 25.4972 7.3294C25.1677 6.8347 24.6986 6.44904 24.1495 6.22137C23.6004 5.9937 22.9961 5.93428 22.4132 6.05064C21.8303 6.16701 21.295 6.45392 20.8755 6.87497L18.0967 9.66122C17.5455 12.305 15.7342 15.435 13.6605 18.34C16.5655 16.2662 19.6955 14.455 22.3392 13.9037L25.1255 11.125C25.4047 10.8463 25.6257 10.5149 25.7759 10.1502C25.9261 9.7854 26.0025 9.39445 26.0005 8.99997Z" fill="#222222"/>
</svg>
