<svg width="32" height="32" viewBox="0 0 32 32" fill="none" xmlns="http://www.w3.org/2000/svg">
<path d="M26.7071 16.7076L16.7071 26.7076C16.6142 26.8005 16.5039 26.8742 16.3825 26.9244C16.2611 26.9747 16.131 27.0006 15.9996 27.0006C15.8682 27.0006 15.7381 26.9747 15.6167 26.9244C15.4953 26.8742 15.385 26.8005 15.2921 26.7076C15.1992 26.6146 15.1255 26.5043 15.0752 26.3829C15.0249 26.2616 14.999 26.1314 14.999 26.0001C14.999 25.8687 15.0249 25.7386 15.0752 25.6172C15.1255 25.4958 15.1992 25.3855 15.2921 25.2926L25.2921 15.2926C25.385 15.1996 25.4953 15.1259 25.6167 15.0757C25.7381 15.0254 25.8682 14.9995 25.9996 14.9995C26.131 14.9995 26.2611 15.0254 26.3825 15.0757C26.5039 15.1259 26.6142 15.1996 26.7071 15.2926C26.8 15.3855 26.8737 15.4958 26.924 15.6172C26.9743 15.7386 27.0001 15.8687 27.0001 16.0001C27.0001 16.1314 26.9743 16.2616 26.924 16.383C26.8737 16.5043 26.8 16.6146 26.7071 16.7076ZM24.7071 4.29255C24.6142 4.19958 24.5039 4.12582 24.3825 4.07549C24.2611 4.02517 24.131 3.99927 23.9996 3.99927C23.8682 3.99927 23.738 4.02517 23.6166 4.07549C23.4952 4.12582 23.385 4.19958 23.2921 4.29255L4.29208 23.2926C4.10444 23.4802 3.99902 23.7347 3.99902 24.0001C3.99902 24.2654 4.10444 24.5199 4.29208 24.7076C4.47972 24.8952 4.73422 25.0006 4.99958 25.0006C5.26494 25.0006 5.51944 24.8952 5.70708 24.7076L24.7071 5.70755C24.8001 5.61468 24.8738 5.50439 24.9241 5.38299C24.9745 5.2616 25.0004 5.13147 25.0004 5.00005C25.0004 4.86864 24.9745 4.73851 24.9241 4.61711C24.8738 4.49572 24.8001 4.38543 24.7071 4.29255Z" fill="#222222"/>
</svg>
