<svg width="32" height="32" viewBox="0 0 32 32" fill="none" xmlns="http://www.w3.org/2000/svg">
<path d="M28 19.9999C28 20.2651 27.8946 20.5195 27.7071 20.707C27.5196 20.8946 27.2652 20.9999 27 20.9999H12.8062L6.74 27.6724C6.5607 27.865 6.31272 27.9792 6.04981 27.9902C5.7869 28.0012 5.53025 27.9081 5.33552 27.7311C5.14078 27.5541 5.02364 27.3075 5.00951 27.0448C4.99537 26.782 5.08537 26.5243 5.26 26.3274L10.1025 20.9999H5C4.73478 20.9999 4.48043 20.8946 4.29289 20.707C4.10536 20.5195 4 20.2651 4 19.9999C4 19.7347 4.10536 19.4803 4.29289 19.2928C4.48043 19.1053 4.73478 18.9999 5 18.9999H11.9213L17.375 12.9999H5C4.73478 12.9999 4.48043 12.8946 4.29289 12.707C4.10536 12.5195 4 12.2651 4 11.9999C4 11.7347 4.10536 11.4803 4.29289 11.2928C4.48043 11.1053 4.73478 10.9999 5 10.9999H19.1938L25.26 4.32742C25.4393 4.13482 25.6873 4.02065 25.9502 4.00966C26.2131 3.99868 26.4697 4.09176 26.6645 4.26874C26.8592 4.44571 26.9764 4.69231 26.9905 4.95507C27.0046 5.21783 26.9146 5.47557 26.74 5.67242L21.8975 10.9999H27C27.2652 10.9999 27.5196 11.1053 27.7071 11.2928C27.8946 11.4803 28 11.7347 28 11.9999C28 12.2651 27.8946 12.5195 27.7071 12.707C27.5196 12.8946 27.2652 12.9999 27 12.9999H20.0788L14.625 18.9999H27C27.2652 18.9999 27.5196 19.1053 27.7071 19.2928C27.8946 19.4803 28 19.7347 28 19.9999Z" fill="#222222"/>
</svg>
