<svg width="32" height="32" viewBox="0 0 32 32" fill="none" xmlns="http://www.w3.org/2000/svg">
<path d="M18.0003 6.00007V26.0001C18.0003 26.2653 17.8949 26.5196 17.7074 26.7072C17.5198 26.8947 17.2655 27.0001 17.0003 27.0001C16.7351 27.0001 16.4807 26.8947 16.2932 26.7072C16.1056 26.5196 16.0003 26.2653 16.0003 26.0001V7.76632L12.5153 9.85757C12.2878 9.99415 12.0155 10.0348 11.7581 9.97057C11.5007 9.90634 11.2794 9.74249 11.1428 9.51507C11.0062 9.28764 10.9655 9.01528 11.0298 8.75788C11.094 8.50049 11.2578 8.27915 11.4853 8.14257L16.4853 5.14257C16.637 5.05139 16.8103 5.00214 16.9873 4.99984C17.1643 4.99754 17.3388 5.04228 17.4928 5.12949C17.6469 5.21669 17.7751 5.34324 17.8642 5.49619C17.9534 5.64915 18.0003 5.82303 18.0003 6.00007Z" fill="#222222"/>
</svg>
