<svg width="32" height="32" viewBox="0 0 32 32" fill="none" xmlns="http://www.w3.org/2000/svg">
<path d="M22.9996 20H20.9997V6.00005C20.9998 5.79272 20.9355 5.59046 20.8157 5.42126C20.6958 5.25207 20.5264 5.12431 20.3307 5.05567C20.1351 4.98702 19.923 4.98088 19.7237 5.0381C19.5244 5.09532 19.3478 5.21307 19.2184 5.37505L7.2184 20.375C7.10062 20.5222 7.0268 20.6996 7.00546 20.8868C6.98412 21.074 7.01612 21.2635 7.09777 21.4333C7.17943 21.6032 7.30741 21.7465 7.46698 21.8468C7.62655 21.947 7.8112 22.0002 7.99965 22H18.9997V26C18.9997 26.2653 19.105 26.5196 19.2925 26.7072C19.4801 26.8947 19.7344 27 19.9997 27C20.2649 27 20.5192 26.8947 20.7068 26.7072C20.8943 26.5196 20.9997 26.2653 20.9997 26V22H22.9996C23.2649 22 23.5192 21.8947 23.7068 21.7072C23.8943 21.5196 23.9996 21.2653 23.9996 21C23.9996 20.7348 23.8943 20.4805 23.7068 20.2929C23.5192 20.1054 23.2649 20 22.9996 20ZM18.9997 20H10.0796L18.9997 8.8513V20Z" fill="#222222"/>
</svg>
