<svg width="32" height="32" viewBox="0 0 32 32" fill="none" xmlns="http://www.w3.org/2000/svg">
<path d="M26.2071 15.2924C26.3 15.3853 26.3738 15.4956 26.4241 15.617C26.4744 15.7384 26.5003 15.8685 26.5003 15.9999C26.5003 16.1313 26.4744 16.2614 26.4241 16.3828C26.3738 16.5042 26.3 16.6145 26.2071 16.7074L15.9508 26.9574C14.6378 28.2702 12.8571 29.0077 11.0004 29.0076C9.14363 29.0075 7.363 28.2698 6.05017 26.9568C4.73735 25.6438 3.99988 23.8631 4 22.0063C4.00012 20.1496 4.73781 18.369 6.0508 17.0561L18.4583 4.46615C19.3957 3.52778 20.6674 3.00022 21.9938 2.99951C23.3201 2.99881 24.5924 3.52503 25.5308 4.4624C26.4692 5.39977 26.9967 6.67152 26.9974 7.99787C26.9981 9.32422 26.4719 10.5965 25.5345 11.5349L13.1245 24.1249C12.561 24.6885 11.7966 25.0051 10.9995 25.0051C10.2025 25.0051 9.43813 24.6885 8.87455 24.1249C8.31096 23.5613 7.99435 22.7969 7.99435 21.9999C7.99435 21.2029 8.31096 20.4385 8.87455 19.8749L19.287 9.2974C19.3783 9.2001 19.488 9.12202 19.6099 9.06777C19.7317 9.01352 19.8632 8.98419 19.9965 8.98151C20.1298 8.97882 20.2624 9.00284 20.3863 9.05214C20.5102 9.10145 20.623 9.17504 20.7181 9.26859C20.8131 9.36215 20.8885 9.47377 20.9398 9.59689C20.9911 9.72002 21.0172 9.85215 21.0166 9.98552C21.0161 10.1189 20.9888 10.2508 20.9365 10.3735C20.8842 10.4962 20.8079 10.6072 20.712 10.6999L10.2983 21.2887C10.2051 21.3812 10.131 21.4911 10.0802 21.6122C10.0295 21.7334 10.0031 21.8633 10.0026 21.9947C10.002 22.126 10.0274 22.2562 10.0772 22.3777C10.1269 22.4992 10.2002 22.6098 10.2927 22.703C10.3852 22.7963 10.4951 22.8704 10.6163 22.9211C10.7374 22.9719 10.8674 22.9982 10.9987 22.9988C11.13 22.9993 11.2602 22.9739 11.3817 22.9242C11.5033 22.8744 11.6138 22.8012 11.707 22.7087L24.1158 10.1249C24.6794 9.56248 24.9965 8.7992 24.9973 8.00299C24.9981 7.20678 24.6826 6.44286 24.1202 5.87928C23.5577 5.31569 22.7945 4.99861 21.9983 4.99779C21.2021 4.99697 20.4381 5.31248 19.8745 5.8749L7.46955 18.4599C7.00483 18.9239 6.63606 19.4748 6.38427 20.0813C6.13249 20.6878 6.00263 21.338 6.0021 21.9947C6.00158 22.6514 6.13041 23.3017 6.38123 23.9086C6.63205 24.5155 6.99995 25.0671 7.46392 25.5318C7.9279 25.9965 8.47887 26.3653 9.08536 26.6171C9.69186 26.8688 10.342 26.9987 10.9987 26.9992C11.6554 26.9997 12.3057 26.8709 12.9126 26.6201C13.5195 26.3693 14.0711 26.0014 14.5358 25.5374L24.7933 15.2874C24.9815 15.1007 25.2361 14.9963 25.5012 14.9972C25.7663 14.9982 26.0202 15.1043 26.2071 15.2924Z" fill="#222222"/>
</svg>
