<svg width="32" height="32" viewBox="0 0 32 32" fill="none" xmlns="http://www.w3.org/2000/svg">
<path d="M29.7372 25.0125L17.7309 4.02251C17.5569 3.71323 17.3038 3.4558 16.9975 3.27665C16.6911 3.0975 16.3427 3.00308 15.9878 3.00308C15.6329 3.00308 15.2844 3.0975 14.9781 3.27665C14.6718 3.4558 14.4186 3.71323 14.2447 4.02251L2.25841 25.0225C2.05967 25.377 1.97363 25.7836 2.01175 26.1882C2.04986 26.5928 2.21032 26.9761 2.47176 27.2873C2.7332 27.5984 3.08321 27.8225 3.47519 27.9297C3.86716 28.0369 4.28251 28.0222 4.66591 27.8875L15.9997 24.0563L27.3334 27.885C27.5475 27.9604 27.7727 27.9992 27.9997 28C28.3489 27.9988 28.6918 27.9062 28.9942 27.7314C29.2966 27.5565 29.5479 27.3055 29.7231 27.0034C29.8983 26.7012 29.9913 26.3584 29.9929 26.0091C29.9945 25.6599 29.9046 25.3163 29.7322 25.0125H29.7372ZM27.9809 25.9925L16.9997 22.2825V15C16.9997 14.7348 16.8943 14.4804 16.7068 14.2929C16.5192 14.1054 16.2649 14 15.9997 14C15.7344 14 15.4801 14.1054 15.2926 14.2929C15.105 14.4804 14.9997 14.7348 14.9997 15V22.2825L4.01966 25.9925L3.99966 26L15.9822 5.00001L27.9997 26L27.9809 25.9925Z" fill="#222222"/>
</svg>
