<svg width="32" height="32" viewBox="0 0 32 32" fill="none" xmlns="http://www.w3.org/2000/svg">
<path d="M30.6786 5.91375C30.4978 5.63296 30.2493 5.40211 29.956 5.24245C29.6626 5.08278 29.3338 4.99941 28.9999 5H11.1011C10.7159 4.99998 10.3389 5.1112 10.0153 5.32031C9.69181 5.52941 9.43555 5.82751 9.27737 6.17875L1.17737 24.1788C1.04024 24.4833 0.981538 24.8173 1.00663 25.1503C1.03172 25.4833 1.13981 25.8047 1.32102 26.0852C1.50223 26.3658 1.7508 26.5964 2.04406 26.7562C2.33731 26.916 2.66591 26.9998 2.99987 27H20.8986C21.2838 27 21.6609 26.8888 21.9844 26.6797C22.3079 26.4706 22.5642 26.1725 22.7224 25.8213L30.8224 7.82125C30.9597 7.51661 31.0184 7.18241 30.9933 6.8492C30.9682 6.51599 30.86 6.19438 30.6786 5.91375ZM20.8986 25H2.99987L11.1011 7H28.9999L20.8986 25Z" fill="#222222"/>
</svg>
