<svg width="32" height="32" viewBox="0 0 32 32" fill="none" xmlns="http://www.w3.org/2000/svg">
<path d="M26 4.00005H20C19.4696 4.00005 18.9609 4.21077 18.5858 4.58584C18.2107 4.96091 18 5.46962 18 6.00005V26.0001C18 26.5305 18.2107 27.0392 18.5858 27.4143C18.9609 27.7893 19.4696 28.0001 20 28.0001H26C26.5304 28.0001 27.0391 27.7893 27.4142 27.4143C27.7893 27.0392 28 26.5305 28 26.0001V6.00005C28 5.46962 27.7893 4.96091 27.4142 4.58584C27.0391 4.21077 26.5304 4.00005 26 4.00005ZM26 26.0001H20V22.0001H23C23.2652 22.0001 23.5196 21.8947 23.7071 21.7072C23.8946 21.5196 24 21.2653 24 21.0001C24 20.7348 23.8946 20.4805 23.7071 20.2929C23.5196 20.1054 23.2652 20.0001 23 20.0001H20V17.0001H23C23.2652 17.0001 23.5196 16.8947 23.7071 16.7072C23.8946 16.5196 24 16.2653 24 16.0001C24 15.7348 23.8946 15.4805 23.7071 15.2929C23.5196 15.1054 23.2652 15.0001 23 15.0001H20V12.0001H23C23.2652 12.0001 23.5196 11.8947 23.7071 11.7072C23.8946 11.5196 24 11.2653 24 11.0001C24 10.7348 23.8946 10.4805 23.7071 10.2929C23.5196 10.1054 23.2652 10.0001 23 10.0001H20V6.00005H26V26.0001ZM9.7075 3.29255C9.61463 3.19958 9.50434 3.12582 9.38294 3.07549C9.26154 3.02517 9.13142 2.99927 9 2.99927C8.86859 2.99927 8.73846 3.02517 8.61706 3.07549C8.49566 3.12582 8.38537 3.19958 8.2925 3.29255L4.2925 7.29255C4.19967 7.38549 4.12605 7.49581 4.07586 7.6172C4.02568 7.7386 3.9999 7.86869 4 8.00005V26.0001C4 26.5305 4.21071 27.0392 4.58579 27.4143C4.96086 27.7893 5.46957 28.0001 6 28.0001H12C12.5304 28.0001 13.0391 27.7893 13.4142 27.4143C13.7893 27.0392 14 26.5305 14 26.0001V8.00005C14.0001 7.86869 13.9743 7.7386 13.9241 7.6172C13.8739 7.49581 13.8003 7.38549 13.7075 7.29255L9.7075 3.29255ZM6 22.0001V10.0001H8V22.0001H6ZM10 10.0001H12V22.0001H10V10.0001ZM9 5.4138L11.5863 8.00005H6.41375L9 5.4138ZM6 26.0001V24.0001H12V26.0001H6Z" fill="#222222"/>
</svg>
