<svg width="32" height="32" viewBox="0 0 32 32" fill="none" xmlns="http://www.w3.org/2000/svg">
<path d="M27.7908 15.4862C27.7833 15.47 27.7758 15.4538 27.7671 15.4388L23.9996 8.7375V4C23.9996 3.46957 23.7889 2.96086 23.4138 2.58579C23.0387 2.21071 22.53 2 21.9996 2H9.99957C9.46913 2 8.96043 2.21071 8.58535 2.58579C8.21028 2.96086 7.99957 3.46957 7.99957 4V8.74L4.23207 15.4388C4.22332 15.4538 4.21582 15.47 4.20707 15.4862C4.04384 15.8148 3.97451 16.1821 4.00671 16.5476C4.03892 16.913 4.1714 17.2625 4.38957 17.5575L4.40332 17.575L15.2083 31.61C15.3017 31.7311 15.4217 31.8292 15.559 31.8967C15.6963 31.9642 15.8472 31.9993 16.0002 31.9993C16.1532 31.9993 16.3041 31.9642 16.4414 31.8967C16.5787 31.8292 16.6986 31.7311 16.7921 31.61L27.5958 17.575L27.6096 17.5575C27.8278 17.2625 27.9602 16.913 27.9922 16.5474C28.0242 16.1819 27.9545 15.8146 27.7908 15.4862ZM21.9996 4V8H9.99957V4H21.9996ZM15.9996 18C15.7029 18 15.4129 17.912 15.1662 17.7472C14.9195 17.5824 14.7273 17.3481 14.6137 17.074C14.5002 16.7999 14.4705 16.4983 14.5284 16.2074C14.5863 15.9164 14.7291 15.6491 14.9389 15.4393C15.1487 15.2296 15.416 15.0867 15.7069 15.0288C15.9979 14.9709 16.2995 15.0006 16.5736 15.1142C16.8477 15.2277 17.0819 15.42 17.2468 15.6666C17.4116 15.9133 17.4996 16.2033 17.4996 16.5C17.4996 16.8978 17.3415 17.2794 17.0602 17.5607C16.7789 17.842 16.3974 18 15.9996 18ZM16.9996 28.0625V19.8538C17.8052 19.6135 18.4975 19.0914 18.9498 18.3827C19.4021 17.6741 19.5843 16.8263 19.4629 15.9944C19.3415 15.1625 18.9248 14.402 18.2888 13.8521C17.6529 13.3023 16.8403 12.9996 15.9996 12.9996C15.1589 12.9996 14.3462 13.3023 13.7103 13.8521C13.0744 14.402 12.6576 15.1625 12.5362 15.9944C12.4149 16.8263 12.597 17.6741 13.0493 18.3827C13.5016 19.0914 14.1939 19.6135 14.9996 19.8538V28.0613L5.99957 16.375L9.58582 10H22.4146L25.9996 16.375L16.9996 28.0625Z" fill="#222222"/>
</svg>
