<svg width="32" height="32" viewBox="0 0 32 32" fill="none" xmlns="http://www.w3.org/2000/svg">
<path d="M28.1947 10.9449L17.2047 2.40615L17.1822 2.38865C16.8397 2.13589 16.4253 1.99951 15.9997 1.99951C15.5741 1.99951 15.1596 2.13589 14.8172 2.38865L14.7947 2.40615L3.8047 10.9449C3.47198 11.1929 3.22465 11.5383 3.09699 11.9331C2.96933 12.328 2.96765 12.7528 3.0922 13.1486L7.0922 26.5911L7.0997 26.6124C7.22813 27.0154 7.48147 27.3671 7.82305 27.6165C8.16463 27.866 8.57673 28.0002 8.9997 27.9999H22.9997C23.4233 28.001 23.8362 27.8671 24.1786 27.6176C24.5209 27.3681 24.7748 27.016 24.9034 26.6124L24.9109 26.5911L28.9109 13.1486C29.0351 12.7524 29.0328 12.3274 28.9045 11.9325C28.7761 11.5376 28.5281 11.1924 28.1947 10.9449ZM26.9922 12.5699L22.9997 25.9999H8.9997L4.9997 12.5699L4.9922 12.5486L5.0147 12.5311L15.9997 3.9999L26.9772 12.5286L26.9997 12.5461L26.9922 12.5699Z" fill="#222222"/>
</svg>
