<svg width="32" height="32" viewBox="0 0 32 32" fill="none" xmlns="http://www.w3.org/2000/svg">
<path d="M21.4998 11C22.192 11 22.8687 10.7947 23.4442 10.4101C24.0198 10.0256 24.4684 9.47893 24.7333 8.83939C24.9982 8.19985 25.0675 7.49612 24.9325 6.81719C24.7975 6.13825 24.4641 5.51461 23.9746 5.02513C23.4851 4.53564 22.8615 4.2023 22.1826 4.06725C21.5036 3.9322 20.7999 4.00152 20.1604 4.26642C19.5208 4.53133 18.9742 4.97993 18.5896 5.55551C18.205 6.13108 17.9998 6.80777 17.9998 7.5C17.9998 8.42826 18.3685 9.3185 19.0249 9.97487C19.6813 10.6313 20.5715 11 21.4998 11ZM21.4998 6C21.7964 6 22.0864 6.08798 22.3331 6.2528C22.5798 6.41762 22.772 6.65189 22.8856 6.92598C22.9991 7.20007 23.0288 7.50167 22.9709 7.79264C22.913 8.08361 22.7702 8.35088 22.5604 8.56066C22.3506 8.77044 22.0834 8.9133 21.7924 8.97118C21.5014 9.02906 21.1998 8.99935 20.9257 8.88582C20.6516 8.77229 20.4174 8.58003 20.2525 8.33336C20.0877 8.08668 19.9998 7.79667 19.9998 7.5C19.9998 7.10218 20.1578 6.72065 20.4391 6.43934C20.7204 6.15804 21.1019 6 21.4998 6ZM4.03975 9.72C4.07652 9.59393 4.13776 9.47634 4.21998 9.37394C4.30219 9.27154 4.40377 9.18633 4.51892 9.12319C4.63406 9.06005 4.76052 9.0202 4.89106 9.00593C5.0216 8.99165 5.15368 9.00323 5.27975 9.04L13.9998 11.5838L15.2898 10.2925C15.3826 10.1995 15.4929 10.1258 15.6143 10.0754C15.7357 10.0251 15.8658 9.99921 15.9973 9.99921C16.1287 9.99921 16.2588 10.0251 16.3802 10.0754C16.5016 10.1258 16.6119 10.1995 16.7048 10.2925L20.4135 14H24.9998C25.265 14 25.5193 14.1054 25.7069 14.2929C25.8944 14.4804 25.9998 14.7348 25.9998 15C25.9998 15.2652 25.8944 15.5196 25.7069 15.7071C25.5193 15.8946 25.265 16 24.9998 16H19.9998C19.8684 16.0001 19.7383 15.9743 19.6169 15.9241C19.4955 15.8739 19.3852 15.8003 19.2922 15.7075L18.591 15L4.716 10.955C4.46322 10.8799 4.25033 10.708 4.12368 10.4767C3.99702 10.2454 3.96686 9.97343 4.03975 9.72ZM29.5548 25.53C28.4943 26.2386 27.2914 26.7059 26.0308 26.8992C24.7702 27.0925 23.4825 27.007 22.2585 26.6488L2.721 20.9588C2.59273 20.924 2.47266 20.864 2.36783 20.7824C2.263 20.7007 2.17549 20.5989 2.11044 20.4831C2.04538 20.3672 2.00407 20.2395 1.98893 20.1075C1.97379 19.9754 1.98512 19.8417 2.02225 19.7141C2.05939 19.5865 2.12158 19.4676 2.20521 19.3643C2.28883 19.261 2.3922 19.1754 2.50928 19.1125C2.62636 19.0497 2.7548 19.0107 2.88709 18.9981C3.01938 18.9854 3.15286 18.9992 3.27975 19.0388L12.7797 21.805L16.091 18.5L10.7248 16.9613C10.5984 16.9251 10.4805 16.8645 10.3776 16.7828C10.2747 16.7011 10.1889 16.5999 10.1251 16.4851C9.99633 16.2531 9.96494 15.9795 10.0379 15.7244C10.074 15.5981 10.1346 15.4801 10.2163 15.3772C10.298 15.2743 10.3992 15.1886 10.5141 15.1248C10.746 14.996 11.0196 14.9646 11.2747 15.0375L18.2747 17.0375C18.4422 17.0853 18.5943 17.176 18.7159 17.3007C18.8376 17.4253 18.9245 17.5796 18.9682 17.7482C19.0119 17.9168 19.0108 18.0939 18.9651 18.2619C18.9193 18.4299 18.8304 18.5831 18.7073 18.7063L14.9698 22.4438L22.8185 24.7288C23.7621 25.0051 24.7549 25.0711 25.7268 24.9221C26.6987 24.773 27.626 24.4126 28.4435 23.8663C28.5527 23.7934 28.6753 23.7427 28.8041 23.7172C28.9329 23.6917 29.0655 23.6917 29.1943 23.7175C29.3231 23.7432 29.4455 23.794 29.5547 23.867C29.6638 23.9401 29.7575 24.0339 29.8304 24.1431C29.9033 24.2524 29.9539 24.3749 29.9794 24.5037C30.005 24.6325 30.0049 24.7651 29.9792 24.8939C29.9535 25.0227 29.9026 25.1451 29.8296 25.2543C29.7566 25.3634 29.6627 25.4571 29.5535 25.53H29.5548Z" fill="#222222"/>
</svg>
