<svg width="32" height="32" viewBox="0 0 32 32" fill="none" xmlns="http://www.w3.org/2000/svg">
<path d="M22.0001 13C22.7913 13 23.5646 12.7654 24.2224 12.3259C24.8802 11.8864 25.3929 11.2616 25.6956 10.5307C25.9984 9.79983 26.0776 8.99556 25.9233 8.21964C25.7689 7.44372 25.388 6.73098 24.8286 6.17157C24.2691 5.61216 23.5564 5.2312 22.7805 5.07686C22.0046 4.92252 21.2003 5.00173 20.4694 5.30448C19.7385 5.60723 19.1138 6.11992 18.6742 6.77772C18.2347 7.43552 18.0001 8.20888 18.0001 9C18.0001 10.0609 18.4216 11.0783 19.1717 11.8284C19.9218 12.5786 20.9393 13 22.0001 13ZM22.0001 7C22.3957 7 22.7824 7.1173 23.1113 7.33706C23.4402 7.55683 23.6965 7.86918 23.8479 8.23464C23.9993 8.60009 24.0389 9.00222 23.9617 9.39018C23.8845 9.77814 23.694 10.1345 23.4143 10.4142C23.1346 10.6939 22.7783 10.8844 22.3903 10.9616C22.0023 11.0387 21.6002 10.9991 21.2348 10.8478C20.8693 10.6964 20.557 10.44 20.3372 10.1111C20.1174 9.78224 20.0001 9.39556 20.0001 9C20.0001 8.46957 20.2108 7.96086 20.5859 7.58579C20.961 7.21072 21.4697 7 22.0001 7ZM27.7701 23.155C27.94 23.3583 28.0222 23.6207 27.9988 23.8846C27.9754 24.1485 27.8482 24.3923 27.6451 24.5625C25.4751 26.3613 23.5376 27 21.7701 27C19.4476 27 17.4176 25.8975 15.5289 24.875C12.3601 23.155 9.62388 21.6688 5.64513 24.9675C5.54424 25.0526 5.42751 25.1169 5.30167 25.1566C5.17583 25.1964 5.04336 25.2109 4.9119 25.1992C4.78044 25.1875 4.65259 25.1499 4.53573 25.0886C4.41886 25.0273 4.3153 24.9434 4.23099 24.8419C4.14669 24.7403 4.08332 24.6231 4.04454 24.4969C4.00576 24.3708 3.99233 24.2382 4.00503 24.1069C4.01773 23.9755 4.05631 23.8479 4.11855 23.7316C4.18078 23.6152 4.26543 23.5123 4.36763 23.4288C9.38888 19.2675 13.1576 21.3125 16.4839 23.1175C19.6526 24.8388 22.3889 26.3238 26.3676 23.025C26.5713 22.8573 26.833 22.7768 27.0956 22.8012C27.3583 22.8255 27.6008 22.9527 27.7701 23.155ZM4.36138 18.4275C4.25918 18.511 4.17453 18.6139 4.1123 18.7303C4.05006 18.8467 4.01148 18.9742 3.99878 19.1056C3.98608 19.237 3.99951 19.3695 4.03829 19.4957C4.07707 19.6218 4.14044 19.7391 4.22474 19.8406C4.30905 19.9422 4.41261 20.026 4.52948 20.0873C4.64634 20.1487 4.77419 20.1862 4.90565 20.1979C5.03711 20.2096 5.16958 20.1951 5.29542 20.1554C5.42127 20.1156 5.53799 20.0513 5.63888 19.9663C9.61763 16.6688 12.3539 18.1538 15.5226 19.8738C17.4114 20.8988 19.4414 21.9988 21.7639 21.9988C23.5314 21.9988 25.4689 21.36 27.6389 19.5613C27.7411 19.4777 27.8257 19.3748 27.888 19.2584C27.9502 19.1421 27.9888 19.0145 28.0015 18.8831C28.0142 18.7518 28.0007 18.6192 27.962 18.4931C27.9232 18.3669 27.8598 18.2497 27.7755 18.1481C27.6912 18.0466 27.5876 17.9627 27.4708 17.9014C27.3539 17.8401 27.2261 17.8025 27.0946 17.7908C26.9632 17.7792 26.8307 17.7936 26.7048 17.8334C26.579 17.8731 26.4623 17.9374 26.3614 18.0225C25.6384 18.6433 24.826 19.1516 23.9514 19.53L17.2214 12.8025C16.0167 11.5927 14.5841 10.6338 13.0064 9.9811C11.4288 9.32842 9.73743 8.99496 8.03013 9H5.00013C4.73491 9 4.48056 9.10536 4.29302 9.2929C4.10548 9.48043 4.00013 9.73479 4.00013 10C4.00013 10.2652 4.10548 10.5196 4.29302 10.7071C4.48056 10.8946 4.73491 11 5.00013 11H8.03013C9.85791 10.9965 11.6575 11.4503 13.2651 12.32L9.56138 16.0213C7.97763 16.1688 6.25888 16.855 4.36138 18.4275ZM15.8076 14.2188L21.5739 19.9838C19.8239 19.93 18.2139 19.06 16.4776 18.1175C15.1339 17.3875 13.7164 16.6175 12.1751 16.2363L14.9576 13.4538C15.2542 13.6937 15.5379 13.949 15.8076 14.2188Z" fill="#222222"/>
</svg>
