<svg width="32" height="32" viewBox="0 0 32 32" fill="none" xmlns="http://www.w3.org/2000/svg">
<path d="M19.0004 10C19.7915 10 20.5649 9.76541 21.2227 9.32588C21.8805 8.88635 22.3932 8.26164 22.6959 7.53074C22.9987 6.79983 23.0779 5.99556 22.9236 5.21964C22.7692 4.44372 22.3882 3.73098 21.8288 3.17157C21.2694 2.61216 20.5567 2.2312 19.7808 2.07686C19.0048 1.92252 18.2006 2.00173 17.4697 2.30448C16.7388 2.60723 16.1141 3.11992 15.6745 3.77772C15.235 4.43552 15.0004 5.20888 15.0004 6C15.0004 7.06087 15.4218 8.07828 16.172 8.82843C16.9221 9.57857 17.9395 10 19.0004 10ZM19.0004 4C19.396 4 19.7827 4.1173 20.1116 4.33706C20.4405 4.55683 20.6968 4.86918 20.8482 5.23463C20.9995 5.60009 21.0392 6.00222 20.962 6.39018C20.8848 6.77814 20.6943 7.13451 20.4146 7.41422C20.1349 7.69392 19.7786 7.8844 19.3906 7.96157C19.0026 8.03874 18.6005 7.99914 18.235 7.84776C17.8696 7.69639 17.5572 7.44004 17.3375 7.11114C17.1177 6.78224 17.0004 6.39556 17.0004 6C17.0004 5.46957 17.2111 4.96086 17.5862 4.58579C17.9613 4.21072 18.47 4 19.0004 4ZM25.0004 18V29C25.0004 29.2652 24.8951 29.5196 24.7075 29.7071C24.52 29.8946 24.2656 30 24.0004 30C23.7352 30 23.4808 29.8946 23.2933 29.7071C23.1058 29.5196 23.0004 29.2652 23.0004 29V18.9575C19.7817 18.6763 18.7067 17.0175 17.7504 15.5375C17.3942 14.9888 17.0554 14.4663 16.6092 14.0138L14.9342 17.865L19.5842 21.1863C19.7132 21.279 19.8183 21.4013 19.8907 21.5428C19.9631 21.6843 20.0007 21.841 20.0004 22V29C20.0004 29.2652 19.8951 29.5196 19.7075 29.7071C19.52 29.8946 19.2656 30 19.0004 30C18.7352 30 18.4808 29.8946 18.2933 29.7071C18.1058 29.5196 18.0004 29.2652 18.0004 29V22.515L14.1167 19.74L9.91791 29.3988C9.8402 29.5775 9.71196 29.7296 9.54896 29.8364C9.38596 29.9432 9.1953 30.0001 9.00041 30C8.8631 30.0003 8.72724 29.9718 8.60166 29.9163C8.35879 29.8103 8.16788 29.6124 8.07085 29.3658C7.97382 29.1193 7.97861 28.8443 8.08416 28.6013L15.2742 12.0625C15.3287 11.937 15.4085 11.8241 15.5085 11.7307C15.6085 11.6373 15.7266 11.5654 15.8555 11.5195C15.9843 11.4735 16.1213 11.4545 16.2578 11.4637C16.3943 11.4728 16.5275 11.5098 16.6492 11.5725C17.0084 11.76 17.3441 11.9895 17.6492 12.2563C18.4454 12.9463 18.9629 13.745 19.4192 14.45C20.3792 15.93 21.0717 17 23.9942 17C24.126 16.9992 24.2567 17.0244 24.3788 17.0743C24.5008 17.1242 24.6118 17.1977 24.7053 17.2907C24.7988 17.3836 24.8731 17.4941 24.9237 17.6159C24.9743 17.7376 25.0004 17.8682 25.0004 18ZM9.00041 19C9.19607 18.9999 9.3874 18.9424 9.55071 18.8347C9.71402 18.7269 9.84212 18.5736 9.91916 18.3938L12.9192 11.3938C13.0235 11.1501 13.0268 10.8749 12.9283 10.6288C12.8299 10.3827 12.6378 10.1858 12.3942 10.0813L8.89416 8.58125C8.65048 8.47694 8.37536 8.47365 8.12925 8.57209C7.88314 8.67053 7.68618 8.86266 7.58166 9.10625L4.58166 16.1063C4.47735 16.3499 4.47406 16.6251 4.5725 16.8712C4.67094 17.1173 4.86307 17.3142 5.10666 17.4188L8.60666 18.9188C8.73106 18.9722 8.86502 18.9999 9.00041 19ZM6.81416 15.975L9.02541 10.8125L10.6879 11.525L8.47541 16.6863L6.81416 15.975Z" fill="#222222"/>
</svg>
