<svg width="32" height="32" viewBox="0 0 32 32" fill="none" xmlns="http://www.w3.org/2000/svg">
<path d="M6.74105 4.32749C6.65323 4.2285 6.54663 4.14792 6.42745 4.09043C6.30826 4.03294 6.17884 3.99967 6.0467 3.99256C5.91456 3.98545 5.78233 4.00464 5.65766 4.04902C5.53299 4.09339 5.41837 4.16207 5.32043 4.25107C5.2225 4.34007 5.14321 4.44762 5.08715 4.56749C5.03109 4.68736 4.99938 4.81716 4.99385 4.94938C4.98833 5.08159 5.0091 5.21359 5.05497 5.33772C5.10083 5.46184 5.17088 5.57563 5.26105 5.67249L8.7098 9.46749C6.59423 10.3561 4.67215 11.6485 3.05105 13.2725C0.551046 15.7725 0.311046 19.455 2.4648 22.2312C2.72907 22.5694 3.09511 22.8136 3.50884 22.9277C3.92256 23.0418 4.36203 23.0198 4.7623 22.865L10.8873 20.6937L10.9235 20.68C11.2325 20.5565 11.5058 20.3578 11.7186 20.102C11.9314 19.8462 12.0771 19.5413 12.1423 19.215L12.8798 15.5262C13.2303 15.4054 13.5876 15.3052 13.9498 15.2262L25.2635 27.6725C25.3514 27.7715 25.458 27.8521 25.5771 27.9096C25.6963 27.967 25.8258 28.0003 25.9579 28.0074C26.09 28.0145 26.2223 27.9953 26.3469 27.951C26.4716 27.9066 26.5862 27.8379 26.6842 27.7489C26.7821 27.6599 26.8614 27.5524 26.9174 27.4325C26.9735 27.3126 27.0052 27.1828 27.0107 27.0506C27.0163 26.9184 26.9955 26.7864 26.9496 26.6623C26.9038 26.5381 26.8337 26.4243 26.7435 26.3275L6.74105 4.32749ZM12.2035 13.6425C11.8779 13.7585 11.5878 13.957 11.3617 14.2186C11.1356 14.4802 10.9812 14.7959 10.9135 15.135L10.176 18.8225L4.07855 20.985C4.06605 20.985 4.0573 21.0012 4.0448 21.0062C2.50355 19.0187 2.6698 16.4787 4.4648 14.6862C6.07381 13.0767 8.01304 11.8356 10.1485 11.0487L12.436 13.5662C12.3585 13.5912 12.281 13.615 12.2035 13.6425ZM29.5348 22.2312C29.2705 22.5694 28.9045 22.8136 28.4908 22.9277C28.077 23.0418 27.6376 23.0198 27.2373 22.865L26.081 22.455C25.9573 22.4111 25.8434 22.3432 25.7458 22.2553C25.6483 22.1674 25.569 22.0611 25.5125 21.9425C25.3985 21.703 25.3842 21.4281 25.4729 21.1781C25.5168 21.0543 25.5847 20.9404 25.6726 20.8429C25.7606 20.7453 25.8668 20.6661 25.9854 20.6096C26.2249 20.4956 26.4998 20.4813 26.7498 20.57L27.921 20.985L27.9585 21C29.496 19.0187 29.3335 16.4787 27.5348 14.6862C24.3273 11.4787 19.7998 9.77749 15.116 10.0225C14.9847 10.0293 14.8533 10.0102 14.7294 9.96622C14.6055 9.92226 14.4914 9.85432 14.3937 9.76628C14.2961 9.67824 14.2167 9.57182 14.1601 9.4531C14.1036 9.33438 14.071 9.20569 14.0642 9.07437C14.0574 8.94305 14.0765 8.81167 14.1204 8.68774C14.1644 8.5638 14.2323 8.44974 14.3204 8.35207C14.4084 8.25439 14.5148 8.17501 14.6336 8.11846C14.7523 8.06192 14.881 8.0293 15.0123 8.02249C20.2623 7.74874 25.341 9.65999 28.9485 13.2725C31.4473 15.7712 31.6885 19.455 29.5348 22.2312Z" fill="#222222"/>
</svg>
