<svg width="32" height="32" viewBox="0 0 32 32" fill="none" xmlns="http://www.w3.org/2000/svg">
<path d="M28.9485 11.2662C21.9298 4.25 10.0698 4.25 3.05105 11.2662C0.551046 13.7662 0.311046 17.4525 2.4648 20.23C2.652 20.47 2.89152 20.6642 3.16512 20.7976C3.43871 20.931 3.73915 21.0003 4.04355 21C4.28944 21.0001 4.53321 20.9543 4.7623 20.865L10.8873 18.6937L10.9235 18.68C11.2327 18.5564 11.5061 18.3575 11.7189 18.1014C11.9317 17.8454 12.0772 17.5403 12.1423 17.2137L12.8798 13.5237C14.8907 12.8286 17.0759 12.8238 19.0898 13.51L19.866 17.2287C19.9334 17.5517 20.0795 17.853 20.2915 18.1058C20.5035 18.3585 20.7747 18.555 21.081 18.6775L21.1173 18.6912L27.2423 20.865C27.6424 21.02 28.0818 21.0422 28.4955 20.9283C28.9092 20.8144 29.2754 20.5704 29.5398 20.2325C31.6885 17.4525 31.4473 13.7662 28.9485 11.2662ZM27.9585 19L27.921 18.985L21.8185 16.8187L21.0423 13.1012C20.9719 12.7649 20.8159 12.4523 20.5895 12.1937C20.3631 11.9352 20.0739 11.7393 19.7498 11.625C17.3044 10.7878 14.6491 10.7935 12.2073 11.6412C11.8807 11.7579 11.59 11.9576 11.3638 12.2206C11.1377 12.4835 10.9838 12.8008 10.9173 13.1412L10.1798 16.83L4.07855 18.9825C4.06605 18.9825 4.0573 18.9987 4.0448 19.0037C2.50355 17.015 2.6698 14.475 4.4648 12.6812C7.5898 9.55625 11.796 7.99 15.9998 7.99C20.2035 7.99 24.4085 9.55375 27.5348 12.6812C29.326 14.475 29.4998 17.015 27.9585 19ZM27.9985 25C27.9985 25.2652 27.8932 25.5196 27.7057 25.7071C27.5181 25.8946 27.2638 26 26.9985 26H4.9998C4.73458 26 4.48023 25.8946 4.29269 25.7071C4.10515 25.5196 3.9998 25.2652 3.9998 25C3.9998 24.7348 4.10515 24.4804 4.29269 24.2929C4.48023 24.1054 4.73458 24 4.9998 24H26.9998C27.265 24 27.5194 24.1054 27.7069 24.2929C27.8944 24.4804 27.9998 24.7348 27.9998 25H27.9985Z" fill="#222222"/>
</svg>
