<svg width="32" height="32" viewBox="0 0 32 32" fill="none" xmlns="http://www.w3.org/2000/svg">
<path d="M27.0526 4.95012C25.8041 3.70163 24.1107 3.00024 22.3451 3.00024C20.5794 3.00024 18.8861 3.70163 17.6376 4.95012L4.95009 17.6364C3.7277 18.8902 3.04853 20.5752 3.05971 22.3263C3.07089 24.0773 3.77152 25.7535 5.00982 26.9916C6.24812 28.2298 7.92437 28.9302 9.67545 28.9411C11.4265 28.9521 13.1114 28.2727 14.3651 27.0501L27.0538 14.3639C28.3002 13.1144 29.0001 11.4216 28.9999 9.65673C28.9996 7.8919 28.2993 6.19923 27.0526 4.95012ZM12.9513 25.6364C12.0779 26.5099 10.8933 27.0007 9.65803 27.0009C8.42275 27.001 7.23802 26.5104 6.36446 25.637C5.4909 24.7636 5.00008 23.579 4.99996 22.3437C4.99984 21.1084 5.49045 19.9237 6.36384 19.0501L12.0001 13.4139L18.5876 20.0001L12.9513 25.6364ZM25.6388 12.9501L20.0001 18.5864L13.4151 12.0001L19.0526 6.36387C19.9294 5.50727 21.1086 5.03089 22.3344 5.03805C23.5602 5.04522 24.7338 5.53534 25.6006 6.40212C26.4674 7.26891 26.9575 8.44246 26.9646 9.66826C26.9718 10.8941 26.4954 12.0733 25.6388 12.9501ZM23.7101 10.2926C23.8031 10.3855 23.8768 10.4958 23.9271 10.6172C23.9775 10.7386 24.0034 10.8687 24.0034 11.0001C24.0034 11.1315 23.9775 11.2617 23.9271 11.3831C23.8768 11.5045 23.8031 11.6147 23.7101 11.7076L20.7101 14.7076C20.6172 14.8004 20.5069 14.8741 20.3855 14.9243C20.2642 14.9745 20.1341 15.0003 20.0028 15.0002C19.8714 15.0002 19.7414 14.9742 19.6201 14.9239C19.4988 14.8736 19.3885 14.7999 19.2957 14.707C19.2029 14.6141 19.1293 14.5038 19.0791 14.3824C19.0288 14.2611 19.003 14.131 19.0031 13.9997C19.0032 13.8683 19.0291 13.7383 19.0794 13.617C19.1297 13.4957 19.2034 13.3854 19.2963 13.2926L22.2963 10.2926C22.4839 10.1052 22.7381 9.99996 23.0032 9.99996C23.2683 9.99996 23.5226 10.1052 23.7101 10.2926Z" fill="#222222"/>
</svg>
