<svg width="32" height="32" viewBox="0 0 32 32" fill="none" xmlns="http://www.w3.org/2000/svg">
<path d="M30 24.5001C29.976 24.2106 29.8892 23.9297 29.7456 23.6772C29.6021 23.4246 29.4052 23.2063 29.1687 23.0376L24.4187 19.6438L26.5437 17.5251C27.1235 16.9502 27.5524 16.2411 27.7923 15.4606C28.0321 14.6802 28.0756 13.8526 27.9187 13.0513C27.337 10.1953 25.7709 7.6343 23.4937 5.81507C21.1811 3.95341 18.291 2.95776 15.3225 3.00007C12.0715 3.05505 8.9691 4.37096 6.66999 6.67006C4.37088 8.96917 3.05497 12.0716 3 15.3226C2.96337 18.2874 3.95998 21.1725 5.81875 23.4826C7.63797 25.7597 10.199 27.3258 13.055 27.9076C13.8563 28.0643 14.6838 28.0208 15.4643 27.7809C16.2447 27.5411 16.9538 27.1123 17.5287 26.5326L19.6475 24.4076L23.0412 29.1576C23.2085 29.3957 23.4256 29.5944 23.6776 29.7399C23.9295 29.8854 24.2102 29.9742 24.5 30.0001C24.555 30.0001 24.61 30.0063 24.665 30.0063C25.1953 30.0061 25.7039 29.7952 26.0787 29.4201L29.4087 26.0901C29.6178 25.8846 29.7791 25.6356 29.8813 25.3609C29.9835 25.0861 30.024 24.7922 30 24.5001ZM7.375 22.2288C5.80937 20.2823 4.96971 17.8517 5 15.3538C5.04626 12.6229 6.15144 10.0168 8.0824 8.08511C10.0134 6.15345 12.6191 5.04733 15.35 5.00007C17.8475 4.97176 20.2775 5.8112 22.225 7.37507C23.149 8.11729 23.9424 9.00874 24.5725 10.0126L10.0125 24.5726C9.00896 23.9436 8.11753 23.1515 7.375 22.2288ZM24.6687 28.0001L20.59 22.2888C20.5055 22.1707 20.3964 22.0724 20.2701 22.0007C20.1438 21.9291 20.0035 21.8858 19.8587 21.8738C19.8312 21.8738 19.8037 21.8738 19.7762 21.8738C19.6449 21.8737 19.5148 21.8995 19.3934 21.9497C19.272 21.9999 19.1617 22.0735 19.0687 22.1663L16.115 25.1201C15.7727 25.4675 15.3498 25.7249 14.884 25.8695C14.4182 26.0141 13.9239 26.0414 13.445 25.9488C12.9217 25.8441 12.4076 25.6978 11.9075 25.5113L25.5075 11.9113C25.6938 12.4114 25.8401 12.9255 25.945 13.4488C26.0376 13.9277 26.0105 14.4221 25.8659 14.8879C25.7213 15.3537 25.4638 15.7766 25.1162 16.1188L22.1625 19.0688C22.0597 19.1715 21.9805 19.2953 21.9304 19.4316C21.8803 19.568 21.8605 19.7136 21.8724 19.8584C21.8843 20.0032 21.9276 20.1437 21.9993 20.27C22.0709 20.3964 22.1693 20.5056 22.2875 20.5901L28 24.6688L24.6687 28.0001Z" fill="#222222"/>
</svg>
