<svg width="32" height="32" viewBox="0 0 32 32" fill="none" xmlns="http://www.w3.org/2000/svg">
<path d="M29.4176 14.5899L17.4101 2.58244C17.0353 2.20994 16.5284 2.00085 16.0001 2.00085C15.4717 2.00085 14.9648 2.20994 14.5901 2.58244L2.58256 14.5899C2.21006 14.9647 2.00098 15.4716 2.00098 15.9999C2.00098 16.5283 2.21006 17.0352 2.58256 17.4099L14.5901 29.4174C14.9648 29.7899 15.4717 29.999 16.0001 29.999C16.5284 29.999 17.0353 29.7899 17.4101 29.4174L29.4176 17.4099C29.7901 17.0352 29.9991 16.5283 29.9991 15.9999C29.9991 15.4716 29.7901 14.9647 29.4176 14.5899ZM16.0001 3.99994L23.0001 10.9999H20.0001C19.8687 10.9998 19.7386 11.0256 19.6172 11.0758C19.4958 11.126 19.3855 11.1996 19.2926 11.2924L16.0001 14.5849L12.7076 11.2924C12.6146 11.1996 12.5043 11.126 12.3829 11.0758C12.2615 11.0256 12.1314 10.9998 12.0001 10.9999H9.00006L16.0001 3.99994ZM7.00006 12.9999H11.5851L14.5851 15.9999L11.5851 18.9999H7.00006L4.00006 15.9999L7.00006 12.9999ZM16.0001 27.9999L9.00006 20.9999H12.0001C12.1314 21 12.2615 20.9743 12.3829 20.9241C12.5043 20.8739 12.6146 20.8003 12.7076 20.7074L16.0001 17.4137L19.2926 20.7074C19.3855 20.8003 19.4958 20.8739 19.6172 20.9241C19.7386 20.9743 19.8687 21 20.0001 20.9999H23.0001L16.0001 27.9999ZM25.0001 18.9999H20.4151L17.4151 15.9999L20.4151 12.9999H25.0001L28.0001 15.9999L25.0001 18.9999Z" fill="#222222"/>
</svg>
