<svg width="32" height="32" viewBox="0 0 32 32" fill="none" xmlns="http://www.w3.org/2000/svg">
<path d="M18.7071 17.2923C18.6142 17.1993 18.5039 17.1256 18.3825 17.0752C18.2611 17.0249 18.131 16.999 17.9996 16.999C17.8682 16.999 17.738 17.0249 17.6166 17.0752C17.4952 17.1256 17.385 17.1993 17.2921 17.2923L14.9996 19.5861L12.4133 16.9998L14.7071 14.7073C14.8947 14.5197 15.0001 14.2652 15.0001 13.9998C15.0001 13.7344 14.8947 13.4799 14.7071 13.2923C14.5194 13.1047 14.2649 12.9993 13.9996 12.9993C13.7342 12.9993 13.4797 13.1047 13.2921 13.2923L10.9996 15.5861L8.70708 13.2923C8.51944 13.1047 8.26494 12.9993 7.99958 12.9993C7.73422 12.9993 7.47972 13.1047 7.29208 13.2923C7.10444 13.48 6.99902 13.7344 6.99902 13.9998C6.99902 14.2652 7.10444 14.5197 7.29208 14.7073L8.08583 15.4998L5.17083 18.4136C4.7993 18.785 4.50458 19.226 4.3035 19.7114C4.10243 20.1967 3.99893 20.7169 3.99893 21.2423C3.99893 21.7677 4.10243 22.2879 4.3035 22.7733C4.50458 23.2586 4.7993 23.6996 5.17083 24.0711L5.84333 24.7423L2.29208 28.2923C2.19917 28.3852 2.12547 28.4955 2.07519 28.6169C2.0249 28.7383 1.99902 28.8684 1.99902 28.9998C1.99902 29.1312 2.0249 29.2613 2.07519 29.3827C2.12547 29.5041 2.19917 29.6144 2.29208 29.7073C2.47972 29.895 2.73422 30.0004 2.99958 30.0004C3.13097 30.0004 3.26108 29.9745 3.38248 29.9242C3.50387 29.8739 3.61417 29.8002 3.70708 29.7073L7.25708 26.1561L7.92833 26.8286C8.29978 27.2001 8.74077 27.4948 9.22613 27.6959C9.7115 27.897 10.2317 28.0005 10.7571 28.0005C11.2824 28.0005 11.8027 27.897 12.288 27.6959C12.7734 27.4948 13.2144 27.2001 13.5858 26.8286L16.4996 23.9136L17.2921 24.7073C17.385 24.8002 17.4953 24.8739 17.6167 24.9242C17.7381 24.9745 17.8682 25.0004 17.9996 25.0004C18.131 25.0004 18.2611 24.9745 18.3825 24.9242C18.5039 24.8739 18.6142 24.8002 18.7071 24.7073C18.8 24.6144 18.8737 24.5041 18.924 24.3827C18.9743 24.2613 19.0001 24.1312 19.0001 23.9998C19.0001 23.8684 18.9743 23.7383 18.924 23.6169C18.8737 23.4955 18.8 23.3852 18.7071 23.2923L16.4133 20.9998L18.7071 18.7073C18.8001 18.6144 18.8738 18.5041 18.9241 18.3827C18.9745 18.2614 19.0004 18.1312 19.0004 17.9998C19.0004 17.8684 18.9745 17.7383 18.9241 17.6169C18.8738 17.4955 18.8001 17.3852 18.7071 17.2923ZM12.1708 25.4173C11.7958 25.7921 11.2873 26.0026 10.7571 26.0026C10.2269 26.0026 9.71836 25.7921 9.34333 25.4173L6.58583 22.6561C6.21104 22.281 6.00051 21.7725 6.00051 21.2423C6.00051 20.7121 6.21104 20.2036 6.58583 19.8286L9.49958 16.9136L15.0858 22.4998L12.1708 25.4173ZM29.7071 2.29231C29.6142 2.19933 29.5039 2.12557 29.3825 2.07525C29.2611 2.02493 29.131 1.99902 28.9996 1.99902C28.8682 1.99902 28.738 2.02493 28.6166 2.07525C28.4952 2.12557 28.385 2.19933 28.2921 2.29231L24.7421 5.84356L24.0708 5.17106C23.3198 4.42225 22.3026 4.00175 21.2421 4.00175C20.1816 4.00175 19.1643 4.42225 18.4133 5.17106L15.4996 8.08606L14.7071 7.29231C14.5194 7.10467 14.2649 6.99925 13.9996 6.99925C13.7342 6.99925 13.4797 7.10467 13.2921 7.29231C13.1044 7.47995 12.999 7.73445 12.999 7.99981C12.999 8.26517 13.1044 8.51967 13.2921 8.70731L23.2921 18.7073C23.385 18.8002 23.4953 18.8739 23.6167 18.9242C23.7381 18.9745 23.8682 19.0004 23.9996 19.0004C24.131 19.0004 24.2611 18.9745 24.3825 18.9242C24.5039 18.8739 24.6142 18.8002 24.7071 18.7073C24.8 18.6144 24.8737 18.5041 24.924 18.3827C24.9743 18.2613 25.0001 18.1312 25.0001 17.9998C25.0001 17.8684 24.9743 17.7383 24.924 17.6169C24.8737 17.4955 24.8 17.3852 24.7071 17.2923L23.9133 16.4998L26.8283 13.5861C27.1999 13.2146 27.4946 12.7736 27.6957 12.2883C27.8967 11.8029 28.0002 11.2827 28.0002 10.7573C28.0002 10.2319 27.8967 9.71173 27.6957 9.22637C27.4946 8.741 27.1999 8.30001 26.8283 7.92856L26.1558 7.25731L29.7071 3.70731C29.8001 3.61444 29.8738 3.50415 29.9241 3.38275C29.9745 3.26135 30.0004 3.13123 30.0004 2.99981C30.0004 2.86839 29.9745 2.73827 29.9241 2.61687C29.8738 2.49547 29.8001 2.38518 29.7071 2.29231ZM25.4133 12.1673L22.4996 15.0861L16.9133 9.49981L19.8283 6.58606C20.2034 6.21127 20.7119 6.00074 21.2421 6.00074C21.7723 6.00074 22.2808 6.21127 22.6558 6.58606L25.4133 9.33606C25.6 9.5219 25.7482 9.74279 25.8493 9.98604C25.9504 10.2293 26.0024 10.4901 26.0024 10.7536C26.0024 11.017 25.9504 11.2778 25.8493 11.5211C25.7482 11.7643 25.6 11.9852 25.4133 12.1711V12.1673Z" fill="#222222"/>
</svg>
