<svg width="32" height="32" viewBox="0 0 32 32" fill="none" xmlns="http://www.w3.org/2000/svg">
<path d="M28.8297 6.17008C28.4582 5.79854 28.0172 5.50382 27.5319 5.30275C27.0465 5.10167 26.5263 4.99818 26.0009 4.99818C25.4755 4.99818 24.9553 5.10167 24.47 5.30275C23.9846 5.50382 23.5436 5.79854 23.1722 6.17008C22.9204 6.42169 22.7035 6.70588 22.5272 7.01508L18.9997 6.05258C19.0106 5.25678 18.7838 4.47581 18.3484 3.80959C17.913 3.14337 17.2888 2.62217 16.5556 2.31266C15.8224 2.00316 15.0135 1.91942 14.2324 2.07216C13.4513 2.2249 12.7335 2.60717 12.1709 3.17008C11.5702 3.77224 11.1766 4.54993 11.0472 5.39061C10.9177 6.23128 11.0591 7.09134 11.4509 7.84633L7.20841 11.6651C6.43868 11.1563 5.51694 10.9289 4.5989 11.0211C3.68086 11.1133 2.8228 11.5196 2.16966 12.1713C1.43937 12.8961 1.01644 13.8744 0.988754 14.9029C0.961071 15.9314 1.33077 16.931 2.02101 17.694C2.71126 18.457 3.66897 18.9246 4.69509 18.9998C5.72122 19.075 6.73685 18.7518 7.53091 18.0976L16.2809 24.5176C16.0009 25.2188 15.9251 25.985 16.0622 26.7275C16.1993 27.47 16.5438 28.1585 17.0558 28.7135C17.5678 29.2684 18.2265 29.6671 18.9556 29.8634C19.6847 30.0598 20.4544 30.0457 21.1759 29.8229C21.8974 29.6002 22.541 29.1777 23.0325 28.6045C23.5239 28.0312 23.8431 27.3306 23.953 26.5836C24.063 25.8365 23.9593 25.0737 23.6538 24.3831C23.3484 23.6926 22.8538 23.1026 22.2272 22.6813L25.6509 12.9826C25.7659 12.9926 25.8809 12.9976 25.9959 12.9976C26.7869 12.9975 27.56 12.7628 28.2177 12.3234C28.8753 11.8839 29.3879 11.2594 29.6907 10.5286C29.9934 9.79791 30.0728 8.99383 29.9186 8.21803C29.7645 7.44223 29.3838 6.72955 28.8247 6.17008H28.8297ZM13.5797 4.58383C13.8595 4.30434 14.2158 4.11408 14.6037 4.03709C14.9916 3.9601 15.3936 3.99984 15.759 4.15128C16.1243 4.30272 16.4365 4.55907 16.6562 4.88792C16.8758 5.21677 16.9931 5.60336 16.9931 5.99883C16.9931 6.39429 16.8758 6.78088 16.6562 7.10974C16.4365 7.43859 16.1243 7.69493 15.759 7.84637C15.3936 7.99781 14.9916 8.03755 14.6037 7.96056C14.2158 7.88357 13.8595 7.69331 13.5797 7.41383C13.394 7.22775 13.2469 7.00691 13.1467 6.76394C13.0465 6.52097 12.9951 6.26062 12.9956 5.99779C12.9961 5.73496 13.0483 5.4748 13.1494 5.23218C13.2505 4.98956 13.3984 4.76924 13.5847 4.58383H13.5797ZM3.57966 16.4151C3.39371 16.2293 3.24619 16.0088 3.14554 15.766C3.04489 15.5232 2.99309 15.2629 2.99309 15.0001C2.99309 14.7372 3.04489 14.477 3.14554 14.2342C3.24619 13.9914 3.39371 13.7708 3.57966 13.5851C3.85945 13.3056 4.21582 13.1153 4.60373 13.0383C4.99163 12.9614 5.39365 13.0011 5.75897 13.1525C6.12429 13.304 6.43652 13.5603 6.65618 13.8892C6.87585 14.218 6.99309 14.6046 6.99309 15.0001C6.99309 15.3955 6.87585 15.7821 6.65618 16.111C6.43652 16.4398 6.12429 16.6962 5.75897 16.8476C5.39365 16.9991 4.99163 17.0388 4.60373 16.9618C4.21582 16.8848 3.85945 16.6946 3.57966 16.4151ZM21.4109 27.4151C21.0358 27.7902 20.527 28.0009 19.9965 28.0009C19.466 28.0009 18.9573 27.7902 18.5822 27.4151C18.207 27.04 17.9963 26.5312 17.9963 26.0007C17.9963 25.4702 18.207 24.9614 18.5822 24.5863C18.7679 24.4006 18.9884 24.2533 19.2311 24.1527C19.4738 24.0522 19.7339 24.0005 19.9965 24.0005C20.2592 24.0005 20.5193 24.0522 20.762 24.1527C21.0047 24.2533 21.2252 24.4006 21.4109 24.5863C21.5966 24.7721 21.744 24.9926 21.8445 25.2352C21.945 25.4779 21.9968 25.738 21.9968 26.0007C21.9968 26.2634 21.945 26.5235 21.8445 26.7662C21.744 27.0088 21.5966 27.2293 21.4109 27.4151ZM20.3422 22.0176C19.3052 21.9273 18.2738 22.2447 17.4672 22.9026L8.71716 16.4826C8.92921 15.9477 9.02398 15.3735 8.99509 14.7988C8.96619 14.2241 8.8143 13.6623 8.54966 13.1513L12.7934 9.33258C13.25 9.63517 13.7638 9.84078 14.3031 9.93666C14.8423 10.0325 15.3955 10.0166 15.9284 9.88995C16.4613 9.76327 16.9625 9.52849 17.4009 9.20018C17.8393 8.87187 18.2056 8.45701 18.4772 7.98133L21.9997 8.94508C21.9901 9.61001 22.1465 10.2668 22.4547 10.8561C22.7629 11.4454 23.2131 11.9486 23.7647 12.3201L20.3422 22.0176ZM27.4122 10.4126C27.2293 10.6102 27.0084 10.7689 26.7628 10.8791C26.5171 10.9893 26.2517 11.0487 25.9825 11.0539C25.7133 11.0591 25.4458 11.0098 25.1961 10.9091C24.9464 10.8084 24.7196 10.6583 24.5293 10.4679C24.339 10.2774 24.1891 10.0505 24.0887 9.80066C23.9882 9.55086 23.9392 9.28335 23.9446 9.01416C23.95 8.74496 24.0097 8.47963 24.1201 8.23407C24.2305 7.9885 24.3894 7.76776 24.5872 7.58508C24.9623 7.20996 25.471 6.99922 26.0015 6.99922C26.532 6.99922 27.0408 7.20996 27.4159 7.58508C27.791 7.96019 28.0018 8.46896 28.0018 8.99945C28.0018 9.52994 27.791 10.0387 27.4159 10.4138L27.4122 10.4126Z" fill="#222222"/>
</svg>
