<svg width="32" height="32" viewBox="0 0 32 32" fill="none" xmlns="http://www.w3.org/2000/svg">
<path d="M13.9997 20.4998C13.9997 20.7965 13.9117 21.0865 13.7469 21.3332C13.582 21.5798 13.3478 21.7721 13.0737 21.8856C12.7996 21.9992 12.498 22.0289 12.207 21.971C11.9161 21.9131 11.6488 21.7702 11.439 21.5605C11.2292 21.3507 11.0864 21.0834 11.0285 20.7924C10.9706 20.5015 11.0003 20.1999 11.1138 19.9258C11.2274 19.6517 11.4196 19.4174 11.6663 19.2526C11.913 19.0878 12.203 18.9998 12.4997 18.9998C12.8975 18.9998 13.279 19.1578 13.5603 19.4391C13.8416 19.7204 13.9997 20.102 13.9997 20.4998ZM19.4997 18.9998C19.203 18.9998 18.913 19.0878 18.6663 19.2526C18.4196 19.4174 18.2274 19.6517 18.1138 19.9258C18.0003 20.1999 17.9706 20.5015 18.0285 20.7924C18.0864 21.0834 18.2292 21.3507 18.439 21.5605C18.6488 21.7702 18.9161 21.9131 19.207 21.971C19.498 22.0289 19.7996 21.9992 20.0737 21.8856C20.3478 21.7721 20.582 21.5798 20.7469 21.3332C20.9117 21.0865 20.9997 20.7965 20.9997 20.4998C20.9997 20.102 20.8416 19.7204 20.5603 19.4391C20.279 19.1578 19.8975 18.9998 19.4997 18.9998ZM26.9997 23.4998C26.9996 24.7739 26.6251 26.0198 25.9227 27.0828C25.2203 28.1458 24.221 28.9789 23.049 29.4786C21.877 29.9783 20.584 30.1225 19.3307 29.8934C18.0774 29.6643 16.919 29.0719 15.9997 28.1898C15.3805 28.7872 14.649 29.2557 13.8474 29.5682C13.0459 29.8807 12.1902 30.031 11.3301 30.0103C10.4701 29.9897 9.62263 29.7985 8.837 29.4478C8.05137 29.0971 7.34317 28.594 6.75347 27.9676C6.16376 27.3411 5.70429 26.6038 5.40168 25.7985C5.09907 24.9931 4.95935 24.1357 4.99062 23.2759C5.0219 22.4162 5.22354 21.5712 5.58386 20.7899C5.94418 20.0087 6.45601 19.3067 7.08966 18.7248C7.21751 17.8232 7.48222 16.9465 7.87466 16.1248C5.49966 11.3873 4.06591 5.0948 5.70466 2.3848C5.94859 1.95807 6.30243 1.60452 6.72935 1.36094C7.15628 1.11735 7.64069 0.99265 8.13216 0.999803C9.89716 0.999803 11.3822 2.48605 12.6872 5.5448C13.4647 7.3723 14.0434 9.4598 14.4372 11.1373C15.4708 10.9546 16.5285 10.9546 17.5622 11.1373C17.9534 9.4598 18.5322 7.3723 19.3122 5.5448C20.6122 2.48605 22.1022 0.999803 23.8672 0.999803C24.3586 0.99265 24.843 1.11735 25.27 1.36094C25.6969 1.60452 26.0507 1.95807 26.2947 2.3848C27.9334 5.0948 26.4997 11.3873 24.1247 16.1248C24.5158 16.945 24.7796 17.8201 24.9072 18.7198C25.5686 19.3277 26.0963 20.0666 26.4565 20.8896C26.8168 21.7125 27.0018 22.6015 26.9997 23.4998ZM19.4859 11.7036C20.783 12.247 21.934 13.088 22.8459 14.1586C23.6763 12.3088 24.298 10.3722 24.6997 8.3848C25.1359 6.11855 25.0934 4.2598 24.5834 3.4198C24.5187 3.28704 24.4161 3.17636 24.2887 3.10164C24.1613 3.02693 24.0146 2.9915 23.8672 2.9998C23.0409 2.9998 22.0522 4.2123 21.1522 6.3273C20.4109 8.0698 19.8584 10.0923 19.4859 11.7036ZM9.15341 14.1586C10.0654 13.088 11.2164 12.247 12.5134 11.7036C12.1384 10.0923 11.5884 8.0698 10.8472 6.32855C9.94716 4.2123 8.95841 2.9998 8.13216 2.9998C7.98469 2.9915 7.83804 3.02693 7.71062 3.10164C7.58319 3.17636 7.48067 3.28704 7.41591 3.4198C6.90591 4.2623 6.86341 6.1248 7.29966 8.3848C7.7013 10.3722 8.32305 12.3088 9.15341 14.1586ZM24.9997 23.4998C25.0013 22.8288 24.8524 22.166 24.5638 21.5603C24.2752 20.9545 23.8543 20.4213 23.3322 19.9998C23.2292 19.9161 23.1439 19.8128 23.0812 19.6959C23.0185 19.5789 22.9798 19.4506 22.9672 19.3186C22.7997 17.5868 21.9933 15.9794 20.7052 14.8098C19.4171 13.6403 17.7395 12.9923 15.9997 12.9923C14.2598 12.9923 12.5823 13.6403 11.2942 14.8098C10.006 15.9794 9.19963 17.5868 9.03216 19.3186C9.01957 19.4506 8.9808 19.5789 8.91814 19.6959C8.85547 19.8128 8.77016 19.9161 8.66716 19.9998C8.19235 20.3787 7.79917 20.8499 7.51133 21.3848C7.22349 21.9198 7.04695 22.5075 6.99235 23.1125C6.93774 23.7176 7.0062 24.3274 7.19361 24.9052C7.38101 25.4831 7.68348 26.017 8.08277 26.4749C8.48207 26.9327 8.96993 27.3049 9.51695 27.5691C10.064 27.8333 10.6588 27.9841 11.2657 28.0122C11.8725 28.0403 12.4787 27.9453 13.0479 27.7329C13.617 27.5204 14.1372 27.195 14.5772 26.7761L13.3597 25.7648C13.2587 25.6808 13.1753 25.5777 13.1142 25.4614C13.0531 25.3451 13.0155 25.2179 13.0035 25.0871C12.9916 24.9563 13.0055 24.8244 13.0445 24.699C13.0835 24.5735 13.1469 24.457 13.2309 24.3561C13.315 24.2551 13.4181 24.1717 13.5343 24.1106C13.6506 24.0495 13.7778 24.0119 13.9086 23.9999C14.0394 23.988 14.1713 24.0019 14.2968 24.0409C14.4222 24.0799 14.5387 24.1433 14.6397 24.2273L15.9997 25.3623L17.3597 24.2311C17.5635 24.0613 17.8265 23.9795 18.0907 24.0037C18.3549 24.0278 18.5987 24.1559 18.7684 24.3598C18.9382 24.5637 19.0199 24.8267 18.9958 25.0908C18.9717 25.355 18.8435 25.5988 18.6397 25.7686L17.4222 26.7798C18.0623 27.3798 18.8638 27.7796 19.7282 27.93C20.5926 28.0805 21.4821 27.9749 22.2873 27.6264C23.0924 27.2779 23.7782 26.7016 24.2601 25.9684C24.742 25.2352 24.9991 24.3772 24.9997 23.4998Z" fill="#222222"/>
</svg>
