<svg width="32" height="32" viewBox="0 0 32 32" fill="none" xmlns="http://www.w3.org/2000/svg">
<path d="M28.7503 3.25637C25.2503 -0.234879 18.9416 0.395121 14.6753 4.66262C10.7016 8.63637 9.88407 14.3839 12.6116 17.9739L8.91657 21.6689L8.83157 21.5839C8.64583 21.3979 8.42525 21.2504 8.18245 21.1498C7.93966 21.0491 7.6794 20.9973 7.41657 20.9973C7.15374 20.9973 6.89349 21.0491 6.65069 21.1498C6.4079 21.2504 6.18732 21.3979 6.00157 21.5839L2.58657 25.0001C2.40062 25.1859 2.2531 25.4064 2.15245 25.6492C2.05181 25.892 2 26.1523 2 26.4151C2 26.678 2.05181 26.9382 2.15245 27.181C2.2531 27.4238 2.40062 27.6444 2.58657 27.8301L4.17282 29.4164C4.35855 29.6021 4.57904 29.7495 4.82173 29.85C5.06441 29.9506 5.32452 30.0023 5.5872 30.0023C5.84988 30.0023 6.10999 29.9506 6.35267 29.85C6.59535 29.7495 6.81585 29.6021 7.00157 29.4164L10.4178 26.0001C10.6036 25.8144 10.7509 25.5939 10.8515 25.3512C10.952 25.1085 11.0038 24.8484 11.0038 24.5857C11.0038 24.3231 10.952 24.063 10.8515 23.8203C10.7509 23.5776 10.6036 23.3571 10.4178 23.1714L10.3316 23.0851L14.0266 19.3901C15.4378 20.4626 17.1816 20.9889 19.0266 20.9889C21.8666 20.9889 24.9328 19.7389 27.3441 17.3264C31.6041 13.0589 32.2353 6.75012 28.7503 3.25637ZM5.58782 28.0001L4.00032 26.4139L7.41657 23.0001L8.20782 23.7926L9.00032 24.5839L5.58782 28.0001ZM28.0291 13.0001H25.0078V9.00012H29.0078C28.9931 10.3909 28.6582 11.7596 28.0291 13.0001ZM17.0003 18.7014C16.1252 18.439 15.329 17.9635 14.683 17.3175C14.037 16.6715 13.5615 15.8752 13.2991 15.0001H17.0003V18.7014ZM13.0003 13.0001C13.0153 11.6089 13.3515 10.24 13.9828 9.00012H17.0003V13.0001H13.0003ZM19.0003 9.00012H23.0003V13.0001H19.0003V9.00012ZM28.7091 7.00012H25.0078V3.28512C25.8844 3.548 26.6819 4.02434 27.329 4.67142C27.9761 5.3185 28.4524 6.11608 28.7153 6.99262L28.7091 7.00012ZM22.9816 3.00012H23.0016V7.00012H19.0016V3.97012C20.2376 3.34187 21.6014 3.00573 22.9878 2.98762L22.9816 3.00012ZM17.0003 5.25762V6.99262H15.2703C15.5267 6.67287 15.8005 6.36741 16.0903 6.07762C16.3791 5.78851 16.6828 5.5148 17.0003 5.25762ZM19.0003 18.9976V15.0001H23.0003V18.0201C21.7622 18.6496 20.3955 18.985 19.0066 19.0001L19.0003 18.9976ZM25.0003 16.7301V15.0001H26.7503C26.4936 15.3196 26.2198 15.625 25.9303 15.9151C25.638 16.2035 25.33 16.4756 25.0078 16.7301H25.0003Z" fill="#222222"/>
</svg>
