<svg width="32" height="32" viewBox="0 0 32 32" fill="none" xmlns="http://www.w3.org/2000/svg">
<path d="M11.5003 16.9999H5.0003C4.72355 16.999 4.45 16.9406 4.19697 16.8285C3.94394 16.7164 3.71693 16.553 3.5303 16.3487C3.34098 16.1412 3.19688 15.8965 3.10714 15.6304C3.01741 15.3642 2.984 15.0822 3.00905 14.8024C3.17886 12.9287 3.754 11.1143 4.69462 9.48498C5.63525 7.85562 6.91887 6.45023 8.45655 5.36619C8.68369 5.20552 8.94187 5.09402 9.21456 5.0388C9.48725 4.98359 9.76846 4.98588 10.0402 5.04552C10.312 5.10517 10.5683 5.22086 10.7928 5.3852C11.0173 5.54954 11.2051 5.75891 11.344 5.99994L14.594 11.6249C14.6597 11.7387 14.7023 11.8643 14.7194 11.9945C14.7366 12.1247 14.7279 12.257 14.6939 12.3839C14.6599 12.5108 14.6012 12.6297 14.5212 12.7339C14.4413 12.8381 14.3416 12.9255 14.2278 12.9912C14.114 13.0568 13.9885 13.0995 13.8582 13.1166C13.728 13.1337 13.5957 13.125 13.4688 13.091C13.3419 13.057 13.223 12.9983 13.1188 12.9184C13.0146 12.8384 12.9272 12.7387 12.8615 12.6249L9.61155 6.99994C8.31018 7.91664 7.22373 9.10538 6.42749 10.4837C5.63125 11.8621 5.14427 13.3971 5.0003 14.9824C5.00005 14.9862 5.00071 14.99 5.00224 14.9935C5.00376 14.997 5.00609 15 5.00905 15.0024L11.5003 14.9999C11.7655 14.9999 12.0199 15.1053 12.2074 15.2928C12.3949 15.4804 12.5003 15.7347 12.5003 15.9999C12.5003 16.2652 12.3949 16.5195 12.2074 16.707C12.0199 16.8946 11.7655 16.9999 11.5003 16.9999ZM28.9915 14.8024C28.8217 12.9287 28.2466 11.1143 27.306 9.48498C26.3653 7.85562 25.0817 6.45023 23.544 5.36619C23.3169 5.20552 23.0587 5.09402 22.786 5.0388C22.5133 4.98359 22.2321 4.98588 21.9604 5.04552C21.6886 5.10517 21.4323 5.22086 21.2078 5.3852C20.9833 5.54954 20.7955 5.75891 20.6565 5.99994L17.4128 11.6249C17.3471 11.7387 17.3045 11.8643 17.2874 11.9945C17.2703 12.1247 17.279 12.257 17.313 12.3839C17.3816 12.6401 17.5493 12.8586 17.779 12.9912C18.0088 13.1238 18.2818 13.1597 18.538 13.091C18.6649 13.057 18.7838 12.9983 18.888 12.9184C18.9922 12.8384 19.0796 12.7387 19.1453 12.6249L22.3953 6.99994C23.6953 7.91752 24.7803 9.10659 25.5755 10.4849C26.3706 11.8632 26.8567 13.3977 27.0003 14.9824C27.0003 14.9912 27.0003 14.9974 27.0003 14.9999H20.5003C20.2351 14.9999 19.9807 15.1053 19.7932 15.2928C19.6057 15.4804 19.5003 15.7347 19.5003 15.9999C19.5003 16.2652 19.6057 16.5195 19.7932 16.707C19.9807 16.8946 20.2351 16.9999 20.5003 16.9999H27.0003C27.277 16.999 27.5506 16.9406 27.8036 16.8285C28.0567 16.7164 28.2837 16.553 28.4703 16.3487C28.6596 16.1412 28.8037 15.8965 28.8934 15.6304C28.9832 15.3642 29.0166 15.0822 28.9915 14.8024ZM19.1165 19.3974C19.0509 19.2837 18.9635 19.184 18.8593 19.104C18.7551 19.024 18.6361 18.9654 18.5093 18.9314C18.3824 18.8973 18.2501 18.8887 18.1199 18.9058C17.9896 18.9229 17.8641 18.9655 17.7503 19.0312C17.6365 19.0968 17.5368 19.1843 17.4569 19.2885C17.3769 19.3927 17.3182 19.5116 17.2842 19.6385C17.2502 19.7653 17.2415 19.8977 17.2586 20.0279C17.2758 20.1581 17.3184 20.2837 17.384 20.3974L20.614 25.9887C19.1674 26.655 17.5936 27 16.0009 27C14.4082 27 12.8344 26.655 11.3878 25.9887L14.6165 20.3974C14.6822 20.2837 14.7248 20.1581 14.7419 20.0279C14.7591 19.8977 14.7504 19.7653 14.7164 19.6385C14.6824 19.5116 14.6237 19.3927 14.5437 19.2885C14.4638 19.1843 14.3641 19.0968 14.2503 19.0312C14.1365 18.9655 14.011 18.9229 13.8807 18.9058C13.7505 18.8887 13.6182 18.8973 13.4913 18.9314C13.3644 18.9654 13.2455 19.024 13.1413 19.104C13.0371 19.184 12.9497 19.2837 12.884 19.3974L9.65655 24.9887C9.51758 25.2292 9.43022 25.4959 9.40003 25.772C9.36985 26.0481 9.3975 26.3275 9.48122 26.5923C9.56495 26.8571 9.70292 27.1016 9.88633 27.3102C10.0697 27.5187 10.2946 27.6868 10.5465 27.8037C12.2567 28.5918 14.1173 28.9999 16.0003 28.9999C17.8833 28.9999 19.7439 28.5918 21.454 27.8037C21.706 27.6868 21.9308 27.5187 22.1143 27.3102C22.2977 27.1016 22.4356 26.8571 22.5194 26.5923C22.6031 26.3275 22.6307 26.0481 22.6006 25.772C22.5704 25.4959 22.483 25.2292 22.344 24.9887L19.1165 19.3974ZM16.0003 17.4999C16.297 17.4999 16.587 17.412 16.8336 17.2471C17.0803 17.0823 17.2726 16.8481 17.3861 16.574C17.4996 16.2999 17.5294 15.9983 17.4715 15.7073C17.4136 15.4163 17.2707 15.1491 17.061 14.9393C16.8512 14.7295 16.5839 14.5866 16.2929 14.5288C16.002 14.4709 15.7004 14.5006 15.4263 14.6141C15.1522 14.7276 14.9179 14.9199 14.7531 15.1666C14.5883 15.4133 14.5003 15.7033 14.5003 15.9999C14.5003 16.3978 14.6583 16.7793 14.9396 17.0606C15.2209 17.3419 15.6025 17.4999 16.0003 17.4999Z" fill="#222222"/>
</svg>
