<svg width="32" height="32" viewBox="0 0 32 32" fill="none" xmlns="http://www.w3.org/2000/svg">
<path d="M27.9717 7.24995C27.6581 7.07849 27.3042 6.99419 26.947 7.00584C26.5898 7.01749 26.2422 7.12466 25.9404 7.3162L16.0004 13.6425V8.97995C15.999 8.62391 15.902 8.27478 15.7195 7.96902C15.5371 7.66327 15.2759 7.41209 14.9633 7.24172C14.6507 7.07135 14.298 6.98804 13.9422 7.00048C13.5864 7.01292 13.2404 7.12066 12.9404 7.31245L1.91667 14.3325C1.63581 14.5107 1.40452 14.757 1.24427 15.0485C1.08402 15.34 1 15.6673 1 16C1 16.3326 1.08402 16.6599 1.24427 16.9514C1.40452 17.2429 1.63581 17.4892 1.91667 17.6675L12.9404 24.6875C13.2404 24.8792 13.5864 24.987 13.9422 24.9994C14.298 25.0119 14.6507 24.9286 14.9633 24.7582C15.2759 24.5878 15.5371 24.3366 15.7195 24.0309C15.902 23.7251 15.999 23.376 16.0004 23.02V18.3575L25.9404 24.6875C26.2404 24.8792 26.5864 24.987 26.9422 24.9994C27.298 25.0119 27.6507 24.9286 27.9633 24.7582C28.2759 24.5878 28.5371 24.3366 28.7195 24.0309C28.902 23.7251 28.999 23.376 29.0004 23.02V8.97995C28.9994 8.62593 28.9034 8.27867 28.7224 7.97438C28.5415 7.67009 28.2822 7.41992 27.9717 7.24995ZM14.0004 22.9912L3.02292 16L14.0004 9.00745V22.9912ZM27.0004 22.9912L16.0229 16L27.0004 9.00745V22.9912Z" fill="#222222"/>
</svg>
