<svg width="32" height="32" viewBox="0 0 32 32" fill="none" xmlns="http://www.w3.org/2000/svg">
<path d="M30.9009 21.5662C30.8192 21.3966 30.6913 21.2534 30.5319 21.1532C30.3724 21.053 30.1879 20.9999 29.9996 21H17.9996V18H26.9996C27.1934 17.9999 27.3829 17.9437 27.5452 17.838C27.7075 17.7323 27.8357 17.5817 27.914 17.4046C27.9924 17.2274 28.0177 17.0314 27.9867 16.8401C27.9557 16.6489 27.8699 16.4708 27.7396 16.3275L17.9996 5.61371V0.999964C17.9985 0.793839 17.9338 0.593094 17.8142 0.425204C17.6946 0.257313 17.526 0.13048 17.3316 0.0620626C17.1371 -0.00635479 16.9263 -0.0130134 16.7279 0.042998C16.5296 0.0990095 16.3533 0.214954 16.2234 0.374964L3.2234 16.375C3.10588 16.5217 3.03212 16.6987 3.01059 16.8855C2.98906 17.0723 3.02063 17.2613 3.10168 17.431C3.18273 17.6007 3.30997 17.7441 3.4688 17.8447C3.62763 17.9453 3.81162 17.9991 3.99965 18H15.9996V21H1.99965C1.8112 20.9998 1.62655 21.053 1.46698 21.1532C1.30741 21.2535 1.17943 21.3968 1.09777 21.5667C1.01612 21.7365 0.984115 21.926 1.00546 22.1132C1.0268 22.3005 1.10062 22.4779 1.2184 22.625L4.9184 27.25C5.10535 27.4845 5.34287 27.6737 5.61321 27.8036C5.88355 27.9335 6.17973 28.0006 6.47965 28H25.5196C25.8196 28.0006 26.1157 27.9335 26.3861 27.8036C26.6564 27.6737 26.8939 27.4845 27.0809 27.25L30.7809 22.625C30.8987 22.4777 30.9724 22.3002 30.9937 22.1129C31.0149 21.9256 30.9827 21.7361 30.9009 21.5662ZM24.7396 16H17.9996V8.58621L24.7396 16ZM6.1009 16L15.9996 3.81621V16H6.1009ZM25.5196 26H6.47965L4.07965 23H27.9196L25.5196 26Z" fill="#222222"/>
</svg>
