<svg width="32" height="32" viewBox="0 0 32 32" fill="none" xmlns="http://www.w3.org/2000/svg">
<path d="M19.7161 14.1412C19.6418 14.0327 19.5896 13.9107 19.5625 13.782C19.5354 13.6533 19.5339 13.5206 19.5582 13.3914C19.5825 13.2622 19.632 13.139 19.7039 13.0289C19.7758 12.9188 19.8687 12.824 19.9773 12.7499L28.4348 6.96243C28.6539 6.8269 28.9168 6.78114 29.1688 6.83467C29.4208 6.8882 29.6424 7.03691 29.7874 7.24979C29.9324 7.46268 29.9897 7.72332 29.9473 7.9774C29.9049 8.23149 29.7661 8.45941 29.5598 8.61368L21.1011 14.4012C20.9353 14.5155 20.7387 14.5765 20.5373 14.5762C20.3755 14.5756 20.2162 14.5356 20.0731 14.4599C19.9301 14.3841 19.8076 14.2747 19.7161 14.1412ZM29.8248 24.7774C29.675 24.9962 29.4444 25.1465 29.1837 25.1953C28.923 25.244 28.6537 25.1873 28.4348 25.0374L16.9998 17.2124L11.6861 20.8474C12.0915 21.877 12.1034 23.0199 11.7195 24.0577C11.3355 25.0954 10.5827 25.9554 9.60474 26.4732C8.62684 26.9909 7.49244 27.1303 6.41829 26.8645C5.34415 26.5988 4.40558 25.9466 3.78191 25.0325C3.15824 24.1185 2.8932 23.0068 3.03743 21.9097C3.18166 20.8126 3.72505 19.8071 4.56377 19.0853C5.40249 18.3636 6.47774 17.9761 7.58407 17.997C8.69041 18.0179 9.75025 18.4457 10.5611 19.1987L15.2286 15.9999L10.5548 12.8012C9.74674 13.5503 8.69103 13.9754 7.58934 13.9955C6.48764 14.0156 5.41714 13.6292 4.58225 12.9101C3.74737 12.191 3.20661 11.1896 3.06322 10.097C2.91984 9.00453 3.18389 7.89748 3.80494 6.98729C4.42599 6.07711 5.36053 5.42756 6.43011 5.16269C7.49968 4.89782 8.62934 5.03618 9.60337 5.55136C10.5774 6.06654 11.3276 6.92243 11.7106 7.9556C12.0936 8.98877 12.0827 10.1268 11.6798 11.1524L29.5548 23.3862C29.6641 23.4596 29.7579 23.5539 29.8306 23.6637C29.9034 23.7734 29.9538 23.8965 29.9788 24.0257C30.0039 24.155 30.0032 24.2879 29.9768 24.4169C29.9504 24.5459 29.8987 24.6684 29.8248 24.7774ZM9.99985 22.4999C9.99997 21.9215 9.79954 21.361 9.4327 20.9138C9.06586 20.4666 8.55532 20.1605 7.98806 20.0475C7.4208 19.9346 6.83193 20.0218 6.32177 20.2944C5.81162 20.5669 5.41176 21.0079 5.19032 21.5423C4.96888 22.0766 4.93957 22.6712 5.10737 23.2247C5.27517 23.7782 5.62971 24.2564 6.11058 24.5778C6.59144 24.8993 7.16888 25.044 7.74449 24.9874C8.32011 24.9308 8.8583 24.6764 9.26735 24.2674C9.50034 24.036 9.68507 23.7605 9.81081 23.4571C9.93655 23.1537 10.0008 22.8284 9.99985 22.4999ZM9.26735 11.2662C9.61705 10.9166 9.85523 10.4711 9.95176 9.98615C10.0483 9.50118 9.99882 8.99847 9.80962 8.54161C9.62042 8.08475 9.29999 7.69426 8.88885 7.41953C8.47771 7.14479 7.99433 6.99815 7.49985 6.99815C7.00536 6.99815 6.52198 7.14479 6.11084 7.41953C5.6997 7.69426 5.37927 8.08475 5.19008 8.54161C5.00088 8.99847 4.95141 9.50118 5.04794 9.98615C5.14446 10.4711 5.38264 10.9166 5.73235 11.2662C5.96321 11.5005 6.23837 11.6866 6.5418 11.8136C6.84524 11.9406 7.1709 12.006 7.49985 12.006C7.82879 12.006 8.15446 11.9406 8.45789 11.8136C8.76133 11.6866 9.03648 11.5005 9.26735 11.2662Z" fill="#222222"/>
</svg>
