<svg width="32" height="32" viewBox="0 0 32 32" fill="none" xmlns="http://www.w3.org/2000/svg">
<path d="M26.4997 17C26.3522 17 26.206 17.0075 26.061 17.0212L21.9485 4.68375C21.8821 4.48463 21.7548 4.31145 21.5845 4.18873C21.4142 4.06601 21.2096 3.99998 20.9997 4H16.9997C16.7345 4 16.4802 4.10536 16.2926 4.29289C16.1051 4.48043 15.9997 4.73478 15.9997 5C15.9997 5.26522 16.1051 5.51957 16.2926 5.70711C16.4802 5.89464 16.7345 6 16.9997 6H20.2785L22.4585 12.5387L15.526 21H9.97099C9.84773 19.9011 9.32419 18.8861 8.50026 18.1486C7.67634 17.4111 6.60972 17.0028 5.50394 17.0016C4.39817 17.0004 3.33066 17.4064 2.50513 18.1421C1.67959 18.8777 1.15384 19.8916 1.02818 20.9902C0.902528 22.0889 1.18578 23.1953 1.82387 24.0984C2.46197 25.0015 3.41024 25.638 4.48773 25.8865C5.56522 26.135 6.69649 25.9781 7.66566 25.4457C8.63483 24.9133 9.37404 24.0427 9.74224 23H15.9997C16.1478 23 16.294 22.9672 16.4278 22.9039C16.5616 22.8405 16.6797 22.7483 16.7735 22.6338L23.206 14.7825L24.1635 17.6575C23.235 18.2234 22.5428 19.1064 22.215 20.1432C21.8871 21.18 21.9457 22.3004 22.38 23.2973C22.8143 24.2942 23.5949 25.1001 24.5774 25.566C25.5599 26.0319 26.6779 26.1263 27.7246 25.8317C28.7714 25.5371 29.676 24.8735 30.2713 23.9636C30.8666 23.0536 31.1123 21.9589 30.9629 20.8818C30.8135 19.8047 30.2792 18.8182 29.4587 18.1046C28.6382 17.391 27.5871 16.9986 26.4997 17ZM5.49974 24C5.00529 24 4.52194 23.8534 4.11082 23.5787C3.69969 23.304 3.37926 22.9135 3.19004 22.4567C3.00082 21.9999 2.95131 21.4972 3.04778 21.0123C3.14424 20.5273 3.38234 20.0819 3.73197 19.7322C4.08161 19.3826 4.52706 19.1445 5.01201 19.048C5.49697 18.9516 5.99963 19.0011 6.45645 19.1903C6.91326 19.3795 7.30371 19.7 7.57841 20.1111C7.85312 20.5222 7.99974 21.0055 7.99974 21.5C7.99974 21.8283 7.93508 22.1534 7.80944 22.4567C7.6838 22.76 7.49965 23.0356 7.26751 23.2678C7.03536 23.4999 6.75976 23.6841 6.45645 23.8097C6.15314 23.9353 5.82805 24 5.49974 24ZM26.4997 24C26.0053 24 25.5219 23.8534 25.1108 23.5787C24.6997 23.304 24.3793 22.9135 24.19 22.4567C24.0008 21.9999 23.9513 21.4972 24.0478 21.0123C24.1442 20.5273 24.3823 20.0819 24.732 19.7322C25.0816 19.3826 25.5271 19.1445 26.012 19.048C26.497 18.9516 26.9996 19.0011 27.4564 19.1903C27.9133 19.3795 28.3037 19.7 28.5784 20.1111C28.8531 20.5222 28.9997 21.0055 28.9997 21.5C28.9997 21.8283 28.9351 22.1534 28.8094 22.4567C28.6838 22.76 28.4997 23.0356 28.2675 23.2678C28.0354 23.4999 27.7598 23.6841 27.4564 23.8097C27.1531 23.9353 26.828 24 26.4997 24Z" fill="#222222"/>
</svg>
