<svg width="32" height="32" viewBox="0 0 32 32" fill="none" xmlns="http://www.w3.org/2000/svg">
<path d="M25.7084 23.7076C25.5384 23.8772 25.4036 24.0787 25.3116 24.3005C25.2197 24.5223 25.1723 24.76 25.1723 25.0001C25.1723 25.2402 25.2197 25.478 25.3116 25.6997C25.4036 25.9215 25.5384 26.123 25.7084 26.2926C25.896 26.4803 26.0014 26.7348 26.0014 27.0001C26.0014 27.2655 25.896 27.52 25.7084 27.7076C25.5207 27.8953 25.2662 28.0007 25.0009 28.0007C24.7355 28.0007 24.481 27.8953 24.2934 27.7076C23.5755 26.9894 23.1723 26.0155 23.1723 25.0001C23.1723 23.9847 23.5755 23.0108 24.2934 22.2926L25.4659 21.1214C25.8088 20.7777 26.0012 20.312 26.0008 19.8265C26.0003 19.341 25.807 18.8756 25.4634 18.5326C25.1197 18.1897 24.654 17.9972 24.1685 17.9977C23.683 17.9982 23.2176 18.1915 22.8746 18.5351L14.5346 26.8751C13.8076 27.5441 12.8502 27.9061 11.8625 27.8856C10.8748 27.8651 9.93326 27.4636 9.2347 26.765C8.53613 26.0665 8.13462 25.1249 8.11411 24.1372C8.09359 23.1495 8.45566 22.1921 9.12461 21.4651L21.4646 9.12511C21.6347 8.95505 21.7696 8.75316 21.8616 8.53096C21.9536 8.30877 22.001 8.07062 22.001 7.83011C22.001 7.58961 21.9536 7.35146 21.8616 7.12927C21.7696 6.90707 21.6347 6.70518 21.4646 6.53511C21.2946 6.36505 21.0927 6.23015 20.8705 6.13812C20.6483 6.04608 20.4101 5.99871 20.1696 5.99871C19.9291 5.99871 19.691 6.04608 19.4688 6.13812C19.2466 6.23015 19.0447 6.36505 18.8746 6.53511L10.5346 14.8751C9.80764 15.5441 8.85023 15.9061 7.86252 15.8856C6.87481 15.8651 5.93326 15.4636 5.2347 14.765C4.53613 14.0665 4.13462 13.1249 4.11411 12.1372C4.09359 11.1495 4.45566 10.1921 5.12461 9.46511L10.2921 4.29261C10.4798 4.10514 10.7342 3.99988 10.9994 4C11.2647 4.00012 11.519 4.1056 11.7065 4.29324C11.894 4.48088 11.9992 4.73531 11.9991 5.00056C11.999 5.2658 11.8935 5.52014 11.7059 5.70761L6.53336 10.8751C6.18991 11.2187 5.99702 11.6847 5.99714 12.1706C5.99726 12.6564 6.19037 13.1223 6.53399 13.4657C6.87761 13.8092 7.34359 14.0021 7.82943 14.002C8.31527 14.0018 8.78116 13.8087 9.12461 13.4651L17.4646 5.12511C18.1916 4.45616 19.149 4.09409 20.1367 4.11461C21.1244 4.13513 22.066 4.53663 22.7645 5.2352C23.4631 5.93377 23.8646 6.87532 23.8851 7.86302C23.9056 8.85073 23.5436 9.80814 22.8746 10.5351L10.5346 22.8751C10.1912 23.2186 9.99821 23.6844 9.99821 24.1701C9.99821 24.6558 10.1912 25.1217 10.5346 25.4651C10.8781 25.8086 11.3439 26.0015 11.8296 26.0015C12.3153 26.0015 12.7812 25.8086 13.1246 25.4651L21.4646 17.1251C22.1916 16.4562 23.149 16.0941 24.1367 16.1146C25.1244 16.1351 26.066 16.5366 26.7645 17.2352C27.4631 17.9338 27.8646 18.8753 27.8851 19.863C27.9056 20.8507 27.5436 21.8081 26.8746 22.5351L25.7084 23.7076Z" fill="#222222"/>
</svg>
