<svg width="32" height="32" viewBox="0 0 32 32" fill="none" xmlns="http://www.w3.org/2000/svg">
<path d="M31.7413 19.3288C31.5763 19.1463 28.7301 16.0513 24.1163 14.2587C23.9013 11.9563 23.0588 9.8625 21.6901 8.26875C19.8588 6.125 17.1976 5 14.0001 5C7.56007 5 3.36132 10.7725 3.18632 11.0188C3.04308 11.2346 2.98918 11.4976 3.036 11.7524C3.08281 12.0072 3.22667 12.2339 3.43729 12.3847C3.64791 12.5356 3.90884 12.5988 4.16514 12.561C4.42144 12.5233 4.65309 12.3876 4.81132 12.1825C4.85007 12.1312 8.60132 7 14.0001 7C16.5963 7 18.7326 7.88875 20.1763 9.57125C21.1038 10.6512 21.7313 12.0325 22.0101 13.5712C20.562 13.1931 19.0717 13.0012 17.5751 13C14.3176 13 11.5838 13.8513 9.66757 15.4613C7.97257 16.8863 7.00007 18.875 7.00007 20.9062C6.99236 21.6952 7.14167 22.4778 7.43932 23.2086C7.73697 23.9393 8.17701 24.6035 8.73382 25.1625C9.94132 26.365 11.6163 27 13.5751 27C20.0513 27 23.7226 21.7337 24.1363 16.4475C26.4221 17.4636 28.4991 18.8959 30.2613 20.6712C30.3495 20.7686 30.4559 20.8476 30.5746 20.9038C30.6933 20.96 30.8219 20.9923 30.9531 20.9988C31.0842 21.0053 31.2154 20.9859 31.3391 20.9417C31.4627 20.8975 31.5765 20.8294 31.6738 20.7412C31.7712 20.6531 31.8502 20.5466 31.9064 20.4279C31.9626 20.3093 31.9949 20.1807 32.0014 20.0495C32.0079 19.9183 31.9885 19.7872 31.9443 19.6635C31.9001 19.5398 31.832 19.4261 31.7438 19.3288H31.7413ZM19.9338 22.0338C18.8301 23.3862 16.8326 25 13.5751 25C10.4151 25 9.00007 22.9438 9.00007 20.9062C9.00007 18.0612 11.6838 15 17.5751 15C19.1345 15.0047 20.6844 15.244 22.1726 15.71C22.1163 18.055 21.3076 20.3475 19.9338 22.0338Z" fill="#222222"/>
</svg>
