<svg width="32" height="32" viewBox="0 0 32 32" fill="none" xmlns="http://www.w3.org/2000/svg">
<path d="M28 29C28 29.2652 27.8946 29.5196 27.7071 29.7071C27.5195 29.8947 27.2652 30 27 30H14C13.7347 30 13.4804 29.8947 13.2929 29.7071C13.1053 29.5196 13 29.2652 13 29C13 28.7348 13.1053 28.4804 13.2929 28.2929C13.4804 28.1054 13.7347 28 14 28H27C27.2652 28 27.5195 28.1054 27.7071 28.2929C27.8946 28.4804 28 28.7348 28 29ZM28 20V24C28 24.5305 27.7893 25.0392 27.4142 25.4142C27.0391 25.7893 26.5304 26 26 26H14.2637C13.8918 26.0012 13.527 25.8982 13.2107 25.7027C12.8943 25.5071 12.639 25.2269 12.4737 24.8938L5.20997 10.3938C5.07186 10.1156 5 9.80931 5 9.49877C5 9.18823 5.07186 8.88191 5.20997 8.60377L7.97497 3.10377C8.20965 2.63541 8.61874 2.27784 9.11428 2.1079C9.60981 1.93797 10.1522 1.96925 10.625 2.19502L14.8362 3.97252L14.895 4.00002C15.3691 4.23736 15.7295 4.65324 15.8971 5.15626C16.0647 5.65927 16.0257 6.20825 15.7887 6.68252C15.7849 6.69204 15.7803 6.70124 15.775 6.71002L14 10L17.9725 18H26C26.5304 18 27.0391 18.2107 27.4142 18.5858C27.7893 18.9609 28 19.4696 28 20ZM26 20H17.9712C17.5995 20.0012 17.2348 19.8982 16.9186 19.7027C16.6025 19.5072 16.3474 19.2269 16.1825 18.8938L12.2087 10.8938C12.0709 10.6162 11.9992 10.3105 11.9992 10.0006C11.9992 9.69076 12.0709 9.38508 12.2087 9.10752L12.2237 9.08002L14 5.79002L9.82122 4.02627C9.80118 4.01857 9.78157 4.0098 9.76247 4.00002L6.99997 9.50002L14.2625 24H26V20Z" fill="#222222"/>
</svg>
