<svg width="32" height="32" viewBox="0 0 32 32" fill="none" xmlns="http://www.w3.org/2000/svg">
<path d="M21.4998 8.5C21.4998 7.41221 21.1772 6.34884 20.5729 5.44437C19.9685 4.5399 19.1096 3.83495 18.1046 3.41867C17.0996 3.00238 15.9937 2.89346 14.9268 3.10568C13.8599 3.3179 12.8799 3.84173 12.1107 4.61092C11.3415 5.3801 10.8177 6.36011 10.6055 7.42701C10.3933 8.4939 10.5022 9.59977 10.9185 10.6048C11.3348 11.6098 12.0397 12.4687 12.9442 13.0731C13.8486 13.6774 14.912 14 15.9998 14C17.458 13.9983 18.856 13.4184 19.8871 12.3873C20.9182 11.3562 21.4982 9.95819 21.4998 8.5ZM15.9998 12C15.3076 12 14.6309 11.7947 14.0553 11.4101C13.4797 11.0256 13.0311 10.4789 12.7662 9.83939C12.5013 9.19985 12.432 8.49612 12.5671 7.81719C12.7021 7.13825 13.0355 6.51461 13.5249 6.02513C14.0144 5.53565 14.6381 5.2023 15.317 5.06725C15.9959 4.93221 16.6997 5.00152 17.3392 5.26642C17.9787 5.53133 18.5254 5.97993 18.91 6.55551C19.2945 7.13108 19.4998 7.80777 19.4998 8.5C19.4998 9.42826 19.1311 10.3185 18.4747 10.9749C17.8183 11.6313 16.9281 12 15.9998 12ZM25.9998 28C25.9998 28.2652 25.8945 28.5196 25.7069 28.7071C25.5194 28.8946 25.265 29 24.9998 29H6.99981C6.79671 29 6.59843 28.9381 6.43136 28.8226C6.26429 28.7071 6.13634 28.5435 6.06455 28.3535C5.99276 28.1635 5.98053 27.9561 6.02947 27.759C6.07842 27.5619 6.18623 27.3843 6.33856 27.25L18.5973 16.4325C17.4947 16.0532 16.3224 15.9196 15.1627 16.041C14.0029 16.1623 12.8838 16.5357 11.8835 17.135C10.8832 17.7344 10.0261 18.5451 9.37207 19.5105C8.71805 20.4759 8.28297 21.5726 8.09731 22.7238C8.04481 22.9756 7.89726 23.1975 7.68534 23.3434C7.47342 23.4893 7.21344 23.5478 6.95944 23.507C6.70545 23.4661 6.47698 23.3289 6.32154 23.1239C6.16609 22.9189 6.09564 22.6619 6.12481 22.4063C6.37174 20.8755 6.97124 19.4231 7.87596 18.1639C8.78068 16.9047 9.96582 15.8731 11.3378 15.1506C12.7097 14.4282 14.2308 14.0346 15.781 14.0011C17.3312 13.9676 18.8679 14.295 20.2698 14.9575L23.3386 12.25C23.5382 12.0795 23.7968 11.9944 24.0586 12.0129C24.3204 12.0315 24.5645 12.1522 24.7381 12.3491C24.9117 12.546 25.0009 12.8032 24.9865 13.0653C24.9721 13.3274 24.8552 13.5733 24.6611 13.75L9.64481 27H24.9998C25.265 27 25.5194 27.1054 25.7069 27.2929C25.8945 27.4804 25.9998 27.7348 25.9998 28ZM24.2161 18.2975C25.3808 19.9707 26.0035 21.9613 25.9998 24C25.9998 24.2652 25.8945 24.5196 25.7069 24.7071C25.5194 24.8946 25.265 25 24.9998 25C24.7346 25 24.4802 24.8946 24.2927 24.7071C24.1052 24.5196 23.9998 24.2652 23.9998 24C24.0029 22.3694 23.505 20.7772 22.5736 19.4388C22.4222 19.2209 22.3636 18.9519 22.4106 18.6909C22.4576 18.4299 22.6064 18.1982 22.8242 18.0469C23.042 17.8955 23.311 17.8369 23.572 17.8839C23.8331 17.9309 24.0647 18.0797 24.2161 18.2975Z" fill="#222222"/>
</svg>
