<svg width="32" height="32" viewBox="0 0 32 32" fill="none" xmlns="http://www.w3.org/2000/svg">
<path d="M29.9183 8.76012C29.8165 8.44226 29.622 8.16205 29.3599 7.95538C29.0978 7.74872 28.7799 7.62502 28.4471 7.60012L23.8296 7.23512L22.0533 3.02762C21.9236 2.72293 21.7071 2.46311 21.4309 2.28048C21.1546 2.09786 20.8307 2.00049 20.4996 2.00049C20.1684 2.00049 19.8446 2.09786 19.5683 2.28048C19.292 2.46311 19.0756 2.72293 18.9458 3.02762L17.1696 7.23512L12.5521 7.60012C12.2205 7.62455 11.9037 7.74718 11.6421 7.95237C11.3805 8.15756 11.1859 8.43602 11.0832 8.75223C10.9805 9.06844 10.9743 9.40808 11.0653 9.72784C11.1564 10.0476 11.3407 10.333 11.5946 10.5476L15.1021 13.5076L14.0321 17.9314C13.9543 18.2517 13.9733 18.588 14.0868 18.8976C14.2003 19.2071 14.4031 19.476 14.6696 19.6701C14.9385 19.8684 15.2602 19.9824 15.594 19.9977C15.9278 20.0131 16.2586 19.9291 16.5446 19.7564L20.4996 17.3751L24.4558 19.7576C24.742 19.9299 25.0727 20.0136 25.4064 19.9982C25.74 19.9829 26.0617 19.8692 26.3308 19.6714C26.5968 19.4768 26.7992 19.2079 26.9125 18.8984C27.0257 18.589 27.0447 18.2529 26.9671 17.9326L25.8971 13.5089L29.4046 10.5489C29.6586 10.3358 29.8432 10.0517 29.9347 9.73298C30.0262 9.4143 30.0205 9.07554 29.9183 8.76012ZM24.1346 12.3751C23.9927 12.495 23.887 12.6521 23.8293 12.8288C23.7717 13.0054 23.7644 13.1946 23.8083 13.3751L24.8433 17.6514L21.0158 15.3501C20.8602 15.2564 20.6819 15.2069 20.5002 15.2069C20.3185 15.2069 20.1403 15.2564 19.9846 15.3501L16.1571 17.6539L17.1921 13.3751C17.2358 13.1945 17.2283 13.0052 17.1705 12.8286C17.1126 12.6519 17.0067 12.4949 16.8646 12.3751L13.4996 9.53262L17.9396 9.18137C18.1223 9.16687 18.2976 9.10242 18.4461 8.99506C18.5947 8.8877 18.7109 8.74156 18.7821 8.57262L20.4996 4.48887L22.2233 8.57262C22.2945 8.74156 22.4107 8.8877 22.5593 8.99506C22.7079 9.10242 22.8831 9.16687 23.0658 9.18137L27.5071 9.53262L24.1346 12.3751ZM11.0096 15.3976L3.70708 22.7076C3.51944 22.8953 3.26494 23.0007 2.99958 23.0007C2.73422 23.0007 2.47972 22.8953 2.29208 22.7076C2.10444 22.52 1.99902 22.2655 1.99902 22.0001C1.99902 21.7348 2.10444 21.4803 2.29208 21.2926L9.59833 13.9864C9.78597 13.7987 10.0405 13.6933 10.3058 13.6933C10.5712 13.6933 10.8257 13.7987 11.0133 13.9864C11.201 14.174 11.3064 14.4285 11.3064 14.6939C11.3064 14.9592 11.201 15.2137 11.0133 15.4014L11.0096 15.3976ZM12.3608 21.6314C12.5482 21.8189 12.6535 22.0731 12.6535 22.3382C12.6535 22.6033 12.5482 22.8576 12.3608 23.0451L5.70708 29.7076C5.61417 29.8005 5.50387 29.8742 5.38248 29.9245C5.26108 29.9748 5.13097 30.0007 4.99958 30.0007C4.86818 30.0007 4.73808 29.9748 4.61668 29.9245C4.49529 29.8742 4.38499 29.8005 4.29208 29.7076C4.19917 29.6147 4.12547 29.5044 4.07519 29.383C4.0249 29.2616 3.99902 29.1315 3.99902 29.0001C3.99902 28.8687 4.0249 28.7386 4.07519 28.6172C4.12547 28.4958 4.19917 28.3855 4.29208 28.2926L10.9508 21.6351C11.1383 21.4477 11.3926 21.3425 11.6577 21.3425C11.9228 21.3425 12.1771 21.4477 12.3646 21.6351L12.3608 21.6314ZM21.4858 21.5064C21.5788 21.5992 21.6526 21.7095 21.7029 21.8309C21.7532 21.9523 21.7791 22.0825 21.7791 22.2139C21.7791 22.3453 21.7532 22.4754 21.7029 22.5968C21.6526 22.7182 21.5788 22.8285 21.4858 22.9214L14.7008 29.7064C14.5132 29.894 14.2587 29.9994 13.9933 29.9994C13.728 29.9994 13.4735 29.894 13.2858 29.7064C13.0982 29.5187 12.9928 29.2642 12.9928 28.9989C12.9928 28.7335 13.0982 28.479 13.2858 28.2914L20.0721 21.5064C20.1651 21.4127 20.2758 21.3384 20.3977 21.2878C20.5196 21.2371 20.6503 21.2111 20.7823 21.2112C20.9144 21.2113 21.045 21.2376 21.1668 21.2884C21.2887 21.3393 21.3992 21.4138 21.4921 21.5076L21.4858 21.5064Z" fill="#222222"/>
</svg>
