<svg width="32" height="32" viewBox="0 0 32 32" fill="none" xmlns="http://www.w3.org/2000/svg">
<path d="M26.9996 6.00007V11.0001C26.9996 11.2653 26.8942 11.5196 26.7067 11.7072C26.5192 11.8947 26.2648 12.0001 25.9996 12.0001C25.7344 12.0001 25.48 11.8947 25.2925 11.7072C25.1049 11.5196 24.9996 11.2653 24.9996 11.0001V8.41382L19.5346 13.8751C19.3433 14.0389 19.0972 14.1245 18.8455 14.1148C18.5939 14.1051 18.3551 14.0007 18.177 13.8226C17.9989 13.6445 17.8946 13.4058 17.8849 13.1541C17.8751 12.9024 17.9608 12.6564 18.1246 12.4651L23.5858 7.00007H20.9996C20.7344 7.00007 20.48 6.89471 20.2925 6.70717C20.1049 6.51964 19.9996 6.26528 19.9996 6.00007C19.9996 5.73485 20.1049 5.4805 20.2925 5.29296C20.48 5.10542 20.7344 5.00007 20.9996 5.00007H25.9996C26.2648 5.00007 26.5192 5.10542 26.7067 5.29296C26.8942 5.4805 26.9996 5.73485 26.9996 6.00007ZM25.9996 20.0001C25.7344 20.0001 25.48 20.1054 25.2925 20.293C25.1049 20.4805 24.9996 20.7349 24.9996 21.0001V23.5863L6.70708 5.29257C6.51944 5.10493 6.26494 4.99951 5.99958 4.99951C5.73422 4.99951 5.47972 5.10493 5.29208 5.29257C5.10444 5.48021 4.99902 5.7347 4.99902 6.00007C4.99902 6.26543 5.10444 6.51993 5.29208 6.70757L23.5858 25.0001H20.9996C20.7344 25.0001 20.48 25.1054 20.2925 25.293C20.1049 25.4805 19.9996 25.7349 19.9996 26.0001C19.9996 26.2653 20.1049 26.5196 20.2925 26.7072C20.48 26.8947 20.7344 27.0001 20.9996 27.0001H25.9996C26.2648 27.0001 26.5192 26.8947 26.7067 26.7072C26.8942 26.5196 26.9996 26.2653 26.9996 26.0001V21.0001C26.9996 20.7349 26.8942 20.4805 26.7067 20.293C26.5192 20.1054 26.2648 20.0001 25.9996 20.0001ZM12.4646 18.1251L5.29208 25.2926C5.10444 25.4802 4.99902 25.7347 4.99902 26.0001C4.99902 26.2654 5.10444 26.5199 5.29208 26.7076C5.47972 26.8952 5.73422 27.0006 5.99958 27.0006C6.26494 27.0006 6.51944 26.8952 6.70708 26.7076L13.8746 19.5351C14.0384 19.3438 14.124 19.0977 14.1143 18.846C14.1046 18.5943 14.0002 18.3556 13.8221 18.1775C13.644 17.9994 13.4053 17.8951 13.1536 17.8854C12.902 17.8756 12.6559 17.9612 12.4646 18.1251Z" fill="#222222"/>
</svg>
