<svg width="32" height="32" viewBox="0 0 32 32" fill="none" xmlns="http://www.w3.org/2000/svg">
<path d="M28.9996 21H7.98213C8.31463 20.345 8.64838 19.6712 8.98213 18.9862C10.8571 19.1925 13.0546 17.8888 15.5646 15.0938C16.1896 16.7762 17.3709 18.96 19.3871 19C20.5196 19.0225 21.6509 18.35 22.8146 16.9538C23.6634 17.9688 25.4121 19 28.9996 19C29.2648 19 29.5192 18.8946 29.7067 18.7071C29.8943 18.5196 29.9996 18.2652 29.9996 18C29.9996 17.7348 29.8943 17.4804 29.7067 17.2929C29.5192 17.1054 29.2648 17 28.9996 17C25.1959 17 24.0709 15.6938 23.9996 14.9862C24.0109 14.7716 23.9497 14.5595 23.826 14.3838C23.7022 14.2081 23.523 14.0791 23.3171 14.0175C23.1032 13.9532 22.8741 13.9611 22.6652 14.04C22.4562 14.1188 22.279 14.2642 22.1609 14.4537C20.6521 16.7712 19.7384 17.0075 19.4209 17C18.3884 16.98 17.3384 14.56 16.9784 12.8225C16.94 12.6364 16.8493 12.4651 16.7171 12.3287C16.5848 12.1922 16.4164 12.0963 16.2316 12.0521C16.0468 12.0079 15.8533 12.0173 15.6736 12.0791C15.4939 12.1409 15.3356 12.2527 15.2171 12.4012C12.6921 15.5688 10.9996 16.635 9.94588 16.9112C11.0071 14.5525 11.7996 12.4812 12.3071 10.7375C13.1596 7.8075 13.2221 5.75875 12.4959 4.475C12.1209 3.8025 11.3284 3 9.73838 3C7.73088 3 6.14713 4.8975 5.39213 8.20625C4.94338 10.17 4.86963 12.3575 5.18963 14.2063C5.50963 16.055 6.17338 17.4 7.13838 18.1987C6.67213 19.1637 6.19713 20.1063 5.73463 21H2.99963C2.73441 21 2.48006 21.1054 2.29252 21.2929C2.10499 21.4804 1.99963 21.7348 1.99963 22C1.99963 22.2652 2.10499 22.5196 2.29252 22.7071C2.48006 22.8946 2.73441 23 2.99963 23H4.67588C3.26088 25.625 2.16088 27.455 2.14338 27.485C2.07209 27.5976 2.02402 27.7233 2.00201 27.8548C1.98 27.9862 1.98449 28.1207 2.01521 28.2504C2.04593 28.3801 2.10227 28.5024 2.18091 28.61C2.25955 28.7176 2.35891 28.8084 2.47314 28.877C2.58738 28.9457 2.71418 28.9908 2.8461 29.0098C2.97803 29.0287 3.11241 29.0211 3.24135 28.9874C3.37029 28.9536 3.49119 28.8945 3.59693 28.8134C3.70268 28.7322 3.79115 28.6308 3.85713 28.515C3.87588 28.4825 5.26588 26.1663 6.94463 23H28.9996C29.2648 23 29.5192 22.8946 29.7067 22.7071C29.8943 22.5196 29.9996 22.2652 29.9996 22C29.9996 21.7348 29.8943 21.4804 29.7067 21.2929C29.5192 21.1054 29.2648 21 28.9996 21ZM7.34213 8.65125C7.83963 6.4675 8.80338 5 9.73838 5C10.4046 5 10.6259 5.2325 10.7546 5.45875C11.1296 6.125 11.5696 8.4825 8.04713 16.2575C7.01463 14.8475 6.66338 11.625 7.34213 8.65125Z" fill="#222222"/>
</svg>
