<svg width="32" height="32" viewBox="0 0 32 32" fill="none" xmlns="http://www.w3.org/2000/svg">
<path d="M21.9996 17.4999C21.9996 17.7966 21.9116 18.0866 21.7468 18.3333C21.5819 18.5799 21.3477 18.7722 21.0736 18.8857C20.7995 18.9992 20.4979 19.029 20.2069 18.9711C19.916 18.9132 19.6487 18.7703 19.4389 18.5606C19.2291 18.3508 19.0863 18.0835 19.0284 17.7925C18.9705 17.5016 19.0002 17.2 19.1137 16.9259C19.2273 16.6518 19.4195 16.4175 19.6662 16.2527C19.9129 16.0879 20.2029 15.9999 20.4996 15.9999C20.8974 15.9999 21.2789 16.1579 21.5602 16.4392C21.8415 16.7205 21.9996 17.1021 21.9996 17.4999ZM15.9996 11.4999C15.9996 11.2032 15.9116 10.9132 15.7468 10.6665C15.5819 10.4199 15.3477 10.2276 15.0736 10.1141C14.7995 10.0005 14.4979 9.97084 14.2069 10.0287C13.916 10.0866 13.6487 10.2295 13.4389 10.4392C13.2291 10.649 13.0863 10.9163 13.0284 11.2073C12.9705 11.4982 13.0002 11.7998 13.1137 12.0739C13.2273 12.348 13.4195 12.5823 13.6662 12.7471C13.9129 12.9119 14.2029 12.9999 14.4996 12.9999C14.8974 12.9999 15.2789 12.8419 15.5602 12.5606C15.8415 12.2793 15.9996 11.8977 15.9996 11.4999ZM25.1246 6.7499C22.7147 4.40695 19.491 3.08843 16.13 3.07098C12.769 3.05353 9.5318 4.33851 7.09773 6.65631C4.66366 8.97411 3.22189 12.1446 3.07494 15.5024C2.92799 18.8603 4.08728 22.1446 6.30956 24.6661C6.39646 24.7664 6.50243 24.8483 6.62131 24.9072C6.74018 24.9661 6.86959 25.0007 7.00198 25.0091C7.13438 25.0175 7.26712 24.9995 7.39247 24.956C7.51782 24.9126 7.63328 24.8447 7.73213 24.7562C7.83097 24.6677 7.91122 24.5605 7.96821 24.4407C8.02519 24.3209 8.05777 24.1909 8.06405 24.0584C8.07032 23.9259 8.05017 23.7935 8.00477 23.6688C7.95936 23.5442 7.8896 23.4298 7.79956 23.3324C6.38406 21.7496 5.45692 19.791 5.13005 17.6929C4.80318 15.5948 5.09056 13.4469 5.9575 11.5085C6.82444 9.57016 8.23388 7.92414 10.0157 6.76915C11.7975 5.61417 13.8755 4.99958 15.9989 4.99958C18.1223 4.99958 20.2004 5.61417 21.9822 6.76915C23.764 7.92414 25.1734 9.57016 26.0404 11.5085C26.9073 13.4469 27.1947 15.5948 26.8678 17.6929C26.541 19.791 25.6138 21.7496 24.1983 23.3324C24.0214 23.5302 23.9304 23.7901 23.9452 24.055C23.9599 24.3199 24.0793 24.568 24.2771 24.7449C24.4748 24.9218 24.7347 25.0128 24.9996 24.9981C25.2645 24.9833 25.5127 24.8639 25.6896 24.6661C27.9127 22.1779 29.0939 18.9301 28.9887 15.5951C28.8835 12.26 27.5 9.09313 25.1246 6.7499ZM18.9996 20.9999H16.9996C14.2821 20.9999 10.9996 18.7699 10.9996 15.9999C10.9998 15.7202 11.0228 15.4409 11.0683 15.1649C11.0913 15.0348 11.0883 14.9015 11.0595 14.7725C11.0307 14.6436 10.9766 14.5217 10.9004 14.4138C10.8242 14.3059 10.7273 14.2142 10.6154 14.1439C10.5036 14.0737 10.3789 14.0263 10.2486 14.0045C10.1183 13.9827 9.98499 13.9869 9.85635 14.0169C9.7277 14.0469 9.60628 14.1022 9.49909 14.1794C9.3919 14.2566 9.30108 14.3543 9.23186 14.4668C9.16264 14.5793 9.1164 14.7044 9.09581 14.8349C9.03182 15.2199 8.99963 15.6096 8.99956 15.9999C8.99956 17.8599 9.93206 19.6411 11.6246 21.0186C13.1746 22.2774 15.1333 22.9999 16.9996 22.9999H18.9996C19.2648 22.9999 19.5191 23.1053 19.7067 23.2928C19.8942 23.4803 19.9996 23.7347 19.9996 23.9999C19.9996 24.2651 19.8942 24.5195 19.7067 24.707C19.5191 24.8945 19.2648 24.9999 18.9996 24.9999H11.9996C11.2039 24.9999 10.4409 25.316 9.87824 25.8786C9.31563 26.4412 8.99956 27.2043 8.99956 27.9999C8.99956 28.7955 9.31563 29.5586 9.87824 30.1212C10.4409 30.6838 11.2039 30.9999 11.9996 30.9999C12.2648 30.9999 12.5191 30.8945 12.7067 30.707C12.8942 30.5195 12.9996 30.2651 12.9996 29.9999C12.9996 29.7347 12.8942 29.4803 12.7067 29.2928C12.5191 29.1053 12.2648 28.9999 11.9996 28.9999C11.7343 28.9999 11.48 28.8945 11.2925 28.707C11.1049 28.5195 10.9996 28.2651 10.9996 27.9999C10.9996 27.7347 11.1049 27.4803 11.2925 27.2928C11.48 27.1053 11.7343 26.9999 11.9996 26.9999H18.9996C19.7952 26.9999 20.5583 26.6838 21.1209 26.1212C21.6835 25.5586 21.9996 24.7955 21.9996 23.9999C21.9996 23.2043 21.6835 22.4412 21.1209 21.8786C20.5583 21.316 19.7952 20.9999 18.9996 20.9999Z" fill="#222222"/>
</svg>
