<svg width="32" height="32" viewBox="0 0 32 32" fill="none" xmlns="http://www.w3.org/2000/svg">
<path d="M20.4387 3.10129C20.2706 3.01935 20.0828 2.98622 19.8968 3.00566C19.7107 3.02511 19.5338 3.09635 19.3862 3.21129L10.6562 10H5C4.46957 10 3.96086 10.2108 3.58579 10.5858C3.21071 10.9609 3 11.4696 3 12V20C3 20.5305 3.21071 21.0392 3.58579 21.4143C3.96086 21.7893 4.46957 22 5 22H10.6562L19.3862 28.7888C19.534 28.9036 19.711 28.9747 19.8971 28.994C20.0832 29.0132 20.271 28.9799 20.4391 28.8977C20.6072 28.8155 20.7489 28.6879 20.8481 28.5292C20.9472 28.3705 20.9999 28.1872 21 28V4.00004C21 3.8127 20.9474 3.62912 20.8482 3.47022C20.749 3.31132 20.6071 3.18349 20.4387 3.10129ZM19 25.955L11.6138 20.2113C11.4386 20.0741 11.2225 19.9997 11 20H5V12H11C11.2225 12.0004 11.4386 11.926 11.6138 11.7888L19 6.04504V25.955Z" fill="#222222"/>
</svg>
