<svg width="32" height="32" viewBox="0 0 32 32" fill="none" xmlns="http://www.w3.org/2000/svg">
<path d="M24 19V13C24 12.7348 24.1054 12.4804 24.2929 12.2929C24.4804 12.1053 24.7348 12 25 12C25.2652 12 25.5196 12.1053 25.7071 12.2929C25.8946 12.4804 26 12.7348 26 13V19C26 19.2652 25.8946 19.5196 25.7071 19.7071C25.5196 19.8946 25.2652 20 25 20C24.7348 20 24.4804 19.8946 24.2929 19.7071C24.1054 19.5196 24 19.2652 24 19ZM29 9.99998C28.7348 9.99998 28.4804 10.1053 28.2929 10.2929C28.1054 10.4804 28 10.7348 28 11V21C28 21.2652 28.1054 21.5196 28.2929 21.7071C28.4804 21.8946 28.7348 22 29 22C29.2652 22 29.5196 21.8946 29.7071 21.7071C29.8946 21.5196 30 21.2652 30 21V11C30 10.7348 29.8946 10.4804 29.7071 10.2929C29.5196 10.1053 29.2652 9.99998 29 9.99998ZM27.74 26.3275C27.8302 26.4243 27.9002 26.5381 27.9461 26.6623C27.9919 26.7864 28.0127 26.9184 28.0072 27.0506C28.0017 27.1828 27.97 27.3126 27.9139 27.4325C27.8578 27.5524 27.7785 27.6599 27.6806 27.7489C27.5827 27.8379 27.4681 27.9066 27.3434 27.951C27.2187 27.9953 27.0865 28.0145 26.9543 28.0074C26.8222 28.0003 26.6928 27.967 26.5736 27.9095C26.4544 27.8521 26.3478 27.7715 26.26 27.6725L21 21.8862V28C20.9999 28.1871 20.9472 28.3704 20.8481 28.5291C20.7489 28.6878 20.6072 28.8155 20.4391 28.8977C20.271 28.9798 20.0832 29.0132 19.8971 28.9939C19.711 28.9747 19.534 28.9036 19.3862 28.7887L10.6562 22H5C4.46957 22 3.96086 21.7893 3.58579 21.4142C3.21071 21.0391 3 20.5304 3 20V12C3 11.4696 3.21071 10.9608 3.58579 10.5858C3.96086 10.2107 4.46957 9.99998 5 9.99998H10.1938L6.26 5.67248C6.08537 5.47564 5.99537 5.2179 6.00951 4.95514C6.02364 4.69238 6.14078 4.44578 6.33552 4.2688C6.53025 4.09183 6.7869 3.99874 7.04981 4.00973C7.31272 4.02071 7.5607 4.13488 7.74 4.32748L27.74 26.3275ZM19 19.6862L12.0125 12H5V20H11C11.2225 19.9996 11.4386 20.074 11.6138 20.2112L19 25.955V19.6862ZM15.6325 8.66373L19 6.03873V13.3475C19 13.6127 19.1054 13.8671 19.2929 14.0546C19.4804 14.2421 19.7348 14.3475 20 14.3475C20.2652 14.3475 20.5196 14.2421 20.7071 14.0546C20.8946 13.8671 21 13.6127 21 13.3475V3.99998C20.9999 3.81286 20.9472 3.62954 20.8481 3.47085C20.7489 3.31216 20.6072 3.18447 20.4391 3.10231C20.271 3.02014 20.0832 2.98679 19.8971 3.00604C19.711 3.0253 19.534 3.09639 19.3862 3.21123L14.405 7.08623C14.1998 7.25043 14.0676 7.48879 14.0368 7.74976C14.006 8.01072 14.0791 8.27333 14.2404 8.48078C14.4017 8.68823 14.6382 8.82386 14.8987 8.85833C15.1592 8.8928 15.4228 8.82334 15.6325 8.66498V8.66373Z" fill="#222222"/>
</svg>
