<svg width="32" height="32" viewBox="0 0 32 32" fill="none" xmlns="http://www.w3.org/2000/svg">
<path d="M1.50019 13.8749L15.5002 21.8749C15.6513 21.9613 15.8224 22.0068 15.9964 22.0068C16.1705 22.0068 16.3416 21.9613 16.4927 21.8749L30.4927 13.8749C30.646 13.7875 30.7734 13.6611 30.8621 13.5086C30.9507 13.356 30.9974 13.1827 30.9974 13.0062C30.9974 12.8297 30.9507 12.6564 30.8621 12.5038C30.7734 12.3512 30.646 12.2248 30.4927 12.1374L16.4927 4.13744C16.3416 4.05105 16.1705 4.00562 15.9964 4.00562C15.8224 4.00562 15.6513 4.05105 15.5002 4.13744L1.50019 12.1374C1.34688 12.2248 1.21944 12.3512 1.13078 12.5038C1.04213 12.6564 0.995438 12.8297 0.995438 13.0062C0.995438 13.1827 1.04213 13.356 1.13078 13.5086C1.21944 13.6611 1.34688 13.7875 1.50019 13.8749ZM16.0002 6.15119L27.9839 12.9999L16.0002 19.8487L4.01644 12.9999L16.0002 6.15119ZM30.8677 17.4999C30.9347 17.6141 30.9784 17.7405 30.9961 17.8717C31.0139 18.0029 31.0055 18.1363 30.9713 18.2642C30.9371 18.3922 30.8779 18.512 30.797 18.6168C30.7161 18.7217 30.6152 18.8094 30.5002 18.8749L16.5002 26.8749C16.3491 26.9613 16.178 27.0068 16.0039 27.0068C15.8299 27.0068 15.6588 26.9613 15.5077 26.8749L1.50019 18.8749C1.38569 18.8093 1.28525 18.7217 1.2046 18.6172C1.12394 18.5127 1.06466 18.3934 1.03013 18.266C0.995593 18.1386 0.986491 18.0057 1.00334 17.8748C1.02019 17.7439 1.06265 17.6176 1.12831 17.5031C1.19397 17.3886 1.28154 17.2881 1.38602 17.2075C1.4905 17.1268 1.60984 17.0675 1.73723 17.033C1.99451 16.9633 2.26895 16.9986 2.50019 17.1312L16.0002 24.8487L29.5002 17.1312C29.6141 17.0654 29.74 17.0228 29.8704 17.0057C30.0009 16.9886 30.1334 16.9975 30.2605 17.0317C30.3875 17.066 30.5065 17.125 30.6107 17.2053C30.7149 17.2857 30.8023 17.3858 30.8677 17.4999Z" fill="#222222"/>
</svg>
