<svg width="32" height="32" viewBox="0 0 32 32" fill="none" xmlns="http://www.w3.org/2000/svg">
<path d="M28.6878 14.1248L20.7578 11.2423L17.8753 3.31233C17.7332 2.92958 17.4774 2.59947 17.1423 2.36636C16.8071 2.13325 16.4086 2.0083 16.0003 2.0083C15.592 2.0083 15.1936 2.13325 14.8584 2.36636C14.5232 2.59947 14.2674 2.92958 14.1253 3.31233L11.2428 11.2423L3.31282 14.1248C2.93006 14.2669 2.59996 14.5227 2.36685 14.8579C2.13374 15.1931 2.00879 15.5916 2.00879 15.9998C2.00879 16.4081 2.13374 16.8066 2.36685 17.1418C2.59996 17.4769 2.93006 17.7328 3.31282 17.8748L11.2428 20.7586L14.1253 28.6873C14.2674 29.0701 14.5232 29.4002 14.8584 29.6333C15.1936 29.8664 15.592 29.9914 16.0003 29.9914C16.4086 29.9914 16.8071 29.8664 17.1423 29.6333C17.4774 29.4002 17.7332 29.0701 17.8753 28.6873L20.7591 20.7573L28.6878 17.8748C29.0706 17.7328 29.4007 17.4769 29.6338 17.1418C29.8669 16.8066 29.9918 16.4081 29.9918 15.9998C29.9918 15.5916 29.8669 15.1931 29.6338 14.8579C29.4007 14.5227 29.0706 14.2669 28.6878 14.1248ZM19.6353 19.0373C19.4981 19.0873 19.3736 19.1666 19.2704 19.2699C19.1671 19.3731 19.0878 19.4977 19.0378 19.6348L16.0003 27.9873L12.9628 19.6348C12.9129 19.4977 12.8335 19.3731 12.7303 19.2699C12.6271 19.1666 12.5025 19.0873 12.3653 19.0373L4.01282 15.9998L12.3653 12.9623C12.5025 12.9124 12.6271 12.833 12.7303 12.7298C12.8335 12.6266 12.9129 12.502 12.9628 12.3648L16.0003 4.01233L19.0378 12.3648C19.0878 12.502 19.1671 12.6266 19.2704 12.7298C19.3736 12.833 19.4981 12.9124 19.6353 12.9623L27.9878 15.9998L19.6353 19.0373Z" fill="#222222"/>
</svg>
