<svg width="32" height="32" viewBox="0 0 32 32" fill="none" xmlns="http://www.w3.org/2000/svg">
<path d="M6 17.0001C6 16.7349 6.10536 16.4805 6.29289 16.293C6.48043 16.1054 6.73478 16.0001 7 16.0001H9C9.26522 16.0001 9.51957 16.1054 9.70711 16.293C9.89464 16.4805 10 16.7349 10 17.0001C10 17.2653 9.89464 17.5197 9.70711 17.7072C9.51957 17.8947 9.26522 18.0001 9 18.0001H7C6.73478 18.0001 6.48043 17.8947 6.29289 17.7072C6.10536 17.5197 6 17.2653 6 17.0001ZM26.74 26.3276C26.8302 26.4244 26.9002 26.5382 26.9461 26.6624C26.9919 26.7865 27.0127 26.9185 27.0072 27.0507C27.0017 27.1829 26.97 27.3127 26.9139 27.4326C26.8578 27.5525 26.7785 27.66 26.6806 27.749C26.5827 27.838 26.4681 27.9067 26.3434 27.9511C26.2187 27.9954 26.0865 28.0146 25.9543 28.0075C25.8222 28.0004 25.6928 27.9671 25.5736 27.9096C25.4544 27.8522 25.3478 27.7716 25.26 27.6726L23.74 26.0001H4C3.46957 26.0001 2.96086 25.7894 2.58579 25.4143C2.21071 25.0392 2 24.5305 2 24.0001V8.00008C2 7.46965 2.21071 6.96094 2.58579 6.58587C2.96086 6.2108 3.46957 6.00008 4 6.00008H5.5575L5.26 5.67258C5.16983 5.57573 5.09979 5.46194 5.05392 5.33781C5.00806 5.21368 4.98728 5.08168 4.99281 4.94947C4.99833 4.81725 5.03004 4.68745 5.0861 4.56758C5.14216 4.44771 5.22146 4.34016 5.31939 4.25116C5.41732 4.16216 5.53194 4.09348 5.65661 4.04911C5.78128 4.00473 5.91352 3.98555 6.04566 3.99265C6.1778 3.99976 6.30721 4.03303 6.4264 4.09052C6.54559 4.14801 6.65218 4.22859 6.74 4.32758L26.74 26.3276ZM21.9212 24.0001L20.1025 22.0001H7C6.73478 22.0001 6.48043 21.8947 6.29289 21.7072C6.10536 21.5197 6 21.2653 6 21.0001C6 20.7349 6.10536 20.4805 6.29289 20.293C6.48043 20.1054 6.73478 20.0001 7 20.0001H18.285L16.4662 18.0001H13C12.7348 18.0001 12.4804 17.8947 12.2929 17.7072C12.1054 17.5197 12 17.2653 12 17.0001C12 16.7349 12.1054 16.4805 12.2929 16.293C12.4804 16.1054 12.7348 16.0001 13 16.0001H14.6488L7.375 8.00008H4V24.0001H21.9212ZM25 18.0001C25.2652 18.0001 25.5196 17.8947 25.7071 17.7072C25.8946 17.5197 26 17.2653 26 17.0001C26 16.7349 25.8946 16.4805 25.7071 16.293C25.5196 16.1054 25.2652 16.0001 25 16.0001H22.315C22.0498 16.0001 21.7954 16.1054 21.6079 16.293C21.4204 16.4805 21.315 16.7349 21.315 17.0001C21.315 17.2653 21.4204 17.5197 21.6079 17.7072C21.7954 17.8947 22.0498 18.0001 22.315 18.0001H25ZM28 6.00008H13.2238C12.9585 6.00008 12.7042 6.10544 12.5166 6.29298C12.3291 6.48051 12.2238 6.73487 12.2238 7.00008C12.2238 7.2653 12.3291 7.51965 12.5166 7.70719C12.7042 7.89473 12.9585 8.00008 13.2238 8.00008H28V24.3538C28 24.6191 28.1054 24.8734 28.2929 25.0609C28.4804 25.2485 28.7348 25.3538 29 25.3538C29.2652 25.3538 29.5196 25.2485 29.7071 25.0609C29.8946 24.8734 30 24.6191 30 24.3538V8.00008C30 7.46965 29.7893 6.96094 29.4142 6.58587C29.0391 6.2108 28.5304 6.00008 28 6.00008Z" fill="#222222"/>
</svg>
