<svg width="32" height="32" viewBox="0 0 32 32" fill="none" xmlns="http://www.w3.org/2000/svg">
<path d="M27.0002 4H19.0002C18.8471 3.99998 18.696 4.03514 18.5586 4.10276C18.4212 4.17038 18.3012 4.26865 18.2077 4.39L10.2077 14.7913L9.00025 13.5863C8.8145 13.4003 8.59392 13.2528 8.35113 13.1521C8.10833 13.0515 7.84808 12.9997 7.58525 12.9997C7.32241 12.9997 7.06216 13.0515 6.81936 13.1521C6.57657 13.2528 6.35599 13.4003 6.17024 13.5863L4.58399 15.1737C4.39823 15.3595 4.25087 15.58 4.15033 15.8227C4.04979 16.0653 3.99805 16.3254 3.99805 16.5881C3.99805 16.8508 4.04979 17.1109 4.15033 17.3536C4.25087 17.5963 4.39823 17.8168 4.58399 18.0025L7.08399 20.5025L3.58399 24.0025C3.39823 24.1882 3.25087 24.4087 3.15033 24.6514C3.04979 24.8941 2.99805 25.1542 2.99805 25.4169C2.99805 25.6796 3.04979 25.9397 3.15033 26.1823C3.25087 26.425 3.39823 26.6455 3.58399 26.8312L5.17024 28.4163C5.54528 28.791 6.05379 29.0016 6.58399 29.0016C7.1142 29.0016 7.62271 28.791 7.99774 28.4163L11.4977 24.9163L13.9977 27.4163C14.1835 27.6022 14.4041 27.7497 14.6469 27.8504C14.8897 27.951 15.1499 28.0028 15.4127 28.0028C15.6756 28.0028 15.9358 27.951 16.1786 27.8504C16.4214 27.7497 16.642 27.6022 16.8277 27.4163L18.414 25.8288C18.5998 25.643 18.7471 25.4225 18.8477 25.1798C18.9482 24.9372 18.9999 24.6771 18.9999 24.4144C18.9999 24.1517 18.9482 23.8916 18.8477 23.6489C18.7471 23.4062 18.5998 23.1857 18.414 23L17.209 21.795L27.6102 13.795C27.7319 13.7013 27.8304 13.5809 27.898 13.443C27.9657 13.3052 28.0006 13.1536 28.0002 13V5C28.0002 4.73478 27.8949 4.48043 27.7074 4.29289C27.5198 4.10536 27.2655 4 27.0002 4ZM6.58649 27L5.00024 25.415L8.50025 21.915L10.0852 23.5L6.58649 27ZM15.4127 26L6.00024 16.5888L7.58774 15L17.0002 24.4137L15.4127 26ZM26.0002 12.5075L15.7827 20.3675L14.4152 19L20.7077 12.7075C20.8952 12.5199 21.0005 12.2654 21.0004 12.0002C21.0002 11.7349 20.8948 11.4806 20.7071 11.2931C20.5195 11.1057 20.265 11.0004 19.9998 11.0005C19.7346 11.0006 19.4802 11.1061 19.2927 11.2937L13.0002 17.585L11.634 16.2175L19.4927 6H26.0002V12.5075Z" fill="#222222"/>
</svg>
