<svg width="32" height="32" viewBox="0 0 32 32" fill="none" xmlns="http://www.w3.org/2000/svg">
<path d="M26.6728 27.7401C26.4765 27.9184 26.2174 28.0115 25.9525 27.9988C25.6876 27.9862 25.4386 27.8688 25.2603 27.6726L17.0003 18.5863V24.0001H20.0003C20.2655 24.0001 20.5198 24.1054 20.7074 24.293C20.8949 24.4805 21.0003 24.7349 21.0003 25.0001C21.0003 25.2653 20.8949 25.5197 20.7074 25.7072C20.5198 25.8947 20.2655 26.0001 20.0003 26.0001H12.0003C11.735 26.0001 11.4807 25.8947 11.2931 25.7072C11.1056 25.5197 11.0003 25.2653 11.0003 25.0001C11.0003 24.7349 11.1056 24.4805 11.2931 24.293C11.4807 24.1054 11.735 24.0001 12.0003 24.0001H15.0003V16.3863L8.00025 8.68633V11.0001C8.00025 11.2653 7.89489 11.5197 7.70736 11.7072C7.51982 11.8947 7.26547 12.0001 7.00025 12.0001C6.73503 12.0001 6.48068 11.8947 6.29314 11.7072C6.10561 11.5197 6.00025 11.2653 6.00025 11.0001V7.00008C6.00037 6.85732 6.03106 6.71625 6.09025 6.58633L5.26025 5.67258C5.17008 5.57573 5.10004 5.46194 5.05417 5.33781C5.00831 5.21368 4.98754 5.08168 4.99306 4.94947C4.99858 4.81725 5.03029 4.68745 5.08635 4.56758C5.14241 4.44771 5.22171 4.34016 5.31964 4.25116C5.41757 4.16216 5.53219 4.09348 5.65686 4.04911C5.78153 4.00473 5.91377 3.98555 6.04591 3.99265C6.17805 3.99976 6.30746 4.03303 6.42665 4.09052C6.54584 4.14801 6.65243 4.22859 6.74025 4.32758L26.7403 26.3276C26.9186 26.5239 27.0117 26.7829 26.999 27.0478C26.9864 27.3127 26.869 27.5617 26.6728 27.7401ZM13.224 8.00008H15.0003V10.0538C15.0003 10.3191 15.1056 10.5734 15.2931 10.7609C15.4807 10.9485 15.735 11.0538 16.0003 11.0538C16.2655 11.0538 16.5198 10.9485 16.7074 10.7609C16.8949 10.5734 17.0003 10.3191 17.0003 10.0538V8.00008H24.0003V11.0001C24.0003 11.2653 24.1056 11.5197 24.2931 11.7072C24.4807 11.8947 24.735 12.0001 25.0003 12.0001C25.2655 12.0001 25.5198 11.8947 25.7074 11.7072C25.8949 11.5197 26.0003 11.2653 26.0003 11.0001V7.00008C26.0003 6.73487 25.8949 6.48051 25.7074 6.29298C25.5198 6.10544 25.2655 6.00008 25.0003 6.00008H13.224C12.9588 6.00008 12.7044 6.10544 12.5169 6.29298C12.3294 6.48051 12.224 6.73487 12.224 7.00008C12.224 7.2653 12.3294 7.51965 12.5169 7.70719C12.7044 7.89473 12.9588 8.00008 13.224 8.00008Z" fill="#222222"/>
</svg>
