<svg width="32" height="32" viewBox="0 0 32 32" fill="none" xmlns="http://www.w3.org/2000/svg">
<path d="M27.9998 16.0001C27.9998 16.2653 27.8945 16.5196 27.7069 16.7072C27.5194 16.8947 27.265 17.0001 26.9998 17.0001H13.9998C13.7346 17.0001 13.4802 16.8947 13.2927 16.7072C13.1052 16.5196 12.9998 16.2653 12.9998 16.0001C12.9998 15.7349 13.1052 15.4805 13.2927 15.293C13.4802 15.1054 13.7346 15.0001 13.9998 15.0001H26.9998C27.265 15.0001 27.5194 15.1054 27.7069 15.293C27.8945 15.4805 27.9998 15.7349 27.9998 16.0001ZM13.9998 9.00007H26.9998C27.265 9.00007 27.5194 8.89471 27.7069 8.70717C27.8945 8.51964 27.9998 8.26528 27.9998 8.00007C27.9998 7.73485 27.8945 7.4805 27.7069 7.29296C27.5194 7.10542 27.265 7.00007 26.9998 7.00007H13.9998C13.7346 7.00007 13.4802 7.10542 13.2927 7.29296C13.1052 7.4805 12.9998 7.73485 12.9998 8.00007C12.9998 8.26528 13.1052 8.51964 13.2927 8.70717C13.4802 8.89471 13.7346 9.00007 13.9998 9.00007ZM26.9998 23.0001H4.99981C4.73459 23.0001 4.48024 23.1054 4.2927 23.293C4.10517 23.4805 3.99981 23.7349 3.99981 24.0001C3.99981 24.2653 4.10517 24.5196 4.2927 24.7072C4.48024 24.8947 4.73459 25.0001 4.99981 25.0001H26.9998C27.265 25.0001 27.5194 24.8947 27.7069 24.7072C27.8945 24.5196 27.9998 24.2653 27.9998 24.0001C27.9998 23.7349 27.8945 23.4805 27.7069 23.293C27.5194 23.1054 27.265 23.0001 26.9998 23.0001ZM4.29231 17.7076C4.38518 17.8005 4.49547 17.8743 4.61687 17.9246C4.73827 17.975 4.86839 18.0009 4.99981 18.0009C5.13123 18.0009 5.26135 17.975 5.38275 17.9246C5.50415 17.8743 5.61444 17.8005 5.70731 17.7076L10.7073 12.7076C10.8003 12.6147 10.874 12.5044 10.9244 12.383C10.9747 12.2616 11.0006 12.1315 11.0006 12.0001C11.0006 11.8687 10.9747 11.7385 10.9244 11.6171C10.874 11.4957 10.8003 11.3854 10.7073 11.2926L5.70731 6.29257C5.51967 6.10493 5.26517 5.99951 4.99981 5.99951C4.73445 5.99951 4.47995 6.10493 4.29231 6.29257C4.10467 6.48021 3.99925 6.7347 3.99925 7.00007C3.99925 7.26543 4.10467 7.51993 4.29231 7.70757L8.58606 12.0001L4.29231 16.2926C4.19933 16.3854 4.12557 16.4957 4.07525 16.6171C4.02493 16.7385 3.99902 16.8687 3.99902 17.0001C3.99902 17.1315 4.02493 17.2616 4.07525 17.383C4.12557 17.5044 4.19933 17.6147 4.29231 17.7076Z" fill="#222222"/>
</svg>
