<svg width="32" height="32" viewBox="0 0 32 32" fill="none" xmlns="http://www.w3.org/2000/svg">
<path d="M31.7073 11.2925L26.7073 6.29249C26.6144 6.19952 26.5041 6.12576 26.3827 6.07543C26.2614 6.02511 26.1312 5.99921 25.9998 5.99921C25.8684 5.99921 25.7383 6.02511 25.6169 6.07543C25.4955 6.12576 25.3852 6.19952 25.2923 6.29249L20.9998 10.5862L16.7073 6.29249C16.6144 6.19952 16.5041 6.12576 16.3827 6.07543C16.2614 6.02511 16.1312 5.99921 15.9998 5.99921C15.8684 5.99921 15.7383 6.02511 15.6169 6.07543C15.4955 6.12576 15.3852 6.19952 15.2923 6.29249L10.9998 10.5862L6.70731 6.29249C6.61444 6.19952 6.50415 6.12576 6.38275 6.07543C6.26135 6.02511 6.13123 5.99921 5.99981 5.99921C5.86839 5.99921 5.73827 6.02511 5.61687 6.07543C5.49547 6.12576 5.38518 6.19952 5.29231 6.29249L0.29231 11.2925C0.199334 11.3854 0.125575 11.4957 0.0752504 11.6171C0.0249261 11.7385 -0.000976562 11.8686 -0.000976562 12C-0.000976562 12.1314 0.0249261 12.2615 0.0752504 12.3829C0.125575 12.5043 0.199334 12.6146 0.29231 12.7075L5.29231 17.7075C5.38518 17.8005 5.49547 17.8742 5.61687 17.9246C5.73827 17.9749 5.86839 18.0008 5.99981 18.0008C6.13123 18.0008 6.26135 17.9749 6.38275 17.9246C6.50415 17.8742 6.61444 17.8005 6.70731 17.7075L10.9998 13.4137L14.5861 17L10.2923 21.2925C10.1993 21.3854 10.1256 21.4957 10.0753 21.6171C10.0249 21.7385 9.99902 21.8686 9.99902 22C9.99902 22.1314 10.0249 22.2615 10.0753 22.3829C10.1256 22.5043 10.1993 22.6146 10.2923 22.7075L15.2923 27.7075C15.3852 27.8005 15.4955 27.8742 15.6169 27.9246C15.7383 27.9749 15.8684 28.0008 15.9998 28.0008C16.1312 28.0008 16.2614 27.9749 16.3827 27.9246C16.5041 27.8742 16.6144 27.8005 16.7073 27.7075L21.7073 22.7075C21.8003 22.6146 21.874 22.5043 21.9244 22.3829C21.9747 22.2615 22.0006 22.1314 22.0006 22C22.0006 21.8686 21.9747 21.7385 21.9244 21.6171C21.874 21.4957 21.8003 21.3854 21.7073 21.2925L17.4136 17L20.9998 13.4137L25.2923 17.7075C25.3852 17.8005 25.4955 17.8742 25.6169 17.9246C25.7383 17.9749 25.8684 18.0008 25.9998 18.0008C26.1312 18.0008 26.2614 17.9749 26.3827 17.9246C26.5041 17.8742 26.6144 17.8005 26.7073 17.7075L31.7073 12.7075C31.8003 12.6146 31.874 12.5043 31.9244 12.3829C31.9747 12.2615 32.0006 12.1314 32.0006 12C32.0006 11.8686 31.9747 11.7385 31.9244 11.6171C31.874 11.4957 31.8003 11.3854 31.7073 11.2925ZM5.99981 15.5862L2.41356 12L5.99981 8.41374L9.58606 12L5.99981 15.5862ZM15.9998 25.5862L12.4136 22L15.9998 18.4137L19.5861 22L15.9998 25.5862ZM15.9998 15.5862L12.4136 12L15.9998 8.41374L19.5861 12L15.9998 15.5862ZM25.9998 15.5862L22.4136 12L25.9998 8.41374L29.5861 12L25.9998 15.5862Z" fill="#222222"/>
</svg>
