<svg width="32" height="32" viewBox="0 0 32 32" fill="none" xmlns="http://www.w3.org/2000/svg">
<path d="M27.7791 16.3237C25.9653 18.5737 24.1741 19.7737 22.3041 19.97C22.1172 19.9898 21.9295 19.9998 21.7416 20C19.3291 20 17.3178 18.3625 15.3666 16.775C13.5028 15.2575 11.7416 13.8237 9.90409 14.025C8.59034 14.1625 7.24034 15.115 5.77909 16.935C5.60839 17.1256 5.37113 17.2435 5.11614 17.2644C4.86114 17.2854 4.60781 17.2078 4.40827 17.0477C4.20873 16.8875 4.07816 16.657 4.04344 16.4035C4.00871 16.15 4.07247 15.8929 4.22159 15.685C6.03534 13.435 7.82659 12.235 9.69659 12.0387C12.3616 11.7575 14.5328 13.525 16.6316 15.2337C18.4953 16.7512 20.2566 18.1862 22.0941 17.9837C23.4078 17.8462 24.7578 16.8937 26.2191 15.0737C26.2983 14.9633 26.3991 14.8702 26.5155 14.8001C26.6319 14.7299 26.7613 14.6842 26.896 14.6658C27.0306 14.6474 27.1675 14.6565 27.2985 14.6928C27.4294 14.729 27.5516 14.7916 27.6576 14.8767C27.7636 14.9617 27.8511 15.0674 27.9148 15.1874C27.9786 15.3074 28.0172 15.4392 28.0283 15.5746C28.0395 15.71 28.0229 15.8463 27.9796 15.9751C27.9363 16.1039 27.8672 16.2225 27.7766 16.3237H27.7791Z" fill="#222222"/>
</svg>
