<svg width="32" height="32" viewBox="0 0 32 32" fill="none" xmlns="http://www.w3.org/2000/svg">
<path d="M29.5005 8.675C29.3108 8.46212 29.0781 8.29189 28.8179 8.17554C28.5576 8.05918 28.2756 7.99935 27.9905 8H22.0005C22.0005 6.4087 21.3683 4.88258 20.2431 3.75736C19.1179 2.63214 17.5918 2 16.0005 2C14.4092 2 12.883 2.63214 11.7578 3.75736C10.6326 4.88258 10.0005 6.4087 10.0005 8H4.01046C3.72703 8.00076 3.44696 8.06127 3.18849 8.17758C2.93003 8.29389 2.699 8.46338 2.51046 8.675C2.32349 8.88583 2.18319 9.1338 2.09875 9.40264C2.01431 9.67148 1.98763 9.95513 2.02046 10.235L3.80296 25.235C3.86077 25.7237 4.09675 26.174 4.46574 26.4996C4.83474 26.8253 5.31084 27.0034 5.80296 27H26.2092C26.7013 27.0034 27.1774 26.8253 27.5464 26.4996C27.9154 26.174 28.1514 25.7237 28.2092 25.235L29.9917 10.235C30.0244 9.95504 29.9975 9.67134 29.9128 9.40249C29.8282 9.13364 29.6876 8.88573 29.5005 8.675ZM16.0005 4C17.0613 4 18.0787 4.42143 18.8289 5.17157C19.579 5.92172 20.0005 6.93913 20.0005 8H12.0005C12.0005 6.93913 12.4219 5.92172 13.172 5.17157C13.9222 4.42143 14.9396 4 16.0005 4ZM26.2205 25C26.2168 25.0013 26.2128 25.0013 26.2092 25H5.78171L4.01046 10H10.0005V13C10.0005 13.2652 10.1058 13.5196 10.2934 13.7071C10.4809 13.8946 10.7352 14 11.0005 14C11.2657 14 11.52 13.8946 11.7076 13.7071C11.8951 13.5196 12.0005 13.2652 12.0005 13V10H20.0005V13C20.0005 13.2652 20.1058 13.5196 20.2934 13.7071C20.4809 13.8946 20.7352 14 21.0005 14C21.2657 14 21.52 13.8946 21.7076 13.7071C21.8951 13.5196 22.0005 13.2652 22.0005 13V10H28.0005L26.2205 25Z" fill="#222222"/>
</svg>
