<svg width="32" height="32" viewBox="0 0 32 32" fill="none" xmlns="http://www.w3.org/2000/svg">
<path d="M27.9647 14.7375L25.166 4.47375C25.0505 4.05039 24.799 3.67676 24.4502 3.41044C24.1015 3.14412 23.6748 2.9999 23.236 3H8.76346C8.32464 2.9999 7.89796 3.14412 7.54919 3.41044C7.20042 3.67676 6.94892 4.05039 6.83346 4.47375L4.03471 14.7375C3.98843 14.9094 3.98843 15.0906 4.03471 15.2625L6.83346 25.5263C6.94892 25.9496 7.20042 26.3232 7.54919 26.5896C7.89796 26.8559 8.32464 27.0001 8.76346 27H9.99971L8.19971 29.4C8.12092 29.5051 8.06359 29.6246 8.03099 29.7518C7.9984 29.879 7.99119 30.0114 8.00976 30.1414C8.02833 30.2714 8.07233 30.3965 8.13923 30.5095C8.20614 30.6225 8.29465 30.7212 8.39971 30.8C8.50477 30.8788 8.62431 30.9361 8.75153 30.9687C8.87874 31.0013 9.01113 31.0085 9.14113 30.99C9.27113 30.9714 9.3962 30.9274 9.5092 30.8605C9.6222 30.7936 9.72092 30.7051 9.79971 30.6L12.4997 27H19.4997L22.1997 30.6C22.3588 30.8122 22.5957 30.9524 22.8583 30.99C23.1208 31.0275 23.3875 30.9591 23.5997 30.8C23.8119 30.6409 23.9522 30.404 23.9897 30.1414C24.0272 29.8789 23.9588 29.6122 23.7997 29.4L21.9997 27H23.236C23.6748 27.0001 24.1015 26.8559 24.4502 26.5896C24.799 26.3232 25.0505 25.9496 25.166 25.5263L27.9647 15.2625C28.011 15.0906 28.011 14.9094 27.9647 14.7375ZM8.76346 5H23.236L25.7497 14.2113L15.9997 15.9838L6.24971 14.2113L8.76346 5ZM6.38846 16.2675L14.9997 17.835V25H8.76346L6.38846 16.2675ZM23.236 25H16.9997V17.835L25.6172 16.2675L23.236 25ZM10.9997 11C10.9997 10.7348 11.1051 10.4804 11.2926 10.2929C11.4801 10.1054 11.7345 10 11.9997 10H19.9997C20.2649 10 20.5193 10.1054 20.7068 10.2929C20.8944 10.4804 20.9997 10.7348 20.9997 11C20.9997 11.2652 20.8944 11.5196 20.7068 11.7071C20.5193 11.8946 20.2649 12 19.9997 12H11.9997C11.7345 12 11.4801 11.8946 11.2926 11.7071C11.1051 11.5196 10.9997 11.2652 10.9997 11Z" fill="#222222"/>
</svg>
