<svg width="32" height="32" viewBox="0 0 32 32" fill="none" xmlns="http://www.w3.org/2000/svg">
<path d="M29.6004 23.5113L18.6691 4.52758C18.396 4.06249 18.006 3.67686 17.5379 3.40891C17.0698 3.14096 16.5397 3 16.0004 3C15.461 3 14.931 3.14096 14.4629 3.40891C13.9947 3.67686 13.6048 4.06249 13.3316 4.52758L2.40036 23.5113C2.13753 23.9612 1.99902 24.4728 1.99902 24.9938C1.99902 25.5148 2.13753 26.0265 2.40036 26.4763C2.66993 26.9443 3.05921 27.3321 3.52822 27.5999C3.99723 27.8677 4.52907 28.0058 5.06911 28.0001H26.9316C27.4712 28.0054 28.0026 27.867 28.4711 27.5993C28.9396 27.3315 29.3285 26.944 29.5979 26.4763C29.8611 26.0267 30 25.5152 30.0005 24.9942C30.0009 24.4732 29.8628 23.9614 29.6004 23.5113ZM27.8666 25.4751C27.7713 25.6376 27.6345 25.7719 27.4702 25.8642C27.3059 25.9564 27.12 26.0033 26.9316 26.0001H5.06911C4.88071 26.0033 4.69483 25.9564 4.53053 25.8642C4.36622 25.7719 4.22941 25.6376 4.13411 25.4751C4.04779 25.3289 4.00226 25.1623 4.00226 24.9926C4.00226 24.8228 4.04779 24.6562 4.13411 24.5101L15.0654 5.52633C15.1626 5.36455 15.3 5.23068 15.4643 5.13774C15.6286 5.04479 15.8141 4.99595 16.0029 4.99595C16.1916 4.99595 16.3771 5.04479 16.5414 5.13774C16.7057 5.23068 16.8431 5.36455 16.9404 5.52633L27.8716 24.5101C27.9572 24.6567 28.0018 24.8235 28.001 24.9933C28.0001 25.163 27.9537 25.3294 27.8666 25.4751Z" fill="#222222"/>
</svg>
