<svg width="32" height="32" viewBox="0 0 32 32" fill="none" xmlns="http://www.w3.org/2000/svg">
<path d="M12.0321 4.62513C11.9671 4.36907 12.0061 4.0977 12.1405 3.87028C12.275 3.64287 12.4939 3.47789 12.7496 3.41138C14.8814 2.86157 17.1178 2.86157 19.2496 3.41138C19.4857 3.47183 19.6916 3.61644 19.8286 3.81803C19.9656 4.01962 20.0243 4.26431 19.9936 4.5061C19.9629 4.7479 19.8449 4.97016 19.6619 5.1311C19.4788 5.29205 19.2433 5.38061 18.9996 5.38013C18.9152 5.37969 18.8313 5.36877 18.7496 5.34763C16.9458 4.8819 15.0533 4.8819 13.2496 5.34763C13.1222 5.38028 12.9896 5.38748 12.8595 5.36883C12.7293 5.35017 12.6041 5.30603 12.491 5.23891C12.3779 5.1718 12.2791 5.08305 12.2004 4.97772C12.1217 4.8724 12.0645 4.75258 12.0321 4.62513ZM4.16834 13.7501C4.2949 13.7853 4.42715 13.7952 4.55753 13.7792C4.68791 13.7632 4.81386 13.7217 4.9282 13.6571C5.04254 13.5924 5.14302 13.5059 5.2239 13.4024C5.30478 13.2989 5.36448 13.1805 5.39959 13.0539C5.89782 11.2593 6.84413 9.62093 8.14959 8.29263C8.32051 8.10092 8.41111 7.8508 8.40262 7.5941C8.39412 7.33741 8.28719 7.09382 8.10398 6.91382C7.92077 6.73383 7.67533 6.63123 7.41853 6.62728C7.16172 6.62333 6.91324 6.71835 6.72459 6.89263C5.18232 8.4621 4.06402 10.3976 3.47459 12.5176C3.4392 12.6441 3.42908 12.7763 3.44479 12.9067C3.46051 13.0371 3.50175 13.1631 3.56618 13.2776C3.6306 13.392 3.71693 13.4927 3.82025 13.5737C3.92358 13.6548 4.04186 13.7148 4.16834 13.7501ZM18.7496 26.6526C16.9458 27.1184 15.0533 27.1184 13.2496 26.6526C12.9944 26.5909 12.7251 26.632 12.5 26.767C12.2748 26.9021 12.1118 27.1203 12.0462 27.3745C11.9805 27.6288 12.0175 27.8986 12.1491 28.1258C12.2807 28.353 12.4964 28.5193 12.7496 28.5889C14.8814 29.1387 17.1178 29.1387 19.2496 28.5889C19.5028 28.5193 19.7185 28.353 19.8501 28.1258C19.9817 27.8986 20.0187 27.6288 19.953 27.3745C19.8874 27.1203 19.7244 26.9021 19.4992 26.767C19.274 26.632 19.0048 26.5909 18.7496 26.6526ZM26.5996 13.0564C26.6705 13.312 26.8401 13.5289 27.071 13.6595C27.3019 13.7901 27.5752 13.8236 27.8308 13.7526C28.0864 13.6817 28.3034 13.5121 28.434 13.2812C28.5645 13.0503 28.598 12.777 28.5271 12.5214C27.9373 10.4015 26.819 8.46612 25.2771 6.89638C25.186 6.79904 25.0763 6.72091 24.9545 6.6666C24.8327 6.61228 24.7013 6.58286 24.568 6.58008C24.4347 6.5773 24.3021 6.60121 24.1782 6.6504C24.0543 6.6996 23.9414 6.77308 23.8463 6.86653C23.7512 6.95998 23.6757 7.07151 23.6243 7.19456C23.573 7.31761 23.5467 7.44969 23.5471 7.58304C23.5476 7.71638 23.5746 7.84829 23.6268 7.97101C23.679 8.09373 23.7551 8.20478 23.8508 8.29763C25.1539 9.62637 26.0991 11.2635 26.5983 13.0564H26.5996ZM28.5296 19.4801C27.868 21.8653 26.5372 24.0111 24.6946 25.6639C24.5806 25.7667 24.4445 25.842 24.2968 25.8838C24.149 25.9256 23.9937 25.9328 23.8427 25.9049C23.6917 25.8769 23.5492 25.8146 23.4262 25.7228C23.3032 25.6309 23.203 25.512 23.1333 25.3751C22.4646 24.0576 21.4441 22.951 20.1849 22.178C18.9258 21.405 17.4771 20.9958 15.9996 20.9958C14.5221 20.9958 13.0734 21.405 11.8142 22.178C10.5551 22.951 9.53455 24.0576 8.86584 25.3751C8.79628 25.5118 8.6962 25.6307 8.57335 25.7226C8.45049 25.8144 8.30816 25.8768 8.15735 25.9048C8.00654 25.9328 7.85131 25.9258 7.70365 25.8842C7.556 25.8427 7.41989 25.7677 7.30584 25.6651C5.46314 24.0114 4.13238 21.8648 3.47084 19.4789C3.40006 19.2233 3.43372 18.95 3.56441 18.7192C3.6951 18.4885 3.91211 18.319 4.16772 18.2483C4.42332 18.1775 4.69657 18.2111 4.92736 18.3418C5.15814 18.4725 5.32756 18.6895 5.39834 18.9451C5.84565 20.5612 6.65822 22.0529 7.77334 23.3051C8.8891 21.6868 10.4594 20.4354 12.2858 19.7089C11.3058 18.9374 10.5905 17.8796 10.2395 16.6827C9.88854 15.4857 9.91932 14.2092 10.3276 13.0306C10.7358 11.852 11.5012 10.8299 12.5173 10.1065C13.5335 9.38309 14.7498 8.99436 15.9971 8.99436C17.2444 8.99436 18.4607 9.38309 19.4768 10.1065C20.493 10.8299 21.2584 11.852 21.6666 13.0306C22.0749 14.2092 22.1056 15.4857 21.7547 16.6827C21.4037 17.8796 20.6884 18.9374 19.7083 19.7089C21.5348 20.4354 23.1051 21.6868 24.2208 23.3051C25.336 22.0529 26.1485 20.5612 26.5958 18.9451C26.631 18.8186 26.6907 18.7002 26.7716 18.5967C26.8525 18.4932 26.9529 18.4067 27.0673 18.342C27.1816 18.2773 27.3075 18.2358 27.4379 18.2199C27.5683 18.2039 27.7005 18.2137 27.8271 18.2489C27.9537 18.284 28.0721 18.3437 28.1755 18.4246C28.279 18.5055 28.3656 18.606 28.4302 18.7203C28.4949 18.8346 28.5364 18.9606 28.5523 19.091C28.5683 19.2213 28.5585 19.3536 28.5233 19.4801H28.5296ZM15.9996 19.0001C16.7907 19.0001 17.5641 18.7655 18.2219 18.326C18.8797 17.8865 19.3924 17.2618 19.6951 16.5309C19.9979 15.8 20.0771 14.9957 19.9227 14.2198C19.7684 13.4438 19.3874 12.7311 18.828 12.1717C18.2686 11.6123 17.5559 11.2313 16.78 11.077C16.004 10.9226 15.1998 11.0019 14.4689 11.3046C13.738 11.6074 13.1132 12.12 12.6737 12.7778C12.2342 13.4356 11.9996 14.209 11.9996 15.0001C11.9996 16.061 12.421 17.0784 13.1712 17.8286C13.9213 18.5787 14.9387 19.0001 15.9996 19.0001Z" fill="#222222"/>
</svg>
