<svg width="33" height="32" viewBox="0 0 32 32" fill="none" xmlns="http://www.w3.org/2000/svg">
<path d="M18.0001 19.7101C19.5677 18.7337 20.7747 17.2734 21.4385 15.55C22.1022 13.8265 22.1866 11.9338 21.6788 10.1582C21.1711 8.38254 20.0988 6.82057 18.6243 5.70859C17.1498 4.59661 15.3532 3.99512 13.5064 3.99512C11.6596 3.99512 9.86299 4.59661 8.38846 5.70859C6.91393 6.82057 5.84169 8.38254 5.33393 10.1582C4.82618 11.9338 4.91056 13.8265 5.57429 15.55C6.23802 17.2734 7.445 18.7337 9.01262 19.7101C6.43137 20.5551 4.10887 22.1339 2.24137 24.3564C2.15387 24.4564 2.0872 24.5729 2.04525 24.6991C2.0033 24.8252 1.98691 24.9584 1.99705 25.0909C2.00719 25.2235 2.04365 25.3527 2.1043 25.4709C2.16495 25.5892 2.24857 25.6942 2.35027 25.7798C2.45198 25.8654 2.56972 25.9298 2.69662 25.9694C2.82352 26.0089 2.95704 26.0228 3.08935 26.0101C3.22167 25.9975 3.35014 25.9585 3.46724 25.8957C3.58435 25.8328 3.68774 25.7472 3.77137 25.6439C6.28137 22.6489 9.73887 21.0001 13.5001 21.0001C17.2614 21.0001 20.7189 22.6489 23.2339 25.6439C23.4046 25.8471 23.6491 25.9742 23.9135 25.9971C24.1779 26.0201 24.4407 25.9371 24.6439 25.7664C24.8471 25.5956 24.9742 25.3512 24.9971 25.0867C25.0201 24.8223 24.9371 24.5596 24.7664 24.3564C22.8976 22.1339 20.5751 20.5551 18.0001 19.7101ZM7.00012 12.5001C7.00012 11.2145 7.38134 9.95783 8.09557 8.88891C8.8098 7.81999 9.82496 6.98687 11.0127 6.4949C12.2004 6.00293 13.5073 5.87421 14.7682 6.12501C16.0291 6.37582 17.1873 6.99488 18.0963 7.90392C19.0054 8.81296 19.6244 9.97115 19.8752 11.232C20.126 12.4929 19.9973 13.7998 19.5053 14.9876C19.0134 16.1753 18.1802 17.1904 17.1113 17.9047C16.0424 18.6189 14.7857 19.0001 13.5001 19.0001C11.7768 18.9981 10.1247 18.3127 8.90612 17.0941C7.68756 15.8756 7.00211 14.2234 7.00012 12.5001ZM31.5314 17.8839L30.9489 17.5476C31.0172 17.1858 31.0172 16.8144 30.9489 16.4526L31.5314 16.1164C31.6451 16.0507 31.7448 15.9633 31.8248 15.8591C31.9048 15.7549 31.9634 15.636 31.9975 15.5091C32.0315 15.3822 32.0402 15.2499 32.023 15.1197C32.0059 14.9895 31.9633 14.8639 31.8976 14.7501C31.832 14.6364 31.7445 14.5366 31.6403 14.4567C31.5361 14.3767 31.4172 14.318 31.2904 14.284C31.1635 14.25 31.0312 14.2413 30.9009 14.2585C30.7707 14.2756 30.6451 14.3182 30.5314 14.3839L29.9476 14.7214C29.6683 14.4817 29.347 14.2957 29.0001 14.1726V13.5001C29.0001 13.2349 28.8948 12.9805 28.7072 12.793C28.5197 12.6055 28.2653 12.5001 28.0001 12.5001C27.7349 12.5001 27.4806 12.6055 27.293 12.793C27.1055 12.9805 27.0001 13.2349 27.0001 13.5001V14.1726C26.6532 14.2957 26.332 14.4817 26.0526 14.7214L25.4689 14.3839C25.3551 14.3182 25.2295 14.2756 25.0993 14.2585C24.9691 14.2413 24.8368 14.25 24.7099 14.284C24.583 14.318 24.4641 14.3767 24.3599 14.4567C24.2557 14.5366 24.1683 14.6364 24.1026 14.7501C24.037 14.8639 23.9944 14.9895 23.9772 15.1197C23.9601 15.2499 23.9688 15.3822 24.0028 15.5091C24.0368 15.636 24.0955 15.7549 24.1754 15.8591C24.2554 15.9633 24.3551 16.0507 24.4689 16.1164L25.0514 16.4526C24.983 16.8144 24.983 17.1858 25.0514 17.5476L24.4689 17.8839C24.3551 17.9495 24.2554 18.037 24.1754 18.1411C24.0955 18.2453 24.0368 18.3643 24.0028 18.4911C23.9688 18.618 23.9601 18.7503 23.9772 18.8806C23.9944 19.0108 24.037 19.1364 24.1026 19.2501C24.1683 19.3639 24.2557 19.4636 24.3599 19.5436C24.4641 19.6235 24.583 19.6822 24.7099 19.7162C24.8368 19.7502 24.9691 19.7589 25.0993 19.7418C25.2295 19.7246 25.3551 19.682 25.4689 19.6164L26.0526 19.2789C26.332 19.5185 26.6532 19.7046 27.0001 19.8276V20.5001C27.0001 20.7653 27.1055 21.0197 27.293 21.2072C27.4806 21.3948 27.7349 21.5001 28.0001 21.5001C28.2653 21.5001 28.5197 21.3948 28.7072 21.2072C28.8948 21.0197 29.0001 20.7653 29.0001 20.5001V19.8276C29.347 19.7046 29.6683 19.5185 29.9476 19.2789L30.5314 19.6164C30.6832 19.7045 30.8558 19.7507 31.0314 19.7501C31.2516 19.7502 31.4657 19.6776 31.6404 19.5436C31.8151 19.4096 31.9407 19.2216 31.9977 19.0089C32.0547 18.7962 32.0399 18.5706 31.9556 18.3672C31.8712 18.1638 31.7221 17.9939 31.5314 17.8839ZM27.0001 17.0001C27.0001 16.8023 27.0588 16.609 27.1687 16.4445C27.2785 16.2801 27.4347 16.1519 27.6174 16.0762C27.8002 16.0005 28.0012 15.9807 28.1952 16.0193C28.3892 16.0579 28.5674 16.1532 28.7072 16.293C28.8471 16.4329 28.9423 16.611 28.9809 16.805C29.0195 16.999 28.9997 17.2001 28.924 17.3828C28.8483 17.5655 28.7201 17.7217 28.5557 17.8316C28.3912 17.9415 28.1979 18.0001 28.0001 18.0001C27.7349 18.0001 27.4806 17.8948 27.293 17.7072C27.1055 17.5197 27.0001 17.2653 27.0001 17.0001Z" fill="#222222"/>
</svg>
