<svg width="32" height="32" viewBox="0 0 32 32" fill="none" xmlns="http://www.w3.org/2000/svg">
<path d="M24.9997 9C23.6097 9.00129 22.2515 9.41637 21.0983 10.1924C19.945 10.9684 19.0489 12.0701 18.5242 13.3572C17.9994 14.6444 17.8697 16.0586 18.1516 17.4197C18.4335 18.7808 19.1143 20.0272 20.1072 21H11.8922C13.0513 19.8643 13.7799 18.361 13.9532 16.7475C14.1264 15.1339 13.7337 13.5103 12.8422 12.1543C11.9506 10.7983 10.6156 9.79424 9.06553 9.3138C7.51544 8.83336 5.84659 8.90642 4.34442 9.52049C2.84226 10.1346 1.60012 11.2515 0.830476 12.6802C0.0608345 14.1089 -0.188488 15.7607 0.125155 17.3529C0.438798 18.9451 1.29592 20.3789 2.54991 21.409C3.80389 22.4391 5.37683 23.0015 6.99966 23H24.9997C26.8562 23 28.6367 22.2625 29.9494 20.9497C31.2622 19.637 31.9997 17.8565 31.9997 16C31.9997 14.1435 31.2622 12.363 29.9494 11.0503C28.6367 9.7375 26.8562 9 24.9997 9ZM1.99966 16C1.99966 15.0111 2.2929 14.0444 2.84231 13.2221C3.39172 12.3999 4.17261 11.759 5.08624 11.3806C5.99987 11.0022 7.0052 10.9031 7.97511 11.0961C8.94501 11.289 9.83593 11.7652 10.5352 12.4645C11.2345 13.1637 11.7107 14.0546 11.9036 15.0245C12.0965 15.9945 11.9975 16.9998 11.6191 17.9134C11.2406 18.827 10.5998 19.6079 9.77751 20.1573C8.95526 20.7068 7.98856 21 6.99966 21C5.67358 21 4.40181 20.4732 3.46412 19.5355C2.52644 18.5979 1.99966 17.3261 1.99966 16ZM24.9997 21C24.0108 21 23.0441 20.7068 22.2218 20.1573C21.3996 19.6079 20.7587 18.827 20.3803 17.9134C20.0018 16.9998 19.9028 15.9945 20.0957 15.0245C20.2887 14.0546 20.7649 13.1637 21.4641 12.4645C22.1634 11.7652 23.0543 11.289 24.0242 11.0961C24.9941 10.9031 25.9994 11.0022 26.9131 11.3806C27.8267 11.759 28.6076 12.3999 29.157 13.2221C29.7064 14.0444 29.9997 15.0111 29.9997 16C29.9997 17.3261 29.4729 18.5979 28.5352 19.5355C27.5975 20.4732 26.3257 21 24.9997 21Z" fill="#222222"/>
</svg>
