<svg width="32" height="32" viewBox="0 0 32 32" fill="none" xmlns="http://www.w3.org/2000/svg">
<path d="M29.9047 16.425C27.1547 22.275 24.7297 25 22.2547 25C19.1172 25 17.1635 20.835 15.0947 16.425C13.4622 12.945 11.6122 9 9.74974 9C7.69974 9 5.21099 13.6512 3.90974 16.425C3.79397 16.66 3.59059 16.8402 3.34335 16.9268C3.09611 17.0134 2.82475 16.9996 2.58762 16.8882C2.35049 16.7769 2.16653 16.5769 2.0753 16.3313C1.98406 16.0857 1.99284 15.8142 2.09974 15.575C4.83849 9.725 7.26974 7 9.74974 7C12.8872 7 14.841 11.165 16.9097 15.575C18.5372 19.055 20.3872 23 22.2497 23C24.2997 23 26.7885 18.3488 28.0897 15.575C28.2055 15.34 28.4089 15.1598 28.6561 15.0732C28.9034 14.9866 29.1747 15.0004 29.4119 15.1118C29.649 15.2231 29.833 15.4231 29.9242 15.6687C30.0154 15.9143 30.0066 16.1858 29.8997 16.425H29.9047Z" fill="#222222"/>
</svg>
