<svg width="32" height="32" viewBox="0 0 32 32" fill="none" xmlns="http://www.w3.org/2000/svg">
<path d="M29.8105 16.5849L23.3105 25.5849C23.2179 25.7139 23.0959 25.8191 22.9546 25.8916C22.8133 25.9641 22.6568 26.0019 22.498 26.0019C22.3392 26.0019 22.1826 25.9641 22.0413 25.8916C21.9001 25.8191 21.7781 25.7139 21.6855 25.5849L9.50049 8.7074L3.81174 16.5824C3.73491 16.6891 3.63783 16.7796 3.52602 16.8488C3.41421 16.918 3.28987 16.9645 3.1601 16.9856C3.03033 17.0067 2.89767 17.0021 2.7697 16.9719C2.64172 16.9418 2.52094 16.8867 2.41424 16.8099C2.30754 16.7331 2.21701 16.636 2.14784 16.5242C2.07866 16.4124 2.03218 16.288 2.01106 16.1583C1.98993 16.0285 1.99457 15.8958 2.02471 15.7679C2.05486 15.6399 2.10991 15.5191 2.18674 15.4124L8.68674 6.4124C8.77932 6.28336 8.90131 6.17823 9.0426 6.10571C9.18389 6.03319 9.34042 5.99536 9.49924 5.99536C9.65805 5.99536 9.81458 6.03319 9.95588 6.10571C10.0972 6.17823 10.2192 6.28336 10.3117 6.4124L22.5005 23.2874L28.1892 15.4124C28.2661 15.3057 28.3631 15.2152 28.475 15.146C28.5868 15.0768 28.7111 15.0303 28.8409 15.0092C28.9706 14.9881 29.1033 14.9927 29.2313 15.0229C29.3593 15.053 29.48 15.1081 29.5867 15.1849C29.6934 15.2617 29.784 15.3588 29.8531 15.4706C29.9223 15.5824 29.9688 15.7068 29.9899 15.8365C30.011 15.9663 30.0064 16.099 29.9763 16.2269C29.9461 16.3549 29.8911 16.4757 29.8142 16.5824L29.8105 16.5849Z" fill="#222222"/>
</svg>
