<svg width="32" height="32" viewBox="0 0 32 32" fill="none" xmlns="http://www.w3.org/2000/svg">
<path d="M21 13.0001C21 12.0112 20.7068 11.0445 20.1573 10.2223C19.6079 9.40002 18.827 8.75916 17.9134 8.38072C16.9998 8.00228 15.9945 7.90327 15.0245 8.09619C14.0546 8.28912 13.1637 8.76532 12.4645 9.46458C11.7652 10.1638 11.289 11.0548 11.0961 12.0247C10.9031 12.9946 11.0022 13.9999 11.3806 14.9135C11.759 15.8272 12.3999 16.6081 13.2221 17.1575C14.0444 17.7069 15.0111 18.0001 16 18.0001C17.3261 18.0001 18.5979 17.4733 19.5355 16.5357C20.4732 15.598 21 14.3262 21 13.0001ZM13 13.0001C13 12.4068 13.1759 11.8268 13.5056 11.3334C13.8352 10.8401 14.3038 10.4555 14.8519 10.2285C15.4001 10.0014 16.0033 9.94201 16.5853 10.0578C17.1672 10.1735 17.7018 10.4592 18.1213 10.8788C18.5409 11.2984 18.8266 11.8329 18.9424 12.4148C19.0581 12.9968 18.9987 13.6 18.7716 14.1482C18.5446 14.6963 18.1601 15.1649 17.6667 15.4945C17.1734 15.8242 16.5933 16.0001 16 16.0001C15.2044 16.0001 14.4413 15.684 13.8787 15.1214C13.3161 14.5588 13 13.7958 13 13.0001ZM28 25.0001H17V22.9501C19.5526 22.6936 21.909 21.4658 23.5818 19.5206C25.2547 17.5755 26.1159 15.0619 25.9875 12.4996C25.859 9.93734 24.7507 7.52243 22.8918 5.75434C21.0329 3.98625 18.5655 3.00024 16 3.00024C13.4345 3.00024 10.9671 3.98625 9.1082 5.75434C7.24927 7.52243 6.14098 9.93734 6.01254 12.4996C5.8841 15.0619 6.74535 17.5755 8.41816 19.5206C10.091 21.4658 12.4474 22.6936 15 22.9501V25.0001H4C3.73478 25.0001 3.48043 25.1055 3.29289 25.293C3.10536 25.4805 3 25.7349 3 26.0001C3 26.2653 3.10536 26.5197 3.29289 26.7072C3.48043 26.8948 3.73478 27.0001 4 27.0001H28C28.2652 27.0001 28.5196 26.8948 28.7071 26.7072C28.8946 26.5197 29 26.2653 29 26.0001C29 25.7349 28.8946 25.4805 28.7071 25.293C28.5196 25.1055 28.2652 25.0001 28 25.0001ZM8 13.0001C8 11.4179 8.46919 9.87115 9.34824 8.55556C10.2273 7.23996 11.4767 6.21458 12.9385 5.60908C14.4003 5.00358 16.0089 4.84515 17.5607 5.15384C19.1126 5.46252 20.538 6.22444 21.6569 7.34326C22.7757 8.46208 23.5376 9.88755 23.8463 11.4394C24.155 12.9912 23.9965 14.5998 23.391 16.0616C22.7855 17.5234 21.7602 18.7728 20.4446 19.6519C19.129 20.5309 17.5823 21.0001 16 21.0001C13.879 20.9978 11.8455 20.1542 10.3457 18.6544C8.84591 17.1546 8.00232 15.1211 8 13.0001Z" fill="#222222"/>
</svg>
