<svg width="32" height="32" viewBox="0 0 32 32" fill="none" xmlns="http://www.w3.org/2000/svg">
<path d="M28.708 12.2926C28.8009 12.3855 28.8746 12.4958 28.9249 12.6172C28.9751 12.7386 29.001 12.8687 29.001 13.0001C29.001 13.1315 28.9751 13.2616 28.9249 13.383C28.8746 13.5043 28.8009 13.6146 28.708 13.7076C28.6151 13.8005 28.5048 13.8742 28.3834 13.9245C28.262 13.9747 28.1319 14.0006 28.0005 14.0006C27.8691 14.0006 27.739 13.9747 27.6176 13.9245C27.4962 13.8742 27.3859 13.8005 27.293 13.7076L25.0005 11.4138L22.708 13.7076C22.5203 13.8952 22.2658 14.0006 22.0005 14.0006C21.7351 14.0006 21.4806 13.8952 21.293 13.7076C21.1053 13.5199 20.9999 13.2654 20.9999 13.0001C20.9999 12.7347 21.1053 12.4802 21.293 12.2926L23.5867 10.0001L21.293 7.70756C21.2001 7.61465 21.1264 7.50435 21.0761 7.38296C21.0258 7.26156 20.9999 7.13145 20.9999 7.00006C20.9999 6.86866 21.0258 6.73856 21.0761 6.61716C21.1264 6.49577 21.2001 6.38547 21.293 6.29256C21.4806 6.10492 21.7351 5.9995 22.0005 5.9995C22.1319 5.9995 22.262 6.02538 22.3834 6.07567C22.5048 6.12595 22.6151 6.19965 22.708 6.29256L25.0005 8.58631L27.293 6.29256C27.3859 6.19965 27.4962 6.12595 27.6176 6.07567C27.739 6.02538 27.8691 5.9995 28.0005 5.9995C28.1319 5.9995 28.262 6.02538 28.3834 6.07567C28.5048 6.12595 28.6151 6.19965 28.708 6.29256C28.8009 6.38547 28.8746 6.49577 28.9249 6.61716C28.9751 6.73856 29.001 6.86866 29.001 7.00006C29.001 7.13145 28.9751 7.26156 28.9249 7.38296C28.8746 7.50435 28.8009 7.61465 28.708 7.70756L26.4142 10.0001L28.708 12.2926ZM16.0005 24.0001C15.7038 24.0001 15.4138 24.088 15.1671 24.2529C14.9204 24.4177 14.7282 24.6519 14.6147 24.926C14.5011 25.2001 14.4714 25.5017 14.5293 25.7927C14.5872 26.0837 14.73 26.3509 14.9398 26.5607C15.1496 26.7705 15.4169 26.9134 15.7078 26.9712C15.9988 27.0291 16.3004 26.9994 16.5745 26.8859C16.8486 26.7723 17.0829 26.5801 17.2477 26.3334C17.4125 26.0867 17.5005 25.7967 17.5005 25.5001C17.5005 25.1022 17.3424 24.7207 17.0611 24.4394C16.7798 24.1581 16.3983 24.0001 16.0005 24.0001ZM21.5892 19.8163C19.9649 18.6358 18.0085 18 16.0005 18C13.9925 18 12.0361 18.6358 10.4117 19.8163C10.1972 19.9725 10.0535 20.2074 10.0123 20.4695C9.97103 20.7316 10.0356 20.9993 10.1917 21.2138C10.3479 21.4283 10.5828 21.572 10.8449 21.6132C11.107 21.6545 11.3747 21.59 11.5892 21.4338C12.8711 20.5015 14.4154 19.9994 16.0005 19.9994C17.5855 19.9994 19.1298 20.5015 20.4117 21.4338C20.5179 21.5111 20.6383 21.5668 20.766 21.5976C20.8937 21.6283 21.0263 21.6337 21.156 21.6132C21.2858 21.5928 21.4103 21.547 21.5224 21.4785C21.6344 21.41 21.7319 21.32 21.8092 21.2138C21.8865 21.1076 21.9422 20.9872 21.973 20.8595C22.0038 20.7318 22.0091 20.5993 21.9887 20.4695C21.9682 20.3397 21.9224 20.2153 21.8539 20.1032C21.7854 19.9911 21.6954 19.8936 21.5892 19.8163ZM16.953 8.02256C17.0843 8.0288 17.2156 8.00911 17.3393 7.96462C17.463 7.92012 17.5767 7.8517 17.674 7.76325C17.7713 7.67481 17.8502 7.56806 17.9062 7.44913C17.9622 7.33019 17.9942 7.20138 18.0005 7.07006C18.0067 6.93874 17.987 6.80747 17.9425 6.68376C17.898 6.56005 17.8296 6.44631 17.7412 6.34904C17.6527 6.25177 17.546 6.17287 17.427 6.11686C17.3081 6.06084 17.1793 6.0288 17.048 6.02256C16.7005 6.00631 16.348 5.99756 16.0005 5.99756C11.0288 6.00142 6.21154 7.72466 2.36547 10.8751C2.26395 10.9584 2.17984 11.061 2.11795 11.1769C2.05606 11.2928 2.0176 11.4198 2.00478 11.5505C1.99195 11.6813 2.00501 11.8133 2.0432 11.939C2.08138 12.0647 2.14396 12.1817 2.22735 12.2832C2.31074 12.3847 2.41331 12.4688 2.5292 12.5307C2.6451 12.5926 2.77205 12.6311 2.9028 12.6439C3.16688 12.6698 3.43043 12.5897 3.63547 12.4213C7.12333 9.56462 11.4921 8.00253 16.0005 8.00006C16.3167 8.00006 16.6367 8.00756 16.953 8.02256ZM16.933 14.0313C17.0643 14.0402 17.1961 14.0231 17.3208 13.981C17.4455 13.939 17.5607 13.8727 17.6598 13.7861C17.759 13.6996 17.8401 13.5943 17.8985 13.4764C17.957 13.3584 17.9916 13.2301 18.0005 13.0988C18.0093 12.9675 17.9922 12.8357 17.9502 12.711C17.9081 12.5863 17.8419 12.4711 17.7553 12.3719C17.6687 12.2728 17.5635 12.1917 17.4455 12.1333C17.3276 12.0748 17.1993 12.0402 17.068 12.0313C16.7142 12.0076 16.3555 11.9951 16.0005 11.9951C12.5046 11.9813 9.10888 13.1619 6.37547 15.3413C6.21249 15.4705 6.09383 15.6472 6.03599 15.8469C5.97816 16.0467 5.98403 16.2595 6.0528 16.4557C6.12156 16.652 6.24979 16.8219 6.41964 16.9419C6.5895 17.0618 6.79253 17.1259 7.00047 17.1251C7.22742 17.1266 7.44804 17.0503 7.62547 16.9088C10.0046 15.0141 12.9591 13.988 16.0005 14.0001C16.3105 14.0001 16.6255 14.0101 16.933 14.0313Z" fill="#222222"/>
</svg>
