<svg width="32" height="32" viewBox="0 0 32 32" fill="none" xmlns="http://www.w3.org/2000/svg">
<path d="M25.6661 12.9587L22.9449 3.7175C22.8839 3.51046 22.7576 3.3287 22.5848 3.19937C22.412 3.07005 22.202 3.00011 21.9861 3H10.0136C9.79778 3.00011 9.58778 3.07005 9.41497 3.19937C9.24217 3.3287 9.11584 3.51046 9.05487 3.7175L6.33362 12.9587C5.90667 14.3752 5.88433 15.8828 6.26911 17.3113C6.65389 18.7397 7.43047 20.0322 8.51112 21.0425C10.2887 22.7095 12.5728 23.7343 14.9999 23.9538V29H10.9999C10.7347 29 10.4803 29.1054 10.2928 29.2929C10.1052 29.4804 9.99987 29.7348 9.99987 30C9.99987 30.2652 10.1052 30.5196 10.2928 30.7071C10.4803 30.8946 10.7347 31 10.9999 31H20.9999C21.2651 31 21.5194 30.8946 21.707 30.7071C21.8945 30.5196 21.9999 30.2652 21.9999 30C21.9999 29.7348 21.8945 29.4804 21.707 29.2929C21.5194 29.1054 21.2651 29 20.9999 29H16.9999V23.9538C19.4269 23.7341 21.7109 22.7094 23.4886 21.0425C24.5693 20.0322 25.3458 18.7397 25.7306 17.3113C26.1154 15.8828 26.0931 14.3752 25.6661 12.9587ZM10.7611 5H21.2386L23.7499 13.5238C23.7611 13.5613 23.7711 13.5987 23.7811 13.6362C21.1036 14.5962 18.0886 13.4362 16.4524 12.6075C13.3036 11.0138 10.8036 10.8113 8.95987 11.1163L10.7611 5ZM22.1249 19.5812C20.4644 21.1361 18.2747 22.0012 15.9999 22.0012C13.7251 22.0012 11.5354 21.1361 9.87487 19.5812C9.06622 18.8234 8.48554 17.8547 8.19839 16.7843C7.91125 15.7139 7.92908 14.5845 8.24987 13.5238L8.30612 13.3337C9.80612 12.8263 12.1899 12.6912 15.5474 14.3925C16.9411 15.0988 19.1924 15.9987 21.6011 15.9987C22.4062 16.0027 23.2078 15.8933 23.9824 15.6737C23.8803 17.1645 23.2165 18.561 22.1249 19.5812Z" fill="#222222"/>
</svg>
