<svg width="32" height="32" viewBox="0 0 32 32" fill="none" xmlns="http://www.w3.org/2000/svg">
<path d="M28.3448 8.62495C28.2841 8.47502 28.188 8.34204 28.0646 8.23742C27.9413 8.1328 27.7944 8.05965 27.6366 8.02425C27.4788 7.98886 27.3148 7.99227 27.1586 8.03419C27.0023 8.07611 26.8586 8.15529 26.7398 8.26495L21.7023 12.9137L19.5485 12.4512L19.086 10.2974L23.7348 5.25995C23.8444 5.14106 23.9236 4.99736 23.9655 4.84115C24.0074 4.68494 24.0108 4.5209 23.9754 4.36309C23.9401 4.20527 23.8669 4.0584 23.7623 3.93506C23.6577 3.81173 23.5247 3.71561 23.3748 3.65495C22.0084 3.10224 20.5273 2.89355 19.0614 3.04722C17.5955 3.20089 16.1899 3.71221 14.9679 4.53626C13.7459 5.36031 12.7449 6.47187 12.053 7.77326C11.3612 9.07466 10.9995 10.5261 10.9998 11.9999C10.9981 13.2445 11.2535 14.4761 11.7498 15.6174L4.2235 22.1249C4.20475 22.1399 4.18725 22.1574 4.16975 22.1737C3.41952 22.9239 2.99805 23.9415 2.99805 25.0024C2.99805 25.5278 3.10152 26.048 3.30256 26.5334C3.50361 27.0187 3.79828 27.4597 4.16975 27.8312C4.54123 28.2027 4.98224 28.4973 5.4676 28.6984C5.95295 28.8994 6.47316 29.0029 6.9985 29.0029C8.05949 29.0029 9.07702 28.5814 9.82725 27.8312C9.8435 27.8149 9.861 27.7962 9.876 27.7787L16.3823 20.2499C17.7528 20.8516 19.2517 21.1019 20.7434 20.9782C22.235 20.8545 23.6723 20.3608 24.925 19.5417C26.1778 18.7226 27.2065 17.6039 27.9179 16.2871C28.6294 14.9702 29.0013 13.4967 28.9998 11.9999C29.0017 10.8432 28.7793 9.69701 28.3448 8.62495ZM19.9998 18.9999C18.8161 18.9983 17.6521 18.6973 16.616 18.1249C16.4153 18.0141 16.1825 17.9755 15.9568 18.0158C15.731 18.0561 15.526 18.1727 15.376 18.3462L8.3885 26.4387C8.01038 26.7979 7.50688 26.9953 6.98536 26.9886C6.46383 26.9819 5.96555 26.7718 5.59675 26.403C5.22794 26.0342 5.0178 25.5359 5.01112 25.0143C5.00445 24.4928 5.20176 23.9893 5.561 23.6112L13.6473 16.6249C13.821 16.4749 13.9379 16.2696 13.9781 16.0436C14.0184 15.8176 13.9797 15.5846 13.8685 15.3837C13.231 14.2307 12.9319 12.9213 13.0054 11.6059C13.079 10.2905 13.5222 9.0226 14.2842 7.94789C15.0462 6.87318 16.096 6.03532 17.313 5.53063C18.5299 5.02595 19.8646 4.87494 21.1635 5.09495L17.2635 9.3212C17.155 9.43891 17.0763 9.58096 17.0341 9.7354C16.9919 9.88984 16.9874 10.0522 17.021 10.2087L17.7285 13.4999C17.769 13.6882 17.8629 13.8607 17.9991 13.9969C18.1352 14.133 18.3078 14.227 18.496 14.2674L21.7898 14.9749C21.9463 15.0085 22.1086 15.004 22.263 14.9618C22.4175 14.9196 22.5595 14.841 22.6773 14.7324L26.9035 10.8324C27.072 11.8362 27.0198 12.8646 26.7506 13.8462C26.4813 14.8277 26.0015 15.7388 25.3444 16.5161C24.6874 17.2935 23.8689 17.9183 22.9459 18.3472C22.0229 18.7762 21.0176 18.9989 19.9998 18.9999Z" fill="#222222"/>
</svg>
