<svg width="32" height="32" viewBox="0 0 32 32" fill="none" xmlns="http://www.w3.org/2000/svg">
<path d="M29.0003 27H22.9241C25.5731 25.331 27.5304 22.7617 28.436 19.7646C29.3416 16.7675 29.1346 13.5442 27.8531 10.6876C26.5715 7.831 24.3016 5.53317 21.4609 4.21678C18.6202 2.90038 15.3997 2.65396 12.3917 3.52284C9.38379 4.39171 6.79073 6.31745 5.08949 8.94584C3.38826 11.5742 2.69327 14.7285 3.13235 17.8285C3.57143 20.9284 5.11506 23.7656 7.47931 25.8182C9.84356 27.8707 12.8694 29.0006 16.0003 29H29.0003C29.2656 29 29.5199 28.8946 29.7074 28.7071C29.895 28.5195 30.0003 28.2652 30.0003 28C30.0003 27.7347 29.895 27.4804 29.7074 27.2929C29.5199 27.1053 29.2656 27 29.0003 27ZM16.0003 4.99996C17.9284 4.99785 19.8228 5.50541 21.4916 6.47121C20.2865 7.01613 19.1218 7.64649 18.0066 8.35746C16.2412 7.23174 14.3542 6.30921 12.3816 5.60746C13.545 5.20267 14.7685 4.99728 16.0003 4.99996ZM9.82034 6.90496C12.0617 7.51154 14.2108 8.41851 16.2091 9.60121C15.3552 10.2439 14.5384 10.9346 13.7628 11.67C11.7106 10.5779 9.50277 9.80765 7.21659 9.38621C7.94363 8.42288 8.82312 7.58477 9.82034 6.90496ZM6.09034 11.2275C8.24905 11.5429 10.3444 12.1972 12.2991 13.1662C11.605 13.929 10.9527 14.7289 10.3453 15.5625C8.69966 14.8238 6.95143 14.3391 5.16034 14.125C5.33381 13.1205 5.64684 12.1452 6.09034 11.2275ZM5.00034 16.125C6.44687 16.3038 7.86161 16.6824 9.20409 17.25C8.25639 18.7714 7.45808 20.381 6.82034 22.0562C5.65396 20.2962 5.02186 18.2363 5.00034 16.125ZM8.30284 23.8512C9.50346 20.2492 11.4735 16.9515 14.0762 14.1871C16.679 11.4227 19.8521 9.25772 23.3753 7.84246C24.1647 8.55667 24.8475 9.38049 25.4028 10.2887C21.92 11.5072 18.7816 13.5461 16.253 16.2334C13.7244 18.9206 11.8799 22.177 10.8753 25.7275C9.93234 25.2292 9.06631 24.5972 8.30409 23.8512H8.30284ZM15.7078 27C14.6966 26.9716 13.6942 26.8033 12.7291 26.5C13.6305 23.17 15.3392 20.1137 17.7037 17.6017C20.0683 15.0897 23.0159 13.1996 26.2853 12.0987C26.6448 13.0441 26.8711 14.0348 26.9578 15.0425C24.2718 16.006 21.8521 17.5918 19.8968 19.6701C17.9414 21.7484 16.5059 24.2602 15.7078 27ZM26.9353 17.195C26.6727 19.5713 25.6447 21.7978 24.0062 23.5389C22.3677 25.28 20.2076 26.4412 17.8516 26.8475C18.5923 24.6847 19.7856 22.7047 21.352 21.0396C22.9184 19.3745 24.8218 18.0625 26.9353 17.1912V17.195Z" fill="#222222"/>
</svg>
