<svg width="32" height="32" viewBox="0 0 32 32" fill="none" xmlns="http://www.w3.org/2000/svg">
<path d="M32 16.0002C32.0005 16.3329 31.9167 16.6603 31.7565 16.9519C31.5963 17.2435 31.3649 17.4897 31.0837 17.6677L20.06 24.6877C19.76 24.8795 19.4141 24.9872 19.0582 24.9997C18.7024 25.0121 18.3498 24.9288 18.0371 24.7584C17.7245 24.5881 17.4633 24.3369 17.2809 24.0311C17.0984 23.7254 17.0014 23.3762 17 23.0202V18.3577L7.06 24.6877C6.76002 24.8795 6.41406 24.9872 6.05823 24.9997C5.7024 25.0121 5.34976 24.9288 5.03712 24.7584C4.72448 24.5881 4.46331 24.3369 4.28088 24.0311C4.09844 23.7254 4.00144 23.3762 4 23.0202V8.9802C4.00144 8.62415 4.09844 8.27503 4.28088 7.96927C4.46331 7.66351 4.72448 7.41233 5.03712 7.24197C5.34976 7.0716 5.7024 6.98828 6.05823 7.00073C6.41406 7.01317 6.76002 7.12091 7.06 7.3127L17 13.6427V8.9802C17.0014 8.62415 17.0984 8.27503 17.2809 7.96927C17.4633 7.66351 17.7245 7.41233 18.0371 7.24197C18.3498 7.0716 18.7024 6.98828 19.0582 7.00073C19.4141 7.01317 19.76 7.12091 20.06 7.3127L31.0837 14.3327C31.3649 14.5107 31.5963 14.7569 31.7565 15.0485C31.9167 15.3401 32.0005 15.6675 32 16.0002Z" fill="#222222"/>
</svg>
