<svg width="32" height="32" viewBox="0 0 32 32" fill="none" xmlns="http://www.w3.org/2000/svg">
<path d="M26.6723 28.7402C26.476 28.9185 26.2169 29.0116 25.952 28.9989C25.6871 28.9863 25.4381 28.8689 25.2598 28.6727L21.3948 24.4227C20.0726 25.275 18.5656 25.7983 16.9998 25.9489V30.0002C16.9998 30.2654 16.8944 30.5198 16.7069 30.7073C16.5193 30.8948 16.265 31.0002 15.9998 31.0002C15.7345 31.0002 15.4802 30.8948 15.2926 30.7073C15.1051 30.5198 14.9998 30.2654 14.9998 30.0002V25.9502C12.5343 25.6993 10.2495 24.5431 8.58705 22.7053C6.92465 20.8674 6.0028 18.4784 5.99975 16.0002C5.99975 15.735 6.10511 15.4806 6.29264 15.2931C6.48018 15.1055 6.73453 15.0002 6.99975 15.0002C7.26497 15.0002 7.51932 15.1055 7.70686 15.2931C7.89439 15.4806 7.99975 15.735 7.99975 16.0002C8.00207 18.1212 8.84566 20.1547 10.3455 21.6545C11.8452 23.1543 13.8787 23.9979 15.9998 24.0002C17.4146 24.0044 18.8048 23.6297 20.026 22.9152L18.6385 21.3902C17.7236 21.8382 16.7098 22.0459 15.6925 21.9937C14.6752 21.9415 13.6879 21.6312 12.8237 21.092C11.9594 20.5528 11.2467 19.8024 10.7527 18.9116C10.2586 18.0208 9.99951 17.0188 9.99975 16.0002V11.8864L5.25975 6.67269C5.08512 6.47584 4.99512 6.2181 5.00926 5.95534C5.02339 5.69258 5.14053 5.44598 5.33527 5.26901C5.53 5.09203 5.78665 4.99895 6.04956 5.00993C6.31247 5.02092 6.56045 5.13509 6.73975 5.32769L26.7397 27.3277C26.9181 27.524 27.0112 27.783 26.9985 28.0479C26.9858 28.3128 26.8685 28.5618 26.6723 28.7402ZM23.6485 20.8489C23.7849 20.9165 23.935 20.9516 24.0872 20.9514C24.2746 20.9515 24.4582 20.8989 24.6171 20.7996C24.776 20.7004 24.9038 20.5585 24.986 20.3902C25.657 19.0243 26.0039 17.522 25.9998 16.0002C25.9998 15.735 25.8944 15.4806 25.7069 15.2931C25.5193 15.1055 25.265 15.0002 24.9998 15.0002C24.7345 15.0002 24.4802 15.1055 24.2926 15.2931C24.1051 15.4806 23.9998 15.735 23.9998 16.0002C24.0033 17.2173 23.7261 18.4189 23.1898 19.5114C23.0733 19.7496 23.0562 20.0244 23.1422 20.2752C23.2282 20.526 23.4103 20.7324 23.6485 20.8489ZM20.2323 17.1964C20.3622 17.3395 20.5308 17.4418 20.7176 17.491C20.9045 17.5402 21.1016 17.5342 21.2851 17.4738C21.4687 17.4134 21.6308 17.3011 21.7518 17.1505C21.8729 16.9999 21.9477 16.8174 21.9673 16.6252C21.9886 16.4175 21.9995 16.2089 21.9998 16.0002V8.00019C21.9982 6.62212 21.5224 5.28658 20.6522 4.21803C19.782 3.14948 18.5704 2.41304 17.2212 2.13249C15.872 1.85195 14.4674 2.04439 13.2433 2.67748C12.0193 3.31057 11.0505 4.34571 10.4998 5.60894C10.4229 5.78551 10.3986 5.98053 10.4298 6.17056C10.4611 6.3606 10.5466 6.53756 10.676 6.68019L20.2323 17.1964Z" fill="#222222"/>
</svg>
