<svg width="32" height="32" viewBox="0 0 32 32" fill="none" xmlns="http://www.w3.org/2000/svg">
<path d="M28 5H22C21.7348 5 21.4804 5.10536 21.2929 5.29289C21.1054 5.48043 21 5.73478 21 6C21 6.26522 21.1054 6.51957 21.2929 6.70711C21.4804 6.89464 21.7348 7 22 7H28C28.2652 7 28.5196 6.89464 28.7071 6.70711C28.8946 6.51957 29 6.26522 29 6C29 5.73478 28.8946 5.48043 28.7071 5.29289C28.5196 5.10536 28.2652 5 28 5Z" fill="#222222"/>
<path d="M20.266 9.56266C19.3875 9.14933 18.6921 8.42661 18.313 7.53274C17.9338 6.63887 17.8975 5.6366 18.211 4.71766C18.2405 4.6331 18.2467 4.54219 18.229 4.45442C18.2113 4.36665 18.1704 4.28525 18.1105 4.2187C18.0506 4.15216 17.9739 4.10292 17.8885 4.07613C17.803 4.04934 17.712 4.04598 17.6248 4.06641L9.75729 6.03141C9.54116 6.08543 9.34926 6.21008 9.21203 6.38558C9.0748 6.56108 9.0001 6.77738 8.99979 7.00016V20.7627C8.41384 20.3699 7.74375 20.1203 7.04361 20.0342C6.34347 19.9481 5.63288 20.0277 4.9692 20.2668C4.30551 20.5058 3.70733 20.8976 3.22291 21.4104C2.7385 21.9232 2.38143 22.5427 2.18051 23.2189C1.9796 23.8951 1.94048 24.6091 2.0663 25.3032C2.19212 25.9973 2.47936 26.6521 2.90484 27.2147C3.33032 27.7774 3.88213 28.2322 4.51571 28.5423C5.1493 28.8524 5.84693 29.0093 6.55229 29.0002C9.03104 28.9714 10.9998 26.8914 10.9998 24.4127V12.7814L20.1573 10.4927C20.2561 10.4682 20.3451 10.4142 20.4124 10.3379C20.4797 10.2615 20.5221 10.1664 20.5339 10.0653C20.5457 9.96424 20.5264 9.86195 20.4786 9.77212C20.4307 9.6823 20.3566 9.60922 20.266 9.56266Z" fill="#222222"/>
<path d="M26.4998 10H25.4998C25.3672 10 25.24 10.0527 25.1462 10.1464C25.0525 10.2402 24.9998 10.3674 24.9998 10.5V16.7625C24.4138 16.3697 23.7438 16.1202 23.0436 16.034C22.3435 15.9479 21.6329 16.0276 20.9692 16.2666C20.3055 16.5057 19.7073 16.8974 19.2229 17.4102C18.7385 17.923 18.3814 18.5425 18.1805 19.2187C17.9796 19.8949 17.9405 20.6089 18.0663 21.303C18.1921 21.9971 18.4794 22.6519 18.9048 23.2146C19.3303 23.7772 19.8821 24.232 20.5157 24.5421C21.1493 24.8523 21.8469 25.0091 22.5523 25C25.031 24.9712 26.9998 22.8925 26.9998 20.4125V10.5C26.9998 10.3674 26.9471 10.2402 26.8533 10.1464C26.7596 10.0527 26.6324 10 26.4998 10Z" fill="#222222"/>
</svg>
