<svg width="32" height="32" viewBox="0 0 32 32" fill="none" xmlns="http://www.w3.org/2000/svg">
<path d="M29.0004 8.9802V23.0202C28.9986 23.3761 28.9013 23.725 28.7188 24.0305C28.5363 24.336 28.2752 24.587 27.9627 24.7573C27.6502 24.9275 27.2977 25.0109 26.942 24.9987C26.5864 24.9865 26.2405 24.8791 25.9404 24.6877L16.0004 18.3577V23.0202C15.9986 23.3761 15.9013 23.725 15.7188 24.0305C15.5363 24.336 15.2752 24.587 14.9627 24.7573C14.6502 24.9275 14.2977 25.0109 13.942 24.9987C13.5864 24.9865 13.2405 24.8791 12.9404 24.6877L1.91667 17.6677C1.63581 17.4894 1.40452 17.2431 1.24427 16.9516C1.08402 16.6601 1 16.3328 1 16.0002C1 15.6675 1.08402 15.3403 1.24427 15.0488C1.40452 14.7573 1.63581 14.511 1.91667 14.3327L12.9404 7.3127C13.2404 7.12091 13.5864 7.01317 13.9422 7.00073C14.298 6.98828 14.6507 7.0716 14.9633 7.24197C15.2759 7.41233 15.5371 7.66351 15.7195 7.96927C15.902 8.27503 15.999 8.62415 16.0004 8.9802V13.6427L25.9404 7.3127C26.2404 7.12091 26.5864 7.01317 26.9422 7.00073C27.298 6.98828 27.6507 7.0716 27.9633 7.24197C28.2759 7.41233 28.5371 7.66351 28.7195 7.96927C28.902 8.27503 28.999 8.62415 29.0004 8.9802Z" fill="#222222"/>
</svg>
