<svg width="32" height="32" viewBox="0 0 32 32" fill="none" xmlns="http://www.w3.org/2000/svg">
<path d="M26.9996 6.00007V11.0001C26.9997 11.198 26.9412 11.3915 26.8313 11.556C26.7214 11.7206 26.5652 11.8489 26.3824 11.9247C26.1995 12.0004 25.9984 12.0202 25.8043 11.9816C25.6102 11.9429 25.4319 11.8476 25.2921 11.7076L23.4996 9.91382L19.5346 13.8751C19.3433 14.0389 19.0972 14.1245 18.8455 14.1148C18.5939 14.1051 18.3551 14.0007 18.177 13.8226C17.9989 13.6445 17.8946 13.4058 17.8849 13.1541C17.8751 12.9024 17.9608 12.6564 18.1246 12.4651L22.0858 8.50007L20.2921 6.70757C20.1521 6.56771 20.0567 6.38946 20.0181 6.19537C19.9794 6.00129 19.9992 5.8001 20.075 5.61728C20.1507 5.43445 20.279 5.27822 20.4436 5.16835C20.6082 5.05848 20.8017 4.99991 20.9996 5.00007H25.9996C26.2648 5.00007 26.5192 5.10542 26.7067 5.29296C26.8942 5.4805 26.9996 5.73485 26.9996 6.00007ZM26.3821 20.0763C26.1994 20.0005 25.9983 19.9806 25.8043 20.0191C25.6103 20.0576 25.432 20.1528 25.2921 20.2926L23.4996 22.0863L6.70708 5.29257C6.51944 5.10493 6.26494 4.99951 5.99958 4.99951C5.73422 4.99951 5.47972 5.10493 5.29208 5.29257C5.10444 5.48021 4.99902 5.7347 4.99902 6.00007C4.99902 6.26543 5.10444 6.51993 5.29208 6.70757L22.0858 23.5001L20.2921 25.2926C20.1521 25.4324 20.0567 25.6107 20.0181 25.8048C19.9794 25.9988 19.9992 26.2 20.075 26.3829C20.1507 26.5657 20.279 26.7219 20.4436 26.8318C20.6082 26.9417 20.8017 27.0002 20.9996 27.0001H25.9996C26.2648 27.0001 26.5192 26.8947 26.7067 26.7072C26.8942 26.5196 26.9996 26.2653 26.9996 26.0001V21.0001C26.9995 20.8023 26.9409 20.609 26.8309 20.4445C26.721 20.2801 26.5648 20.152 26.3821 20.0763ZM12.4646 18.1251L5.29208 25.2926C5.10444 25.4802 4.99902 25.7347 4.99902 26.0001C4.99902 26.2654 5.10444 26.5199 5.29208 26.7076C5.47972 26.8952 5.73422 27.0006 5.99958 27.0006C6.26494 27.0006 6.51944 26.8952 6.70708 26.7076L13.8746 19.5351C14.0384 19.3438 14.124 19.0977 14.1143 18.846C14.1046 18.5943 14.0002 18.3556 13.8221 18.1775C13.644 17.9994 13.4053 17.8951 13.1536 17.8854C12.902 17.8756 12.6559 17.9612 12.4646 18.1251Z" fill="#222222"/>
</svg>
