<svg width="32" height="32" viewBox="0 0 32 32" fill="none" xmlns="http://www.w3.org/2000/svg">
<path d="M21 4.00023V28.0002C20.9999 28.1873 20.9472 28.3707 20.8481 28.5294C20.7489 28.688 20.6072 28.8157 20.4391 28.8979C20.271 28.9801 20.0832 29.0134 19.8971 28.9942C19.711 28.9749 19.534 28.9038 19.3862 28.789L10.6562 22.0002H5C4.46957 22.0002 3.96086 21.7895 3.58579 21.4144C3.21071 21.0394 3 20.5307 3 20.0002V12.0002C3 11.4698 3.21071 10.9611 3.58579 10.586C3.96086 10.2109 4.46957 10.0002 5 10.0002H10.6562L19.3862 3.21148C19.534 3.09663 19.711 3.02554 19.8971 3.00629C20.0832 2.98703 20.271 3.02038 20.4391 3.10255C20.6072 3.18472 20.7489 3.3124 20.8481 3.47109C20.9472 3.62978 20.9999 3.81311 21 4.00023ZM25 12.0002C24.7348 12.0002 24.4804 12.1056 24.2929 12.2931C24.1054 12.4807 24 12.735 24 13.0002V19.0002C24 19.2654 24.1054 19.5198 24.2929 19.7073C24.4804 19.8949 24.7348 20.0002 25 20.0002C25.2652 20.0002 25.5196 19.8949 25.7071 19.7073C25.8946 19.5198 26 19.2654 26 19.0002V13.0002C26 12.735 25.8946 12.4807 25.7071 12.2931C25.5196 12.1056 25.2652 12.0002 25 12.0002Z" fill="#222222"/>
</svg>
