<svg width="32" height="32" viewBox="0 0 32 32" fill="none" xmlns="http://www.w3.org/2000/svg">
<path d="M20 4.03149V27.9615C20.003 28.1406 19.9596 28.3174 19.874 28.4747C19.7883 28.632 19.6633 28.7644 19.5112 28.859C19.3384 28.9618 19.1386 29.0101 18.9379 28.9976C18.7373 28.9851 18.545 28.9124 18.3862 28.789L10.19 22.414C10.1306 22.367 10.0826 22.3072 10.0497 22.239C10.0168 22.1708 9.99978 22.096 10 22.0202V9.98024C10.0002 9.9042 10.0178 9.82921 10.0514 9.76098C10.0849 9.69274 10.1336 9.63307 10.1938 9.58649L18.39 3.21149C18.5696 3.0723 18.7913 2.99845 19.0185 3.00208C19.2457 3.00572 19.4649 3.08663 19.64 3.23149C19.755 3.33028 19.8469 3.45316 19.9091 3.59141C19.9713 3.72966 20.0023 3.87991 20 4.03149ZM7.5 10.0002H4C3.46957 10.0002 2.96086 10.211 2.58579 10.586C2.21071 10.9611 2 11.4698 2 12.0002V20.0002C2 20.5307 2.21071 21.0394 2.58579 21.4145C2.96086 21.7895 3.46957 22.0002 4 22.0002H7.5C7.63261 22.0002 7.75979 21.9476 7.85355 21.8538C7.94732 21.76 8 21.6329 8 21.5002V10.5002C8 10.3676 7.94732 10.2405 7.85355 10.1467C7.75979 10.0529 7.63261 10.0002 7.5 10.0002ZM24.75 12.6952C24.6639 12.5944 24.5585 12.5117 24.4401 12.4519C24.3217 12.3921 24.1925 12.3565 24.0602 12.3472C23.9279 12.3378 23.795 12.3548 23.6694 12.3973C23.5437 12.4398 23.4277 12.5069 23.3282 12.5946C23.2287 12.6823 23.1477 12.7889 23.0898 12.9083C23.0319 13.0276 22.9984 13.1573 22.9911 13.2898C22.9838 13.4222 23.0029 13.5548 23.0474 13.6798C23.0918 13.8048 23.1607 13.9196 23.25 14.0177C23.7323 14.5655 23.9984 15.2704 23.9984 16.0002C23.9984 16.7301 23.7323 17.435 23.25 17.9827C23.1607 18.0808 23.0918 18.1957 23.0474 18.3207C23.0029 18.4457 22.9838 18.5783 22.9911 18.7107C22.9984 18.8432 23.0319 18.9728 23.0898 19.0922C23.1477 19.2115 23.2287 19.3182 23.3282 19.4059C23.4277 19.4936 23.5437 19.5607 23.6694 19.6032C23.795 19.6456 23.9279 19.6627 24.0602 19.6533C24.1925 19.6439 24.3217 19.6083 24.4401 19.5486C24.5585 19.4888 24.6639 19.4061 24.75 19.3052C25.5543 18.3921 25.9981 17.2171 25.9981 16.0002C25.9981 14.7834 25.5543 13.6083 24.75 12.6952Z" fill="#222222"/>
</svg>
