<svg width="32" height="32" viewBox="0 0 32 32" fill="none" xmlns="http://www.w3.org/2000/svg">
<path d="M6.74 4.32731C6.64992 4.22823 6.54087 4.14825 6.4193 4.09212C6.29773 4.03598 6.16612 4.00483 6.03229 4.00052C5.89845 3.99621 5.76511 4.01881 5.64018 4.06701C5.51525 4.1152 5.40127 4.18799 5.305 4.28106C5.11941 4.47026 5.014 4.72379 5.01074 4.9888C5.00748 5.25381 5.10662 5.50985 5.2875 5.70356L5.5575 5.99981H4C3.46957 5.99981 2.96086 6.21053 2.58579 6.5856C2.21071 6.96067 2 7.46938 2 7.99981V23.9998C2 24.5302 2.21071 25.039 2.58579 25.414C2.96086 25.7891 3.46957 25.9998 4 25.9998H23.74L25.26 27.6723C25.3486 27.7698 25.4556 27.8488 25.5749 27.9047C25.6941 27.9607 25.8233 27.9926 25.9549 27.9985C26.0865 28.0044 26.218 27.9843 26.3417 27.9393C26.4655 27.8942 26.5792 27.8252 26.6763 27.7361C26.8671 27.5475 26.9776 27.2924 26.9846 27.0242C26.9915 26.756 26.8945 26.4956 26.7138 26.2973L6.74 4.32731ZM13 15.9998H14.6488L16.4662 17.9998H13.0337C12.7753 18.0036 12.5251 17.9094 12.3333 17.7362C12.1415 17.563 12.0224 17.3235 12 17.0661C11.9909 16.9293 12.0101 16.7921 12.0562 16.663C12.1024 16.5339 12.1746 16.4157 12.2684 16.3157C12.3622 16.2157 12.4755 16.1361 12.6014 16.0817C12.7272 16.0274 12.8629 15.9995 13 15.9998ZM7 15.9998H9C9.13709 15.9995 9.27277 16.0274 9.39863 16.0817C9.52448 16.1361 9.63782 16.2157 9.7316 16.3157C9.82538 16.4157 9.8976 16.5339 9.94377 16.663C9.98994 16.7921 10.0091 16.9293 10 17.0661C9.9776 17.3235 9.85852 17.563 9.66673 17.7362C9.47494 17.9094 9.22467 18.0036 8.96625 17.9998H7.03375C6.77533 18.0036 6.52506 17.9094 6.33327 17.7362C6.14148 17.563 6.0224 17.3235 6 17.0661C5.99092 16.9293 6.01006 16.7921 6.05623 16.663C6.1024 16.5339 6.17462 16.4157 6.2684 16.3157C6.36218 16.2157 6.47552 16.1361 6.60137 16.0817C6.72723 16.0274 6.86291 15.9995 7 15.9998ZM19 21.9998H7.03375C6.77533 22.0036 6.52506 21.9094 6.33327 21.7362C6.14148 21.563 6.0224 21.3235 6 21.0661C5.99092 20.9293 6.01006 20.7921 6.05623 20.663C6.1024 20.5339 6.17462 20.4157 6.2684 20.3157C6.36218 20.2157 6.47552 20.1361 6.60137 20.0817C6.72723 20.0274 6.86291 19.9995 7 19.9998H18.285L19.7725 21.6361C19.6786 21.75 19.5606 21.8416 19.427 21.9045C19.2935 21.9674 19.1476 22 19 21.9998ZM30 7.99981V23.9998C29.9997 24.2768 29.9419 24.5507 29.8302 24.8042C29.7186 25.0577 29.5555 25.2852 29.3512 25.4723C29.3028 25.5177 29.2457 25.5529 29.1835 25.5759C29.1212 25.599 29.055 25.6095 28.9887 25.6067C28.9224 25.6039 28.8573 25.5879 28.7972 25.5597C28.7371 25.5315 28.6833 25.4916 28.6388 25.4423L21.875 17.9998H25C25.1371 18.0001 25.2728 17.9722 25.3986 17.9179C25.5245 17.8635 25.6378 17.7839 25.7316 17.6839C25.8254 17.5839 25.8976 17.4657 25.9438 17.3366C25.9899 17.2075 26.0091 17.0703 26 16.9336C25.9779 16.6764 25.8593 16.4372 25.668 16.2639C25.4766 16.0907 25.2268 15.9963 24.9688 15.9998H20.0562L11.7238 6.83606C11.6583 6.76407 11.6153 6.67455 11.6 6.57848C11.5847 6.48241 11.5977 6.38397 11.6375 6.2952C11.6774 6.20644 11.7422 6.13121 11.8241 6.07874C11.906 6.02627 12.0015 5.99884 12.0988 5.99981H28C28.5304 5.99981 29.0391 6.21053 29.4142 6.5856C29.7893 6.96067 30 7.46938 30 7.99981Z" fill="#222222"/>
</svg>
