<svg width="32" height="32" viewBox="0 0 32 32" fill="none" xmlns="http://www.w3.org/2000/svg">
<path d="M20.5004 8.99977C19.6448 8.99925 18.7929 9.11403 17.9679 9.34102C17.6422 8.80965 17.2466 8.32447 16.7917 7.89852L17.9804 6.20227C18.0558 6.09467 18.1092 5.97328 18.1376 5.84503C18.166 5.71679 18.1689 5.5842 18.1461 5.45484C18.1233 5.32547 18.0753 5.20187 18.0047 5.09108C17.9341 4.98029 17.8424 4.88449 17.7348 4.80914C17.6272 4.7338 17.5058 4.68038 17.3776 4.65195C17.2493 4.62352 17.1167 4.62062 16.9874 4.64343C16.858 4.66624 16.7344 4.7143 16.6236 4.78488C16.5128 4.85546 16.417 4.94717 16.3417 5.05477L15.1529 6.74977C14.1754 6.25619 13.0955 5.99928 12.0004 5.99977C11.9267 5.99977 11.8554 5.99977 11.7829 5.99977L11.4217 3.96352C11.4027 3.83084 11.3573 3.70332 11.2881 3.58855C11.2188 3.47378 11.1273 3.37409 11.0188 3.29541C10.9102 3.21674 10.787 3.16067 10.6564 3.13055C10.5258 3.10044 10.3905 3.09688 10.2585 3.1201C10.1265 3.14331 10.0005 3.19283 9.88803 3.2657C9.77554 3.33857 9.67885 3.43331 9.6037 3.54428C9.52855 3.65526 9.47648 3.78021 9.45058 3.91171C9.42467 4.04322 9.42547 4.17858 9.45292 4.30977L9.81292 6.35227C8.70386 6.71909 7.70401 7.35716 6.90417 8.20852L5.20167 7.01727C5.09415 6.94007 4.97238 6.88499 4.84341 6.85521C4.71444 6.82543 4.58085 6.82155 4.45037 6.84379C4.31989 6.86604 4.19513 6.91396 4.08331 6.98479C3.9715 7.05562 3.87485 7.14794 3.79899 7.2564C3.72313 7.36486 3.66955 7.48731 3.64136 7.61663C3.61318 7.74595 3.61095 7.87959 3.6348 8.00978C3.65865 8.13998 3.70811 8.26414 3.78032 8.37507C3.85252 8.486 3.94603 8.5815 4.05542 8.65602L5.75042 9.84602C5.25509 10.8234 4.99809 11.9041 5.00042 12.9998C5.00042 13.071 5.00042 13.1435 5.00042 13.2148L2.96417 13.5748C2.7177 13.6179 2.49638 13.752 2.34388 13.9503C2.19139 14.1487 2.11881 14.3971 2.14048 14.6463C2.16214 14.8956 2.27647 15.1277 2.4609 15.2968C2.64532 15.4659 2.88645 15.5598 3.13667 15.5598C3.1949 15.5597 3.25303 15.5547 3.31042 15.5448L5.35042 15.1848C5.52966 15.7305 5.77569 16.2519 6.08292 16.7373C5.1264 17.6257 4.45958 18.7816 4.16929 20.0544C3.879 21.3272 3.97869 22.6579 4.45538 23.8732C4.93207 25.0886 5.76367 26.1322 6.84188 26.8682C7.92009 27.6042 9.19494 27.9985 10.5004 27.9998H20.5004C23.02 27.9998 25.4363 26.9989 27.2179 25.2173C28.9995 23.4357 30.0004 21.0193 30.0004 18.4998C30.0004 15.9802 28.9995 13.5639 27.2179 11.7823C25.4363 10.0007 23.02 8.99977 20.5004 8.99977ZM11.6154 15.0948C10.3008 14.8679 8.9483 15.0498 7.74042 15.616C7.07203 14.512 6.8564 13.1924 7.13861 11.9331C7.42083 10.6738 8.17904 9.57236 9.25464 8.85921C10.3302 8.14607 11.6399 7.87644 12.9098 8.10672C14.1796 8.337 15.3112 9.04935 16.0679 10.0948C14.028 11.1683 12.4462 12.9446 11.6154 15.0948Z" fill="#222222"/>
</svg>
