<svg width="32" height="32" viewBox="0 0 32 32" fill="none" xmlns="http://www.w3.org/2000/svg">
<path d="M26.4796 16.8513L19.0058 24.4101C18.8228 24.5953 18.6048 24.7424 18.3644 24.8429C18.1241 24.9433 17.8663 24.995 17.6058 24.9951H9.41458L5.70708 28.7076C5.61417 28.8005 5.50387 28.8742 5.38248 28.9245C5.26108 28.9748 5.13097 29.0006 4.99958 29.0006C4.86818 29.0006 4.73808 28.9748 4.61668 28.9245C4.49529 28.8742 4.38499 28.8005 4.29208 28.7076C4.19917 28.6147 4.12547 28.5044 4.07519 28.383C4.0249 28.2616 3.99902 28.1315 3.99902 28.0001C3.99902 27.8687 4.0249 27.7386 4.07519 27.6172C4.12547 27.4958 4.19917 27.3855 4.29208 27.2926L7.11583 24.4701L15.5871 16.0001H26.1246C26.2231 16.0002 26.3194 16.0295 26.4014 16.0842C26.4833 16.139 26.5473 16.2167 26.5852 16.3076C26.6231 16.3986 26.6334 16.4987 26.6146 16.5954C26.5958 16.6922 26.5488 16.7812 26.4796 16.8513ZM27.0871 3.82133C25.5527 2.55862 23.6033 1.91216 21.6185 2.00782C19.6336 2.10348 17.7554 2.93441 16.3496 4.33883L15.1496 5.52383C15.0551 5.61645 15.0011 5.74276 14.9996 5.87508V13.7501L21.8746 6.87508C22.0636 6.69546 22.3154 6.5968 22.5762 6.60014C22.8369 6.60348 23.0861 6.70855 23.2705 6.89295C23.4549 7.07735 23.5599 7.32649 23.5633 7.58726C23.5666 7.84802 23.468 8.09977 23.2883 8.28883L17.5883 14.0001H28.6358C28.7276 14.0003 28.8177 13.9752 28.8962 13.9276C28.9747 13.8799 29.0386 13.8116 29.0808 13.7301C29.9377 12.1008 30.2073 10.2262 29.8441 8.42154C29.481 6.61688 28.5074 4.99237 27.0871 3.82133ZM7.85333 20.9038L12.9996 15.7576V8.84508C12.9994 8.74654 12.9701 8.65024 12.9154 8.56828C12.8607 8.48633 12.783 8.42237 12.692 8.38444C12.6011 8.34651 12.501 8.3363 12.4042 8.3551C12.3075 8.37389 12.2185 8.42085 12.1483 8.49008L7.58583 13.0001C7.39953 13.1853 7.25179 13.4056 7.15117 13.6483C7.05054 13.8909 6.99902 14.1511 6.99958 14.4138V20.5501C6.9995 20.649 7.02878 20.7458 7.08372 20.8281C7.13865 20.9104 7.21677 20.9745 7.30818 21.0124C7.3996 21.0503 7.50019 21.0602 7.59723 21.0408C7.69428 21.0215 7.7834 20.9738 7.85333 20.9038Z" fill="#222222"/>
</svg>
