<svg width="32" height="32" viewBox="0 0 32 32" fill="none" xmlns="http://www.w3.org/2000/svg">
<path d="M24.9098 18.7249C24.782 17.8233 24.5173 16.9465 24.1248 16.1249C26.4998 11.3824 27.9311 5.08985 26.2923 2.37485C26.0473 1.95036 25.6933 1.59905 25.267 1.3573C24.8406 1.11555 24.3574 0.992146 23.8673 0.999852C22.1024 0.999852 20.6173 2.4861 19.3123 5.54485C18.5348 7.37235 17.9561 9.45985 17.5623 11.1374C16.5287 10.9546 15.471 10.9546 14.4373 11.1374C14.0461 9.45985 13.4673 7.37235 12.6873 5.54485C11.3873 2.4861 9.89735 0.999852 8.13235 0.999852C7.64087 0.992699 7.15646 1.1174 6.72954 1.36098C6.30261 1.60457 5.94877 1.95812 5.70485 2.38485C4.0661 5.09485 5.49985 11.3874 7.87485 16.1249C7.48375 16.9451 7.21989 17.8201 7.09235 18.7199C5.83655 19.9011 5.10142 21.5328 5.04867 23.256C4.99593 24.9792 5.62989 26.6528 6.8111 27.9086C7.99231 29.1644 9.624 29.8995 11.3472 29.9523C13.0704 30.005 14.744 29.3711 15.9998 28.1899L13.3598 25.7686C13.156 25.5989 13.0279 25.3551 13.0037 25.0909C12.9796 24.8267 13.0614 24.5637 13.2311 24.3599C13.4008 24.156 13.6446 24.0279 13.9088 24.0037C14.173 23.9796 14.436 24.0614 14.6398 24.2311L15.9998 25.3624L17.3598 24.2311C17.5637 24.0614 17.8267 23.9796 18.0909 24.0037C18.3551 24.0279 18.5989 24.156 18.7686 24.3599C18.9383 24.5637 19.0201 24.8267 18.996 25.0909C18.9718 25.3551 18.8437 25.5989 18.6398 25.7686L15.9998 28.1899C16.619 28.7872 17.3505 29.2558 18.1521 29.5683C18.9537 29.8808 19.8093 30.0311 20.6694 30.0104C21.5295 29.9897 22.3769 29.7985 23.1625 29.4478C23.9481 29.0972 24.6563 28.594 25.246 27.9676C25.8357 27.3412 26.2952 26.6039 26.5978 25.7985C26.9004 24.9932 27.0402 24.1358 27.0089 23.276C26.9776 22.4162 26.776 21.5712 26.4157 20.79C26.0553 20.0087 25.5435 19.3068 24.9098 18.7249ZM9.15985 14.1586C8.32734 12.3091 7.70349 10.3725 7.29985 8.38485C6.8636 6.1186 6.9061 4.25985 7.4161 3.41985C7.48086 3.28709 7.58338 3.17641 7.7108 3.10169C7.83822 3.02697 7.98487 2.99155 8.13235 2.99985C8.9586 2.99985 9.94735 4.21235 10.8473 6.32735C11.5886 8.06985 12.1411 10.0924 12.5136 11.7024C11.2165 12.2458 10.0655 13.0868 9.1536 14.1574L9.15985 14.1586ZM12.4998 21.9999C12.2032 21.9999 11.9132 21.9119 11.6665 21.7471C11.4198 21.5822 11.2276 21.348 11.114 21.0739C11.0005 20.7998 10.9708 20.4982 11.0287 20.2072C11.0865 19.9162 11.2294 19.649 11.4392 19.4392C11.649 19.2294 11.9162 19.0866 12.2072 19.0287C12.4982 18.9708 12.7998 19.0005 13.0739 19.114C13.348 19.2276 13.5822 19.4198 13.7471 19.6665C13.9119 19.9132 13.9998 20.2032 13.9998 20.4999C13.9998 20.8977 13.8418 21.2792 13.5605 21.5605C13.2792 21.8418 12.8977 21.9999 12.4998 21.9999ZM19.4998 21.9999C19.2032 21.9999 18.9132 21.9119 18.6665 21.7471C18.4198 21.5822 18.2276 21.348 18.114 21.0739C18.0005 20.7998 17.9708 20.4982 18.0287 20.2072C18.0865 19.9162 18.2294 19.649 18.4392 19.4392C18.649 19.2294 18.9162 19.0866 19.2072 19.0287C19.4982 18.9708 19.7998 19.0005 20.0739 19.114C20.348 19.2276 20.5822 19.4198 20.7471 19.6665C20.9119 19.9132 20.9998 20.2032 20.9998 20.4999C20.9998 20.8977 20.8418 21.2792 20.5605 21.5605C20.2792 21.8418 19.8977 21.9999 19.4998 21.9999ZM22.0686 13.3536C21.3086 12.6598 20.4351 12.1017 19.4861 11.7036C19.8611 10.0924 20.4111 8.06985 21.1523 6.3286C22.0523 4.21235 23.0411 2.99985 23.8673 2.99985C24.0148 2.99155 24.1615 3.02697 24.2889 3.10169C24.4163 3.17641 24.5188 3.28709 24.5836 3.41985C25.0936 4.26235 25.1361 6.1186 24.6999 8.38485C24.2982 10.3723 23.6765 12.3088 22.8461 14.1586C22.6037 13.8745 22.3441 13.6057 22.0686 13.3536Z" fill="#222222"/>
</svg>
