<svg width="32" height="32" viewBox="0 0 32 32" fill="none" xmlns="http://www.w3.org/2000/svg">
<path d="M30.0003 15.9998C30.0035 16.41 29.8788 16.811 29.6436 17.147C29.4084 17.483 29.0743 17.7374 28.6878 17.8748L20.7578 20.7586L17.8753 28.6873C17.7332 29.0701 17.4774 29.4002 17.1423 29.6333C16.8071 29.8664 16.4086 29.9914 16.0003 29.9914C15.592 29.9914 15.1936 29.8664 14.8584 29.6333C14.5232 29.4002 14.2674 29.0701 14.1253 28.6873L11.2428 20.7573L3.31282 17.8748C2.93006 17.7328 2.59996 17.4769 2.36685 17.1418C2.13374 16.8066 2.00879 16.4081 2.00879 15.9998C2.00879 15.5916 2.13374 15.1931 2.36685 14.8579C2.59996 14.5227 2.93006 14.2669 3.31282 14.1248L11.2428 11.2423L14.1253 3.31233C14.2674 2.92958 14.5232 2.59947 14.8584 2.36636C15.1936 2.13325 15.592 2.0083 16.0003 2.0083C16.4086 2.0083 16.8071 2.13325 17.1423 2.36636C17.4774 2.59947 17.7332 2.92958 17.8753 3.31233L20.7591 11.2423L28.6878 14.1248C29.0743 14.2622 29.4084 14.5166 29.6436 14.8527C29.8788 15.1887 30.0035 15.5897 30.0003 15.9998Z" fill="#222222"/>
</svg>
