<svg width="32" height="32" viewBox="0 0 32 32" fill="none" xmlns="http://www.w3.org/2000/svg">
<path d="M31 25.9999C31 26.2651 30.8946 26.5195 30.7071 26.707C30.5196 26.8945 30.2652 26.9999 30 26.9999H2C1.73478 26.9999 1.48043 26.8945 1.29289 26.707C1.10536 26.5195 1 26.2651 1 25.9999C1 25.7347 1.10536 25.4803 1.29289 25.2928C1.48043 25.1053 1.73478 24.9999 2 24.9999H30C30.2652 24.9999 30.5196 25.1053 30.7071 25.2928C30.8946 25.4803 31 25.7347 31 25.9999ZM2.0375 12.2724C1.97802 12.0627 1.9887 11.8393 2.0679 11.6362C2.1471 11.4331 2.2905 11.2615 2.47625 11.1474L15.4762 3.1474C15.6338 3.05054 15.8151 2.99927 16 2.99927C16.1849 2.99927 16.3662 3.05054 16.5238 3.1474L29.5238 11.1474C29.7096 11.2613 29.8531 11.4328 29.9324 11.6359C30.0118 11.8389 30.0226 12.0622 29.9633 12.272C29.904 12.4817 29.7778 12.6663 29.6039 12.7977C29.43 12.9291 29.218 13.0001 29 12.9999H26V20.9999H28C28.2652 20.9999 28.5196 21.1053 28.7071 21.2928C28.8946 21.4803 29 21.7347 29 21.9999C29 22.2651 28.8946 22.5195 28.7071 22.707C28.5196 22.8945 28.2652 22.9999 28 22.9999H4C3.73478 22.9999 3.48043 22.8945 3.29289 22.707C3.10536 22.5195 3 22.2651 3 21.9999C3 21.7347 3.10536 21.4803 3.29289 21.2928C3.48043 21.1053 3.73478 20.9999 4 20.9999H6V12.9999H3C2.78224 13 2.5704 12.929 2.39668 12.7977C2.22295 12.6663 2.09684 12.4819 2.0375 12.2724ZM18 19.9999C18 20.2651 18.1054 20.5195 18.2929 20.707C18.4804 20.8945 18.7348 20.9999 19 20.9999C19.2652 20.9999 19.5196 20.8945 19.7071 20.707C19.8946 20.5195 20 20.2651 20 19.9999V13.9999C20 13.7347 19.8946 13.4803 19.7071 13.2928C19.5196 13.1053 19.2652 12.9999 19 12.9999C18.7348 12.9999 18.4804 13.1053 18.2929 13.2928C18.1054 13.4803 18 13.7347 18 13.9999V19.9999ZM12 19.9999C12 20.2651 12.1054 20.5195 12.2929 20.707C12.4804 20.8945 12.7348 20.9999 13 20.9999C13.2652 20.9999 13.5196 20.8945 13.7071 20.707C13.8946 20.5195 14 20.2651 14 19.9999V13.9999C14 13.7347 13.8946 13.4803 13.7071 13.2928C13.5196 13.1053 13.2652 12.9999 13 12.9999C12.7348 12.9999 12.4804 13.1053 12.2929 13.2928C12.1054 13.4803 12 13.7347 12 13.9999V19.9999Z" fill="#222222"/>
</svg>
