<svg width="32" height="32" viewBox="0 0 32 32" fill="none" xmlns="http://www.w3.org/2000/svg">
<path d="M14.9997 24.9424V28.4099C15.0002 28.4807 14.9856 28.5508 14.9569 28.6155C14.9283 28.6803 14.8862 28.7382 14.8335 28.7855C14.7808 28.8327 14.7187 28.8683 14.6512 28.8897C14.5838 28.9112 14.5125 28.9181 14.4422 28.9099C11.5547 28.5569 8.86849 27.2475 6.81154 25.1906C4.75458 23.1336 3.44526 20.4474 3.09219 17.5599C3.08404 17.4896 3.09093 17.4184 3.11238 17.3509C3.13384 17.2834 3.16937 17.2213 3.21664 17.1686C3.26391 17.1159 3.32183 17.0738 3.38657 17.0452C3.45131 17.0165 3.52139 17.002 3.59219 17.0024H7.05719C7.28725 19.0294 8.19806 20.9183 9.64075 22.3606C11.0834 23.8028 12.9727 24.713 14.9997 24.9424ZM22.9272 16.9999H16.9997V22.9274C18.4942 22.7093 19.8784 22.0146 20.9464 20.9467C22.0144 19.8787 22.7091 18.4945 22.9272 16.9999ZM16.9997 9.07243V14.9999H22.9272C22.7091 13.5054 22.0144 12.1212 20.9464 11.0532C19.8784 9.98522 18.4942 9.29052 16.9997 9.07243ZM28.4097 16.9999H24.9422C24.7127 19.0273 23.8021 20.9168 22.3593 22.3596C20.9166 23.8023 19.0271 24.7129 16.9997 24.9424V28.4099C16.9992 28.4807 17.0138 28.5508 17.0424 28.6155C17.0711 28.6803 17.1131 28.7382 17.1658 28.7855C17.2185 28.8327 17.2807 28.8683 17.3481 28.8897C17.4156 28.9112 17.4869 28.9181 17.5572 28.9099C20.4447 28.5569 23.1309 27.2475 25.1878 25.1906C27.2448 23.1336 28.5541 20.4474 28.9072 17.5599C28.9157 17.4896 28.9091 17.4183 28.888 17.3507C28.8669 17.2831 28.8316 17.2208 28.7846 17.1679C28.7376 17.1149 28.6798 17.0726 28.6152 17.0436C28.5505 17.0147 28.4805 16.9998 28.4097 16.9999ZM24.9422 14.9999H28.4097C28.4805 15.0004 28.5506 14.9858 28.6153 14.9572C28.68 14.9285 28.738 14.8865 28.7852 14.8338C28.8325 14.7811 28.868 14.7189 28.8895 14.6515C28.9109 14.584 28.9178 14.5128 28.9097 14.4424C28.5566 11.555 27.2473 8.86874 25.1903 6.81178C23.1334 4.75483 20.4472 3.4455 17.5597 3.09243C17.4894 3.08429 17.4181 3.09117 17.3506 3.11263C17.2832 3.13408 17.221 3.16962 17.1683 3.21688C17.1156 3.26415 17.0736 3.32207 17.0449 3.38681C17.0163 3.45155 17.0017 3.52164 17.0022 3.59243V7.05743C19.0291 7.28749 20.9181 8.1983 22.3603 9.64099C23.8025 11.0837 24.7128 12.9729 24.9422 14.9999ZM14.4422 3.09243C11.5547 3.4455 8.86849 4.75483 6.81154 6.81178C4.75458 8.86874 3.44526 11.555 3.09219 14.4424C3.08404 14.5128 3.09093 14.584 3.11238 14.6515C3.13384 14.7189 3.16937 14.7811 3.21664 14.8338C3.26391 14.8865 3.32183 14.9285 3.38657 14.9572C3.45131 14.9858 3.52139 15.0004 3.59219 14.9999H7.05719C7.28672 12.9725 8.1973 11.083 9.64003 9.64028C11.0828 8.19754 12.9723 7.28696 14.9997 7.05743V3.58993C14.9998 3.51935 14.985 3.44954 14.9562 3.3851C14.9274 3.32066 14.8853 3.26305 14.8326 3.21605C14.7799 3.16906 14.7179 3.13375 14.6506 3.11244C14.5833 3.09113 14.5123 3.08431 14.4422 3.09243ZM9.07219 14.9999H14.9997V9.07243C13.5052 9.29052 12.1209 9.98522 11.053 11.0532C9.98498 12.1212 9.29027 13.5054 9.07219 14.9999ZM14.9997 22.9274V16.9999H9.07219C9.29027 18.4945 9.98498 19.8787 11.053 20.9467C12.1209 22.0146 13.5052 22.7093 14.9997 22.9274Z" fill="#222222"/>
</svg>
