<svg width="32" height="32" viewBox="0 0 32 32" fill="none" xmlns="http://www.w3.org/2000/svg">
<path d="M29.9996 16.0001V24.0001C29.9996 24.2653 29.8942 24.5196 29.7067 24.7072C29.5192 24.8947 29.2648 25.0001 28.9996 25.0001H20.9996C20.8017 25.0002 20.6082 24.9417 20.4436 24.8318C20.279 24.7219 20.1507 24.5657 20.075 24.3829C19.9992 24.2 19.9794 23.9988 20.0181 23.8048C20.0567 23.6107 20.1521 23.4324 20.2921 23.2926L23.5858 20.0001L16.9996 13.4138L12.7071 17.7076C12.6142 17.8005 12.5039 17.8743 12.3825 17.9246C12.2611 17.975 12.131 18.0009 11.9996 18.0009C11.8682 18.0009 11.738 17.975 11.6166 17.9246C11.4952 17.8743 11.385 17.8005 11.2921 17.7076L2.29208 8.70757C2.10444 8.51993 1.99902 8.26543 1.99902 8.00007C1.99902 7.7347 2.10444 7.48021 2.29208 7.29257C2.47972 7.10493 2.73422 6.99951 2.99958 6.99951C3.26494 6.99951 3.51944 7.10493 3.70708 7.29257L11.9996 15.5863L16.2921 11.2926C16.385 11.1996 16.4952 11.1258 16.6166 11.0755C16.738 11.0252 16.8682 10.9993 16.9996 10.9993C17.131 10.9993 17.2611 11.0252 17.3825 11.0755C17.5039 11.1258 17.6142 11.1996 17.7071 11.2926L24.9996 18.5863L28.2921 15.2926C28.4319 15.1526 28.6102 15.0572 28.8043 15.0185C28.9984 14.9799 29.1995 14.9997 29.3824 15.0754C29.5652 15.1512 29.7214 15.2795 29.8313 15.4441C29.9412 15.6087 29.9997 15.8022 29.9996 16.0001Z" fill="#222222"/>
</svg>
