<svg width="32" height="32" viewBox="0 0 32 32" fill="none" xmlns="http://www.w3.org/2000/svg">
<path d="M23.2102 16.8903C23.2383 14.7288 24.4103 12.6836 26.2695 11.5515C25.0966 9.89236 23.132 8.84043 21.0881 8.77709C18.9081 8.55045 16.7946 10.0691 15.6837 10.0691C14.5513 10.0691 12.8409 8.79959 10.9991 8.83712C8.59838 8.91395 6.36029 10.2658 5.19228 12.3447C2.68152 16.6502 4.55432 22.9778 6.95941 26.458C8.16274 28.1622 9.56907 30.0658 11.4092 29.9983C13.2099 29.9243 13.8825 28.861 16.0561 28.861C18.2095 28.861 18.8405 29.9983 20.718 29.9553C22.6502 29.9243 23.8677 28.2436 25.0288 26.5233C25.8933 25.309 26.5586 23.967 27 22.5469C24.7293 21.5956 23.2128 19.3323 23.2102 16.8903Z" fill="#222222"/>
<path d="M19.6639 6.48832C20.7174 5.23566 21.2365 3.62558 21.1108 2C19.5012 2.16744 18.0144 2.92937 16.9466 4.13397C15.9025 5.31092 15.3591 6.89268 15.4618 8.45612C17.072 8.47254 18.6549 7.73127 19.6639 6.48832Z" fill="#222222"/>
</svg>
