<svg width="32" height="32" viewBox="0 0 32 32" fill="none" xmlns="http://www.w3.org/2000/svg">
<g clip-path="url(#clip0_2827_12237)">
<path d="M16 22.1241C14.8 22.1241 13.6828 21.7931 12.6896 21.131C11.6965 20.469 10.9517 19.6414 10.4552 18.6069L5.48964 10C4.45516 11.8621 4 13.8896 4 16C4 19.0207 4.99309 21.6276 6.93794 23.8621C8.88278 26.0965 11.3241 27.4207 14.2207 27.8759L17.6966 21.8345C17.3655 21.9586 16.7448 22.1241 16 22.1241Z" fill="#222222"/>
<path d="M12.2348 11.0345C13.352 10.1655 14.5934 9.79309 16.0003 9.79309H26.3037C25.2279 7.97242 23.7796 6.64825 21.9589 5.61377C20.1382 4.53794 18.152 4 16.0003 4C14.1382 4 12.3589 4.41381 10.7451 5.2C9.13137 5.98619 7.60029 7.14484 6.52441 8.63448L10.0003 14.3448C10.3313 13.0207 11.1175 11.9035 12.2348 11.0345Z" fill="#222222"/>
<path d="M27.0895 11.4896H20.1378C21.3378 12.6896 22.1654 14.262 22.1654 16C22.1654 17.2828 21.793 18.4414 21.0895 19.5172L16.124 28C19.393 27.9586 22.2068 26.8 24.524 24.4414C26.8412 22.0828 27.9999 19.269 27.9999 16C27.9999 14.469 27.7516 12.8551 27.0895 11.4896Z" fill="#222222"/>
<path d="M15.9999 11.4483C18.4827 11.4483 20.5516 13.5173 20.5516 16C20.5516 18.4827 18.4827 20.5517 15.9999 20.5517C13.5172 20.5517 11.4482 18.4828 11.4482 16C11.4482 13.5172 13.5172 11.4483 15.9999 11.4483Z" fill="#222222"/>
</g>
<defs>
<clipPath id="clip0_2827_12237">
<rect width="24" height="24" fill="white" transform="translate(4 4)"/>
</clipPath>
</defs>
</svg>
