<svg width="32" height="32" viewBox="0 0 32 32" fill="none" xmlns="http://www.w3.org/2000/svg">
<path d="M22.4131 20.1523L7.6416 27.6884C6.95442 28.0383 6.32704 28.0829 5.85645 27.8769L18.4365 16.582L22.4131 20.1523ZM17.7881 15.9999L5.2207 27.2841C5.08021 27.0252 5 26.7019 5 26.3193V5.68158C5.00004 5.29964 5.07926 4.97577 5.21973 4.71674L17.7881 15.9999ZM27.9111 14.6542C29.3632 15.3951 29.3631 16.6067 27.9111 17.3486L23.2402 19.7314L19.084 15.9999L23.2373 12.2704L27.9111 14.6542ZM5.85449 4.12299C6.32518 3.91635 6.95401 3.96362 7.6416 4.31439L22.4111 11.8486L18.4365 15.4179L5.85449 4.12299Z" fill="#222222"/>
</svg>
