<svg width="32" height="32" viewBox="0 0 32 32" fill="none" xmlns="http://www.w3.org/2000/svg">
<path d="M10.9429 19.3363L8.44295 26.3363C8.37363 26.5306 8.24591 26.6987 8.07728 26.8176C7.90866 26.9365 7.70739 27.0003 7.50107 27.0003C7.29475 27.0003 7.09349 26.9365 6.92486 26.8176C6.75624 26.6987 6.62851 26.5306 6.5592 26.3363L4.0592 19.3363C4.01504 19.2126 3.99568 19.0814 4.00222 18.9502C4.00875 18.819 4.04106 18.6904 4.0973 18.5718C4.15354 18.4531 4.2326 18.3466 4.32998 18.2585C4.42735 18.1704 4.54113 18.1023 4.66482 18.0581C4.78851 18.014 4.91969 17.9946 5.05086 18.0011C5.18203 18.0077 5.31063 18.04 5.42931 18.0962C5.548 18.1525 5.65445 18.2315 5.74257 18.3289C5.8307 18.4263 5.89879 18.5401 5.94295 18.6637L7.50045 23.0263L9.0592 18.6637C9.14838 18.4139 9.33314 18.2098 9.57283 18.0962C9.81253 17.9827 10.0875 17.9689 10.3373 18.0581C10.5871 18.1473 10.7913 18.3321 10.9048 18.5718C11.0184 18.8115 11.0321 19.0864 10.9429 19.3363ZM26.0004 20C26.2657 20 26.52 19.8946 26.7076 19.7071C26.8951 19.5196 27.0004 19.2652 27.0004 19C27.0004 18.7348 26.8951 18.4804 26.7076 18.2929C26.52 18.1054 26.2657 18 26.0004 18H22.0004C21.7352 18 21.4809 18.1054 21.2933 18.2929C21.1058 18.4804 21.0004 18.7348 21.0004 19V26C21.0004 26.2652 21.1058 26.5196 21.2933 26.7071C21.4809 26.8946 21.7352 27 22.0004 27H26.0004C26.2657 27 26.52 26.8946 26.7076 26.7071C26.8951 26.5196 27.0004 26.2652 27.0004 26C27.0004 25.7348 26.8951 25.4804 26.7076 25.2929C26.52 25.1054 26.2657 25 26.0004 25H23.0004V23.5H25.0004C25.2657 23.5 25.52 23.3946 25.7076 23.2071C25.8951 23.0196 26.0004 22.7652 26.0004 22.5C26.0004 22.2348 25.8951 21.9804 25.7076 21.7929C25.52 21.6054 25.2657 21.5 25.0004 21.5H23.0004V20H26.0004ZM18.0004 18C17.7352 18 17.4809 18.1054 17.2933 18.2929C17.1058 18.4804 17.0004 18.7348 17.0004 19V23.75C17.0004 24.0815 16.8688 24.3995 16.6343 24.6339C16.3999 24.8683 16.082 25 15.7504 25C15.4189 25 15.101 24.8683 14.8666 24.6339C14.6321 24.3995 14.5004 24.0815 14.5004 23.75V19C14.5004 18.7348 14.3951 18.4804 14.2076 18.2929C14.02 18.1054 13.7657 18 13.5004 18C13.2352 18 12.9809 18.1054 12.7933 18.2929C12.6058 18.4804 12.5004 18.7348 12.5004 19V23.75C12.5004 24.612 12.8429 25.4386 13.4524 26.0481C14.0618 26.6576 14.8885 27 15.7504 27C16.6124 27 17.4391 26.6576 18.0485 26.0481C18.658 25.4386 19.0004 24.612 19.0004 23.75V19C19.0004 18.7348 18.8951 18.4804 18.7076 18.2929C18.52 18.1054 18.2657 18 18.0004 18ZM27.0004 11V14C27.0004 14.2652 26.8951 14.5196 26.7076 14.7071C26.52 14.8946 26.2657 15 26.0004 15C25.7352 15 25.4809 14.8946 25.2933 14.7071C25.1058 14.5196 25.0004 14.2652 25.0004 14V12H19.0004C18.7352 12 18.4809 11.8946 18.2933 11.7071C18.1058 11.5196 18.0004 11.2652 18.0004 11V5H7.00045V14C7.00045 14.2652 6.89509 14.5196 6.70755 14.7071C6.52002 14.8946 6.26566 15 6.00045 15C5.73523 15 5.48088 14.8946 5.29334 14.7071C5.10581 14.5196 5.00045 14.2652 5.00045 14V5C5.00045 4.46957 5.21116 3.96086 5.58623 3.58579C5.96131 3.21071 6.47002 3 7.00045 3H19.0004C19.1318 2.9999 19.2619 3.02568 19.3833 3.07586C19.5047 3.12605 19.615 3.19967 19.7079 3.2925L26.7079 10.2925C26.8008 10.3854 26.8744 10.4958 26.9246 10.6172C26.9748 10.7385 27.0006 10.8686 27.0004 11ZM23.5867 10L20.0004 6.41375V10H23.5867Z" fill="#222222"/>
</svg>
