<svg width="32" height="32" viewBox="0 0 32 32" fill="none" xmlns="http://www.w3.org/2000/svg">
<path d="M13.8329 18.445C13.7416 18.3078 13.6178 18.1953 13.4726 18.1175C13.3274 18.0397 13.1652 17.999 13.0004 17.999C12.8356 17.999 12.6734 18.0397 12.5282 18.1175C12.3829 18.1953 12.2592 18.3078 12.1679 18.445L9.56164 22.3563L8.34164 20.4587C8.2511 20.3179 8.12662 20.202 7.97963 20.1217C7.83265 20.0415 7.66786 19.9994 7.50039 19.9994C7.33292 19.9994 7.16813 20.0415 7.02114 20.1217C6.87416 20.202 6.74968 20.3179 6.65914 20.4587L2.15914 27.4587C2.06189 27.6098 2.00715 27.7843 2.00065 27.9639C1.99416 28.1434 2.03616 28.3214 2.12224 28.4791C2.20832 28.6368 2.3353 28.7684 2.48982 28.8601C2.64435 28.9517 2.82072 29.0001 3.00039 29H19.0004C19.1815 29.0001 19.3592 28.9511 19.5146 28.8581C19.67 28.7651 19.7972 28.6316 19.8826 28.472C19.9681 28.3123 20.0086 28.1325 19.9999 27.9516C19.9911 27.7707 19.9334 27.5956 19.8329 27.445L13.8329 18.445ZM4.83164 27L7.50039 22.8487L8.70414 24.7237C8.79392 24.8635 8.9171 24.9787 9.06256 25.0589C9.20803 25.1392 9.37118 25.1819 9.53729 25.1833C9.70341 25.1846 9.86724 25.1446 10.014 25.0668C10.1608 24.9889 10.2858 24.8758 10.3779 24.7375L13.0029 20.8037L17.1316 27H4.83164ZM26.7066 10.2925L19.7066 3.2925C19.5192 3.10532 19.2653 3.00012 19.0004 3H7.00039C6.46996 3 5.96125 3.21071 5.58617 3.58579C5.2111 3.96086 5.00039 4.46957 5.00039 5V16C5.00039 16.2652 5.10575 16.5196 5.29328 16.7071C5.48082 16.8946 5.73517 17 6.00039 17C6.2656 17 6.51996 16.8946 6.7075 16.7071C6.89503 16.5196 7.00039 16.2652 7.00039 16V5H18.0004V11C18.0004 11.2652 18.1057 11.5196 18.2933 11.7071C18.4808 11.8946 18.7352 12 19.0004 12H25.0004V27H24.0004C23.7352 27 23.4808 27.1054 23.2933 27.2929C23.1057 27.4804 23.0004 27.7348 23.0004 28C23.0004 28.2652 23.1057 28.5196 23.2933 28.7071C23.4808 28.8946 23.7352 29 24.0004 29H25.0004C25.5308 29 26.0395 28.7893 26.4146 28.4142C26.7897 28.0391 27.0004 27.5304 27.0004 27V11C27.0005 10.8686 26.9747 10.7385 26.9245 10.6172C26.8743 10.4958 26.8007 10.3854 26.7079 10.2925H26.7066ZM20.0004 6.41375L23.5866 10H20.0004V6.41375Z" fill="#222222"/>
</svg>
