<svg width="32" height="32" viewBox="0 0 32 32" fill="none" xmlns="http://www.w3.org/2000/svg">
<path d="M27.9996 16.0001C27.9996 16.2653 27.8942 16.5196 27.7067 16.7072C27.5192 16.8947 27.2648 17.0001 26.9996 17.0001H15.9996C15.7344 17.0001 15.48 16.8947 15.2925 16.7072C15.1049 16.5196 14.9996 16.2653 14.9996 16.0001C14.9996 15.7349 15.1049 15.4805 15.2925 15.293C15.48 15.1054 15.7344 15.0001 15.9996 15.0001H26.9996C27.2648 15.0001 27.5192 15.1054 27.7067 15.293C27.8942 15.4805 27.9996 15.7349 27.9996 16.0001ZM15.9996 9.00007H26.9996C27.2648 9.00007 27.5192 8.89471 27.7067 8.70717C27.8942 8.51964 27.9996 8.26528 27.9996 8.00007C27.9996 7.73485 27.8942 7.4805 27.7067 7.29296C27.5192 7.10542 27.2648 7.00007 26.9996 7.00007H15.9996C15.7344 7.00007 15.48 7.10542 15.2925 7.29296C15.1049 7.4805 14.9996 7.73485 14.9996 8.00007C14.9996 8.26528 15.1049 8.51964 15.2925 8.70717C15.48 8.89471 15.7344 9.00007 15.9996 9.00007ZM26.9996 23.0001H15.9996C15.7344 23.0001 15.48 23.1054 15.2925 23.293C15.1049 23.4805 14.9996 23.7349 14.9996 24.0001C14.9996 24.2653 15.1049 24.5196 15.2925 24.7072C15.48 24.8947 15.7344 25.0001 15.9996 25.0001H26.9996C27.2648 25.0001 27.5192 24.8947 27.7067 24.7072C27.8942 24.5196 27.9996 24.2653 27.9996 24.0001C27.9996 23.7349 27.8942 23.4805 27.7067 23.293C27.5192 23.1054 27.2648 23.0001 26.9996 23.0001ZM10.2921 5.29257L6.99958 8.58632L5.70708 7.29257C5.51944 7.10493 5.26494 6.99951 4.99958 6.99951C4.73422 6.99951 4.47972 7.10493 4.29208 7.29257C4.10444 7.48021 3.99902 7.7347 3.99902 8.00007C3.99902 8.26543 4.10444 8.51993 4.29208 8.70757L6.29208 10.7076C6.38495 10.8005 6.49524 10.8743 6.61664 10.9246C6.73804 10.975 6.86816 11.0009 6.99958 11.0009C7.13099 11.0009 7.26112 10.975 7.38252 10.9246C7.50392 10.8743 7.61421 10.8005 7.70708 10.7076L11.7071 6.70757C11.8947 6.51993 12.0001 6.26543 12.0001 6.00007C12.0001 5.7347 11.8947 5.48021 11.7071 5.29257C11.5194 5.10493 11.2649 4.99951 10.9996 4.99951C10.7342 4.99951 10.4797 5.10493 10.2921 5.29257ZM10.2921 13.2926L6.99958 16.5863L5.70708 15.2926C5.51944 15.1049 5.26494 14.9995 4.99958 14.9995C4.73422 14.9995 4.47972 15.1049 4.29208 15.2926C4.10444 15.4802 3.99902 15.7347 3.99902 16.0001C3.99902 16.1315 4.0249 16.2616 4.07519 16.383C4.12547 16.5044 4.19917 16.6147 4.29208 16.7076L6.29208 18.7076C6.38495 18.8005 6.49524 18.8743 6.61664 18.9246C6.73804 18.975 6.86816 19.0009 6.99958 19.0009C7.13099 19.0009 7.26112 18.975 7.38252 18.9246C7.50392 18.8743 7.61421 18.8005 7.70708 18.7076L11.7071 14.7076C11.8947 14.5199 12.0001 14.2654 12.0001 14.0001C12.0001 13.7347 11.8947 13.4802 11.7071 13.2926C11.5194 13.1049 11.2649 12.9995 10.9996 12.9995C10.7342 12.9995 10.4797 13.1049 10.2921 13.2926ZM10.2921 21.2926L6.99958 24.5863L5.70708 23.2926C5.61417 23.1997 5.50387 23.126 5.38248 23.0757C5.26108 23.0254 5.13097 22.9995 4.99958 22.9995C4.86818 22.9995 4.73808 23.0254 4.61668 23.0757C4.49529 23.126 4.38499 23.1997 4.29208 23.2926C4.19917 23.3855 4.12547 23.4958 4.07519 23.6172C4.0249 23.7386 3.99902 23.8687 3.99902 24.0001C3.99902 24.1315 4.0249 24.2616 4.07519 24.383C4.12547 24.5044 4.19917 24.6147 4.29208 24.7076L6.29208 26.7076C6.38495 26.8005 6.49524 26.8743 6.61664 26.9246C6.73804 26.975 6.86816 27.0009 6.99958 27.0009C7.13099 27.0009 7.26112 26.975 7.38252 26.9246C7.50392 26.8743 7.61421 26.8005 7.70708 26.7076L11.7071 22.7076C11.8947 22.5199 12.0001 22.2654 12.0001 22.0001C12.0001 21.7347 11.8947 21.4802 11.7071 21.2926C11.5194 21.1049 11.2649 20.9995 10.9996 20.9995C10.7342 20.9995 10.4797 21.1049 10.2921 21.2926Z" fill="#222222"/>
</svg>
