<svg width="32" height="32" viewBox="0 0 32 32" fill="none" xmlns="http://www.w3.org/2000/svg">
<path d="M6.73964 4.32741C6.65182 4.22842 6.54523 4.14784 6.42604 4.09035C6.30685 4.03286 6.17744 3.99959 6.0453 3.99248C5.91316 3.98538 5.78092 4.00456 5.65625 4.04894C5.53158 4.09331 5.41696 4.16199 5.31903 4.25099C5.2211 4.33999 5.1418 4.44754 5.08574 4.56741C5.02968 4.68728 4.99797 4.81708 4.99245 4.9493C4.98693 5.08151 5.0077 5.21351 5.05356 5.33764C5.09943 5.46176 5.16948 5.57556 5.25964 5.67241L8.42089 9.14991C7.07153 9.45185 5.81323 10.0701 4.74964 10.9537C4.5308 11.1296 4.35147 11.3497 4.22332 11.5996C4.09517 11.8495 4.02108 12.1235 4.00587 12.4039C3.99065 12.6843 4.03466 12.9648 4.13503 13.2271C4.2354 13.4894 4.38987 13.7275 4.58839 13.9262L10.6246 19.9637L5.29214 25.2924C5.1045 25.4801 4.99909 25.7345 4.99909 25.9999C4.99909 26.2653 5.1045 26.5198 5.29214 26.7074C5.47978 26.8951 5.73428 27.0005 5.99964 27.0005C6.26501 27.0005 6.5195 26.8951 6.70714 26.7074L12.0359 21.3749L18.0721 27.4112C18.2577 27.5975 18.4782 27.7454 18.721 27.8465C18.9638 27.9475 19.2242 27.9996 19.4871 27.9999C19.5346 27.9999 19.5809 27.9999 19.6284 27.9999C19.9135 27.9802 20.191 27.8993 20.4421 27.7627C20.6931 27.6262 20.9119 27.4372 21.0834 27.2087C21.6741 26.4307 22.1608 25.5789 22.5309 24.6749L25.2609 27.6749C25.3487 27.7739 25.4553 27.8545 25.5745 27.912C25.6937 27.9695 25.8231 28.0027 25.9552 28.0098C26.0874 28.017 26.2196 27.9978 26.3443 27.9534C26.469 27.909 26.5836 27.8403 26.6815 27.7513C26.7794 27.6623 26.8587 27.5548 26.9148 27.4349C26.9708 27.3151 27.0026 27.1852 27.0081 27.053C27.0136 26.9208 26.9928 26.7888 26.947 26.6647C26.9011 26.5406 26.8311 26.4268 26.7409 26.3299L6.73964 4.32741ZM19.4871 25.9999L5.99964 12.5099C7.27839 11.4787 8.64964 10.9649 10.0821 10.9762L20.9771 22.9612C20.6984 24.1949 20.0296 25.2787 19.4871 25.9999ZM29.4146 12.9999L23.8346 18.5987C23.7419 18.6917 23.6317 18.7655 23.5105 18.8159C23.3892 18.8663 23.2592 18.8924 23.1278 18.8925C22.9965 18.8927 22.8664 18.867 22.745 18.8169C22.6236 18.7668 22.5133 18.6933 22.4203 18.6005C22.3273 18.5078 22.2535 18.3976 22.203 18.2764C22.1526 18.1551 22.1266 18.0251 22.1264 17.8937C22.1262 17.7624 22.1519 17.6323 22.202 17.5109C22.2521 17.3895 22.3256 17.2792 22.4184 17.1862L27.9996 11.5874L20.4146 3.99991L15.2621 9.16866C15.0734 9.34864 14.8218 9.44775 14.561 9.44488C14.3003 9.44202 14.0509 9.33738 13.8662 9.1533C13.6815 8.96922 13.5759 8.72025 13.5722 8.45949C13.5684 8.19872 13.6666 7.94679 13.8459 7.75741L18.9996 2.58741C19.1854 2.40165 19.4059 2.25429 19.6485 2.15375C19.8912 2.05321 20.1513 2.00146 20.414 2.00146C20.6767 2.00146 20.9368 2.05321 21.1795 2.15375C21.4222 2.25429 21.6427 2.40165 21.8284 2.58741L29.4146 10.1724C29.7894 10.5474 30 11.056 30 11.5862C30 12.1164 29.7894 12.6249 29.4146 12.9999Z" fill="#222222"/>
</svg>
