<svg width="32" height="32" viewBox="0 0 32 32" fill="none" xmlns="http://www.w3.org/2000/svg">
<path d="M31.0001 25.9998C31.0001 26.265 30.8947 26.5194 30.7072 26.7069C30.5197 26.8944 30.2653 26.9998 30.0001 26.9998H24.0001C23.8144 26.9998 23.6323 26.9481 23.4743 26.8504C23.3164 26.7528 23.1887 26.6131 23.1057 26.447C23.0226 26.2809 22.9874 26.0949 23.0041 25.91C23.0208 25.725 23.0887 25.5484 23.2001 25.3998L28.5963 18.2048C28.7691 17.9745 28.8902 17.7097 28.9512 17.4283C29.0122 17.147 29.0118 16.8558 28.9499 16.5746C28.888 16.2935 28.7662 16.029 28.5927 15.7992C28.4193 15.5695 28.1982 15.3799 27.9447 15.2434C27.6913 15.1069 27.4113 15.0268 27.124 15.0085C26.8367 14.9901 26.5488 15.034 26.2801 15.1372C26.0113 15.2403 25.768 15.4003 25.5667 15.6061C25.3654 15.8119 25.2109 16.0588 25.1138 16.3298C25.07 16.4536 25.0022 16.5676 24.9143 16.6653C24.8264 16.7629 24.7202 16.8423 24.6016 16.8989C24.483 16.9555 24.3545 16.9882 24.2233 16.9951C24.0921 17.002 23.9608 16.983 23.837 16.9392C23.7131 16.8953 23.5991 16.8275 23.5014 16.7396C23.4038 16.6518 23.3244 16.5455 23.2678 16.4269C23.2112 16.3084 23.1786 16.1798 23.1716 16.0486C23.1647 15.9174 23.1838 15.7861 23.2276 15.6623C23.3648 15.277 23.56 14.9149 23.8063 14.5885C24.4448 13.7413 25.3937 13.1825 26.4443 13.0349C27.4949 12.8873 28.561 13.1631 29.4082 13.8017C30.2554 14.4402 30.8143 15.3891 30.9618 16.4396C31.1094 17.4902 30.8336 18.5563 30.1951 19.4035L26.0001 24.9998H30.0001C30.2653 24.9998 30.5197 25.1051 30.7072 25.2927C30.8947 25.4802 31.0001 25.7346 31.0001 25.9998ZM18.6551 6.24978C18.5558 6.16371 18.4405 6.09805 18.3158 6.05655C18.1912 6.01505 18.0595 5.99853 17.9285 6.00793C17.7974 6.01734 17.6695 6.05248 17.552 6.11135C17.4345 6.17022 17.3298 6.25167 17.2438 6.35103L11.5001 12.9723L5.75633 6.34728C5.57724 6.16931 5.33746 6.06567 5.08513 6.05717C4.83279 6.04866 4.58658 6.13592 4.39591 6.30143C4.20525 6.46693 4.08424 6.69844 4.05719 6.94946C4.03014 7.20049 4.09905 7.45246 4.25008 7.65478L10.1763 14.4998L4.25008 21.3448C4.07636 21.5454 3.98944 21.8067 4.00843 22.0714C4.02741 22.336 4.15076 22.5823 4.35133 22.756C4.5519 22.9298 4.81326 23.0167 5.07793 22.9977C5.34259 22.9787 5.58886 22.8554 5.76258 22.6548L11.5126 16.0298L17.2563 22.6548C17.3423 22.7541 17.4471 22.8355 17.5646 22.8943C17.682 22.9532 17.8099 22.9883 17.941 22.9977C18.072 23.0071 18.2036 22.9906 18.3283 22.9491C18.453 22.9077 18.5683 22.842 18.6676 22.756C18.7669 22.67 18.8483 22.5653 18.9071 22.4478C18.966 22.3303 19.0011 22.2024 19.0105 22.0714C19.0199 21.9403 19.0034 21.8087 18.9619 21.684C18.9205 21.5594 18.8548 21.4441 18.7688 21.3448L12.8238 14.4998L18.7563 7.65478C18.9282 7.45461 19.014 7.1946 18.9951 6.93143C18.9761 6.66826 18.8539 6.42325 18.6551 6.24978Z" fill="#222222"/>
</svg>
