<svg width="32" height="32" viewBox="0 0 32 32" fill="none" xmlns="http://www.w3.org/2000/svg">
<path d="M31.0001 17.9999C31.0001 18.2651 30.8947 18.5195 30.7072 18.707C30.5196 18.8946 30.2653 18.9999 30.0001 18.9999H24.0001C23.8144 18.9999 23.6323 18.9482 23.4743 18.8506C23.3164 18.7529 23.1887 18.6133 23.1057 18.4471C23.0226 18.281 22.9874 18.0951 23.0041 17.9101C23.0208 17.7252 23.0887 17.5485 23.2001 17.3999L28.5963 10.2062C28.7691 9.97592 28.8902 9.71106 28.9512 9.42972C29.0122 9.14838 29.0118 8.85718 28.9499 8.57602C28.888 8.29486 28.7662 8.03037 28.5927 7.80062C28.4193 7.57088 28.1982 7.38129 27.9447 7.24481C27.6913 7.10834 27.4113 7.0282 27.124 7.00986C26.8367 6.99152 26.5488 7.03542 26.2801 7.13857C26.0113 7.24171 25.768 7.40166 25.5667 7.60749C25.3654 7.81332 25.2109 8.06017 25.1138 8.33118C25.0701 8.45504 25.0024 8.56906 24.9146 8.66674C24.8267 8.76443 24.7205 8.84386 24.602 8.9005C24.4835 8.95715 24.355 8.98989 24.2239 8.99687C24.0927 9.00385 23.9614 8.98493 23.8376 8.94118C23.7137 8.89744 23.5997 8.82972 23.502 8.74191C23.4043 8.6541 23.3249 8.5479 23.2683 8.42939C23.2116 8.31088 23.1789 8.18238 23.1719 8.05121C23.1649 7.92004 23.1838 7.78879 23.2276 7.66493C23.4202 7.12159 23.728 6.6263 24.1299 6.21299C24.5317 5.79968 25.0182 5.47812 25.5559 5.27033C26.0937 5.06255 26.6699 4.97345 27.2453 5.00914C27.8207 5.04483 28.3815 5.20446 28.8895 5.47711C29.3974 5.74975 29.8404 6.12896 30.1881 6.58877C30.5358 7.04857 30.7801 7.5781 30.9041 8.14109C31.0281 8.70407 31.0289 9.28721 30.9065 9.85055C30.7842 10.4139 30.5415 10.9441 30.1951 11.4049L26.0001 16.9999H30.0001C30.2653 16.9999 30.5196 17.1053 30.7072 17.2928C30.8947 17.4804 31.0001 17.7347 31.0001 17.9999ZM18.6551 9.24993C18.5559 9.16378 18.4407 9.09803 18.316 9.05643C18.1914 9.01483 18.0598 8.9982 17.9287 9.00748C17.7977 9.01677 17.6697 9.0518 17.5522 9.11056C17.4347 9.16931 17.3299 9.25066 17.2438 9.34993L11.5001 15.9737L5.75633 9.34868C5.57703 9.17224 5.33783 9.06985 5.0864 9.06194C4.83497 9.05402 4.58979 9.14115 4.39975 9.30596C4.20971 9.47077 4.08876 9.70115 4.06102 9.95117C4.03328 10.2012 4.10078 10.4525 4.25008 10.6549L10.1763 17.4999L4.25008 24.3449C4.16406 24.4442 4.09845 24.5595 4.05699 24.6842C4.01552 24.8089 3.99902 24.9405 4.00842 25.0715C4.01783 25.2026 4.05295 25.3305 4.11178 25.448C4.17062 25.5654 4.25202 25.6702 4.35133 25.7562C4.5519 25.9299 4.81326 26.0168 5.07792 25.9978C5.20897 25.9884 5.33688 25.9533 5.45435 25.8945C5.57183 25.8356 5.67656 25.7542 5.76258 25.6549L11.5126 19.0299L17.2563 25.6549C17.43 25.8555 17.6763 25.9788 17.941 25.9978C18.2056 26.0168 18.467 25.9299 18.6676 25.7562C18.8681 25.5825 18.9915 25.3362 19.0105 25.0715C19.0295 24.8069 18.9425 24.5455 18.7688 24.3449L12.8238 17.4999L18.7563 10.6549C18.9282 10.4548 19.014 10.1948 18.9951 9.93158C18.9761 9.66841 18.8539 9.4234 18.6551 9.24993Z" fill="#222222"/>
</svg>
