<svg width="32" height="32" viewBox="0 0 32 32" fill="none" xmlns="http://www.w3.org/2000/svg">
<path d="M26.707 24.2923C26.7999 24.3852 26.8736 24.4955 26.9239 24.6169C26.9742 24.7383 27.0001 24.8684 27.0001 24.9998C27.0001 25.1312 26.9742 25.2613 26.9239 25.3827C26.8736 25.5041 26.7999 25.6144 26.707 25.7073C26.6141 25.8002 26.5038 25.8739 26.3824 25.9242C26.261 25.9745 26.1309 26.0003 25.9995 26.0003C25.8681 26.0003 25.738 25.9745 25.6166 25.9242C25.4952 25.8739 25.3849 25.8002 25.292 25.7073L22.9995 23.4135L20.707 25.7073C20.5194 25.8949 20.2649 26.0003 19.9995 26.0003C19.7342 26.0003 19.4797 25.8949 19.292 25.7073C19.1044 25.5197 18.999 25.2652 18.999 24.9998C18.999 24.7344 19.1044 24.4799 19.292 24.2923L21.5858 21.9998L19.292 19.7073C19.1044 19.5197 18.999 19.2652 18.999 18.9998C18.999 18.7344 19.1044 18.4799 19.292 18.2923C19.4797 18.1047 19.7342 17.9992 19.9995 17.9992C20.2649 17.9992 20.5194 18.1047 20.707 18.2923L22.9995 20.586L25.292 18.2923C25.4797 18.1047 25.7342 17.9992 25.9995 17.9992C26.2649 17.9992 26.5194 18.1047 26.707 18.2923C26.8947 18.4799 27.0001 18.7344 27.0001 18.9998C27.0001 19.2652 26.8947 19.5197 26.707 19.7073L24.4133 21.9998L26.707 24.2923ZM19.6758 15.0123C20.2164 14.9686 20.7602 15.0352 21.2742 15.2082C21.7882 15.3812 22.2617 15.6569 22.6658 16.0185C22.7575 16.1008 22.8764 16.1462 22.9995 16.1462C23.1227 16.1462 23.2416 16.1008 23.3333 16.0185C23.9512 15.4615 24.7279 15.1119 25.5545 15.0185C25.6774 15.0049 25.7909 14.9463 25.873 14.854C25.9552 14.7617 26.0003 14.6421 25.9995 14.5185V5.05729C26.0042 4.66957 25.8989 4.28845 25.6958 3.95814C25.4927 3.62783 25.2001 3.36185 24.852 3.19104C24.4794 3.01533 24.0616 2.95897 23.6558 3.02967C23.2499 3.10037 22.8758 3.29468 22.5845 3.58604L2.58454 23.586C2.29324 23.8771 2.09886 24.2509 2.02794 24.6565C1.95702 25.0621 2.01302 25.4797 2.18829 25.8523C2.35916 26.2009 2.6255 26.4938 2.95633 26.6969C3.28715 26.9001 3.66886 27.0051 4.05704 26.9998H15.757C15.8366 26.9997 15.915 26.9807 15.9858 26.9442C16.0565 26.9077 16.1175 26.8549 16.1638 26.7901C16.21 26.7253 16.24 26.6504 16.2515 26.5717C16.2629 26.4929 16.2554 26.4126 16.2295 26.3373C15.9903 25.6611 15.9373 24.933 16.076 24.2293C16.2148 23.5255 16.5403 22.8721 17.0183 22.3373C17.1005 22.2456 17.146 22.1267 17.146 22.0035C17.146 21.8804 17.1005 21.7615 17.0183 21.6698C16.5218 21.1148 16.1901 20.4323 16.0606 19.699C15.931 18.9657 16.0087 18.2108 16.2849 17.5193C16.561 16.8278 17.0248 16.2271 17.6239 15.7848C18.223 15.3426 18.9336 15.0763 19.6758 15.016V15.0123Z" fill="#222222"/>
</svg>
