<svg width="32" height="32" viewBox="0 0 32 32" fill="none" xmlns="http://www.w3.org/2000/svg">
<path d="M31 16.0901C30.9785 18.9639 29.8299 21.7145 27.8013 23.7501C27.7533 23.7974 27.6962 23.8345 27.6335 23.8592C27.5708 23.8839 27.5037 23.8957 27.4364 23.8938C27.369 23.892 27.3027 23.8765 27.2415 23.8484C27.1802 23.8202 27.1253 23.78 27.08 23.7301L12.9725 8.20883C12.9271 8.15899 12.8923 8.10048 12.8701 8.03683C12.8479 7.97318 12.8388 7.9057 12.8434 7.83844C12.8479 7.77118 12.866 7.70554 12.8966 7.64546C12.9272 7.58538 12.9696 7.53211 13.0213 7.48883C15.0176 5.8516 17.5271 4.97039 20.1088 5.00008C26.1438 5.05883 31.0475 10.0538 31 16.0901ZM6.74001 4.32758C6.65219 4.22859 6.5456 4.14801 6.42641 4.09052C6.30722 4.03303 6.17781 3.99976 6.04567 3.99265C5.91353 3.98555 5.78129 4.00473 5.65662 4.04911C5.53195 4.09348 5.41733 4.16216 5.3194 4.25116C5.22147 4.34016 5.14217 4.44771 5.08611 4.56758C5.03006 4.68745 4.99834 4.81725 4.99282 4.94947C4.9873 5.08168 5.00807 5.21368 5.05393 5.33781C5.0998 5.46194 5.16985 5.57573 5.26001 5.67258L10.1663 11.0701L10.1588 11.0838C9.01181 10.9158 7.84204 10.999 6.73043 11.3277C5.61882 11.6564 4.59192 12.2228 3.72083 12.9876C2.84974 13.7524 2.15525 14.6974 1.68546 15.7571C1.21567 16.8169 0.98179 17.966 1.00001 19.1251C1.06626 23.5151 4.73001 27.0001 9.12501 27.0001H20C21.3588 27.0007 22.7059 26.7484 23.9725 26.2563L25.26 27.6726C25.3486 27.7701 25.4555 27.8492 25.5747 27.9053C25.6939 27.9614 25.823 27.9934 25.9546 27.9994C26.0862 28.0055 26.2177 27.9855 26.3416 27.9405C26.4654 27.8956 26.5792 27.8266 26.6763 27.7376C26.867 27.5486 26.9773 27.2933 26.984 27.0249C26.9908 26.7565 26.8935 26.4959 26.7125 26.2976L6.74001 4.32758Z" fill="#222222"/>
</svg>
