<svg width="32" height="32" viewBox="0 0 32 32" fill="none" xmlns="http://www.w3.org/2000/svg">
<path d="M25.7073 27.7073L22.7073 30.7073C22.5675 30.8473 22.3892 30.9427 22.1951 30.9813C22.001 31.02 21.7998 31.0002 21.617 30.9244C21.4342 30.8487 21.278 30.7204 21.1681 30.5558C21.0582 30.3912 20.9997 30.1977 20.9998 29.9998V27.9998H9.99981C9.20416 27.9998 8.4411 27.6837 7.87849 27.1211C7.31588 26.5585 6.99981 25.7955 6.99981 24.9998V12.9998C6.99981 12.7346 7.10517 12.4802 7.2927 12.2927C7.48024 12.1052 7.73459 11.9998 7.99981 11.9998C8.26503 11.9998 8.51938 12.1052 8.70692 12.2927C8.89445 12.4802 8.99981 12.7346 8.99981 12.9998V24.9998C8.99981 25.265 9.10517 25.5194 9.2927 25.7069C9.48024 25.8945 9.73459 25.9998 9.99981 25.9998H20.9998V23.9998C20.9997 23.8019 21.0582 23.6084 21.1681 23.4438C21.278 23.2792 21.4342 23.1509 21.617 23.0752C21.7998 22.9994 22.001 22.9796 22.1951 23.0183C22.3892 23.0569 22.5675 23.1523 22.7073 23.2923L25.7073 26.2923C25.8003 26.3852 25.874 26.4955 25.9244 26.6169C25.9747 26.7383 26.0006 26.8684 26.0006 26.9998C26.0006 27.1312 25.9747 27.2614 25.9244 27.3828C25.874 27.5042 25.8003 27.6144 25.7073 27.7073ZM9.99981 8.99981C10.265 8.99981 10.5194 8.89445 10.7069 8.70692C10.8945 8.51938 10.9998 8.26503 10.9998 7.99981V5.99981H21.9998C22.265 5.99981 22.5194 6.10517 22.7069 6.2927C22.8945 6.48024 22.9998 6.73459 22.9998 6.99981V18.9998C22.9998 19.265 23.1052 19.5194 23.2927 19.7069C23.4802 19.8945 23.7346 19.9998 23.9998 19.9998C24.265 19.9998 24.5194 19.8945 24.7069 19.7069C24.8945 19.5194 24.9998 19.265 24.9998 18.9998V6.99981C24.9998 6.20416 24.6837 5.4411 24.1211 4.87849C23.5585 4.31588 22.7955 3.99981 21.9998 3.99981H10.9998V1.99981C11 1.80192 10.9414 1.60842 10.8315 1.44383C10.7217 1.27923 10.5654 1.15094 10.3826 1.07519C10.1998 0.999436 9.99859 0.979631 9.8045 1.01828C9.61042 1.05693 9.43217 1.1523 9.29231 1.29231L6.29231 4.29231C6.19933 4.38518 6.12557 4.49547 6.07525 4.61687C6.02493 4.73827 5.99902 4.8684 5.99902 4.99981C5.99902 5.13123 6.02493 5.26135 6.07525 5.38275C6.12557 5.50415 6.19933 5.61444 6.29231 5.70731L9.29231 8.70731C9.38525 8.80015 9.49557 8.87376 9.61696 8.92395C9.73836 8.97413 9.86845 8.99991 9.99981 8.99981Z" fill="#222222"/>
</svg>
