<svg width="32" height="32" viewBox="0 0 32 32" fill="none" xmlns="http://www.w3.org/2000/svg">
<path d="M30 19.0002V22.0002C30 22.5306 29.7893 23.0393 29.4142 23.4144C29.0391 23.7895 28.5304 24.0002 28 24.0002H14.4913C14.399 24.0003 14.3086 23.9748 14.2299 23.9267C14.1512 23.8786 14.0874 23.8096 14.0455 23.7275C14.0036 23.6453 13.9852 23.5532 13.9924 23.4612C13.9996 23.3693 14.0321 23.2811 14.0863 23.2065L21.7838 12.6252C21.9433 12.4133 22.0146 12.1478 21.9827 11.8845C21.9507 11.6211 21.8181 11.3804 21.6125 11.2127C21.5067 11.1306 21.3856 11.0707 21.2562 11.0363C21.1268 11.0019 20.9918 10.9939 20.8593 11.0127C20.7268 11.0314 20.5993 11.0766 20.4846 11.1456C20.3698 11.2145 20.2701 11.3058 20.1912 11.414L11.1912 23.7965C11.1441 23.8606 11.0823 23.9126 11.0109 23.948C10.9396 23.9835 10.8609 24.0013 10.7812 24.0002H4C3.46957 24.0002 2.96086 23.7895 2.58579 23.4144C2.21071 23.0393 2 22.5306 2 22.0002V19.1415C2 18.9177 2 18.6952 2.01625 18.4752C2.02267 18.347 2.07817 18.2261 2.17125 18.1377C2.26433 18.0493 2.38786 18 2.51625 18.0002H6C6.13709 18.0005 6.27277 17.9726 6.39863 17.9183C6.52448 17.8639 6.63782 17.7843 6.7316 17.6843C6.82538 17.5843 6.8976 17.4661 6.94377 17.337C6.98994 17.2079 7.00908 17.0707 7 16.934C6.97788 16.6764 6.85889 16.4368 6.66704 16.2635C6.47519 16.0902 6.22475 15.9961 5.96625 16.0002H2.99C2.91372 16.0001 2.83847 15.9826 2.77 15.949C2.70153 15.9154 2.64166 15.8666 2.59497 15.8062C2.54829 15.7459 2.51602 15.6757 2.50064 15.601C2.48526 15.5263 2.48718 15.4491 2.50625 15.3752C4.00625 9.8952 8.71375 5.73395 14.4462 5.0902C14.5163 5.08263 14.5871 5.08994 14.6541 5.11165C14.7211 5.13337 14.7828 5.16899 14.8351 5.2162C14.8874 5.26341 14.9291 5.32113 14.9575 5.38558C14.9859 5.45003 15.0004 5.51976 15 5.5902V9.0002C14.9997 9.13729 15.0276 9.27298 15.0819 9.39883C15.1363 9.52469 15.2159 9.63802 15.3159 9.7318C15.4159 9.82558 15.5341 9.8978 15.6632 9.94397C15.7923 9.99015 15.9295 10.0093 16.0662 10.0002C16.3238 9.97809 16.5634 9.8591 16.7367 9.66724C16.91 9.47539 17.0041 9.22495 17 8.96645V5.58395C16.9996 5.51351 17.0141 5.44378 17.0425 5.37933C17.0709 5.31488 17.1126 5.25716 17.1649 5.20995C17.2172 5.16274 17.2789 5.12712 17.3459 5.1054C17.4129 5.08369 17.4837 5.07638 17.5537 5.08395C20.3524 5.39844 22.9915 6.54834 25.1274 8.38392C27.2633 10.2195 28.797 12.6557 29.5287 15.3752C29.5478 15.4492 29.5497 15.5265 29.5343 15.6013C29.5189 15.6761 29.4865 15.7464 29.4396 15.8067C29.3928 15.8671 29.3328 15.9159 29.2642 15.9494C29.1955 15.983 29.1201 16.0003 29.0438 16.0002H26.0338C25.7757 15.9967 25.5259 16.0911 25.3345 16.2643C25.1432 16.4376 25.0246 16.6768 25.0025 16.934C24.9934 17.0707 25.0126 17.2079 25.0587 17.337C25.1049 17.4661 25.1771 17.5843 25.2709 17.6843C25.3647 17.7843 25.478 17.8639 25.6039 17.9183C25.7297 17.9726 25.8654 18.0005 26.0025 18.0002H29.4925C29.6221 18.0001 29.7467 18.0504 29.84 18.1404C29.9333 18.2304 29.988 18.3532 29.9925 18.4827C30 18.654 30 18.8265 30 19.0002Z" fill="#222222"/>
</svg>
