<svg width="32" height="32" viewBox="0 0 32 32" fill="none" xmlns="http://www.w3.org/2000/svg">
<path d="M29.7427 13.4014C29.7149 13.2606 29.657 13.1274 29.5731 13.0109C29.4892 12.8945 29.3812 12.7974 29.2565 12.7264L25.5277 10.6014L25.5127 6.39889C25.5123 6.25416 25.4804 6.11125 25.4193 5.98003C25.3583 5.84882 25.2694 5.73242 25.159 5.63889C23.8064 4.49476 22.2488 3.61797 20.569 3.05514C20.4367 3.01036 20.2965 2.99379 20.1574 3.0065C20.0184 3.0192 19.8835 3.06089 19.7615 3.12889L16.0002 5.23139L12.2352 3.12514C12.1132 3.05676 11.9781 3.01475 11.8388 3.00183C11.6995 2.98891 11.559 3.00537 11.4265 3.05014C9.7477 3.61659 8.19179 4.49677 6.84149 5.64389C6.7312 5.73729 6.64246 5.85348 6.58139 5.98446C6.52032 6.11545 6.48837 6.25812 6.48774 6.40264L6.46899 10.6089L2.74024 12.7339C2.61549 12.8049 2.50749 12.902 2.42359 13.0184C2.33969 13.1349 2.28184 13.2681 2.25399 13.4089C1.91273 15.1237 1.91273 16.889 2.25399 18.6039C2.28184 18.7447 2.33969 18.8779 2.42359 18.9944C2.50749 19.1108 2.61549 19.2079 2.74024 19.2789L6.46899 21.4039L6.48399 25.6076C6.48444 25.7524 6.51631 25.8953 6.57738 26.0265C6.63846 26.1577 6.72729 26.2741 6.83774 26.3676C8.19033 27.5118 9.74793 28.3886 11.4277 28.9514C11.56 28.9962 11.7002 29.0127 11.8393 29C11.9784 28.9873 12.1133 28.9456 12.2352 28.8776L16.0002 26.7689L19.7652 28.8751C19.9142 28.9582 20.0822 29.0012 20.2527 29.0001C20.362 29.0001 20.4704 28.9824 20.574 28.9476C22.2524 28.3814 23.8082 27.5022 25.159 26.3564C25.2693 26.263 25.358 26.1468 25.4191 26.0158C25.4802 25.8848 25.5121 25.7422 25.5127 25.5976L25.5315 21.3914L29.2602 19.2664C29.385 19.1954 29.493 19.0983 29.5769 18.9819C29.6608 18.8654 29.7186 18.7322 29.7465 18.5914C30.0858 16.8779 30.0846 15.1144 29.7427 13.4014ZM16.0002 21.0001C15.0113 21.0001 14.0446 20.7069 13.2224 20.1575C12.4001 19.6081 11.7593 18.8272 11.3808 17.9136C11.0024 16.9999 10.9034 15.9946 11.0963 15.0247C11.2892 14.0548 11.7654 13.1639 12.4647 12.4646C13.164 11.7653 14.0549 11.2891 15.0248 11.0962C15.9947 10.9033 17 11.0023 17.9137 11.3807C18.8273 11.7592 19.6082 12.4 20.1576 13.2223C20.707 14.0445 21.0002 15.0112 21.0002 16.0001C21.0002 17.3262 20.4735 18.598 19.5358 19.5357C18.5981 20.4734 17.3263 21.0001 16.0002 21.0001Z" fill="#222222"/>
</svg>
