<svg width="32" height="32" viewBox="0 0 32 32" fill="none" xmlns="http://www.w3.org/2000/svg">
<path d="M22.0002 28.9998C22.0002 29.265 21.8948 29.5193 21.7073 29.7069C21.5197 29.8944 21.2654 29.9998 21.0002 29.9998H11.0002C10.7349 29.9998 10.4806 29.8944 10.2931 29.7069C10.1055 29.5193 10.0002 29.265 10.0002 28.9998C10.0002 28.7346 10.1055 28.4802 10.2931 28.2927C10.4806 28.1051 10.7349 27.9998 11.0002 27.9998H21.0002C21.2654 27.9998 21.5197 28.1051 21.7073 28.2927C21.8948 28.4802 22.0002 28.7346 22.0002 28.9998ZM27.0002 12.9998C27.0045 14.6668 26.6279 16.3128 25.8991 17.8122C25.1704 19.3115 24.1087 20.6245 22.7952 21.651C22.5496 21.8393 22.3502 22.0812 22.2125 22.3583C22.0747 22.6354 22.0021 22.9403 22.0002 23.2498V23.9998C22.0002 24.5302 21.7894 25.0389 21.4144 25.414C21.0393 25.7891 20.5306 25.9998 20.0002 25.9998H12.0002C11.4697 25.9998 10.961 25.7891 10.586 25.414C10.2109 25.0389 10.0002 24.5302 10.0002 23.9998V23.2498C9.99996 22.944 9.92965 22.6424 9.79465 22.368C9.65965 22.0937 9.46355 21.854 9.22141 21.6673C7.91116 20.6468 6.85022 19.3417 6.11889 17.8507C5.38755 16.3596 5.00499 14.7218 5.00016 13.061C4.96766 7.10352 9.78266 2.14227 15.7352 1.99977C17.2018 1.96443 18.6608 2.22284 20.0261 2.7598C21.3914 3.29675 22.6355 4.1014 23.6852 5.12639C24.7349 6.15137 25.5689 7.37598 26.1382 8.72814C26.7075 10.0803 27.0006 11.5327 27.0002 12.9998ZM20.7077 13.2923C20.6148 13.1993 20.5045 13.1255 20.3831 13.0752C20.2617 13.0249 20.1316 12.999 20.0002 12.999C19.8687 12.999 19.7386 13.0249 19.6172 13.0752C19.4958 13.1255 19.3855 13.1993 19.2927 13.2923L16.0002 16.586L12.7077 13.2923C12.52 13.1046 12.2655 12.9992 12.0002 12.9992C11.7348 12.9992 11.4803 13.1046 11.2927 13.2923C11.105 13.4799 10.9996 13.7344 10.9996 13.9998C10.9996 14.2651 11.105 14.5196 11.2927 14.7073L15.0002 18.4135V22.9998C15.0002 23.265 15.1055 23.5193 15.2931 23.7069C15.4806 23.8944 15.7349 23.9998 16.0002 23.9998C16.2654 23.9998 16.5197 23.8944 16.7073 23.7069C16.8948 23.5193 17.0002 23.265 17.0002 22.9998V18.4135L20.7077 14.7073C20.8006 14.6144 20.8744 14.5041 20.9247 14.3827C20.975 14.2613 21.0009 14.1312 21.0009 13.9998C21.0009 13.8684 20.975 13.7382 20.9247 13.6168C20.8744 13.4954 20.8006 13.3851 20.7077 13.2923Z" fill="#222222"/>
</svg>
