<svg width="32" height="32" viewBox="0 0 32 32" fill="none" xmlns="http://www.w3.org/2000/svg">
<path d="M27.7342 11.3574C27.6933 11.2955 27.6391 11.2435 27.5756 11.2051C27.5121 11.1667 27.4408 11.1429 27.367 11.1355C27.2931 11.1281 27.2186 11.1372 27.1487 11.1622C27.0788 11.1872 27.0154 11.2274 26.963 11.2799L17.5355 20.7074C17.3447 20.877 17.0962 20.9672 16.8411 20.9595C16.5859 20.9519 16.3434 20.8469 16.1631 20.6661C15.9828 20.4854 15.8785 20.2426 15.8715 19.9874C15.8645 19.7322 15.9554 19.484 16.1255 19.2937L27.713 7.70744C27.8059 7.61453 27.8796 7.50423 27.9299 7.38284C27.9801 7.26144 28.006 7.13133 28.006 6.99994C28.006 6.86854 27.9801 6.73844 27.9299 6.61704C27.8796 6.49565 27.8059 6.38535 27.713 6.29244C27.62 6.19953 27.5097 6.12583 27.3884 6.07555C27.267 6.02526 27.1369 5.99938 27.0055 5.99938C26.8741 5.99938 26.744 6.02526 26.6226 6.07555C26.5012 6.12583 26.3909 6.19953 26.298 6.29244L24.6255 7.96619C22.2386 6.10203 19.3118 5.06176 16.2838 5.00133C13.2558 4.94089 10.2898 5.86355 7.83047 7.63098C5.37111 9.39841 3.55088 11.9154 2.64267 14.8046C1.73445 17.6938 1.78718 20.7995 2.79296 23.6562C2.93076 24.0479 3.1864 24.3873 3.52479 24.6279C3.86319 24.8685 4.26775 24.9984 4.68296 24.9999H27.3167C27.7315 25.0002 28.1361 24.8715 28.4745 24.6316C28.8129 24.3918 29.0683 24.0526 29.2055 23.6612C29.9183 21.6345 30.1563 19.4713 29.9012 17.3382C29.6461 15.205 28.9048 13.1589 27.7342 11.3574ZM7.18046 20.8012C7.23316 21.0611 7.18045 21.3313 7.03394 21.5524C6.88743 21.7734 6.65911 21.9272 6.39921 21.9799C6.3334 21.9934 6.26638 22.0001 6.19921 21.9999C5.96872 21.9996 5.7454 21.9197 5.56705 21.7737C5.38871 21.6277 5.26627 21.4246 5.22046 21.1987C4.86286 19.4384 4.94149 17.6173 5.44948 15.8944C5.95747 14.1715 6.87938 12.599 8.13477 11.3143C9.39016 10.0296 10.9409 9.07158 12.6516 8.52393C14.3623 7.97628 16.1811 7.8556 17.9492 8.17244C18.2103 8.21918 18.4421 8.36772 18.5936 8.58538C18.7452 8.80304 18.8041 9.07199 18.7573 9.33306C18.7106 9.59414 18.562 9.82595 18.3444 9.9775C18.1267 10.1291 17.8578 10.1879 17.5967 10.1412C16.1498 9.88216 14.6616 9.98109 13.2617 10.4294C11.8619 10.8776 10.593 11.6616 9.56574 12.7129C8.53848 13.7642 7.78406 15.0509 7.36829 16.4607C6.95252 17.8706 6.88804 19.3607 7.18046 20.8012Z" fill="#222222"/>
</svg>
