<svg width="32" height="32" viewBox="0 0 32 32" fill="none" xmlns="http://www.w3.org/2000/svg">
<path d="M30 21.6562C29.9999 22.7608 29.6966 23.8283 29.1456 24.6633C28.5947 25.4982 27.8329 26.0446 27 26.2024V32.8125C27 33.5087 26.7893 34.1764 26.4142 34.6687C26.0391 35.1609 25.5304 35.4375 25 35.4375H7C6.46957 35.4375 5.96086 35.1609 5.58579 34.6687C5.21071 34.1764 5 33.5087 5 32.8125V26.2024C4.33598 26.0766 3.7135 25.703 3.20669 25.126C2.69987 24.5491 2.33008 23.7931 2.14134 22.9481C1.95261 22.1031 1.95289 21.2047 2.14215 20.3599C2.33141 19.5151 2.70167 18.7595 3.20885 18.1831C3.71602 17.6067 4.33873 17.2337 5.00283 17.1086C5.66692 16.9835 6.34442 17.1116 6.95463 17.4776C7.56484 17.8435 8.08206 18.432 8.44468 19.1728C8.80731 19.9137 9.00007 20.7757 9 21.6562V27.5625C9 27.9106 9.10536 28.2444 9.29289 28.4906C9.48043 28.7367 9.73478 28.875 10 28.875C10.2652 28.875 10.5196 28.7367 10.7071 28.4906C10.8946 28.2444 11 27.9106 11 27.5625V23.625H21V27.5625C21 27.9106 21.1054 28.2444 21.2929 28.4906C21.4804 28.7367 21.7348 28.875 22 28.875C22.2652 28.875 22.5196 28.7367 22.7071 28.4906C22.8946 28.2444 23 27.9106 23 27.5625V21.6562C23 20.4379 23.3687 19.2695 24.0251 18.408C24.6815 17.5465 25.5717 17.0625 26.5 17.0625C27.4283 17.0625 28.3185 17.5465 28.9749 18.408C29.6313 19.2695 30 20.4379 30 21.6562ZM5.5 14.4375C6.87147 14.4401 8.19288 15.1141 9.2057 16.3278C10.2185 17.5416 10.8499 19.2076 10.9762 21H21.0238C21.1501 19.2076 21.7815 17.5416 22.7943 16.3278C23.8071 15.1141 25.1285 14.4401 26.5 14.4375C26.6326 14.4375 26.7598 14.3684 26.8536 14.2453C26.9473 14.1222 27 13.9553 27 13.7812V11.8125C27 10.072 26.4732 8.40282 25.5355 7.17211C24.5979 5.9414 23.3261 5.25 22 5.25H10C8.67392 5.25 7.40215 5.9414 6.46447 7.17211C5.52678 8.40282 5 10.072 5 11.8125V13.7812C5 13.9553 5.05268 14.1222 5.14645 14.2453C5.24021 14.3684 5.36739 14.4375 5.5 14.4375Z" fill="#222222"/>
</svg>
