<svg width="32" height="32" viewBox="0 0 32 32" fill="none" xmlns="http://www.w3.org/2000/svg">
<path d="M30.7072 5.29251L26.7072 1.29251C26.5196 1.10487 26.2651 0.999451 25.9997 0.999451C25.7343 0.999451 25.4798 1.10487 25.2922 1.29251C25.1046 1.48015 24.9991 1.73464 24.9991 2.00001C24.9991 2.26537 25.1046 2.51987 25.2922 2.70751L25.4772 2.89126L18.581 8.06376L13.8035 9.02001C13.61 9.05876 13.4322 9.15352 13.2922 9.29251L2.8747 19.7075C2.31214 20.2701 1.99609 21.0331 1.99609 21.8288C1.99609 22.6244 2.31214 23.3874 2.8747 23.95L8.0497 29.125C8.61231 29.6876 9.37534 30.0036 10.171 30.0036C10.9666 30.0036 11.7296 29.6876 12.2922 29.125L22.7072 18.7113C22.8465 18.5715 22.9413 18.3936 22.9797 18.2L23.936 13.4225L29.1085 6.52626L29.2922 6.71126C29.3851 6.80417 29.4954 6.87787 29.6168 6.92815C29.7382 6.97843 29.8683 7.00431 29.9997 7.00431C30.1311 7.00431 30.2612 6.97843 30.3826 6.92815C30.504 6.87787 30.6143 6.80417 30.7072 6.71126C30.8001 6.61835 30.8738 6.50805 30.9241 6.38665C30.9744 6.26526 31.0003 6.13515 31.0003 6.00376C31.0003 5.87236 30.9744 5.74225 30.9241 5.62086C30.8738 5.49947 30.8001 5.38917 30.7072 5.29626V5.29251ZM10.171 28C10.0397 28.0004 9.90976 27.9747 9.78854 27.9245C9.66731 27.8743 9.55724 27.8005 9.4647 27.7075L4.2922 22.535C4.10481 22.3475 3.99954 22.0932 3.99954 21.8281C3.99954 21.563 4.10481 21.3088 4.2922 21.1213L4.9997 20.4138L11.586 27L10.8747 27.7075C10.6879 27.8941 10.4349 27.9992 10.171 28ZM22.1997 12.4C22.11 12.5193 22.0485 12.6573 22.0197 12.8038L21.0785 17.5075L19.9997 18.5863L13.4135 12L14.4922 10.9213L19.196 9.98001C19.3424 9.9512 19.4804 9.88967 19.5997 9.80001L26.906 4.32001L27.6797 5.09376L22.1997 12.4Z" fill="#222222"/>
</svg>
