<svg width="32" height="32" viewBox="0 0 32 32" fill="none" xmlns="http://www.w3.org/2000/svg">
<path d="M28 13H26.9538C26.7025 10.2686 25.4398 7.7296 23.4134 5.88102C21.3869 4.03243 18.7429 3.00764 16 3.00764C13.2571 3.00764 10.6131 4.03243 8.58664 5.88102C6.5602 7.7296 5.29752 10.2686 5.04625 13H4C3.73478 13 3.48043 13.1054 3.29289 13.2929C3.10536 13.4804 3 13.7348 3 14C3.00439 16.3781 3.65887 18.7098 4.89264 20.7429C6.12641 22.776 7.89253 24.4331 10 25.535V26C10 26.5304 10.2107 27.0391 10.5858 27.4142C10.9609 27.7893 11.4696 28 12 28H20C20.5304 28 21.0391 27.7893 21.4142 27.4142C21.7893 27.0391 22 26.5304 22 26V25.535C24.1075 24.4331 25.8736 22.776 27.1074 20.7429C28.3411 18.7098 28.9956 16.3781 29 14C29 13.7348 28.8946 13.4804 28.7071 13.2929C28.5196 13.1054 28.2652 13 28 13ZM21.685 7.02874C21.9142 7.21624 22.1338 7.41416 22.3438 7.62249C19.6817 8.55893 17.4819 10.4835 16.2 12.9975H12.5125C13.1375 11.2455 14.2882 9.72925 15.8073 8.6558C17.3264 7.58235 19.1399 7.00408 21 6.99999C21.2288 6.99999 21.4575 7.01124 21.685 7.02874ZM18.515 13C19.7274 11.1811 21.5616 9.86689 23.6737 9.30374C24.3643 10.4271 24.7976 11.6894 24.9425 13H18.515ZM16 4.99999C16.8025 5.00052 17.6012 5.10857 18.375 5.32124C16.4905 5.78871 14.7626 6.74467 13.3653 8.09277C11.9681 9.44087 10.9509 11.1335 10.4163 13H7.0575C7.30556 10.8011 8.35415 8.77033 10.0034 7.29492C11.6526 5.81951 13.7871 5.00262 16 4.99999Z" fill="#222222"/>
</svg>
