<svg width="32" height="32" viewBox="0 0 32 32" fill="none" xmlns="http://www.w3.org/2000/svg">
<path d="M8.90203 23.8087C7.56314 24.4164 6.13463 24.8031 4.67203 24.9537C4.57546 24.9638 4.47806 24.9455 4.39171 24.9011C4.30536 24.8567 4.23381 24.7881 4.18578 24.7037C3.10203 22.7937 2.74578 20.4175 3.18578 17.81C3.74703 14.445 5.57203 11.0762 8.32578 8.32249C11.0795 5.56874 14.4508 3.74374 17.8133 3.18249C20.662 2.70874 23.2345 3.18249 25.2245 4.50749C25.306 4.56097 25.37 4.63707 25.4088 4.72645C25.4475 4.81583 25.4593 4.91459 25.4428 5.0106C25.4262 5.1066 25.3819 5.19566 25.3153 5.26683C25.2488 5.33801 25.1629 5.3882 25.0683 5.41124C24.1315 5.63453 23.2182 5.94678 22.3408 6.34374C19.6195 7.58124 16.1408 10.2262 15.0258 15.8062C14.262 19.5912 12.2033 22.2837 8.90203 23.8087ZM27.8133 7.29749C27.7653 7.21331 27.694 7.14488 27.6079 7.1005C27.5218 7.05611 27.4247 7.0377 27.3283 7.04749C25.8651 7.19719 24.436 7.58391 23.097 8.19249C19.7958 9.71749 17.737 12.41 16.9795 16.1925C15.8633 21.7725 12.3858 24.4175 9.66453 25.655C8.78713 26.0519 7.87381 26.3642 6.93703 26.5875C6.84024 26.6093 6.75214 26.6595 6.68393 26.7315C6.61573 26.8036 6.5705 26.8943 6.55402 26.9922C6.53753 27.09 6.55053 27.1905 6.59136 27.281C6.63218 27.3714 6.69899 27.4476 6.78328 27.5C8.26703 28.49 10.0733 29 12.077 29C12.7858 28.9979 13.4931 28.9377 14.192 28.82C17.5558 28.2587 20.9258 26.4337 23.6795 23.68C26.4333 20.9262 28.2583 17.555 28.8195 14.1925C29.2495 11.585 28.897 9.20749 27.8133 7.29749Z" fill="#222222"/>
</svg>
