<svg width="32" height="32" viewBox="0 0 32 32" fill="none" xmlns="http://www.w3.org/2000/svg">
<path d="M27.7859 15.3825L16.7859 1.38252C16.6924 1.26346 16.573 1.1672 16.4368 1.10101C16.3006 1.03482 16.1511 1.00043 15.9997 1.00043C15.8482 1.00043 15.6988 1.03482 15.5626 1.10101C15.4264 1.1672 15.307 1.26346 15.2134 1.38252L4.21343 15.3825C4.07516 15.5587 4 15.7761 4 16C4 16.2239 4.07516 16.4414 4.21343 16.6175L15.2134 30.6175C15.307 30.7366 15.4264 30.8328 15.5626 30.899C15.6988 30.9652 15.8482 30.9996 15.9997 30.9996C16.1511 30.9996 16.3006 30.9652 16.4368 30.899C16.573 30.8328 16.6924 30.7366 16.7859 30.6175L27.7859 16.6175C27.9242 16.4414 27.9994 16.2239 27.9994 16C27.9994 15.7761 27.9242 15.5587 27.7859 15.3825ZM16.9997 19.4475V4.89127L25.4272 15.6163L16.9997 19.4475ZM14.9997 19.4475L6.57218 15.6163L14.9997 4.89127V19.4475ZM14.9997 21.6438V27.1088L8.32093 18.6088L14.9997 21.6438Z" fill="#222222"/>
</svg>
