<svg width="32" height="32" viewBox="0 0 32 32" fill="none" xmlns="http://www.w3.org/2000/svg">
<path d="M8.28287 10.0288C8.14499 9.8033 8.05546 9.55166 8.01995 9.28979C7.98445 9.02792 8.00375 8.76152 8.07662 8.5075C8.1262 8.29661 8.21069 8.09551 8.32662 7.9125L11.0004 4.0875V1C11.0001 0.862912 11.028 0.727227 11.0823 0.601371C11.1367 0.475516 11.2163 0.362178 11.3163 0.268399C11.4163 0.174619 11.5345 0.102401 11.6636 0.0562287C11.7926 0.0100567 11.9298 -0.00908249 12.0666 -8.33534e-08C12.3242 0.022118 12.5638 0.141106 12.7371 0.33296C12.9104 0.524813 13.0045 0.775251 13.0004 1.03375V4.0525L13.6566 4.875C13.9423 5.23328 14.3065 5.52108 14.7212 5.71615C15.1358 5.91122 15.5897 6.00834 16.0479 6C16.5003 5.9872 16.9444 5.87496 17.3486 5.67124C17.7528 5.46753 18.1072 5.17733 18.3866 4.82125L19.0004 4.0525V1C19.0001 0.862912 19.028 0.727227 19.0823 0.601371C19.1367 0.475516 19.2163 0.362178 19.3163 0.268399C19.4163 0.174619 19.5345 0.102401 19.6636 0.0562287C19.7926 0.0100567 19.9298 -0.00908249 20.0666 -8.33534e-08C20.3242 0.022118 20.5638 0.141106 20.7371 0.33296C20.9104 0.524813 21.0045 0.775251 21.0004 1.03375V4.0875L23.6779 7.9125C23.7938 8.09551 23.8783 8.29661 23.9279 8.5075C24.0007 8.76152 24.02 9.02792 23.9845 9.28979C23.949 9.55166 23.8595 9.8033 23.7216 10.0288C23.7166 10.036 23.712 10.0435 23.7079 10.0513L21.9754 12.7688C21.9299 12.8401 21.867 12.8988 21.7927 12.9392C21.7184 12.9797 21.635 13.0006 21.5504 13H10.4504C10.3664 12.9999 10.2838 12.9787 10.2101 12.9383C10.1365 12.8979 10.0743 12.8396 10.0291 12.7688L8.29662 10.0513C8.2925 10.0435 8.28791 10.036 8.28287 10.0288ZM26.8454 26.2237C26.8402 26.2091 26.8339 26.1949 26.8266 26.1812L21.7116 15.2875C21.6712 15.2014 21.607 15.1286 21.5266 15.0776C21.4463 15.0267 21.353 14.9998 21.2579 15H10.7429C10.6477 14.9998 10.5545 15.0267 10.4741 15.0776C10.3937 15.1286 10.3296 15.2014 10.2891 15.2875L5.17412 26.1812C5.16684 26.1949 5.16057 26.2091 5.15537 26.2237C5.04633 26.4867 4.99397 26.7696 5.00173 27.0542C5.00948 27.3387 5.07717 27.6184 5.20037 27.875C5.3646 28.2125 5.6205 28.4971 5.93881 28.696C6.25713 28.8949 6.625 29.0003 7.00037 29H25.0004C25.3755 29.0001 25.7431 28.8946 26.0612 28.6957C26.3793 28.4967 26.635 28.2123 26.7991 27.875C26.9225 27.6185 26.9904 27.3388 26.9984 27.0543C27.0064 26.7698 26.9542 26.4868 26.8454 26.2237Z" fill="#222222"/>
</svg>
