<svg width="32" height="32" viewBox="0 0 32 32" fill="none" xmlns="http://www.w3.org/2000/svg">
<path d="M27 8.99998H22.615C22.6637 8.95872 22.7137 8.91873 22.7612 8.87498C23.1409 8.5377 23.4468 8.12571 23.66 7.66479C23.8731 7.20387 23.9889 6.70392 24 6.19623C24.0164 5.64082 23.9191 5.08791 23.7142 4.57146C23.5092 4.055 23.2008 3.58589 22.8079 3.19293C22.4151 2.79997 21.9461 2.49145 21.4297 2.2863C20.9133 2.08116 20.3604 1.98372 19.805 1.99998C19.2971 2.01091 18.7969 2.12658 18.3358 2.33973C17.8746 2.55289 17.4624 2.85894 17.125 3.23873C16.6581 3.77984 16.2785 4.39053 16 5.04873C15.7215 4.39053 15.3419 3.77984 14.875 3.23873C14.5376 2.85894 14.1254 2.55289 13.6642 2.33973C13.2031 2.12658 12.7029 2.01091 12.195 1.99998C11.6396 1.98372 11.0867 2.08116 10.5703 2.2863C10.0539 2.49145 9.58491 2.79997 9.19206 3.19293C8.79922 3.58589 8.49083 4.055 8.28584 4.57146C8.08085 5.08791 7.98358 5.64082 8 6.19623C8.01111 6.70392 8.12686 7.20387 8.34001 7.66479C8.55315 8.12571 8.85911 8.5377 9.23875 8.87498C9.28625 8.91623 9.33625 8.95623 9.385 8.99998H5C4.46957 8.99998 3.96086 9.21069 3.58579 9.58576C3.21071 9.96083 3 10.4695 3 11V15C3 15.5304 3.21071 16.0391 3.58579 16.4142C3.96086 16.7893 4.46957 17 5 17V25C5 25.5304 5.21071 26.0391 5.58579 26.4142C5.96086 26.7893 6.46957 27 7 27H14.5C14.6326 27 14.7598 26.9473 14.8536 26.8535C14.9473 26.7598 15 26.6326 15 26.5V15H5V11H15V15H17V11H27V15H17V26.5C17 26.6326 17.0527 26.7598 17.1464 26.8535C17.2402 26.9473 17.3674 27 17.5 27H25C25.5304 27 26.0391 26.7893 26.4142 26.4142C26.7893 26.0391 27 25.5304 27 25V17C27.5304 17 28.0391 16.7893 28.4142 16.4142C28.7893 16.0391 29 15.5304 29 15V11C29 10.4695 28.7893 9.96083 28.4142 9.58576C28.0391 9.21069 27.5304 8.99998 27 8.99998ZM10.5638 7.37498C10.3889 7.21664 10.2487 7.02387 10.1519 6.80876C10.0551 6.59365 10.0038 6.36085 10.0013 6.12498C9.99493 5.8486 10.0438 5.57375 10.1451 5.31652C10.2463 5.05928 10.3979 4.82485 10.5909 4.62694C10.784 4.42904 11.0145 4.27165 11.2691 4.16399C11.5238 4.05633 11.7973 4.00057 12.0737 3.99998H12.135C12.3709 4.00252 12.6037 4.0538 12.8188 4.1506C13.0339 4.2474 13.2267 4.38763 13.385 4.56248C14.4338 5.74748 14.8038 7.71247 14.9338 8.92747C13.7137 8.79873 11.75 8.42873 10.5638 7.37498ZM21.4387 7.37498C20.2525 8.42498 18.2837 8.79498 17.0637 8.92498C17.2125 7.61123 17.625 5.68747 18.625 4.56372C18.7833 4.38888 18.9761 4.24865 19.1912 4.15185C19.4063 4.05505 19.6391 4.00377 19.875 4.00122H19.9363C20.2127 4.00295 20.486 4.05984 20.7402 4.16856C20.9944 4.27728 21.2244 4.43565 21.4166 4.63437C21.6088 4.83309 21.7594 5.06818 21.8596 5.32586C21.9597 5.58353 22.0075 5.85861 22 6.13498C21.9959 6.36925 21.9438 6.60019 21.8468 6.81348C21.7498 7.02678 21.6101 7.21789 21.4363 7.37498H21.4387Z" fill="#222222"/>
</svg>
