<svg width="32" height="32" viewBox="0 0 32 32" fill="none" xmlns="http://www.w3.org/2000/svg">
<path d="M30.53 7.50002C30.386 7.41017 30.2216 7.35844 30.0521 7.34969C29.8826 7.34094 29.7137 7.37547 29.5613 7.45002C24.195 10.075 20.3625 8.84502 16.3113 7.54752C12.05 6.19127 7.65 4.78502 1.56125 7.75752C1.3931 7.83962 1.25135 7.96726 1.15213 8.12592C1.05292 8.28458 1.00021 8.46789 1 8.65502V23.6463C0.999976 23.8159 1.04312 23.9828 1.12538 24.1312C1.20764 24.2796 1.3263 24.4046 1.4702 24.4945C1.6141 24.5844 1.77851 24.6362 1.94794 24.6451C2.11738 24.6539 2.28628 24.6195 2.43875 24.545C7.805 21.92 11.6375 23.15 15.695 24.4475C18.1 25.2163 20.55 26 23.32 26C25.4562 26 27.7863 25.535 30.4338 24.2425C30.6019 24.1604 30.7437 24.0328 30.8429 23.8741C30.9421 23.7155 30.9948 23.5321 30.995 23.345V8.35377C30.9965 8.18366 30.9546 8.01598 30.8732 7.86659C30.7919 7.71719 30.6737 7.59103 30.53 7.50002ZM6 19C6 19.2652 5.89464 19.5196 5.70711 19.7071C5.51957 19.8947 5.26522 20 5 20C4.73478 20 4.48043 19.8947 4.29289 19.7071C4.10536 19.5196 4 19.2652 4 19V11C4 10.7348 4.10536 10.4805 4.29289 10.2929C4.48043 10.1054 4.73478 10 5 10C5.26522 10 5.51957 10.1054 5.70711 10.2929C5.89464 10.4805 6 10.7348 6 11V19ZM16 20C15.2089 20 14.4355 19.7654 13.7777 19.3259C13.1199 18.8864 12.6072 18.2617 12.3045 17.5308C12.0017 16.7999 11.9225 15.9956 12.0769 15.2197C12.2312 14.4437 12.6122 13.731 13.1716 13.1716C13.731 12.6122 14.4437 12.2312 15.2196 12.0769C15.9956 11.9225 16.7998 12.0018 17.5307 12.3045C18.2616 12.6073 18.8864 13.1199 19.3259 13.7777C19.7654 14.4355 20 15.2089 20 16C20 17.0609 19.5786 18.0783 18.8284 18.8284C18.0783 19.5786 17.0609 20 16 20ZM28 21C28 21.2652 27.8946 21.5196 27.7071 21.7071C27.5196 21.8947 27.2652 22 27 22C26.7348 22 26.4804 21.8947 26.2929 21.7071C26.1054 21.5196 26 21.2652 26 21V13C26 12.7348 26.1054 12.4805 26.2929 12.2929C26.4804 12.1054 26.7348 12 27 12C27.2652 12 27.5196 12.1054 27.7071 12.2929C27.8946 12.4805 28 12.7348 28 13V21Z" fill="#222222"/>
</svg>
