<svg width="32" height="32" viewBox="0 0 32 32" fill="none" xmlns="http://www.w3.org/2000/svg">
<path d="M26.5352 5.46497C25.5976 4.52761 24.326 4.00104 23.0002 4.00104C21.6744 4.00104 20.4028 4.52761 19.4652 5.46497L16.4652 8.46497C16.319 8.61103 16.2216 8.7988 16.1864 9.00247C15.0864 15.41 4.50019 26.0912 4.29519 26.2912C4.10755 26.4787 4.00207 26.733 4.00195 26.9983C4.00184 27.2635 4.10709 27.518 4.29457 27.7056C4.48204 27.8932 4.73638 27.9987 5.00163 27.9988C5.26687 27.9989 5.5213 27.8937 5.70894 27.7062C5.81644 27.5975 16.5627 16.9175 22.9989 15.8125C23.2026 15.7773 23.3904 15.6799 23.5364 15.5337L26.5364 12.5337C27.4738 11.5961 28.0004 10.3245 28.0004 8.99872C28.0004 7.6729 27.4738 6.40136 26.5364 5.46372L26.5352 5.46497ZM23.7077 9.70747L21.7077 11.7075C21.5201 11.8951 21.2656 12.0005 21.0002 12.0005C20.7348 12.0005 20.4803 11.8951 20.2927 11.7075C20.1051 11.5198 19.9996 11.2653 19.9996 11C19.9996 10.7346 20.1051 10.4801 20.2927 10.2925L22.2927 8.29247C22.4803 8.10483 22.7348 7.99941 23.0002 7.99941C23.2656 7.99941 23.5201 8.10483 23.7077 8.29247C23.8953 8.48011 24.0007 8.73461 24.0007 8.99997C24.0007 9.26533 23.8953 9.51983 23.7077 9.70747Z" fill="#222222"/>
</svg>
