<svg width="32" height="32" viewBox="0 0 32 32" fill="none" xmlns="http://www.w3.org/2000/svg">
<path d="M27.5345 6.87498L27.5133 6.85373L21.9008 1.56873C21.5251 1.19984 21.019 0.99399 20.4925 0.995862C19.9659 0.997734 19.4614 1.20718 19.0883 1.57873L13.5208 7.10873L13.3283 6.91373C12.7347 6.37294 11.9558 6.08138 11.153 6.09953C10.3502 6.11768 9.58527 6.44415 9.01675 7.01121C8.44824 7.57828 8.11983 8.34242 8.09963 9.14514C8.07944 9.94786 8.36901 10.7276 8.90829 11.3225L9.09079 11.5075L6.58579 14C6.40003 14.1857 6.25267 14.4062 6.15213 14.6489C6.05159 14.8916 5.99984 15.1517 5.99984 15.4144C5.99984 15.677 6.05159 15.9372 6.15213 16.1798C6.25267 16.4225 6.40003 16.643 6.58579 16.8287L8.17079 18.4137C8.54567 18.7874 9.05338 18.9972 9.58267 18.9972C10.112 18.9972 10.6197 18.7874 10.9945 18.4137L13.4858 15.9575L14.9995 17.5L6.91329 25.6712C6.60049 25.9559 6.34872 26.3011 6.17325 26.6859C5.99777 27.0708 5.90224 27.4872 5.89244 27.91C5.88264 28.3329 5.95877 28.7533 6.11623 29.1458C6.27368 29.5384 6.50918 29.8949 6.80846 30.1937C7.10774 30.4926 7.46457 30.7276 7.85733 30.8845C8.2501 31.0414 8.67063 31.1169 9.09344 31.1065C9.51626 31.0961 9.93257 31 10.3171 30.824C10.7017 30.6479 11.0466 30.3957 11.3308 30.0825L22.4145 18.9137C22.7886 18.5388 22.9986 18.0308 22.9986 17.5012C22.9986 16.9716 22.7886 16.4637 22.4145 16.0887L17.9533 11.5825L19.5695 9.99998L19.582 10.0112L24.2495 14.425C24.6256 14.7949 25.1325 15.0012 25.66 14.9991C26.1874 14.997 26.6927 14.7866 27.0658 14.4137L27.5295 13.95C27.9939 13.4857 28.3622 12.9345 28.6135 12.3278C28.8648 11.7212 28.9941 11.071 28.9941 10.4144C28.9941 9.75773 28.8648 9.10753 28.6135 8.50088C28.3622 7.89424 27.9939 7.34303 27.5295 6.87873L27.5345 6.87498ZM9.58579 17L7.99954 15.4162L10.4995 12.9312L12.0858 14.5387L9.58579 17ZM26.1245 12.535L25.6558 13C25.6498 12.9927 25.6431 12.986 25.6358 12.98L20.9608 8.56248C20.5843 8.19988 20.0811 7.99855 19.5584 8.00136C19.0356 8.00416 18.5347 8.21087 18.162 8.57749L16.5458 10.1612L14.9283 8.52874L20.4995 2.99998L20.5208 3.01998L26.1308 8.30248C26.689 8.866 27.0013 9.62763 26.9994 10.4208C26.9975 11.214 26.6816 11.9741 26.1208 12.535H26.1245Z" fill="#222222"/>
</svg>
