<svg width="32" height="32" viewBox="0 0 32 32" fill="none" xmlns="http://www.w3.org/2000/svg">
<path d="M29.4176 17.4099L26.9726 19.8537C26.8802 19.9459 26.7555 19.9984 26.6251 19.9999H21.4151L17.4151 15.9999L21.4151 11.9999H26.6251C26.7573 12.0002 26.884 12.0528 26.9776 12.1462L29.4226 14.5899C29.7944 14.9653 30.0026 15.4726 30.0016 16.001C30.0007 16.5293 29.7907 17.0359 29.4176 17.4099ZM8.38131 9.99994H11.0001C11.2649 10.0001 11.5189 10.1053 11.7063 10.2924L16.0001 14.5849L20.2938 10.2924C20.4812 10.1053 20.7352 10.0001 21.0001 9.99994H23.6251C23.724 10 23.8208 9.97074 23.9031 9.9158C23.9853 9.86086 24.0495 9.78275 24.0874 9.69133C24.1252 9.59992 24.1352 9.49933 24.1158 9.40229C24.0965 9.30524 24.0488 9.21612 23.9788 9.14619L17.4163 2.58244C17.0416 2.20994 16.5347 2.00085 16.0063 2.00085C15.4779 2.00085 14.971 2.20994 14.5963 2.58244L8.02756 9.14619C7.95756 9.21612 7.90987 9.30524 7.89055 9.40229C7.87122 9.49933 7.88112 9.59992 7.919 9.69133C7.95688 9.78275 8.02102 9.86086 8.10332 9.9158C8.18562 9.97074 8.28236 10 8.38131 9.99994ZM23.6251 21.9999H21.0001C20.7352 21.9998 20.4812 21.8946 20.2938 21.7074L16.0001 17.4137L11.7063 21.7074C11.5189 21.8946 11.2649 21.9998 11.0001 21.9999H8.37506C8.27611 21.9999 8.17937 22.0291 8.09707 22.0841C8.01477 22.139 7.95063 22.2171 7.91275 22.3085C7.87487 22.4 7.86497 22.5005 7.8843 22.5976C7.90362 22.6946 7.95131 22.7838 8.02131 22.8537L14.5838 29.4174C14.9585 29.7899 15.4654 29.999 15.9938 29.999C16.5222 29.999 17.0291 29.7899 17.4038 29.4174L23.9663 22.8537C24.0356 22.7845 24.0831 22.6965 24.1028 22.6006C24.1226 22.5047 24.1137 22.4051 24.0774 22.3142C24.041 22.2233 23.9788 22.1451 23.8984 22.0892C23.818 22.0333 23.7229 22.0023 23.6251 21.9999ZM14.5926 15.9999L10.5926 11.9999H5.37506C5.24285 12.0002 5.1161 12.0528 5.02256 12.1462L2.58256 14.5899C2.21006 14.9647 2.00098 15.4716 2.00098 15.9999C2.00098 16.5283 2.21006 17.0352 2.58256 17.4099L5.02756 19.8537C5.11987 19.9459 5.24458 19.9984 5.37506 19.9999H10.5851L14.5926 15.9999Z" fill="#222222"/>
</svg>
