<svg width="32" height="32" viewBox="0 0 32 32" fill="none" xmlns="http://www.w3.org/2000/svg">
<path d="M8.85 23H4C3.73478 23 3.48043 22.8946 3.29289 22.7071C3.10536 22.5195 3 22.2652 3 22C3 21.7347 3.10536 21.4804 3.29289 21.2928C3.48043 21.1053 3.73478 21 4 21H8.85C9.11522 21 9.36957 21.1053 9.55711 21.2928C9.74464 21.4804 9.85 21.7347 9.85 22C9.85 22.2652 9.74464 22.5195 9.55711 22.7071C9.36957 22.8946 9.11522 23 8.85 23ZM12.85 25H6C5.73478 25 5.48043 25.1053 5.29289 25.2928C5.10536 25.4804 5 25.7347 5 26C5 26.2652 5.10536 26.5195 5.29289 26.7071C5.48043 26.8946 5.73478 27 6 27H12.85C13.1152 27 13.3696 26.8946 13.5571 26.7071C13.7446 26.5195 13.85 26.2652 13.85 26C13.85 25.7347 13.7446 25.4804 13.5571 25.2928C13.3696 25.1053 13.1152 25 12.85 25ZM28.895 20.8287L25.3162 19.04C24.3174 18.5446 23.4772 17.7793 22.8911 16.8308C22.305 15.8824 21.9963 14.7887 22 13.6737V9.99995C22 9.73625 21.8959 9.48321 21.7102 9.29592C21.5246 9.10864 21.2724 9.00226 21.0088 8.99995C19.418 9.00062 17.8919 8.37017 16.7654 7.24695C15.6389 6.12373 15.004 4.59949 15 3.0087C15.0015 2.82193 14.9506 2.63848 14.8531 2.47913C14.7557 2.31979 14.6156 2.19092 14.4486 2.10713C14.2817 2.02333 14.0946 1.98797 13.9086 2.00504C13.7226 2.02211 13.5451 2.09093 13.3962 2.2037L5.63875 8.08495C5.58218 8.12813 5.53548 8.18287 5.50176 8.24554C5.46805 8.30821 5.4481 8.37735 5.44325 8.44835C5.43839 8.51934 5.44875 8.59056 5.47363 8.65723C5.49851 8.7239 5.53733 8.78449 5.5875 8.83495L12.0175 15.265C12.2019 15.4443 12.312 15.6866 12.3259 15.9434C12.3398 16.2003 12.2564 16.453 12.0925 16.6512C12.0027 16.7552 11.8924 16.8396 11.7684 16.8991C11.6445 16.9586 11.5097 16.9919 11.3723 16.997C11.235 17.002 11.0981 16.9787 10.9701 16.9284C10.8422 16.8782 10.726 16.8021 10.6287 16.705L4.00375 10.08C3.94732 10.0233 3.87811 9.98096 3.80194 9.95657C3.72576 9.93217 3.64485 9.9264 3.56599 9.93975C3.48713 9.9531 3.41262 9.98517 3.34872 10.0333C3.28482 10.0814 3.23339 10.1441 3.19875 10.2162C3.02013 10.5895 2.96172 11.0091 3.03157 11.417C3.10142 11.8249 3.2961 12.2011 3.58875 12.4937L17.8 26.7075C17.8929 26.8003 18.0033 26.8739 18.1247 26.9241C18.246 26.9743 18.3761 27.0001 18.5075 27H28C28.5304 27 29.0391 26.7892 29.4142 26.4142C29.7893 26.0391 30 25.5304 30 25V22.6175C30.0012 22.2459 29.8983 21.8814 29.703 21.5652C29.5077 21.2491 29.2278 20.994 28.895 20.8287Z" fill="#222222"/>
</svg>
