<svg width="32" height="32" viewBox="0 0 32 32" fill="none" xmlns="http://www.w3.org/2000/svg">
<path d="M29.0002 28.9338C28.9782 28.6766 28.8595 28.4374 28.6682 28.2641C28.4769 28.0909 28.2271 27.9965 27.969 28H22.8677L22.0802 22.485L22.4852 22.7238C22.7116 22.8571 22.962 22.9445 23.2222 22.9811C23.4823 23.0176 23.7471 23.0026 24.0014 22.9367C24.2558 22.8709 24.4946 22.7557 24.7044 22.5975C24.9142 22.4393 25.0907 22.2414 25.224 22.015L26.7002 19.515C26.9605 19.0845 27.0543 18.5736 26.964 18.0788C26.9105 17.8002 26.798 17.5363 26.6342 17.3048C26.4703 17.0732 26.2589 16.8794 26.014 16.7363L18.6165 12.375C18.3921 12.2471 18.2245 12.0389 18.1472 11.7924C18.07 11.5459 18.089 11.2794 18.2002 11.0463C18.2617 10.9239 18.3477 10.8155 18.4528 10.7277C18.558 10.6399 18.68 10.5746 18.8114 10.536C18.9427 10.4973 19.0807 10.486 19.2166 10.5028C19.3525 10.5197 19.4835 10.5642 19.6015 10.6338L22.2202 12.175C22.3343 12.2426 22.4705 12.2622 22.599 12.2293C22.7274 12.1965 22.8376 12.114 22.9052 12L26.724 5.5125C26.8575 5.2861 26.9451 5.03559 26.9818 4.77531C27.0184 4.51502 27.0034 4.25007 26.9376 3.99559C26.8718 3.74111 26.7564 3.50211 26.5982 3.29224C26.4399 3.08237 26.2418 2.90576 26.0152 2.7725L23.4727 1.2725C23.2464 1.13916 22.996 1.05172 22.7358 1.01517C22.4757 0.978628 22.2109 0.993694 21.9565 1.05951C21.7022 1.12533 21.4633 1.24061 21.2536 1.39876C21.0438 1.55692 20.8672 1.75485 20.734 1.98125L16.359 9.40875C16.287 9.53112 16.1897 9.63675 16.0737 9.71861C15.9577 9.80047 15.8256 9.8567 15.6862 9.88354C15.5468 9.91038 15.4033 9.90723 15.2652 9.87429C15.127 9.84135 14.9975 9.77938 14.8852 9.6925C14.6934 9.53842 14.5639 9.31995 14.5209 9.07765C14.4779 8.83536 14.5243 8.58569 14.6515 8.375L16.1802 5.7775C16.2466 5.66307 16.265 5.52699 16.2312 5.39907C16.1975 5.27115 16.1144 5.16181 16.0002 5.095L9.51524 1.2775C9.28889 1.14416 9.03849 1.05672 8.77833 1.02017C8.51818 0.983628 8.25337 0.998694 7.99904 1.06451C7.74471 1.13033 7.50584 1.24561 7.29607 1.40376C7.0863 1.56192 6.90975 1.75985 6.77649 1.98625L5.30024 4.48625C5.04009 4.91635 4.94628 5.42676 5.03649 5.92125C5.09047 6.19981 5.20309 6.46369 5.36688 6.69537C5.53068 6.92705 5.74189 7.12123 5.98649 7.265L13.3852 11.625C13.6031 11.7489 13.7677 11.9486 13.8477 12.186C13.9277 12.4235 13.9175 12.6821 13.819 12.9125C13.7614 13.0408 13.6775 13.1556 13.5726 13.2493C13.4676 13.343 13.3442 13.4135 13.2101 13.4562C13.0761 13.4989 12.9346 13.5128 12.7948 13.4971C12.6551 13.4814 12.5202 13.4364 12.399 13.365L9.77399 11.8225C9.6602 11.7571 9.52525 11.739 9.39826 11.7722C9.27127 11.8054 9.16244 11.8872 9.09524 12L5.27649 18.4875C5.14315 18.7139 5.05571 18.9643 5.01916 19.2244C4.98262 19.4846 4.99768 19.7494 5.0635 20.0037C5.12932 20.258 5.2446 20.4969 5.40275 20.7067C5.56091 20.9164 5.75884 21.093 5.98524 21.2263L8.52774 22.7263C8.92482 22.9642 9.39371 23.0529 9.85024 22.9763L9.13274 28H4.03399C3.7755 27.9959 3.52506 28.09 3.3332 28.2633C3.14135 28.4366 3.02236 28.6762 3.00024 28.9338C2.99116 29.0705 3.0103 29.2077 3.05647 29.3368C3.10264 29.4659 3.17486 29.5841 3.26864 29.6841C3.36242 29.7841 3.47576 29.8637 3.60162 29.9181C3.72747 29.9724 3.86316 30.0003 4.00024 30H28.0002C28.1373 30.0003 28.273 29.9724 28.3989 29.9181C28.5247 29.8637 28.6381 29.7841 28.7318 29.6841C28.8256 29.5841 28.8978 29.4659 28.944 29.3368C28.9902 29.2077 29.0093 29.0705 29.0002 28.9338ZM11.1527 28L12.2502 20.35L13.8465 17.6375L15.6252 14.6163C15.7532 14.3922 15.9611 14.2248 16.2073 14.1476C16.4535 14.0704 16.7198 14.0891 16.9527 14.2C17.0751 14.2615 17.1835 14.3475 17.2713 14.4526C17.3591 14.5577 17.4243 14.6798 17.463 14.8111C17.5017 14.9425 17.513 15.0804 17.4962 15.2163C17.4793 15.3523 17.4348 15.4833 17.3652 15.6013L15.824 18.2263C15.757 18.3405 15.7381 18.4767 15.7713 18.6048C15.8046 18.733 15.8874 18.8428 16.0015 18.91L19.8765 21.1913L20.8477 28H11.1527Z" fill="#222222"/>
</svg>
