<svg width="32" height="32" viewBox="0 0 32 32" fill="none" xmlns="http://www.w3.org/2000/svg">
<path d="M29.4764 9.47384C29.1517 9.79971 28.7657 10.0581 28.3407 10.2343C27.9158 10.4104 27.4601 10.5007 27.0001 10.5001C26.762 10.4997 26.5246 10.4754 26.2914 10.4276L22.4701 17.5238C22.9292 17.9828 23.2515 18.5603 23.4012 19.1919C23.5509 19.8235 23.522 20.4843 23.3177 21.1004C23.1135 21.7165 22.7419 22.2637 22.2446 22.6808C21.7472 23.0979 21.1437 23.3684 20.5014 23.4623C19.8592 23.5561 19.2034 23.4694 18.6076 23.212C18.0117 22.9546 17.4992 22.5366 17.1272 22.0047C16.7552 21.4727 16.5385 20.8478 16.5013 20.1998C16.4641 19.5517 16.6078 18.9061 16.9164 18.3351L13.6589 15.0776C13.1493 15.3532 12.5794 15.4984 12.0001 15.5001C11.762 15.4997 11.5246 15.4755 11.2914 15.4276L7.47012 22.5226C7.95957 23.0121 8.29287 23.6357 8.42789 24.3147C8.56291 24.9936 8.49358 25.6973 8.22866 26.3368C7.96375 26.9763 7.51514 27.5229 6.93958 27.9075C6.36401 28.2921 5.68734 28.4973 4.99512 28.4973C4.3029 28.4973 3.62622 28.2921 3.05066 27.9075C2.4751 27.5229 2.02649 26.9763 1.76157 26.3368C1.49666 25.6973 1.42732 24.9936 1.56234 24.3147C1.69736 23.6357 2.03067 23.0121 2.52012 22.5226C2.93043 22.1126 3.43618 21.8111 3.99191 21.6451C4.54764 21.479 5.13592 21.4537 5.70387 21.5713L9.52512 14.4751C8.86981 13.8178 8.50182 12.9276 8.50182 11.9995C8.50182 11.0713 8.86981 10.1811 9.52512 9.52384C10.1196 8.92904 10.9083 8.56814 11.747 8.50717C12.5857 8.44621 13.4183 8.68925 14.0926 9.19184C14.7668 9.69442 15.2375 10.423 15.4186 11.2441C15.5997 12.0653 15.4791 12.9243 15.0789 13.6638L18.3364 16.9213C19.0628 16.5306 19.9036 16.4081 20.7114 16.5751L24.5326 9.47884C24.2076 9.15383 23.9497 8.76798 23.7738 8.34332C23.5979 7.91865 23.5074 7.4635 23.5074 7.00384C23.5074 6.54418 23.5979 6.08903 23.7738 5.66437C23.9497 5.2397 24.2076 4.85385 24.5326 4.52884C25.189 3.87243 26.0793 3.50366 27.0076 3.50366C27.9359 3.50366 28.8262 3.87243 29.4826 4.52884C30.139 5.18525 30.5078 6.07554 30.5078 7.00384C30.5078 7.93215 30.139 8.82243 29.4826 9.47884L29.4764 9.47384Z" fill="#222222"/>
</svg>
