<svg width="32" height="32" viewBox="0 0 32 32" fill="none" xmlns="http://www.w3.org/2000/svg">
<path d="M21.8285 10.1687C21.4954 8.37796 20.6795 6.7122 19.469 5.35122C18.2584 3.99025 16.6991 2.98576 14.9594 2.44617C13.2198 1.90659 11.3657 1.85241 9.59748 2.28948C7.82924 2.72656 6.21397 3.63828 4.926 4.92625C3.63804 6.21421 2.72631 7.82949 2.28924 9.59773C1.85217 11.366 1.90634 13.22 2.44593 14.9597C2.98551 16.6994 3.99 18.2587 5.35098 19.4692C6.71195 20.6798 8.37772 21.4956 10.1685 21.8287C10.5015 23.6194 11.3174 25.2852 12.5279 26.6462C13.7385 28.0072 15.2978 29.0116 17.0375 29.5512C18.7772 30.0908 20.6312 30.145 22.3994 29.7079C24.1677 29.2708 25.783 28.3591 27.0709 27.0712C28.3589 25.7832 29.2706 24.1679 29.7077 22.3997C30.1448 20.6314 30.0906 18.7774 29.551 17.0377C29.0114 15.298 28.0069 13.7387 26.6459 12.5282C25.285 11.3176 23.6192 10.5018 21.8285 10.1687ZM11.9997 20C10.4175 20 8.87074 19.5308 7.55515 18.6517C6.23955 17.7727 5.21417 16.5232 4.60867 15.0614C4.00317 13.5996 3.84474 11.9911 4.15343 10.4392C4.46211 8.88738 5.22403 7.46192 6.34285 6.3431C7.46167 5.22428 8.88714 4.46235 10.439 4.15367C11.9908 3.84499 13.5994 4.00342 15.0612 4.60892C16.523 5.21442 17.7724 6.2398 18.6515 7.55539C19.5305 8.87098 19.9997 10.4177 19.9997 12C19.9974 14.121 19.1538 16.1545 17.654 17.6542C16.1542 19.154 14.1207 19.9976 11.9997 20Z" fill="#222222"/>
</svg>
