<svg width="32" height="32" viewBox="0 0 32 32" fill="none" xmlns="http://www.w3.org/2000/svg">
<path d="M15.9997 3C15.7345 3 15.4802 3.10536 15.2926 3.29289C15.1051 3.48043 14.9997 3.73478 14.9997 4V11C14.9997 11.2652 15.1051 11.5196 15.2926 11.7071C15.4802 11.8946 15.7345 12 15.9997 12C16.8802 12.0002 17.7361 12.2909 18.4345 12.8271C19.1329 13.3632 19.635 14.1148 19.8627 14.9654C20.0905 15.8159 20.0312 16.7178 19.6941 17.5313C19.3571 18.3447 18.761 19.0242 17.9984 19.4643C17.2359 19.9045 16.3494 20.0807 15.4764 19.9657C14.6034 19.8507 13.7928 19.4509 13.1703 18.8283C12.5477 18.2056 12.1479 17.395 12.033 16.522C11.9181 15.649 12.0945 14.7625 12.5347 14C12.6004 13.8862 12.6431 13.7607 12.6602 13.6304C12.6773 13.5002 12.6687 13.3679 12.6346 13.241C12.6006 13.1141 12.542 12.9952 12.462 12.891C12.382 12.7868 12.2823 12.6994 12.1685 12.6337L6.10598 9.13375C5.99223 9.06806 5.86666 9.02543 5.73642 9.00829C5.60619 8.99114 5.47386 8.99983 5.34699 9.03384C5.22011 9.06785 5.10118 9.12652 4.99699 9.20651C4.89279 9.28649 4.80538 9.38622 4.73973 9.5C3.3089 11.9783 2.73578 14.8594 3.10925 17.6966C3.48273 20.5338 4.78194 23.1685 6.80538 25.1921C8.82883 27.2157 11.4634 28.515 14.3006 28.8887C17.1378 29.2624 20.019 28.6894 22.4973 27.2587C24.9757 25.8281 26.9128 23.6196 28.0081 20.9758C29.1034 18.3321 29.2958 15.4008 28.5554 12.6366C27.815 9.87233 26.1832 7.42963 23.9131 5.6873C21.643 3.94496 18.8614 3.00037 15.9997 3ZM6.01098 11.3875L10.3747 13.9075C10.1264 14.5772 9.99943 15.2858 9.99973 16C9.99973 16.1912 10.0097 16.375 10.0272 16.565L5.15973 17.875C4.78015 15.6762 5.07698 13.4139 6.01098 11.3875ZM5.67723 19.8013L10.5522 18.4963C10.9598 19.3847 11.5779 20.1604 12.3528 20.7561C13.1278 21.3518 14.0364 21.7496 14.9997 21.915V26.9538C12.9295 26.7619 10.9558 25.9885 9.30622 24.7229C7.65669 23.4574 6.39863 21.7512 5.67723 19.8013ZM16.9997 26.9538V21.915C18.3973 21.6781 19.6658 20.9541 20.5805 19.8713C21.4952 18.7885 21.997 17.4168 21.997 15.9994C21.997 14.5819 21.4952 13.2102 20.5805 12.1274C19.6658 11.0446 18.3973 10.3206 16.9997 10.0837V5.045C19.7325 5.29467 22.2732 6.55675 24.1232 8.58349C25.9732 10.6102 26.9989 13.2553 26.9989 15.9994C26.9989 18.7435 25.9732 21.3885 24.1232 23.4153C22.2732 25.442 19.7325 26.7041 16.9997 26.9538Z" fill="#222222"/>
</svg>
