<svg width="32" height="32" viewBox="0 0 32 32" fill="none" xmlns="http://www.w3.org/2000/svg">
<path d="M24.7802 7.82863L26.7402 5.67238C26.9148 5.47554 27.0048 5.21779 26.9907 4.95503C26.9765 4.69227 26.8594 4.44567 26.6647 4.2687C26.4699 4.09173 26.2133 3.99864 25.9504 4.00963C25.6874 4.02061 25.4395 4.13478 25.2602 4.32738L23.3002 6.48238C20.9137 4.64953 17.9254 3.7807 14.9283 4.04827C11.9311 4.31583 9.14399 5.70023 7.1199 7.92683C5.09581 10.1534 3.98263 13.0595 4.00121 16.0685C4.01978 19.0776 5.16875 21.9697 7.22017 24.1711L5.26017 26.3274C5.17 26.4242 5.09996 26.538 5.05409 26.6622C5.00822 26.7863 4.98745 26.9183 4.99298 27.0505C4.9985 27.1827 5.03021 27.3125 5.08627 27.4324C5.14233 27.5523 5.22162 27.6598 5.31956 27.7488C5.41749 27.8378 5.53211 27.9065 5.65678 27.9509C5.78145 27.9952 5.91369 28.0144 6.04582 28.0073C6.17796 28.0002 6.30738 27.9669 6.42657 27.9094C6.54576 27.8519 6.65235 27.7714 6.74017 27.6724L8.70017 25.5174C11.0867 27.3502 14.0749 28.2191 17.0721 27.9515C20.0692 27.6839 22.8563 26.2995 24.8804 24.0729C26.9045 21.8463 28.0177 18.9403 27.9991 15.9312C27.9806 12.9222 26.8316 10.0301 24.7802 7.82863ZM6.00017 15.9999C6.00128 14.1486 6.51629 12.3339 7.48784 10.758C8.45938 9.18211 9.84932 7.90684 11.5028 7.07425C13.1564 6.24166 15.0086 5.88442 16.8531 6.04233C18.6977 6.20024 20.4622 6.8671 21.9502 7.96863L8.57517 22.6849C6.91692 20.8534 5.99909 18.4706 6.00017 15.9999ZM16.0002 25.9999C13.8565 26.0021 11.7694 25.3116 10.0502 24.0311L23.4252 9.31488C24.7192 10.7504 25.5692 12.5304 25.8722 14.4391C26.1753 16.3479 25.9183 18.3036 25.1326 20.0693C24.3468 21.835 23.0659 23.335 21.445 24.3876C19.8242 25.4402 17.9328 26.0002 16.0002 25.9999Z" fill="#222222"/>
</svg>
