<svg width="32" height="32" viewBox="0 0 32 32" fill="none" xmlns="http://www.w3.org/2000/svg">
<path d="M25.9035 25.4275C25.8473 25.5463 25.7683 25.6529 25.6709 25.7412C25.5735 25.8294 25.4597 25.8976 25.3359 25.9419C25.2122 25.9861 25.0809 26.0055 24.9497 25.999C24.8184 25.9924 24.6897 25.9601 24.571 25.9038L5.57096 16.9038C5.39985 16.8227 5.25527 16.6948 5.15402 16.5348C5.05277 16.3748 4.99902 16.1894 4.99902 16C4.99902 15.8107 5.05277 15.6253 5.15402 15.4653C5.25527 15.3053 5.39985 15.1773 5.57096 15.0963L24.571 6.09628C24.6896 6.04006 24.8182 6.00776 24.9494 6.00124C25.0806 5.99471 25.2117 6.01408 25.3354 6.05825C25.4591 6.10242 25.5728 6.17051 25.6702 6.25864C25.7676 6.34677 25.8466 6.45322 25.9028 6.5719C25.9591 6.69059 25.9914 6.81918 25.9979 6.95034C26.0044 7.08151 25.985 7.21267 25.9409 7.33635C25.8967 7.46002 25.8286 7.57379 25.7405 7.67115C25.6523 7.76851 25.5459 7.84756 25.4272 7.90378L8.33596 16L25.4272 24.0963C25.6669 24.2097 25.8516 24.4137 25.941 24.6633C26.0303 24.9129 26.0168 25.1878 25.9035 25.4275Z" fill="#222222"/>
</svg>
