<svg width="32" height="32" viewBox="0 0 32 32" fill="none" xmlns="http://www.w3.org/2000/svg">
<path d="M26.6728 4.2599C26.4765 4.08156 26.2174 3.98848 25.9525 4.00114C25.6876 4.0138 25.4386 4.13116 25.2603 4.3274L24.649 4.9999H16.0003C13.8665 5.00137 11.7792 5.6234 9.9927 6.79021C8.20621 7.95701 6.79764 9.61823 5.93861 11.5714C5.07958 13.5247 4.80718 15.6856 5.15459 17.7909C5.502 19.8962 6.45423 21.855 7.89525 23.4286L5.26025 26.3274C5.17008 26.4243 5.10004 26.538 5.05417 26.6622C5.00831 26.7863 4.98754 26.9183 4.99306 27.0505C4.99858 27.1827 5.03029 27.3125 5.08635 27.4324C5.14241 27.5523 5.22171 27.6598 5.31964 27.7488C5.41757 27.8378 5.53219 27.9065 5.65686 27.9509C5.78153 27.9952 5.91377 28.0144 6.04591 28.0073C6.17805 28.0002 6.30746 27.967 6.42665 27.9095C6.54584 27.852 6.65243 27.7714 6.74025 27.6724L9.37525 24.7749C11.2808 26.2211 13.608 27.0027 16.0003 26.9999H25.0003C25.2655 26.9999 25.5198 26.8945 25.7074 26.707C25.8949 26.5195 26.0003 26.2651 26.0003 25.9999C26.0003 25.7347 25.8949 25.4803 25.7074 25.2928C25.5198 25.1053 25.2655 24.9999 25.0003 24.9999H16.0003C14.1058 25.0012 12.2598 24.4016 10.7278 23.2874L26.7403 5.6724C26.9186 5.47613 27.0117 5.21706 26.999 4.95217C26.9864 4.68728 26.869 4.43827 26.6728 4.2599ZM7.00025 15.9999C7.0029 13.6138 7.95196 11.3261 9.63921 9.63886C11.3265 7.95161 13.6141 7.00255 16.0003 6.9999H22.8303L9.25025 21.9411C7.79986 20.302 6.99953 18.1886 7.00025 15.9999Z" fill="#222222"/>
</svg>
