<svg width="32" height="32" viewBox="0 0 32 32" fill="none" xmlns="http://www.w3.org/2000/svg">
<path d="M26.0003 23.9999H10.079L12.8065 20.9999H19.0003C20.546 20.9989 22.0584 20.55 23.3545 19.7076C24.6506 18.8652 25.6749 17.6654 26.3035 16.2532C26.9321 14.841 27.1381 13.2769 26.8966 11.7501C26.6551 10.2233 25.9765 8.79919 24.9428 7.64992L26.7403 5.67242C26.9149 5.47557 27.0049 5.21783 26.9907 4.95507C26.9766 4.69231 26.8595 4.44571 26.6647 4.26874C26.47 4.09176 26.2134 3.99868 25.9504 4.00966C25.6875 4.02065 25.4395 4.13482 25.2603 4.32742L23.429 6.34117C22.1182 5.46525 20.5768 4.99842 19.0003 4.99992H7.00025C6.73503 4.99992 6.48068 5.10527 6.29314 5.29281C6.10561 5.48035 6.00025 5.7347 6.00025 5.99992C6.00025 6.26513 6.10561 6.51949 6.29314 6.70702C6.48068 6.89456 6.73503 6.99992 7.00025 6.99992H19.0003C20.079 6.99896 21.1378 7.29056 22.064 7.84367L11.9215 18.9999H7.00025C6.73503 18.9999 6.48068 19.1053 6.29314 19.2928C6.10561 19.4803 6.00025 19.7347 6.00025 19.9999C6.00025 20.2651 6.10561 20.5195 6.29314 20.707C6.48068 20.8946 6.73503 20.9999 7.00025 20.9999H10.1028L5.26025 26.3274C5.17008 26.4243 5.10004 26.5381 5.05417 26.6622C5.00831 26.7863 4.98754 26.9183 4.99306 27.0505C4.99858 27.1827 5.03029 27.3126 5.08635 27.4324C5.14241 27.5523 5.22171 27.6598 5.31964 27.7488C5.41757 27.8378 5.53219 27.9065 5.65686 27.9509C5.78153 27.9953 5.91377 28.0145 6.04591 28.0073C6.17805 28.0002 6.30746 27.967 6.42665 27.9095C6.54584 27.852 6.65243 27.7714 6.74025 27.6724L8.26025 25.9999H26.0003C26.2655 25.9999 26.5198 25.8946 26.7074 25.707C26.8949 25.5195 27.0003 25.2651 27.0003 24.9999C27.0003 24.7347 26.8949 24.4803 26.7074 24.2928C26.5198 24.1053 26.2655 23.9999 26.0003 23.9999ZM23.589 9.13992C24.3237 10.0143 24.7937 11.0802 24.9436 12.2124C25.0935 13.3446 24.9171 14.4961 24.4352 15.5315C23.9534 16.567 23.186 17.4434 22.2232 18.0578C21.2604 18.6722 20.1423 18.999 19.0003 18.9999H14.6253L23.589 9.13992Z" fill="#222222"/>
</svg>
