<svg width="32" height="32" viewBox="0 0 32 32" fill="none" xmlns="http://www.w3.org/2000/svg">
<path d="M31.0004 9.99992V12.9999C31.0004 13.2651 30.8951 13.5195 30.7075 13.707C30.52 13.8946 30.2657 13.9999 30.0004 13.9999C29.7352 13.9999 29.4809 13.8946 29.2933 13.707C29.1058 13.5195 29.0004 13.2651 29.0004 12.9999V10.9999H16.6942L10.9367 26.3512C10.8657 26.5425 10.7377 26.7076 10.5702 26.8242C10.4026 26.9407 10.2033 27.0032 9.99919 27.0032C9.79505 27.0032 9.59581 26.9407 9.42822 26.8242C9.26063 26.7076 9.13272 26.5425 9.06169 26.3512L3.06169 10.3512C3.01556 10.2281 2.99413 10.0971 2.99863 9.96567C3.00313 9.83427 3.03347 9.70505 3.0879 9.58538C3.14234 9.46571 3.21982 9.35793 3.31591 9.2682C3.412 9.17847 3.52482 9.10855 3.64794 9.06242C3.77105 9.01629 3.90205 8.99487 4.03344 8.99937C4.16484 9.00386 4.29406 9.0342 4.41373 9.08864C4.5334 9.14308 4.64118 9.22055 4.73091 9.31664C4.82064 9.41273 4.89056 9.52556 4.93669 9.64867L10.0004 23.1524L15.0642 9.65242C15.1351 9.46115 15.2627 9.29614 15.4301 9.17951C15.5974 9.06288 15.7965 9.00021 16.0004 8.99992H30.0004C30.2657 8.99992 30.52 9.10528 30.7075 9.29281C30.8951 9.48035 31.0004 9.7347 31.0004 9.99992Z" fill="#222222"/>
</svg>
