<svg width="32" height="32" viewBox="0 0 32 32" fill="none" xmlns="http://www.w3.org/2000/svg">
<path d="M16.0003 11C15.0114 11 14.0447 11.2932 13.2225 11.8427C12.4002 12.3921 11.7594 13.173 11.3809 14.0866C11.0025 15.0002 10.9035 16.0055 11.0964 16.9755C11.2893 17.9454 11.7655 18.8363 12.4648 19.5355C13.164 20.2348 14.055 20.711 15.0249 20.9039C15.9948 21.0969 17.0001 20.9978 17.9137 20.6194C18.8274 20.241 19.6083 19.6001 20.1577 18.7779C20.7071 17.9556 21.0003 16.9889 21.0003 16C21.0003 14.6739 20.4735 13.4021 19.5358 12.4645C18.5982 11.5268 17.3264 11 16.0003 11ZM16.0003 19C15.407 19 14.8269 18.8241 14.3336 18.4944C13.8403 18.1648 13.4557 17.6962 13.2287 17.148C13.0016 16.5999 12.9422 15.9967 13.058 15.4147C13.1737 14.8328 13.4594 14.2982 13.879 13.8787C14.2985 13.4591 14.8331 13.1734 15.415 13.0576C15.997 12.9419 16.6002 13.0013 17.1484 13.2284C17.6965 13.4554 18.1651 13.8399 18.4947 14.3333C18.8244 14.8266 19.0003 15.4067 19.0003 16C19.0003 16.7956 18.6842 17.5587 18.1216 18.1213C17.559 18.6839 16.796 19 16.0003 19ZM25.2141 19.8925C24.7844 20.9082 24.1897 21.8459 23.4541 22.6675C23.2759 22.8603 23.0291 22.9752 22.767 22.9877C22.5048 23.0001 22.2483 22.9089 22.0527 22.7339C21.8571 22.5588 21.7382 22.3139 21.7217 22.052C21.7051 21.79 21.7921 21.5321 21.9641 21.3337C23.2771 19.8677 24.0032 17.9687 24.0032 16.0006C24.0032 14.0325 23.2771 12.1336 21.9641 10.6675C21.874 10.5701 21.8043 10.4557 21.7589 10.3311C21.7135 10.2064 21.6933 10.074 21.6996 9.94147C21.7059 9.80896 21.7384 9.67902 21.7954 9.55922C21.8524 9.43942 21.9327 9.33216 22.0315 9.24369C22.1303 9.15521 22.2458 9.08728 22.3712 9.04386C22.4965 9.00044 22.6292 8.9824 22.7616 8.99078C22.894 8.99916 23.0234 9.0338 23.1423 9.09268C23.2612 9.15156 23.3672 9.23351 23.4541 9.33375C24.7167 10.7467 25.5524 12.489 25.864 14.3581C26.1756 16.2272 25.9502 18.1464 25.2141 19.8925ZM8.62531 12.8862C8.03529 14.283 7.85433 15.8186 8.10352 17.3142C8.35271 18.8098 9.0218 20.2038 10.0328 21.3337C10.2047 21.5321 10.2918 21.79 10.2752 22.052C10.2586 22.3139 10.1397 22.5588 9.94417 22.7339C9.74861 22.9089 9.49207 23.0001 9.2299 22.9877C8.96773 22.9752 8.72095 22.8603 8.54281 22.6675C6.90104 20.8349 5.99319 18.461 5.99319 16.0006C5.99319 13.5402 6.90104 11.1663 8.54281 9.33375C8.71968 9.13567 8.96799 9.01596 9.23312 9.00095C9.49825 8.98595 9.75848 9.07688 9.95656 9.25375C10.1546 9.43062 10.2744 9.67893 10.2894 9.94406C10.3044 10.2092 10.2134 10.4694 10.0366 10.6675C9.44656 11.3239 8.96966 12.0736 8.62531 12.8862ZM31.0003 16C31.0064 19.9272 29.4667 23.699 26.7141 26.5C26.623 26.5974 26.5134 26.6755 26.3917 26.7299C26.2699 26.7843 26.1386 26.8138 26.0053 26.8167C25.872 26.8196 25.7395 26.7957 25.6155 26.7467C25.4916 26.6976 25.3787 26.6242 25.2835 26.5309C25.1884 26.4375 25.1128 26.3261 25.0613 26.2031C25.0098 26.0801 24.9834 25.9481 24.9837 25.8148C24.984 25.6815 25.0109 25.5496 25.063 25.4268C25.115 25.3041 25.191 25.1929 25.2866 25.1C27.67 22.6717 29.0053 19.405 29.0053 16.0025C29.0053 12.6 27.67 9.3333 25.2866 6.905C25.1002 6.7157 24.9968 6.46014 24.9989 6.19454C25.001 5.92895 25.1085 5.67506 25.2978 5.48875C25.4871 5.30243 25.7427 5.19895 26.0083 5.20106C26.2739 5.20317 26.5277 5.3107 26.7141 5.5C29.4667 8.30104 31.0064 12.0728 31.0003 16ZM6.71406 25.0975C6.80615 25.1912 6.87888 25.3022 6.92809 25.424C6.9773 25.5459 7.00203 25.6762 7.00087 25.8076C6.99971 25.939 6.97268 26.0689 6.92132 26.1898C6.86997 26.3108 6.79529 26.4204 6.70156 26.5125C6.60783 26.6046 6.49688 26.6773 6.37504 26.7265C6.2532 26.7757 6.12287 26.8005 5.99147 26.7993C5.86008 26.7981 5.7302 26.7711 5.60925 26.7198C5.4883 26.6684 5.37865 26.5937 5.28656 26.5C2.53429 23.6981 0.992188 19.9276 0.992188 16C0.992188 12.0724 2.53429 8.30191 5.28656 5.5C5.37763 5.40263 5.48724 5.32446 5.60896 5.27008C5.73068 5.21569 5.86204 5.1862 5.99533 5.18332C6.12861 5.18045 6.26113 5.20425 6.38508 5.25334C6.50903 5.30242 6.62191 5.37579 6.71709 5.46914C6.81227 5.56249 6.88783 5.67392 6.93931 5.79689C6.9908 5.91987 7.01717 6.05189 7.01689 6.18521C7.01661 6.31852 6.98967 6.45044 6.93767 6.57319C6.88566 6.69594 6.80964 6.80706 6.71406 6.9C4.33064 9.3283 2.99536 12.595 2.99536 15.9975C2.99536 19.4 4.33064 22.6667 6.71406 25.095V25.0975Z" fill="#222222"/>
</svg>
