<svg width="32" height="32" viewBox="0 0 32 32" fill="none" xmlns="http://www.w3.org/2000/svg">
<path d="M27 6C27.5304 6 28.039 6.21088 28.4141 6.58594C28.7891 6.96101 29 7.46957 29 8V24C29 24.5304 28.7891 25.039 28.4141 25.4141C28.039 25.7891 27.5304 26 27 26H10.375L6.29297 29.5186L6.28125 29.5273C5.92343 29.8313 5.4695 29.9989 5 30C4.70848 29.9995 4.42053 29.9356 4.15625 29.8125C3.80949 29.6539 3.51565 29.3986 3.31055 29.0771C3.10543 28.7556 2.99769 28.3814 3 28V8C3 7.46958 3.21088 6.96101 3.58594 6.58594C3.961 6.21087 4.46958 6.00001 5 6H27ZM5 8V28L9.34668 24.2441C9.52825 24.0871 9.75991 24.0001 10 24H27V8H5Z" fill="#222222"/>
<path d="M27 6C27.5304 6 28.039 6.21088 28.4141 6.58594C28.7891 6.96101 29 7.46957 29 8V24C29 24.5304 28.7891 25.039 28.4141 25.4141C28.039 25.7891 27.5304 26 27 26H10.375L6.29297 29.5186L6.28125 29.5273C5.92343 29.8313 5.4695 29.9989 5 30C4.70848 29.9995 4.42053 29.9356 4.15625 29.8125C3.80949 29.6539 3.51565 29.3986 3.31055 29.0771C3.10543 28.7556 2.99769 28.3814 3 28V8C3 7.46958 3.21088 6.96101 3.58594 6.58594C3.961 6.21087 4.46958 6.00001 5 6H27ZM5 8V28L9.34668 24.2441C9.52825 24.0871 9.75991 24.0001 10 24H27V8H5Z" stroke="black"/>
</svg>
