<svg width="32" height="32" viewBox="0 0 32 32" fill="none" xmlns="http://www.w3.org/2000/svg">
<path d="M6.74003 4.32749C6.65222 4.2285 6.54562 4.14792 6.42643 4.09043C6.30725 4.03294 6.17783 3.99967 6.04569 3.99256C5.91355 3.98545 5.78132 4.00464 5.65665 4.04902C5.53198 4.09339 5.41735 4.16207 5.31942 4.25107C5.22149 4.34007 5.1422 4.44762 5.08614 4.56749C5.03008 4.68736 4.99837 4.81716 4.99284 4.94938C4.98732 5.08159 5.00809 5.21359 5.05396 5.33772C5.09982 5.46184 5.16987 5.57563 5.26004 5.67249L5.55753 5.99999H5.00003C4.4696 5.99999 3.96089 6.21071 3.58582 6.58578C3.21075 6.96085 3.00003 7.46956 3.00003 7.99999V28C2.99778 28.3812 3.10554 28.755 3.31041 29.0765C3.51528 29.398 3.80855 29.6535 4.15504 29.8125C4.41981 29.9354 4.70812 29.9994 5.00003 30C5.46987 29.9986 5.92411 29.8313 6.28253 29.5275L6.29253 29.5187L10.375 26H23.74L25.26 27.6725C25.3479 27.7715 25.4544 27.8521 25.5736 27.9096C25.6928 27.967 25.8222 28.0003 25.9544 28.0074C26.0865 28.0145 26.2188 27.9953 26.3434 27.951C26.4681 27.9066 26.5827 27.8379 26.6806 27.7489C26.7786 27.6599 26.8579 27.5524 26.9139 27.4325C26.97 27.3126 27.0017 27.1828 27.0072 27.0506C27.0128 26.9184 26.992 26.7864 26.9461 26.6623C26.9002 26.5381 26.8302 26.4243 26.74 26.3275L6.74003 4.32749ZM10 24C9.75992 24.0001 9.52787 24.0866 9.34628 24.2437L5.00003 28V7.99999H7.37503L21.9213 24H10ZM29 7.99999V23.25C29 23.5152 28.8947 23.7696 28.7071 23.9571C28.5196 24.1446 28.2653 24.25 28 24.25C27.7348 24.25 27.4805 24.1446 27.2929 23.9571C27.1054 23.7696 27 23.5152 27 23.25V7.99999H13.2238C12.9586 7.99999 12.7042 7.89464 12.5167 7.7071C12.3291 7.51956 12.2238 7.26521 12.2238 6.99999C12.2238 6.73478 12.3291 6.48042 12.5167 6.29289C12.7042 6.10535 12.9586 5.99999 13.2238 5.99999H27C27.5305 5.99999 28.0392 6.21071 28.4142 6.58578C28.7893 6.96085 29 7.46956 29 7.99999Z" fill="#222222"/>
</svg>
