<svg width="32" height="32" viewBox="0 0 32 32" fill="none" xmlns="http://www.w3.org/2000/svg">
<path d="M28.4149 3.585C28.1634 3.33366 27.8494 3.15392 27.5054 3.06427C27.1613 2.97463 26.7996 2.97833 26.4574 3.075H26.4386L2.44615 10.355C2.05664 10.4673 1.71044 10.6952 1.45342 11.0087C1.1964 11.3221 1.0407 11.7063 1.00695 12.1102C0.973194 12.5142 1.06298 12.9189 1.26442 13.2706C1.46585 13.6224 1.76942 13.9047 2.1349 14.08L12.7499 19.25L17.9124 29.8587C18.073 30.2014 18.3283 30.4909 18.6481 30.6932C18.9679 30.8954 19.339 31.0019 19.7174 31C19.7749 31 19.8324 30.9975 19.8899 30.9925C20.2935 30.9598 20.6775 30.8045 20.9903 30.5473C21.3031 30.2901 21.5298 29.9434 21.6399 29.5537L28.9149 5.56125C28.9149 5.555 28.9149 5.54875 28.9149 5.5425C29.0128 5.2012 29.0181 4.83999 28.9302 4.49597C28.8424 4.15195 28.6645 3.83753 28.4149 3.585ZM19.7286 28.9812L19.7224 28.9987V28.99L14.7149 18.7025L20.7149 12.7025C20.8945 12.5134 20.9932 12.2617 20.9898 12.0009C20.9865 11.7402 20.8814 11.491 20.697 11.3066C20.5126 11.1222 20.2635 11.0171 20.0027 11.0138C19.742 11.0105 19.4902 11.1091 19.3011 11.2887L13.3011 17.2887L3.0099 12.2812H3.00115H3.01865L26.9999 5L19.7286 28.9812Z" fill="#222222"/>
</svg>
