<svg width="32" height="32" viewBox="0 0 32 32" fill="none" xmlns="http://www.w3.org/2000/svg">
<path d="M28.984 14.25L7.98396 2.26374C7.62974 2.06434 7.22317 1.9776 6.81841 2.01509C6.41365 2.05257 6.02992 2.2125 5.71834 2.47358C5.40677 2.73465 5.18214 3.08446 5.07439 3.47641C4.96664 3.86836 4.98088 4.28384 5.11521 4.66749L8.94396 16L5.11521 27.3337C5.00866 27.6353 4.97599 27.9581 5.01996 28.2749C5.06393 28.5917 5.18324 28.8934 5.36789 29.1546C5.55254 29.4157 5.79714 29.6288 6.08116 29.7759C6.36519 29.923 6.68035 29.9999 7.00021 30C7.34771 29.9993 7.68915 29.9089 7.99146 29.7375L28.9815 17.7312C29.2911 17.5578 29.5489 17.3051 29.7286 16.9991C29.9083 16.6931 30.0034 16.3448 30.004 15.9899C30.0047 15.6351 29.9109 15.2864 29.7323 14.9798C29.5537 14.6731 29.2967 14.4195 28.9877 14.245L28.984 14.25ZM7.00021 28C7.00075 27.995 7.00075 27.99 7.00021 27.985L10.7177 17H18.0002C18.2654 17 18.5198 16.8946 18.7073 16.7071C18.8949 16.5196 19.0002 16.2652 19.0002 16C19.0002 15.7348 18.8949 15.4804 18.7073 15.2929C18.5198 15.1054 18.2654 15 18.0002 15H10.7177L7.00771 4.01999C7.00648 4.01292 7.00394 4.00613 7.00021 3.99999L28.0002 15.9787L7.00021 28Z" fill="#222222"/>
</svg>
