<svg width="32" height="32" viewBox="0 0 32 32" fill="none" xmlns="http://www.w3.org/2000/svg">
<path d="M29.2862 14.3562L28.6537 14.9025C28.4528 15.0757 28.1913 15.162 27.9267 15.1424C27.6622 15.1229 27.4163 14.999 27.243 14.7981C27.0698 14.5972 26.9835 14.3357 27.0031 14.0712C27.0227 13.8066 27.1465 13.5607 27.3474 13.3875L27.9799 12.8412C27.9949 12.8287 28.0087 12.8175 27.9962 12.7787C27.9837 12.74 27.9737 12.745 27.9537 12.7425L26.9199 12.6587C26.7861 12.6521 26.655 12.6187 26.5344 12.5604C26.4137 12.5022 26.306 12.4203 26.2177 12.3196C26.1293 12.2189 26.0621 12.1015 26.02 11.9743C25.9778 11.8471 25.9617 11.7128 25.9725 11.5793C25.9833 11.4458 26.0208 11.3158 26.0829 11.197C26.1449 11.0783 26.2301 10.9732 26.3335 10.888C26.4369 10.8029 26.5564 10.7393 26.6848 10.7012C26.8133 10.6631 26.948 10.6512 27.0812 10.6662L28.1149 10.7487C28.5184 10.7829 28.9029 10.9353 29.2202 11.187C29.5375 11.4387 29.7734 11.7784 29.8985 12.1635C30.0235 12.5487 30.0321 12.9622 29.9232 13.3523C29.8143 13.7423 29.5927 14.0916 29.2862 14.3562ZM21.5724 19.08L22.0824 21.2325C22.1342 21.4516 22.2584 21.6467 22.4349 21.7865C22.6113 21.9262 22.8298 22.0023 23.0549 22.0025C23.1328 22.0025 23.2105 21.9933 23.2862 21.975C23.414 21.9447 23.5346 21.8895 23.641 21.8127C23.7475 21.7358 23.8378 21.6387 23.9068 21.5269C23.9757 21.4151 24.022 21.2908 24.0429 21.1612C24.0638 21.0315 24.059 20.899 24.0287 20.7712L23.6537 19.21L24.6537 18.3525C24.8546 18.1793 24.9784 17.9333 24.998 17.6688C25.0176 17.4042 24.9313 17.1428 24.758 16.9419C24.6723 16.8424 24.5678 16.7608 24.4504 16.7017C24.3331 16.6426 24.2053 16.6072 24.0744 16.5975C23.8098 16.5779 23.5483 16.6643 23.3474 16.8375L21.8924 18.0875C21.7529 18.2075 21.6493 18.3636 21.5928 18.5387C21.5363 18.7138 21.5293 18.9011 21.5724 19.08ZM25.2137 25.7712C25.1525 25.5131 24.9913 25.2899 24.7656 25.1507C24.5398 25.0114 24.268 24.9676 24.0099 25.0287C23.7518 25.0899 23.5286 25.2511 23.3894 25.4768C23.2501 25.7026 23.2063 25.9744 23.2674 26.2325L23.4324 26.93C23.4372 26.9408 23.4377 26.9531 23.4338 26.9642C23.4298 26.9754 23.4217 26.9846 23.4112 26.99C23.3887 27.0075 23.3824 27.0037 23.3637 26.99L22.5237 26.4737C22.2977 26.3348 22.0259 26.2914 21.7679 26.3529C21.5099 26.4144 21.287 26.5759 21.148 26.8019C21.0091 27.0278 20.9657 27.2996 21.0272 27.5576C21.0887 27.8156 21.2502 28.0386 21.4762 28.1775L22.3162 28.6937C22.6617 28.9035 23.0615 29.0065 23.4654 28.9897C23.8693 28.9729 24.2592 28.8371 24.5861 28.5993C24.913 28.3615 25.1623 28.0324 25.3026 27.6533C25.443 27.2742 25.4681 26.8621 25.3749 26.4687L25.2137 25.7712ZM21.9199 12.2562L19.9649 12.0975C19.7819 12.082 19.6068 12.0164 19.4586 11.9079C19.3104 11.7994 19.195 11.6522 19.1249 11.4825L16.9999 6.34748V23.0787L17.9287 23.65C18.0405 23.7188 18.1378 23.8089 18.2148 23.9153C18.2918 24.0216 18.3472 24.1421 18.3776 24.2698C18.4081 24.3976 18.4131 24.5301 18.3924 24.6597C18.3716 24.7894 18.3256 24.9137 18.2568 25.0256C18.188 25.1375 18.0979 25.2347 17.9915 25.3117C17.8852 25.3888 17.7647 25.4441 17.6369 25.4746C17.5092 25.505 17.3767 25.51 17.247 25.4893C17.1174 25.4686 16.993 25.4225 16.8812 25.3537L15.9999 24.8112L9.68367 28.6962C9.33796 28.9063 8.9378 29.0095 8.5336 28.9926C8.12939 28.9758 7.7392 28.8397 7.41217 28.6015C7.08514 28.3634 6.83589 28.0338 6.6958 27.6543C6.55571 27.2747 6.53105 26.8622 6.62492 26.4687L8.34492 19.21L2.71992 14.3562C2.41404 14.0919 2.19283 13.7432 2.0839 13.3539C1.97497 12.9646 1.98316 12.5518 2.10744 12.1671C2.23172 11.7824 2.46659 11.4428 2.78271 11.1908C3.09883 10.9387 3.48219 10.7854 3.88492 10.75L11.2599 10.155L14.1049 3.26998C14.2589 2.89475 14.521 2.57379 14.8579 2.3479C15.1948 2.12201 15.5912 2.0014 15.9968 2.0014C16.4024 2.0014 16.7988 2.12201 17.1357 2.3479C17.4726 2.57379 17.7347 2.89475 17.8887 3.26998L20.7324 10.155L22.0774 10.2637C22.2087 10.2743 22.3367 10.3107 22.454 10.3707C22.5712 10.4307 22.6755 10.5133 22.7609 10.6136C22.8463 10.714 22.9111 10.8302 22.9515 10.9555C22.992 11.0809 23.0074 11.213 22.9968 11.3444C22.9862 11.4757 22.9499 11.6036 22.8898 11.7209C22.8298 11.8382 22.7472 11.9425 22.6469 12.0278C22.5465 12.1132 22.4304 12.178 22.305 12.2185C22.1796 12.2589 22.0475 12.2743 21.9162 12.2637L21.9199 12.2562ZM14.9999 23.0787V6.34748L12.8749 11.4825C12.8046 11.6528 12.6886 11.8003 12.5397 11.9088C12.3908 12.0174 12.2148 12.0826 12.0312 12.0975L4.04117 12.7425C4.02242 12.7425 4.01117 12.7425 3.99992 12.7787C3.99418 12.7895 3.99267 12.802 3.99567 12.8138C3.99868 12.8256 4.00599 12.8358 4.01617 12.8425L10.1037 18.0925C10.2425 18.2121 10.3458 18.3677 10.4022 18.542C10.4586 18.7164 10.4661 18.9029 10.4237 19.0812L8.56367 26.9312C8.55886 26.942 8.55838 26.9543 8.56233 26.9655C8.56629 26.9766 8.57437 26.9859 8.58492 26.9912C8.60742 27.0087 8.61367 27.005 8.63242 26.9912L14.9999 23.0787Z" fill="#222222"/>
</svg>
