<svg width="32" height="32" viewBox="0 0 32 32" fill="none" xmlns="http://www.w3.org/2000/svg">
<path d="M29.9997 7V13C29.9997 13.2652 29.8943 13.5196 29.7068 13.7071C29.5193 13.8946 29.2649 14 28.9997 14H22.9997C22.8018 14.0002 22.6083 13.9416 22.4437 13.8317C22.2791 13.7219 22.1508 13.5656 22.0751 13.3828C21.9993 13.2 21.9795 12.9988 22.0182 12.8047C22.0568 12.6106 22.1522 12.4324 22.2922 12.2925L24.4172 10.1675L23.0984 8.96125L23.0672 8.93125C21.6773 7.54187 19.9088 6.59283 17.9826 6.20269C16.0565 5.81255 14.0581 5.99861 12.2371 6.73763C10.416 7.47665 8.85314 8.73586 7.74361 10.358C6.63408 11.9801 6.0271 13.8931 5.99851 15.8582C5.96992 17.8232 6.52098 19.7532 7.58285 21.4068C8.64472 23.0605 10.1703 24.3647 11.9691 25.1564C13.7678 25.9481 15.76 26.1922 17.6966 25.8582C19.6333 25.5243 21.4287 24.6271 22.8584 23.2788C22.9539 23.1885 23.0662 23.1179 23.1889 23.071C23.3117 23.0241 23.4424 23.0019 23.5738 23.0055C23.7051 23.0092 23.8344 23.0387 23.9544 23.0923C24.0743 23.1459 24.1825 23.2227 24.2728 23.3181C24.3631 23.4136 24.4337 23.5259 24.4806 23.6486C24.5275 23.7714 24.5497 23.9021 24.546 24.0335C24.5424 24.1648 24.5129 24.2941 24.4593 24.4141C24.4056 24.534 24.3289 24.6422 24.2334 24.7325C22.0099 26.838 19.0619 28.0079 15.9997 28H15.8347C13.8694 27.9731 11.9407 27.4638 10.2183 26.517C8.49589 25.5702 7.03241 24.2147 5.95651 22.5698C4.8806 20.9249 4.22521 19.0409 4.04793 17.0834C3.87066 15.1259 4.17693 13.1549 4.93982 11.3435C5.70271 9.53203 6.89888 7.93574 8.42317 6.69487C9.94747 5.454 11.7532 4.60655 13.6817 4.227C15.6103 3.84744 17.6025 3.94741 19.4833 4.51811C21.3642 5.08881 23.076 6.11278 24.4684 7.5L25.8347 8.75L28.2922 6.2875C28.4323 6.14719 28.6111 6.05171 28.8056 6.01322C29.0002 5.97472 29.2018 5.99495 29.3848 6.07132C29.5678 6.1477 29.724 6.27677 29.8335 6.44213C29.943 6.6075 30.0008 6.80168 29.9997 7Z" fill="#222222"/>
</svg>
