<svg width="32" height="32" viewBox="0 0 32 32" fill="none" xmlns="http://www.w3.org/2000/svg">
<path d="M27.9237 12.3825C27.8481 12.5652 27.72 12.7214 27.5555 12.8314C27.3911 12.9413 27.1978 13 27 13H22V24C22 24.2652 21.8946 24.5196 21.7071 24.7071C21.5196 24.8946 21.2652 25 21 25H3C2.73478 25 2.48043 24.8946 2.29289 24.7071C2.10536 24.5196 2 24.2652 2 24C2 23.7348 2.10536 23.4804 2.29289 23.2929C2.48043 23.1053 2.73478 23 3 23H20V13H15C14.8021 13.0001 14.6086 12.9416 14.444 12.8317C14.2794 12.7218 14.1511 12.5656 14.0754 12.3828C13.9996 12.2 13.9798 11.9988 14.0185 11.8047C14.0571 11.6106 14.1525 11.4323 14.2925 11.2925L20.2925 5.29249C20.3854 5.19952 20.4957 5.12576 20.6171 5.07543C20.7385 5.02511 20.8686 4.99921 21 4.99921C21.1314 4.99921 21.2615 5.02511 21.3829 5.07543C21.5043 5.12576 21.6146 5.19952 21.7075 5.29249L27.7075 11.2925C27.8473 11.4324 27.9425 11.6107 27.981 11.8047C28.0195 11.9987 27.9995 12.1998 27.9237 12.3825Z" fill="#222222"/>
</svg>
