<svg width="32" height="32" viewBox="0 0 32 32" fill="none" xmlns="http://www.w3.org/2000/svg">
<path d="M27.9998 11V21C27.9998 21.5304 27.7891 22.0391 27.414 22.4142C27.0389 22.7893 26.5302 23 25.9998 23H15.9998V28C16 28.1979 15.9414 28.3914 15.8315 28.556C15.7217 28.7206 15.5654 28.8489 15.3826 28.9246C15.1998 29.0004 14.9986 29.0202 14.8045 28.9815C14.6104 28.9429 14.4322 28.8475 14.2923 28.7075L2.29231 16.7075C2.19933 16.6146 2.12557 16.5043 2.07525 16.3829C2.02493 16.2615 1.99902 16.1314 1.99902 16C1.99902 15.8686 2.02493 15.7385 2.07525 15.6171C2.12557 15.4957 2.19933 15.3854 2.29231 15.2925L14.2923 3.29249C14.4322 3.15248 14.6104 3.05712 14.8045 3.01846C14.9986 2.97981 15.1998 2.99962 15.3826 3.07537C15.5654 3.15112 15.7217 3.27942 15.8315 3.44401C15.9414 3.60861 16 3.8021 15.9998 3.99999V8.99999H25.9998C26.5302 8.99999 27.0389 9.21071 27.414 9.58578C27.7891 9.96085 27.9998 10.4696 27.9998 11Z" fill="#222222"/>
</svg>
