<svg width="32" height="32" viewBox="0 0 32 32" fill="none" xmlns="http://www.w3.org/2000/svg">
<path d="M22.9998 27C22.9998 27.2652 22.8945 27.5196 22.7069 27.7071C22.5194 27.8946 22.265 28 21.9998 28H9.99981C9.73459 28 9.48024 27.8946 9.2927 27.7071C9.10517 27.5196 8.99981 27.2652 8.99981 27C8.99981 26.7348 9.10517 26.4804 9.2927 26.2929C9.48024 26.1053 9.73459 26 9.99981 26H21.9998C22.265 26 22.5194 26.1053 22.7069 26.2929C22.8945 26.4804 22.9998 26.7348 22.9998 27ZM28.7073 14.2925L16.7073 2.29249C16.6144 2.19952 16.5041 2.12576 16.3828 2.07543C16.2614 2.02511 16.1312 1.99921 15.9998 1.99921C15.8684 1.99921 15.7383 2.02511 15.6169 2.07543C15.4955 2.12576 15.3852 2.19952 15.2923 2.29249L3.29231 14.2925C3.1523 14.4323 3.05693 14.6106 3.01828 14.8047C2.97963 14.9988 2.99944 15.2 3.07519 15.3828C3.15094 15.5656 3.27923 15.7218 3.44383 15.8317C3.60842 15.9416 3.80192 16.0001 3.99981 16H8.99981V19C8.99981 19.2652 9.10517 19.5196 9.2927 19.7071C9.48024 19.8946 9.73459 20 9.99981 20H21.9998C22.265 20 22.5194 19.8946 22.7069 19.7071C22.8945 19.5196 22.9998 19.2652 22.9998 19V16H27.9998C28.1977 16.0001 28.3912 15.9416 28.5558 15.8317C28.7204 15.7218 28.8487 15.5656 28.9244 15.3828C29.0002 15.2 29.02 14.9988 28.9813 14.8047C28.9427 14.6106 28.8473 14.4323 28.7073 14.2925ZM21.9998 22H9.99981C9.73459 22 9.48024 22.1053 9.2927 22.2929C9.10517 22.4804 8.99981 22.7348 8.99981 23C8.99981 23.2652 9.10517 23.5196 9.2927 23.7071C9.48024 23.8946 9.73459 24 9.99981 24H21.9998C22.265 24 22.5194 23.8946 22.7069 23.7071C22.8945 23.5196 22.9998 23.2652 22.9998 23C22.9998 22.7348 22.8945 22.4804 22.7069 22.2929C22.5194 22.1053 22.265 22 21.9998 22Z" fill="#222222"/>
</svg>
