<svg width="32" height="32" viewBox="0 0 32 32" fill="none" xmlns="http://www.w3.org/2000/svg">
<path d="M14.9996 18V24C14.9997 24.1979 14.9412 24.3914 14.8313 24.556C14.7214 24.7206 14.5652 24.8489 14.3824 24.9246C14.1995 25.0004 13.9984 25.0202 13.8043 24.9815C13.6102 24.9429 13.4319 24.8475 13.2921 24.7075L10.9996 22.4137L6.70708 26.7075C6.51944 26.8951 6.26494 27.0005 5.99958 27.0005C5.73422 27.0005 5.47972 26.8951 5.29208 26.7075C5.10444 26.5199 4.99902 26.2654 4.99902 26C4.99902 25.7346 5.10444 25.4801 5.29208 25.2925L9.58583 21L7.29208 18.7075C7.15207 18.5676 7.0567 18.3894 7.01805 18.1953C6.9794 18.0012 6.9992 17.8 7.07496 17.6172C7.15071 17.4344 7.279 17.2781 7.4436 17.1683C7.60819 17.0584 7.80168 16.9998 7.99958 17H13.9996C14.2648 17 14.5191 17.1053 14.7067 17.2929C14.8942 17.4804 14.9996 17.7348 14.9996 18ZM26.7071 5.29249C26.6142 5.19952 26.5039 5.12576 26.3825 5.07543C26.2611 5.02511 26.131 4.99921 25.9996 4.99921C25.8682 4.99921 25.738 5.02511 25.6166 5.07543C25.4952 5.12576 25.385 5.19952 25.2921 5.29249L20.9996 9.58624L18.7071 7.29249C18.5672 7.15248 18.389 7.05711 18.1949 7.01846C18.0008 6.97981 17.7996 6.99962 17.6168 7.07537C17.434 7.15112 17.2777 7.27942 17.1679 7.44401C17.058 7.60861 16.9994 7.8021 16.9996 7.99999V14C16.9996 14.2652 17.1049 14.5196 17.2925 14.7071C17.48 14.8946 17.7344 15 17.9996 15H23.9996C24.1975 15.0001 24.391 14.9416 24.5556 14.8317C24.7202 14.7218 24.8484 14.5656 24.9242 14.3828C25 14.2 25.0198 13.9988 24.9811 13.8047C24.9425 13.6106 24.8471 13.4323 24.7071 13.2925L22.4133 11L26.7071 6.70749C26.8001 6.61462 26.8738 6.50433 26.9241 6.38293C26.9745 6.26154 27.0004 6.13141 27.0004 5.99999C27.0004 5.86858 26.9745 5.73845 26.9241 5.61705C26.8738 5.49565 26.8001 5.38537 26.7071 5.29249Z" fill="#222222"/>
</svg>
