<svg width="32" height="32" viewBox="0 0 32 32" fill="none" xmlns="http://www.w3.org/2000/svg">
<path d="M25.9236 14.3825C25.8479 14.5652 25.7198 14.7214 25.5553 14.8314C25.3909 14.9413 25.1976 15 24.9998 15H16.9998V27C16.9998 27.2652 16.8945 27.5196 16.7069 27.7071C16.5194 27.8946 16.265 28 15.9998 28C15.7346 28 15.4802 27.8946 15.2927 27.7071C15.1052 27.5196 14.9998 27.2652 14.9998 27V15H6.99981C6.80192 15.0001 6.60842 14.9416 6.44383 14.8317C6.27923 14.7218 6.15094 14.5656 6.07519 14.3828C5.99944 14.2 5.97963 13.9988 6.01828 13.8047C6.05693 13.6106 6.1523 13.4323 6.29231 13.2925L15.2923 4.29249C15.3852 4.19952 15.4955 4.12576 15.6169 4.07543C15.7383 4.02511 15.8684 3.99921 15.9998 3.99921C16.1312 3.99921 16.2614 4.02511 16.3828 4.07543C16.5041 4.12576 16.6144 4.19952 16.7073 4.29249L25.7073 13.2925C25.8471 13.4324 25.9423 13.6107 25.9808 13.8047C26.0193 13.9987 25.9994 14.1998 25.9236 14.3825Z" fill="#222222"/>
</svg>
