<svg width="32" height="32" viewBox="0 0 32 32" fill="none" xmlns="http://www.w3.org/2000/svg">
<path d="M24.7075 8.70751L15.9137 17.5L21.7075 23.2925C21.8475 23.4324 21.9429 23.6106 21.9815 23.8047C22.0202 23.9988 22.0004 24.2 21.9246 24.3828C21.8489 24.5656 21.7206 24.7219 21.556 24.8317C21.3914 24.9416 21.1979 25.0002 21 25H8C7.73478 25 7.48043 24.8947 7.29289 24.7071C7.10536 24.5196 7 24.2652 7 24V11C6.99984 10.8021 7.05841 10.6086 7.16828 10.444C7.27815 10.2794 7.43439 10.1511 7.61721 10.0754C7.80003 9.99963 8.00122 9.97983 8.19531 10.0185C8.38939 10.0571 8.56765 10.1525 8.7075 10.2925L14.5 16.0863L23.2925 7.29251C23.3854 7.1996 23.4957 7.1259 23.6171 7.07561C23.7385 7.02533 23.8686 6.99945 24 6.99945C24.1314 6.99945 24.2615 7.02533 24.3829 7.07561C24.5043 7.1259 24.6146 7.1996 24.7075 7.29251C24.8004 7.38542 24.8741 7.49572 24.9244 7.61711C24.9747 7.7385 25.0006 7.86861 25.0006 8.00001C25.0006 8.1314 24.9747 8.26151 24.9244 8.3829C24.8741 8.5043 24.8004 8.6146 24.7075 8.70751Z" fill="#222222"/>
</svg>
