<svg width="32" height="32" viewBox="0 0 32 32" fill="none" xmlns="http://www.w3.org/2000/svg">
<path d="M28.9998 18C28.9975 20.121 28.1539 22.1545 26.6541 23.6543C25.1543 25.1541 23.1208 25.9977 20.9998 26H9.99981C9.73459 26 9.48024 25.8946 9.2927 25.7071C9.10517 25.5196 8.99981 25.2652 8.99981 25C8.99981 24.7348 9.10517 24.4804 9.2927 24.2929C9.48024 24.1054 9.73459 24 9.99981 24H20.9998C22.5911 24 24.1172 23.3679 25.2425 22.2426C26.3677 21.1174 26.9998 19.5913 26.9998 18C26.9998 16.4087 26.3677 14.8826 25.2425 13.7574C24.1172 12.6321 22.5911 12 20.9998 12H10.9998V17C11 17.1979 10.9414 17.3914 10.8315 17.556C10.7217 17.7206 10.5654 17.8489 10.3826 17.9246C10.1998 18.0004 9.99859 18.0202 9.8045 17.9815C9.61042 17.9429 9.43217 17.8475 9.29231 17.7075L3.29231 11.7075C3.19933 11.6146 3.12557 11.5043 3.07525 11.3829C3.02493 11.2615 2.99902 11.1314 2.99902 11C2.99902 10.8686 3.02493 10.7385 3.07525 10.6171C3.12557 10.4957 3.19933 10.3854 3.29231 10.2925L9.29231 4.29249C9.43217 4.15248 9.61042 4.05712 9.8045 4.01846C9.99859 3.97981 10.1998 3.99962 10.3826 4.07537C10.5654 4.15112 10.7217 4.27942 10.8315 4.44401C10.9414 4.60861 11 4.8021 10.9998 4.99999V9.99999H20.9998C23.1208 10.0023 25.1543 10.8459 26.6541 12.3457C28.1539 13.8455 28.9975 15.879 28.9998 18Z" fill="#222222"/>
</svg>
