<svg width="32" height="32" viewBox="0 0 32 32" fill="none" xmlns="http://www.w3.org/2000/svg">
<path d="M29.7073 16.7075L25.7073 20.7075C25.5675 20.8475 25.3892 20.9429 25.1951 20.9815C25.001 21.0202 24.7998 21.0004 24.617 20.9246C24.4342 20.8489 24.278 20.7206 24.1681 20.556C24.0582 20.3914 23.9997 20.1979 23.9998 20V17H7.99981V20C7.99997 20.1979 7.9414 20.3914 7.83153 20.556C7.72166 20.7206 7.56542 20.8489 7.3826 20.9246C7.19978 21.0004 6.99859 21.0202 6.8045 20.9815C6.61042 20.9429 6.43217 20.8475 6.29231 20.7075L2.29231 16.7075C2.19933 16.6146 2.12557 16.5043 2.07525 16.3829C2.02493 16.2615 1.99902 16.1314 1.99902 16C1.99902 15.8686 2.02493 15.7385 2.07525 15.6171C2.12557 15.4957 2.19933 15.3854 2.29231 15.2925L6.29231 11.2925C6.43217 11.1525 6.61042 11.0571 6.8045 11.0185C6.99859 10.9798 7.19978 10.9996 7.3826 11.0754C7.56542 11.1511 7.72166 11.2794 7.83153 11.444C7.9414 11.6086 7.99997 11.8021 7.99981 12V15H23.9998V12C23.9997 11.8021 24.0582 11.6086 24.1681 11.444C24.278 11.2794 24.4342 11.1511 24.617 11.0754C24.7998 10.9996 25.001 10.9798 25.1951 11.0185C25.3892 11.0571 25.5675 11.1525 25.7073 11.2925L29.7073 15.2925C29.8003 15.3854 29.874 15.4957 29.9244 15.6171C29.9747 15.7385 30.0006 15.8686 30.0006 16C30.0006 16.1314 29.9747 16.2615 29.9244 16.3829C29.874 16.5043 29.8003 16.6146 29.7073 16.7075Z" fill="#222222"/>
</svg>
