<svg width="32" height="32" viewBox="0 0 32 32" fill="none" xmlns="http://www.w3.org/2000/svg">
<path d="M25.1966 6.80375C23.0686 4.67141 20.267 3.34306 17.2692 3.04511C14.2715 2.74717 11.2632 3.49807 8.75706 5.16983C6.25096 6.84159 4.4022 9.33073 3.52588 12.213C2.64956 15.0952 2.79993 18.1922 3.95136 20.976C5.1028 23.7598 7.18402 26.0581 9.84029 27.4792C12.4966 28.9003 15.5635 29.3562 18.5183 28.7693C21.473 28.1823 24.1328 26.5888 26.0442 24.2603C27.9557 21.9318 29.0004 19.0125 29.0004 16C29.0001 12.5519 27.6322 9.24462 25.1966 6.80375ZM20.7091 18.7087L16.7091 22.7087C16.6163 22.8017 16.506 22.8755 16.3846 22.9258C16.2632 22.9761 16.1331 23.002 16.0016 23.002C15.8702 23.002 15.7401 22.9761 15.6187 22.9258C15.4973 22.8755 15.387 22.8017 15.2941 22.7087L11.2941 18.7087C11.2012 18.6158 11.1275 18.5055 11.0773 18.3841C11.027 18.2628 11.0011 18.1326 11.0011 18.0012C11.0011 17.8699 11.027 17.7397 11.0773 17.6184C11.1275 17.497 11.2012 17.3867 11.2941 17.2937C11.3871 17.2008 11.4974 17.1271 11.6187 17.0769C11.7401 17.0266 11.8702 17.0007 12.0016 17.0007C12.133 17.0007 12.2631 17.0266 12.3845 17.0769C12.5059 17.1271 12.6162 17.2008 12.7091 17.2937L16.0004 20.5888L19.2941 17.2937C19.4818 17.1061 19.7363 17.0007 20.0016 17.0007C20.267 17.0007 20.5215 17.1061 20.7091 17.2937C20.8968 17.4814 21.0022 17.7359 21.0022 18.0012C21.0022 18.2666 20.8968 18.5211 20.7091 18.7087ZM20.7091 11.7087L16.7091 15.7087C16.6163 15.8017 16.506 15.8755 16.3846 15.9258C16.2632 15.9761 16.1331 16.002 16.0016 16.002C15.8702 16.002 15.7401 15.9761 15.6187 15.9258C15.4973 15.8755 15.387 15.8017 15.2941 15.7087L11.2941 11.7087C11.2012 11.6158 11.1275 11.5055 11.0773 11.3841C11.027 11.2628 11.0011 11.1326 11.0011 11.0012C11.0011 10.8699 11.027 10.7397 11.0773 10.6184C11.1275 10.497 11.2012 10.3867 11.2941 10.2937C11.3871 10.2008 11.4974 10.1271 11.6187 10.0769C11.7401 10.0266 11.8702 10.0007 12.0016 10.0007C12.133 10.0007 12.2631 10.0266 12.3845 10.0769C12.5059 10.1271 12.6162 10.2008 12.7091 10.2937L16.0004 13.585L19.2941 10.29C19.4818 10.1024 19.7363 9.99694 20.0016 9.99694C20.267 9.99694 20.5215 10.1024 20.7091 10.29C20.8968 10.4776 21.0022 10.7321 21.0022 10.9975C21.0022 11.2629 20.8968 11.5174 20.7091 11.705V11.7087Z" fill="#222222"/>
</svg>
