<svg width="32" height="32" viewBox="0 0 32 32" fill="none" xmlns="http://www.w3.org/2000/svg">
<path d="M18.7075 15.2925C18.8005 15.3854 18.8742 15.4957 18.9246 15.6171C18.9749 15.7385 19.0008 15.8686 19.0008 16C19.0008 16.1314 18.9749 16.2615 18.9246 16.3829C18.8742 16.5043 18.8005 16.6146 18.7075 16.7075L8.7075 26.7075C8.56765 26.8475 8.38939 26.9429 8.19531 26.9815C8.00122 27.0202 7.80003 27.0004 7.61721 26.9246C7.43439 26.8489 7.27815 26.7206 7.16828 26.556C7.05841 26.3914 6.99984 26.1979 7 26V5.99999C6.99984 5.8021 7.05841 5.60861 7.16828 5.44401C7.27815 5.27942 7.43439 5.15112 7.61721 5.07537C7.80003 4.99962 8.00122 4.97981 8.19531 5.01846C8.38939 5.05712 8.56765 5.15248 8.7075 5.29249L18.7075 15.2925ZM23 4.99999C22.7348 4.99999 22.4804 5.10535 22.2929 5.29289C22.1054 5.48042 22 5.73478 22 5.99999V26C22 26.2652 22.1054 26.5196 22.2929 26.7071C22.4804 26.8946 22.7348 27 23 27C23.2652 27 23.5196 26.8946 23.7071 26.7071C23.8946 26.5196 24 26.2652 24 26V5.99999C24 5.73478 23.8946 5.48042 23.7071 5.29289C23.5196 5.10535 23.2652 4.99999 23 4.99999Z" fill="#222222"/>
</svg>
