<svg width="32" height="32" viewBox="0 0 32 32" fill="none" xmlns="http://www.w3.org/2000/svg">
<path d="M25.1967 6.80252C23.3781 4.98571 21.0617 3.74884 18.5403 3.24826C16.0189 2.74768 13.4057 3.00586 11.031 3.99018C8.65627 4.97449 6.6267 6.64074 5.1988 8.7783C3.77091 10.9159 3.00879 13.4288 3.00879 15.9994C3.00879 18.57 3.77091 21.0829 5.1988 23.2205C6.6267 25.3581 8.65627 27.0243 11.031 28.0086C13.4057 28.9929 16.0189 29.2511 18.5403 28.7505C21.0617 28.25 23.3781 27.0131 25.1967 25.1963C27.6322 22.7552 29 19.4477 29 15.9994C29 12.5511 27.6322 9.24362 25.1967 6.80252ZM15.7079 16.7075L11.7079 20.7075C11.615 20.8004 11.5047 20.8741 11.3833 20.9244C11.2619 20.9747 11.1318 21.0006 11.0004 21.0006C10.869 21.0006 10.7389 20.9747 10.6175 20.9244C10.4961 20.8741 10.3858 20.8004 10.2929 20.7075C10.2 20.6146 10.1263 20.5043 10.076 20.3829C10.0258 20.2615 9.99988 20.1314 9.99988 20C9.99988 19.8686 10.0258 19.7385 10.076 19.6171C10.1263 19.4957 10.2 19.3854 10.2929 19.2925L13.5854 16L10.2904 12.705C10.1975 12.6121 10.1238 12.5018 10.0735 12.3804C10.0233 12.259 9.99738 12.1289 9.99738 11.9975C9.99738 11.8661 10.0233 11.736 10.0735 11.6146C10.1238 11.4932 10.1975 11.3829 10.2904 11.29C10.3833 11.1971 10.4936 11.1234 10.615 11.0731C10.7364 11.0228 10.8665 10.997 10.9979 10.997C11.1293 10.997 11.2594 11.0228 11.3808 11.0731C11.5022 11.1234 11.6125 11.1971 11.7054 11.29L15.7054 15.29C15.799 15.3828 15.8732 15.4931 15.924 15.6146C15.9747 15.7362 16.001 15.8665 16.0012 15.9983C16.0015 16.13 15.9757 16.2604 15.9253 16.3821C15.875 16.5039 15.8011 16.6144 15.7079 16.7075ZM22.7079 16.7075L18.7079 20.7075C18.5203 20.8952 18.2658 21.0006 18.0004 21.0006C17.7351 21.0006 17.4806 20.8952 17.2929 20.7075C17.1053 20.5199 16.9999 20.2654 16.9999 20C16.9999 19.7347 17.1053 19.4802 17.2929 19.2925L20.5892 16L17.2942 12.705C17.2013 12.6121 17.1276 12.5018 17.0773 12.3804C17.027 12.259 17.0011 12.1289 17.0011 11.9975C17.0011 11.8661 17.027 11.736 17.0773 11.6146C17.1276 11.4932 17.2013 11.3829 17.2942 11.29C17.3871 11.1971 17.4974 11.1234 17.6188 11.0731C17.7402 11.0228 17.8703 10.997 18.0017 10.997C18.1331 10.997 18.2632 11.0228 18.3846 11.0731C18.506 11.1234 18.6163 11.1971 18.7092 11.29L22.7092 15.29C22.8026 15.3829 22.8768 15.4932 22.9275 15.6148C22.9781 15.7364 23.0042 15.8668 23.0044 15.9985C23.0045 16.1302 22.9786 16.2607 22.9281 16.3823C22.8777 16.504 22.8037 16.6145 22.7104 16.7075H22.7079Z" fill="#222222"/>
</svg>
