<svg width="32" height="32" viewBox="0 0 32 32" fill="none" xmlns="http://www.w3.org/2000/svg">
<path d="M9.07606 10.3825C9.00026 10.1998 8.98035 9.99871 9.01884 9.80469C9.05734 9.61067 9.1525 9.43242 9.29231 9.29249L15.2923 3.29249C15.3852 3.19952 15.4955 3.12576 15.6169 3.07543C15.7383 3.02511 15.8684 2.99921 15.9998 2.99921C16.1312 2.99921 16.2614 3.02511 16.3828 3.07543C16.5041 3.12576 16.6144 3.19952 16.7073 3.29249L22.7073 9.29249C22.8473 9.43235 22.9427 9.6106 22.9813 9.80469C23.02 9.99877 23.0002 10.2 22.9244 10.3828C22.8487 10.5656 22.7204 10.7218 22.5558 10.8317C22.3912 10.9416 22.1977 11.0001 21.9998 11H9.99981C9.80203 11 9.6087 10.9413 9.44428 10.8314C9.27985 10.7214 9.15171 10.5652 9.07606 10.3825ZM21.9998 21H9.99981C9.80192 20.9998 9.60842 21.0584 9.44383 21.1683C9.27924 21.2781 9.15094 21.4344 9.07519 21.6172C8.99944 21.8 8.97963 22.0012 9.01828 22.1953C9.05693 22.3894 9.1523 22.5676 9.29231 22.7075L15.2923 28.7075C15.3852 28.8005 15.4955 28.8742 15.6169 28.9246C15.7383 28.9749 15.8684 29.0008 15.9998 29.0008C16.1312 29.0008 16.2614 28.9749 16.3828 28.9246C16.5041 28.8742 16.6144 28.8005 16.7073 28.7075L22.7073 22.7075C22.8473 22.5676 22.9427 22.3894 22.9813 22.1953C23.02 22.0012 23.0002 21.8 22.9244 21.6172C22.8487 21.4344 22.7204 21.2781 22.5558 21.1683C22.3912 21.0584 22.1977 20.9998 21.9998 21Z" fill="#222222"/>
</svg>
