<svg width="32" height="32" viewBox="0 0 32 32" fill="none" xmlns="http://www.w3.org/2000/svg">
<path d="M25 5.99999V26C25.0002 26.1979 24.9416 26.3914 24.8317 26.556C24.7218 26.7206 24.5656 26.8489 24.3828 26.9246C24.2 27.0004 23.9988 27.0202 23.8047 26.9815C23.6106 26.9429 23.4324 26.8475 23.2925 26.7075L13.2925 16.7075C13.1995 16.6146 13.1258 16.5043 13.0754 16.3829C13.0251 16.2615 12.9992 16.1314 12.9992 16C12.9992 15.8686 13.0251 15.7385 13.0754 15.6171C13.1258 15.4957 13.1995 15.3854 13.2925 15.2925L23.2925 5.29249C23.4324 5.15248 23.6106 5.05712 23.8047 5.01846C23.9988 4.97981 24.2 4.99962 24.3828 5.07537C24.5656 5.15112 24.7218 5.27942 24.8317 5.44401C24.9416 5.60861 25.0002 5.8021 25 5.99999ZM9 4.99999C8.73478 4.99999 8.48043 5.10535 8.29289 5.29289C8.10536 5.48042 8 5.73478 8 5.99999V26C8 26.2652 8.10536 26.5196 8.29289 26.7071C8.48043 26.8946 8.73478 27 9 27C9.26522 27 9.51957 26.8946 9.70711 26.7071C9.89464 26.5196 10 26.2652 10 26V5.99999C10 5.73478 9.89464 5.48042 9.70711 5.29289C9.51957 5.10535 9.26522 4.99999 9 4.99999Z" fill="#222222"/>
</svg>
