<svg width="32" height="32" viewBox="0 0 32 32" fill="none" xmlns="http://www.w3.org/2000/svg">
<path d="M25.1967 6.80252C23.3781 4.98571 21.0617 3.74884 18.5403 3.24826C16.0189 2.74768 13.4057 3.00586 11.031 3.99018C8.65627 4.97449 6.6267 6.64074 5.1988 8.7783C3.77091 10.9159 3.00879 13.4288 3.00879 15.9994C3.00879 18.57 3.77091 21.0829 5.1988 23.2205C6.6267 25.3581 8.65627 27.0243 11.031 28.0086C13.4057 28.9929 16.0189 29.2511 18.5403 28.7505C21.0617 28.25 23.3781 27.0131 25.1967 25.1963C27.6322 22.7552 29 19.4477 29 15.9994C29 12.5511 27.6322 9.24362 25.1967 6.80252ZM14.7067 19.2938C14.7996 19.3867 14.8733 19.497 14.9236 19.6184C14.9739 19.7398 14.9997 19.8699 14.9997 20.0013C14.9997 20.1327 14.9739 20.2628 14.9236 20.3842C14.8733 20.5056 14.7996 20.6159 14.7067 20.7088C14.6138 20.8017 14.5035 20.8754 14.3821 20.9257C14.2607 20.9759 14.1306 21.0018 13.9992 21.0018C13.8678 21.0018 13.7377 20.9759 13.6163 20.9257C13.4949 20.8754 13.3846 20.8017 13.2917 20.7088L9.29169 16.7088C9.19871 16.6159 9.12495 16.5056 9.07463 16.3842C9.0243 16.2628 8.9984 16.1327 8.9984 16.0013C8.9984 15.8699 9.0243 15.7397 9.07463 15.6183C9.12495 15.4969 9.19871 15.3866 9.29169 15.2938L13.2917 11.2938C13.3846 11.2009 13.4949 11.1272 13.6163 11.0769C13.7377 11.0266 13.8678 11.0007 13.9992 11.0007C14.1306 11.0007 14.2607 11.0266 14.3821 11.0769C14.5035 11.1272 14.6138 11.2009 14.7067 11.2938C14.7996 11.3867 14.8733 11.497 14.9236 11.6184C14.9739 11.7398 14.9997 11.8699 14.9997 12.0013C14.9997 12.1327 14.9739 12.2628 14.9236 12.3842C14.8733 12.5056 14.7996 12.6159 14.7067 12.7088L11.4117 16L14.7067 19.2938ZM21.7067 19.2938C21.7996 19.3867 21.8733 19.497 21.9236 19.6184C21.9739 19.7398 21.9997 19.8699 21.9997 20.0013C21.9997 20.1327 21.9739 20.2628 21.9236 20.3842C21.8733 20.5056 21.7996 20.6159 21.7067 20.7088C21.6138 20.8017 21.5035 20.8754 21.3821 20.9257C21.2607 20.9759 21.1306 21.0018 20.9992 21.0018C20.8678 21.0018 20.7377 20.9759 20.6163 20.9257C20.4949 20.8754 20.3846 20.8017 20.2917 20.7088L16.2917 16.7088C16.1987 16.6159 16.125 16.5056 16.0746 16.3842C16.0243 16.2628 15.9984 16.1327 15.9984 16.0013C15.9984 15.8699 16.0243 15.7397 16.0746 15.6183C16.125 15.4969 16.1987 15.3866 16.2917 15.2938L20.2917 11.2938C20.3846 11.2009 20.4949 11.1272 20.6163 11.0769C20.7377 11.0266 20.8678 11.0007 20.9992 11.0007C21.1306 11.0007 21.2607 11.0266 21.3821 11.0769C21.5035 11.1272 21.6138 11.2009 21.7067 11.2938C21.7996 11.3867 21.8733 11.497 21.9236 11.6184C21.9739 11.7398 21.9997 11.8699 21.9997 12.0013C21.9997 12.1327 21.9739 12.2628 21.9236 12.3842C21.8733 12.5056 21.7996 12.6159 21.7067 12.7088L18.4154 16L21.7067 19.2938Z" fill="#222222"/>
</svg>
