<svg width="32" height="32" viewBox="0 0 32 32" fill="none" xmlns="http://www.w3.org/2000/svg">
<path d="M29.7075 17.7075L25.7075 21.7075C25.5676 21.8475 25.3894 21.9429 25.1953 21.9815C25.0012 22.0202 24.8 22.0004 24.6172 21.9246C24.4344 21.8489 24.2782 21.7206 24.1683 21.556C24.0584 21.3914 23.9998 21.1979 24 21V18H15.4137L10.4138 23L12.7075 25.2925C12.8475 25.4323 12.9429 25.6106 12.9815 25.8047C13.0202 25.9988 13.0004 26.2 12.9246 26.3828C12.8489 26.5656 12.7206 26.7218 12.556 26.8317C12.3914 26.9416 12.1979 27.0001 12 27H6C5.73478 27 5.48043 26.8946 5.29289 26.7071C5.10536 26.5196 5 26.2652 5 26V20C4.99984 19.8021 5.05841 19.6086 5.16828 19.444C5.27815 19.2794 5.43439 19.1511 5.61721 19.0754C5.80003 18.9996 6.00122 18.9798 6.19531 19.0185C6.38939 19.0571 6.56764 19.1525 6.7075 19.2925L9 21.5862L14 16.5862V7.99999H11C10.8021 8.00015 10.6086 7.94158 10.444 7.83171C10.2794 7.72184 10.1511 7.56561 10.0754 7.38278C9.99963 7.19996 9.97982 6.99877 10.0185 6.80469C10.0571 6.6106 10.1525 6.43235 10.2925 6.29249L14.2925 2.29249C14.3854 2.19952 14.4957 2.12576 14.6171 2.07543C14.7385 2.02511 14.8686 1.99921 15 1.99921C15.1314 1.99921 15.2615 2.02511 15.3829 2.07543C15.5043 2.12576 15.6146 2.19952 15.7075 2.29249L19.7075 6.29249C19.8475 6.43235 19.9429 6.6106 19.9815 6.80469C20.0202 6.99877 20.0004 7.19996 19.9246 7.38278C19.8489 7.56561 19.7206 7.72184 19.556 7.83171C19.3914 7.94158 19.1979 8.00015 19 7.99999H16V16H24V13C23.9998 12.8021 24.0584 12.6086 24.1683 12.444C24.2782 12.2794 24.4344 12.1511 24.6172 12.0754C24.8 11.9996 25.0012 11.9798 25.1953 12.0185C25.3894 12.0571 25.5676 12.1525 25.7075 12.2925L29.7075 16.2925C29.8005 16.3854 29.8742 16.4957 29.9246 16.6171C29.9749 16.7385 30.0008 16.8686 30.0008 17C30.0008 17.1314 29.9749 17.2615 29.9246 17.3829C29.8742 17.5043 29.8005 17.6146 29.7075 17.7075Z" fill="#222222"/>
</svg>
