<svg width="32" height="32" viewBox="0 0 32 32" fill="none" xmlns="http://www.w3.org/2000/svg">
<path d="M21.9997 27C21.9997 27.2652 21.8944 27.5196 21.7068 27.7071C21.5193 27.8946 21.265 28 20.9997 28H2.99974C2.73452 28 2.48017 27.8946 2.29263 27.7071C2.1051 27.5196 1.99974 27.2652 1.99974 27C1.99974 26.7348 2.1051 26.4804 2.29263 26.2929C2.48017 26.1054 2.73452 26 2.99974 26H20.9997C21.265 26 21.5193 26.1054 21.7068 26.2929C21.8944 26.4804 21.9997 26.7348 21.9997 27ZM30.7885 10.845L28.4585 7.85874L28.4435 7.83999C27.69 6.9119 26.6277 6.28599 25.4507 6.07667C24.2737 5.86735 23.0608 6.0886 22.0335 6.69999L15.5872 10.5475L8.84474 8.06749C8.6194 7.98347 8.37133 7.98347 8.14599 8.06749L7.24974 8.40874L7.20974 8.42499C6.90312 8.55661 6.63431 8.76285 6.42778 9.02492C6.22126 9.28699 6.08358 9.59657 6.02729 9.92546C5.97101 10.2544 5.9979 10.5921 6.10553 10.9079C6.21315 11.2238 6.39809 11.5077 6.64349 11.7337L9.37474 14.3825L6.85349 15.9075L3.32099 14.715C3.07098 14.6308 2.79781 14.6487 2.56099 14.765L2.18599 14.9487C1.88597 15.0828 1.62361 15.2887 1.4221 15.5483C1.2206 15.8079 1.08616 16.1131 1.03067 16.437C0.975184 16.7609 1.00036 17.0935 1.10398 17.4053C1.20759 17.7172 1.38645 17.9987 1.62474 18.225L6.12474 22.6337L6.13974 22.6487C7.06151 23.52 8.28138 24.0061 9.54974 24.0075C10.4401 24.006 11.3142 23.7679 12.0822 23.3175L30.5085 12.3175C30.6301 12.2448 30.7348 12.1472 30.8158 12.031C30.8969 11.9148 30.9522 11.7827 30.9784 11.6435C31.0045 11.5043 31.0007 11.3611 30.9673 11.2234C30.934 11.0858 30.8717 10.9568 30.7847 10.845H30.7885Z" fill="#222222"/>
</svg>
