<svg width="32" height="32" viewBox="0 0 32 32" fill="none" xmlns="http://www.w3.org/2000/svg">
<path d="M29.8745 23.5099L21.7095 8.99989H28.9595C29.2191 9.0056 29.4711 8.91224 29.6643 8.73879C29.8575 8.56534 29.9774 8.32482 29.9995 8.06614C30.0086 7.92935 29.9895 7.79216 29.9433 7.66308C29.8971 7.534 29.8249 7.41579 29.7311 7.3158C29.6374 7.21581 29.524 7.13616 29.3982 7.08182C29.2723 7.02747 29.1366 6.99958 28.9995 6.99989H3.0333C2.7748 6.99577 2.52436 7.08985 2.33251 7.26315C2.14065 7.43644 2.02167 7.67605 1.99955 7.93364C1.99047 8.07042 2.00961 8.20762 2.05578 8.33669C2.10195 8.46577 2.17417 8.58398 2.26795 8.68397C2.36173 8.78396 2.47506 8.86361 2.60092 8.91795C2.72678 8.9723 2.86246 9.00019 2.99955 8.99989H10.2895L2.12455 23.5099C2.01974 23.6962 1.97738 23.9112 2.0037 24.1233C2.03002 24.3355 2.12363 24.5336 2.2708 24.6886C2.3682 24.7886 2.4849 24.8678 2.61383 24.9213C2.74276 24.9748 2.88122 25.0015 3.0208 24.9999H14.4995C14.6322 24.9999 14.7593 24.9472 14.8531 24.8534C14.9469 24.7597 14.9995 24.6325 14.9995 24.4999V22.0336C14.9961 21.7756 15.0904 21.5257 15.2637 21.3344C15.4369 21.1431 15.6762 21.0245 15.9333 21.0024C16.0701 20.9933 16.2073 21.0124 16.3364 21.0586C16.4654 21.1048 16.5836 21.177 16.6836 21.2708C16.7836 21.3646 16.8633 21.4779 16.9176 21.6038C16.972 21.7296 16.9999 21.8653 16.9995 22.0024V24.5024C16.9995 24.635 17.0522 24.7622 17.146 24.8559C17.2398 24.9497 17.3669 25.0024 17.4995 25.0024H28.9708C29.1104 25.004 29.2488 24.9773 29.3778 24.9238C29.5067 24.8703 29.6234 24.7911 29.7208 24.6911C29.8697 24.5368 29.9651 24.3386 29.9928 24.1259C30.0204 23.9132 29.979 23.6972 29.8745 23.5099ZM16.9995 17.4999C16.9995 17.7651 16.8942 18.0195 16.7067 18.207C16.5191 18.3945 16.2648 18.4999 15.9995 18.4999C15.7343 18.4999 15.48 18.3945 15.2924 18.207C15.1049 18.0195 14.9995 17.7651 14.9995 17.4999V15.4999C14.9995 15.2347 15.1049 14.9803 15.2924 14.7928C15.48 14.6052 15.7343 14.4999 15.9995 14.4999C16.2648 14.4999 16.5191 14.6052 16.7067 14.7928C16.8942 14.9803 16.9995 15.2347 16.9995 15.4999V17.4999ZM16.9995 10.9999C16.9995 11.2651 16.8942 11.5195 16.7067 11.707C16.5191 11.8945 16.2648 11.9999 15.9995 11.9999C15.7343 11.9999 15.48 11.8945 15.2924 11.707C15.1049 11.5195 14.9995 11.2651 14.9995 10.9999V9.99989C14.9995 9.73467 15.1049 9.48031 15.2924 9.29278C15.48 9.10524 15.7343 8.99989 15.9995 8.99989C16.2648 8.99989 16.5191 9.10524 16.7067 9.29278C16.8942 9.48031 16.9995 9.73467 16.9995 9.99989V10.9999Z" fill="#222222"/>
</svg>
