<svg width="32" height="32" viewBox="0 0 32 32" fill="none" xmlns="http://www.w3.org/2000/svg">
<path d="M12.731 23.8925C12.1672 25.125 10.286 28 4.99974 28C4.73453 28 4.48017 27.8946 4.29264 27.7071C4.1051 27.5195 3.99974 27.2652 3.99974 27C3.99974 21.7137 6.87474 19.8325 8.10724 19.2687C8.22675 19.2142 8.35581 19.1838 8.48708 19.1792C8.61834 19.1745 8.74922 19.1958 8.87226 19.2418C8.9953 19.2878 9.10808 19.3575 9.20416 19.4471C9.30024 19.5366 9.37775 19.6442 9.43224 19.7637C9.48674 19.8832 9.51717 20.0123 9.52179 20.1435C9.52641 20.2748 9.50513 20.4057 9.45916 20.5287C9.4132 20.6518 9.34345 20.7645 9.2539 20.8606C9.16435 20.9567 9.05675 21.0342 8.93724 21.0887C8.13349 21.455 6.35974 22.6337 6.04724 25.9525C9.36599 25.64 10.5472 23.8662 10.911 23.0625C10.9655 22.943 11.043 22.8354 11.1391 22.7458C11.2352 22.6563 11.3479 22.5865 11.471 22.5405C11.594 22.4946 11.7249 22.4733 11.8562 22.4779C11.9874 22.4825 12.1165 22.513 12.236 22.5675C12.3555 22.622 12.4631 22.6995 12.5526 22.7955C12.6422 22.8916 12.7119 23.0044 12.7579 23.1274C12.8039 23.2505 12.8252 23.3814 12.8205 23.5126C12.8159 23.6439 12.7855 23.773 12.731 23.8925ZM27.981 5.89245C27.9514 5.40486 27.7443 4.94497 27.3989 4.59956C27.0535 4.25414 26.5936 4.04709 26.106 4.01745C24.5335 3.9237 20.5147 4.06745 17.181 7.4012L10.9997 13.5875C10.9069 13.6804 10.7967 13.7542 10.6753 13.8046C10.554 13.855 10.4239 13.881 10.2925 13.8811C10.0271 13.8814 9.77255 13.7762 9.58474 13.5887C9.39694 13.4012 9.2913 13.1468 9.29106 12.8815C9.29083 12.6161 9.39602 12.3615 9.58349 12.1737L12.9035 8.85245C12.973 8.78254 13.0203 8.69363 13.0394 8.59692C13.0585 8.50021 13.0486 8.4 13.011 8.30889C12.9733 8.21779 12.9095 8.13985 12.8277 8.08489C12.7458 8.02992 12.6496 8.00037 12.551 7.99995H9.29349C9.03004 7.99857 8.76894 8.04957 8.52538 8.15C8.28182 8.25043 8.06065 8.39828 7.87474 8.58495L3.58724 12.875C3.3243 13.1377 3.1398 13.4686 3.05443 13.8303C2.96906 14.1921 2.98621 14.5706 3.10396 14.9232C3.2217 15.2757 3.43538 15.5885 3.72102 15.8264C4.00665 16.0643 4.35293 16.2179 4.72099 16.27L9.52974 16.9412L15.056 22.4675L15.7272 27.2787C15.7789 27.6468 15.9324 27.9931 16.1705 28.2785C16.4087 28.5639 16.7219 28.777 17.0747 28.8937C17.2803 28.9624 17.4955 28.9974 17.7122 28.9975C17.9746 28.9979 18.2345 28.9465 18.477 28.8461C18.7194 28.7457 18.9395 28.5983 19.1247 28.4125L23.4147 24.125C23.6009 23.9386 23.7483 23.7174 23.8487 23.4739C23.9491 23.2305 24.0004 22.9696 23.9997 22.7062V19.4487C23.9996 19.3499 23.9701 19.2533 23.9151 19.1712C23.8601 19.0891 23.7819 19.0251 23.6906 18.9874C23.5992 18.9497 23.4987 18.9399 23.4018 18.9592C23.3049 18.9786 23.2158 19.0263 23.146 19.0962L19.8247 22.4162C19.7276 22.5134 19.6115 22.5896 19.4836 22.64C19.3557 22.6903 19.2188 22.7137 19.0814 22.7088C18.9441 22.7039 18.8092 22.6707 18.6853 22.6113C18.5613 22.5519 18.4509 22.4677 18.361 22.3637C18.197 22.1653 18.1136 21.9124 18.1275 21.6553C18.1414 21.3982 18.2515 21.1558 18.436 20.9762L24.5947 14.8175C27.931 11.4825 28.0747 7.4637 27.981 5.88995V5.89245Z" fill="#222222"/>
</svg>
