<svg width="32" height="32" viewBox="0 0 32 32" fill="none" xmlns="http://www.w3.org/2000/svg">
<path d="M19.0003 28.0001C19.0003 28.2653 18.8949 28.5197 18.7074 28.7072C18.5199 28.8947 18.2655 29.0001 18.0003 29.0001H14.0003C13.7351 29.0001 13.4807 28.8947 13.2932 28.7072C13.1056 28.5197 13.0003 28.2653 13.0003 28.0001C13.0003 27.7349 13.1056 27.4805 13.2932 27.293C13.4807 27.1054 13.7351 27.0001 14.0003 27.0001H18.0003C18.2655 27.0001 18.5199 27.1054 18.7074 27.293C18.8949 27.4805 19.0003 27.7349 19.0003 28.0001ZM27.9528 19.4788L26.4078 26.4326C26.3345 26.7628 26.1786 27.069 25.9548 27.3226C25.731 27.5763 25.4465 27.7689 25.1279 27.8827C24.8094 27.9965 24.4672 28.0276 24.1334 27.9731C23.7995 27.9187 23.4849 27.7804 23.219 27.5713L19.814 25.0001H12.189L8.78154 27.5713C8.51565 27.7804 8.20107 27.9187 7.86723 27.9731C7.53339 28.0276 7.19119 27.9965 6.87264 27.8827C6.55409 27.7689 6.2696 27.5763 6.04577 27.3226C5.82194 27.069 5.66609 26.7628 5.59279 26.4326L4.04779 19.4788C3.98226 19.1804 3.98557 18.871 4.05747 18.5741C4.12938 18.2771 4.26799 18.0005 4.46279 17.7651L8.03279 13.4826C8.15261 11.9088 8.51393 10.3628 9.10404 8.89884C10.7165 4.85634 13.604 2.32009 14.7753 1.41759C15.1259 1.14595 15.5568 0.998535 16.0003 0.998535C16.4438 0.998535 16.8747 1.14595 17.2253 1.41759C18.3928 2.32009 21.284 4.85634 22.8965 8.89884C23.4867 10.3628 23.848 11.9088 23.9678 13.4826L27.5378 17.7651C27.7326 18.0005 27.8712 18.2771 27.9431 18.5741C28.015 18.871 28.0183 19.1804 27.9528 19.4788ZM10.549 23.7288C9.20654 21.2847 8.39154 18.8818 8.10404 16.5201L6.00029 19.0451L7.54529 26.0001L7.56779 25.9838L10.549 23.7288ZM17.5003 12.5001C17.5003 12.2034 17.4123 11.9134 17.2475 11.6667C17.0827 11.4201 16.8484 11.2278 16.5743 11.1143C16.3002 11.0007 15.9986 10.971 15.7077 11.0289C15.4167 11.0868 15.1494 11.2297 14.9396 11.4394C14.7299 11.6492 14.587 11.9165 14.5291 12.2075C14.4712 12.4984 14.5009 12.8 14.6145 13.0741C14.728 13.3482 14.9203 13.5825 15.1669 13.7473C15.4136 13.9121 15.7036 14.0001 16.0003 14.0001C16.3981 14.0001 16.7796 13.8421 17.061 13.5608C17.3423 13.2795 17.5003 12.8979 17.5003 12.5001ZM26.0003 19.0451L23.8965 16.5201C23.6115 18.8768 22.7965 21.2805 21.4515 23.7313L24.4328 25.9813L24.4553 25.9976L26.0003 19.0451Z" fill="#222222"/>
</svg>
