<svg width="32" height="32" viewBox="0 0 32 32" fill="none" xmlns="http://www.w3.org/2000/svg">
<path d="M15.8016 2.99992C8.84035 3.10617 3.1516 8.75867 3.00035 15.7187C2.9476 18.0596 3.53127 20.3709 4.6891 22.4062C4.73452 22.4858 4.80096 22.5515 4.88117 22.5959C4.96138 22.6403 5.05227 22.6619 5.14389 22.6581C5.23551 22.6544 5.32433 22.6255 5.40065 22.5747C5.47697 22.5239 5.53784 22.453 5.5766 22.3699C6.51579 20.3778 7.00203 18.2023 7.00035 15.9999C6.99947 13.8245 7.78732 11.7226 9.21785 10.0837C9.37957 9.89107 9.6063 9.76447 9.8551 9.72784C10.1039 9.69121 10.3575 9.7471 10.5679 9.88492C10.6851 9.96511 10.7839 10.0693 10.8576 10.1907C10.9314 10.312 10.9785 10.4477 10.9958 10.5887C11.0131 10.7296 11.0001 10.8727 10.9578 11.0082C10.9155 11.1438 10.8447 11.2688 10.7504 11.3749C9.62297 12.6519 9.00067 14.2965 9.00035 15.9999C9.0041 19.0004 8.20849 21.9477 6.69535 24.5387C6.63925 24.6339 6.6163 24.7451 6.6301 24.8548C6.6439 24.9645 6.69366 25.0665 6.7716 25.1449C7.26788 25.648 7.80423 26.11 8.37535 26.5262C8.43185 26.5676 8.49643 26.5967 8.56489 26.6115C8.63335 26.6264 8.70418 26.6267 8.77277 26.6125C8.84136 26.5982 8.90619 26.5697 8.96305 26.5288C9.01992 26.4878 9.06755 26.4354 9.10285 26.3749C9.63897 25.4957 10.1062 24.5763 10.5004 23.6249C10.5504 23.5034 10.6239 23.393 10.7167 23.3C10.8094 23.2069 10.9196 23.133 11.0409 23.0825C11.1622 23.032 11.2922 23.0059 11.4236 23.0057C11.555 23.0055 11.6851 23.0311 11.8066 23.0812C11.9281 23.1312 12.0385 23.2047 12.1316 23.2975C12.2246 23.3902 12.2985 23.5004 12.349 23.6217C12.3995 23.743 12.4256 23.873 12.4258 24.0044C12.4261 24.1358 12.4004 24.2659 12.3504 24.3874C11.9305 25.4037 11.4353 26.3873 10.8691 27.3299C10.8324 27.3914 10.8093 27.4601 10.8015 27.5313C10.7936 27.6025 10.8011 27.6745 10.8235 27.7426C10.8459 27.8106 10.8827 27.873 10.9313 27.9256C10.9799 27.9782 11.0393 28.0198 11.1054 28.0474C12.1079 28.4563 13.1577 28.7377 14.2304 28.8849C14.3305 28.8996 14.4327 28.8836 14.5236 28.839C14.6144 28.7943 14.6896 28.7232 14.7391 28.6349C16.5713 25.3433 17.6622 21.691 17.9354 17.9337C17.9409 17.7998 17.9732 17.6684 18.0305 17.5473C18.0878 17.4262 18.1688 17.3179 18.2688 17.2287C18.3687 17.1395 18.4856 17.0713 18.6124 17.0282C18.7392 16.985 18.8734 16.9678 19.007 16.9775C19.1406 16.9872 19.2709 17.0237 19.3902 17.0847C19.5094 17.1458 19.6152 17.2302 19.7012 17.3329C19.7872 17.4356 19.8517 17.5545 19.8909 17.6826C19.93 17.8108 19.943 17.9454 19.9291 18.0787C19.6747 21.5833 18.7594 25.0081 17.2316 28.1724C17.1917 28.2533 17.1744 28.3436 17.1815 28.4335C17.1887 28.5235 17.2201 28.6099 17.2724 28.6834C17.3247 28.757 17.3959 28.815 17.4785 28.8514C17.5611 28.8877 17.652 28.901 17.7416 28.8899C18.6188 28.7721 19.4816 28.5648 20.3166 28.2712C20.3823 28.2478 20.4424 28.2109 20.493 28.1629C20.5436 28.1149 20.5835 28.0568 20.6104 27.9924C22.1692 24.2623 22.9812 20.2626 23.0004 16.2199C23.0279 12.3899 20.0754 9.13617 16.2504 9.00367C15.5768 8.98033 14.9034 9.05315 14.2504 9.21992C14.1184 9.25379 13.981 9.26035 13.8465 9.23922C13.7119 9.21808 13.5831 9.16969 13.468 9.09701C13.3528 9.02432 13.2537 8.92888 13.1767 8.81654C13.0998 8.7042 13.0465 8.57731 13.0204 8.44367C12.9768 8.18463 13.034 7.91873 13.1801 7.70049C13.3263 7.48225 13.5505 7.3282 13.8066 7.26992C15.134 6.93756 16.5197 6.91204 17.8584 7.1953C19.1972 7.47856 20.4538 8.06315 21.5328 8.90468C22.6118 9.74621 23.4849 10.8225 24.0857 12.052C24.6866 13.2814 24.9994 14.6315 25.0004 15.9999C25.0033 19.1571 24.5546 22.2985 23.6679 25.3287C23.6369 25.4326 23.6406 25.5438 23.6783 25.6454C23.7161 25.7471 23.7858 25.8337 23.8771 25.8923C23.9684 25.9508 24.0762 25.9781 24.1843 25.97C24.2925 25.9619 24.3951 25.9189 24.4766 25.8474C26.4991 24.1049 27.9361 21.7821 28.5924 19.1944C29.2487 16.6067 29.0924 13.8797 28.1448 11.384C27.1972 8.88823 25.5042 6.74473 23.2958 5.24472C21.0875 3.74472 18.4709 2.96095 15.8016 2.99992ZM16.0004 11.9999C16.5631 12.0004 17.1194 12.1194 17.6331 12.3492C18.1467 12.579 18.6062 12.9144 18.9816 13.3337C19.0747 13.4377 19.1449 13.5601 19.1878 13.6929C19.2307 13.8257 19.2453 13.9661 19.2307 14.1049C19.2161 14.2437 19.1726 14.3779 19.103 14.4989C19.0334 14.6199 18.9393 14.725 18.8266 14.8074C18.6186 14.9506 18.3654 15.0127 18.1148 14.9818C17.8642 14.9509 17.6336 14.8293 17.4666 14.6399C17.2055 14.3584 16.8688 14.1581 16.4969 14.0628C16.1249 13.9675 15.7334 13.9812 15.3691 14.1024C14.9635 14.2436 14.6126 14.5087 14.3659 14.8602C14.1191 15.2116 13.9891 15.6318 13.9941 16.0612C13.9906 17.4456 13.8571 18.8267 13.5954 20.1862C13.5524 20.4129 13.4323 20.6178 13.2555 20.7661C13.0787 20.9144 12.8561 20.997 12.6254 20.9999C12.5624 21.0002 12.4996 20.9944 12.4379 20.9824C12.1755 20.9227 11.9465 20.7634 11.7993 20.5381C11.6522 20.3128 11.5983 20.0392 11.6491 19.7749C11.8846 18.5304 12.0022 17.2665 12.0004 15.9999C12.0004 14.9391 12.4218 13.9216 13.1719 13.1715C13.9221 12.4213 14.9395 11.9999 16.0004 11.9999Z" fill="#222222"/>
</svg>
