<svg width="32" height="32" viewBox="0 0 32 32" fill="none" xmlns="http://www.w3.org/2000/svg">
<path d="M26 18.9999H28C28.2652 18.9999 28.5196 18.8946 28.7071 18.7071C28.8946 18.5195 29 18.2652 29 17.9999C29 17.7347 28.8946 17.4804 28.7071 17.2928C28.5196 17.1053 28.2652 16.9999 28 16.9999H26V14.9999H28C28.2652 14.9999 28.5196 14.8946 28.7071 14.7071C28.8946 14.5195 29 14.2652 29 13.9999C29 13.7347 28.8946 13.4804 28.7071 13.2928C28.5196 13.1053 28.2652 12.9999 28 12.9999H25.95C25.7291 10.8051 24.7866 8.74555 23.27 7.1437L25.7075 4.70745C25.8951 4.5198 26.0006 4.26531 26.0006 3.99995C26.0006 3.73458 25.8951 3.48009 25.7075 3.29245C25.5199 3.1048 25.2654 2.99939 25 2.99939C24.7346 2.99939 24.4801 3.10481 24.2925 3.29245L21.7563 5.82995C20.073 4.63922 18.0619 3.99981 16 3.99981C13.9381 3.99981 11.927 4.63922 10.2437 5.82995L7.7075 3.29245C7.51986 3.1048 7.26536 2.99939 7 2.99939C6.73464 2.99939 6.48014 3.1048 6.2925 3.29245C6.10486 3.48009 5.99944 3.73458 5.99944 3.99995C5.99944 4.26531 6.10486 4.5198 6.2925 4.70745L8.73 7.1437C7.21341 8.74555 6.27088 10.8051 6.05 12.9999H4C3.73478 12.9999 3.48043 13.1053 3.29289 13.2928C3.10536 13.4804 3 13.7347 3 13.9999C3 14.2652 3.10536 14.5195 3.29289 14.7071C3.48043 14.8946 3.73478 14.9999 4 14.9999H6V16.9999H4C3.73478 16.9999 3.48043 17.1053 3.29289 17.2928C3.10536 17.4804 3 17.7347 3 17.9999C3 18.2652 3.10536 18.5195 3.29289 18.7071C3.48043 18.8946 3.73478 18.9999 4 18.9999H6V19.9999C6 20.3374 6.0175 20.6712 6.05 20.9999H4C3.73478 20.9999 3.48043 21.1053 3.29289 21.2928C3.10536 21.4804 3 21.7347 3 21.9999C3 22.2652 3.10536 22.5195 3.29289 22.7071C3.48043 22.8946 3.73478 22.9999 4 22.9999H6.46C7.09808 25.0304 8.36733 26.8042 10.0831 28.0635C11.7989 29.3228 13.8717 30.0019 16 30.0019C18.1283 30.0019 20.2011 29.3228 21.9169 28.0635C23.6327 26.8042 24.9019 25.0304 25.54 22.9999H28C28.2652 22.9999 28.5196 22.8946 28.7071 22.7071C28.8946 22.5195 29 22.2652 29 21.9999C29 21.7347 28.8946 21.4804 28.7071 21.2928C28.5196 21.1053 28.2652 20.9999 28 20.9999H25.95C25.9825 20.6712 26 20.3374 26 19.9999V18.9999ZM16 5.99995C17.9476 6.00237 19.8276 6.71443 21.2882 8.00287C22.7487 9.29131 23.6897 11.0678 23.935 12.9999H8.06C8.30542 11.067 9.24712 9.28978 10.7087 8.00122C12.1703 6.71267 14.0515 6.00115 16 5.99995ZM17 27.9349V17.9999C17 17.7347 16.8946 17.4804 16.7071 17.2928C16.5196 17.1053 16.2652 16.9999 16 16.9999C15.7348 16.9999 15.4804 17.1053 15.2929 17.2928C15.1054 17.4804 15 17.7347 15 17.9999V27.9349C13.0679 27.6896 11.2914 26.7487 10.0029 25.2881C8.71449 23.8276 8.00242 21.9476 8 19.9999V14.9999H24V19.9999C23.9976 21.9476 23.2855 23.8276 21.9971 25.2881C20.7086 26.7487 18.9321 27.6896 17 27.9349Z" fill="#222222"/>
</svg>
