<svg width="32" height="32" viewBox="0 0 32 32" fill="none" xmlns="http://www.w3.org/2000/svg">
<path d="M25.9997 14C25.1357 14.0015 24.2954 14.2823 23.6041 14.8004C22.9127 15.3185 22.4074 16.0462 22.1634 16.875L16.8872 16.125C16.6466 16.091 16.4267 15.9706 16.2684 15.7863L11.8034 10.5688C12.6388 10.1454 13.2992 9.44227 13.6694 8.582C14.0396 7.72172 14.0962 6.75882 13.8293 5.86109C13.5624 4.96337 12.989 4.18774 12.209 3.66939C11.429 3.15103 10.4918 2.92282 9.56079 3.02451C8.62978 3.12621 7.76396 3.55136 7.11424 4.22588C6.46451 4.90041 6.07207 5.78153 6.0053 6.7157C5.93853 7.64986 6.20167 8.57784 6.74886 9.33791C7.29606 10.098 8.0926 10.642 8.99969 10.875V21.125C8.05703 21.3684 7.2355 21.9473 6.68909 22.753C6.14268 23.5588 5.9089 24.5362 6.03157 25.502C6.15425 26.4678 6.62495 27.3558 7.35546 27.9993C8.08596 28.6429 9.02612 28.998 9.99969 28.998C10.9733 28.998 11.9134 28.6429 12.6439 27.9993C13.3744 27.3558 13.8451 26.4678 13.9678 25.502C14.0905 24.5362 13.8567 23.5588 13.3103 22.753C12.7639 21.9473 11.9423 21.3684 10.9997 21.125V12.7038L14.7497 17.0788C15.2236 17.6317 15.8825 17.9933 16.6034 18.0963L22.1034 18.8813C22.2695 19.6163 22.6397 20.2895 23.1716 20.8233C23.7035 21.3571 24.3753 21.7298 25.1098 21.8985C25.8442 22.0672 26.6114 22.025 27.3229 21.7767C28.0344 21.5285 28.6613 21.0843 29.1314 20.4954C29.6015 19.9064 29.8956 19.1967 29.98 18.4479C30.0644 17.699 29.9355 16.9416 29.6082 16.2628C29.281 15.584 28.7686 15.0115 28.1302 14.6112C27.4918 14.2108 26.7532 13.999 25.9997 14ZM7.99969 7.00002C7.99969 6.60446 8.11699 6.21778 8.33675 5.88888C8.55651 5.55998 8.86887 5.30364 9.23432 5.15226C9.59978 5.00089 10.0019 4.96128 10.3899 5.03845C10.7778 5.11562 11.1342 5.3061 11.4139 5.58581C11.6936 5.86551 11.8841 6.22188 11.9613 6.60984C12.0384 6.9978 11.9988 7.39994 11.8474 7.76539C11.6961 8.13084 11.4397 8.4432 11.1108 8.66296C10.7819 8.88272 10.3953 9.00002 9.99969 9.00002C9.46926 9.00002 8.96055 8.78931 8.58548 8.41424C8.2104 8.03916 7.99969 7.53045 7.99969 7.00002ZM11.9997 25C11.9997 25.3956 11.8824 25.7823 11.6626 26.1112C11.4429 26.4401 11.1305 26.6964 10.7651 26.8478C10.3996 26.9992 9.99747 27.0388 9.60951 26.9616C9.22155 26.8844 8.86518 26.6939 8.58548 26.4142C8.30577 26.1345 8.11529 25.7782 8.03812 25.3902C7.96095 25.0022 8.00056 24.6001 8.15193 24.2347C8.30331 23.8692 8.55965 23.5568 8.88855 23.3371C9.21745 23.1173 9.60413 23 9.99969 23C10.5301 23 11.0388 23.2107 11.4139 23.5858C11.789 23.9609 11.9997 24.4696 11.9997 25ZM25.9997 20C25.6041 20 25.2174 19.8827 24.8885 19.663C24.5597 19.4432 24.3033 19.1308 24.1519 18.7654C24.0006 18.3999 23.9609 17.9978 24.0381 17.6098C24.1153 17.2219 24.3058 16.8655 24.5855 16.5858C24.8652 16.3061 25.2215 16.1156 25.6095 16.0385C25.9975 15.9613 26.3996 16.0009 26.7651 16.1523C27.1305 16.3036 27.4429 16.56 27.6626 16.8889C27.8824 17.2178 27.9997 17.6045 27.9997 18C27.9997 18.5305 27.789 19.0392 27.4139 19.4142C27.0388 19.7893 26.5301 20 25.9997 20Z" fill="#222222"/>
</svg>
