<svg width="32" height="32" viewBox="0 0 32 32" fill="none" xmlns="http://www.w3.org/2000/svg">
<path d="M24.0623 21.4338C25.3269 20.3715 26.3371 19.0392 27.0185 17.5348C27.6999 16.0304 28.0353 14.3924 27.9998 12.7413C27.8748 7.02751 23.2985 2.31626 17.5948 2.01626C16.1231 1.93616 14.6504 2.15261 13.264 2.65277C11.8776 3.15293 10.6059 3.92659 9.52434 4.92781C8.44279 5.92903 7.57347 7.13739 6.968 8.48112C6.36254 9.82485 6.03328 11.2766 5.99979 12.75L3.19354 18.1475C3.18229 18.17 3.17104 18.1925 3.16104 18.215C2.95985 18.6839 2.94551 19.212 3.12096 19.6912C3.2964 20.1704 3.64836 20.5644 4.10479 20.7925L4.13604 20.8063L6.99979 22.1175V26C6.99979 26.5304 7.2105 27.0392 7.58557 27.4142C7.96065 27.7893 8.46936 28 8.99979 28H14.9998C15.265 28 15.5194 27.8947 15.7069 27.7071C15.8944 27.5196 15.9998 27.2652 15.9998 27C15.9998 26.7348 15.8944 26.4804 15.7069 26.2929C15.5194 26.1054 15.265 26 14.9998 26H8.99979V21.4763C8.99993 21.2846 8.94499 21.0969 8.84149 20.9356C8.738 20.7742 8.59032 20.646 8.41604 20.5663L4.99979 19L7.88354 13.4575C7.9587 13.3166 7.99859 13.1597 7.99979 13C7.9995 10.9604 8.69198 8.98124 9.96376 7.38674C11.2355 5.79224 13.0112 4.677 14.9998 4.22376V6.17251C14.3326 6.4084 13.7702 6.87258 13.4122 7.48299C13.0541 8.0934 12.9233 8.81075 13.043 9.50824C13.1627 10.2057 13.5251 10.8385 14.0661 11.2946C14.6072 11.7508 15.2921 12.0009 15.9998 12.0009C16.7075 12.0009 17.3924 11.7508 17.9334 11.2946C18.4745 10.8385 18.8369 10.2057 18.9566 9.50824C19.0763 8.81075 18.9455 8.0934 18.5874 7.48299C18.2293 6.87258 17.667 6.4084 16.9998 6.17251V4.00001C17.1623 4.00001 17.3248 4.00001 17.4873 4.01251C19.2606 4.11409 20.9647 4.73627 22.3863 5.80124C23.8079 6.86621 24.8839 8.32669 25.4798 10H22.9998C22.8531 9.99995 22.7082 10.0322 22.5753 10.0944C22.4425 10.1566 22.3249 10.2473 22.231 10.36L19.0423 14.1875C18.3772 13.9397 17.646 13.9351 16.9779 14.1744C16.3097 14.4138 15.7478 14.8817 15.3914 15.4954C15.035 16.1092 14.9071 16.8292 15.0304 17.5281C15.1537 18.227 15.5201 18.8598 16.065 19.3146C16.6098 19.7694 17.2979 20.0168 18.0076 20.0132C18.7173 20.0095 19.4029 19.755 19.943 19.2947C20.4832 18.8343 20.8431 18.1977 20.9592 17.4976C21.0753 16.7974 20.94 16.0788 20.5773 15.4688L23.4685 12H25.9423C25.9723 12.26 25.9906 12.5225 25.9973 12.7875C26.0285 14.2198 25.7185 15.639 25.093 16.9278C24.4674 18.2167 23.5443 19.3383 22.3998 20.2C22.2588 20.3057 22.1482 20.4469 22.0793 20.6091C22.0103 20.7713 21.9855 20.9489 22.0073 21.1238L23.0073 29.1238C23.0377 29.3653 23.1552 29.5874 23.3377 29.7485C23.5202 29.9095 23.7551 29.9985 23.9985 29.9988C24.0403 29.9988 24.0821 29.9962 24.1235 29.9913C24.2539 29.975 24.3798 29.9333 24.494 29.8684C24.6082 29.8035 24.7085 29.7168 24.7892 29.6131C24.8698 29.5094 24.9293 29.3909 24.9641 29.2643C24.999 29.1376 25.0086 29.0054 24.9923 28.875L24.0623 21.4338ZM15.9998 10C15.802 10 15.6087 9.94136 15.4442 9.83148C15.2798 9.7216 15.1516 9.56542 15.0759 9.38269C15.0002 9.19997 14.9804 8.9989 15.019 8.80492C15.0576 8.61094 15.1528 8.43275 15.2927 8.2929C15.4325 8.15305 15.6107 8.05781 15.8047 8.01922C15.9987 7.98064 16.1997 8.00044 16.3825 8.07613C16.5652 8.15182 16.7214 8.27999 16.8313 8.44444C16.9411 8.60889 16.9998 8.80223 16.9998 9.00001C16.9998 9.26523 16.8944 9.51958 16.7069 9.70712C16.5194 9.89465 16.265 10 15.9998 10ZM17.9998 18C17.802 18 17.6087 17.9414 17.4442 17.8315C17.2798 17.7216 17.1516 17.5654 17.0759 17.3827C17.0002 17.2 16.9804 16.9989 17.019 16.8049C17.0576 16.6109 17.1528 16.4328 17.2927 16.2929C17.4325 16.153 17.6107 16.0578 17.8047 16.0192C17.9987 15.9806 18.1997 16.0004 18.3825 16.0761C18.5652 16.1518 18.7214 16.28 18.8313 16.4444C18.9411 16.6089 18.9998 16.8022 18.9998 17C18.9998 17.2652 18.8944 17.5196 18.7069 17.7071C18.5194 17.8947 18.265 18 17.9998 18Z" fill="#222222"/>
</svg>
