<svg width="32" height="32" viewBox="0 0 32 32" fill="none" xmlns="http://www.w3.org/2000/svg">
<path d="M27.0713 4.92898C25.4829 3.33837 23.4049 2.32932 21.1726 2.06468C18.9403 1.80003 16.684 2.29522 14.7677 3.47033C12.8514 4.64544 11.3869 6.43194 10.6106 8.54153C9.83424 10.6511 9.79133 12.9608 10.4888 15.0977L3.58626 22.0002C3.39973 22.1853 3.25185 22.4056 3.15121 22.6483C3.05057 22.891 2.99917 23.1512 3.00001 23.414V27.0002C3.00001 27.5307 3.21072 28.0394 3.5858 28.4144C3.96087 28.7895 4.46958 29.0002 5.00001 29.0002H9.00001C9.26523 29.0002 9.51958 28.8949 9.70712 28.7073C9.89465 28.5198 10 28.2654 10 28.0002V26.0002H12C12.2652 26.0002 12.5196 25.8949 12.7071 25.7073C12.8947 25.5198 13 25.2654 13 25.0002V23.0002H15C15.1314 23.0003 15.2615 22.9746 15.3829 22.9244C15.5043 22.8742 15.6146 22.8006 15.7075 22.7077L16.9025 21.5115C17.9028 21.8368 18.9482 22.0018 20 22.0002H20.0125C21.9893 21.9978 23.9211 21.4096 25.5637 20.3098C27.2063 19.2101 28.4862 17.6481 29.2415 15.8213C29.9969 13.9946 30.1939 11.9849 29.8076 10.0462C29.4213 8.10747 28.4691 6.32676 27.0713 4.92898ZM28 12.2627C27.8638 16.524 24.2813 19.9952 20.0138 20.0002H20C18.9877 20.0019 17.9844 19.8106 17.0438 19.4365C16.8598 19.3566 16.656 19.334 16.4589 19.3714C16.2619 19.4088 16.0806 19.5047 15.9388 19.6465L14.5863 21.0002H12C11.7348 21.0002 11.4804 21.1056 11.2929 21.2931C11.1054 21.4807 11 21.735 11 22.0002V24.0002H9.00001C8.73479 24.0002 8.48044 24.1056 8.2929 24.2931C8.10537 24.4807 8.00001 24.735 8.00001 25.0002V27.0002H5.00001V23.414L12.3538 16.0615C12.4955 15.9196 12.5914 15.7384 12.6288 15.5413C12.6663 15.3442 12.6436 15.1405 12.5638 14.9565C12.1884 14.0127 11.9971 13.0059 12 11.9902C12 7.72273 15.4763 4.14023 19.7375 4.00398C20.8321 3.96745 21.9225 4.15606 22.9413 4.55813C23.96 4.96019 24.8853 5.56715 25.6599 6.34139C26.4345 7.11564 27.0419 8.04069 27.4444 9.05923C27.8469 10.0778 28.036 11.1681 28 12.2627ZM24 9.50023C24 9.79691 23.912 10.0869 23.7472 10.3336C23.5824 10.5803 23.3481 10.7725 23.074 10.8861C22.7999 10.9996 22.4983 11.0293 22.2074 10.9714C21.9164 10.9135 21.6491 10.7707 21.4394 10.5609C21.2296 10.3511 21.0867 10.0838 21.0288 9.79287C20.971 9.5019 21.0007 9.2003 21.1142 8.92621C21.2277 8.65212 21.42 8.41785 21.6667 8.25303C21.9133 8.08821 22.2033 8.00023 22.5 8.00023C22.8978 8.00023 23.2794 8.15827 23.5607 8.43957C23.842 8.72088 24 9.10241 24 9.50023Z" fill="#222222"/>
</svg>
