<svg width="32" height="32" viewBox="0 0 32 32" fill="none" xmlns="http://www.w3.org/2000/svg">
<path d="M28.9997 17.0825C28.7872 19.5524 27.8738 21.9104 26.3668 23.8788C24.8597 25.8473 22.8219 27.3443 20.4929 28.1939C18.1639 29.0435 15.6408 29.2103 13.2203 28.6746C10.7997 28.1389 8.58257 26.9231 6.82959 25.1701C5.07661 23.4171 3.86075 21.1999 3.32506 18.7794C2.78937 16.3589 2.95614 13.8357 3.80574 11.5068C4.65534 9.17781 6.15243 7.13994 8.12087 5.63293C10.0893 4.12591 12.4472 3.21244 14.9172 2.99998C15.0485 2.98915 15.1807 3.00428 15.3062 3.04453C15.4316 3.08477 15.5479 3.14934 15.6485 3.23454C15.749 3.31973 15.8317 3.4239 15.892 3.54108C15.9523 3.65826 15.9889 3.78616 15.9997 3.91748C16.0105 4.0488 15.9954 4.18097 15.9551 4.30644C15.9149 4.43191 15.8503 4.54823 15.7651 4.64875C15.6799 4.74927 15.5758 4.83202 15.4586 4.89229C15.3414 4.95255 15.2135 4.98915 15.0822 4.99998C12.9917 5.1796 10.996 5.95256 9.32983 7.22793C7.66372 8.5033 6.39652 10.228 5.67735 12.1991C4.95819 14.1703 4.81696 16.3058 5.2703 18.3544C5.72364 20.4031 6.75269 22.2797 8.23635 23.7633C9.72002 25.247 11.5966 26.276 13.6452 26.7294C15.6939 27.1827 17.8294 27.0415 19.8005 26.3223C21.7717 25.6032 23.4964 24.336 24.7717 22.6698C26.0471 21.0037 26.8201 19.008 26.9997 16.9175C27.0216 16.6523 27.1479 16.4066 27.3509 16.2345C27.5539 16.0625 27.817 15.9781 28.0822 16C28.3474 16.0219 28.5931 16.1482 28.7651 16.3512C28.9372 16.5542 29.0216 16.8173 28.9997 17.0825ZM14.9997 8.99998V16C14.9997 16.2652 15.1051 16.5196 15.2926 16.7071C15.4801 16.8946 15.7345 17 15.9997 17H22.9997C23.2649 17 23.5193 16.8946 23.7068 16.7071C23.8943 16.5196 23.9997 16.2652 23.9997 16C23.9997 15.7348 23.8943 15.4804 23.7068 15.2929C23.5193 15.1053 23.2649 15 22.9997 15H16.9997V8.99998C16.9997 8.73476 16.8943 8.48041 16.7068 8.29287C16.5193 8.10534 16.2649 7.99998 15.9997 7.99998C15.7345 7.99998 15.4801 8.10534 15.2926 8.29287C15.1051 8.48041 14.9997 8.73476 14.9997 8.99998ZM19.9997 5.99998C20.2964 5.99998 20.5864 5.91201 20.8331 5.74718C21.0797 5.58236 21.272 5.34809 21.3855 5.074C21.499 4.79992 21.5288 4.49832 21.4709 4.20734C21.413 3.91637 21.2701 3.6491 21.0604 3.43932C20.8506 3.22954 20.5833 3.08668 20.2923 3.0288C20.0014 2.97092 19.6998 3.00063 19.4257 3.11416C19.1516 3.22769 18.9173 3.41995 18.7525 3.66662C18.5877 3.9133 18.4997 4.20331 18.4997 4.49998C18.4997 4.8978 18.6577 5.27934 18.939 5.56064C19.2203 5.84194 19.6019 5.99998 19.9997 5.99998ZM24.4997 8.99998C24.7964 8.99998 25.0864 8.91201 25.3331 8.74718C25.5797 8.58236 25.772 8.34809 25.8855 8.074C25.999 7.79992 26.0288 7.49832 25.9709 7.20734C25.913 6.91637 25.7701 6.6491 25.5604 6.43932C25.3506 6.22954 25.0833 6.08668 24.7923 6.0288C24.5014 5.97092 24.1998 6.00063 23.9257 6.11416C23.6516 6.22769 23.4173 6.41995 23.2525 6.66662C23.0877 6.9133 22.9997 7.20331 22.9997 7.49998C22.9997 7.8978 23.1577 8.27934 23.439 8.56064C23.7203 8.84194 24.1019 8.99998 24.4997 8.99998ZM27.4997 13.5C27.7964 13.5 28.0864 13.412 28.3331 13.2472C28.5797 13.0824 28.772 12.8481 28.8855 12.574C28.999 12.2999 29.0288 11.9983 28.9709 11.7073C28.913 11.4164 28.7701 11.1491 28.5604 10.9393C28.3506 10.7295 28.0833 10.5867 27.7923 10.5288C27.5014 10.4709 27.1998 10.5006 26.9257 10.6142C26.6516 10.7277 26.4173 10.92 26.2525 11.1666C26.0877 11.4133 25.9997 11.7033 25.9997 12C25.9997 12.3978 26.1577 12.7793 26.439 13.0606C26.7203 13.3419 27.1019 13.5 27.4997 13.5Z" fill="#222222"/>
</svg>
