<svg width="32" height="32" viewBox="0 0 32 32" fill="none" xmlns="http://www.w3.org/2000/svg">
<path d="M25.1927 6.80754C22.7547 4.36953 19.448 2.99988 16.0002 2.99988C12.5523 2.99988 9.24566 4.36953 6.80766 6.80754C4.36966 9.24554 3 12.5522 3 16C3 19.4479 4.36966 22.7545 6.80766 25.1925C9.24566 27.6305 12.5523 29.0002 16.0002 29.0002C19.448 29.0002 22.7547 27.6305 25.1927 25.1925C27.6307 22.7545 29.0003 19.4479 29.0003 16C29.0003 12.5522 27.6307 9.24554 25.1927 6.80754ZM23.0002 24.4838C22.3837 24.9934 21.713 25.4335 21.0002 25.7963V12.4138L23.0002 10.4138V24.4838ZM13.0002 20.4138L15.0002 18.4138V26.9488C14.3234 26.8856 13.6539 26.7601 13.0002 26.5738V20.4138ZM11.0002 25.7963C10.2727 25.4258 9.58919 24.9747 8.96266 24.4513L11.0002 22.4138V25.7963ZM17.0002 16.4138L19.0002 14.4138V26.5788C18.3464 26.7651 17.6769 26.8906 17.0002 26.9538V16.4138ZM5.00016 16C5.00072 13.9101 5.59667 11.8635 6.71824 10.0999C7.83981 8.33639 9.44057 6.92886 11.3331 6.04213C13.2257 5.1554 15.3317 4.82618 17.4045 5.09301C19.4774 5.35984 21.4314 6.21167 23.0377 7.54879L7.54766 23.0388C5.89554 21.0661 4.99331 18.5732 5.00016 16ZM25.0002 22.3238V9.67629C26.3014 11.5283 26.9996 13.7366 26.9996 16C26.9996 18.2635 26.3014 20.4718 25.0002 22.3238Z" fill="#222222"/>
</svg>
