<svg width="32" height="32" viewBox="0 0 32 32" fill="none" xmlns="http://www.w3.org/2000/svg">
<path d="M15.2923 13.7076C15.3852 13.8005 15.4955 13.8743 15.6169 13.9246C15.7383 13.9749 15.8684 14.0008 15.9998 14.0008C16.1312 14.0008 16.2614 13.9749 16.3828 13.9246C16.5041 13.8743 16.6144 13.8005 16.7073 13.7076L21.7073 8.70755C21.8003 8.61468 21.874 8.50439 21.9244 8.38299C21.9747 8.2616 22.0006 8.13147 22.0006 8.00005C22.0006 7.86864 21.9747 7.73851 21.9244 7.61711C21.874 7.49572 21.8003 7.38543 21.7073 7.29255L16.7073 2.29255C16.6144 2.19958 16.5041 2.12582 16.3828 2.07549C16.2614 2.02517 16.1312 1.99927 15.9998 1.99927C15.8684 1.99927 15.7383 2.02517 15.6169 2.07549C15.4955 2.12582 15.3852 2.19958 15.2923 2.29255L10.2923 7.29255C10.1993 7.38543 10.1256 7.49572 10.0753 7.61711C10.0249 7.73851 9.99902 7.86864 9.99902 8.00005C9.99902 8.13147 10.0249 8.2616 10.0753 8.38299C10.1256 8.50439 10.1993 8.61468 10.2923 8.70755L15.2923 13.7076ZM15.9998 4.4138L19.5861 8.00005L15.9998 11.5863L12.4136 8.00005L15.9998 4.4138ZM16.7073 18.2888C16.6144 18.1958 16.5041 18.1221 16.3828 18.0717C16.2614 18.0214 16.1312 17.9955 15.9998 17.9955C15.8684 17.9955 15.7383 18.0214 15.6169 18.0717C15.4955 18.1221 15.3852 18.1958 15.2923 18.2888L10.2923 23.2888C10.1993 23.3817 10.1256 23.492 10.0753 23.6134C10.0249 23.7348 9.99902 23.8649 9.99902 23.9963C9.99902 24.1277 10.0249 24.2578 10.0753 24.3792C10.1256 24.5006 10.1993 24.6109 10.2923 24.7038L15.2923 29.7038C15.3852 29.7968 15.4955 29.8705 15.6169 29.9209C15.7383 29.9712 15.8684 29.9971 15.9998 29.9971C16.1312 29.9971 16.2614 29.9712 16.3828 29.9209C16.5041 29.8705 16.6144 29.7968 16.7073 29.7038L21.7073 24.7038C21.8003 24.6109 21.874 24.5006 21.9244 24.3792C21.9747 24.2578 22.0006 24.1277 22.0006 23.9963C22.0006 23.8649 21.9747 23.7348 21.9244 23.6134C21.874 23.492 21.8003 23.3817 21.7073 23.2888L16.7073 18.2888ZM15.9998 27.5863L12.4136 24.0001L15.9998 20.4138L19.5861 24.0001L15.9998 27.5863ZM29.7073 15.2926L24.7073 10.2926C24.6144 10.1996 24.5041 10.1258 24.3827 10.0755C24.2614 10.0252 24.1312 9.99927 23.9998 9.99927C23.8684 9.99927 23.7383 10.0252 23.6169 10.0755C23.4955 10.1258 23.3852 10.1996 23.2923 10.2926L18.2923 15.2926C18.1993 15.3854 18.1256 15.4957 18.0752 15.6171C18.0249 15.7385 17.999 15.8686 17.999 16.0001C17.999 16.1315 18.0249 16.2616 18.0752 16.383C18.1256 16.5044 18.1993 16.6147 18.2923 16.7076L23.2923 21.7076C23.3852 21.8005 23.4955 21.8743 23.6169 21.9246C23.7383 21.9749 23.8684 22.0008 23.9998 22.0008C24.1312 22.0008 24.2614 21.9749 24.3827 21.9246C24.5041 21.8743 24.6144 21.8005 24.7073 21.7076L29.7073 16.7076C29.8003 16.6147 29.874 16.5044 29.9244 16.383C29.9747 16.2616 30.0006 16.1315 30.0006 16.0001C30.0006 15.8686 29.9747 15.7385 29.9244 15.6171C29.874 15.4957 29.8003 15.3854 29.7073 15.2926ZM23.9998 19.5863L20.4136 16.0001L23.9998 12.4138L27.5861 16.0001L23.9998 19.5863ZM13.7073 15.2926L8.70731 10.2926C8.61444 10.1996 8.50415 10.1258 8.38275 10.0755C8.26135 10.0252 8.13123 9.99927 7.99981 9.99927C7.86839 9.99927 7.73827 10.0252 7.61687 10.0755C7.49547 10.1258 7.38518 10.1996 7.29231 10.2926L2.29231 15.2926C2.19933 15.3854 2.12557 15.4957 2.07525 15.6171C2.02493 15.7385 1.99902 15.8686 1.99902 16.0001C1.99902 16.1315 2.02493 16.2616 2.07525 16.383C2.12557 16.5044 2.19933 16.6147 2.29231 16.7076L7.29231 21.7076C7.38518 21.8005 7.49547 21.8743 7.61687 21.9246C7.73827 21.9749 7.86839 22.0008 7.99981 22.0008C8.13123 22.0008 8.26135 21.9749 8.38275 21.9246C8.50415 21.8743 8.61444 21.8005 8.70731 21.7076L13.7073 16.7076C13.8003 16.6147 13.874 16.5044 13.9244 16.383C13.9747 16.2616 14.0006 16.1315 14.0006 16.0001C14.0006 15.8686 13.9747 15.7385 13.9244 15.6171C13.874 15.4957 13.8003 15.3854 13.7073 15.2926ZM7.99981 19.5863L4.41356 16.0001L7.99981 12.4138L11.5861 16.0001L7.99981 19.5863Z" fill="#222222"/>
</svg>
