<svg width="32" height="32" viewBox="0 0 32 32" fill="none" xmlns="http://www.w3.org/2000/svg">
<path d="M27.9996 8.41255C27.9928 7.81073 27.8647 7.21646 27.6228 6.66533C27.381 6.11419 27.0304 5.61752 26.5921 5.20505C24.8421 3.54505 22.0021 3.60755 20.2646 5.3463L17.8496 7.77505C17.2793 7.25523 16.5306 6.97518 15.7591 6.9931C14.9876 7.01103 14.2527 7.32555 13.7071 7.8713L12.5821 8.9963C12.3962 9.18205 12.2486 9.40262 12.148 9.64542C12.0473 9.88822 11.9955 10.1485 11.9955 10.4113C11.9955 10.6741 12.0473 10.9344 12.148 11.1772C12.2486 11.42 12.3962 11.6406 12.5821 11.8263L12.8321 12.0838L6.45712 18.4588C5.84349 19.0676 5.39932 19.826 5.16848 20.6591C4.93764 21.4921 4.92812 22.371 5.14087 23.2088L4.14087 25.5101C4.00115 25.826 3.96065 26.177 4.02471 26.5164C4.08876 26.8559 4.25437 27.168 4.49962 27.4113C4.78274 27.6971 5.14595 27.8903 5.54122 27.9653C5.9365 28.0403 6.34522 27.9936 6.71337 27.8313L8.90462 26.8751C9.72722 27.0609 10.5835 27.0351 11.3934 26.8001C12.2034 26.5651 12.9405 26.1286 13.5359 25.5313L19.9109 19.1563L20.1684 19.4138C20.5434 19.7886 21.0519 19.9991 21.5821 19.9991C22.1123 19.9991 22.6208 19.7886 22.9959 19.4138L24.1209 18.2888C24.6676 17.7425 24.9823 17.0063 24.9996 16.2336C25.0168 15.4609 24.7352 14.7114 24.2134 14.1413L26.6821 11.6576C27.1089 11.2332 27.4456 10.7271 27.672 10.1695C27.8984 9.61188 28.0098 9.01429 27.9996 8.41255ZM12.1246 24.1251C11.7398 24.5107 11.2572 24.7842 10.7287 24.9164C10.2002 25.0485 9.64564 25.0342 9.12462 24.8751C8.89617 24.8046 8.65005 24.8184 8.43087 24.9138L6.16837 25.9013L7.12462 23.6763C7.22384 23.4489 7.23498 23.1927 7.15587 22.9576C6.94018 22.3209 6.94458 21.6302 7.16837 20.9963H15.2496L12.1246 24.1251ZM17.2496 19.0001H8.75837L14.2584 13.5001L18.5009 17.7501L17.2496 19.0001ZM25.2721 10.2501L22.1009 13.4401C21.9135 13.6276 21.8082 13.8818 21.8082 14.1469C21.8082 14.412 21.9135 14.6663 22.1009 14.8538L22.7121 15.4638C22.8051 15.5567 22.8789 15.667 22.9292 15.7884C22.9795 15.9098 23.0054 16.0399 23.0054 16.1713C23.0054 16.3027 22.9795 16.4328 22.9292 16.5542C22.8789 16.6756 22.8051 16.7859 22.7121 16.8788L21.5871 18.0038L13.9996 10.4076L15.1246 9.28255C15.3121 9.09516 15.5664 8.98989 15.8315 8.98989C16.0966 8.98989 16.3508 9.09516 16.5384 9.28255L17.1496 9.8938C17.337 10.081 17.591 10.1862 17.8559 10.1863C17.9874 10.1861 18.1176 10.1599 18.239 10.1093C18.3604 10.0587 18.4706 9.98459 18.5634 9.8913L21.6809 6.75505C22.6571 5.77755 24.2434 5.73255 25.2171 6.6538C25.4603 6.88355 25.655 7.15978 25.7895 7.46612C25.924 7.77247 25.9957 8.1027 26.0002 8.43724C26.0047 8.77179 25.9421 9.10384 25.816 9.41373C25.6898 9.72362 25.5028 10.005 25.2659 10.2413L25.2721 10.2501Z" fill="#222222"/>
</svg>
