<svg width="32" height="32" viewBox="0 0 32 32" fill="none" xmlns="http://www.w3.org/2000/svg">
<path d="M28.0003 8.41255C27.9935 7.81073 27.8653 7.21646 27.6235 6.66533C27.3816 6.11419 27.0311 5.61752 26.5928 5.20505C24.8428 3.54505 22.0028 3.60755 20.2653 5.3463L17.8503 7.77505C17.2799 7.25523 16.5312 6.97518 15.7597 6.9931C14.9882 7.01103 14.2533 7.32555 13.7078 7.8713L12.5828 8.9963C12.3968 9.18205 12.2493 9.40262 12.1486 9.64542C12.048 9.88822 11.9962 10.1485 11.9962 10.4113C11.9962 10.6741 12.048 10.9344 12.1486 11.1772C12.2493 11.42 12.3968 11.6406 12.5828 11.8263L12.8328 12.0838L6.45776 18.4588C5.84413 19.0676 5.39996 19.826 5.16912 20.6591C4.93828 21.4921 4.92876 22.371 5.14151 23.2088L4.14151 25.5101C4.00204 25.8263 3.96167 26.1773 4.02571 26.517C4.08975 26.8566 4.2552 27.1688 4.50026 27.4126C4.78371 27.6979 5.14697 27.8906 5.54216 27.9654C5.93735 28.0401 6.34592 27.9934 6.714 27.8313L8.90401 26.8751C9.72679 27.0612 10.5834 27.0356 11.3935 26.8006C12.2037 26.5656 12.9411 26.1289 13.5365 25.5313L19.9115 19.1563L20.169 19.4138C20.544 19.7886 21.0525 19.9991 21.5828 19.9991C22.113 19.9991 22.6215 19.7886 22.9965 19.4138L24.1215 18.2888C24.6682 17.7425 24.983 17.0063 25.0002 16.2336C25.0174 15.4609 24.7358 14.7114 24.214 14.1413L26.6828 11.6576C27.1096 11.2332 27.4462 10.7271 27.6726 10.1695C27.899 9.61188 28.0105 9.01429 28.0003 8.41255ZM12.1253 24.1251C11.7404 24.5107 11.2579 24.7842 10.7293 24.9164C10.2008 25.0485 9.64628 25.0342 9.12526 24.8751C8.89681 24.8046 8.65069 24.8184 8.4315 24.9138L6.169 25.9026L7.12526 23.6763C7.22448 23.4489 7.23562 23.1927 7.15651 22.9576C6.97529 22.428 6.94659 21.8582 7.07368 21.3132C7.20076 20.7681 7.47852 20.2698 7.87526 19.8751L14.2503 13.5001L18.4928 17.7501L12.1253 24.1251ZM25.2665 10.2501L22.0953 13.4401C21.9082 13.6275 21.8032 13.8815 21.8032 14.1463C21.8032 14.4111 21.9082 14.6651 22.0953 14.8526L22.7065 15.4638C22.7995 15.5567 22.8732 15.667 22.9236 15.7884C22.9739 15.9098 22.9998 16.0399 22.9998 16.1713C22.9998 16.3027 22.9739 16.4328 22.9236 16.5542C22.8732 16.6756 22.7995 16.7859 22.7065 16.8788L21.5815 18.0038L14.0003 10.4076L15.1253 9.28255C15.3128 9.09516 15.567 8.98989 15.8321 8.98989C16.0972 8.98989 16.3515 9.09516 16.539 9.28255L17.1503 9.8938C17.2432 9.98697 17.3535 10.0609 17.475 10.1113C17.5965 10.1618 17.7268 10.1877 17.8584 10.1877C17.9899 10.1877 18.1202 10.1618 18.2417 10.1113C18.3632 10.0609 18.4736 9.98697 18.5665 9.8938L21.684 6.75755C22.6603 5.78005 24.2465 5.73505 25.2203 6.6563C25.4635 6.88605 25.6581 7.16228 25.7926 7.46862C25.9271 7.77497 25.9988 8.1052 26.0033 8.43974C26.0079 8.77429 25.9452 9.10634 25.8191 9.41623C25.693 9.72612 25.5059 10.0075 25.269 10.2438L25.2665 10.2501Z" fill="#222222"/>
</svg>
