<svg width="32" height="32" viewBox="0 0 32 32" fill="none" xmlns="http://www.w3.org/2000/svg">
<path d="M30.7076 9.29245L26.7076 5.29245C26.52 5.10481 26.2655 4.99939 26.0001 4.99939C25.7348 4.99939 25.4803 5.1048 25.2926 5.29245C25.105 5.48009 24.9996 5.73458 24.9996 5.99995C24.9996 6.26531 25.105 6.5198 25.2926 6.70745L27.5864 8.99995H26.0001C19.8339 8.99995 18.3689 12.5149 17.0776 15.6149C15.9051 18.4287 14.9626 20.6887 10.8926 20.9699C10.6372 19.7575 9.94072 18.683 8.93815 17.9549C7.93558 17.2268 6.69836 16.8969 5.46636 17.0291C4.23437 17.1614 3.09536 17.7463 2.27016 18.6707C1.44496 19.595 0.992354 20.7928 1.0001 22.0318C1.00784 23.2709 1.47538 24.4629 2.31207 25.3768C3.14876 26.2908 4.29499 26.8615 5.52855 26.9783C6.7621 27.0951 7.9951 26.7498 8.98849 26.0092C9.98188 25.2686 10.6649 24.1855 10.9051 22.9699C16.3126 22.6387 17.6976 19.3262 18.9226 16.3837C20.1764 13.3749 21.1664 10.9999 26.0001 10.9999H27.5864L25.2926 13.2924C25.105 13.4801 24.9996 13.7346 24.9996 13.9999C24.9996 14.2653 25.105 14.5198 25.2926 14.7074C25.4803 14.8951 25.7348 15.0005 26.0001 15.0005C26.2655 15.0005 26.52 14.8951 26.7076 14.7074L30.7076 10.7074C30.8006 10.6146 30.8744 10.5043 30.9247 10.3829C30.975 10.2615 31.0009 10.1314 31.0009 9.99995C31.0009 9.86853 30.975 9.7384 30.9247 9.61701C30.8744 9.49561 30.8006 9.38532 30.7076 9.29245ZM6.00013 24.9999C5.40679 24.9999 4.82677 24.824 4.33342 24.4944C3.84007 24.1647 3.45555 23.6962 3.22849 23.148C3.00143 22.5998 2.94202 21.9966 3.05777 21.4147C3.17353 20.8327 3.45925 20.2982 3.87881 19.8786C4.29837 19.4591 4.83292 19.1733 5.41486 19.0576C5.9968 18.9418 6.6 19.0012 7.14818 19.2283C7.69636 19.4554 8.16489 19.8399 8.49454 20.3332C8.82418 20.8266 9.00013 21.4066 9.00013 21.9999C9.00013 22.7956 8.68406 23.5587 8.12145 24.1213C7.55884 24.6839 6.79578 24.9999 6.00013 24.9999Z" fill="#222222"/>
</svg>
