<svg width="32" height="32" viewBox="0 0 32 32" fill="none" xmlns="http://www.w3.org/2000/svg">
<path d="M25.1927 6.80741C22.7547 4.36941 19.448 2.99976 16.0002 2.99976C12.5523 2.99976 9.24566 4.36941 6.80766 6.80741C4.36966 9.24542 3 12.5521 3 15.9999C3 19.4478 4.36966 22.7544 6.80766 25.1924C9.24566 27.6304 12.5523 29.0001 16.0002 29.0001C19.448 29.0001 22.7547 27.6304 25.1927 25.1924C27.6307 22.7544 29.0003 19.4478 29.0003 15.9999C29.0003 12.5521 27.6307 9.24542 25.1927 6.80741ZM12.0002 26.2499V18.9999H20.0002V26.2499C17.4272 27.25 14.5731 27.25 12.0002 26.2499ZM18.0002 16.9999H14.0002V12.6174L18.0002 10.6174V16.9999ZM23.7777 23.7774C23.2369 24.3191 22.6412 24.803 22.0002 25.2212V18.9999C22.0002 18.4695 21.7894 17.9608 21.4144 17.5857C21.0393 17.2106 20.5306 16.9999 20.0002 16.9999V8.99991C20.0003 8.82937 19.9568 8.66163 19.8738 8.51263C19.7908 8.36364 19.6711 8.23834 19.5261 8.14865C19.381 8.05896 19.2154 8.00786 19.045 8.00021C18.8747 7.99255 18.7052 8.02859 18.5527 8.10491L12.5527 11.1049C12.3865 11.1881 12.2468 11.3158 12.1492 11.4739C12.0516 11.632 12 11.8141 12.0002 11.9999V16.9999C11.4697 16.9999 10.961 17.2106 10.5859 17.5857C10.2109 17.9608 10.0002 18.4695 10.0002 18.9999V25.2212C8.09451 23.9815 6.61975 22.1819 5.77873 20.0698C4.9377 17.9578 4.77173 15.637 5.30363 13.4267C5.83553 11.2165 7.03918 9.22529 8.74903 7.72709C10.4589 6.22889 12.5909 5.29725 14.8519 5.06032C17.1129 4.82339 19.3917 5.29281 21.375 6.40401C23.3583 7.51521 24.9486 9.2136 25.9271 11.2656C26.9057 13.3176 27.2244 15.6223 26.8395 17.8629C26.4546 20.1034 25.3849 22.1697 23.7777 23.7774Z" fill="#222222"/>
</svg>
