<svg width="32" height="32" viewBox="0 0 32 32" fill="none" xmlns="http://www.w3.org/2000/svg">
<path d="M31.7072 13.2926C31.6143 13.1996 31.504 13.1258 31.3826 13.0755C31.2612 13.0252 31.1311 12.9993 30.9997 12.9993C30.8683 12.9993 30.7381 13.0252 30.6167 13.0755C30.4953 13.1258 30.385 13.1996 30.2922 13.2926L23.9997 19.5863L13.4134 9.00007L19.7072 2.70757C19.8001 2.61466 19.8738 2.50436 19.9241 2.38296C19.9743 2.26157 20.0002 2.13146 20.0002 2.00007C20.0002 1.86867 19.9743 1.73856 19.9241 1.61717C19.8738 1.49578 19.8001 1.38548 19.7072 1.29257C19.6143 1.19966 19.504 1.12596 19.3826 1.07567C19.2612 1.02539 19.1311 0.999512 18.9997 0.999512C18.8683 0.999512 18.7382 1.02539 18.6168 1.07567C18.4954 1.12596 18.3851 1.19966 18.2922 1.29257L11.9997 7.58632C11.6971 7.88895 11.4996 8.28066 11.4361 8.70388C11.3727 9.1271 11.4466 9.55951 11.6472 9.93757L8.99967 12.5863C8.62488 12.9614 8.41435 13.4699 8.41435 14.0001C8.41435 14.5303 8.62488 15.0388 8.99967 15.4138L9.58592 16.0001L2.29217 23.2926C2.17153 23.4131 2.08373 23.5625 2.03711 23.7266C1.99049 23.8906 1.9866 24.0639 2.02581 24.2298C2.06502 24.3958 2.14602 24.549 2.26112 24.6748C2.37622 24.8007 2.52159 24.895 2.68342 24.9488L11.6834 27.9488C11.7853 27.983 11.8922 28.0004 11.9997 28.0001C12.131 28.0002 12.2611 27.9744 12.3825 27.9242C12.5039 27.874 12.6142 27.8004 12.7072 27.7076L16.9997 23.4138L17.5859 24.0001C17.961 24.3749 18.4695 24.5854 18.9997 24.5854C19.5299 24.5854 20.0384 24.3749 20.4134 24.0001L23.0622 21.3526C23.4402 21.5531 23.8726 21.6271 24.2959 21.5636C24.7191 21.5002 25.1108 21.3026 25.4134 21.0001L31.7072 14.7076C31.8001 14.6147 31.8739 14.5044 31.9242 14.383C31.9746 14.2616 32.0005 14.1315 32.0005 14.0001C32.0005 13.8687 31.9746 13.7385 31.9242 13.6171C31.8739 13.4957 31.8001 13.3854 31.7072 13.2926ZM11.7297 25.8563L4.85467 23.5626L10.9997 17.4138L15.5859 22.0001L11.7297 25.8563ZM18.9997 22.5863L10.4134 14.0001L12.9997 11.4138L21.5859 20.0001L18.9997 22.5863Z" fill="#222222"/>
</svg>
