<svg width="32" height="32" viewBox="0 0 32 32" fill="none" xmlns="http://www.w3.org/2000/svg">
<path d="M29.8303 4.16994C29.4588 3.79841 29.0178 3.50369 28.5325 3.30262C28.0471 3.10154 27.5269 2.99805 27.0015 2.99805C26.4762 2.99805 25.9559 3.10154 25.4706 3.30262C24.9852 3.50369 24.5442 3.79841 24.1728 4.16994C23.8012 4.54139 23.5065 4.98239 23.3054 5.46775C23.1044 5.95311 23.0009 6.47333 23.0009 6.99869C23.0009 7.52406 23.1044 8.04428 23.3054 8.52964C23.5065 9.015 23.8012 9.456 24.1728 9.82744C24.209 9.86369 24.2478 9.89869 24.2853 9.93369L20.9565 16.1162C19.9417 15.8687 18.8703 16.0256 17.969 16.5537L15.4465 14.0312C15.9428 13.1924 16.1158 12.2013 15.9329 11.244C15.7501 10.2867 15.2241 9.42912 14.4536 8.83225C13.6832 8.23539 12.7213 7.94034 11.7487 8.00252C10.7761 8.0647 9.85969 8.47983 9.17153 9.16994C8.79999 9.54139 8.50527 9.98239 8.3042 10.4677C8.10312 10.9531 7.99963 11.4733 7.99963 11.9987C7.99963 12.5241 8.10312 13.0443 8.3042 13.5296C8.50527 14.015 8.79999 14.456 9.17153 14.8274C9.20778 14.8637 9.24528 14.8987 9.28278 14.9337L5.95403 21.1174C5.28585 20.953 4.58656 20.9637 3.92373 21.1485C3.2609 21.3333 2.65696 21.686 2.17028 22.1724C1.61096 22.7319 1.23008 23.4446 1.07582 24.2205C0.92155 24.9964 1.00082 25.8006 1.30359 26.5315C1.60637 27.2623 2.11906 27.887 2.77684 28.3265C3.43462 28.766 4.20794 29.0005 4.99903 29.0005C5.79011 29.0005 6.56343 28.766 7.22121 28.3265C7.87899 27.887 8.39168 27.2623 8.69446 26.5315C8.99723 25.8006 9.0765 24.9964 8.92223 24.2205C8.76797 23.4446 8.38709 22.7319 7.82778 22.1724C7.79152 22.1362 7.75278 22.1012 7.71528 22.0662L11.044 15.8837C11.357 15.9603 11.678 15.9994 12.0003 15.9999C12.7144 16.0008 13.4158 15.8105 14.0315 15.4487L16.554 17.9712C16.1743 18.6157 15.9829 19.3538 16.0015 20.1016C16.0202 20.8495 16.2482 21.5771 16.6596 22.2018C17.0711 22.8266 17.6495 23.3235 18.3291 23.636C19.0088 23.9485 19.7625 24.0642 20.5046 23.9699C21.2467 23.8756 21.9475 23.575 22.5273 23.1024C23.1072 22.6298 23.5429 22.0041 23.785 21.2963C24.0271 20.5884 24.0659 19.8269 23.8969 19.0982C23.7279 18.3695 23.3579 17.7027 22.829 17.1737C22.7928 17.1374 22.7553 17.1024 22.7178 17.0674L26.0465 10.8849C26.3587 10.9611 26.6789 10.9997 27.0003 10.9999C27.7912 10.9998 28.5644 10.7652 29.2221 10.3258C29.8797 9.8863 30.3923 9.26173 30.6951 8.531C30.9978 7.80028 31.0771 6.99619 30.923 6.2204C30.7688 5.4446 30.3881 4.73192 29.829 4.17244L29.8303 4.16994ZM6.41278 26.4162C6.03749 26.7913 5.52857 27.002 4.99796 27.0019C4.46735 27.0017 3.95852 26.7908 3.5834 26.4156C3.20828 26.0403 2.99761 25.5314 2.99773 25.0008C2.99785 24.4701 3.20874 23.9613 3.58403 23.5862C3.76985 23.4005 3.99043 23.2531 4.23319 23.1526C4.47594 23.0522 4.73611 23.0005 4.99884 23.0005C5.26157 23.0006 5.52172 23.0524 5.76443 23.153C6.00714 23.2536 6.22766 23.401 6.4134 23.5868C6.59914 23.7726 6.74646 23.9932 6.84695 24.236C6.94744 24.4787 6.99913 24.7389 6.99907 25.0016C6.99901 25.2644 6.94721 25.5245 6.84661 25.7672C6.74601 26.0099 6.5986 26.2305 6.41278 26.4162ZM10.5853 13.4162C10.3995 13.2305 10.2522 13.01 10.1516 12.7673C10.0511 12.5246 9.99933 12.2645 9.99933 12.0018C9.99933 11.7391 10.0511 11.479 10.1516 11.2363C10.2522 10.9937 10.3995 10.7732 10.5853 10.5874C10.865 10.3078 11.2214 10.1173 11.6093 10.0402C11.9973 9.96308 12.3994 10.0027 12.7648 10.1541C13.1302 10.3055 13.4426 10.5618 13.6623 10.8907C13.882 11.2196 13.9993 11.6063 13.9993 12.0018C13.9993 12.3974 13.882 12.784 13.6623 13.1129C13.4426 13.4418 13.1302 13.6981 12.7648 13.8495C12.3994 14.0009 11.9973 14.0406 11.6093 13.9634C11.2214 13.8863 10.865 13.6959 10.5853 13.4162ZM21.4153 21.4162C21.0402 21.7913 20.5314 22.002 20.0009 22.002C19.4704 22.002 18.9616 21.7913 18.5865 21.4162C18.2114 21.0411 18.0007 20.5323 18.0007 20.0018C18.0007 19.4713 18.2114 18.9626 18.5865 18.5874C18.9616 18.2123 19.4704 18.0016 20.0009 18.0016C20.5314 18.0016 21.0402 18.2123 21.4153 18.5874C21.7904 18.9626 22.0011 19.4713 22.0011 20.0018C22.0011 20.5323 21.7904 21.0411 21.4153 21.4162ZM28.4153 8.41619C28.0397 8.79114 27.5305 9.00152 26.9998 9.00105C26.469 9.00059 25.9602 8.78931 25.5853 8.41369C25.2103 8.03808 24.9999 7.5289 25.0004 6.99818C25.0009 6.46745 25.2122 5.95864 25.5878 5.58369C25.7736 5.39795 25.9942 5.25063 26.2369 5.15015C26.4797 5.04966 26.7399 4.99796 27.0026 4.99802C27.2653 4.99808 27.5255 5.04989 27.7682 5.15048C28.0109 5.25108 28.2314 5.3985 28.4172 5.58432C28.6029 5.77014 28.7502 5.99072 28.8507 6.23348C28.9512 6.47623 29.0029 6.7364 29.0028 6.99913C29.0028 7.26187 28.951 7.52201 28.8504 7.76472C28.7498 8.00743 28.6023 8.22795 28.4165 8.41369L28.4153 8.41619Z" fill="#222222"/>
</svg>
