<svg width="32" height="32" viewBox="0 0 32 32" fill="none" xmlns="http://www.w3.org/2000/svg">
<path d="M28.8296 3.16994C28.4582 2.79841 28.0172 2.50369 27.5318 2.30262C27.0464 2.10154 26.5262 1.99805 26.0009 1.99805C25.4755 1.99805 24.9553 2.10154 24.4699 2.30262C23.9846 2.50369 23.5436 2.79841 23.1721 3.16994C23.1546 3.18744 23.1371 3.20619 23.1196 3.22619L16.4434 11.0274L15.1246 9.70494C14.846 9.4262 14.5152 9.20508 14.1512 9.05422C13.7871 8.90336 13.3968 8.82571 13.0027 8.82571C12.6086 8.82571 12.2184 8.90336 11.8543 9.05422C11.4902 9.20508 11.1595 9.4262 10.8809 9.70494L1.29461 19.2924C1.10722 19.48 1.00195 19.7342 1.00195 19.9993C1.00195 20.2644 1.10722 20.5187 1.29461 20.7062L11.2946 30.7062C11.4821 30.8936 11.7364 30.9989 12.0015 30.9989C12.2666 30.9989 12.5208 30.8936 12.7084 30.7062L22.2946 21.1249C22.5734 20.8463 22.7945 20.5156 22.9453 20.1515C23.0962 19.7874 23.1738 19.3972 23.1738 19.0031C23.1738 18.609 23.0962 18.2187 22.9453 17.8547C22.7945 17.4906 22.5734 17.1598 22.2946 16.8812L20.9721 15.5599L28.7734 8.87494C28.7921 8.85744 28.8121 8.83994 28.8296 8.82119C29.578 8.07128 29.9984 7.05506 29.9984 5.99557C29.9984 4.93607 29.578 3.91986 28.8296 3.16994ZM11.9996 28.5862L9.91461 26.4999L12.7071 23.7062C12.8867 23.5171 12.9854 23.2654 12.9821 23.0046C12.9787 22.7439 12.8736 22.4947 12.6892 22.3103C12.5048 22.1259 12.2557 22.0208 11.9949 22.0175C11.7342 22.0142 11.4824 22.1128 11.2934 22.2924L8.49961 25.0849L6.91461 23.4999L9.70712 20.7062C9.88673 20.5171 9.98539 20.2654 9.98205 20.0046C9.97872 19.7439 9.87364 19.4947 9.68924 19.3103C9.50484 19.1259 9.2557 19.0208 8.99494 19.0175C8.73418 19.0142 8.48243 19.1128 8.29336 19.2924L5.49961 22.0849L3.41336 19.9999L8.99961 14.4137L17.5859 22.9999L11.9996 28.5862ZM27.4396 7.38744L18.8509 14.7387C18.746 14.8283 18.6608 14.9386 18.6006 15.0627C18.5404 15.1868 18.5066 15.322 18.5012 15.4599C18.4958 15.5977 18.5189 15.7351 18.5692 15.8636C18.6195 15.992 18.6958 16.1087 18.7934 16.2062L20.8746 18.2924C21.062 18.48 21.1673 18.7342 21.1673 18.9993C21.1673 19.2644 21.062 19.5187 20.8746 19.7062L18.9996 21.5812L10.4146 12.9999L12.2896 11.1249C12.4771 10.9375 12.7314 10.8323 12.9965 10.8323C13.2616 10.8323 13.5158 10.9375 13.7034 11.1249L15.7896 13.2112C15.8871 13.3087 16.0038 13.385 16.1322 13.4353C16.2607 13.4856 16.3981 13.5088 16.5359 13.5034C16.6738 13.498 16.809 13.4641 16.9331 13.404C17.0572 13.3438 17.1675 13.2586 17.2571 13.1537L24.6121 4.55994C24.9902 4.2007 25.4937 4.00339 26.0153 4.01006C26.5368 4.01674 27.0351 4.22688 27.4039 4.59569C27.7727 4.96449 27.9828 5.46277 27.9895 5.9843C27.9962 6.50582 27.7989 7.00932 27.4396 7.38744Z" fill="#222222"/>
</svg>
