<svg width="32" height="32" viewBox="0 0 32 32" fill="none" xmlns="http://www.w3.org/2000/svg">
<path d="M29.316 17.3837C29.4775 17.3297 29.6227 17.2354 29.7376 17.1097C29.8525 16.9839 29.9334 16.8309 29.9726 16.6652C30.0118 16.4994 30.008 16.3263 29.9615 16.1624C29.9151 15.9985 29.8275 15.8492 29.7072 15.7287L15.271 1.29242C15.0834 1.10502 14.8292 0.999756 14.5641 0.999756C14.299 0.999756 14.0447 1.10502 13.8572 1.29242L8.78095 6.37492L5.70595 3.29242C5.51831 3.10494 5.26388 2.99969 4.99864 2.9998C4.73339 2.99992 4.47905 3.1054 4.29158 3.29304C4.1041 3.48068 3.99885 3.73511 3.99896 4.00036C3.99908 4.26561 4.10456 4.51994 4.2922 4.70742L7.3672 7.78242L1.8747 13.2712C1.31214 13.8338 0.996094 14.5968 0.996094 15.3924C0.996094 16.188 1.31214 16.9511 1.8747 17.5137L12.486 28.1249C13.0486 28.6875 13.8116 29.0035 14.6072 29.0035C15.4028 29.0035 16.1659 28.6875 16.7285 28.1249L26.5397 18.3137L29.316 17.3837ZM25.2922 16.7287L15.3135 26.7074C15.1259 26.8948 14.8717 27.0001 14.6066 27.0001C14.3415 27.0001 14.0872 26.8948 13.8997 26.7074L3.2922 16.0999C3.10481 15.9124 2.99954 15.6581 2.99954 15.393C2.99954 15.1279 3.10481 14.8737 3.2922 14.6862L8.78095 9.19617L12.421 12.8362C12.0215 13.5759 11.9016 14.4347 12.0832 15.2555C12.2649 16.0764 12.7359 16.8044 13.4102 17.3065C14.0845 17.8086 14.917 18.0512 15.7554 17.99C16.5939 17.9288 17.3823 17.5678 17.9765 16.9731C18.5707 16.3784 18.931 15.5896 18.9915 14.7511C19.052 13.9126 18.8086 13.0803 18.3059 12.4065C17.8032 11.7326 17.0748 11.2622 16.2538 11.0813C15.4328 10.9004 14.5741 11.021 13.8347 11.4212L10.196 7.78242L14.571 3.41367L27.1485 15.9999L25.6835 16.4874C25.5362 16.5367 25.4024 16.6193 25.2922 16.7287ZM14.4385 13.4399C14.7206 13.1034 15.1248 12.8925 15.5622 12.8537C15.9997 12.815 16.4347 12.9514 16.7716 13.233C17.1086 13.5147 17.32 13.9185 17.3595 14.3559C17.3989 14.7933 17.2631 15.2285 16.982 15.5659C16.7008 15.9033 16.2973 16.1153 15.8599 16.1554C15.4226 16.1954 14.9872 16.0603 14.6494 15.7797C14.3116 15.499 14.099 15.0958 14.0583 14.6585C14.0176 14.2212 14.152 13.7856 14.4322 13.4474C14.4322 13.4474 14.4385 13.4412 14.4385 13.4399ZM29.8322 20.4399C29.7409 20.3028 29.6172 20.1903 29.4719 20.1125C29.3267 20.0347 29.1645 19.9939 28.9997 19.9939C28.8349 19.9939 28.6727 20.0347 28.5275 20.1125C28.3822 20.1903 28.2585 20.3028 28.1672 20.4399C27.946 20.7787 25.9997 23.7612 25.9997 25.9999C25.9997 26.7956 26.3158 27.5586 26.8784 28.1212C27.441 28.6838 28.2041 28.9999 28.9997 28.9999C29.7954 28.9999 30.5584 28.6838 31.121 28.1212C31.6836 27.5586 31.9997 26.7956 31.9997 25.9999C31.9997 23.7612 30.0535 20.7787 29.8322 20.4449V20.4399ZM28.9997 26.9999C28.7345 26.9999 28.4801 26.8946 28.2926 26.707C28.1051 26.5195 27.9997 26.2651 27.9997 25.9999C27.9997 25.1499 28.4997 23.9599 28.9997 22.9899C29.4997 23.9599 29.9997 25.1574 29.9997 25.9999C29.9997 26.2651 29.8943 26.5195 29.7068 26.707C29.5193 26.8946 29.2649 26.9999 28.9997 26.9999Z" fill="#222222"/>
</svg>
