<svg width="32" height="32" viewBox="0 0 32 32" fill="none" xmlns="http://www.w3.org/2000/svg">
<path d="M25.1927 6.80741C22.7547 4.36941 19.448 2.99976 16.0002 2.99976C12.5523 2.99976 9.24566 4.36941 6.80766 6.80741C4.36966 9.24542 3 12.5521 3 15.9999C3 19.4478 4.36966 22.7544 6.80766 25.1924C9.24566 27.6304 12.5523 29.0001 16.0002 29.0001C19.448 29.0001 22.7547 27.6304 25.1927 25.1924C27.6307 22.7544 29.0003 19.4478 29.0003 15.9999C29.0003 12.5521 27.6307 9.24542 25.1927 6.80741ZM11.0002 23.9999C11.0002 23.4695 11.2109 22.9608 11.5859 22.5857C11.961 22.2106 12.4697 21.9999 13.0002 21.9999C13.5306 21.9999 14.0393 22.2106 14.4144 22.5857C14.7894 22.9608 15.0002 23.4695 15.0002 23.9999V26.9487C13.6056 26.8226 12.248 26.4314 11.0002 25.7962V23.9999ZM17.0002 23.9999C17.0002 23.4695 17.2109 22.9608 17.5859 22.5857C17.961 22.2106 18.4697 21.9999 19.0002 21.9999C19.5306 21.9999 20.0393 22.2106 20.4144 22.5857C20.7894 22.9608 21.0002 23.4695 21.0002 23.9999V25.7962C19.7523 26.4314 18.3947 26.8226 17.0002 26.9487V23.9999ZM13.4089 16.9999H18.5914L20.0389 20.1374C19.3188 19.9433 18.5588 19.9549 17.845 20.1707C17.1311 20.3866 16.492 20.7981 16.0002 21.3587C15.5083 20.7981 14.8692 20.3866 14.1554 20.1707C13.4415 19.9549 12.6815 19.9433 11.9614 20.1374L13.4089 16.9999ZM14.3327 14.9999L16.0002 11.3862L17.6677 14.9999H14.3327ZM23.7777 23.7787C23.5277 24.0287 23.2677 24.2624 23.0002 24.4837V21.9999C23.0003 21.8552 22.9688 21.7123 22.9077 21.5812L16.9077 8.58116C16.8275 8.40798 16.6995 8.26135 16.5387 8.15859C16.3778 8.05582 16.191 8.00122 16.0002 8.00122C15.8093 8.00122 15.6225 8.05582 15.4617 8.15859C15.3009 8.26135 15.1728 8.40798 15.0927 8.58116L9.09266 21.5812C9.03156 21.7123 8.99999 21.8552 9.00016 21.9999V24.4837C8.73266 24.2624 8.47266 24.0287 8.22266 23.7787C6.68409 22.2404 5.63625 20.2804 5.21166 18.1465C4.78707 16.0127 5.00479 13.8008 5.8373 11.7907C6.66981 9.78064 8.07971 8.06256 9.88869 6.85378C11.6977 5.645 13.8245 4.99981 16.0002 4.99981C18.1758 4.99981 20.3026 5.645 22.1116 6.85378C23.9206 8.06256 25.3305 9.78064 26.163 11.7907C26.9955 13.8008 27.2132 16.0127 26.7887 18.1465C26.3641 20.2804 25.3162 22.2404 23.7777 23.7787Z" fill="#222222"/>
</svg>
