<svg width="32" height="32" viewBox="0 0 32 32" fill="none" xmlns="http://www.w3.org/2000/svg">
<path d="M29.898 11.3813C29.7718 10.9779 29.5192 10.6258 29.1775 10.377C28.8358 10.1283 28.4231 9.99613 28.0005 10.0001H20.3755L17.9042 2.40758C17.7796 2.00042 17.5278 1.64392 17.1857 1.39041C16.8436 1.1369 16.4292 0.999725 16.0034 0.999026C15.5776 0.998327 15.1628 1.13414 14.8198 1.38652C14.4769 1.63891 14.2239 1.99458 14.098 2.40133L11.633 10.0001H4.00045C3.57662 9.99895 3.16339 10.1325 2.82038 10.3814C2.47736 10.6304 2.2223 10.9819 2.09199 11.3852C1.96168 11.7885 1.96286 12.2227 2.09537 12.6253C2.22787 13.0279 2.48484 13.378 2.8292 13.6251L9.0117 18.0726L6.64421 25.3751C6.5094 25.7767 6.50774 26.2111 6.63948 26.6138C6.77121 27.0164 7.02932 27.3658 7.37545 27.6101C7.71469 27.862 8.12602 27.9981 8.54858 27.9981C8.97114 27.9981 9.38247 27.862 9.7217 27.6101L16.0005 23.0938L22.2792 27.6101C22.6208 27.8581 23.0322 27.9916 23.4543 27.9915C23.8765 27.9915 24.2878 27.8579 24.6293 27.6098C24.9709 27.3617 25.2252 27.012 25.3559 26.6106C25.4865 26.2091 25.4868 25.7767 25.3567 25.3751L22.9817 18.0676L29.168 13.6163C29.514 13.372 29.772 13.0225 29.9035 12.6199C30.035 12.2172 30.0331 11.7828 29.898 11.3813ZM16.0005 3.01883L18.2655 10.0001H13.7355L16.0005 3.01883ZM4.00045 12.0001H10.9842L9.66296 16.0701L4.00045 12.0001ZM8.54295 26.0001L10.7167 19.3013L14.2842 21.8688L8.54295 26.0001ZM11.3642 17.3038L13.0867 12.0001H18.9142L20.633 17.2976L16.0005 20.6251L11.3642 17.3038ZM23.4505 26.0001L17.713 21.8751L21.2805 19.3076L23.4505 26.0001ZM22.3342 16.0776L21.0167 12.0001H28.0005L22.3342 16.0776Z" fill="#222222"/>
</svg>
