<svg width="32" height="32" viewBox="0 0 32 32" fill="none" xmlns="http://www.w3.org/2000/svg">
<path d="M13.9998 6V26C13.9998 26.2652 13.8945 26.5196 13.7069 26.7071C13.5194 26.8946 13.265 27 12.9998 27C12.7346 27 12.4802 26.8946 12.2927 26.7071C12.1052 26.5196 11.9998 26.2652 11.9998 26V17H5.41356L7.70731 19.2925C7.89495 19.4801 8.00037 19.7346 8.00037 20C8.00037 20.2654 7.89495 20.5199 7.70731 20.7075C7.51967 20.8951 7.26517 21.0006 6.99981 21.0006C6.73445 21.0006 6.47995 20.8951 6.29231 20.7075L2.29231 16.7075C2.19933 16.6146 2.12557 16.5043 2.07525 16.3829C2.02493 16.2615 1.99902 16.1314 1.99902 16C1.99902 15.8686 2.02493 15.7385 2.07525 15.6171C2.12557 15.4957 2.19933 15.3854 2.29231 15.2925L6.29231 11.2925C6.47995 11.1049 6.73445 10.9994 6.99981 10.9994C7.26517 10.9994 7.51967 11.1049 7.70731 11.2925C7.89495 11.4801 8.00037 11.7346 8.00037 12C8.00037 12.2654 7.89495 12.5199 7.70731 12.7075L5.41356 15H11.9998V6C11.9998 5.73478 12.1052 5.48043 12.2927 5.29289C12.4802 5.10536 12.7346 5 12.9998 5C13.265 5 13.5194 5.10536 13.7069 5.29289C13.8945 5.48043 13.9998 5.73478 13.9998 6ZM29.7073 15.2925L25.7073 11.2925C25.5197 11.1049 25.2652 10.9994 24.9998 10.9994C24.7344 10.9994 24.4799 11.1049 24.2923 11.2925C24.1047 11.4801 23.9993 11.7346 23.9993 12C23.9993 12.2654 24.1047 12.5199 24.2923 12.7075L26.5861 15H19.9998V6C19.9998 5.73478 19.8945 5.48043 19.7069 5.29289C19.5194 5.10536 19.265 5 18.9998 5C18.7346 5 18.4802 5.10536 18.2927 5.29289C18.1052 5.48043 17.9998 5.73478 17.9998 6V26C17.9998 26.2652 18.1052 26.5196 18.2927 26.7071C18.4802 26.8946 18.7346 27 18.9998 27C19.265 27 19.5194 26.8946 19.7069 26.7071C19.8945 26.5196 19.9998 26.2652 19.9998 26V17H26.5861L24.2923 19.2925C24.1047 19.4801 23.9993 19.7346 23.9993 20C23.9993 20.2654 24.1047 20.5199 24.2923 20.7075C24.4799 20.8951 24.7344 21.0006 24.9998 21.0006C25.2652 21.0006 25.5197 20.8951 25.7073 20.7075L29.7073 16.7075C29.8003 16.6146 29.874 16.5043 29.9244 16.3829C29.9747 16.2615 30.0006 16.1314 30.0006 16C30.0006 15.8686 29.9747 15.7385 29.9244 15.6171C29.874 15.4957 29.8003 15.3854 29.7073 15.2925Z" fill="#222222"/>
</svg>
