<svg width="32" height="32" viewBox="0 0 32 32" fill="none" xmlns="http://www.w3.org/2000/svg">
<path d="M27 19.0001C27 19.2653 26.8946 19.5196 26.7071 19.7072C26.5196 19.8947 26.2652 20.0001 26 20.0001H17V26.5863L19.2925 24.2926C19.4801 24.1049 19.7346 23.9995 20 23.9995C20.2654 23.9995 20.5199 24.1049 20.7075 24.2926C20.8951 24.4802 21.0006 24.7347 21.0006 25.0001C21.0006 25.2654 20.8951 25.5199 20.7075 25.7076L16.7075 29.7076C16.6146 29.8005 16.5043 29.8743 16.3829 29.9246C16.2615 29.9749 16.1314 30.0008 16 30.0008C15.8686 30.0008 15.7385 29.9749 15.6171 29.9246C15.4957 29.8743 15.3854 29.8005 15.2925 29.7076L11.2925 25.7076C11.1049 25.5199 10.9994 25.2654 10.9994 25.0001C10.9994 24.7347 11.1049 24.4802 11.2925 24.2926C11.4801 24.1049 11.7346 23.9995 12 23.9995C12.2654 23.9995 12.5199 24.1049 12.7075 24.2926L15 26.5863V20.0001H6C5.73478 20.0001 5.48043 19.8947 5.29289 19.7072C5.10536 19.5196 5 19.2653 5 19.0001C5 18.7348 5.10536 18.4805 5.29289 18.2929C5.48043 18.1054 5.73478 18.0001 6 18.0001H26C26.2652 18.0001 26.5196 18.1054 26.7071 18.2929C26.8946 18.4805 27 18.7348 27 19.0001ZM6 14.0001H26C26.2652 14.0001 26.5196 13.8947 26.7071 13.7072C26.8946 13.5196 27 13.2653 27 13.0001C27 12.7348 26.8946 12.4805 26.7071 12.2929C26.5196 12.1054 26.2652 12.0001 26 12.0001H17V5.4138L19.2925 7.70755C19.4801 7.8952 19.7346 8.00061 20 8.00061C20.2654 8.00061 20.5199 7.8952 20.7075 7.70755C20.8951 7.51991 21.0006 7.26542 21.0006 7.00005C21.0006 6.73469 20.8951 6.4802 20.7075 6.29255L16.7075 2.29255C16.6146 2.19958 16.5043 2.12582 16.3829 2.07549C16.2615 2.02517 16.1314 1.99927 16 1.99927C15.8686 1.99927 15.7385 2.02517 15.6171 2.07549C15.4957 2.12582 15.3854 2.19958 15.2925 2.29255L11.2925 6.29255C11.1049 6.4802 10.9994 6.73469 10.9994 7.00005C10.9994 7.26542 11.1049 7.51991 11.2925 7.70755C11.4801 7.8952 11.7346 8.00061 12 8.00061C12.2654 8.00061 12.5199 7.8952 12.7075 7.70755L15 5.4138V12.0001H6C5.73478 12.0001 5.48043 12.1054 5.29289 12.2929C5.10536 12.4805 5 12.7348 5 13.0001C5 13.2653 5.10536 13.5196 5.29289 13.7072C5.48043 13.8947 5.73478 14.0001 6 14.0001Z" fill="#222222"/>
</svg>
