<svg width="32" height="32" viewBox="0 0 32 32" fill="none" xmlns="http://www.w3.org/2000/svg">
<path d="M28.8638 15.4999C28.9958 15.7291 29.0317 16.0013 28.9635 16.2569C28.8954 16.5125 28.7287 16.7307 28.5 16.8637L16.5 23.8637C16.3471 23.9528 16.1733 23.9998 15.9963 23.9998C15.8192 23.9998 15.6454 23.9528 15.4925 23.8637L3.4925 16.8637C3.26712 16.7282 3.10415 16.5095 3.03888 16.2547C2.9736 16 3.01128 15.7299 3.14375 15.5027C3.27622 15.2756 3.49282 15.1097 3.74666 15.0411C4.0005 14.9725 4.27114 15.0067 4.5 15.1362L16 21.8424L27.5 15.1362C27.7292 15.0041 28.0014 14.9682 28.257 15.0364C28.5126 15.1045 28.7308 15.2712 28.8638 15.4999ZM3 9.9999C3.0004 9.82475 3.04679 9.65278 3.13454 9.50119C3.22229 9.34961 3.34831 9.22373 3.5 9.13615L15.5 2.13615C15.6529 2.04698 15.8267 2 16.0037 2C16.1808 2 16.3546 2.04698 16.5075 2.13615L28.5075 9.13615C28.6585 9.22422 28.7837 9.35031 28.8707 9.50187C28.9578 9.65342 29.0036 9.82513 29.0036 9.9999C29.0036 10.1747 28.9578 10.3464 28.8707 10.4979C28.7837 10.6495 28.6585 10.7756 28.5075 10.8637L16.5075 17.8637C16.3546 17.9528 16.1808 17.9998 16.0037 17.9998C15.8267 17.9998 15.6529 17.9528 15.5 17.8637L3.5 10.8637C3.34831 10.7761 3.22229 10.6502 3.13454 10.4986C3.04679 10.347 3.0004 10.1751 3 9.9999ZM5.985 9.9999L16 15.8424L26.015 9.9999L16 4.1574L5.985 9.9999ZM29 23.9999H27V21.9999C27 21.7347 26.8946 21.4803 26.7071 21.2928C26.5196 21.1053 26.2652 20.9999 26 20.9999C25.7348 20.9999 25.4804 21.1053 25.2929 21.2928C25.1054 21.4803 25 21.7347 25 21.9999V23.9999H23C22.7348 23.9999 22.4804 24.1053 22.2929 24.2928C22.1054 24.4803 22 24.7347 22 24.9999C22 25.2651 22.1054 25.5195 22.2929 25.707C22.4804 25.8945 22.7348 25.9999 23 25.9999H25V27.9999C25 28.2651 25.1054 28.5195 25.2929 28.707C25.4804 28.8945 25.7348 28.9999 26 28.9999C26.2652 28.9999 26.5196 28.8945 26.7071 28.707C26.8946 28.5195 27 28.2651 27 27.9999V25.9999H29C29.2652 25.9999 29.5196 25.8945 29.7071 25.707C29.8946 25.5195 30 25.2651 30 24.9999C30 24.7347 29.8946 24.4803 29.7071 24.2928C29.5196 24.1053 29.2652 23.9999 29 23.9999ZM17.5 26.9699L16 27.8449L4.5 21.1362C4.27231 21.0228 4.00997 21.0004 3.76638 21.0737C3.5228 21.1469 3.31627 21.3102 3.18884 21.5303C3.06141 21.7505 3.02266 22.0109 3.08046 22.2586C3.13827 22.5063 3.28829 22.7227 3.5 22.8637L15.5 29.8637C15.6529 29.9528 15.8267 29.9998 16.0037 29.9998C16.1808 29.9998 16.3546 29.9528 16.5075 29.8637L18.5075 28.6974C18.6228 28.6322 18.7239 28.5447 18.8051 28.4401C18.8863 28.3355 18.9459 28.2158 18.9804 28.088C19.015 27.9601 19.0238 27.8267 19.0064 27.6954C18.9889 27.5641 18.9456 27.4376 18.8789 27.3233C18.8122 27.2089 18.7234 27.1089 18.6177 27.0291C18.5121 26.9492 18.3916 26.8912 18.2633 26.8583C18.135 26.8255 18.0015 26.8184 17.8705 26.8376C17.7394 26.8567 17.6135 26.9017 17.5 26.9699Z" fill="#222222"/>
</svg>
