<svg width="32" height="32" viewBox="0 0 32 32" fill="none" xmlns="http://www.w3.org/2000/svg">
<path d="M21.8285 10.1687C21.4954 8.37796 20.6795 6.7122 19.469 5.35122C18.2584 3.99025 16.6991 2.98576 14.9594 2.44617C13.2198 1.90659 11.3657 1.85241 9.59748 2.28948C7.82924 2.72656 6.21397 3.63828 4.926 4.92625C3.63804 6.21421 2.72631 7.82949 2.28924 9.59773C1.85217 11.366 1.90634 13.22 2.44593 14.9597C2.98551 16.6994 3.99 18.2587 5.35098 19.4692C6.71195 20.6798 8.37772 21.4956 10.1685 21.8287C10.5015 23.6194 11.3174 25.2852 12.5279 26.6462C13.7385 28.0072 15.2978 29.0116 17.0375 29.5512C18.7772 30.0908 20.6312 30.145 22.3994 29.7079C24.1677 29.2708 25.783 28.3591 27.0709 27.0712C28.3589 25.7832 29.2706 24.1679 29.7077 22.3997C30.1448 20.6314 30.0906 18.7774 29.551 17.0377C29.0114 15.298 28.0069 13.7387 26.6459 12.5282C25.285 11.3176 23.6192 10.5018 21.8285 10.1687ZM27.9997 20C27.9997 20.19 27.991 20.375 27.9772 20.5637L21.7272 14.3137C21.8895 13.6371 21.9808 12.9455 21.9997 12.25C23.7197 12.6898 25.2437 13.6909 26.3305 15.0947C27.4173 16.4984 28.0047 18.2247 27.9997 20ZM18.3247 19.7387L24.901 26.3162C24.285 26.795 23.6024 27.1812 22.8747 27.4625L16.3922 20.98C17.0816 20.6413 17.73 20.2249 18.3247 19.7387ZM19.7385 18.325C20.2244 17.7311 20.6409 17.0835 20.9797 16.395L27.4622 22.875C27.1807 23.6018 26.7946 24.2836 26.316 24.8987L19.7385 18.325ZM3.99971 12C3.99971 10.4177 4.4689 8.87098 5.34795 7.55539C6.227 6.2398 7.47643 5.21442 8.93824 4.60892C10.4 4.00342 12.0086 3.84499 13.5604 4.15367C15.1123 4.46235 16.5377 5.22428 17.6566 6.3431C18.7754 7.46192 19.5373 8.88738 19.846 10.4392C20.1547 11.9911 19.9962 13.5996 19.3907 15.0614C18.7852 16.5232 17.7599 17.7727 16.4443 18.6517C15.1287 19.5308 13.582 20 11.9997 20C9.87869 19.9976 7.8452 19.154 6.34541 17.6542C4.84562 16.1545 4.00202 14.121 3.99971 12ZM12.2497 22C12.9446 21.983 13.6358 21.8938 14.3122 21.7337L20.5622 27.9837C20.376 27.9975 20.1872 28.0062 19.9985 28.0062C18.2225 28.0106 16.496 27.4221 15.0923 26.3341C13.6887 25.2462 12.6883 23.7209 12.2497 22Z" fill="#222222"/>
</svg>
