<svg width="32" height="32" viewBox="0 0 32 32" fill="none" xmlns="http://www.w3.org/2000/svg">
<path d="M11.0005 22.5001C11.0005 22.7968 10.9125 23.0868 10.7477 23.3335C10.5829 23.5801 10.3486 23.7724 10.0745 23.8859C9.80041 23.9994 9.49881 24.0292 9.20784 23.9713C8.91687 23.9134 8.6496 23.7705 8.43982 23.5608C8.23004 23.351 8.08718 23.0837 8.0293 22.7927C7.97142 22.5018 8.00113 22.2002 8.11466 21.9261C8.22819 21.652 8.42045 21.4177 8.66712 21.2529C8.9138 21.0881 9.20381 21.0001 9.50048 21.0001C9.8983 21.0001 10.2798 21.1581 10.5611 21.4394C10.8424 21.7207 11.0005 22.1023 11.0005 22.5001ZM30.0005 19.5238V26.0001C30.0005 26.5305 29.7898 27.0392 29.4147 27.4143C29.0396 27.7894 28.5309 28.0001 28.0005 28.0001H9.50048C9.16782 28.0003 8.83576 27.9719 8.50798 27.9151C7.07801 27.6542 5.80947 26.8379 4.9796 25.6445C4.14973 24.4511 3.82602 22.9777 4.07923 21.5463L7.20423 3.6551C7.24865 3.39658 7.34367 3.14937 7.48386 2.92766C7.62404 2.70595 7.80662 2.51411 8.02113 2.36313C8.23563 2.21215 8.47784 2.10501 8.73385 2.04786C8.98986 1.99071 9.25463 1.98468 9.51298 2.0301L16.3555 3.2501C16.8761 3.34393 17.3384 3.64021 17.6411 4.07408C17.9437 4.50796 18.0622 5.04409 17.9705 5.5651L16.4605 14.1901L24.9367 11.1251C25.4336 10.9456 25.9813 10.97 26.4602 11.193C26.9392 11.416 27.3104 11.8193 27.493 12.3151L29.8755 18.8363C29.952 19.0578 29.9942 19.2896 30.0005 19.5238ZM12.8755 23.1088L16.0005 5.2176L9.18298 4.0001L6.05798 21.8876C5.89483 22.7974 6.09821 23.7348 6.62373 24.4953C7.14924 25.2557 7.95423 25.7773 8.86298 25.9464C9.30784 26.0261 9.76412 26.0167 10.2053 25.9186C10.6465 25.8206 11.0638 25.6358 11.433 25.3751C11.8116 25.1118 12.1341 24.7758 12.3817 24.3868C12.6294 23.9977 12.7972 23.5633 12.8755 23.1088ZM14.598 24.3751L28.0005 19.5138L25.6155 13.0001L16.063 16.4626L14.8405 23.4526C14.7861 23.7665 14.705 24.0751 14.598 24.3751ZM28.0005 21.6401L15.968 26.0001H28.0005V21.6401Z" fill="#222222"/>
</svg>
