<svg width="32" height="32" viewBox="0 0 32 32" fill="none" xmlns="http://www.w3.org/2000/svg">
<path d="M7.57375 21.9051C7.69259 21.9611 7.8213 21.9932 7.95253 21.9994C8.08377 22.0057 8.21495 21.986 8.33858 21.9416C8.46221 21.8971 8.57587 21.8287 8.67305 21.7403C8.77024 21.6519 8.84906 21.5452 8.905 21.4264L10.9875 17.0001H21.0125L23.095 21.4264C23.151 21.5452 23.2298 21.6519 23.327 21.7402C23.4242 21.8286 23.5379 21.897 23.6615 21.9414C23.7851 21.9859 23.9163 22.0056 24.0475 21.9993C24.1787 21.9931 24.3074 21.9611 24.4263 21.9051C24.5451 21.8491 24.6518 21.7703 24.7401 21.6731C24.8285 21.5759 24.8969 21.4623 24.9413 21.3386C24.9858 21.215 25.0055 21.0839 24.9992 20.9526C24.993 20.8214 24.961 20.6927 24.905 20.5739L16.905 3.57386C16.8242 3.40206 16.6963 3.2568 16.536 3.15505C16.3757 3.0533 16.1898 2.99927 16 2.99927C15.8102 2.99927 15.6243 3.0533 15.464 3.15505C15.3037 3.2568 15.1758 3.40206 15.095 3.57386L7.095 20.5739C7.03898 20.6927 7.00692 20.8214 7.00066 20.9526C6.9944 21.0839 7.01406 21.2151 7.05853 21.3387C7.10299 21.4623 7.17137 21.576 7.25978 21.6732C7.34818 21.7704 7.45487 21.8492 7.57375 21.9051ZM16 6.34886L20.0713 15.0001H11.9288L16 6.34886ZM28 27.0001C28 27.2653 27.8946 27.5197 27.7071 27.7072C27.5196 27.8948 27.2652 28.0001 27 28.0001H5C4.73478 28.0001 4.48043 27.8948 4.29289 27.7072C4.10536 27.5197 4 27.2653 4 27.0001C4 26.7349 4.10536 26.4805 4.29289 26.293C4.48043 26.1055 4.73478 26.0001 5 26.0001H27C27.2652 26.0001 27.5196 26.1055 27.7071 26.293C27.8946 26.4805 28 26.7349 28 27.0001Z" fill="#222222"/>
</svg>
