<svg width="32" height="32" viewBox="0 0 32 32" fill="none" xmlns="http://www.w3.org/2000/svg">
<path d="M20.0004 27.0001C20.0004 27.2653 19.895 27.5197 19.7075 27.7072C19.5199 27.8947 19.2656 28.0001 19.0004 28.0001H13.0004C12.7351 28.0001 12.4808 27.8947 12.2933 27.7072C12.1057 27.5197 12.0004 27.2653 12.0004 27.0001C12.0004 26.7349 12.1057 26.4805 12.2933 26.293C12.4808 26.1054 12.7351 26.0001 13.0004 26.0001H19.0004C19.2656 26.0001 19.5199 26.1054 19.7075 26.293C19.895 26.4805 20.0004 26.7349 20.0004 27.0001ZM29.6004 23.5113L29.0179 22.5001C28.8853 22.2703 28.6668 22.1027 28.4106 22.034C28.1544 21.9653 27.8814 22.0012 27.6516 22.1338C27.4219 22.2664 27.2542 22.4849 27.1855 22.7411C27.1168 22.9973 27.1528 23.2703 27.2854 23.5001L27.8666 24.5113C27.9529 24.6575 27.9985 24.8241 27.9985 24.9938C27.9985 25.1636 27.9529 25.3302 27.8666 25.4763C27.7713 25.6389 27.6345 25.7732 27.4702 25.8654C27.3059 25.9577 27.12 26.0046 26.9316 26.0013H24.0004C23.7351 26.0013 23.4808 26.1067 23.2933 26.2942C23.1057 26.4818 23.0004 26.7361 23.0004 27.0013C23.0004 27.2665 23.1057 27.5209 23.2933 27.7084C23.4808 27.896 23.7351 28.0013 24.0004 28.0013H26.9316C27.4712 28.0066 28.0026 27.8683 28.4711 27.6005C28.9396 27.3328 29.3285 26.9452 29.5979 26.4776C29.8613 26.0278 30.0004 25.516 30.0008 24.9948C30.0013 24.4735 29.8631 23.9616 29.6004 23.5113ZM8.00036 26.0001H5.06911C4.88071 26.0033 4.69483 25.9564 4.53053 25.8642C4.36622 25.7719 4.22941 25.6376 4.13411 25.4751C4.04779 25.3289 4.00226 25.1623 4.00226 24.9926C4.00226 24.8228 4.04779 24.6562 4.13411 24.5101L4.71536 23.5001C4.78103 23.3863 4.82364 23.2607 4.84077 23.1305C4.8579 23.0003 4.84921 22.868 4.8152 22.7411C4.78119 22.6142 4.72252 22.4953 4.64255 22.3911C4.56258 22.2869 4.46287 22.1995 4.34911 22.1338C4.23536 22.0682 4.10978 22.0256 3.97955 22.0084C3.84933 21.9913 3.717 22 3.59014 22.034C3.46327 22.068 3.34434 22.1267 3.24015 22.2066C3.13595 22.2866 3.04853 22.3863 2.98286 22.5001L2.40036 23.5101C2.13753 23.9599 1.99902 24.4716 1.99902 24.9926C1.99902 25.5136 2.13753 26.0252 2.40036 26.4751C2.66977 26.9433 3.05898 27.3314 3.528 27.5994C3.99702 27.8674 4.52895 28.0057 5.06911 28.0001H8.00036C8.26558 28.0001 8.51993 27.8947 8.70747 27.7072C8.89501 27.5197 9.00036 27.2653 9.00036 27.0001C9.00036 26.7349 8.89501 26.4805 8.70747 26.293C8.51993 26.1054 8.26558 26.0001 8.00036 26.0001ZM25.2729 19.0001C25.4484 19.0001 25.6209 18.9539 25.7729 18.8662C25.925 18.7784 26.0513 18.6522 26.1391 18.5002C26.2269 18.3482 26.2731 18.1757 26.2731 18.0001C26.2731 17.8246 26.2269 17.6521 26.1391 17.5001L23.2641 12.5001C23.1315 12.2703 22.9131 12.1027 22.6568 12.034C22.4006 11.9653 22.1276 12.0012 21.8979 12.1338C21.6681 12.2664 21.5005 12.4849 21.4318 12.7411C21.3631 12.9973 21.399 13.2703 21.5316 13.5001L24.4066 18.5001C24.4944 18.6521 24.6207 18.7784 24.7727 18.8662C24.9248 18.9539 25.0973 19.0001 25.2729 19.0001ZM18.6691 4.52758C18.396 4.06249 18.006 3.67686 17.5379 3.40891C17.0698 3.14096 16.5397 3 16.0004 3C15.461 3 14.931 3.14096 14.4629 3.40891C13.9947 3.67686 13.6048 4.06249 13.3316 4.52758L11.6254 7.50008C11.4928 7.72983 11.4568 8.00284 11.5255 8.25906C11.5942 8.51528 11.7619 8.73372 11.9916 8.86633C12.2214 8.99894 12.4944 9.03485 12.7506 8.96617C13.0068 8.89748 13.2253 8.72983 13.3579 8.50008L15.0704 5.52758C15.1676 5.3658 15.305 5.23193 15.4693 5.13899C15.6336 5.04605 15.8191 4.9972 16.0079 4.9972C16.1966 4.9972 16.3821 5.04605 16.5464 5.13899C16.7107 5.23193 16.8481 5.3658 16.9454 5.52758L18.6479 8.50008C18.7358 8.65232 18.8622 8.77869 19.0145 8.86648C19.1668 8.95426 19.3396 9.00034 19.5154 9.00008C19.691 9.00069 19.8635 8.95452 20.0154 8.86633C20.2441 8.73272 20.4105 8.51381 20.4779 8.25767C20.5454 8.00152 20.5085 7.72906 20.3754 7.50008L18.6691 4.52758ZM10.1066 12.1338C9.877 12.0016 9.60427 11.9658 9.34833 12.0345C9.0924 12.1032 8.87418 12.2706 8.74161 12.5001L5.86661 17.5001C5.80095 17.6139 5.75836 17.7396 5.74126 17.8699C5.72416 18.0002 5.7329 18.1326 5.76696 18.2595C5.80103 18.3864 5.85976 18.5054 5.93981 18.6096C6.01986 18.7139 6.11965 18.8013 6.23349 18.867C6.34733 18.9326 6.47299 18.9752 6.60329 18.9923C6.73359 19.0094 6.86598 19.0007 6.99291 18.9666C7.11983 18.9325 7.23881 18.8738 7.34304 18.7938C7.44726 18.7137 7.5347 18.6139 7.60036 18.5001L10.4754 13.5001C10.5409 13.3862 10.5834 13.2605 10.6004 13.1301C10.6174 12.9998 10.6085 12.8674 10.5742 12.7405C10.54 12.6136 10.481 12.4947 10.4008 12.3906C10.3206 12.2865 10.2206 12.1993 10.1066 12.1338Z" fill="#222222"/>
</svg>
