<svg width="32" height="32" viewBox="0 0 32 32" fill="none" xmlns="http://www.w3.org/2000/svg">
<path d="M14.7725 26.6351C14.7588 26.6526 14.7425 26.6688 14.7275 26.6851L14.7075 26.7076L14.6863 26.7263C14.6697 26.7427 14.6521 26.7582 14.6338 26.7726C14.621 26.7837 14.6076 26.7941 14.5938 26.8038L14.5563 26.8313L14.5088 26.8601C14.4967 26.8679 14.4842 26.875 14.4713 26.8813L14.425 26.9051L14.3825 26.9238L14.3375 26.9401C14.3221 26.9466 14.3062 26.952 14.29 26.9563L14.245 26.9688C14.2275 26.9688 14.2125 26.9776 14.195 26.9801L14.1425 26.9888L14.0988 26.9951C14.0659 26.9969 14.0329 26.9969 14 26.9951H8.00001C7.73479 26.9951 7.48044 26.8897 7.2929 26.7022C7.10537 26.5146 7.00001 26.2603 7.00001 25.9951C7.00001 25.7298 7.10537 25.4755 7.2929 25.288C7.48044 25.1004 7.73479 24.9951 8.00001 24.9951H11.5863L6.87501 20.2926C6.59582 20.0139 6.37472 19.6825 6.22452 19.3178C6.07433 18.953 5.99801 18.562 6.00001 18.1676V11.8751C5.05735 11.6317 4.23582 11.0528 3.68941 10.2471C3.143 9.44127 2.90922 8.46387 3.03189 7.49806C3.15457 6.53224 3.62527 5.64433 4.35578 5.00074C5.08628 4.35715 6.02644 4.00208 7.00001 4.00208C7.97358 4.00208 8.91374 4.35715 9.64424 5.00074C10.3747 5.64433 10.8455 6.53224 10.9681 7.49806C11.0908 8.46387 10.857 9.44127 10.3106 10.2471C9.7642 11.0528 8.94267 11.6317 8.00001 11.8751V18.1726C8.00112 18.4361 8.10624 18.6886 8.29251 18.8751L13 23.5863V20.0001C13 19.7348 13.1054 19.4805 13.2929 19.293C13.4804 19.1054 13.7348 19.0001 14 19.0001C14.2652 19.0001 14.5196 19.1054 14.7071 19.293C14.8947 19.4805 15 19.7348 15 20.0001V26.0001C15.0019 26.0334 15.0019 26.0668 15 26.1001C15 26.1138 15 26.1263 15 26.1401C15 26.1538 15 26.1776 14.9913 26.1976C14.9886 26.2132 14.9848 26.2287 14.98 26.2438C14.98 26.2601 14.9725 26.2763 14.9675 26.2926C14.9625 26.3088 14.9575 26.3213 14.9525 26.3363L14.935 26.3851L14.9163 26.4238C14.9088 26.4401 14.9013 26.4576 14.8925 26.4738C14.8838 26.4901 14.8788 26.4963 14.8725 26.5088L14.8425 26.5576L14.8163 26.5926L14.7725 26.6351ZM26 20.1251V13.8288C26.002 13.4343 25.9257 13.0434 25.7755 12.6786C25.6253 12.3138 25.4042 11.9825 25.125 11.7038L20.4138 7.00006H24C24.2652 7.00006 24.5196 6.8947 24.7071 6.70717C24.8947 6.51963 25 6.26528 25 6.00006C25 5.73484 24.8947 5.48049 24.7071 5.29295C24.5196 5.10542 24.2652 5.00006 24 5.00006H17.9775H17.9025C17.885 5.00006 17.8675 5.00006 17.8513 5.00756H17.805L17.7513 5.02131L17.71 5.03131L17.66 5.04881L17.6175 5.06506L17.5738 5.08506L17.5288 5.10756C17.5154 5.11431 17.5025 5.12183 17.49 5.13006C17.475 5.13881 17.4588 5.14756 17.445 5.15756C17.4316 5.16643 17.4186 5.17603 17.4063 5.18631C17.3924 5.1956 17.3791 5.20562 17.3663 5.21631C17.3475 5.23131 17.3313 5.24631 17.3138 5.26256L17.2925 5.28131L17.2725 5.30381C17.2575 5.32006 17.2413 5.33631 17.2275 5.35381L17.195 5.39756L17.1688 5.43256L17.1388 5.48131C17.1325 5.49381 17.125 5.50506 17.1188 5.51631C17.1125 5.52756 17.1025 5.55006 17.095 5.56631L17.0763 5.60506L17.0588 5.65381C17.0588 5.66881 17.0475 5.68256 17.0438 5.69756C17.04 5.71256 17.035 5.73006 17.0313 5.74631C17.0265 5.76146 17.0227 5.77691 17.02 5.79256C17.02 5.81256 17.02 5.83131 17.0113 5.85006C17.0025 5.86881 17.0113 5.87631 17.005 5.89006C17.0031 5.92336 17.0031 5.95675 17.005 5.99006V12.0001C17.005 12.2653 17.1104 12.5196 17.2979 12.7072C17.4854 12.8947 17.7398 13.0001 18.005 13.0001C18.2702 13.0001 18.5246 12.8947 18.7121 12.7072C18.8997 12.5196 19.005 12.2653 19.005 12.0001V8.41381L23.7075 13.1251C23.8003 13.218 23.874 13.3283 23.9241 13.4497C23.9743 13.5711 24.0001 13.7012 24 13.8326V20.1251C23.0574 20.3685 22.2358 20.9473 21.6894 21.7531C21.143 22.5588 20.9092 23.5362 21.0319 24.5021C21.1546 25.4679 21.6253 26.3558 22.3558 26.9994C23.0863 27.643 24.0264 27.998 25 27.998C25.9736 27.998 26.9137 27.643 27.6442 26.9994C28.3747 26.3558 28.8455 25.4679 28.9681 24.5021C29.0908 23.5362 28.857 22.5588 28.3106 21.7531C27.7642 20.9473 26.9427 20.3685 26 20.1251Z" fill="#222222"/>
</svg>
