<svg width="32" height="32" viewBox="0 0 32 32" fill="none" xmlns="http://www.w3.org/2000/svg">
<path d="M6.26899 20L11.134 11.5713L10.854 11.0863C10.4354 10.384 10.1648 9.60372 10.0587 8.79316C9.95257 7.9826 10.0132 7.1589 10.2369 6.37262C10.4606 5.58634 10.8425 4.85405 11.3594 4.22071C11.8763 3.58736 12.5171 3.06632 13.2426 2.68955C13.968 2.31278 14.7629 2.08823 15.5782 2.02969C16.3936 1.97115 17.2124 2.07984 17.9842 2.3491C18.7561 2.61837 19.4648 3.04252 20.0668 3.59553C20.6689 4.14854 21.1515 4.81874 21.4852 5.565C21.59 5.79285 21.6072 6.05127 21.5337 6.29102C21.4601 6.53076 21.301 6.73507 21.0865 6.865C20.9646 6.9358 20.8291 6.98001 20.6888 6.99474C20.5486 7.00947 20.4069 6.99439 20.2729 6.95048C20.1389 6.90657 20.0157 6.83482 19.9115 6.73995C19.8072 6.64508 19.7241 6.52923 19.6677 6.4C19.447 5.90119 19.1267 5.45279 18.7263 5.08236C18.3259 4.71194 17.854 4.42731 17.3396 4.24598C16.8251 4.06465 16.279 3.99045 15.7349 4.02794C15.1907 4.06543 14.66 4.21381 14.1753 4.46398C13.6906 4.71414 13.2621 5.0608 12.9163 5.48263C12.5705 5.90447 12.3147 6.39257 12.1645 6.91693C12.0143 7.4413 11.9729 7.99084 12.0429 8.53179C12.1129 9.07273 12.2928 9.59364 12.5715 10.0625C12.5755 10.0674 12.5789 10.0729 12.5815 10.0788L14.3102 13.0713C14.398 13.2233 14.4442 13.3957 14.4442 13.5713C14.4442 13.7468 14.398 13.9192 14.3102 14.0713L9.73274 22C9.46404 22.4524 9.0279 22.7806 8.51883 22.9137C8.00976 23.0467 7.46878 22.9737 7.01313 22.7106C6.55747 22.4475 6.22385 22.0155 6.08456 21.5081C5.94527 21.0007 6.01153 20.4589 6.26899 20ZM23.894 15H22.3515L17.7327 7C17.464 6.54763 17.0279 6.21936 16.5188 6.08634C16.0098 5.95332 15.4688 6.02627 15.0131 6.28937C14.5575 6.55247 14.2239 6.98453 14.0846 7.49191C13.9453 7.9993 14.0115 8.54114 14.269 9L18.599 16.5C18.6867 16.6519 18.8127 16.778 18.9646 16.8658C19.1164 16.9535 19.2886 16.9998 19.464 17H23.9177C26.154 17 28.0365 18.83 28.0002 21.0663C27.983 22.1089 27.5593 23.1036 26.8193 23.8384C26.0794 24.5733 25.0818 24.99 24.039 25C23.7835 24.9969 23.536 25.089 23.3447 25.2584C23.1534 25.4278 23.0319 25.6623 23.004 25.9163C22.9924 26.0544 23.0096 26.1935 23.0547 26.3247C23.0997 26.4559 23.1715 26.5762 23.2655 26.6781C23.3596 26.7801 23.4738 26.8613 23.6009 26.9167C23.7281 26.9721 23.8653 27.0005 24.004 27C24.8016 26.9993 25.591 26.8398 26.3263 26.5307C27.0615 26.2216 27.7278 25.7692 28.2864 25.1999C28.8449 24.6305 29.2844 23.9556 29.5793 23.2146C29.8742 22.4735 30.0186 21.6812 30.004 20.8838C29.9365 17.5988 27.1852 15 23.899 15H23.894ZM26.0002 20.9038C25.9502 19.8275 25.0227 19 23.9465 19H14.3515C14.1759 19 14.0034 19.0462 13.8514 19.1339C13.6993 19.2217 13.573 19.3479 13.4852 19.5L11.4652 23C11.1926 23.4702 10.827 23.8798 10.3908 24.204C9.95452 24.5281 9.4568 24.76 8.92798 24.8854C8.39916 25.0108 7.85033 25.0271 7.31499 24.9334C6.77964 24.8396 6.26902 24.6378 5.81429 24.3401C5.35956 24.0425 4.97026 23.6553 4.67014 23.2021C4.37003 22.749 4.1654 22.2395 4.06875 21.7047C3.9721 21.1699 3.98545 20.6209 4.108 20.0914C4.23054 19.562 4.4597 19.063 4.78149 18.625C4.93692 18.4226 5.01127 18.1695 4.99 17.9153C4.96873 17.661 4.85338 17.4238 4.66649 17.25C4.56317 17.1579 4.44187 17.0883 4.31026 17.0456C4.17864 17.0028 4.03959 16.9878 3.90189 17.0016C3.76419 17.0153 3.63084 17.0575 3.51028 17.1254C3.38972 17.1934 3.28457 17.2856 3.20149 17.3963C2.43013 18.4184 2.00887 19.662 2.00024 20.9425C1.98837 22.2675 2.41543 23.5591 3.21479 24.6159C4.01415 25.6727 5.14084 26.4351 6.41905 26.7842C7.69727 27.1334 9.0551 27.0496 10.2807 26.5459C11.5063 26.0422 12.5306 25.147 13.194 24L13.7715 23H24.0002C24.2712 23.0003 24.5394 22.9456 24.7885 22.8391C25.0377 22.7326 25.2626 22.5766 25.4496 22.3806C25.6366 22.1846 25.7819 21.9526 25.8765 21.6987C25.9712 21.4448 26.0133 21.1744 26.0002 20.9038Z" fill="#222222"/>
</svg>
