<svg width="32" height="32" viewBox="0 0 32 32" fill="none" xmlns="http://www.w3.org/2000/svg">
<path d="M15.9996 14C14.8129 14 13.6529 14.3519 12.6662 15.0112C11.6795 15.6705 10.9105 16.6075 10.4563 17.7039C10.0022 18.8003 9.8834 20.0067 10.1149 21.1705C10.3464 22.3344 10.9179 23.4035 11.757 24.2426C12.5961 25.0818 13.6652 25.6532 14.8291 25.8847C15.993 26.1162 17.1994 25.9974 18.2957 25.5433C19.3921 25.0891 20.3292 24.3201 20.9884 23.3334C21.6477 22.3467 21.9996 21.1867 21.9996 20C21.998 18.4092 21.3653 16.884 20.2404 15.7592C19.1156 14.6343 17.5904 14.0017 15.9996 14ZM15.9996 24C15.2085 24 14.4351 23.7654 13.7773 23.3259C13.1195 22.8863 12.6069 22.2616 12.3041 21.5307C12.0014 20.7998 11.9221 19.9956 12.0765 19.2196C12.2308 18.4437 12.6118 17.731 13.1712 17.1716C13.7306 16.6122 14.4433 16.2312 15.2193 16.0769C15.9952 15.9225 16.7995 16.0017 17.5304 16.3045C18.2613 16.6072 18.886 17.1199 19.3255 17.7777C19.765 18.4355 19.9996 19.2089 19.9996 20C19.9996 21.0609 19.5782 22.0783 18.8281 22.8284C18.0779 23.5786 17.0605 24 15.9996 24ZM26.3746 16.3325L22.6496 5.80875C22.193 4.42099 21.3136 3.21089 20.1347 2.34802C18.9558 1.48514 17.5365 1.01275 16.0756 0.99704C14.6147 0.981329 13.1856 1.42309 11.9884 2.26041C10.7912 3.09772 9.88599 4.28864 9.39962 5.66625L5.71087 16.1037C5.08554 17.7589 4.86871 19.5406 5.07879 21.2974C5.28887 23.0543 5.91966 24.7346 6.91763 26.1956C7.91561 27.6567 9.25131 28.8555 10.8114 29.6903C12.3715 30.525 14.1099 30.9711 15.8792 30.9907C17.6485 31.0103 19.3964 30.6028 20.9746 29.8028C22.5528 29.0028 23.9147 27.8338 24.9448 26.3952C25.9748 24.9566 26.6427 23.2907 26.8916 21.5389C27.1405 19.7871 26.9632 18.0011 26.3746 16.3325ZM15.9996 29C14.5424 28.999 13.1072 28.6444 11.8171 27.9667C10.5271 27.289 9.42078 26.3083 8.59312 25.109C7.76547 23.9096 7.24121 22.5273 7.06534 21.0807C6.88946 19.6341 7.06723 18.1665 7.58337 16.8037C7.58575 16.796 7.58867 16.7885 7.59212 16.7812L11.2846 6.3325C11.6322 5.34761 12.2794 4.49627 13.1354 3.89798C13.9915 3.2997 15.0134 2.9845 16.0578 2.99663C17.1021 3.00877 18.1164 3.34762 18.9584 3.96564C19.8003 4.58365 20.4276 5.4498 20.7521 6.4425L20.7596 6.465L24.4871 17C24.9656 18.3577 25.1117 19.8102 24.9132 21.236C24.7146 22.6618 24.1772 24.0192 23.3459 25.1944C22.5147 26.3697 21.4138 27.3286 20.1356 27.9907C18.8574 28.6528 17.4391 28.9989 15.9996 29Z" fill="#343330"/>
</svg>
