<svg width="32" height="32" viewBox="0 0 32 32" fill="none" xmlns="http://www.w3.org/2000/svg">
<path d="M31.8935 12.215C31.7738 11.8586 31.5561 11.5432 31.2654 11.3048C30.9747 11.0665 30.6226 10.9149 30.2497 10.8675C27.9678 10.5609 25.7716 9.79554 23.7935 8.6175L25.0822 7.33C25.6252 6.73619 25.9181 5.95583 25.9002 5.15141C25.8822 4.347 25.5546 3.58052 24.9856 3.01157C24.4167 2.44262 23.6502 2.11504 22.8458 2.09706C22.0414 2.07907 21.261 2.37205 20.6672 2.915L19.0172 4.56625C18.726 4.21625 18.541 3.96125 18.466 3.855C18.2986 3.61587 18.0809 3.41627 17.8281 3.27022C17.5754 3.12418 17.2937 3.03523 17.003 3.00962C16.7122 2.98401 16.4193 3.02236 16.1449 3.12197C15.8706 3.22159 15.6213 3.38006 15.4147 3.58625L10.5847 8.42C10.3787 8.62652 10.2203 8.87562 10.1207 9.14982C10.0211 9.42402 9.98274 9.71669 10.0082 10.0073C10.0337 10.2979 10.1225 10.5794 10.2683 10.8321C10.4141 11.0848 10.6134 11.3025 10.8522 11.47C10.9597 11.545 11.2147 11.73 11.5647 12.0213L0.913454 22.6713C0.370504 23.2651 0.0775207 24.0454 0.0955084 24.8498C0.113496 25.6543 0.441068 26.4207 1.01002 26.9897C1.57897 27.5586 2.34545 27.8862 3.14987 27.9042C3.95428 27.9222 4.73464 27.6292 5.32845 27.0863L15.616 16.7975C16.7935 18.7759 17.5588 20.972 17.866 23.2538C17.9139 23.6259 18.0656 23.977 18.3037 24.267C18.5417 24.557 18.8566 24.7742 19.2122 24.8938C19.4196 24.9637 19.637 24.9996 19.856 25C20.1176 24.9999 20.3767 24.948 20.6182 24.8474C20.8598 24.7468 21.0791 24.5994 21.2635 24.4138L31.411 14.265C31.6758 14.0031 31.8616 13.6719 31.9469 13.3094C32.0323 12.9468 32.0137 12.5675 31.8935 12.215ZM22.086 4.32875C22.1863 4.20933 22.3103 4.11206 22.4502 4.04313C22.5901 3.9742 22.7428 3.93511 22.8986 3.92835C23.0544 3.92158 23.2099 3.94728 23.3553 4.00383C23.5006 4.06037 23.6326 4.14651 23.7429 4.25679C23.8532 4.36707 23.9393 4.49908 23.9959 4.64442C24.0524 4.78977 24.0781 4.94529 24.0714 5.1011C24.0646 5.25691 24.0255 5.40961 23.9566 5.54951C23.8876 5.68941 23.7904 5.81345 23.671 5.91375L22.1022 7.4825C21.5024 7.03127 20.9297 6.54501 20.3872 6.02625L22.086 4.32875ZM3.91345 25.6713C3.81315 25.7907 3.68911 25.8879 3.54921 25.9569C3.40931 26.0258 3.25661 26.0649 3.1008 26.0717C2.94499 26.0784 2.78947 26.0527 2.64412 25.9962C2.49878 25.9396 2.36677 25.8535 2.25649 25.7432C2.14621 25.6329 2.06007 25.5009 2.00353 25.3556C1.94698 25.2102 1.92128 25.0547 1.92805 24.8989C1.93481 24.7431 1.9739 24.5904 2.04283 24.4505C2.11176 24.3106 2.20903 24.1866 2.32845 24.0863L13.026 13.3888C13.545 13.9305 14.0313 14.5028 14.4822 15.1025L3.91345 25.6713ZM19.8497 22.99C18.7497 14.7863 12.6897 10.315 11.9997 9.83375L16.8322 5C17.3147 5.6875 21.786 11.75 29.9885 12.8475L19.8497 22.99Z" fill="#222222"/>
</svg>
