<svg width="32" height="32" viewBox="0 0 32 32" fill="none" xmlns="http://www.w3.org/2000/svg">
<path d="M29.0005 8H25.4142L28.708 4.7075C28.8009 4.61459 28.8746 4.50429 28.9249 4.3829C28.9752 4.2615 29.001 4.13139 29.001 4C29.001 3.86861 28.9752 3.7385 28.9249 3.6171C28.8746 3.49571 28.8009 3.38541 28.708 3.2925C28.6151 3.19959 28.5048 3.12589 28.3834 3.07561C28.262 3.02532 28.1319 2.99944 28.0005 2.99944C27.8691 2.99944 27.739 3.02532 27.6176 3.07561C27.4962 3.12589 27.3859 3.19959 27.293 3.2925L24.0005 6.58625V3C24.0005 2.73478 23.8951 2.48043 23.7076 2.29289C23.52 2.10536 23.2657 2 23.0005 2C22.7353 2 22.4809 2.10536 22.2934 2.29289C22.1058 2.48043 22.0005 2.73478 22.0005 3V7.07125C20.4767 6.1916 18.7055 5.83881 16.961 6.0675C15.2165 6.29618 13.596 7.09358 12.3505 8.33625C7.33798 13.26 3.56923 24.9713 3.20173 26.1425C3.02846 26.5144 2.97377 26.9307 3.0451 27.3347C3.11642 27.7388 3.3103 28.1112 3.60044 28.4013C3.89057 28.6914 4.26293 28.8853 4.667 28.9566C5.07106 29.028 5.48729 28.9733 5.85923 28.8C7.03048 28.4325 18.7567 24.6588 23.668 19.6488C24.9098 18.4029 25.7063 16.7824 25.9343 15.0382C26.1623 13.294 25.809 11.5232 24.9292 10H29.0005C29.2657 10 29.52 9.89464 29.7076 9.70711C29.8951 9.51957 30.0005 9.26522 30.0005 9C30.0005 8.73478 29.8951 8.48043 29.7076 8.29289C29.52 8.10536 29.2657 8 29.0005 8ZM22.2355 18.25C21.118 19.39 19.5792 20.475 17.8792 21.4662L14.7067 18.2925C14.6138 18.1996 14.5035 18.1259 14.3821 18.0756C14.2607 18.0253 14.1306 17.9994 13.9992 17.9994C13.8678 17.9994 13.7377 18.0253 13.6163 18.0756C13.4949 18.1259 13.3846 18.1996 13.2917 18.2925C13.1988 18.3854 13.1251 18.4957 13.0748 18.6171C13.0246 18.7385 12.9987 18.8686 12.9987 19C12.9987 19.1314 13.0246 19.2615 13.0748 19.3829C13.1251 19.5043 13.1988 19.6146 13.2917 19.7075L16.053 22.4688C10.9442 25.1175 5.26298 26.8962 5.17798 26.9225C5.11642 26.9425 5.05697 26.9684 5.00048 27C5.03068 26.9438 5.05538 26.8847 5.07423 26.8237C5.11048 26.7075 8.57423 15.6262 13.0742 10.49L17.2955 14.7113C17.4831 14.8989 17.7376 15.0043 18.003 15.0043C18.2683 15.0043 18.5228 14.8989 18.7105 14.7113C18.8981 14.5236 19.0035 14.2691 19.0035 14.0037C19.0035 13.7384 18.8981 13.4839 18.7105 13.2963L14.523 9.11C15.7498 8.23709 17.2601 7.85737 18.7539 8.04622C20.2477 8.23507 21.6159 8.97867 22.587 10.1294C23.558 11.2802 24.0609 12.754 23.9958 14.2583C23.9306 15.7626 23.3023 17.1874 22.2355 18.25Z" fill="#222222"/>
</svg>
