<svg width="32" height="32" viewBox="0 0 32 32" fill="none" xmlns="http://www.w3.org/2000/svg">
<path d="M26.4684 5.53124C24.3747 3.43374 21.2959 2.59874 17.8072 3.17999C14.4434 3.74124 11.0734 5.56624 8.31967 8.31999C5.56592 11.0737 3.74092 14.445 3.17967 17.8075C2.59842 21.2962 3.42967 24.3712 5.53092 26.4687C7.19217 28.1312 9.46842 29 12.0772 29C12.7859 28.9979 13.4933 28.9377 14.1922 28.82C17.5559 28.2587 20.9259 26.4337 23.6797 23.68C26.4334 20.9262 28.2584 17.555 28.8197 14.1925C29.4009 10.7037 28.5659 7.62499 26.4684 5.53124ZM9.73342 9.73374C12.8197 6.64874 16.6247 4.99124 19.8934 4.99124C21.1514 4.97207 22.3952 5.25815 23.5184 5.82499C22.1175 6.31373 20.8064 7.02908 19.6372 7.94249C17.2372 9.83749 15.6834 12.4825 15.0197 15.8037C13.8047 21.8762 9.43217 23.9512 6.58467 24.6587C3.58842 21.095 4.92467 14.5437 9.73342 9.73374ZM22.2659 22.2662C17.9297 26.6012 12.1772 28.1137 8.47592 26.175C9.87834 25.6862 11.1912 24.9709 12.3622 24.0575C14.7622 22.1625 16.3159 19.5175 16.9797 16.1962C18.1947 10.1237 22.5672 8.04874 25.4147 7.34124C28.4109 10.905 27.0747 17.4562 22.2659 22.2662Z" fill="#222222"/>
</svg>
