<svg width="32" height="32" viewBox="0 0 32 32" fill="none" xmlns="http://www.w3.org/2000/svg">
<path d="M29.1252 16.875C28.8224 15.7438 28.2589 14.6993 27.4799 13.825C26.7009 12.9508 25.728 12.271 24.6391 11.8403C23.5502 11.4096 22.3756 11.2398 21.2093 11.3446C20.043 11.4494 18.9174 11.8258 17.9227 12.4437L19.9715 4.26372C20.0223 4.06049 20.008 3.84643 19.9306 3.65175C19.8533 3.45707 19.7167 3.29161 19.5402 3.17872C18.6897 2.64166 17.7399 2.28118 16.7472 2.11873C15.7545 1.95627 14.7393 1.99516 13.7619 2.23308C12.7846 2.471 11.8651 2.90308 11.0581 3.50363C10.2512 4.10418 9.57331 4.86091 9.0648 5.7288C8.5563 6.59669 8.22757 7.558 8.09818 8.55553C7.96879 9.55306 8.04139 10.5664 8.31164 11.5353C8.5819 12.5042 9.0443 13.4089 9.67132 14.1954C10.2983 14.982 11.0772 15.6343 11.9615 16.1137L3.85273 18.43C3.65128 18.4873 3.47293 18.6065 3.34285 18.7707C3.21277 18.9349 3.13752 19.1357 3.12773 19.345C3.05077 21.0524 3.55927 22.7348 4.56904 24.1138C5.57881 25.4927 7.02927 26.4854 8.68023 26.9275C9.31701 27.0984 9.9734 27.1854 10.6327 27.1862C11.6374 27.1836 12.6314 26.9793 13.5557 26.5855C14.48 26.1918 15.3159 25.6165 16.0139 24.8938C16.7118 24.1712 17.2577 23.3158 17.6191 22.3783C17.9804 21.4408 18.15 20.4404 18.1177 19.4362L24.1777 25.3012C24.3284 25.447 24.5212 25.5418 24.7286 25.572C24.9361 25.6023 25.1479 25.5666 25.334 25.47C26.8503 24.6833 28.0525 23.4025 28.742 21.8396C29.4314 20.2766 29.5666 18.5252 29.1252 16.875ZM14.0002 16C14.0002 15.6044 14.1175 15.2177 14.3373 14.8888C14.5571 14.5599 14.8694 14.3036 15.2349 14.1522C15.6003 14.0008 16.0024 13.9612 16.3904 14.0384C16.7784 14.1156 17.1347 14.3061 17.4144 14.5858C17.6941 14.8655 17.8846 15.2218 17.9618 15.6098C18.039 15.9978 17.9994 16.3999 17.848 16.7653C17.6966 17.1308 17.4403 17.4431 17.1114 17.6629C16.7825 17.8827 16.3958 18 16.0002 18C15.4698 18 14.9611 17.7893 14.586 17.4142C14.2109 17.0391 14.0002 16.5304 14.0002 16ZM10.0002 9.49997C9.99991 8.57321 10.2338 7.6614 10.6801 6.84921C11.1265 6.03701 11.7708 5.35077 12.5533 4.85421C13.3358 4.35765 14.2311 4.06687 15.156 4.00888C16.081 3.95088 17.0056 4.12755 17.844 4.52247L15.9715 12C15.255 12.0053 14.5531 12.2031 13.9392 12.5725C13.3252 12.9419 12.8218 13.4694 12.4815 14.1C11.7176 13.6004 11.0906 12.918 10.6573 12.1148C10.224 11.3115 9.99813 10.4127 10.0002 9.49997ZM13.3752 24.4462C12.5728 24.9099 11.6663 25.1632 10.7397 25.1828C9.81322 25.2024 8.89678 24.9875 8.07551 24.5582C7.25423 24.1288 6.55476 23.4989 6.04204 22.727C5.52932 21.955 5.21997 21.066 5.14273 20.1425L12.5565 18.025C12.909 18.6254 13.4121 19.1235 14.016 19.4698C14.62 19.8162 15.304 19.999 16.0002 20H16.114C16.0637 20.9105 15.7868 21.794 15.3086 22.5705C14.8303 23.3469 14.1658 23.9917 13.3752 24.4462ZM26.6465 21.5712C26.2419 22.2731 25.6869 22.8767 25.0215 23.3387L19.4815 17.9775C19.836 17.3548 20.0162 16.6481 20.0032 15.9317C19.9903 15.2153 19.7846 14.5156 19.4077 13.9062C20.4654 13.3723 21.6673 13.1942 22.8344 13.3984C24.0015 13.6026 25.0715 14.1783 25.885 15.0398C26.6985 15.9012 27.2121 17.0023 27.3493 18.1792C27.4865 19.356 27.24 20.5458 26.6465 21.5712Z" fill="#222222"/>
</svg>
