<svg width="32" height="32" viewBox="0 0 32 32" fill="none" xmlns="http://www.w3.org/2000/svg">
<path d="M6.74025 4.32751C6.65243 4.22852 6.54584 4.14794 6.42665 4.09045C6.30746 4.03296 6.17805 3.99969 6.04591 3.99258C5.91377 3.98547 5.78153 4.00466 5.65686 4.04904C5.53219 4.09341 5.41757 4.16209 5.31964 4.25108C5.22171 4.34008 5.14241 4.44763 5.08635 4.5675C5.03029 4.68737 4.99858 4.81718 4.99306 4.94939C4.98754 5.08161 5.00831 5.21361 5.05417 5.33773C5.10004 5.46186 5.17008 5.57565 5.26025 5.67251L6.4765 7.01126C6.31817 7.00376 6.15942 7.00001 6.00025 7.00001C5.73503 7.00001 5.48068 7.10537 5.29314 7.2929C5.10561 7.48044 5.00025 7.73479 5.00025 8.00001V18C5.00356 20.9164 6.16355 23.7123 8.22573 25.7745C10.2879 27.8367 13.0839 28.9967 16.0003 29C18.8565 29.0022 21.6012 27.8911 23.6515 25.9025L25.2603 27.6725C25.3481 27.7715 25.4547 27.8521 25.5739 27.9096C25.693 27.9671 25.8225 28.0003 25.9546 28.0074C26.0867 28.0145 26.219 27.9954 26.3436 27.951C26.4683 27.9066 26.5829 27.8379 26.6809 27.7489C26.7788 27.6599 26.8581 27.5524 26.9141 27.4325C26.9702 27.3126 27.0019 27.1828 27.0074 27.0506C27.013 26.9184 26.9922 26.7864 26.9463 26.6623C26.9005 26.5382 26.8304 26.4244 26.7403 26.3275L6.74025 4.32751ZM17.0365 18.625C16.6354 19.1899 16.2884 19.7913 16.0003 20.4213C15.1924 18.6617 13.9351 17.146 12.3552 16.0268C10.7752 14.9077 8.92822 14.2246 7.00025 14.0463V9.05501C7.55903 9.11738 8.11065 9.23247 8.64775 9.39876L17.0365 18.625ZM15.0003 26.945C12.8011 26.6964 10.7703 25.6473 9.29498 23.9976C7.81962 22.348 7.00282 20.2132 7.00025 18V16.055C9.19939 16.3036 11.2302 17.3528 12.7055 19.0024C14.1809 20.652 14.9977 22.7869 15.0003 25V26.945ZM17.0003 26.945V25C17.0011 23.2806 17.4938 21.5973 18.4203 20.1488L22.3053 24.4225C20.8697 25.8342 19.0013 26.7226 17.0003 26.945ZM27.0003 18C27.0008 18.9883 26.8684 19.9721 26.6065 20.925C26.5485 21.1361 26.4228 21.3224 26.2487 21.4552C26.0746 21.5879 25.8617 21.6599 25.6428 21.66C25.5524 21.6608 25.4624 21.649 25.3753 21.625C25.1197 21.5546 24.9026 21.3857 24.7716 21.1553C24.6405 20.9249 24.6064 20.6519 24.6765 20.3963C24.8909 19.6155 24.9998 18.8096 25.0003 18V16.0538C23.9298 16.1706 22.8896 16.4811 21.9303 16.97C21.8128 17.0342 21.6836 17.0742 21.5504 17.0875C21.4172 17.1008 21.2827 17.0873 21.1548 17.0477C21.0269 17.0081 20.9083 16.9432 20.806 16.8568C20.7036 16.7705 20.6197 16.6645 20.5591 16.5452C20.4985 16.4258 20.4625 16.2955 20.4532 16.1619C20.4439 16.0284 20.4615 15.8943 20.5049 15.7677C20.5484 15.6411 20.6169 15.5245 20.7063 15.4248C20.7956 15.3252 20.9041 15.2445 21.0253 15.1875C22.2646 14.5549 23.6142 14.167 25.0003 14.045V9.05626C23.754 9.19797 22.5509 9.59743 21.4673 10.2293C20.3838 10.8611 19.4436 11.7114 18.7065 12.7263C18.6294 12.833 18.5321 12.9234 18.4201 12.9925C18.308 13.0616 18.1835 13.1079 18.0535 13.1289C17.9236 13.1498 17.7908 13.145 17.6627 13.1146C17.5347 13.0843 17.4138 13.029 17.3071 12.9519C17.2004 12.8748 17.11 12.7775 17.0409 12.6655C16.9718 12.5534 16.9254 12.4289 16.9045 12.2989C16.8835 12.169 16.8884 12.0362 16.9188 11.9081C16.9491 11.78 17.0044 11.6592 17.0815 11.5525C17.9291 10.3852 18.9976 9.39561 20.2265 8.64001C19.0778 6.22501 16.9315 4.71751 16.0003 4.15001C14.9028 4.82543 13.9162 5.66616 13.0753 6.64251C12.9918 6.74701 12.8883 6.83371 12.7708 6.8975C12.6532 6.96128 12.5241 7.00084 12.391 7.01385C12.258 7.02686 12.1236 7.01305 11.996 6.97323C11.8683 6.93341 11.75 6.86839 11.6479 6.78203C11.5458 6.69566 11.4621 6.5897 11.4017 6.47041C11.3412 6.35113 11.3054 6.22093 11.2961 6.08753C11.2869 5.95414 11.3045 5.82025 11.348 5.69378C11.3914 5.56732 11.4598 5.45085 11.549 5.35126C12.6704 4.03039 14.0265 2.92849 15.549 2.10126C15.6879 2.03174 15.8411 1.99554 15.9965 1.99554C16.1519 1.99554 16.3051 2.03174 16.444 2.10126C16.609 2.18376 20.2278 4.03001 22.0178 7.74501C23.2876 7.25198 24.6381 6.99936 26.0003 7.00001C26.2655 7.00001 26.5198 7.10537 26.7074 7.2929C26.8949 7.48044 27.0003 7.73479 27.0003 8.00001V18Z" fill="#222222"/>
</svg>
