<svg width="32" height="32" viewBox="0 0 32 32" fill="none" xmlns="http://www.w3.org/2000/svg">
<path d="M30.9183 18.6063L24.9183 4.60625C24.8412 4.4264 24.7131 4.2731 24.5498 4.16534C24.3865 4.05758 24.1952 4.00009 23.9995 4H7.99953C7.80388 4.00009 7.61254 4.05758 7.44924 4.16534C7.28593 4.2731 7.15782 4.4264 7.08078 4.60625L1.08078 18.6063C1.01565 18.7583 0.989251 18.9242 1.00396 19.0889C1.01867 19.2537 1.07403 19.4123 1.16508 19.5504C1.25613 19.6885 1.38002 19.8019 1.52565 19.8803C1.67128 19.9588 1.83411 19.9999 1.99953 20H14.9995V26H11.9995C11.7343 26 11.48 26.1054 11.2924 26.2929C11.1049 26.4804 10.9995 26.7348 10.9995 27C10.9995 27.2652 11.1049 27.5196 11.2924 27.7071C11.48 27.8946 11.7343 28 11.9995 28H19.9995C20.2647 28 20.5191 27.8946 20.7066 27.7071C20.8942 27.5196 20.9995 27.2652 20.9995 27C20.9995 26.7348 20.8942 26.4804 20.7066 26.2929C20.5191 26.1054 20.2647 26 19.9995 26H16.9995V20H23.9995V24C23.9995 24.2652 24.1049 24.5196 24.2924 24.7071C24.48 24.8946 24.7343 25 24.9995 25C25.2647 25 25.5191 24.8946 25.7066 24.7071C25.8942 24.5196 25.9995 24.2652 25.9995 24V20H29.9995C30.165 19.9999 30.3278 19.9588 30.4734 19.8803C30.619 19.8019 30.7429 19.6885 30.834 19.5504C30.925 19.4123 30.9804 19.2537 30.9951 19.0889C31.0098 18.9242 30.9834 18.7583 30.9183 18.6063ZM3.51578 18L8.65953 6H23.3395L28.4833 18H3.51578Z" fill="#222222"/>
</svg>
