<svg width="32" height="32" viewBox="0 0 32 32" fill="none" xmlns="http://www.w3.org/2000/svg">
<path d="M28.9408 18.3212L21.9595 6.33249L21.9458 6.30874C21.3176 5.29743 20.4419 4.46304 19.4014 3.88447C18.3609 3.3059 17.19 3.00226 15.9995 3.00226C14.809 3.00226 13.6381 3.3059 12.5977 3.88447C11.5572 4.46304 10.6814 5.29743 10.0533 6.30874L10.0395 6.33249L3.05827 18.3212C2.40337 19.3814 2.04336 20.5973 2.01543 21.8431C1.9875 23.089 2.29267 24.3197 2.89941 25.4082C3.50614 26.4967 4.39246 27.4034 5.46681 28.0349C6.54117 28.6663 7.7646 28.9995 9.01077 29H22.9883C24.2344 28.9995 25.4579 28.6663 26.5322 28.0349C27.6066 27.4034 28.4929 26.4967 29.0996 25.4082C29.7064 24.3197 30.0115 23.089 29.9836 21.8431C29.9557 20.5973 29.5957 19.3814 28.9408 18.3212ZM19.9995 27H11.9995V21H19.9995V27ZM27.357 24.4312C26.929 25.2143 26.2968 25.8667 25.5275 26.3191C24.7582 26.7714 23.8807 27.0067 22.9883 27H21.9995V21C21.9995 20.4696 21.7888 19.9608 21.4137 19.5858C21.0387 19.2107 20.53 19 19.9995 19H11.9995C11.4691 19 10.9604 19.2107 10.5853 19.5858C10.2102 19.9608 9.99952 20.4696 9.99952 21V27H9.01077C8.1195 27.0002 7.24436 26.7623 6.47596 26.3107C5.70755 25.8591 5.07383 25.2103 4.64039 24.4315C4.20696 23.6528 3.98957 22.7723 4.01073 21.8813C4.0319 20.9902 4.29085 20.1211 4.76077 19.3637C4.76583 19.3557 4.77042 19.3473 4.77452 19.3387L11.7558 7.35124C12.2052 6.63211 12.8302 6.03911 13.5719 5.62801C14.3136 5.21691 15.1477 5.00122 15.9958 5.00122C16.8438 5.00122 17.6779 5.21691 18.4196 5.62801C19.1613 6.03911 19.7863 6.63211 20.2358 7.35124L27.217 19.3387C27.2211 19.3473 27.2257 19.3557 27.2308 19.3637C27.7077 20.1182 27.9712 20.9879 27.9932 21.8802C28.0152 22.7725 27.7949 23.6541 27.3558 24.4312H27.357Z" fill="#222222"/>
</svg>
