<svg width="32" height="32" viewBox="0 0 32 32" fill="none" xmlns="http://www.w3.org/2000/svg">
<path d="M27.9847 26.75L25.2347 4.75C25.1738 4.26657 24.9385 3.822 24.573 3.49977C24.2075 3.17755 23.737 2.99983 23.2497 3H8.74971C8.26246 2.99983 7.7919 3.17755 7.42641 3.49977C7.06091 3.822 6.82562 4.26657 6.76471 4.75L4.01471 26.75C3.97923 27.0316 4.00409 27.3175 4.08764 27.5887C4.17118 27.86 4.31149 28.1103 4.49925 28.3231C4.68701 28.536 4.91791 28.7064 5.17662 28.8231C5.43532 28.9398 5.7159 29.0001 5.99971 29H11.086C11.5307 29.0001 11.9628 28.8519 12.314 28.5789C12.6651 28.3059 12.9152 27.9236 13.0247 27.4925L15.9997 15.9925L18.9735 27.485C19.0816 27.9177 19.3313 28.3018 19.6828 28.5763C20.0343 28.8508 20.4675 28.9999 20.9135 29H25.9997C26.2835 29.0001 26.5641 28.9398 26.8228 28.8231C27.0815 28.7064 27.3124 28.536 27.5002 28.3231C27.6879 28.1103 27.8282 27.86 27.9118 27.5887C27.9953 27.3175 28.0202 27.0316 27.9847 26.75ZM24.1122 11.9C23.3968 11.7358 22.74 11.3786 22.2133 10.8674C21.6866 10.3561 21.3101 9.71024 21.1247 9H23.7497L24.1122 11.9ZM23.2497 5L23.4997 7H8.49971L8.74971 5H23.2497ZM8.24971 9H10.8747C10.6893 9.71024 10.3128 10.3561 9.78609 10.8674C9.25939 11.3786 8.60264 11.7358 7.88721 11.9L8.24971 9ZM11.086 27H5.99971L7.62471 13.9663C8.92718 13.828 10.1488 13.268 11.1037 12.3715C12.0586 11.475 12.6946 10.2912 12.9147 9H14.9997V11.875L11.086 27ZM20.911 26.9925L16.9997 11.875V9H19.0847C19.3049 10.2912 19.9408 11.475 20.8957 12.3715C21.8506 13.268 23.0722 13.828 24.3747 13.9663L25.9997 27L20.911 26.9925Z" fill="#222222"/>
</svg>
