<svg width="32" height="32" viewBox="0 0 32 32" fill="none" xmlns="http://www.w3.org/2000/svg">
<path d="M24.9999 18H15.4124L15.7061 17.7062L18.2136 15.1987C19.2264 15.7087 20.3423 15.9807 21.4761 15.9937C22.6174 15.9967 23.7374 15.6844 24.7124 15.0912C27.6774 13.2962 29.2661 9.14121 28.9624 3.97621C28.9481 3.73157 28.8445 3.50069 28.6712 3.32741C28.4979 3.15412 28.267 3.0505 28.0224 3.03621C22.8574 2.73371 18.7024 4.32121 16.9074 7.28621C15.7374 9.21746 15.7074 11.55 16.7986 13.7862L14.9999 15.585L13.4736 14.0587C14.2236 12.4025 14.1699 10.6837 13.2999 9.24871C11.9411 6.99996 8.82614 5.80121 4.96614 6.02746C4.72192 6.04201 4.4915 6.14559 4.31851 6.31859C4.14551 6.49158 4.04194 6.72199 4.02739 6.96621C3.79989 10.825 4.99989 13.94 7.24989 15.3C8.00263 15.7596 8.86792 16.0019 9.74989 16C10.55 15.992 11.3393 15.8135 12.0649 15.4762L13.5849 17L12.5849 18H6.99989C6.73467 18 6.48032 18.1053 6.29278 18.2929C6.10524 18.4804 5.99989 18.7347 5.99989 19C5.99989 19.2652 6.10524 19.5195 6.29278 19.7071C6.48032 19.8946 6.73467 20 6.99989 20H8.19864L9.84989 27.4337C9.94668 27.8789 10.1934 28.2774 10.5488 28.5625C10.9042 28.8476 11.3468 29.0021 11.8024 29H20.1986C20.6543 29.0021 21.0968 28.8476 21.4522 28.5625C21.8076 28.2774 22.0543 27.8789 22.1511 27.4337L23.8024 20H24.9999C25.2651 20 25.5195 19.8946 25.707 19.7071C25.8945 19.5195 25.9999 19.2652 25.9999 19C25.9999 18.7347 25.8945 18.4804 25.707 18.2929C25.5195 18.1053 25.2651 18 24.9999 18ZM18.6249 8.32246C19.9324 6.16496 23.0299 4.94746 26.9999 5.00121C27.0511 8.97746 25.8361 12.0737 23.6786 13.3762C22.2399 14.2512 20.5036 14.1937 18.7686 13.2287C17.8024 11.5 17.7499 9.76121 18.6249 8.32246ZM11.5136 13.5137C10.3636 14.13 9.22489 14.1587 8.28489 13.5887C6.84739 12.7175 6.01864 10.6637 5.99989 7.99996C8.66364 8.01871 10.7186 8.84746 11.5886 10.285C12.1586 11.225 12.1249 12.3637 11.5136 13.5137ZM20.1986 27H11.8024L10.2499 20H21.7499L20.1986 27Z" fill="#222222"/>
</svg>
