<svg width="32" height="32" viewBox="0 0 32 32" fill="none" xmlns="http://www.w3.org/2000/svg">
<path d="M25.7079 6.29C25.8009 6.38288 25.8747 6.49317 25.925 6.61456C25.9753 6.73596 26.0012 6.86609 26.0012 6.9975C26.0012 7.12892 25.9753 7.25905 25.925 7.38044C25.8747 7.50184 25.8009 7.61213 25.7079 7.705L18.7079 14.705C18.5205 14.8926 18.2661 14.9981 18.0009 14.9982C17.7356 14.9984 17.4812 14.8931 17.2936 14.7056C17.1059 14.5182 17.0004 14.2638 17.0003 13.9986C17.0002 13.7333 17.1055 13.4789 17.2929 13.2913L24.2929 6.29125C24.3857 6.1982 24.496 6.12434 24.6173 6.07391C24.7387 6.02348 24.8688 5.99746 25.0002 5.99734C25.1316 5.99723 25.2617 6.02301 25.3832 6.07323C25.5046 6.12345 25.615 6.19711 25.7079 6.29ZM31.0004 7.30125C31.0025 8.12938 30.8404 8.94971 30.5235 9.71482C30.2066 10.4799 29.7412 11.1746 29.1542 11.7588L22.5004 18.4125C22.3155 18.5993 22.0953 18.7474 21.8526 18.8482C21.6099 18.9491 21.3495 19.0007 21.0867 19H19.0004V21.1038C19.0003 21.5398 18.8576 21.9638 18.5942 22.3113C18.5666 22.3478 18.5365 22.3825 18.5042 22.415L17.5042 23.415C17.1292 23.7898 16.6206 24.0003 16.0904 24.0003C15.5602 24.0003 15.0517 23.7898 14.6767 23.415L12.3379 21.075L2.71294 30.7075C2.62003 30.8004 2.50973 30.8741 2.38834 30.9244C2.26694 30.9747 2.13683 31.0006 2.00544 31.0006C1.87404 31.0006 1.74394 30.9747 1.62254 30.9244C1.50115 30.8741 1.39085 30.8004 1.29794 30.7075C1.20503 30.6146 1.13133 30.5043 1.08105 30.3829C1.03076 30.2615 1.00488 30.1314 1.00488 30C1.00488 29.8686 1.03076 29.7385 1.08105 29.6171C1.13133 29.4957 1.20503 29.3854 1.29794 29.2925L10.9292 19.6613L8.59169 17.3225C8.40592 17.1368 8.25856 16.9163 8.15803 16.6736C8.05749 16.4309 8.00574 16.1708 8.00574 15.9081C8.00574 15.6454 8.05749 15.3853 8.15803 15.1427C8.25856 14.9 8.40592 14.6795 8.59169 14.4938L9.59169 13.4938C9.62377 13.4615 9.65801 13.4314 9.69419 13.4038C10.0412 13.1434 10.4629 13.0018 10.8967 13H13.0004V10.9125C13 10.6501 13.0515 10.3902 13.1519 10.1478C13.2523 9.90542 13.3996 9.68525 13.5854 9.5L20.2404 2.84625C21.1219 1.96521 22.2448 1.36524 23.4672 1.12216C24.6896 0.879082 25.9566 1.00381 27.1081 1.48058C28.2597 1.95734 29.244 2.76475 29.9368 3.80078C30.6296 4.8368 30.9997 6.05494 31.0004 7.30125ZM29.0004 7.30125C29.0004 6.45015 28.748 5.61817 28.2752 4.91049C27.8024 4.20281 27.1303 3.65122 26.344 3.32544C25.5578 2.99966 24.6925 2.91433 23.8578 3.08023C23.023 3.24614 22.2561 3.65583 21.6542 4.2575L15.0004 10.9125V13C15.0004 13.5304 14.7897 14.0391 14.4147 14.4142C14.0396 14.7893 13.5309 15 13.0004 15H10.9104L10.0004 15.9088L16.0904 22L17.0004 21.09V19C17.0004 18.4696 17.2112 17.9609 17.5862 17.5858C17.9613 17.2107 18.47 17 19.0004 17H21.0867L27.7404 10.345C28.1413 9.94616 28.459 9.47179 28.6753 8.94933C28.8916 8.42687 29.0021 7.86671 29.0004 7.30125Z" fill="#222222"/>
</svg>
