<svg width="32" height="32" viewBox="0 0 32 32" fill="none" xmlns="http://www.w3.org/2000/svg">
<path d="M30.7075 7.29245L24.7075 1.29245C24.6146 1.19954 24.5043 1.12584 24.3829 1.07555C24.2615 1.02527 24.1314 0.99939 24 0.99939C23.8686 0.99939 23.7385 1.02527 23.6171 1.07555C23.4957 1.12584 23.3854 1.19954 23.2925 1.29245C23.1996 1.38536 23.1259 1.49566 23.0756 1.61705C23.0253 1.73844 22.9995 1.86855 22.9995 1.99995C22.9995 2.13134 23.0253 2.26145 23.0756 2.38284C23.1259 2.50424 23.1996 2.61454 23.2925 2.70745L25.5863 4.99995L16.7113 13.8749L12.4138 9.58495C12.0387 9.21016 11.5302 8.99962 11 8.99962C10.4698 8.99962 9.96129 9.21016 9.58626 9.58495L2.58626 16.5849C2.39975 16.7703 2.25189 16.9908 2.15126 17.2337C2.05062 17.4766 1.99921 17.737 2.00001 17.9999V27.9999C2.00001 28.5304 2.21072 29.0391 2.5858 29.4142C2.96087 29.7892 3.46958 29.9999 4.00001 29.9999H14C14.2627 30.0008 14.523 29.9494 14.7657 29.8487C15.0084 29.7481 15.2287 29.6002 15.4138 29.4137L22.4138 22.4137C22.7885 22.0387 22.9991 21.5302 22.9991 20.9999C22.9991 20.4697 22.7885 19.9612 22.4138 19.5862L18.125 15.2924L27 6.41745L29.2925 8.7112C29.3854 8.80411 29.4957 8.87781 29.6171 8.92809C29.7385 8.97837 29.8686 9.00425 30 9.00425C30.1314 9.00425 30.2615 8.97837 30.3829 8.92809C30.5043 8.87781 30.6146 8.80411 30.7075 8.7112C30.8004 8.61829 30.8741 8.50799 30.9244 8.38659C30.9747 8.2652 31.0006 8.13509 31.0006 8.0037C31.0006 7.8723 30.9747 7.74219 30.9244 7.6208C30.8741 7.49941 30.8004 7.38911 30.7075 7.2962V7.29245ZM21 20.9999L14 27.9999H4.00001V17.9999L11 10.9999L15.2925 15.2924L10.2925 20.2924C10.1996 20.3854 10.1259 20.4957 10.0756 20.6171C10.0253 20.7384 9.99945 20.8686 9.99945 20.9999C9.99945 21.1313 10.0253 21.2614 10.0756 21.3828C10.1259 21.5042 10.1996 21.6145 10.2925 21.7074C10.4802 21.8951 10.7346 22.0005 11 22.0005C11.1314 22.0005 11.2615 21.9746 11.3829 21.9243C11.5043 21.8741 11.6146 21.8004 11.7075 21.7074L16.7075 16.7074L21 20.9999Z" fill="#222222"/>
</svg>
