<svg width="32" height="32" viewBox="0 0 32 32" fill="none" xmlns="http://www.w3.org/2000/svg">
<path d="M3.99981 13C3.99981 12.7348 4.10517 12.4804 4.2927 12.2929C4.48024 12.1054 4.73459 12 4.99981 12H6.99981C7.26503 12 7.51938 12.1054 7.70692 12.2929C7.89445 12.4804 7.99981 12.7348 7.99981 13C7.99981 13.2652 7.89445 13.5196 7.70692 13.7071C7.51938 13.8946 7.26503 14 6.99981 14H4.99981C4.73459 14 4.48024 13.8946 4.2927 13.7071C4.10517 13.5196 3.99981 13.2652 3.99981 13ZM8.92856 7.34375C9.1162 7.53139 9.3707 7.63681 9.63606 7.63681C9.90142 7.63681 10.1559 7.53139 10.3436 7.34375C10.5312 7.15611 10.6366 6.90161 10.6366 6.63625C10.6366 6.37089 10.5312 6.11639 10.3436 5.92875L8.92856 4.515C8.7395 4.33538 8.48775 4.23672 8.22699 4.24006C7.96623 4.2434 7.71708 4.34847 7.53268 4.53287C7.34828 4.71727 7.24321 4.96641 7.23987 5.22718C7.23653 5.48794 7.33519 5.73969 7.51481 5.92875L8.92856 7.34375ZM15.9998 5C16.265 5 16.5194 4.89464 16.7069 4.70711C16.8945 4.51957 16.9998 4.26522 16.9998 4V2C16.9998 1.73478 16.8945 1.48043 16.7069 1.29289C16.5194 1.10536 16.265 1 15.9998 1C15.7346 1 15.4802 1.10536 15.2927 1.29289C15.1052 1.48043 14.9998 1.73478 14.9998 2V4C14.9998 4.26522 15.1052 4.51957 15.2927 4.70711C15.4802 4.89464 15.7346 5 15.9998 5ZM22.3636 7.63625C22.4949 7.63635 22.625 7.61057 22.7464 7.56039C22.8678 7.5102 22.9781 7.43658 23.0711 7.34375L24.4848 5.92875C24.6644 5.73969 24.7631 5.48794 24.7598 5.22718C24.7564 4.96641 24.6513 4.71727 24.4669 4.53287C24.2825 4.34847 24.0334 4.2434 23.7726 4.24006C23.5119 4.23672 23.2601 4.33538 23.0711 4.515L21.6561 5.92875C21.5161 6.06861 21.4207 6.24686 21.382 6.44094C21.3434 6.63503 21.3632 6.83622 21.4389 7.01904C21.5147 7.20186 21.643 7.3581 21.8076 7.46797C21.9722 7.57784 22.1657 7.63641 22.3636 7.63625ZM23.9998 13C23.9998 13.2652 24.1052 13.5196 24.2927 13.7071C24.4802 13.8946 24.7346 14 24.9998 14H26.9998C27.265 14 27.5194 13.8946 27.7069 13.7071C27.8945 13.5196 27.9998 13.2652 27.9998 13C27.9998 12.7348 27.8945 12.4804 27.7069 12.2929C27.5194 12.1054 27.265 12 26.9998 12H24.9998C24.7346 12 24.4802 12.1054 24.2927 12.2929C24.1052 12.4804 23.9998 12.7348 23.9998 13ZM10.9998 14C11.265 14 11.5194 13.8946 11.7069 13.7071C11.8945 13.5196 11.9998 13.2652 11.9998 13C11.9998 11.9391 12.4212 10.9217 13.1714 10.1716C13.9215 9.42143 14.9389 9 15.9998 9C17.0607 9 18.0781 9.42143 18.8282 10.1716C19.5784 10.9217 19.9998 11.9391 19.9998 13C19.9998 13.2652 20.1052 13.5196 20.2927 13.7071C20.4802 13.8946 20.7346 14 20.9998 14C21.265 14 21.5194 13.8946 21.7069 13.7071C21.8945 13.5196 21.9998 13.2652 21.9998 13C21.9998 11.4087 21.3677 9.88258 20.2425 8.75736C19.1172 7.63214 17.5911 7 15.9998 7C14.4085 7 12.8824 7.63214 11.7572 8.75736C10.632 9.88258 9.99981 11.4087 9.99981 13C9.99981 13.2652 10.1052 13.5196 10.2927 13.7071C10.4802 13.8946 10.7346 14 10.9998 14ZM29.8636 27.5C29.776 27.6517 29.6501 27.7777 29.4985 27.8655C29.3469 27.9532 29.175 27.9996 28.9998 28H2.99981C2.82461 28.0008 2.65227 27.9556 2.50004 27.8689C2.34782 27.7821 2.22105 27.6569 2.13244 27.5058C2.04383 27.3546 1.99649 27.1829 1.99515 27.0077C1.99381 26.8325 2.03852 26.66 2.12481 26.5075L7.21106 17.5075C7.29862 17.3528 7.42586 17.2242 7.57966 17.135C7.73346 17.0458 7.90827 16.9992 8.08606 17H23.9123C24.0901 16.9992 24.2649 17.0458 24.4187 17.135C24.5725 17.2242 24.6997 17.3528 24.7873 17.5075L29.8736 26.5075C29.9584 26.6595 30.0021 26.831 30.0004 27.0051C29.9986 27.1791 29.9515 27.3497 29.8636 27.5ZM23.3298 19H20.2836L20.7186 21H24.4598L23.3298 19ZM18.6723 21L18.2373 19H13.7623L13.3273 21H18.6723ZM12.8923 23L12.2411 26H19.7586L19.1073 23H12.8923ZM7.53981 21H11.2811L11.7161 19H8.66981L7.53981 21ZM4.71356 26H10.1936L10.8461 23H6.40981L4.71356 26ZM27.2861 26L25.5898 23H21.1536L21.8061 26H27.2861Z" fill="#222222"/>
</svg>
