<svg width="32" height="32" viewBox="0 0 32 32" fill="none" xmlns="http://www.w3.org/2000/svg">
<path d="M30.8322 15.445L25.1247 6.89C24.9424 6.61673 24.6955 6.39258 24.406 6.23735C24.1165 6.08213 23.7932 6.00061 23.4647 6H3.99967C3.81859 5.99988 3.64087 6.04894 3.48549 6.14193C3.3301 6.23493 3.20289 6.36837 3.11742 6.52801C3.03195 6.68766 2.99143 6.86752 3.0002 7.04839C3.00896 7.22927 3.06667 7.40436 3.16717 7.555L8.79842 16L3.17342 24.445C3.07321 24.5952 3.01553 24.7697 3.00651 24.9501C2.99749 25.1304 3.03746 25.3098 3.12218 25.4692C3.20691 25.6287 3.33322 25.7622 3.48771 25.8557C3.64221 25.9491 3.81912 25.999 3.99967 26H23.4647C23.7932 25.9994 24.1165 25.9179 24.406 25.7626C24.6955 25.6074 24.9424 25.3833 25.1247 25.11L30.8284 16.555C30.9386 16.391 30.9978 16.1981 30.9984 16.0006C30.9991 15.803 30.9413 15.6097 30.8322 15.445ZM23.4647 24H5.87467L10.8384 16.555C10.9481 16.3907 11.0066 16.1975 11.0066 16C11.0066 15.8025 10.9481 15.6093 10.8384 15.445L5.87467 8H23.4647L28.7984 16L23.4647 24Z" fill="#222222"/>
</svg>
