<svg width="32" height="32" viewBox="0 0 32 32" fill="none" xmlns="http://www.w3.org/2000/svg">
<path d="M16 3C13.4288 3 10.9154 3.76244 8.77759 5.1909C6.63975 6.61935 4.97351 8.64968 3.98957 11.0251C3.00563 13.4006 2.74819 16.0144 3.2498 18.5362C3.75141 21.0579 4.98953 23.3743 6.80762 25.1924C8.6257 27.0105 10.9421 28.2486 13.4638 28.7502C15.9856 29.2518 18.5995 28.9944 20.9749 28.0104C23.3503 27.0265 25.3807 25.3603 26.8091 23.2224C28.2376 21.0846 29 18.5712 29 16C28.9964 12.5533 27.6256 9.24882 25.1884 6.81163C22.7512 4.37445 19.4467 3.00364 16 3ZM23.035 7.55125L7.55001 23.035C7.06093 22.4483 6.63406 21.8124 6.27626 21.1375L21.1375 6.27625C21.8127 6.63404 22.4486 7.06135 23.035 7.55125ZM24.4488 8.965C24.9387 9.55139 25.366 10.1873 25.7238 10.8625L10.8625 25.7237C10.1873 25.366 9.5514 24.9386 8.96501 24.4487L24.4488 8.965ZM16 5C17.0603 4.99964 18.115 5.1529 19.1313 5.455L5.45501 19.1313C4.96761 17.4899 4.87011 15.7574 5.17026 14.0717C5.47042 12.386 6.15994 10.7936 7.18395 9.42136C8.20795 8.0491 9.53816 6.93483 11.0687 6.16725C12.5992 5.39968 14.2878 4.99999 16 5ZM16 27C14.9419 26.9998 13.8893 26.8465 12.875 26.545L26.545 12.875C27.0312 14.516 27.1278 16.2478 26.8271 17.9327C26.5264 19.6176 25.8367 21.209 24.8128 22.5805C23.7889 23.952 22.4592 25.0656 20.9293 25.8329C19.3993 26.6001 17.7115 26.9997 16 27Z" fill="#222222"/>
</svg>
