<svg width="32" height="32" viewBox="0 0 32 32" fill="none" xmlns="http://www.w3.org/2000/svg">
<path d="M22.9995 11C22.902 11 22.8045 11 22.7083 11C23.0194 9.95528 23.0823 8.85232 22.8919 7.77901C22.7015 6.70569 22.263 5.69168 21.6114 4.81776C20.9599 3.94385 20.1132 3.23418 19.1389 2.7453C18.1646 2.25641 17.0896 2.00183 15.9995 2.00183C14.9095 2.00183 13.8344 2.25641 12.8601 2.7453C11.8858 3.23418 11.0392 3.94385 10.3876 4.81776C9.73605 5.69168 9.29759 6.70569 9.10716 7.77901C8.91674 8.85232 8.97961 9.95528 9.29078 11C9.19328 11 9.09703 11 8.99953 11C7.9468 11.0005 6.90774 11.2385 5.9597 11.6961C5.01166 12.1538 4.17905 12.8194 3.52386 13.6434C2.86868 14.4674 2.40778 15.4286 2.17548 16.4554C1.94318 17.4821 1.94546 18.5481 2.18216 19.5739C2.41885 20.5997 2.88387 21.5588 3.54258 22.38C4.20129 23.2012 5.03674 23.8632 5.98673 24.3168C6.93672 24.7705 7.97679 25.0039 9.02952 24.9999C10.0822 24.9959 11.1205 24.7546 12.067 24.2937L11.042 27.7125C10.9972 27.8618 10.9879 28.0195 11.0149 28.173C11.0419 28.3266 11.1044 28.4717 11.1974 28.5968C11.2904 28.7218 11.4114 28.8234 11.5507 28.8935C11.6899 28.9635 11.8436 29 11.9995 29H19.9995C20.1554 29 20.3091 28.9635 20.4484 28.8935C20.5877 28.8234 20.7086 28.7218 20.8017 28.5968C20.8947 28.4717 20.9572 28.3266 20.9842 28.173C21.0111 28.0195 21.0018 27.8618 20.957 27.7125L19.932 24.2937C20.8785 24.7546 21.9168 24.9959 22.9695 24.9999C24.0223 25.0039 25.0623 24.7705 26.0123 24.3168C26.9623 23.8632 27.7978 23.2012 28.4565 22.38C29.1152 21.5588 29.5802 20.5997 29.8169 19.5739C30.0536 18.5481 30.0559 17.4821 29.8236 16.4554C29.5913 15.4286 29.1304 14.4674 28.4752 13.6434C27.82 12.8194 26.9874 12.1538 26.0394 11.6961C25.0913 11.2385 24.0523 11.0005 22.9995 11ZM22.9995 23C22.1718 22.9999 21.357 22.7942 20.6283 22.4015C19.8996 22.0088 19.2798 21.4413 18.8245 20.75C18.6919 20.5505 18.4921 20.4053 18.2615 20.3407C18.0308 20.2761 17.7846 20.2964 17.5677 20.398C17.3508 20.4996 17.1775 20.6756 17.0795 20.8942C16.9814 21.1127 16.965 21.3592 17.0333 21.5887L18.6583 26.9962H13.3458L14.9708 21.5887C15.0434 21.3576 15.0295 21.1079 14.9319 20.8862C14.8342 20.6644 14.6593 20.4857 14.4398 20.3831C14.2202 20.2806 13.9709 20.2613 13.7382 20.3288C13.5055 20.3963 13.3052 20.5459 13.1745 20.75C12.6579 21.5326 11.9315 22.154 11.0785 22.5435C10.2254 22.9329 9.28007 23.0746 8.35033 22.9524C7.42059 22.8302 6.54396 22.449 5.82054 21.8524C5.09711 21.2557 4.55606 20.4676 4.25917 19.5781C3.96227 18.6886 3.9215 17.7336 4.1415 16.822C4.36151 15.9104 4.83343 15.0791 5.50337 14.423C6.17331 13.7668 7.01426 13.3123 7.9302 13.1113C8.84614 12.9103 9.80015 12.9709 10.6833 13.2862C10.8816 13.3572 11.0972 13.3636 11.2994 13.3048C11.5017 13.2459 11.6801 13.1247 11.8094 12.9584C11.9387 12.7922 12.0121 12.5893 12.0194 12.3788C12.0266 12.1684 11.9671 11.961 11.8495 11.7862C11.3439 11.0338 11.0523 10.158 11.006 9.25266C10.9598 8.34728 11.1605 7.44635 11.5868 6.64627C12.0131 5.84619 12.6489 5.17707 13.4262 4.71049C14.2035 4.24391 15.093 3.99743 15.9995 3.99743C16.9061 3.99743 17.7956 4.24391 18.5729 4.71049C19.3501 5.17707 19.9859 5.84619 20.4122 6.64627C20.8385 7.44635 21.0393 8.34728 20.993 9.25266C20.9467 10.158 20.6552 11.0338 20.1495 11.7862C20.0319 11.961 19.9725 12.1684 19.9797 12.3788C19.9869 12.5893 20.0604 12.7922 20.1897 12.9584C20.3189 13.1247 20.4974 13.2459 20.6996 13.3048C20.9018 13.3636 21.1175 13.3572 21.3158 13.2862C22.0017 13.0436 22.7322 12.9536 23.4565 13.0225C24.1807 13.0913 24.8812 13.3174 25.5091 13.6849C26.1369 14.0525 26.677 14.5526 27.0917 15.1504C27.5063 15.7482 27.7855 16.4292 27.9097 17.1461C28.034 17.8629 28.0003 18.5982 27.8111 19.3007C27.6218 20.0032 27.2815 20.6559 26.814 21.2133C26.3465 21.7707 25.7629 22.2193 25.1041 22.5279C24.4453 22.8365 23.727 22.9976 22.9995 23Z" fill="#222222"/>
</svg>
