<svg width="32" height="32" viewBox="0 0 32 32" fill="none" xmlns="http://www.w3.org/2000/svg">
<path d="M29.4166 14.5899L17.4104 2.58244C17.0356 2.20994 16.5287 2.00085 16.0004 2.00085C15.472 2.00085 14.9651 2.20994 14.5904 2.58244L2.59037 14.5899C2.21787 14.9647 2.00879 15.4716 2.00879 15.9999C2.00879 16.5283 2.21787 17.0352 2.59037 17.4099L14.5966 29.4174C14.9713 29.7899 15.4783 29.999 16.0066 29.999C16.535 29.999 17.0419 29.7899 17.4166 29.4174L29.4229 17.4099C29.7954 17.0352 30.0045 16.5283 30.0045 15.9999C30.0045 15.4716 29.7954 14.9647 29.4229 14.5899H29.4166ZM16.0004 27.9999L4.00037 15.9999L16.0004 3.99994L28.0004 15.9999L16.0004 27.9999Z" fill="#222222"/>
</svg>
