<svg width="32" height="32" viewBox="0 0 32 32" fill="none" xmlns="http://www.w3.org/2000/svg">
<path d="M21 12.9999H11C9.67393 12.9999 8.40216 13.5267 7.46447 14.4644C6.52679 15.4021 6.00001 16.6739 6.00001 17.9999V18.9999C6.00001 19.6566 6.12934 20.3067 6.38061 20.9134C6.63188 21.52 7.00018 22.0712 7.46447 22.5355C8.40216 23.4732 9.67393 23.9999 11 23.9999H21C21.6566 23.9999 22.3068 23.8706 22.9134 23.6193C23.5201 23.3681 24.0712 22.9998 24.5355 22.5355C24.9998 22.0712 25.3681 21.52 25.6194 20.9134C25.8707 20.3067 26 19.6566 26 18.9999V17.9999C26 16.6739 25.4732 15.4021 24.5355 14.4644C23.5979 13.5267 22.3261 12.9999 21 12.9999ZM24 18.9999C24 19.7956 23.6839 20.5587 23.1213 21.1213C22.5587 21.6839 21.7957 21.9999 21 21.9999H11C10.2044 21.9999 9.4413 21.6839 8.87869 21.1213C8.31608 20.5587 8.00001 19.7956 8.00001 18.9999V17.9999C8.00001 17.2043 8.31608 16.4412 8.87869 15.8786C9.4413 15.316 10.2044 14.9999 11 14.9999H21C21.7957 14.9999 22.5587 15.316 23.1213 15.8786C23.6839 16.4412 24 17.2043 24 17.9999V18.9999ZM26 4.99995C25.1132 5.00079 24.2517 5.29575 23.5505 5.83862C22.8493 6.3815 22.348 7.14163 22.125 7.99995H9.87501C9.63319 7.05546 9.05475 6.23181 8.24839 5.68379C7.44204 5.13577 6.46329 4.90112 5.49611 5.02394C4.52893 5.14676 3.63989 5.61859 2.9961 6.35075C2.35231 7.08291 1.99809 8.025 2.00001 8.99995V18.9999C2.00265 21.3861 2.95172 23.6737 4.63897 25.361C6.32622 27.0482 8.61387 27.9973 11 27.9999H21C23.3861 27.9973 25.6738 27.0482 27.361 25.361C29.0483 23.6737 29.9974 21.3861 30 18.9999V8.99995C30 7.93908 29.5786 6.92167 28.8284 6.17152C28.0783 5.42138 27.0609 4.99995 26 4.99995ZM28 18.9999C27.998 20.8559 27.2599 22.6352 25.9476 23.9475C24.6352 25.2598 22.8559 25.998 21 25.9999H11C9.1441 25.998 7.36478 25.2598 6.05245 23.9475C4.74013 22.6352 4.00199 20.8559 4.00001 18.9999V8.99995C4.00001 8.46952 4.21072 7.96081 4.58579 7.58574C4.96087 7.21066 5.46957 6.99995 6.00001 6.99995C6.53044 6.99995 7.03915 7.21066 7.41422 7.58574C7.78929 7.96081 8.00001 8.46952 8.00001 8.99995C8.00001 9.26517 8.10536 9.51952 8.2929 9.70706C8.48044 9.89459 8.73479 9.99995 9.00001 9.99995H23C23.2652 9.99995 23.5196 9.89459 23.7071 9.70706C23.8947 9.51952 24 9.26517 24 8.99995C24 8.46952 24.2107 7.96081 24.5858 7.58574C24.9609 7.21066 25.4696 6.99995 26 6.99995C26.5304 6.99995 27.0391 7.21066 27.4142 7.58574C27.7893 7.96081 28 8.46952 28 8.99995V18.9999ZM13 18.4999C13 18.7966 12.912 19.0866 12.7472 19.3333C12.5824 19.58 12.3481 19.7722 12.074 19.8858C11.7999 19.9993 11.4983 20.029 11.2074 19.9711C10.9164 19.9132 10.6491 19.7704 10.4393 19.5606C10.2296 19.3508 10.0867 19.0836 10.0288 18.7926C9.97095 18.5016 10.0007 18.2 10.1142 17.9259C10.2277 17.6518 10.42 17.4176 10.6667 17.2527C10.9133 17.0879 11.2033 16.9999 11.5 16.9999C11.8978 16.9999 12.2794 17.158 12.5607 17.4393C12.842 17.7206 13 18.1021 13 18.4999ZM22 18.4999C22 18.7966 21.912 19.0866 21.7472 19.3333C21.5824 19.58 21.3481 19.7722 21.074 19.8858C20.7999 19.9993 20.4983 20.029 20.2074 19.9711C19.9164 19.9132 19.6491 19.7704 19.4393 19.5606C19.2296 19.3508 19.0867 19.0836 19.0288 18.7926C18.971 18.5016 19.0007 18.2 19.1142 17.9259C19.2277 17.6518 19.42 17.4176 19.6667 17.2527C19.9133 17.0879 20.2033 16.9999 20.5 16.9999C20.8978 16.9999 21.2794 17.158 21.5607 17.4393C21.842 17.7206 22 18.1021 22 18.4999Z" fill="#222222"/>
</svg>
