<svg width="32" height="32" viewBox="0 0 32 32" fill="none" xmlns="http://www.w3.org/2000/svg">
<path d="M28.6322 6.73624C28.4894 5.89468 28.0884 5.11835 27.4849 4.51477C26.8813 3.9112 26.105 3.51026 25.2634 3.36749C21.2172 2.68124 13.5897 2.36749 7.97966 7.97999C2.36966 13.5925 2.68091 21.2175 3.36716 25.2637C3.51031 26.1062 3.91217 26.8831 4.51696 27.4868C5.12175 28.0905 5.89946 28.4909 6.74216 28.6325C8.15985 28.8743 9.59525 28.9972 11.0334 29C15.0447 29 20.0397 28 24.0197 24.02C29.6309 18.41 29.3184 10.7825 28.6322 6.73624ZM20.9309 4.98624C22.2717 4.99097 23.6097 5.10804 24.9309 5.33624C25.3636 5.41014 25.7626 5.61668 26.0728 5.92729C26.3829 6.23789 26.5889 6.6372 26.6622 7.06999C26.9201 8.56478 27.0331 10.081 26.9997 11.5975L20.4009 4.99999C20.5759 4.98999 20.7497 4.98749 20.9309 4.98749V4.98624ZM7.06966 26.6625C6.63693 26.5889 6.23777 26.3826 5.92739 26.0723C5.61701 25.7619 5.41075 25.3627 5.33716 24.93C5.07926 23.4352 4.96623 21.919 4.99966 20.4025L11.5972 27C10.0806 27.034 8.56438 26.921 7.06966 26.6625ZM22.6072 22.6075C21.1559 24.0575 18.4484 26.0737 14.1859 26.7662L5.23341 17.8137C5.92591 13.5512 7.94216 10.8437 9.39216 9.39249C10.8422 7.94124 13.5497 5.92499 17.8122 5.23249L26.7659 14.1862C26.0734 18.4487 24.0572 21.1562 22.6072 22.6075ZM20.7047 11.295C20.8921 11.4825 20.9973 11.7368 20.9973 12.0019C20.9973 12.267 20.8921 12.5212 20.7047 12.7087L18.9122 14.5L19.7047 15.2925C19.8035 15.3839 19.8828 15.4944 19.9379 15.6172C19.993 15.74 20.0227 15.8727 20.0253 16.0073C20.0279 16.1419 20.0033 16.2756 19.9529 16.4005C19.9026 16.5254 19.8275 16.6388 19.7323 16.7339C19.6371 16.8291 19.5236 16.904 19.3987 16.9542C19.2738 17.0045 19.14 17.029 19.0054 17.0263C18.8709 17.0236 18.7382 16.9937 18.6154 16.9385C18.4926 16.8833 18.3823 16.8039 18.2909 16.705L17.4997 15.9137L15.9134 17.5L16.7059 18.2925C16.8048 18.3838 16.8842 18.4942 16.9394 18.617C16.9947 18.7398 17.0245 18.8724 17.0272 19.007C17.0299 19.1416 17.0054 19.2754 16.9552 19.4003C16.9049 19.5252 16.83 19.6386 16.7348 19.7339C16.6397 19.8291 16.5263 19.9042 16.4014 19.9545C16.2766 20.0049 16.1428 20.0295 16.0082 20.0269C15.8736 20.0243 15.7409 19.9946 15.6181 19.9395C15.4953 19.8844 15.3848 19.805 15.2934 19.7062L14.4997 18.9125L12.7072 20.705C12.6152 20.8018 12.5048 20.8791 12.3825 20.9326C12.2602 20.986 12.1284 21.0144 11.995 21.0161C11.8615 21.0178 11.7291 20.9928 11.6054 20.9425C11.4818 20.8922 11.3695 20.8177 11.2751 20.7233C11.1807 20.6289 11.1062 20.5166 11.0559 20.393C11.0056 20.2693 10.9806 20.1369 10.9823 20.0034C10.984 19.8699 11.0124 19.7382 11.0658 19.6159C11.1193 19.4935 11.1966 19.3832 11.2934 19.2912L13.0872 17.5L12.2947 16.7075C12.1193 16.5176 12.0243 16.2673 12.0295 16.0089C12.0346 15.7506 12.1397 15.5042 12.3225 15.3216C12.5053 15.1389 12.7517 15.0341 13.0101 15.0292C13.2685 15.0242 13.5187 15.1195 13.7084 15.295L14.5009 16.0875L16.0859 14.5L15.2934 13.7075C15.1179 13.5178 15.0226 13.2675 15.0276 13.0092C15.0325 12.7508 15.1373 12.5044 15.32 12.3215C15.5026 12.1387 15.749 12.0337 16.0073 12.0285C16.2657 12.0234 16.5161 12.1184 16.7059 12.2937L17.4997 13.0875L19.2922 11.295C19.4796 11.108 19.7336 11.0029 19.9984 11.0029C20.2632 11.0029 20.5172 11.108 20.7047 11.295Z" fill="#222222"/>
</svg>
