<svg width="32" height="32" viewBox="0 0 32 32" fill="none" xmlns="http://www.w3.org/2000/svg">
<path d="M27.5336 19.8176C27.391 19.7277 27.228 19.6752 27.0598 19.6652C26.8915 19.6551 26.7234 19.6878 26.5711 19.7601C26.1901 19.9403 25.7697 20.0213 25.3489 19.9954C24.9282 19.9695 24.5209 19.8377 24.1648 19.6122C23.8087 19.3867 23.5154 19.0748 23.3121 18.7056C23.1089 18.3363 23.0023 17.9216 23.0023 17.5001C23.0023 17.0786 23.1089 16.6639 23.3121 16.2947C23.5154 15.9254 23.8087 15.6135 24.1648 15.388C24.5209 15.1625 24.9282 15.0307 25.3489 15.0048C25.7697 14.979 26.1901 15.0599 26.5711 15.2401C26.7236 15.3125 26.8919 15.345 27.0603 15.3349C27.2287 15.3247 27.3918 15.272 27.5345 15.1818C27.6771 15.0916 27.7945 14.9668 27.8759 14.8189C27.9573 14.6711 27.9999 14.5051 27.9999 14.3364V9.0001C27.9999 8.46967 27.7892 7.96096 27.4141 7.58589C27.039 7.21082 26.5303 7.0001 25.9999 7.0001H21.4724C21.491 6.83409 21.5002 6.66716 21.4999 6.5001C21.499 5.88551 21.3725 5.27757 21.1284 4.71356C20.8842 4.14955 20.5274 3.64135 20.0799 3.2201C19.4602 2.63812 18.6884 2.24356 17.8537 2.08213C17.0191 1.92069 16.1558 1.99898 15.3638 2.30793C14.5718 2.61688 13.8835 3.14384 13.3787 3.8278C12.8738 4.51177 12.573 5.32475 12.5111 6.1726C12.4919 6.4484 12.4978 6.72537 12.5286 7.0001H7.99988C7.46944 7.0001 6.96074 7.21082 6.58566 7.58589C6.21059 7.96096 5.99988 8.46967 5.99988 9.0001V13.0276C5.83386 13.009 5.66693 12.9998 5.49988 13.0001C4.88529 13.0011 4.27738 13.1276 3.71338 13.3717C3.14938 13.6159 2.64117 13.9726 2.21988 14.4201C1.79556 14.8683 1.46884 15.3997 1.26035 15.9806C1.05187 16.5615 0.966152 17.1794 1.00863 17.7951C1.08029 18.8793 1.54097 19.9012 2.30597 20.6729C3.07096 21.4445 4.08882 21.9141 5.17238 21.9951C5.44816 22.0149 5.72518 22.0091 5.99988 21.9776V26.0001C5.99988 26.5305 6.21059 27.0392 6.58566 27.4143C6.96074 27.7894 7.46944 28.0001 7.99988 28.0001H25.9999C26.5303 28.0001 27.039 27.7894 27.4141 27.4143C27.7892 27.0392 27.9999 26.5305 27.9999 26.0001V20.6639C28 20.4949 27.9573 20.3287 27.8757 20.1807C27.7942 20.0327 27.6765 19.9078 27.5336 19.8176ZM25.9999 26.0001H7.99988V20.6639C7.99993 20.4951 7.95729 20.3291 7.87591 20.1813C7.79453 20.0334 7.67706 19.9086 7.53445 19.8184C7.39184 19.7282 7.22873 19.6755 7.06029 19.6654C6.89185 19.6552 6.72358 19.6878 6.57113 19.7601C6.19008 19.9403 5.76966 20.0213 5.34895 19.9954C4.92823 19.9695 4.52089 19.8377 4.16478 19.6122C3.80867 19.3867 3.51536 19.0748 3.31211 18.7056C3.10887 18.3363 3.0023 17.9216 3.0023 17.5001C3.0023 17.0786 3.10887 16.6639 3.31211 16.2947C3.51536 15.9254 3.80867 15.6135 4.16478 15.388C4.52089 15.1625 4.92823 15.0307 5.34895 15.0048C5.76966 14.979 6.19008 15.0599 6.57113 15.2401C6.72358 15.3125 6.89185 15.345 7.06029 15.3349C7.22873 15.3247 7.39184 15.272 7.53445 15.1818C7.67706 15.0916 7.79453 14.9668 7.87591 14.8189C7.95729 14.6711 7.99993 14.5051 7.99988 14.3364V9.0001H13.8361C14.0049 9.00016 14.1709 8.95751 14.3187 8.87613C14.4665 8.79475 14.5914 8.67729 14.6816 8.53468C14.7718 8.39207 14.8244 8.22895 14.8346 8.06052C14.8448 7.89208 14.8122 7.7238 14.7399 7.57135C14.5597 7.19031 14.4787 6.76989 14.5046 6.34917C14.5304 5.92846 14.6622 5.52111 14.8878 5.165C15.1133 4.80889 15.4252 4.51558 15.7944 4.31234C16.1637 4.1091 16.5784 4.00252 16.9999 4.00252C17.4214 4.00252 17.8361 4.1091 18.2053 4.31234C18.5746 4.51558 18.8865 4.80889 19.112 5.165C19.3375 5.52111 19.4693 5.92846 19.4952 6.34917C19.521 6.76989 19.4401 7.19031 19.2599 7.57135C19.1875 7.7238 19.1549 7.89208 19.1651 8.06052C19.1753 8.22895 19.228 8.39207 19.3182 8.53468C19.4084 8.67729 19.5332 8.79475 19.681 8.87613C19.8289 8.95751 19.9949 9.00016 20.1636 9.0001H25.9999V13.0289C25.7252 12.9974 25.4482 12.9915 25.1724 13.0114C24.0085 13.0938 22.9222 13.625 22.1425 14.493C21.3628 15.361 20.9507 16.498 20.9932 17.664C21.0357 18.83 21.5294 19.9339 22.3702 20.7429C23.211 21.5518 24.3331 22.0026 25.4999 22.0001C25.6669 22.0004 25.8339 21.9912 25.9999 21.9726V26.0001Z" fill="#222222"/>
</svg>
