<svg width="32" height="32" viewBox="0 0 32 32" fill="none" xmlns="http://www.w3.org/2000/svg">
<path d="M9.49958 19C8.60956 19 7.73953 19.2639 6.99951 19.7584C6.25949 20.2529 5.68272 20.9557 5.34212 21.7779C5.00153 22.6002 4.91241 23.505 5.08605 24.3779C5.25968 25.2508 5.68826 26.0526 6.3176 26.682C6.94694 27.3113 7.74876 27.7399 8.62167 27.9135C9.49459 28.0872 10.3994 27.9981 11.2217 27.6575C12.0439 27.3169 12.7467 26.7401 13.2412 26.0001C13.7357 25.26 13.9996 24.39 13.9996 23.5C13.9996 22.3065 13.5255 21.1619 12.6816 20.318C11.8376 19.4741 10.6931 19 9.49958 19ZM9.49958 26C9.00513 26 8.52178 25.8534 8.11065 25.5787C7.69953 25.304 7.3791 24.9135 7.18988 24.4567C7.00066 23.9999 6.95115 23.4972 7.04762 23.0123C7.14408 22.5273 7.38218 22.0819 7.73181 21.7322C8.08144 21.3826 8.5269 21.1445 9.01185 21.048C9.49681 20.9516 9.99947 21.0011 10.4563 21.1903C10.9131 21.3795 11.3036 21.7 11.5783 22.1111C11.853 22.5222 11.9996 23.0055 11.9996 23.5C11.9996 23.8283 11.9349 24.1534 11.8093 24.4567C11.6836 24.76 11.4995 25.0356 11.2673 25.2678C11.0352 25.4999 10.7596 25.6841 10.4563 25.8097C10.153 25.9353 9.82788 26 9.49958 26ZM5.29208 13.2925L7.08583 11.5L5.29208 9.7075C5.10444 9.51986 4.99902 9.26536 4.99902 9C4.99902 8.73464 5.10444 8.48014 5.29208 8.2925C5.47972 8.10486 5.73422 7.99944 5.99958 7.99944C6.26494 7.99944 6.51944 8.10486 6.70708 8.2925L8.49958 10.0863L10.2921 8.2925C10.4797 8.10486 10.7342 7.99944 10.9996 7.99944C11.2649 7.99944 11.5194 8.10486 11.7071 8.2925C11.8947 8.48014 12.0001 8.73464 12.0001 9C12.0001 9.26536 11.8947 9.51986 11.7071 9.7075L9.91333 11.5L11.7071 13.2925C11.8947 13.4801 12.0001 13.7346 12.0001 14C12.0001 14.2654 11.8947 14.5199 11.7071 14.7075C11.5194 14.8951 11.2649 15.0006 10.9996 15.0006C10.7342 15.0006 10.4797 14.8951 10.2921 14.7075L8.49958 12.9137L6.70708 14.7075C6.51944 14.8951 6.26494 15.0006 5.99958 15.0006C5.73422 15.0006 5.47972 14.8951 5.29208 14.7075C5.10444 14.5199 4.99902 14.2654 4.99902 14C4.99902 13.7346 5.10444 13.4801 5.29208 13.2925ZM28.7071 25.2925C28.8 25.3854 28.8737 25.4957 28.924 25.6171C28.9743 25.7385 29.0001 25.8686 29.0001 26C29.0001 26.1314 28.9743 26.2615 28.924 26.3829C28.8737 26.5043 28.8 26.6146 28.7071 26.7075C28.6142 26.8004 28.5039 26.8741 28.3825 26.9244C28.2611 26.9747 28.131 27.0006 27.9996 27.0006C27.8682 27.0006 27.7381 26.9747 27.6167 26.9244C27.4953 26.8741 27.385 26.8004 27.2921 26.7075L25.4996 24.9137L23.7071 26.7075C23.5194 26.8951 23.2649 27.0006 22.9996 27.0006C22.7342 27.0006 22.4797 26.8951 22.2921 26.7075C22.1044 26.5199 21.999 26.2654 21.999 26C21.999 25.7346 22.1044 25.4801 22.2921 25.2925L24.0858 23.5L22.2921 21.7075C22.1044 21.5199 21.999 21.2654 21.999 21C21.999 20.7346 22.1044 20.4801 22.2921 20.2925C22.4797 20.1049 22.7342 19.9994 22.9996 19.9994C23.2649 19.9994 23.5194 20.1049 23.7071 20.2925L25.4996 22.0863L27.2921 20.2925C27.4797 20.1049 27.7342 19.9994 27.9996 19.9994C28.2649 19.9994 28.5194 20.1049 28.7071 20.2925C28.8947 20.4801 29.0001 20.7346 29.0001 21C29.0001 21.2654 28.8947 21.5199 28.7071 21.7075L26.9133 23.5L28.7071 25.2925ZM23.0583 14.1038C22.2858 16.895 19.8933 19.3075 17.2421 19.97C17.1627 19.9897 17.0813 19.9998 16.9996 20C16.7557 19.9995 16.5205 19.91 16.338 19.7482C16.1555 19.5865 16.0385 19.3636 16.0088 19.1216C15.9792 18.8795 16.039 18.635 16.177 18.434C16.3151 18.2329 16.5218 18.0893 16.7583 18.03C18.7121 17.5413 20.5521 15.6663 21.1333 13.57C21.5321 12.1325 21.5358 9.945 19.2946 7.7075L18.9996 7.41375V10C18.9996 10.2652 18.8942 10.5196 18.7067 10.7071C18.5192 10.8946 18.2648 11 17.9996 11C17.7344 11 17.48 10.8946 17.2925 10.7071C17.1049 10.5196 16.9996 10.2652 16.9996 10V5C16.9996 4.73478 17.1049 4.48043 17.2925 4.29289C17.48 4.10536 17.7344 4 17.9996 4H22.9996C23.2648 4 23.5192 4.10536 23.7067 4.29289C23.8942 4.48043 23.9996 4.73478 23.9996 5C23.9996 5.26522 23.8942 5.51957 23.7067 5.70711C23.5192 5.89464 23.2648 6 22.9996 6H20.4133L20.7071 6.2925C22.9871 8.57375 23.8221 11.3475 23.0583 14.1038Z" fill="#222222"/>
</svg>
