<svg width="32" height="32" viewBox="0 0 32 32" fill="none" xmlns="http://www.w3.org/2000/svg">
<path d="M12.9998 17.5C12.9998 17.7967 12.9118 18.0867 12.747 18.3334C12.5822 18.58 12.3479 18.7723 12.0738 18.8858C11.7997 18.9993 11.4981 19.0291 11.2072 18.9712C10.9162 18.9133 10.6489 18.7704 10.4391 18.5607C10.2294 18.3509 10.0865 18.0836 10.0286 17.7926C9.97074 17.5017 10.0004 17.2001 10.114 16.926C10.2275 16.6519 10.4198 16.4176 10.6664 16.2528C10.9131 16.088 11.2031 16 11.4998 16C11.8976 16 12.2792 16.158 12.5605 16.4393C12.8418 16.7206 12.9998 17.1022 12.9998 17.5ZM20.4998 16C20.2031 16 19.9131 16.088 19.6664 16.2528C19.4198 16.4176 19.2275 16.6519 19.114 16.926C19.0004 17.2001 18.9707 17.5017 19.0286 17.7926C19.0865 18.0836 19.2294 18.3509 19.4391 18.5607C19.6489 18.7704 19.9162 18.9133 20.2072 18.9712C20.4981 19.0291 20.7997 18.9993 21.0738 18.8858C21.3479 18.7723 21.5822 18.58 21.747 18.3334C21.9118 18.0867 21.9998 17.7967 21.9998 17.5C21.9998 17.1022 21.8418 16.7206 21.5605 16.4393C21.2792 16.158 20.8976 16 20.4998 16ZM29.806 24.1125L21.431 27.8262C21.1792 27.9382 20.9072 27.9975 20.6316 28.0004C20.356 28.0034 20.0827 27.9499 19.8286 27.8434C19.5744 27.7369 19.3447 27.5795 19.1536 27.3809C18.9625 27.1824 18.814 26.9468 18.7173 26.6887L17.7035 23.9387C17.1435 23.9762 16.5756 23.9954 15.9998 23.9962C15.424 23.9971 14.856 23.9779 14.296 23.9387L13.2823 26.6887C13.1854 26.9467 13.0368 27.1821 12.8457 27.3806C12.6546 27.579 12.4249 27.7364 12.1708 27.8429C11.9167 27.9494 11.6435 28.0029 11.368 28C11.0924 27.9971 10.8204 27.938 10.5685 27.8262L2.19355 24.1125C1.76128 23.9235 1.41016 23.5872 1.20275 23.1634C0.995344 22.7397 0.945126 22.2561 1.06105 21.7987L4.7498 7.25C4.84715 6.87163 5.05272 6.52987 5.34134 6.26656C5.62997 6.00324 5.98911 5.82981 6.3748 5.7675L10.8823 5.02625C11.3792 4.94633 11.8881 5.05408 12.3099 5.32854C12.7318 5.60301 13.0365 6.02458 13.1648 6.51125L13.5723 8.11625C14.3665 8.03875 15.1756 8 15.9998 8C16.824 8 17.6323 8.03875 18.4248 8.11625L18.8323 6.51125C18.9603 6.02443 19.265 5.60269 19.6869 5.32818C20.1088 5.05367 20.6179 4.94604 21.1148 5.02625L25.6248 5.7675C26.0105 5.82981 26.3696 6.00324 26.6582 6.26656C26.9469 6.52987 27.1524 6.87163 27.2498 7.25L30.941 21.7975C31.0571 22.2553 31.0067 22.7394 30.7988 23.1635C30.5909 23.5875 30.239 23.9239 29.806 24.1125ZM28.9998 22.285L25.3085 7.75C25.3085 7.75 25.3085 7.75 25.2985 7.75L20.791 7C20.7878 6.99813 20.7842 6.99715 20.7804 6.99715C20.7767 6.99715 20.773 6.99813 20.7698 7L20.416 8.3925C21.041 8.51 21.666 8.65 22.2698 8.82C22.5078 8.88067 22.7152 9.02683 22.8524 9.23061C22.9895 9.43439 23.0469 9.68152 23.0135 9.92488C22.9801 10.1682 22.8584 10.3908 22.6714 10.5501C22.4844 10.7095 22.2454 10.7944 21.9998 10.7887C21.9085 10.7885 21.8177 10.7759 21.7298 10.7512C19.8622 10.2445 17.9349 9.99179 15.9998 10C14.0648 9.99138 12.1374 10.2437 10.2698 10.75C10.1422 10.7894 10.008 10.8029 9.87515 10.7897C9.74227 10.7764 9.61339 10.7367 9.49612 10.6728C9.37885 10.6089 9.27556 10.5222 9.19234 10.4178C9.10912 10.3133 9.04767 10.1933 9.0116 10.0647C8.97553 9.93613 8.96558 9.80163 8.98234 9.66915C8.99909 9.53667 9.04221 9.40888 9.10915 9.29333C9.17609 9.17778 9.2655 9.07681 9.37209 8.99637C9.47869 8.91594 9.60031 8.85767 9.7298 8.825C10.3323 8.655 10.9523 8.515 11.5823 8.3975L11.2285 7C11.2285 7 11.2285 7 11.2135 7L6.70105 7.74125C6.69736 7.74024 6.69348 7.74024 6.6898 7.74125L2.9998 22.2912L11.3748 26C11.379 26.0023 11.3837 26.0035 11.3885 26.0035C11.3933 26.0035 11.3981 26.0023 11.4023 26L12.2498 23.715C11.4007 23.5851 10.56 23.4048 9.7323 23.175C9.48576 23.0962 9.27937 22.9249 9.15651 22.6971C9.03365 22.4693 9.0039 22.2028 9.0735 21.9535C9.1431 21.7042 9.30665 21.4916 9.52974 21.3604C9.75284 21.2292 10.0181 21.1897 10.2698 21.25C12.1373 21.7569 14.0647 22.0092 15.9998 22C17.9349 22.0092 19.8623 21.7569 21.7298 21.25C21.9852 21.1784 22.2587 21.2112 22.4899 21.3412C22.7212 21.4712 22.8913 21.6877 22.9629 21.9431C23.0345 22.1986 23.0017 22.472 22.8717 22.7032C22.7418 22.9345 22.5252 23.1046 22.2698 23.1762C21.4412 23.4057 20.5997 23.5856 19.7498 23.715L20.5935 26C20.5976 26.0022 20.6021 26.0033 20.6067 26.0033C20.6113 26.0033 20.6158 26.0022 20.6198 26L28.9998 22.285Z" fill="#222222"/>
</svg>
