<svg width="32" height="32" viewBox="0 0 32 32" fill="none" xmlns="http://www.w3.org/2000/svg">
<path d="M28.6247 26.7812C28.4176 26.9467 28.1533 27.0232 27.8898 26.9939C27.6264 26.9647 27.3853 26.8319 27.2197 26.625C27.0484 26.4087 22.9997 21.2325 22.9997 11C22.9997 9.14348 22.2622 7.36301 20.9494 6.05025C19.6366 4.7375 17.8562 4 15.9997 4C14.1431 4 12.3627 4.7375 11.0499 6.05025C9.73715 7.36301 8.99965 9.14348 8.99965 11C8.99965 21.2325 4.9534 26.4087 4.7809 26.625C4.61514 26.8324 4.37379 26.9654 4.10995 26.9948C3.84611 27.0242 3.58139 26.9476 3.37403 26.7819C3.16666 26.6161 3.03364 26.3748 3.00422 26.1109C2.9748 25.8471 3.05139 25.5824 3.21715 25.375C3.2359 25.35 4.1784 24.1375 5.1084 21.7825C5.9709 19.6 6.99965 15.955 6.99965 11C6.99965 8.61305 7.94786 6.32387 9.63569 4.63604C11.3235 2.94821 13.6127 2 15.9997 2C18.3866 2 20.6758 2.94821 22.3636 4.63604C24.0514 6.32387 24.9997 8.61305 24.9997 11C24.9997 15.955 26.0284 19.6 26.8909 21.785C27.8259 24.1525 28.7734 25.365 28.7834 25.3775C28.9482 25.5848 29.0241 25.849 28.9943 26.1122C28.9646 26.3754 28.8316 26.616 28.6247 26.7812ZM12.4997 11C12.203 11 11.913 11.088 11.6663 11.2528C11.4196 11.4176 11.2274 11.6519 11.1138 11.926C11.0003 12.2001 10.9706 12.5017 11.0285 12.7926C11.0864 13.0836 11.2292 13.3509 11.439 13.5607C11.6488 13.7704 11.916 13.9133 12.207 13.9712C12.498 14.0291 12.7996 13.9994 13.0737 13.8858C13.3478 13.7723 13.582 13.58 13.7469 13.3334C13.9117 13.0867 13.9997 12.7967 13.9997 12.5C13.9997 12.1022 13.8416 11.7206 13.5603 11.4393C13.279 11.158 12.8975 11 12.4997 11ZM20.9997 12.5C20.9997 12.2033 20.9117 11.9133 20.7469 11.6666C20.582 11.42 20.3478 11.2277 20.0737 11.1142C19.7996 11.0006 19.498 10.9709 19.207 11.0288C18.916 11.0867 18.6488 11.2296 18.439 11.4393C18.2292 11.6491 18.0864 11.9164 18.0285 12.2074C17.9706 12.4983 18.0003 12.7999 18.1138 13.074C18.2274 13.3481 18.4196 13.5824 18.6663 13.7472C18.913 13.912 19.203 14 19.4997 14C19.8975 14 20.279 13.842 20.5603 13.5607C20.8416 13.2794 20.9997 12.8978 20.9997 12.5ZM12.4472 16.105C12.2107 15.9927 11.9396 15.9776 11.6922 16.0629C11.4447 16.1482 11.2405 16.3271 11.1235 16.5613C11.0065 16.7955 10.986 17.0662 11.0664 17.3153C11.1468 17.5644 11.3216 17.7721 11.5534 17.8937L15.5534 19.8937C15.692 19.9636 15.8451 20 16.0003 20C16.1555 20 16.3086 19.9636 16.4472 19.8937L20.4472 17.8937C20.6844 17.7751 20.8647 17.567 20.9485 17.3154C21.0323 17.0637 21.0127 16.7891 20.894 16.5519C20.7753 16.3147 20.5673 16.1343 20.3156 16.0505C20.064 15.9667 19.7894 15.9863 19.5522 16.105L15.9997 17.8813L12.4472 16.105ZM15.9997 22C14.7962 22.0096 13.6172 22.3403 12.5844 22.9581C11.5516 23.5758 10.7024 24.4581 10.1247 25.5138C9.99569 25.7458 9.9642 26.0196 10.0371 26.2749C10.11 26.5302 10.2813 26.746 10.5134 26.875C10.7455 27.004 11.0193 27.0355 11.2745 26.9625C11.5298 26.8896 11.7457 26.7183 11.8747 26.4862C12.2719 25.7369 12.8658 25.1098 13.5926 24.6725C14.3193 24.2352 15.1515 24.0042 15.9997 24.0042C16.8478 24.0042 17.68 24.2352 18.4067 24.6725C19.1335 25.1098 19.7274 25.7369 20.1247 26.4862C20.2536 26.7183 20.4695 26.8896 20.7248 26.9625C20.98 27.0355 21.2538 27.004 21.4859 26.875C21.718 26.746 21.8893 26.5302 21.9622 26.2749C22.0351 26.0196 22.0036 25.7458 21.8747 25.5138C21.2969 24.4581 20.4477 23.5758 19.4149 22.9581C18.3821 22.3403 17.2031 22.0096 15.9997 22Z" fill="#222222"/>
</svg>
