<svg width="32" height="32" viewBox="0 0 32 32" fill="none" xmlns="http://www.w3.org/2000/svg">
<path d="M23.4217 4C21.073 3.04 18.2792 2.76 15.5555 3.2125C12.6255 3.7 10.0892 4.9625 8.22048 6.8625C6.83048 8.2775 5.14298 11.0313 5.00798 16.1125C4.92048 19.4238 5.55673 23.0425 6.70923 25.7938C7.86173 28.545 9.32673 30 10.9405 30C13.808 30 15.0942 27.49 16.3367 25.0625C17.2117 23.3625 18.1067 21.605 19.5305 20.64C20.263 20.14 21.2555 19.765 22.3067 19.355C25.2892 18.205 29.0005 16.7725 29.0005 11.6463C29.0005 8.2375 26.9667 5.45 23.4217 4ZM21.5867 17.4888C20.4267 17.9363 19.3305 18.3638 18.408 18.9888C16.5605 20.2388 15.4955 22.3213 14.5567 24.155C13.3342 26.5375 12.5067 28 10.9405 28C10.3755 28 9.41798 27.0788 8.55423 25.0188C7.50548 22.5188 6.92923 19.2075 7.00798 16.165C7.09923 12.7075 8.03673 9.90125 9.64673 8.26375C11.9042 5.9675 15.0992 5 18.0717 5C19.6425 4.98608 21.2013 5.27291 22.6642 5.845C24.2892 6.5075 27.0005 8.1425 27.0005 11.6413C27.0005 15.4013 24.4917 16.375 21.5867 17.4888Z" fill="#222222"/>
</svg>
