<svg width="32" height="32" viewBox="0 0 32 32" fill="none" xmlns="http://www.w3.org/2000/svg">
<path d="M27.6416 16C28.3787 15.3423 28.8464 14.4351 28.9545 13.4532C29.0627 12.4713 28.8036 11.484 28.2273 10.6817C27.651 9.87939 26.7981 9.31871 25.8331 9.10767C24.868 8.89664 23.859 9.05019 23.0004 9.53874V6.99999C22.9995 6.18789 22.7514 5.3953 22.2891 4.7276C21.8269 4.0599 21.1723 3.54873 20.4125 3.26203C19.6527 2.97534 18.8236 2.92671 18.0355 3.12261C17.2474 3.31851 16.5375 3.74966 16.0004 4.35874C15.3427 3.62163 14.4355 3.15396 13.4536 3.04583C12.4717 2.9377 11.4844 3.19674 10.6821 3.77307C9.87978 4.3494 9.3191 5.20224 9.10807 6.1673C8.89704 7.13236 9.05059 8.14138 9.53913 8.99999H7.00039C6.18828 9.0009 5.3957 9.24898 4.728 9.71125C4.0603 10.1735 3.54912 10.8281 3.26243 11.5879C2.97574 12.3477 2.92711 13.1768 3.12301 13.9649C3.31891 14.753 3.75006 15.4628 4.35914 16C3.62203 16.6577 3.15436 17.5649 3.04623 18.5468C2.93809 19.5287 3.19714 20.5159 3.77347 21.3183C4.3498 22.1206 5.20263 22.6813 6.1677 22.8923C7.13276 23.1033 8.14178 22.9498 9.00039 22.4612V25C9.0013 25.8121 9.24938 26.6047 9.71165 27.2724C10.1739 27.9401 10.8285 28.4513 11.5883 28.7379C12.3481 29.0246 13.1772 29.0733 13.9653 28.8774C14.7534 28.6815 15.4632 28.2503 16.0004 27.6412C16.6581 28.3783 17.5653 28.846 18.5472 28.9541C19.5291 29.0623 20.5163 28.8032 21.3187 28.2269C22.121 27.6506 22.6817 26.7977 22.8927 25.8327C23.1037 24.8676 22.9502 23.8586 22.4616 23H25.0004C25.8125 22.9991 26.6051 22.751 27.2728 22.2887C27.9405 21.8265 28.4516 21.1719 28.7383 20.4121C29.025 19.6523 29.0737 18.8232 28.8778 18.0351C28.6819 17.247 28.2507 16.5371 27.6416 16ZM9.00039 19C9.00039 19.3956 8.88309 19.7822 8.66332 20.1111C8.44356 20.44 8.1312 20.6964 7.76575 20.8477C7.4003 20.9991 6.99817 21.0387 6.6102 20.9616C6.22224 20.8844 5.86588 20.6939 5.58617 20.4142C5.30647 20.1345 5.11598 19.7781 5.03881 19.3902C4.96164 19.0022 5.00125 18.6001 5.15263 18.2346C5.304 17.8692 5.56035 17.5568 5.88924 17.337C6.21814 17.1173 6.60482 17 7.00039 17H9.00039V19ZM15.0004 25C15.0004 25.5304 14.7897 26.0391 14.4146 26.4142C14.0395 26.7893 13.5308 27 13.0004 27C12.47 27 11.9612 26.7893 11.5862 26.4142C11.2111 26.0391 11.0004 25.5304 11.0004 25V19C11.0004 18.4696 11.2111 17.9608 11.5862 17.5858C11.9612 17.2107 12.47 17 13.0004 17H15.0004V25ZM15.0004 15H7.00039C6.46995 15 5.96124 14.7893 5.58617 14.4142C5.2111 14.0391 5.00039 13.5304 5.00039 13C5.00039 12.4696 5.2111 11.9608 5.58617 11.5858C5.96124 11.2107 6.46995 11 7.00039 11H13.0004C13.5308 11 14.0395 11.2107 14.4146 11.5858C14.7897 11.9608 15.0004 12.4696 15.0004 13V15ZM15.0004 8.99999H13.0004C12.6048 8.99999 12.2181 8.88269 11.8892 8.66293C11.5603 8.44316 11.304 8.13081 11.1526 7.76536C11.0013 7.3999 10.9616 6.99777 11.0388 6.60981C11.116 6.22185 11.3065 5.86548 11.5862 5.58577C11.8659 5.30607 12.2222 5.11559 12.6102 5.03842C12.9982 4.96125 13.4003 5.00085 13.7658 5.15223C14.1312 5.3036 14.4436 5.55995 14.6633 5.88885C14.8831 6.21775 15.0004 6.60443 15.0004 6.99999V8.99999ZM17.0004 6.99999C17.0004 6.46956 17.2111 5.96085 17.5862 5.58577C17.9612 5.2107 18.47 4.99999 19.0004 4.99999C19.5308 4.99999 20.0395 5.2107 20.4146 5.58577C20.7897 5.96085 21.0004 6.46956 21.0004 6.99999V13C21.0004 13.5304 20.7897 14.0391 20.4146 14.4142C20.0395 14.7893 19.5308 15 19.0004 15H17.0004V6.99999ZM19.0004 27C18.47 27 17.9612 26.7893 17.5862 26.4142C17.2111 26.0391 17.0004 25.5304 17.0004 25V23H19.0004C19.5308 23 20.0395 23.2107 20.4146 23.5858C20.7897 23.9608 21.0004 24.4696 21.0004 25C21.0004 25.5304 20.7897 26.0391 20.4146 26.4142C20.0395 26.7893 19.5308 27 19.0004 27ZM25.0004 21H19.0004C18.47 21 17.9612 20.7893 17.5862 20.4142C17.2111 20.0391 17.0004 19.5304 17.0004 19V17H25.0004C25.5308 17 26.0395 17.2107 26.4146 17.5858C26.7897 17.9608 27.0004 18.4696 27.0004 19C27.0004 19.5304 26.7897 20.0391 26.4146 20.4142C26.0395 20.7893 25.5308 21 25.0004 21ZM25.0004 15H23.0004V13C23.0004 12.6044 23.1177 12.2177 23.3374 11.8888C23.5572 11.5599 23.8696 11.3036 24.235 11.1522C24.6005 11.0009 25.0026 10.9612 25.3906 11.0384C25.7785 11.1156 26.1349 11.3061 26.4146 11.5858C26.6943 11.8655 26.8848 12.2218 26.962 12.6098C27.0391 12.9978 26.9995 13.3999 26.8481 13.7654C26.6968 14.1308 26.4404 14.4432 26.1115 14.6629C25.7826 14.8827 25.3959 15 25.0004 15Z" fill="#222222"/>
</svg>
