<svg width="32" height="32" viewBox="0 0 32 32" fill="none" xmlns="http://www.w3.org/2000/svg">
<path d="M30.9999 10.0001C31.0004 9.45194 30.8721 8.91131 30.6254 8.42179C30.3787 7.93227 30.0204 7.50755 29.5795 7.18184C29.1386 6.85614 28.6273 6.63855 28.0869 6.54662C27.5465 6.45469 26.992 6.49099 26.4682 6.65258C25.9444 6.81417 25.4658 7.09655 25.0711 7.47695C24.6764 7.85736 24.3766 8.32516 24.1958 8.84266C24.015 9.36017 23.9583 9.9129 24.0302 10.4563C24.1021 10.9998 24.3007 11.5187 24.6099 11.9714L21.2612 16.0964L18.2499 9.17511C18.7991 8.71289 19.1929 8.09297 19.3779 7.3994C19.563 6.70583 19.5302 5.97214 19.2842 5.29779C19.0382 4.62344 18.5908 4.04104 18.0026 3.62953C17.4145 3.21803 16.714 2.99731 15.9962 2.99731C15.2784 2.99731 14.5779 3.21803 13.9897 3.62953C13.4016 4.04104 12.9542 4.62344 12.7082 5.29779C12.4621 5.97214 12.4294 6.70583 12.6144 7.3994C12.7994 8.09297 13.1932 8.71289 13.7424 9.17511L10.7387 16.0926L7.38994 11.9676C7.82011 11.3373 8.0325 10.5837 7.99474 9.82147C7.95699 9.05929 7.67116 8.33033 7.18079 7.74561C6.69043 7.16089 6.0224 6.75246 5.27844 6.58252C4.53448 6.41259 3.75537 6.49045 3.05976 6.80426C2.36415 7.11807 1.79016 7.65063 1.42521 8.32082C1.06026 8.99102 0.924354 9.76213 1.03818 10.5167C1.15201 11.2713 1.50935 11.968 2.05576 12.5007C2.60217 13.0334 3.30771 13.373 4.06494 13.4676L5.87494 24.3289C5.95275 24.7958 6.19367 25.22 6.55485 25.526C6.91603 25.8321 7.37405 26 7.84744 26.0001H24.1524C24.6258 26 25.0838 25.8321 25.445 25.526C25.8062 25.22 26.0471 24.7958 26.1249 24.3289L27.9337 13.4726C28.7802 13.3669 29.5589 12.9557 30.1235 12.3162C30.6881 11.6768 30.9998 10.8532 30.9999 10.0001ZM15.9999 5.00011C16.2966 5.00011 16.5866 5.08809 16.8333 5.25291C17.08 5.41773 17.2722 5.652 17.3858 5.92609C17.4993 6.20018 17.529 6.50178 17.4711 6.79275C17.4132 7.08372 17.2704 7.351 17.0606 7.56077C16.8508 7.77055 16.5835 7.91341 16.2926 7.97129C16.0016 8.02917 15.7 7.99947 15.4259 7.88593C15.1518 7.7724 14.9176 7.58014 14.7527 7.33347C14.5879 7.0868 14.4999 6.79679 14.4999 6.50011C14.4999 6.10229 14.658 5.72076 14.9393 5.43945C15.2206 5.15815 15.6021 5.00011 15.9999 5.00011ZM2.99994 10.0001C2.99994 9.70344 3.08791 9.41343 3.25273 9.16676C3.41756 8.92009 3.65182 8.72783 3.92591 8.6143C4.2 8.50076 4.5016 8.47106 4.79257 8.52894C5.08355 8.58681 5.35082 8.72968 5.5606 8.93945C5.77038 9.14923 5.91324 9.41651 5.97112 9.70748C6.02899 9.99845 5.99929 10.3001 5.88576 10.5741C5.77223 10.8482 5.57997 11.0825 5.33329 11.2473C5.08662 11.4121 4.79661 11.5001 4.49994 11.5001C4.10211 11.5001 3.72058 11.3421 3.43928 11.0608C3.15797 10.7795 2.99994 10.3979 2.99994 10.0001ZM27.4999 11.5001C27.2033 11.5001 26.9133 11.4121 26.6666 11.2473C26.4199 11.0825 26.2277 10.8482 26.1141 10.5741C26.0006 10.3001 25.9709 9.99845 26.0288 9.70748C26.0866 9.41651 26.2295 9.14923 26.4393 8.93945C26.6491 8.72968 26.9163 8.58681 27.2073 8.52894C27.4983 8.47106 27.7999 8.50076 28.074 8.6143C28.3481 8.72783 28.5823 8.92009 28.7471 9.16676C28.912 9.41343 28.9999 9.70344 28.9999 10.0001C28.9999 10.3979 28.8419 10.7795 28.5606 11.0608C28.2793 11.3421 27.8978 11.5001 27.4999 11.5001Z" fill="#222222"/>
</svg>
