<svg width="32" height="32" viewBox="0 0 32 32" fill="none" xmlns="http://www.w3.org/2000/svg">
<path d="M29.9804 7.54116C29.9485 7.69889 29.879 7.8466 29.7778 7.97173C29.6766 8.09686 29.5467 8.19572 29.3991 8.25991L22.3754 11.3187C24.6607 11.9297 26.6101 13.4227 27.7954 15.4699C28.3901 16.4847 28.776 17.6081 28.9306 18.7741C29.0851 19.9401 29.0052 21.1252 28.6954 22.2599C28.6526 22.418 28.5716 22.5632 28.4595 22.6827C28.3474 22.8021 28.2078 22.8922 28.0527 22.9451C27.8977 22.9979 27.732 23.0118 27.5703 22.9857C27.4086 22.9595 27.2558 22.894 27.1254 22.7949L17.0004 15.0849V27.9999C17.0004 28.2651 16.895 28.5195 16.7075 28.707C16.52 28.8946 16.2656 28.9999 16.0004 28.9999C15.7352 28.9999 15.4808 28.8946 15.2933 28.707C15.1057 28.5195 15.0004 28.2651 15.0004 27.9999V15.0849L4.87539 22.7949C4.74493 22.8943 4.59203 22.96 4.43018 22.9863C4.26833 23.0127 4.10249 22.9988 3.94726 22.9459C3.79203 22.8931 3.65219 22.8029 3.54004 22.6832C3.42788 22.5636 3.34687 22.4182 3.30414 22.2599C2.99436 21.1252 2.9144 19.9401 3.06895 18.7741C3.2235 17.6081 3.60945 16.4847 4.20414 15.4699C5.38975 13.4225 7.33962 11.9294 9.62539 11.3187L2.60164 8.25991C2.45419 8.19569 2.3244 8.09684 2.22329 7.97176C2.12218 7.84668 2.05273 7.69906 2.02084 7.54142C1.98894 7.38378 1.99554 7.22078 2.04007 7.06623C2.0846 6.91169 2.16575 6.77016 2.27664 6.65366C3.05857 5.81619 4.00435 5.14844 5.05522 4.69189C6.1061 4.23535 7.23963 3.99976 8.38539 3.99976C9.53115 3.99976 10.6647 4.23535 11.7156 4.69189C12.7664 5.14844 13.7122 5.81619 14.4941 6.65366C15.0941 7.28586 15.5994 8.00162 15.9941 8.77866C16.3908 8.00123 16.8982 7.28545 17.5004 6.65366C18.2823 5.81619 19.2281 5.14844 20.279 4.69189C21.3298 4.23535 22.4634 3.99976 23.6091 3.99976C24.7549 3.99976 25.8884 4.23535 26.9393 4.69189C27.9902 5.14844 28.936 5.81619 29.7179 6.65366C29.8299 6.7695 29.9123 6.91069 29.958 7.06522C30.0037 7.21974 30.0114 7.38303 29.9804 7.54116Z" fill="#222222"/>
</svg>
