<svg width="32" height="32" viewBox="0 0 32 32" fill="none" xmlns="http://www.w3.org/2000/svg">
<path d="M21.5001 8.99976C20.9826 8.99953 20.4659 9.04133 19.9551 9.12476C19.7734 7.24771 19.0062 5.4753 17.7619 4.05825C16.5176 2.64121 14.8592 1.65128 13.0214 1.22851C12.8563 1.1906 12.6843 1.19521 12.5215 1.24194C12.3588 1.28866 12.2105 1.37596 12.0907 1.49565C11.9709 1.61534 11.8834 1.76349 11.8366 1.92622C11.7897 2.08895 11.7849 2.26092 11.8226 2.42601C12.0581 3.4521 12.0594 4.51806 11.8263 5.5447C11.5932 6.57134 11.1318 7.53226 10.4763 8.35604C9.82077 9.17982 8.98803 9.84529 8.03997 10.303C7.0919 10.7607 6.05287 10.9988 5.00011 10.9998C4.47053 10.9998 3.94262 10.9403 3.42636 10.8223C3.26118 10.7843 3.08905 10.7889 2.92615 10.8356C2.76324 10.8824 2.61489 10.9698 2.49504 11.0897C2.37519 11.2095 2.28777 11.3579 2.24099 11.5208C2.19421 11.6837 2.18961 11.8558 2.22761 12.021C2.49625 13.1794 2.99112 14.2734 3.68379 15.24C4.37645 16.2066 5.25326 17.0268 6.26386 17.6535C5.55311 18.6218 5.12456 19.7681 5.02576 20.9651C4.92697 22.1622 5.1618 23.3632 5.70418 24.4349C6.24657 25.5066 7.07531 26.4071 8.09841 27.0363C9.12152 27.6656 10.299 27.9991 11.5001 27.9998H21.5001C24.0197 27.9998 26.436 26.9989 28.2176 25.2173C29.9992 23.4357 31.0001 21.0193 31.0001 18.4998C31.0001 15.9802 29.9992 13.5638 28.2176 11.7823C26.436 10.0007 24.0197 8.99976 21.5001 8.99976ZM4.67136 12.9998C4.78011 12.9998 4.89011 12.9998 5.00011 12.9998C7.38624 12.9971 9.67389 12.0481 11.3611 10.3608C13.0484 8.67355 13.9975 6.3859 14.0001 3.99976C14.0001 3.88851 14.0001 3.77726 14.0001 3.66601C15.1516 4.20489 16.1334 5.04915 16.8386 6.107C17.5439 7.16485 17.9456 8.39581 18.0001 9.66601C16.7787 10.151 15.6707 10.8833 14.7458 11.8169C13.8208 12.7505 13.0988 13.8652 12.6251 15.091C11.7796 14.9447 10.9136 14.9673 10.0769 15.1573C9.24017 15.3474 8.44938 15.7013 7.75011 16.1985C6.40517 15.493 5.32499 14.3707 4.67136 12.9998ZM21.5001 25.9998H11.5001C10.8846 25.9986 10.2759 25.8713 9.71166 25.6255C9.14738 25.3798 8.6395 25.0209 8.21944 24.5711C7.79937 24.1212 7.47605 23.59 7.26946 23.0102C7.06287 22.4305 6.97741 21.8145 7.01836 21.2004C7.0593 20.5863 7.22579 19.9871 7.50752 19.4399C7.78925 18.8927 8.18023 18.4091 8.6563 18.019C9.13237 17.6289 9.68339 17.3407 10.2753 17.172C10.8672 17.0034 11.4874 16.9579 12.0976 17.0385C12.0514 17.3348 12.0189 17.6373 12.0014 17.9423C11.9938 18.0736 12.0122 18.2051 12.0555 18.3293C12.0988 18.4535 12.1661 18.568 12.2536 18.6662C12.3411 18.7644 12.4471 18.8444 12.5656 18.9016C12.684 18.9589 12.8125 18.9922 12.9439 18.9998C13.0752 19.0073 13.2067 18.9889 13.3309 18.9456C13.4551 18.9024 13.5696 18.835 13.6678 18.7475C13.766 18.66 13.846 18.554 13.9032 18.4356C13.9605 18.3171 13.9938 18.1886 14.0014 18.0573C14.0294 17.5585 14.1082 17.0639 14.2364 16.581C14.2364 16.561 14.2476 16.541 14.2514 16.521C14.6189 15.1703 15.3568 13.9493 16.3816 12.9958C17.4065 12.0423 18.6775 11.3943 20.0511 11.125C21.4248 10.8557 22.8464 10.9758 24.1554 11.4718C25.4644 11.9677 26.6087 12.8198 27.459 13.9317C28.3093 15.0437 28.8319 16.3712 28.9676 17.7644C29.1033 19.1576 28.8468 20.561 28.227 21.8161C27.6073 23.0713 26.649 24.1282 25.4603 24.8674C24.2716 25.6067 22.8999 25.9989 21.5001 25.9998Z" fill="#222222"/>
</svg>
