<svg width="32" height="32" viewBox="0 0 32 32" fill="none" xmlns="http://www.w3.org/2000/svg">
<path d="M20.9997 9.50004C20.9997 9.79671 20.9117 10.0867 20.7469 10.3334C20.5821 10.5801 20.3478 10.7723 20.0737 10.8859C19.7996 10.9994 19.498 11.0291 19.2071 10.9712C18.9161 10.9133 18.6488 10.7705 18.439 10.5607C18.2293 10.3509 18.0864 10.0836 18.0285 9.79267C17.9707 9.5017 18.0004 9.2001 18.1139 8.92601C18.2274 8.65192 18.4197 8.41765 18.6664 8.25283C18.913 8.08801 19.203 8.00004 19.4997 8.00004C19.8975 8.00004 20.2791 8.15807 20.5604 8.43938C20.8417 8.72068 20.9997 9.10221 20.9997 9.50004ZM27.0897 17.955C24.6685 22.3175 20.1597 24.675 13.6847 24.9675L10.9347 31.3938C10.8574 31.5742 10.7287 31.7279 10.5647 31.8357C10.4006 31.9435 10.2085 32.0007 10.0122 32H9.94846C9.74239 31.9871 9.54537 31.9107 9.38445 31.7814C9.22353 31.652 9.1066 31.476 9.04971 31.2775L7.19971 24.7988L0.724708 22.945C0.525672 22.8891 0.348854 22.7729 0.218592 22.6124C0.0883289 22.4518 0.0110245 22.2549 -0.00268201 22.0486C-0.0163886 21.8423 0.0341766 21.6368 0.142054 21.4605C0.249931 21.2841 0.409818 21.1455 0.599708 21.0638L7.02596 18.3138C7.31971 11.8413 9.67721 7.33379 14.0372 4.91129C17.131 3.19379 20.6297 2.93129 23.0222 3.01379C25.3522 3.09379 27.5222 3.54754 27.8797 3.76379C28.0257 3.84983 28.1474 3.97155 28.2335 4.11754C28.4447 4.47379 28.8997 6.64379 28.9835 8.97379C29.0685 11.3613 28.8072 14.8613 27.0897 17.955ZM20.1922 21.58C19.0368 21.1395 18.0306 20.3792 17.2912 19.388C16.5519 18.3968 16.11 17.2156 16.0172 15.9825C14.7844 15.8899 13.6034 15.4482 12.6124 14.7091C11.6214 13.97 10.8613 12.964 10.421 11.8088C9.55013 13.7913 9.07929 16.1909 9.00846 19.0075C9.00403 19.1993 8.94452 19.3858 8.83702 19.5447C8.72953 19.7037 8.57859 19.8283 8.40221 19.9038L3.97846 21.7963L8.28471 23.0288C8.44809 23.0756 8.59685 23.1633 8.71692 23.2836C8.83699 23.4039 8.92442 23.5528 8.97096 23.7163L10.201 28.0213L12.096 23.5963C12.1716 23.4201 12.2964 23.2695 12.4553 23.1622C12.6142 23.0549 12.8005 22.9956 12.9922 22.9913C15.8064 22.9238 18.2064 22.4534 20.1922 21.58ZM26.5522 5.44629C24.7835 5.07129 18.5397 4.07129 14.0147 7.29004C13.2658 7.82442 12.5929 8.45814 12.0147 9.17379C11.9673 9.82679 12.063 10.4823 12.2951 11.0945C12.5272 11.7067 12.89 12.2609 13.3584 12.7184C13.8267 13.1759 14.3892 13.5257 15.0067 13.7434C15.6242 13.9611 16.2817 14.0414 16.9335 13.9788C17.0803 13.9646 17.2284 13.9832 17.3672 14.033C17.506 14.0828 17.6321 14.1628 17.7364 14.2671C17.8407 14.3714 17.9206 14.4974 17.9705 14.6363C18.0203 14.7751 18.0388 14.9232 18.0247 15.07C17.9622 15.722 18.0427 16.3797 18.2607 16.9974C18.4787 17.615 18.8289 18.1775 19.2868 18.6458C19.7447 19.1141 20.2993 19.4767 20.9119 19.7085C21.5245 19.9402 22.1803 20.0355 22.8335 19.9875C23.5464 19.4092 24.1772 18.7363 24.7085 17.9875C27.9272 13.4663 26.9272 7.21754 26.5522 5.44629Z" fill="#222222"/>
</svg>
