<svg width="32" height="32" viewBox="0 0 32 32" fill="none" xmlns="http://www.w3.org/2000/svg">
<path d="M16 11.9998C15.2089 11.9998 14.4355 12.2344 13.7777 12.6739C13.1199 13.1134 12.6072 13.7381 12.3045 14.469C12.0017 15.2 11.9225 16.0042 12.0769 16.7801C12.2312 17.5561 12.6122 18.2688 13.1716 18.8282C13.731 19.3876 14.4437 19.7686 15.2196 19.9229C15.9956 20.0773 16.7998 19.998 17.5307 19.6953C18.2616 19.3925 18.8864 18.8799 19.3259 18.2221C19.7654 17.5643 20 16.7909 20 15.9998C20 14.9389 19.5786 13.9215 18.8284 13.1714C18.0783 12.4212 17.0609 11.9998 16 11.9998ZM16 17.9998C15.6044 17.9998 15.2178 17.8825 14.8889 17.6627C14.56 17.443 14.3036 17.1306 14.1522 16.7651C14.0009 16.3997 13.9613 15.9976 14.0384 15.6096C14.1156 15.2216 14.3061 14.8653 14.5858 14.5856C14.8655 14.3059 15.2219 14.1154 15.6098 14.0382C15.9978 13.961 16.3999 14.0006 16.7654 14.152C17.1308 14.3034 17.4432 14.5597 17.6629 14.8886C17.8827 15.2175 18 15.6042 18 15.9998C18 16.5302 17.7893 17.0389 17.4142 17.414C17.0391 17.7891 16.5304 17.9998 16 17.9998ZM19.79 5.66978L20.9662 1.25728C21.0103 1.0919 21.0111 0.917993 20.9687 0.752193C20.9263 0.586393 20.8421 0.434251 20.724 0.310327C20.606 0.186402 20.4581 0.0948421 20.2946 0.0444086C20.1311 -0.00602486 19.9573 -0.0136441 19.79 0.02228C17.1913 0.660057 14.7147 1.71952 12.4587 3.15853C7.57875 6.29603 5 10.736 5 15.9998C5.00124 18.2523 5.69311 20.4503 6.98232 22.2974C8.27153 24.1445 10.0961 25.5518 12.21 26.3298L11.0337 30.7423C10.9897 30.9077 10.9889 31.0816 11.0313 31.2474C11.0737 31.4132 11.1579 31.5653 11.276 31.6892C11.394 31.8132 11.5419 31.9047 11.7054 31.9552C11.8689 32.0056 12.0427 32.0132 12.21 31.9773C14.8087 31.3395 17.2853 30.28 19.5413 28.841C24.4212 25.7035 27 21.2635 27 15.9998C26.9989 13.7472 26.3071 11.5492 25.0179 9.70204C23.7287 7.85491 21.904 6.44756 19.79 5.66978ZM18.5075 27.1248C16.918 28.137 15.2102 28.9501 13.4225 29.546L14.3888 25.921C14.457 25.6648 14.4207 25.3919 14.2878 25.1624C14.1549 24.9329 13.9363 24.7656 13.68 24.6973C11.7645 24.1849 10.0716 23.0548 8.86382 21.4823C7.65604 19.9097 7.0009 17.9826 7 15.9998C7 11.4035 9.185 7.65978 13.4925 4.87478C15.082 3.86259 16.7898 3.04942 18.5775 2.45353L17.6112 6.07853C17.543 6.3348 17.5793 6.60769 17.7122 6.83719C17.8451 7.06668 18.0637 7.23398 18.32 7.30228C20.2355 7.81464 21.9284 8.94472 23.1362 10.5173C24.344 12.0898 24.9991 14.0169 25 15.9998C25 20.596 22.815 24.3398 18.5075 27.1248Z" fill="#222222"/>
</svg>
