<svg width="32" height="32" viewBox="0 0 32 32" fill="none" xmlns="http://www.w3.org/2000/svg">
<path d="M29.7813 28.6248C29.6992 28.7274 29.5978 28.8129 29.4827 28.8763C29.3676 28.9397 29.2411 28.9798 29.1105 28.9943C28.9799 29.0088 28.8477 28.9975 28.7215 28.9609C28.5953 28.9243 28.4776 28.8632 28.375 28.781C28.3288 28.7435 23.5225 24.9998 16 24.9998C8.4775 24.9998 3.67 28.7498 3.625 28.7823C3.52233 28.8643 3.40449 28.9254 3.27822 28.9619C3.15195 28.9985 3.01972 29.0098 2.88908 28.9952C2.62524 28.9658 2.38389 28.8328 2.21813 28.6254C2.05237 28.418 1.97577 28.1533 2.00519 27.8895C2.03461 27.6256 2.16764 27.3843 2.375 27.2185C2.57875 27.056 7.19 23.436 14.6613 23.0373C14.2726 21.4888 14.1338 19.8882 14.25 18.296C14.4675 15.5823 15.615 11.9673 19.625 9.23602C18.9408 9.06634 18.2373 8.98691 17.5325 8.99977C15.1575 9.07727 13.665 10.4635 12.97 13.2398C12.9164 13.4566 12.7918 13.6492 12.616 13.7869C12.4402 13.9247 12.2233 13.9996 12 13.9998C11.9182 14.0002 11.8367 13.9901 11.7575 13.9698C11.5003 13.9054 11.2791 13.7415 11.1427 13.5142C11.0063 13.2868 10.9657 13.0145 11.03 12.7573C12.1863 8.13852 15.1688 7.07977 17.4675 7.00727C18.3805 6.9874 19.292 7.0904 20.1775 7.31352C19.6988 6.52227 18.9988 5.69727 18.0263 5.28227C16.7763 4.75227 15.255 4.98352 13.4875 5.97102C13.2554 6.10031 12.9815 6.13212 12.726 6.05945C12.4705 5.98678 12.2543 5.81558 12.125 5.58352C11.9957 5.35145 11.9639 5.07753 12.0366 4.82201C12.1092 4.56649 12.2804 4.35031 12.5125 4.22102C14.855 2.91477 16.9775 2.65352 18.8225 3.44602C20.3838 4.11602 21.4138 5.41852 22.0563 6.57102C22.8288 5.36602 23.7913 4.54977 24.855 4.20352C26.3375 3.71977 27.935 4.11352 29.605 5.37477C29.8073 5.53779 29.9381 5.77313 29.9699 6.03095C30.0017 6.28877 29.9319 6.54885 29.7753 6.75612C29.6187 6.96339 29.3876 7.1016 29.1309 7.14147C28.8742 7.18135 28.6121 7.11977 28.4 6.96977C27.2863 6.12852 26.3038 5.83727 25.4813 6.10352C24.57 6.39727 23.8725 7.35352 23.435 8.17977C24.3345 8.3621 25.1999 8.6839 26 9.13352C27.8263 10.1773 30 12.3898 30 17.001C30 17.2662 29.8946 17.5206 29.7071 17.7081C29.5196 17.8957 29.2652 18.001 29 18.001C28.7348 18.001 28.4804 17.8957 28.2929 17.7081C28.1054 17.5206 28 17.2662 28 17.001C28 14.0685 26.9913 12.001 25 10.876C24.7681 10.7443 24.528 10.6274 24.2813 10.526C24.9109 11.8061 25.1317 13.2487 24.9138 14.6585C24.7566 15.7015 24.379 16.6991 23.8063 17.5848C23.653 17.7997 23.4209 17.9454 23.1606 17.9899C22.9004 18.0344 22.6331 17.9742 22.417 17.8223C22.201 17.6705 22.0538 17.4394 22.0075 17.1795C21.9613 16.9195 22.0197 16.6518 22.17 16.4348C22.2625 16.2985 24.2113 13.3873 21.7625 10.2635C18.3875 12.1648 16.5263 14.9198 16.2425 18.4623C16.132 19.997 16.2941 21.5391 16.7213 23.0173C24.5525 23.2435 29.4113 27.0585 29.6213 27.2248C29.8273 27.3898 29.9598 27.6295 29.9897 27.8918C30.0197 28.1541 29.9448 28.4175 29.7813 28.6248ZM3 17.4998C3 16.8075 3.20527 16.1308 3.58986 15.5553C3.97444 14.9797 4.52107 14.5311 5.16061 14.2662C5.80015 14.0013 6.50389 13.932 7.18282 14.067C7.86175 14.2021 8.48539 14.5354 8.97488 15.0249C9.46436 15.5144 9.7977 16.138 9.93275 16.817C10.0678 17.4959 9.99849 18.1996 9.73358 18.8392C9.46868 19.4787 9.02007 20.0253 8.4445 20.4099C7.86893 20.7945 7.19224 20.9998 6.5 20.9998C5.57175 20.9998 4.68151 20.631 4.02513 19.9746C3.36875 19.3183 3 18.428 3 17.4998ZM5 17.4998C5 17.7964 5.08798 18.0864 5.2528 18.3331C5.41762 18.5798 5.65189 18.7721 5.92598 18.8856C6.20007 18.9991 6.50167 19.0288 6.79264 18.9709C7.08361 18.9131 7.35088 18.7702 7.56066 18.5604C7.77044 18.3506 7.9133 18.0834 7.97118 17.7924C8.02906 17.5014 7.99935 17.1998 7.88582 16.9257C7.77229 16.6517 7.58003 16.4174 7.33336 16.2526C7.08669 16.0877 6.79668 15.9998 6.5 15.9998C6.10218 15.9998 5.72065 16.1578 5.43934 16.4391C5.15804 16.7204 5 17.1019 5 17.4998Z" fill="#222222"/>
</svg>
