<svg width="32" height="32" viewBox="0 0 32 32" fill="none" xmlns="http://www.w3.org/2000/svg">
<path d="M29.192 17.7786C29.0638 17.65 28.9029 17.5588 28.7267 17.5148C28.5506 17.4707 28.3657 17.4755 28.192 17.5286C26.2852 18.105 24.2578 18.1533 22.3257 17.6684C20.3936 17.1835 18.6293 16.1834 17.2207 14.7749C15.8122 13.3663 14.8121 11.602 14.3272 9.66989C13.8423 7.7378 13.8906 5.71034 14.467 3.80356C14.5205 3.62981 14.5257 3.44477 14.4819 3.26832C14.438 3.09188 14.347 2.93072 14.2184 2.80217C14.0899 2.67362 13.9287 2.58255 13.7523 2.53874C13.5758 2.49494 13.3908 2.50006 13.217 2.55356C10.5808 3.36111 8.26646 4.97955 6.60329 7.17856C5.1488 9.10963 4.2616 11.408 4.04137 13.8155C3.82113 16.223 4.27658 18.6442 5.35655 20.8072C6.43651 22.9701 8.09821 24.789 10.155 26.0596C12.2117 27.3302 14.582 28.0021 16.9995 27.9998C19.82 28.0085 22.5654 27.0916 24.8145 25.3898C27.0135 23.7266 28.632 21.4123 29.4395 18.7761C29.4924 18.603 29.4973 18.4187 29.4537 18.2431C29.4102 18.0674 29.3197 17.9069 29.192 17.7786ZM23.612 23.7923C21.494 25.3876 18.8709 26.1642 16.2257 25.9789C13.5805 25.7937 11.0913 24.6592 9.21621 22.7843C7.34113 20.9094 6.20643 18.4202 6.021 15.775C5.83557 13.1299 6.61188 10.5068 8.20704 8.38856C9.24629 7.01613 10.5899 5.90362 12.132 5.13856C12.0442 5.75509 11.9999 6.37705 11.9995 6.99981C12.0032 10.4465 13.374 13.751 15.8112 16.1882C18.2484 18.6254 21.5528 19.9962 24.9995 19.9998C25.6235 19.9996 26.2468 19.9553 26.8645 19.8673C26.0988 21.4097 24.9854 22.7533 23.612 23.7923Z" fill="#222222"/>
</svg>
