<svg width="32" height="32" viewBox="0 0 32 32" fill="none" xmlns="http://www.w3.org/2000/svg">
<path d="M20.4996 10C21.1918 10 21.8685 9.79473 22.4441 9.41015C23.0197 9.02556 23.4683 8.47894 23.7332 7.83939C23.9981 7.19985 24.0674 6.49612 23.9323 5.81719C23.7973 5.13825 23.464 4.51461 22.9745 4.02513C22.485 3.53564 21.8613 3.2023 21.1824 3.06725C20.5035 2.9322 19.7997 3.00152 19.1602 3.26642C18.5207 3.53133 17.974 3.97993 17.5895 4.55551C17.2049 5.13108 16.9996 5.80777 16.9996 6.5C16.9996 7.42826 17.3683 8.3185 18.0247 8.97487C18.6811 9.63125 19.5713 10 20.4996 10ZM20.4996 5C20.7963 5 21.0863 5.08798 21.333 5.2528C21.5796 5.41762 21.7719 5.65189 21.8854 5.92598C21.9989 6.20007 22.0287 6.50167 21.9708 6.79264C21.9129 7.08361 21.77 7.35088 21.5603 7.56066C21.3505 7.77044 21.0832 7.9133 20.7922 7.97118C20.5013 8.02906 20.1997 7.99935 19.9256 7.88582C19.6515 7.77229 19.4172 7.58003 19.2524 7.33336C19.0876 7.08668 18.9996 6.79667 18.9996 6.5C18.9996 6.10218 19.1576 5.72065 19.4389 5.43934C19.7202 5.15804 20.1018 5 20.4996 5ZM31.8596 24.49L25.0396 12.98C24.8637 12.6802 24.6121 12.4318 24.31 12.2598C24.0079 12.0878 23.666 11.9982 23.3183 12C22.9709 11.9982 22.6291 12.0878 22.3272 12.2598C22.0253 12.4318 21.7739 12.6802 21.5983 12.98L18.3283 18.5L12.7233 8.9875C12.5467 8.68733 12.2948 8.43848 11.9925 8.26559C11.6901 8.09269 11.3479 8.00174 10.9996 8.00174C10.6513 8.00174 10.3091 8.09269 10.0067 8.26559C9.70441 8.43848 9.45247 8.68733 9.27585 8.9875L0.138348 24.4925C0.0489071 24.6444 0.00118716 24.8172 2.18658e-05 24.9934C-0.00114343 25.1696 0.0442873 25.343 0.131713 25.4961C0.219138 25.6491 0.345452 25.7763 0.497861 25.8648C0.65027 25.9533 0.82336 25.9999 0.999598 26H30.9996C31.1761 26 31.3495 25.9532 31.502 25.8645C31.6546 25.7758 31.781 25.6483 31.8684 25.4949C31.9557 25.3415 32.0009 25.1678 31.9994 24.9913C31.9978 24.8148 31.9496 24.6418 31.8596 24.49ZM10.9996 10L13.9458 15H8.05335L10.9996 10ZM2.7496 24L6.8746 17H15.1246L17.4671 20.975L19.2496 24H2.7496ZM21.5708 24L19.4883 20.465L23.3183 14L29.2496 24H21.5708Z" fill="#222222"/>
</svg>
