<svg width="32" height="32" viewBox="0 0 32 32" fill="none" xmlns="http://www.w3.org/2000/svg">
<path d="M27.9717 18.7613C28.0031 18.8889 28.009 19.0213 27.9892 19.1512C27.9693 19.281 27.9241 19.4057 27.8561 19.5181C27.7881 19.6304 27.6986 19.7283 27.5927 19.8061C27.4869 19.8838 27.3667 19.94 27.2392 19.9713L24.1592 20.7213L24.9667 23.7351C25.0007 23.862 25.0094 23.9943 24.9922 24.1246C24.9751 24.2548 24.9325 24.3804 24.8668 24.4942C24.8011 24.6079 24.7136 24.7076 24.6093 24.7876C24.5051 24.8675 24.3861 24.9261 24.2592 24.9601C24.175 24.9843 24.088 24.9978 24.0004 25.0001C23.7805 24.9999 23.5667 24.9271 23.3922 24.7931C23.2178 24.6591 23.0924 24.4713 23.0354 24.2588L22.0704 20.6588L17.0004 17.7326V23.5863L19.7079 26.2926C19.8009 26.3855 19.8746 26.4958 19.9248 26.6172C19.9751 26.7386 20.001 26.8687 20.001 27.0001C20.001 27.1315 19.9751 27.2616 19.9248 27.383C19.8746 27.5044 19.8009 27.6147 19.7079 27.7076C19.615 27.8005 19.5047 27.8742 19.3833 27.9245C19.2619 27.9747 19.1318 28.0006 19.0004 28.0006C18.869 28.0006 18.7389 27.9747 18.6175 27.9245C18.4962 27.8742 18.3858 27.8005 18.2929 27.7076L16.0004 25.4138L13.7079 27.7076C13.615 27.8005 13.5047 27.8742 13.3833 27.9245C13.2619 27.9747 13.1318 28.0006 13.0004 28.0006C12.869 28.0006 12.7389 27.9747 12.6175 27.9245C12.4962 27.8742 12.3858 27.8005 12.2929 27.7076C12.2 27.6147 12.1263 27.5044 12.076 27.383C12.0258 27.2616 11.9999 27.1315 11.9999 27.0001C11.9999 26.8687 12.0258 26.7386 12.076 26.6172C12.1263 26.4958 12.2 26.3855 12.2929 26.2926L15.0004 23.5863V17.7326L9.93169 20.6588L8.96669 24.2588C8.90971 24.4715 8.78413 24.6595 8.60942 24.7935C8.4347 24.9275 8.22064 25.0001 8.00044 25.0001C7.91269 24.9999 7.82532 24.9886 7.74044 24.9663C7.61353 24.9324 7.49455 24.8738 7.3903 24.7938C7.28606 24.7139 7.19858 24.6142 7.13288 24.5004C7.06718 24.3866 7.02453 24.2611 7.00738 24.1308C6.99024 24.0006 6.99892 23.8682 7.03294 23.7413L7.84044 20.7276L4.76044 19.9776C4.50285 19.9142 4.28096 19.7512 4.14359 19.5243C4.00622 19.2974 3.96462 19.0252 4.02794 18.7676C4.09126 18.51 4.25432 18.2881 4.48123 18.1507C4.70815 18.0133 4.98035 17.9717 5.23794 18.0351L8.91919 18.9388L14.0004 16.0001L8.92044 13.0676L5.23919 13.9713C5.16109 13.9907 5.0809 14.0003 5.00044 14.0001C4.75593 14.0002 4.51983 13.9108 4.33677 13.7487C4.15372 13.5866 4.03641 13.363 4.00701 13.1203C3.97761 12.8776 4.03816 12.6325 4.17722 12.4313C4.31628 12.2302 4.52421 12.087 4.76169 12.0288L7.84169 11.2788L7.03419 8.25882C6.96557 8.00255 7.00155 7.72952 7.13423 7.49979C7.26692 7.27006 7.48543 7.10244 7.74169 7.03382C7.99796 6.96519 8.27099 7.00118 8.50072 7.13386C8.73045 7.26654 8.89807 7.48505 8.96669 7.74132L9.93169 11.3413L15.0004 14.2676V8.41382L12.2929 5.70757C12.1053 5.51993 11.9999 5.26543 11.9999 5.00007C11.9999 4.86867 12.0258 4.73856 12.076 4.61717C12.1263 4.49578 12.2 4.38548 12.2929 4.29257C12.3858 4.19966 12.4962 4.12596 12.6175 4.07567C12.7389 4.02539 12.869 3.99951 13.0004 3.99951C13.2658 3.99951 13.5203 4.10493 13.7079 4.29257L16.0004 6.58632L18.2929 4.29257C18.4806 4.10493 18.7351 3.99951 19.0004 3.99951C19.2658 3.99951 19.5203 4.10493 19.7079 4.29257C19.8956 4.48021 20.001 4.7347 20.001 5.00007C20.001 5.26543 19.8956 5.51993 19.7079 5.70757L17.0004 8.41382V14.2676L22.0692 11.3413L23.0342 7.74132C23.1028 7.48505 23.2704 7.26654 23.5002 7.13386C23.7299 7.00118 24.0029 6.96519 24.2592 7.03382C24.5155 7.10244 24.734 7.27006 24.8666 7.49979C24.9993 7.72952 25.0353 8.00255 24.9667 8.25882L24.1592 11.2726L27.2392 12.0226C27.4833 12.0747 27.6991 12.2162 27.8441 12.4194C27.9892 12.6225 28.053 12.8726 28.0231 13.1204C27.9932 13.3682 27.8717 13.5959 27.6825 13.7586C27.4932 13.9214 27.2499 14.0075 27.0004 14.0001C26.92 14.0003 26.8398 13.9907 26.7617 13.9713L23.0804 13.0676L18.0004 16.0001L23.0804 18.9326L26.7617 18.0288C26.8892 17.9974 27.0217 17.9915 27.1516 18.0113C27.2814 18.0312 27.4061 18.0764 27.5184 18.1444C27.6308 18.2124 27.7287 18.3019 27.8064 18.4078C27.8842 18.5136 27.9404 18.6338 27.9717 18.7613Z" fill="#222222"/>
</svg>
