<svg width="32" height="32" viewBox="0 0 32 32" fill="none" xmlns="http://www.w3.org/2000/svg">
<path d="M28.7897 23.3864L23.0397 16.0001H25.9997C26.1864 16.0001 26.3695 15.9478 26.5281 15.8492C26.6867 15.7505 26.8145 15.6093 26.8969 15.4418C26.9794 15.2742 27.0133 15.0868 26.9948 14.901C26.9763 14.7151 26.9061 14.5381 26.7922 14.3901L16.7922 1.39013C16.6987 1.26876 16.5787 1.17046 16.4413 1.10282C16.3039 1.03518 16.1528 1 15.9997 1C15.8465 1 15.6954 1.03518 15.558 1.10282C15.4206 1.17046 15.3006 1.26876 15.2072 1.39013L5.20715 14.3901C5.09321 14.5381 5.023 14.7151 5.00448 14.901C4.98596 15.0868 5.01987 15.2742 5.10236 15.4418C5.18485 15.6093 5.31263 15.7505 5.47122 15.8492C5.62981 15.9478 5.81287 16.0001 5.99965 16.0001H8.95465L3.20465 23.3864C3.08948 23.5345 3.01831 23.7121 2.99929 23.8988C2.98027 24.0855 3.01416 24.2737 3.09709 24.4421C3.18002 24.6104 3.30864 24.752 3.46824 24.8507C3.62785 24.9494 3.812 25.0012 3.99965 25.0001H14.9997V30.0001C14.9997 30.2653 15.105 30.5197 15.2925 30.7072C15.4801 30.8948 15.7344 31.0001 15.9997 31.0001C16.2649 31.0001 16.5192 30.8948 16.7068 30.7072C16.8943 30.5197 16.9997 30.2653 16.9997 30.0001V25.0001H27.9997C28.1869 25.0002 28.3704 24.9478 28.5292 24.8487C28.6881 24.7496 28.816 24.608 28.8983 24.4398C28.9806 24.2717 29.0141 24.0838 28.9949 23.8975C28.9757 23.7113 28.9046 23.5342 28.7897 23.3864ZM6.04465 23.0001L11.7947 15.6139C11.9098 15.4657 11.981 15.2882 12 15.1015C12.019 14.9148 11.9851 14.7265 11.9022 14.5582C11.8193 14.3899 11.6907 14.2483 11.5311 14.1496C11.3715 14.0509 11.1873 13.9991 10.9997 14.0001H8.0309L15.9997 3.64013L23.9684 14.0001H20.9997C20.8125 14.0003 20.6292 14.0529 20.4705 14.1521C20.3118 14.2512 20.1841 14.3929 20.102 14.561C20.0198 14.7291 19.9865 14.9169 20.0057 15.103C20.025 15.2892 20.0961 15.4661 20.2109 15.6139L25.9547 23.0001H6.04465Z" fill="#222222"/>
</svg>
