<svg width="32" height="32" viewBox="0 0 32 32" fill="none" xmlns="http://www.w3.org/2000/svg">
<path d="M27.7702 22.156C27.9396 22.3593 28.0216 22.6214 27.9982 22.885C27.9748 23.1485 27.8478 23.3921 27.6452 23.5623C25.4752 25.361 23.5377 25.9998 21.7702 25.9998C19.4477 25.9998 17.4177 24.8973 15.5289 23.8748C12.3602 22.1548 9.62392 20.6698 5.64517 23.9673C5.54429 24.0524 5.42756 24.1166 5.30172 24.1564C5.17587 24.1962 5.0434 24.2106 4.91194 24.1989C4.78048 24.1873 4.65264 24.1497 4.53577 24.0883C4.41891 24.027 4.31534 23.9432 4.23104 23.8416C4.14674 23.7401 4.08337 23.6229 4.04459 23.4967C4.0058 23.3706 3.99238 23.238 4.00508 23.1066C4.01778 22.9753 4.05636 22.8477 4.11859 22.7313C4.18082 22.6149 4.26548 22.512 4.36767 22.4285C9.38892 18.2685 13.1577 20.3135 16.4839 22.1185C19.6527 23.8373 22.3889 25.3223 26.3677 22.026C26.5713 21.8583 26.833 21.7778 27.0957 21.8022C27.3584 21.8265 27.6008 21.9537 27.7702 22.156ZM26.3614 15.031C22.3827 18.3285 19.6464 16.8435 16.4777 15.1235C13.1514 13.3198 9.38267 11.2748 4.36142 15.4348C4.15972 15.6049 4.03343 15.8478 4.01008 16.1107C3.98673 16.3735 4.06821 16.6349 4.23676 16.8379C4.40531 17.041 4.64727 17.1691 4.90992 17.1945C5.17256 17.2199 5.4346 17.1405 5.63892 16.9735C9.61767 13.676 12.3539 15.161 15.5227 16.881C17.4114 17.9048 19.4414 19.006 21.7639 19.006C23.5314 19.006 25.4689 18.3673 27.6389 16.5685C27.7411 16.485 27.8258 16.3821 27.888 16.2657C27.9502 16.1493 27.9888 16.0218 28.0015 15.8904C28.0142 15.759 28.0008 15.6265 27.962 15.5003C27.9232 15.3742 27.8599 15.2569 27.7756 15.1554C27.6913 15.0539 27.5877 14.97 27.4708 14.9087C27.354 14.8474 27.2261 14.8098 27.0947 14.7981C26.9632 14.7864 26.8307 14.8009 26.7049 14.8406C26.579 14.8804 26.4623 14.9447 26.3614 15.0298V15.031ZM5.63892 9.97476C9.61767 6.67851 12.3539 8.16351 15.5227 9.88226C17.4114 10.9073 19.4414 12.0073 21.7639 12.0073C23.5314 12.0073 25.4689 11.3673 27.6389 9.56976C27.7411 9.48625 27.8258 9.38334 27.888 9.26696C27.9502 9.15057 27.9888 9.02302 28.0015 8.89166C28.0142 8.7603 28.0008 8.62772 27.962 8.50157C27.9232 8.37542 27.8599 8.25819 27.7756 8.15665C27.6913 8.05511 27.5877 7.97126 27.4708 7.90993C27.354 7.84861 27.2261 7.81102 27.0947 7.79934C26.9632 7.78766 26.8307 7.80212 26.7049 7.84188C26.579 7.88164 26.4623 7.94592 26.3614 8.03101C22.3827 11.3285 19.6464 9.84351 16.4777 8.12351C13.1514 6.32226 9.38267 4.27726 4.36142 8.43726C4.25566 8.51957 4.16753 8.62229 4.10225 8.73933C4.03697 8.85637 3.99588 8.98534 3.98142 9.11857C3.96696 9.2518 3.97943 9.38657 4.01809 9.51489C4.05675 9.64321 4.1208 9.76245 4.20644 9.86552C4.29209 9.96859 4.39758 10.0534 4.51664 10.1149C4.63571 10.1764 4.76592 10.2134 4.89954 10.2235C5.03317 10.2337 5.16748 10.217 5.29449 10.1742C5.42151 10.1315 5.53864 10.0637 5.63892 9.97476Z" fill="#222222"/>
</svg>
