<svg width="32" height="32" viewBox="0 0 32 32" fill="none" xmlns="http://www.w3.org/2000/svg">
<path d="M30 9.99997V25C30 25.2652 29.8946 25.5195 29.7071 25.7071C29.5196 25.8946 29.2652 26 29 26H20C19.2056 26 18.4437 26.315 17.8813 26.876C17.3189 27.437 17.002 28.1981 17 28.9925C17.004 29.1966 16.9446 29.397 16.83 29.5661C16.7154 29.7351 16.5512 29.8644 16.36 29.9362C16.2082 29.9948 16.0445 30.0154 15.8829 29.9964C15.7214 29.9774 15.5669 29.9192 15.433 29.827C15.299 29.7347 15.1895 29.6112 15.1141 29.4671C15.0386 29.323 14.9995 29.1626 15 29C15 28.2043 14.6839 27.4413 14.1213 26.8787C13.5587 26.316 12.7956 26 12 26H3C2.73478 26 2.48043 25.8946 2.29289 25.7071C2.10536 25.5195 2 25.2652 2 25V9.99997C2 9.73476 2.10536 9.4804 2.29289 9.29287C2.48043 9.10533 2.73478 8.99997 3 8.99997H11C12.0609 8.99997 13.0783 9.4214 13.8284 10.1715C14.5786 10.9217 15 11.9391 15 13V20.9662C14.9965 21.2243 15.0909 21.4741 15.2641 21.6654C15.4374 21.8568 15.6766 21.9754 15.9338 21.9975C16.0705 22.0066 16.2077 21.9874 16.3368 21.9412C16.4659 21.8951 16.5841 21.8229 16.6841 21.7291C16.7841 21.6353 16.8637 21.522 16.9181 21.3961C16.9724 21.2702 17.0003 21.1346 17 20.9975V13C17 11.9391 17.4214 10.9217 18.1716 10.1715C18.9217 9.4214 19.9391 8.99997 21 8.99997H29C29.2652 8.99997 29.5196 9.10533 29.7071 9.29287C29.8946 9.4804 30 9.73476 30 9.99997ZM11.1012 6.99997H11.125C11.9875 7.01711 12.836 7.22032 13.6127 7.5957C14.3894 7.97109 15.0758 8.50979 15.625 9.17497C15.6719 9.22986 15.7302 9.27393 15.7958 9.30415C15.8614 9.33437 15.9328 9.35001 16.005 9.35001C16.0772 9.35001 16.1486 9.33437 16.2142 9.30415C16.2798 9.27393 16.3381 9.22986 16.385 9.17497C16.9331 8.51106 17.6179 7.9731 18.3928 7.59777C19.1676 7.22243 20.0142 7.01854 20.875 6.99997H20.8988C20.9845 6.99972 21.0687 6.97744 21.1433 6.93527C21.2179 6.8931 21.2804 6.83246 21.3249 6.75916C21.3693 6.68586 21.3941 6.60237 21.397 6.51671C21.3999 6.43104 21.3807 6.34608 21.3412 6.26997C20.838 5.28652 20.073 4.46111 19.1305 3.88471C18.188 3.3083 17.1047 3.0033 16 3.0033C14.8953 3.0033 13.812 3.3083 12.8695 3.88471C11.927 4.46111 11.162 5.28652 10.6587 6.26997C10.6193 6.34608 10.6001 6.43104 10.603 6.51671C10.6059 6.60237 10.6307 6.68586 10.6751 6.75916C10.7196 6.83246 10.7821 6.8931 10.8567 6.93527C10.9313 6.97744 11.0155 6.99972 11.1012 6.99997Z" fill="#222222"/>
</svg>
