<svg width="32" height="32" viewBox="0 0 32 32" fill="none" xmlns="http://www.w3.org/2000/svg">
<g clip-path="url(#clip0_2827_12031)">
<path d="M16 0C24.8366 5.15406e-07 32 7.16344 32 16C32 24.8366 24.8366 32 16 32C7.16344 32 5.1544e-07 24.8366 0 16C0 7.16344 7.16344 0 16 0ZM22.6807 6.3252C22.026 6.32534 21.4651 6.6996 21.2031 7.26074L17.3291 6.4375C17.2169 6.41879 17.1043 6.43708 17.0107 6.49316C16.9172 6.5493 16.8607 6.64358 16.8232 6.75586L15.6445 12.332C13.1557 12.4069 10.9286 13.1365 9.31934 14.3154C8.90766 13.9226 8.32733 13.6611 7.70996 13.6611C6.41889 13.6613 5.37112 14.7089 5.37109 16C5.37109 16.9544 5.93247 17.7595 6.75586 18.1338C6.71848 18.3582 6.7002 18.6016 6.7002 18.8447C6.70037 22.4376 10.8733 25.3379 16.0381 25.3379C21.2027 25.3378 25.3758 22.4375 25.376 18.8447C25.376 18.6015 25.3567 18.3768 25.3193 18.1523C26.0866 17.7781 26.667 16.9544 26.667 16C26.667 14.7089 25.6192 13.6613 24.3281 13.6611C23.692 13.6611 23.1304 13.9039 22.7188 14.3154C21.1282 13.174 18.9199 12.4257 16.4873 12.332L17.5537 7.33594L21.0156 8.06543C21.053 8.94484 21.7826 9.65605 22.6807 9.65625C23.5976 9.65625 24.3467 8.90719 24.3467 7.99023C24.3464 7.07348 23.5975 6.3252 22.6807 6.3252ZM19.3877 21.4453C19.5561 21.2773 19.8365 21.2772 20.0049 21.4453C20.1359 21.6324 20.1362 21.8951 19.9678 22.0635C18.8265 23.2047 16.6564 23.2793 16.0195 23.2793C15.3833 23.2793 13.1931 23.1862 12.0703 22.0635C11.9019 21.8951 11.9019 21.6137 12.0703 21.4453C12.2387 21.277 12.5201 21.2769 12.6885 21.4453C13.3996 22.1564 14.934 22.4189 16.0381 22.4189C17.1422 22.4189 18.6579 22.1564 19.3877 21.4453ZM12.332 16C13.249 16 13.998 16.7491 13.998 17.666C13.9978 18.5828 13.2488 19.3311 12.332 19.3311C11.4154 19.3308 10.6672 18.5826 10.667 17.666C10.667 16.7492 11.4153 16.0003 12.332 16ZM19.668 16C20.5849 16 21.334 16.7491 21.334 17.666C21.3337 18.5828 20.5848 19.3311 19.668 19.3311C18.7513 19.3309 18.0032 18.5827 18.0029 17.666C18.0029 16.7491 18.7511 16.0001 19.668 16Z" fill="#222222"/>
</g>
<defs>
<clipPath id="clip0_2827_12031">
<rect width="32" height="32" fill="white"/>
</clipPath>
</defs>
</svg>
