<svg width="32" height="32" viewBox="0 0 32 32" fill="none" xmlns="http://www.w3.org/2000/svg">
<path d="M31.8843 23.2761C31.6637 22.6714 31.2388 22.3446 30.7567 22.0831C30.6668 22.0341 30.5851 21.985 30.5115 21.9523C30.3644 21.8788 30.2173 21.8053 30.0703 21.7317C28.5667 20.9309 27.39 19.934 26.581 18.741C26.3522 18.4059 26.148 18.0464 25.9845 17.6787C25.911 17.4826 25.9192 17.3682 25.9682 17.2619C26.0172 17.1802 26.0826 17.1148 26.1643 17.0576C26.4258 16.886 26.6873 16.7144 26.867 16.6C27.1857 16.3876 27.4472 16.2242 27.6106 16.1098C28.2235 15.6767 28.6566 15.2191 28.9262 14.7043C29.3103 13.9852 29.3593 13.1435 29.0652 12.3836C28.6566 11.3049 27.6433 10.643 26.4094 10.643C26.148 10.643 25.8946 10.6676 25.6332 10.7248C25.5678 10.7411 25.4942 10.7574 25.4289 10.7738C25.437 10.0384 25.4207 9.26207 25.3553 8.49396C25.1265 5.80555 24.1786 4.40006 23.1981 3.28057C22.5689 2.57783 21.8334 1.98131 21.0081 1.51554C19.5209 0.665707 17.8294 0.23262 15.9908 0.23262C14.1523 0.23262 12.4689 0.665707 10.9817 1.51554C10.1564 1.98131 9.42099 2.57783 8.79179 3.28057C7.81122 4.40006 6.8715 5.81372 6.63453 8.49396C6.56916 9.26207 6.55281 10.0384 6.56098 10.7738C6.49561 10.7574 6.43024 10.7411 6.3567 10.7248C6.10338 10.6676 5.8419 10.643 5.58858 10.643C4.35469 10.643 3.34143 11.3131 2.93286 12.3836C2.63869 13.1435 2.68772 13.9852 3.07177 14.7043C3.34143 15.2191 3.77452 15.6767 4.38738 16.1098C4.55081 16.2242 4.80412 16.3876 5.13098 16.6C5.30258 16.7144 5.5559 16.8779 5.80921 17.0413C5.8991 17.0985 5.97264 17.172 6.02984 17.2619C6.07887 17.3682 6.08704 17.4826 6.00533 17.695C5.8419 18.0546 5.64578 18.4059 5.41698 18.7328C4.62435 19.8931 3.48035 20.8819 2.02583 21.6745C1.25771 22.0831 0.45691 22.3527 0.113709 23.2761C-0.139606 23.9707 0.0238233 24.7551 0.669368 25.4252C0.90634 25.6704 1.18417 25.8828 1.48651 26.0462C2.11572 26.3894 2.78577 26.6591 3.48852 26.847C3.63561 26.8879 3.76635 26.9451 3.88892 27.0268C4.12589 27.2311 4.09321 27.5416 4.40372 27.9992C4.55898 28.2362 4.76327 28.4405 4.99207 28.6039C5.65395 29.0615 6.39756 29.086 7.18201 29.1187C7.89293 29.1432 8.69373 29.1759 9.61711 29.4782C10.0012 29.6008 10.3934 29.846 10.851 30.132C11.9541 30.8102 13.4577 31.7336 15.9827 31.7336C18.5076 31.7336 20.0194 30.802 21.1307 30.1238C21.5883 29.846 21.9805 29.6008 22.3482 29.4782C23.2634 29.1759 24.0724 29.1432 24.7833 29.1187C25.5678 29.086 26.3114 29.0615 26.9733 28.6039C27.2511 28.4078 27.4799 28.1626 27.6433 27.8685C27.8721 27.4844 27.864 27.2148 28.0764 27.0268C28.1908 26.9451 28.3216 26.8879 28.4523 26.8552C29.155 26.6673 29.8415 26.3976 30.4788 26.0462C30.7975 25.8746 31.0917 25.6458 31.3368 25.3762L31.345 25.368C31.9824 24.7143 32.1376 23.9462 31.8843 23.2761ZM29.6453 24.4773C28.2807 25.2291 27.3655 25.1474 26.6628 25.605C26.0581 25.989 26.4176 26.8225 25.9845 27.1249C25.4452 27.4926 23.8599 27.1004 21.8171 27.7786C20.1256 28.3342 19.0551 29.944 16.0154 29.944C12.9756 29.944 11.9296 28.3424 10.2136 27.7786C8.17076 27.1004 6.5855 27.5008 6.04618 27.1249C5.6131 26.8225 5.96447 25.989 5.36795 25.605C4.65704 25.1474 3.75001 25.2291 2.38537 24.4773C1.51103 23.9952 2.00949 23.701 2.29549 23.5621C7.24739 21.1679 8.04002 17.4662 8.0727 17.1884C8.11356 16.8534 8.16259 16.5919 7.79487 16.2568C7.4435 15.93 5.87458 14.9576 5.43332 14.6552C4.71424 14.1486 4.39555 13.6501 4.63252 13.0291C4.79595 12.6042 5.19635 12.4408 5.6131 12.4408C5.74384 12.4408 5.87458 12.4571 6.00533 12.4816C6.79796 12.6532 7.56607 13.0455 8.00733 13.1599C8.06453 13.1762 8.11356 13.1844 8.17076 13.1844C8.40773 13.1844 8.48945 13.0618 8.4731 12.7921C8.42408 11.926 8.3015 10.2426 8.44042 8.66556C8.62836 6.50012 9.32293 5.42149 10.1564 4.4736C10.5568 4.016 12.4281 2.03851 16.0154 2.03851C19.6026 2.03851 21.4739 4.00783 21.8743 4.46543C22.7078 5.41332 23.4023 6.49195 23.5903 8.65739C23.7292 10.2345 23.6066 11.9178 23.5494 12.784C23.5331 13.07 23.6148 13.1762 23.8518 13.1762C23.909 13.1762 23.958 13.168 24.0152 13.1517C24.4565 13.0455 25.2246 12.6451 26.0172 12.4735C26.148 12.4408 26.2787 12.4326 26.4094 12.4326C26.8262 12.4326 27.2266 12.596 27.39 13.0209C27.627 13.642 27.3083 14.1404 26.5892 14.6471C26.1561 14.9494 24.5872 15.9218 24.2277 16.2487C23.8599 16.5837 23.909 16.8452 23.9498 17.1802C23.9825 17.458 24.7751 21.1597 29.727 23.5539C30.0212 23.6929 30.5115 23.9952 29.6453 24.4773Z" fill="#222222"/>
</svg>
