<svg width="32" height="32" viewBox="0 0 32 32" fill="none" xmlns="http://www.w3.org/2000/svg">
<path d="M16 2C23.732 2 30 8.26801 30 16C30 23.732 23.732 30 16 30C8.26801 30 2 23.732 2 16C2 8.26801 8.26801 2 16 2ZM22.0771 20.5303C18.5691 18.4809 14.2 18.01 9.11328 19.1182C8.66692 19.2093 8.39555 19.6346 8.49121 20.0596C8.58695 20.4845 9.03404 20.7424 9.48047 20.6514C14.1363 19.6495 18.0746 20.0594 21.2158 21.8809C21.6144 22.1086 22.125 22.0025 22.3643 21.623C22.6034 21.2435 22.4758 20.758 22.0771 20.5303ZM23.6719 16.8105C19.5419 14.3968 13.5145 13.7293 8.66699 15.126C8.10897 15.2778 7.80637 15.8242 7.96582 16.3555C8.12542 16.8714 8.6989 17.1595 9.25684 17.0078C13.4984 15.7782 18.9679 16.386 22.5557 18.4961C23.0499 18.7692 23.6883 18.6326 23.9912 18.1621C24.2942 17.6915 24.1343 17.0838 23.6719 16.8105ZM25.3936 12.499C20.4504 9.70601 12.6055 9.43263 7.88574 10.7988C7.23197 10.9962 6.84935 11.6647 7.05664 12.2871C7.26409 12.9245 7.96551 13.2735 8.61914 13.0762C12.7331 11.8921 19.8294 12.1199 24.1348 14.5488C24.7245 14.8976 25.4893 14.7004 25.8242 14.124C26.175 13.5623 25.9835 12.833 25.3936 12.499Z" fill="#222222"/>
</svg>
