<svg width="34" height="34" viewBox="0 0 34 34" fill="none" xmlns="http://www.w3.org/2000/svg">
<path d="M0 16.9706L5.42924 11.5413L9.66684 15.7789L14.0461 20.1582L16.8113 22.9234L21.5562 18.1786L27.1262 23.7486L16.9521 33.9226L0 16.9706Z" fill="#0071EB"/>
<path d="M0 16.9706L5.42924 11.5413L9.66684 15.7789L14.0461 20.1582L16.8113 22.9234L21.5562 18.1786L27.1262 23.7486L16.9521 33.9226L0 16.9706Z" fill="#0071EB"/>
<rect x="14.6664" y="17.954" width="4.77835" height="1.99782" transform="rotate(-45 14.6664 17.954)" fill="#0071EB"/>
<path d="M33.9411 16.9706L28.5118 22.3999L24.2742 18.1623L19.8949 13.783L17.1297 11.0178L12.3849 15.7626L6.8149 10.1926L16.989 0.0185587L33.9411 16.9706Z" fill="#0071EB"/>
<path d="M33.9411 16.9706L28.5118 22.3999L24.2742 18.1623L19.8949 13.783L17.1297 11.0178L12.3849 15.7626L6.8149 10.1926L16.989 0.0185587L33.9411 16.9706Z" fill="#0071EB"/>
</svg>
