<svg width="32" height="32" viewBox="0 0 32 32" fill="none" xmlns="http://www.w3.org/2000/svg">
<path d="M25.9997 12C25.9997 11.7033 26.0877 11.4133 26.2525 11.1666C26.4173 10.92 26.6516 10.7277 26.9257 10.6142C27.1998 10.5006 27.5014 10.4709 27.7923 10.5288C28.0833 10.5867 28.3506 10.7295 28.5604 10.9393C28.7701 11.1491 28.913 11.4164 28.9709 11.7073C29.0288 11.9983 28.999 12.2999 28.8855 12.574C28.772 12.8481 28.5797 13.0824 28.3331 13.2472C28.0864 13.412 27.7964 13.5 27.4997 13.5C27.1019 13.5 26.7203 13.3419 26.439 13.0606C26.1577 12.7793 25.9997 12.3978 25.9997 12ZM24.4997 8.99998C24.7964 8.99998 25.0864 8.91201 25.3331 8.74718C25.5797 8.58236 25.772 8.34809 25.8855 8.074C25.999 7.79992 26.0288 7.49832 25.9709 7.20734C25.913 6.91637 25.7701 6.6491 25.5604 6.43932C25.3506 6.22954 25.0833 6.08668 24.7923 6.0288C24.5014 5.97092 24.1998 6.00063 23.9257 6.11416C23.6516 6.22769 23.4173 6.41995 23.2525 6.66662C23.0877 6.9133 22.9997 7.20331 22.9997 7.49998C22.9997 7.8978 23.1577 8.27934 23.439 8.56064C23.7203 8.84194 24.1019 8.99998 24.4997 8.99998ZM28.0822 16C27.818 15.9782 27.556 16.0622 27.3537 16.2335C27.1514 16.4049 27.0254 16.6495 27.0034 16.9137C26.8245 19.0043 26.0521 21.0003 24.7773 22.6668C23.5025 24.3333 21.7781 25.601 19.8073 26.3208C17.8364 27.0406 15.7009 27.1825 13.6521 26.7298C11.6033 26.2771 9.72639 25.2487 8.24226 23.7655C6.75812 22.2823 5.72849 20.406 5.27451 18.3575C4.82052 16.309 4.96107 14.1734 5.67962 12.2021C6.39817 10.2307 7.66482 8.50564 9.33054 7.22974C10.9963 5.95385 12.9917 5.18025 15.0822 4.99998C15.2135 4.98915 15.3414 4.95255 15.4586 4.89229C15.5758 4.83202 15.6799 4.74927 15.7651 4.64875C15.8503 4.54823 15.9149 4.43191 15.9551 4.30644C15.9954 4.18097 16.0105 4.0488 15.9997 3.91748C15.9889 3.78616 15.9523 3.65826 15.892 3.54108C15.8317 3.4239 15.749 3.31973 15.6485 3.23454C15.5479 3.14934 15.4316 3.08477 15.3062 3.04453C15.1807 3.00428 15.0485 2.98915 14.9172 2.99998C12.4472 3.21244 10.0893 4.12591 8.12087 5.63293C6.15243 7.13994 4.65534 9.17781 3.80574 11.5068C2.95614 13.8357 2.78937 16.3589 3.32506 18.7794C3.86075 21.1999 5.07661 23.4171 6.82959 25.1701C8.58257 26.9231 10.7997 28.1389 13.2203 28.6746C15.6408 29.2103 18.1639 29.0435 20.4929 28.1939C22.8219 27.3443 24.8597 25.8473 26.3668 23.8788C27.8738 21.9104 28.7872 19.5524 28.9997 17.0825C29.011 16.9511 28.9962 16.8187 28.9561 16.6931C28.916 16.5674 28.8515 16.4509 28.7662 16.3503C28.6809 16.2497 28.5766 16.1669 28.4592 16.1068C28.3418 16.0467 28.2137 16.0104 28.0822 16ZM15.9997 6.99998C17.7797 6.99998 19.5198 7.52782 20.9998 8.51675C22.4799 9.50569 23.6334 10.9113 24.3146 12.5558C24.9958 14.2004 25.174 16.01 24.8268 17.7558C24.4795 19.5016 23.6223 21.1053 22.3637 22.3639C21.105 23.6226 19.5013 24.4798 17.7555 24.827C16.0097 25.1743 14.2001 24.9961 12.5555 24.3149C10.911 23.6337 9.5054 22.4802 8.51647 21.0001C7.52754 19.5201 6.9997 17.78 6.9997 16C7.00235 13.6138 7.95141 11.3262 9.63866 9.63894C11.3259 7.95169 13.6136 7.00263 15.9997 6.99998ZM14.9997 16C14.9997 16.2652 15.1051 16.5196 15.2926 16.7071C15.4801 16.8946 15.7345 17 15.9997 17H21.9997C22.2649 17 22.5193 16.8946 22.7068 16.7071C22.8943 16.5196 22.9997 16.2652 22.9997 16C22.9997 15.7348 22.8943 15.4804 22.7068 15.2929C22.5193 15.1053 22.2649 15 21.9997 15H16.9997V9.99998C16.9997 9.73476 16.8943 9.48041 16.7068 9.29287C16.5193 9.10534 16.2649 8.99998 15.9997 8.99998C15.7345 8.99998 15.4801 9.10534 15.2926 9.29287C15.1051 9.48041 14.9997 9.73476 14.9997 9.99998V16ZM19.9997 5.99998C20.2964 5.99998 20.5864 5.91201 20.8331 5.74718C21.0797 5.58236 21.272 5.34809 21.3855 5.074C21.499 4.79992 21.5288 4.49832 21.4709 4.20734C21.413 3.91637 21.2701 3.6491 21.0604 3.43932C20.8506 3.22954 20.5833 3.08668 20.2923 3.0288C20.0014 2.97092 19.6998 3.00063 19.4257 3.11416C19.1516 3.22769 18.9173 3.41995 18.7525 3.66662C18.5877 3.9133 18.4997 4.20331 18.4997 4.49998C18.4997 4.8978 18.6577 5.27934 18.939 5.56064C19.2203 5.84194 19.6019 5.99998 19.9997 5.99998Z" fill="#222222"/>
</svg>
