<svg width="32" height="32" viewBox="0 0 32 32" fill="none" xmlns="http://www.w3.org/2000/svg">
<path d="M26.7403 26.3275C26.8304 26.4243 26.9005 26.5381 26.9463 26.6622C26.9922 26.7864 27.013 26.9184 27.0074 27.0506C27.0019 27.1828 26.9702 27.3126 26.9141 27.4325C26.8581 27.5523 26.7788 27.6599 26.6809 27.7489C26.5829 27.8379 26.4683 27.9066 26.3436 27.9509C26.219 27.9953 26.0867 28.0145 25.9546 28.0074C25.8225 28.0003 25.693 27.967 25.5739 27.9095C25.4547 27.852 25.3481 27.7715 25.2603 27.6725L20.8853 22.8662C20.4365 23.0048 19.9614 23.036 19.4984 22.9574C19.0353 22.8789 18.5972 22.6927 18.2192 22.4138C17.8412 22.135 17.534 21.7713 17.3223 21.352C17.1106 20.9328 17.0003 20.4697 17.0003 20C16.9989 19.5787 17.0497 19.1588 17.1515 18.75L12.0003 13.0825C11.9893 13.3477 11.8735 13.5977 11.6782 13.7775C11.4829 13.9573 11.2242 14.0522 10.959 14.0412C10.6938 14.0303 10.4438 13.9144 10.264 13.7192C10.0842 13.5239 9.98931 13.2652 10.0003 13C9.99954 12.3868 10.0931 11.7772 10.2778 11.1925L8.06275 8.74997C7.36135 10.0565 6.9962 11.5171 7.00025 13C7.00025 16.3375 8.0665 17.365 9.1965 18.455C10.2765 19.5 11.5003 20.6762 11.5003 23.5C11.5003 24.6934 11.9744 25.838 12.8183 26.682C13.6622 27.5259 14.8068 28 16.0003 28C17.2803 28 18.3065 27.48 19.229 26.3637C19.3116 26.2596 19.4142 26.173 19.5307 26.109C19.6471 26.045 19.7752 26.0048 19.9074 25.9909C20.0396 25.9769 20.1732 25.9895 20.3005 26.0278C20.4278 26.0661 20.5461 26.1294 20.6487 26.214C20.7512 26.2985 20.8358 26.4027 20.8976 26.5204C20.9594 26.6381 20.9972 26.7669 21.0086 26.8993C21.02 27.0317 21.005 27.1651 20.9643 27.2916C20.9235 27.4182 20.858 27.5353 20.7715 27.6362C19.4765 29.205 17.8753 30 16.0003 30C14.277 29.998 12.6248 29.3125 11.4062 28.094C10.1877 26.8754 9.50224 25.2233 9.50025 23.5C9.50025 21.5262 8.79025 20.8412 7.80775 19.895C6.55775 18.6875 5.00025 17.1875 5.00025 13C4.99514 10.9507 5.56741 8.94149 6.6515 7.20247L5.26025 5.67247C5.17008 5.57561 5.10004 5.46182 5.05417 5.33769C5.00831 5.21357 4.98754 5.08157 4.99306 4.94935C4.99858 4.81714 5.03029 4.68733 5.08635 4.56746C5.14241 4.44759 5.22171 4.34004 5.31964 4.25104C5.41757 4.16205 5.53219 4.09337 5.65686 4.049C5.78153 4.00462 5.91377 3.98543 6.04591 3.99254C6.17805 3.99965 6.30746 4.03292 6.42665 4.09041C6.54584 4.1479 6.65243 4.22848 6.74025 4.32747L26.7403 26.3275ZM11.3865 5.27122C12.7526 4.45555 14.3106 4.01663 15.9016 3.9992C17.4927 3.98177 19.0599 4.38644 20.4436 5.17199C21.8273 5.95753 22.978 7.09586 23.7784 8.47098C24.5789 9.8461 25.0005 11.4088 25.0003 13C25.0003 13.2652 25.1056 13.5195 25.2931 13.7071C25.4807 13.8946 25.735 14 26.0003 14C26.2655 14 26.5198 13.8946 26.7074 13.7071C26.8949 13.5195 27.0003 13.2652 27.0003 13C27.0005 11.055 26.4852 9.14479 25.5066 7.46395C24.5281 5.78311 23.1214 4.39177 21.4299 3.43174C19.7384 2.47171 17.8226 1.97732 15.8778 1.99897C13.933 2.02062 12.0287 2.55753 10.359 3.55497C10.1314 3.69123 9.96727 3.91231 9.90269 4.16959C9.83811 4.42686 9.87837 4.69926 10.0146 4.92685C10.1509 5.15443 10.372 5.31858 10.6292 5.38316C10.8865 5.44774 11.1589 5.40748 11.3865 5.27122ZM20.0403 15.8962C20.157 15.9565 20.2844 15.9932 20.4153 16.0042C20.5462 16.0152 20.6779 16.0003 20.8031 15.9604C20.9282 15.9204 21.0443 15.8562 21.1446 15.7715C21.2449 15.6867 21.3275 15.5829 21.3878 15.4662C21.7911 14.7068 22.0015 13.8599 22.0003 13C22.0006 12.0447 21.7728 11.1032 21.3359 10.2538C20.899 9.4043 20.2656 8.67143 19.4883 8.11611C18.7111 7.56078 17.8125 7.19906 16.8673 7.06102C15.9221 6.92298 14.9576 7.01262 14.054 7.32247C13.803 7.4085 13.5965 7.5907 13.4799 7.82899C13.3633 8.06728 13.3461 8.34213 13.4321 8.5931C13.5182 8.84406 13.7004 9.05056 13.9386 9.16719C14.1769 9.28381 14.4518 9.301 14.7028 9.21497C15.3051 9.0084 15.9481 8.94864 16.5783 9.04067C17.2084 9.1327 17.8075 9.37385 18.3256 9.74406C18.8438 10.1143 19.2661 10.6029 19.5573 11.1692C19.8486 11.7355 20.0005 12.3631 20.0003 13C20.0001 13.5385 19.866 14.0686 19.6103 14.5425C19.55 14.6592 19.5133 14.7866 19.5023 14.9175C19.4913 15.0484 19.5062 15.1802 19.5461 15.3053C19.586 15.4304 19.6502 15.5465 19.735 15.6468C19.8198 15.7471 19.9235 15.8297 20.0403 15.89V15.8962Z" fill="#222222"/>
</svg>
