<svg width="32" height="32" viewBox="0 0 32 32" fill="none" xmlns="http://www.w3.org/2000/svg">
<path d="M29.0002 27H22.9202C25.5693 25.3309 27.5267 22.7614 28.4322 19.7642C29.3378 16.7669 29.1306 13.5434 27.8488 10.6868C26.567 7.83009 24.2967 5.53234 21.4557 4.21618C18.6147 2.90003 15.394 2.654 12.386 3.52336C9.37805 4.39271 6.78516 6.31898 5.08431 8.94781C3.38347 11.5766 2.68906 14.7312 3.12884 17.8313C3.56862 20.9313 5.113 23.7683 7.47788 25.8203C9.84277 27.8724 12.8691 29.0015 16.0002 29H29.0002C29.2654 29 29.5198 28.8946 29.7073 28.7071C29.8948 28.5195 30.0002 28.2652 30.0002 28C30.0002 27.7347 29.8948 27.4804 29.7073 27.2929C29.5198 27.1053 29.2654 27 29.0002 27ZM5.00018 16C5.00018 13.8244 5.64532 11.6976 6.85402 9.88869C8.06271 8.07975 9.78068 6.66985 11.7907 5.83728C13.8007 5.00472 16.0124 4.78688 18.1462 5.21132C20.28 5.63576 22.24 6.68341 23.7784 8.22178C25.3167 9.76016 26.3644 11.7202 26.7888 13.854C27.2133 15.9878 26.9954 18.1995 26.1629 20.2095C25.3303 22.2195 23.9204 23.9374 22.1115 25.1461C20.3025 26.3548 18.1758 27 16.0002 27C13.0838 26.9966 10.2878 25.8367 8.22566 23.7745C6.16348 21.7123 5.00349 18.9163 5.00018 16ZM16.0002 13C16.5935 13 17.1735 12.824 17.6669 12.4944C18.1602 12.1647 18.5448 11.6962 18.7718 11.148C18.9989 10.5998 19.0583 9.99663 18.9425 9.41469C18.8268 8.83274 18.5411 8.2982 18.1215 7.87864C17.7019 7.45908 17.1674 7.17336 16.5855 7.0576C16.0035 6.94185 15.4003 7.00126 14.8521 7.22832C14.304 7.45538 13.8354 7.8399 13.5058 8.33325C13.1761 8.8266 13.0002 9.40661 13.0002 9.99996C13.0002 10.7956 13.3163 11.5587 13.8789 12.1213C14.4415 12.6839 15.2045 13 16.0002 13ZM16.0002 8.99996C16.198 8.99996 16.3913 9.05861 16.5558 9.16849C16.7202 9.27837 16.8484 9.43455 16.9241 9.61727C16.9997 9.8 17.0196 10.0011 16.981 10.195C16.9424 10.389 16.8471 10.5672 16.7073 10.7071C16.5674 10.8469 16.3893 10.9422 16.1953 10.9807C16.0013 11.0193 15.8002 10.9995 15.6175 10.9238C15.4348 10.8482 15.2786 10.72 15.1687 10.5555C15.0588 10.3911 15.0002 10.1977 15.0002 9.99996C15.0002 9.73474 15.1055 9.48039 15.2931 9.29285C15.4806 9.10532 15.735 8.99996 16.0002 8.99996ZM19.0002 22C19.0002 21.4066 18.8242 20.8266 18.4946 20.3332C18.1649 19.8399 17.6964 19.4554 17.1482 19.2283C16.6001 19.0013 15.9969 18.9418 15.4149 19.0576C14.833 19.1734 14.2984 19.4591 13.8789 19.8786C13.4593 20.2982 13.1736 20.8327 13.0578 21.4147C12.9421 21.9966 13.0015 22.5998 13.2285 23.148C13.4556 23.6962 13.8401 24.1647 14.3335 24.4944C14.8268 24.824 15.4068 25 16.0002 25C16.7958 25 17.5589 24.6839 18.1215 24.1213C18.6841 23.5587 19.0002 22.7956 19.0002 22ZM15.0002 22C15.0002 21.8022 15.0588 21.6088 15.1687 21.4444C15.2786 21.2799 15.4348 21.1518 15.6175 21.0761C15.8002 21.0004 16.0013 20.9806 16.1953 21.0192C16.3893 21.0578 16.5674 21.153 16.7073 21.2929C16.8471 21.4327 16.9424 21.6109 16.981 21.8049C17.0196 21.9988 16.9997 22.1999 16.9241 22.3826C16.8484 22.5654 16.7202 22.7215 16.5558 22.8314C16.3913 22.9413 16.198 23 16.0002 23C15.735 23 15.4806 22.8946 15.2931 22.7071C15.1055 22.5195 15.0002 22.2652 15.0002 22ZM22.0002 19C22.5935 19 23.1735 18.824 23.6669 18.4944C24.1602 18.1647 24.5448 17.6962 24.7718 17.148C24.9989 16.5998 25.0583 15.9966 24.9425 15.4147C24.8268 14.8327 24.5411 14.2982 24.1215 13.8786C23.7019 13.4591 23.1674 13.1734 22.5855 13.0576C22.0035 12.9418 21.4003 13.0013 20.8521 13.2283C20.304 13.4554 19.8354 13.8399 19.5058 14.3332C19.1761 14.8266 19.0002 15.4066 19.0002 16C19.0002 16.7956 19.3163 17.5587 19.8789 18.1213C20.4415 18.6839 21.2045 19 22.0002 19ZM22.0002 15C22.198 15 22.3913 15.0586 22.5558 15.1685C22.7202 15.2784 22.8484 15.4345 22.9241 15.6173C22.9998 15.8 23.0196 16.0011 22.981 16.195C22.9424 16.389 22.8471 16.5672 22.7073 16.7071C22.5674 16.8469 22.3893 16.9422 22.1953 16.9807C22.0013 17.0193 21.8002 16.9995 21.6175 16.9238C21.4348 16.8482 21.2786 16.72 21.1687 16.5555C21.0588 16.3911 21.0002 16.1977 21.0002 16C21.0002 15.7347 21.1055 15.4804 21.2931 15.2929C21.4806 15.1053 21.735 15 22.0002 15ZM10.0002 13C9.40684 13 8.82682 13.1759 8.33347 13.5055C7.84012 13.8352 7.45561 14.3037 7.22854 14.8519C7.00148 15.4001 6.94207 16.0033 7.05783 16.5852C7.17358 17.1672 7.4593 17.7017 7.87886 18.1213C8.29842 18.5408 8.83297 18.8266 9.41491 18.9423C9.99685 19.0581 10.6001 18.9987 11.1482 18.7716C11.6964 18.5445 12.1649 18.16 12.4946 17.6667C12.8242 17.1733 13.0002 16.5933 13.0002 16C13.0002 15.2043 12.6841 14.4412 12.1215 13.8786C11.5589 13.316 10.7958 13 10.0002 13ZM10.0002 17C9.8024 17 9.60906 16.9413 9.44461 16.8314C9.28016 16.7215 9.15199 16.5654 9.0763 16.3826C9.00062 16.1999 8.98081 15.9988 9.0194 15.8049C9.05798 15.6109 9.15322 15.4327 9.29308 15.2929C9.43293 15.153 9.61111 15.0578 9.80509 15.0192C9.99907 14.9806 10.2001 15.0004 10.3829 15.0761C10.5656 15.1518 10.7218 15.2799 10.8317 15.4444C10.9415 15.6088 11.0002 15.8022 11.0002 16C11.0002 16.2652 10.8948 16.5195 10.7073 16.7071C10.5198 16.8946 10.2654 17 10.0002 17Z" fill="#222222"/>
</svg>
