<svg width="32" height="32" viewBox="0 0 32 32" fill="none" xmlns="http://www.w3.org/2000/svg">
<path d="M2.99981 16.0001C3.00246 13.6139 3.95152 11.3263 5.63877 9.63903C7.32603 7.95178 9.61367 7.00271 11.9998 7.00007H25.5861L24.2923 5.70757C24.1047 5.51993 23.9993 5.26543 23.9993 5.00007C23.9993 4.7347 24.1047 4.48021 24.2923 4.29257C24.4799 4.10493 24.7344 3.99951 24.9998 3.99951C25.2652 3.99951 25.5197 4.10493 25.7073 4.29257L28.7073 7.29257C28.8003 7.38544 28.874 7.49573 28.9244 7.61713C28.9747 7.73853 29.0006 7.86865 29.0006 8.00007C29.0006 8.13148 28.9747 8.26161 28.9244 8.38301C28.874 8.50441 28.8003 8.6147 28.7073 8.70757L25.7073 11.7076C25.5197 11.8952 25.2652 12.0006 24.9998 12.0006C24.7344 12.0006 24.4799 11.8952 24.2923 11.7076C24.1047 11.5199 23.9993 11.2654 23.9993 11.0001C23.9993 10.7347 24.1047 10.4802 24.2923 10.2926L25.5861 9.00007H11.9998C10.1439 9.00205 8.36458 9.74019 7.05226 11.0525C5.73993 12.3648 5.0018 14.1442 4.99981 16.0001C4.99981 16.2653 4.89445 16.5196 4.70692 16.7072C4.51938 16.8947 4.26503 17.0001 3.99981 17.0001C3.73459 17.0001 3.48024 16.8947 3.2927 16.7072C3.10517 16.5196 2.99981 16.2653 2.99981 16.0001ZM27.9998 15.0001C27.7346 15.0001 27.4802 15.1054 27.2927 15.293C27.1052 15.4805 26.9998 15.7349 26.9998 16.0001C26.9978 17.856 26.2597 19.6353 24.9474 20.9476C23.635 22.2599 21.8557 22.9981 19.9998 23.0001H6.41356L7.70731 21.7076C7.80022 21.6147 7.87392 21.5044 7.9242 21.383C7.97449 21.2616 8.00037 21.1315 8.00037 21.0001C8.00037 20.8687 7.97449 20.7386 7.9242 20.6172C7.87392 20.4958 7.80022 20.3855 7.70731 20.2926C7.6144 20.1997 7.5041 20.126 7.38271 20.0757C7.26131 20.0254 7.13121 19.9995 6.99981 19.9995C6.86842 19.9995 6.73831 20.0254 6.61691 20.0757C6.49552 20.126 6.38522 20.1997 6.29231 20.2926L3.29231 23.2926C3.19933 23.3854 3.12557 23.4957 3.07525 23.6171C3.02493 23.7385 2.99902 23.8687 2.99902 24.0001C2.99902 24.1315 3.02493 24.2616 3.07525 24.383C3.12557 24.5044 3.19933 24.6147 3.29231 24.7076L6.29231 27.7076C6.38522 27.8005 6.49552 27.8742 6.61691 27.9245C6.73831 27.9747 6.86842 28.0006 6.99981 28.0006C7.13121 28.0006 7.26131 27.9747 7.38271 27.9245C7.5041 27.8742 7.6144 27.8005 7.70731 27.7076C7.80022 27.6147 7.87392 27.5044 7.9242 27.383C7.97449 27.2616 8.00037 27.1315 8.00037 27.0001C8.00037 26.8687 7.97449 26.7386 7.9242 26.6172C7.87392 26.4958 7.80022 26.3855 7.70731 26.2926L6.41356 25.0001H19.9998C22.3859 24.9974 24.6736 24.0484 26.3608 22.3611C28.0481 20.6739 28.9972 18.3862 28.9998 16.0001C28.9998 15.7349 28.8945 15.4805 28.7069 15.293C28.5194 15.1054 28.265 15.0001 27.9998 15.0001Z" fill="#222222"/>
</svg>
