<svg width="32" height="32" viewBox="0 0 32 32" fill="none" xmlns="http://www.w3.org/2000/svg">
<path d="M29.5234 16.8514L16.5234 24.8514C16.3719 24.9445 16.1983 24.9956 16.0205 24.9993C15.8427 25.003 15.6672 24.9592 15.5119 24.8725C15.3567 24.7858 15.2274 24.6592 15.1373 24.5059C15.0473 24.3525 14.9997 24.1779 14.9996 24.0001V9.79011L3.52338 16.8514C3.29798 16.9801 3.03135 17.0162 2.77984 16.9519C2.52834 16.8877 2.31167 16.7282 2.17565 16.5071C2.03962 16.286 1.99489 16.0207 2.05092 15.7672C2.10694 15.5138 2.25933 15.292 2.47588 15.1489L15.4759 7.14886C15.6274 7.05572 15.8009 7.00467 15.9787 7.00095C16.1565 6.99724 16.3321 7.041 16.4873 7.12773C16.6426 7.21445 16.7719 7.34101 16.8619 7.49436C16.952 7.6477 16.9995 7.82228 16.9996 8.00011V22.2101L28.4759 15.1489C28.7013 15.0201 28.9679 14.984 29.2194 15.0483C29.4709 15.1125 29.6876 15.2721 29.8236 15.4931C29.9596 15.7142 30.0044 15.9795 29.9483 16.233C29.8923 16.4865 29.7399 16.7082 29.5234 16.8514Z" fill="#222222"/>
</svg>
