<svg width="32" height="32" viewBox="0 0 32 32" fill="none" xmlns="http://www.w3.org/2000/svg">
<path d="M7.00025 12V20C7.00025 20.2652 6.89489 20.5196 6.70736 20.7071C6.51982 20.8946 6.26547 21 6.00025 21C5.73503 21 5.48068 20.8946 5.29314 20.7071C5.10561 20.5196 5.00025 20.2652 5.00025 20V12C5.00025 11.7348 5.10561 11.4804 5.29314 11.2929C5.48068 11.1054 5.73503 11 6.00025 11C6.26547 11 6.51982 11.1054 6.70736 11.2929C6.89489 11.4804 7.00025 11.7348 7.00025 12ZM6.74025 4.3275C6.65243 4.22851 6.54584 4.14793 6.42665 4.09044C6.30746 4.03294 6.17805 3.99968 6.04591 3.99257C5.91377 3.98546 5.78153 4.00465 5.65686 4.04902C5.53219 4.0934 5.41757 4.16208 5.31964 4.25107C5.22171 4.34007 5.14241 4.44762 5.08635 4.56749C5.03029 4.68736 4.99858 4.81717 4.99306 4.94938C4.98754 5.0816 5.00831 5.2136 5.05417 5.33772C5.10004 5.46185 5.17008 5.57564 5.26025 5.6725L10.0003 10.8862V28C10.0003 28.2652 10.1056 28.5196 10.2931 28.7071C10.4807 28.8946 10.735 29 11.0003 29C11.2655 29 11.5198 28.8946 11.7074 28.7071C11.8949 28.5196 12.0003 28.2652 12.0003 28V13.0863L15.0003 16.3862V24C15.0003 24.2652 15.1056 24.5196 15.2931 24.7071C15.4807 24.8946 15.735 25 16.0003 25C16.2655 25 16.5198 24.8946 16.7074 24.7071C16.8949 24.5196 17.0003 24.2652 17.0003 24V18.5863L25.2603 27.6725C25.3481 27.7715 25.4547 27.8521 25.5739 27.9096C25.693 27.9671 25.8225 28.0003 25.9546 28.0074C26.0867 28.0145 26.219 27.9953 26.3436 27.951C26.4683 27.9066 26.5829 27.8379 26.6809 27.7489C26.7788 27.6599 26.8581 27.5524 26.9141 27.4325C26.9702 27.3126 27.0019 27.1828 27.0074 27.0506C27.013 26.9184 26.9922 26.7864 26.9463 26.6623C26.9005 26.5381 26.8304 26.4244 26.7403 26.3275L6.74025 4.3275ZM11.0003 5.55375C11.2655 5.55375 11.5198 5.44839 11.7074 5.26086C11.8949 5.07332 12.0003 4.81897 12.0003 4.55375V4C12.0003 3.73478 11.8949 3.48043 11.7074 3.29289C11.5198 3.10536 11.2655 3 11.0003 3C10.735 3 10.4807 3.10536 10.2931 3.29289C10.1056 3.48043 10.0003 3.73478 10.0003 4V4.55375C10.0003 4.81897 10.1056 5.07332 10.2931 5.26086C10.4807 5.44839 10.735 5.55375 11.0003 5.55375ZM16.0003 11.0538C16.2655 11.0538 16.5198 10.9484 16.7074 10.7609C16.8949 10.5733 17.0003 10.319 17.0003 10.0538V8C17.0003 7.73478 16.8949 7.48043 16.7074 7.29289C16.5198 7.10536 16.2655 7 16.0003 7C15.735 7 15.4807 7.10536 15.2931 7.29289C15.1056 7.48043 15.0003 7.73478 15.0003 8V10.0538C15.0003 10.319 15.1056 10.5733 15.2931 10.7609C15.4807 10.9484 15.735 11.0538 16.0003 11.0538ZM21.0003 16.5537C21.2655 16.5537 21.5198 16.4484 21.7074 16.2609C21.8949 16.0733 22.0003 15.819 22.0003 15.5538V12C22.0003 11.7348 21.8949 11.4804 21.7074 11.2929C21.5198 11.1054 21.2655 11 21.0003 11C20.735 11 20.4807 11.1054 20.2931 11.2929C20.1056 11.4804 20.0003 11.7348 20.0003 12V15.5538C20.0003 15.819 20.1056 16.0733 20.2931 16.2609C20.4807 16.4484 20.735 16.5537 21.0003 16.5537ZM26.0003 9C25.735 9 25.4807 9.10536 25.2931 9.29289C25.1056 9.48043 25.0003 9.73478 25.0003 10V21.0537C25.0003 21.319 25.1056 21.5733 25.2931 21.7609C25.4807 21.9484 25.735 22.0537 26.0003 22.0537C26.2655 22.0537 26.5198 21.9484 26.7074 21.7609C26.8949 21.5733 27.0003 21.319 27.0003 21.0537V10C27.0003 9.73478 26.8949 9.48043 26.7074 9.29289C26.5198 9.10536 26.2655 9 26.0003 9Z" fill="#222222"/>
</svg>
