<svg width="32" height="32" viewBox="0 0 32 32" fill="none" xmlns="http://www.w3.org/2000/svg">
<path d="M21.9997 27C21.9997 27.2652 21.8944 27.5196 21.7068 27.7071C21.5193 27.8946 21.265 28 20.9997 28H2.99974C2.73452 28 2.48017 27.8946 2.29263 27.7071C2.1051 27.5196 1.99974 27.2652 1.99974 27C1.99974 26.7348 2.1051 26.4804 2.29263 26.2929C2.48017 26.1054 2.73452 26 2.99974 26H20.9997C21.265 26 21.5193 26.1054 21.7068 26.2929C21.8944 26.4804 21.9997 26.7348 21.9997 27ZM30.9822 11.6437C30.9561 11.7829 30.9006 11.915 30.8196 12.0311C30.7386 12.1473 30.6338 12.2449 30.5122 12.3175L12.086 23.3175C11.3179 23.7679 10.4439 24.006 9.55349 24.0075C8.28513 24.0061 7.06527 23.52 6.14349 22.6487L6.12849 22.6337L1.62474 18.225C1.38645 17.9987 1.20759 17.7172 1.10398 17.4053C1.00036 17.0935 0.975184 16.7609 1.03067 16.437C1.08616 16.1131 1.2206 15.8079 1.4221 15.5483C1.62361 15.2887 1.88597 15.0828 2.18599 14.9487L2.56099 14.765C2.79781 14.6487 3.07098 14.6308 3.32099 14.715L6.85349 15.9075L9.37474 14.3825L6.64599 11.7337C6.40059 11.5077 6.21565 11.2238 6.10803 10.9079C6.0004 10.5921 5.97351 10.2544 6.02979 9.92546C6.08608 9.59657 6.22376 9.28699 6.43028 9.02492C6.63681 8.76285 6.90562 8.55661 7.21224 8.42499L7.25224 8.40874L8.14599 8.06999C8.37133 7.98597 8.6194 7.98597 8.84474 8.06999L15.5872 10.5475L22.0335 6.69999C23.0608 6.0886 24.2737 5.86735 25.4507 6.07667C26.6277 6.28599 27.69 6.9119 28.4435 7.83999L28.4585 7.85874L30.7885 10.845C30.8755 10.9568 30.9378 11.0858 30.9712 11.2235C31.0046 11.3612 31.0084 11.5045 30.9822 11.6437ZM28.5147 11.1812L26.8897 9.09749C26.4375 8.5442 25.8017 8.17153 25.0979 8.04721C24.3942 7.92289 23.6692 8.05516 23.0547 8.41999L16.2047 12.51C16.0764 12.5861 15.9329 12.6327 15.7844 12.6465C15.6359 12.6604 15.4861 12.6411 15.346 12.59L8.49974 10.0725L7.99974 10.2637L8.02599 10.2887L11.696 13.85C11.8056 13.9565 11.8893 14.0867 11.9408 14.2306C11.9922 14.3745 12.01 14.5283 11.9927 14.6801C11.9755 14.832 11.9236 14.9778 11.8412 15.1065C11.7588 15.2352 11.648 15.3433 11.5172 15.4225L7.49099 17.8587C7.36644 17.934 7.22697 17.9811 7.08232 17.9969C6.93767 18.0126 6.79132 17.9966 6.65349 17.95L3.06974 16.7412L3.04599 16.7537L2.99974 16.775C3.00576 16.7793 3.01122 16.7843 3.01599 16.79L7.51599 21.1975C7.98562 21.6388 8.5856 21.9161 9.22606 21.9877C9.86651 22.0594 10.5129 21.9216 11.0685 21.595L28.5147 11.1812Z" fill="#222222"/>
</svg>
