<svg width="32" height="32" viewBox="0 0 32 32" fill="none" xmlns="http://www.w3.org/2000/svg">
<path d="M28.6391 8.8525C28.4546 8.58913 28.2094 8.37413 27.9241 8.22572C27.6388 8.07732 27.322 7.99989 27.0004 8H17.0004V4H19.0004C19.2656 4 19.52 3.89464 19.7075 3.70711C19.895 3.51957 20.0004 3.26522 20.0004 3C20.0004 2.73478 19.895 2.48043 19.7075 2.29289C19.52 2.10536 19.2656 2 19.0004 2H13.0004C12.7352 2 12.4808 2.10536 12.2933 2.29289C12.1058 2.48043 12.0004 2.73478 12.0004 3C12.0004 3.26522 12.1058 3.51957 12.2933 3.70711C12.4808 3.89464 12.7352 4 13.0004 4H15.0004V8H5.00039C4.67928 8.00072 4.36306 8.07875 4.07847 8.2275C3.79388 8.37624 3.54929 8.59132 3.36538 8.85456C3.18147 9.11779 3.06365 9.42144 3.02188 9.73983C2.98011 10.0582 3.01561 10.382 3.12539 10.6838L6.39914 19.6838C6.53922 20.0688 6.79417 20.4015 7.12952 20.6369C7.46486 20.8723 7.86442 20.9991 8.27414 21H12.0004V29C12.0004 29.2652 12.1058 29.5196 12.2933 29.7071C12.4808 29.8946 12.7352 30 13.0004 30C13.2656 30 13.52 29.8946 13.7075 29.7071C13.895 29.5196 14.0004 29.2652 14.0004 29V21H18.0004V29C18.0004 29.2652 18.1058 29.5196 18.2933 29.7071C18.4808 29.8946 18.7352 30 19.0004 30C19.2656 30 19.52 29.8946 19.7075 29.7071C19.895 29.5196 20.0004 29.2652 20.0004 29V21H23.7279C24.1376 20.9991 24.5372 20.8723 24.8725 20.6369C25.2079 20.4015 25.4628 20.0688 25.6029 19.6838L28.8766 10.6838C28.9871 10.3819 29.0232 10.0578 28.9819 9.73907C28.9405 9.4203 28.823 9.11619 28.6391 8.8525ZM13.8354 19L12.1979 10H19.8029L18.1654 19H13.8354ZM5.00039 10H10.1654L11.8016 19H8.27289L5.00039 10ZM23.7279 19H20.1991L21.8354 10H27.0004L23.7279 19Z" fill="#222222"/>
</svg>
