<svg width="32" height="32" viewBox="0 0 32 32" fill="none" xmlns="http://www.w3.org/2000/svg">
<path d="M28.415 6.09369C28.2404 6.01443 28.0468 5.98701 27.8571 6.01471C27.6674 6.04242 27.4896 6.12407 27.345 6.24994C23.845 9.27744 20.88 7.80994 17.4438 6.10869C13.8838 4.34494 9.8475 2.34869 5.345 6.24994C5.23742 6.34319 5.15099 6.45834 5.09149 6.58768C5.032 6.71702 5.0008 6.85757 5 6.99994V27.9999C5 28.2652 5.10536 28.5195 5.29289 28.707C5.48043 28.8946 5.73478 28.9999 6 28.9999C6.26522 28.9999 6.51957 28.8946 6.70711 28.707C6.89464 28.5195 7 28.2652 7 27.9999V22.4712C10.3488 19.8262 13.2337 21.2524 16.5562 22.8974C20.1175 24.6587 24.1525 26.6549 28.655 22.7562C28.7626 22.6629 28.849 22.5478 28.9085 22.4185C28.968 22.2891 28.9992 22.1486 29 22.0062V6.99994C28.9993 6.80877 28.9438 6.62179 28.8402 6.46118C28.7365 6.30056 28.5889 6.17303 28.415 6.09369ZM27 8.94994V14.0312C25.25 15.4137 23.625 15.6837 22 15.3912V9.91744C23.7285 10.1875 25.497 9.84525 27 8.94994ZM20 9.41994V14.7949C19.1675 14.4612 18.3212 14.0449 17.4438 13.6099C16.3413 13.0637 15.1938 12.4962 14 12.0874V6.71244C14.8325 7.04494 15.6788 7.46244 16.5562 7.89744C17.6587 8.44369 18.8075 9.01119 20 9.41994ZM12 6.11369V11.5862C10.2714 11.3167 8.50288 11.6593 7 12.5549V7.47244C8.75 6.08994 10.375 5.82119 12 6.11369ZM10.8225 18.9999C9.47692 19.0023 8.15671 19.3662 7 20.0537V14.9724C8.75 13.5899 10.375 13.3199 12 13.6124V19.0874C11.6101 19.03 11.2166 19.0008 10.8225 18.9999ZM14 19.5837V14.2087C14.8325 14.5412 15.6788 14.9587 16.5562 15.3937C17.6587 15.9399 18.8062 16.5062 20 16.9149V22.2899C19.1675 21.9562 18.3212 21.5399 17.4438 21.1049C16.3413 20.5587 15.1925 19.9924 14 19.5837ZM22 22.8899V17.4149C22.3898 17.4732 22.7833 17.5033 23.1775 17.5049C24.5235 17.5008 25.8437 17.1351 27 16.4462V21.5312C25.25 22.9137 23.625 23.1824 22 22.8899Z" fill="#222222"/>
</svg>
