<svg width="32" height="32" viewBox="0 0 32 32" fill="none" xmlns="http://www.w3.org/2000/svg">
<path d="M16.9998 23C18.9776 23 20.911 22.4135 22.5555 21.3147C24.2 20.2159 25.4817 18.6541 26.2386 16.8268C26.9955 14.9996 27.1935 12.9889 26.8077 11.0491C26.4218 9.10928 25.4694 7.32745 24.0709 5.92893C22.6723 4.5304 20.8905 3.57799 18.9507 3.19214C17.0109 2.80629 15.0002 3.00432 13.173 3.7612C11.3457 4.51808 9.78392 5.7998 8.6851 7.44429C7.58629 9.08878 6.9998 11.0222 6.9998 13C7.00278 15.6512 8.0573 18.1931 9.93202 20.0678C11.8067 21.9425 14.3485 22.997 16.9998 23ZM16.9998 5C18.582 5 20.1288 5.46919 21.4444 6.34824C22.76 7.22729 23.7853 8.47672 24.3908 9.93853C24.9963 11.4003 25.1548 13.0089 24.8461 14.5607C24.5374 16.1126 23.7755 17.538 22.6567 18.6568C21.5378 19.7757 20.1124 20.5376 18.5605 20.8463C17.0087 21.155 15.4001 20.9965 13.9383 20.391C12.4765 19.7855 11.2271 18.7601 10.348 17.4446C9.46899 16.129 8.9998 14.5822 8.9998 13C9.00211 10.879 9.84571 8.84549 11.3455 7.3457C12.8453 5.84591 14.8788 5.00231 16.9998 5ZM26.721 21.6875C26.8122 21.7822 26.8837 21.894 26.9316 22.0165C26.9794 22.1389 27.0027 22.2695 27 22.401C26.9974 22.5324 26.9688 22.662 26.916 22.7824C26.8632 22.9027 26.7872 23.0115 26.6923 23.1025C24.339 25.3718 21.2613 26.7394 17.9998 26.965V29H20.9998C21.265 29 21.5194 29.1054 21.7069 29.2929C21.8944 29.4804 21.9998 29.7348 21.9998 30C21.9998 30.2652 21.8944 30.5196 21.7069 30.7071C21.5194 30.8946 21.265 31 20.9998 31H12.9998C12.7346 31 12.4802 30.8946 12.2927 30.7071C12.1052 30.5196 11.9998 30.2652 11.9998 30C11.9998 29.7348 12.1052 29.4804 12.2927 29.2929C12.4802 29.1054 12.7346 29 12.9998 29H15.9998V26.9637C13.3476 26.7738 10.8043 25.8324 8.66747 24.2498C6.53069 22.6672 4.8888 20.5088 3.9339 18.0271C2.979 15.5455 2.75058 12.8432 3.27538 10.2364C3.80018 7.6297 5.05648 5.22632 6.8973 3.3075C6.98766 3.21041 7.09643 3.13226 7.21728 3.07761C7.33812 3.02296 7.46864 2.99289 7.60122 2.98916C7.73379 2.98544 7.86579 3.00812 7.98952 3.05589C8.11325 3.10366 8.22624 3.17557 8.32191 3.26743C8.41758 3.35929 8.49403 3.46926 8.54679 3.59095C8.59955 3.71263 8.62758 3.8436 8.62925 3.97622C8.63091 4.10884 8.60618 4.24047 8.55649 4.36344C8.50679 4.48641 8.43314 4.59826 8.3398 4.6925C6.1599 6.95684 4.95543 9.98606 4.98529 13.129C5.01515 16.272 6.27695 19.2778 8.49947 21.5003C10.722 23.7228 13.7278 24.9846 16.8708 25.0145C20.0137 25.0444 23.043 23.8399 25.3073 21.66C25.4984 21.4762 25.7547 21.3758 26.0199 21.381C26.285 21.3862 26.5372 21.4964 26.721 21.6875Z" fill="#222222"/>
</svg>
