<svg width="32" height="32" viewBox="0 0 32 32" fill="none" xmlns="http://www.w3.org/2000/svg">
<path d="M20.0003 10C20.0003 9.73478 20.1056 9.48043 20.2932 9.29289C20.4807 9.10536 20.7351 9 21.0003 9H30.0003C30.2655 9 30.5199 9.10536 30.7074 9.29289C30.8949 9.48043 31.0003 9.73478 31.0003 10C31.0003 10.2652 30.8949 10.5196 30.7074 10.7071C30.5199 10.8946 30.2655 11 30.0003 11H21.0003C20.7351 11 20.4807 10.8946 20.2932 10.7071C20.1056 10.5196 20.0003 10.2652 20.0003 10ZM30.0003 21H21.0003C20.7351 21 20.4807 21.1054 20.2932 21.2929C20.1056 21.4804 20.0003 21.7348 20.0003 22C20.0003 22.2652 20.1056 22.5196 20.2932 22.7071C20.4807 22.8946 20.7351 23 21.0003 23H30.0003C30.2655 23 30.5199 22.8946 30.7074 22.7071C30.8949 22.5196 31.0003 22.2652 31.0003 22C31.0003 21.7348 30.8949 21.4804 30.7074 21.2929C30.5199 21.1054 30.2655 21 30.0003 21ZM30.0003 13H21.0003C20.7351 13 20.4807 13.1054 20.2932 13.2929C20.1056 13.4804 20.0003 13.7348 20.0003 14C20.0003 14.2652 20.1056 14.5196 20.2932 14.7071C20.4807 14.8946 20.7351 15 21.0003 15H30.0003C30.2655 15 30.5199 14.8946 30.7074 14.7071C30.8949 14.5196 31.0003 14.2652 31.0003 14C31.0003 13.7348 30.8949 13.4804 30.7074 13.2929C30.5199 13.1054 30.2655 13 30.0003 13ZM30.0003 17H21.0003C20.7351 17 20.4807 17.1054 20.2932 17.2929C20.1056 17.4804 20.0003 17.7348 20.0003 18C20.0003 18.2652 20.1056 18.5196 20.2932 18.7071C20.4807 18.8946 20.7351 19 21.0003 19H30.0003C30.2655 19 30.5199 18.8946 30.7074 18.7071C30.8949 18.5196 31.0003 18.2652 31.0003 18C31.0003 17.7348 30.8949 17.4804 30.7074 17.2929C30.5199 17.1054 30.2655 17 30.0003 17ZM18.0003 8V24C18.0003 24.5304 17.7896 25.0391 17.4145 25.4142C17.0394 25.7893 16.5307 26 16.0003 26H11.0003C9.68063 26 8.37401 25.7389 7.15576 25.2316C5.93751 24.7243 4.83172 23.9808 3.90213 23.0442C2.97254 22.1075 2.23754 20.9961 1.7395 19.774C1.24146 18.5519 0.990228 17.2434 1.00029 15.9237C1.04154 10.4525 5.57779 6 11.1128 6H16.0003C16.5307 6 17.0394 6.21071 17.4145 6.58579C17.7896 6.96086 18.0003 7.46957 18.0003 8ZM16.0003 8H11.1128C6.67279 8 3.03279 11.5613 3.00029 15.9388C2.99221 16.9945 3.19317 18.0413 3.59158 19.019C3.99 19.9967 4.578 20.8859 5.32167 21.6352C6.06535 22.3846 6.94999 22.9794 7.92461 23.3852C8.89923 23.7911 9.94454 24 11.0003 24H16.0003V8Z" fill="#222222"/>
</svg>
