<svg width="32" height="32" viewBox="0 0 32 32" fill="none" xmlns="http://www.w3.org/2000/svg">
<path d="M15 12.9V22C15 22.2652 15.1054 22.5195 15.2929 22.7071C15.4804 22.8946 15.7348 23 16 23C16.2652 23 16.5196 22.8946 16.7071 22.7071C16.8946 22.5195 17 22.2652 17 22V12.9C18.214 12.6521 19.2928 11.9624 20.0272 10.9644C20.7616 9.96637 21.0992 8.73123 20.9747 7.49843C20.8501 6.26563 20.2723 5.12298 19.3532 4.29202C18.434 3.46106 17.2391 3.00098 16 3.00098C14.7609 3.00098 13.566 3.46106 12.6468 4.29202C11.7277 5.12298 11.1499 6.26563 11.0253 7.49843C10.9008 8.73123 11.2384 9.96637 11.9728 10.9644C12.7072 11.9624 13.786 12.6521 15 12.9ZM16 4.99996C16.5933 4.99996 17.1734 5.1759 17.6667 5.50555C18.1601 5.83519 18.5446 6.30373 18.7716 6.85191C18.9987 7.40008 19.0581 8.00328 18.9424 8.58523C18.8266 9.16717 18.5409 9.70172 18.1213 10.1213C17.7018 10.5408 17.1672 10.8266 16.5853 10.9423C16.0033 11.0581 15.4001 10.9987 14.8519 10.7716C14.3038 10.5445 13.8352 10.16 13.5056 9.66667C13.1759 9.17332 13 8.5933 13 7.99996C13 7.20431 13.3161 6.44125 13.8787 5.87864C14.4413 5.31603 15.2044 4.99996 16 4.99996ZM30 22C30 25.8975 22.7863 28 16 28C9.21375 28 2 25.8975 2 22C2 21.0325 2.47625 19.6087 4.75 18.3237C6.2825 17.4562 8.39 16.79 10.8462 16.3962C10.9762 16.3757 11.1089 16.381 11.2368 16.4117C11.3646 16.4425 11.4852 16.4981 11.5916 16.5755C11.698 16.6529 11.7881 16.7504 11.8568 16.8626C11.9254 16.9748 11.9714 17.0994 11.9919 17.2293C12.0124 17.3593 12.0071 17.492 11.9764 17.6198C11.9456 17.7477 11.8899 17.8683 11.8126 17.9747C11.7352 18.0811 11.6377 18.1712 11.5255 18.2399C11.4133 18.3085 11.2887 18.3544 11.1587 18.375C8.96625 18.7275 7.03375 19.3287 5.73125 20.0687C4.63125 20.6875 4 21.3925 4 22C4 23.67 8.565 26 16 26C23.435 26 28 23.67 28 22C28 21.3925 27.3687 20.6875 26.2687 20.0637C24.9612 19.3237 23.0337 18.7225 20.8412 18.37C20.7086 18.3526 20.5807 18.3088 20.4653 18.2412C20.3498 18.1735 20.2491 18.0834 20.1691 17.9761C20.0891 17.8689 20.0315 17.7466 19.9996 17.6167C19.9677 17.4867 19.9622 17.3517 19.9835 17.2196C20.0047 17.0874 20.0523 16.9609 20.1233 16.8475C20.1943 16.7341 20.2874 16.6361 20.397 16.5594C20.5066 16.4826 20.6305 16.4286 20.7613 16.4006C20.8922 16.3725 21.0273 16.3711 21.1588 16.3962C23.615 16.79 25.7225 17.4562 27.255 18.3237C29.5237 19.6087 30 21.0325 30 22Z" fill="#222222"/>
</svg>
