<svg width="32" height="32" viewBox="0 0 32 32" fill="none" xmlns="http://www.w3.org/2000/svg">
<path d="M26.9995 8.00012V19.3664C26.9995 25.1414 22.3933 29.9351 16.6245 29.9989C15.2244 30.0177 13.8348 29.7554 12.5379 29.2274C11.241 28.6995 10.0633 27.9166 9.07453 26.9251C6.34828 24.0414 3.26828 17.0001 3.26828 17.0001C3.1328 16.7656 3.04635 16.5061 3.01417 16.2372C2.98199 15.9683 3.00475 15.6957 3.08108 15.4359C3.1574 15.176 3.2857 14.9344 3.45818 14.7257C3.63067 14.5169 3.84376 14.3453 4.08453 14.2214C5.04203 13.7214 6.22203 14.1164 6.75953 15.0489L9.38453 19.6039C9.45754 19.735 9.56769 19.8417 9.70113 19.9104C9.83458 19.9791 9.98536 20.0069 10.1345 19.9901H10.1495C10.3897 19.9488 10.6073 19.8231 10.7631 19.6356C10.9189 19.4482 11.0028 19.2113 10.9995 18.9676V6.00012C10.9992 5.72918 11.054 5.461 11.1604 5.21185C11.2669 4.9627 11.4229 4.73779 11.6189 4.55076C11.815 4.36373 12.047 4.21848 12.3008 4.12382C12.5547 4.02917 12.8252 3.98708 13.0958 4.00012C14.172 4.05012 14.9995 4.97762 14.9995 6.05387V14.0001C14.9992 14.1372 15.0271 14.2729 15.0815 14.3987C15.1358 14.5246 15.2155 14.6379 15.3154 14.7317C15.4154 14.8255 15.5336 14.8977 15.6627 14.9439C15.7918 14.9901 15.929 15.0092 16.0658 15.0001C16.3229 14.978 16.5622 14.8594 16.7354 14.6681C16.9086 14.4768 17.003 14.2269 16.9995 13.9689V4.00012C16.9992 3.72918 17.054 3.461 17.1604 3.21185C17.2669 2.9627 17.4229 2.73779 17.6189 2.55076C17.815 2.36373 18.047 2.21848 18.3008 2.12382C18.5547 2.02917 18.8252 1.98708 19.0958 2.00012C20.172 2.05012 20.9995 2.97762 20.9995 4.05387V15.0001C20.9992 15.1372 21.0271 15.2729 21.0815 15.3987C21.1358 15.5246 21.2155 15.6379 21.3154 15.7317C21.4154 15.8255 21.5336 15.8977 21.6627 15.9439C21.7918 15.9901 21.929 16.0092 22.0658 16.0001C22.3229 15.978 22.5622 15.8594 22.7354 15.6681C22.9086 15.4768 23.003 15.2269 22.9995 14.9689V8.05637C22.9995 6.98012 23.827 6.05637 24.9033 6.00262C25.1737 5.98959 25.4439 6.0316 25.6977 6.1261C25.9514 6.2206 26.1832 6.36563 26.3792 6.5524C26.5752 6.73916 26.7313 6.96377 26.8379 7.21263C26.9445 7.46148 26.9995 7.72939 26.9995 8.00012Z" fill="#222222"/>
</svg>
