<svg width="32" height="32" viewBox="0 0 32 32" fill="none" xmlns="http://www.w3.org/2000/svg">
<path d="M12.069 4.51744C11.9331 4.01169 12.001 3.47281 12.2581 3.01658C12.5152 2.56034 12.941 2.22315 13.444 2.07744C14.5203 1.76994 15.6503 2.45244 15.944 3.53369L17.944 11.0062C17.9625 11.0735 17.9666 11.1439 17.9562 11.2128C17.9459 11.2818 17.9211 11.3479 17.8837 11.4067C17.8463 11.4656 17.7969 11.516 17.7389 11.5546C17.6808 11.5933 17.6153 11.6194 17.5465 11.6312C16.9932 11.7259 16.4662 11.9368 16.0003 12.2499C15.9303 12.2962 15.8628 12.3449 15.7953 12.3962C15.754 12.3237 15.7115 12.2512 15.6703 12.1812C15.243 11.532 14.6345 11.0226 13.9203 10.7162C13.8516 10.6865 13.7906 10.6416 13.7418 10.5849C13.6931 10.5281 13.6579 10.461 13.639 10.3887L12.069 4.51744ZM10.0503 22.0812C10.1831 22.1084 10.3184 22.1223 10.454 22.1224C10.9497 22.122 11.4275 21.9375 11.7949 21.6048C12.1622 21.2721 12.393 20.8148 12.4423 20.3216C12.4917 19.8284 12.3561 19.3344 12.062 18.9355C11.7678 18.5366 11.336 18.2611 10.8503 18.1624L8.40151 17.6624C7.88403 17.5617 7.3477 17.6693 6.90915 17.9619C6.47061 18.2545 6.16534 18.7084 6.05973 19.2249C5.95412 19.7414 6.05672 20.2787 6.34521 20.72C6.63371 21.1613 7.08476 21.4708 7.60026 21.5812L10.0503 22.0812ZM7.60026 15.4562L11.9303 16.3399C12.1892 16.3967 12.4568 16.4015 12.7176 16.3539C12.9784 16.3064 13.2272 16.2074 13.4494 16.0629C13.6716 15.9183 13.8629 15.731 14.0121 15.5119C14.1612 15.2928 14.2654 15.0462 14.3184 14.7864C14.3714 14.5267 14.3723 14.259 14.3209 13.9989C14.2696 13.7389 14.167 13.4916 14.0192 13.2715C13.8715 13.0514 13.6814 12.8629 13.4601 12.7169C13.2388 12.5709 12.9907 12.4704 12.7303 12.4212L8.40151 11.5412C7.88185 11.435 7.34128 11.5395 6.8987 11.8318C6.45612 12.1241 6.14778 12.5803 6.04151 13.0999C5.93528 13.6196 6.03982 14.1602 6.33214 14.6027C6.62446 15.0453 7.08061 15.3537 7.60026 15.4599V15.4562ZM20.3503 11.9362L23.294 12.5374C23.4182 12.5626 23.5472 12.5396 23.6551 12.4733C23.763 12.4069 23.8417 12.3021 23.8753 12.1799L25.9278 4.51744C26.0628 4.00579 25.9896 3.46147 25.7242 3.00369C25.4587 2.54591 25.0227 2.21199 24.5115 2.07506C24.0004 1.93814 23.4558 2.00937 22.997 2.27316C22.5383 2.53694 22.2028 2.97178 22.064 3.48244L19.964 11.3199C19.9463 11.3862 19.9424 11.4554 19.9525 11.5232C19.9627 11.591 19.9867 11.656 20.023 11.7141C20.0594 11.7723 20.1073 11.8223 20.1638 11.8612C20.2203 11.9 20.2842 11.9268 20.3515 11.9399L20.3503 11.9362ZM25.0178 15.9037C24.8037 15.5518 24.5192 15.248 24.1821 15.0114C23.8451 14.7748 23.4627 14.6104 23.059 14.5287L18.609 13.6249C18.2668 13.555 17.9123 13.5759 17.5807 13.6856C17.2491 13.7952 16.952 13.9898 16.719 14.2499C16.5953 14.3821 16.4928 14.5326 16.4153 14.6962C16.2466 15.0345 16.1773 15.4137 16.2153 15.7898C16.2534 16.1659 16.3973 16.5235 16.6303 16.8212C16.937 17.2066 17.3715 17.4696 17.8553 17.5624L19.7603 17.9512C20.019 18.0038 20.2467 18.1559 20.3944 18.3747C20.5422 18.5935 20.5981 18.8615 20.5503 19.1212C20.3821 19.9289 20.5048 20.7701 20.8965 21.4962C21.0168 21.7065 21.0586 21.9528 21.0144 22.191C20.9702 22.4293 20.843 22.6442 20.6553 22.7974C20.5413 22.8868 20.4092 22.9503 20.2683 22.9837C20.1273 23.017 19.9808 23.0193 19.8388 22.9904C19.6969 22.9615 19.5629 22.9021 19.4462 22.8164C19.3295 22.7306 19.2327 22.6205 19.1628 22.4937C18.6962 21.6493 18.46 20.697 18.4778 19.7324L17.409 19.4999C16.8947 19.3963 16.406 19.1919 15.9711 18.8984C15.5362 18.6049 15.1637 18.2282 14.8753 17.7899C14.8278 17.7187 14.784 17.6462 14.7428 17.5724C14.4783 17.774 14.1899 17.942 13.884 18.0724C14.2468 18.6793 14.4423 19.3715 14.4505 20.0785C14.4587 20.7854 14.2794 21.482 13.9308 22.0971C13.5822 22.7122 13.0768 23.224 12.466 23.5802C11.8553 23.9364 11.161 24.1244 10.454 24.1249C10.184 24.1248 9.91479 24.0976 9.65026 24.0437L7.20151 23.5437H7.19401C7.13518 23.5297 7.07364 23.5324 7.01625 23.5514C6.95886 23.5704 6.90788 23.605 6.86899 23.6512C6.8301 23.6975 6.80483 23.7537 6.796 23.8135C6.78718 23.8733 6.79514 23.9344 6.81901 23.9899C7.59941 25.7758 8.88352 27.2955 10.5142 28.3629C12.1448 29.4303 14.0513 29.9992 16.0003 29.9999H16.0765C21.5478 29.9587 26.0003 25.4224 26.0003 19.8874V19.4699C25.9999 18.2157 25.6609 16.9849 25.019 15.9074L25.0178 15.9037Z" fill="#222222"/>
</svg>
