<svg width="32" height="32" viewBox="0 0 32 32" fill="none" xmlns="http://www.w3.org/2000/svg">
<path d="M18.9995 10C18.9995 9.73481 19.1049 9.48046 19.2924 9.29292C19.48 9.10539 19.7343 9.00003 19.9995 9.00003H30.9995C31.2647 9.00003 31.5191 9.10539 31.7066 9.29292C31.8942 9.48046 31.9995 9.73481 31.9995 10C31.9995 10.2652 31.8942 10.5196 31.7066 10.7071C31.5191 10.8947 31.2647 11 30.9995 11H19.9995C19.7343 11 19.48 10.8947 19.2924 10.7071C19.1049 10.5196 18.9995 10.2652 18.9995 10ZM30.9995 15H19.9995C19.7343 15 19.48 15.1054 19.2924 15.2929C19.1049 15.4805 18.9995 15.7348 18.9995 16C18.9995 16.2652 19.1049 16.5196 19.2924 16.7071C19.48 16.8947 19.7343 17 19.9995 17H30.9995C31.2647 17 31.5191 16.8947 31.7066 16.7071C31.8942 16.5196 31.9995 16.2652 31.9995 16C31.9995 15.7348 31.8942 15.4805 31.7066 15.2929C31.5191 15.1054 31.2647 15 30.9995 15ZM30.9995 21H22.9995C22.7343 21 22.48 21.1054 22.2924 21.2929C22.1049 21.4805 21.9995 21.7348 21.9995 22C21.9995 22.2652 22.1049 22.5196 22.2924 22.7071C22.48 22.8947 22.7343 23 22.9995 23H30.9995C31.2647 23 31.5191 22.8947 31.7066 22.7071C31.8942 22.5196 31.9995 22.2652 31.9995 22C31.9995 21.7348 31.8942 21.4805 31.7066 21.2929C31.5191 21.1054 31.2647 21 30.9995 21ZM13.6608 17.75C14.6532 16.9856 15.3815 15.9297 15.7435 14.7304C16.1056 13.5311 16.0831 12.2486 15.6793 11.0628C15.2756 9.87689 14.5108 8.84713 13.4922 8.11791C12.4736 7.38869 11.2523 6.99658 9.99953 6.99658C8.7468 6.99658 7.52549 7.38869 6.50689 8.11791C5.48828 8.84713 4.72347 9.87689 4.31971 11.0628C3.91595 12.2486 3.8935 13.5311 4.25551 14.7304C4.61751 15.9297 5.34582 16.9856 6.33828 17.75C3.76078 18.8413 1.72953 21.0375 1.03078 23.75C0.992613 23.8978 0.988796 24.0524 1.01962 24.2019C1.05045 24.3515 1.11509 24.4919 1.20861 24.6126C1.30212 24.7333 1.42202 24.8309 1.55912 24.8981C1.69622 24.9652 1.84687 25.0001 1.99953 25H17.9995C18.1522 25.0001 18.3028 24.9652 18.4399 24.8981C18.577 24.8309 18.6969 24.7333 18.7904 24.6126C18.884 24.4919 18.9486 24.3515 18.9794 24.2019C19.0103 24.0524 19.0064 23.8978 18.9683 23.75C18.2695 21.0363 16.2383 18.84 13.6608 17.75Z" fill="#222222"/>
</svg>
