<svg width="32" height="32" viewBox="0 0 32 32" fill="none" xmlns="http://www.w3.org/2000/svg">
<path d="M25 8.09375H4C3.20435 8.09375 2.44129 8.45921 1.87868 9.10972C1.31607 9.76024 1 10.6425 1 11.5625V25.4375C1 26.3575 1.31607 27.2398 1.87868 27.8903C2.44129 28.5408 3.20435 28.9062 4 28.9062H25C25.7956 28.9062 26.5587 28.5408 27.1213 27.8903C27.6839 27.2398 28 26.3575 28 25.4375V11.5625C28 10.6425 27.6839 9.76024 27.1213 9.10972C26.5587 8.45921 25.7956 8.09375 25 8.09375ZM26 25.4375C26 25.7442 25.8946 26.0383 25.7071 26.2551C25.5196 26.4719 25.2652 26.5938 25 26.5938H4C3.73478 26.5938 3.48043 26.4719 3.29289 26.2551C3.10536 26.0383 3 25.7442 3 25.4375V11.5625C3 11.2558 3.10536 10.9617 3.29289 10.7449C3.48043 10.5281 3.73478 10.4062 4 10.4062H25C25.2652 10.4062 25.5196 10.5281 25.7071 10.7449C25.8946 10.9617 26 11.2558 26 11.5625V25.4375ZM32 13.875V23.125C32 23.4317 31.8946 23.7258 31.7071 23.9426C31.5196 24.1594 31.2652 24.2812 31 24.2812C30.7348 24.2812 30.4804 24.1594 30.2929 23.9426C30.1054 23.7258 30 23.4317 30 23.125V13.875C30 13.5683 30.1054 13.2742 30.2929 13.0574C30.4804 12.8406 30.7348 12.7188 31 12.7188C31.2652 12.7188 31.5196 12.8406 31.7071 13.0574C31.8946 13.2742 32 13.5683 32 13.875ZM17.3512 17.8915C17.441 18.0593 17.4921 18.2508 17.4998 18.4479C17.5075 18.645 17.4714 18.841 17.395 19.0174L15.395 23.6424C15.3362 23.7783 15.2549 23.8995 15.1556 23.9991C15.0564 24.0986 14.9411 24.1746 14.8164 24.2226C14.6918 24.2707 14.5601 24.2899 14.4291 24.2791C14.298 24.2683 14.17 24.2278 14.0525 24.1598C13.935 24.0919 13.8302 23.9978 13.7441 23.8831C13.658 23.7683 13.5923 23.635 13.5507 23.4909C13.5092 23.3467 13.4926 23.1945 13.5019 23.043C13.5112 22.8914 13.5462 22.7435 13.605 22.6076L14.8825 19.6562H12.5C12.3295 19.6564 12.1617 19.6061 12.0127 19.5102C11.8637 19.4142 11.7384 19.2758 11.6487 19.1081C11.559 18.9404 11.5079 18.7489 11.5003 18.5519C11.4926 18.3549 11.5287 18.1589 11.605 17.9826L13.605 13.3576C13.6638 13.2217 13.7451 13.1005 13.8444 13.0009C13.9436 12.9014 14.0589 12.8254 14.1836 12.7774C14.3082 12.7293 14.4399 12.7101 14.5709 12.7209C14.702 12.7317 14.83 12.7722 14.9475 12.8402C15.065 12.9081 15.1698 13.0022 15.2559 13.1169C15.342 13.2317 15.4077 13.365 15.4493 13.5091C15.4908 13.6533 15.5074 13.8055 15.4981 13.957C15.4888 14.1086 15.4538 14.2565 15.395 14.3924L14.1175 17.3438H16.5C16.6705 17.3436 16.8382 17.3938 16.9872 17.4897C17.1362 17.5855 17.2615 17.7239 17.3512 17.8915Z" fill="#222222"/>
</svg>
