<svg width="32" height="32" viewBox="0 0 32 32" fill="none" xmlns="http://www.w3.org/2000/svg">
<path d="M26.7403 26.3275L6.74025 4.3275C6.65243 4.22851 6.54584 4.14793 6.42665 4.09044C6.30746 4.03294 6.17805 3.99968 6.04591 3.99257C5.91377 3.98546 5.78153 4.00465 5.65686 4.04902C5.53219 4.0934 5.41757 4.16208 5.31964 4.25107C5.22171 4.34007 5.14241 4.44762 5.08635 4.56749C5.03029 4.68736 4.99858 4.81717 4.99306 4.94938C4.98754 5.0816 5.00831 5.2136 5.05417 5.33772C5.10004 5.46185 5.17008 5.57564 5.26025 5.6725L7.00025 7.58625V27C7.00025 27.7956 7.31632 28.5587 7.87893 29.1213C8.44154 29.6839 9.2046 30 10.0003 30H22.0003C22.7332 29.9998 23.4408 29.7313 23.9893 29.2452C24.5379 28.759 24.8895 28.0889 24.9778 27.3612L25.2603 27.6725C25.3481 27.7715 25.4547 27.8521 25.5739 27.9096C25.693 27.9671 25.8225 28.0003 25.9546 28.0074C26.0867 28.0145 26.219 27.9953 26.3436 27.951C26.4683 27.9066 26.5829 27.8379 26.6809 27.7489C26.7788 27.6599 26.8581 27.5524 26.9141 27.4325C26.9702 27.3126 27.0019 27.1828 27.0074 27.0506C27.013 26.9184 26.9922 26.7864 26.9463 26.6623C26.9005 26.5381 26.8304 26.4244 26.7403 26.3275ZM23.0003 27C23.0003 27.2652 22.8949 27.5196 22.7074 27.7071C22.5198 27.8946 22.2655 28 22.0003 28H10.0003C9.73503 28 9.48068 27.8946 9.29314 27.7071C9.10561 27.5196 9.00025 27.2652 9.00025 27V9.78625L23.0003 25.1863V27ZM8.58775 3C8.58775 2.73478 8.69311 2.48043 8.88064 2.29289C9.06818 2.10536 9.32253 2 9.58775 2H22.0003C22.7959 2 23.559 2.31607 24.1216 2.87868C24.6842 3.44129 25.0003 4.20435 25.0003 5V18.8538C25.0003 19.119 24.8949 19.3733 24.7074 19.5609C24.5198 19.7484 24.2655 19.8538 24.0003 19.8538C23.735 19.8538 23.4807 19.7484 23.2931 19.5609C23.1056 19.3733 23.0003 19.119 23.0003 18.8538V5C23.0003 4.73478 22.8949 4.48043 22.7074 4.29289C22.5198 4.10536 22.2655 4 22.0003 4H9.58775C9.32253 4 9.06818 3.89464 8.88064 3.70711C8.69311 3.51957 8.58775 3.26522 8.58775 3Z" fill="#222222"/>
</svg>
