<svg width="32" height="32" viewBox="0 0 32 32" fill="none" xmlns="http://www.w3.org/2000/svg">
<path d="M25.8825 9.0838C24.5862 7.78462 23.0456 6.75489 21.3495 6.05399C19.6534 5.3531 17.8352 4.9949 16 5.00005H15.95C8.25875 5.0263 2 11.3751 2 19.1413V22.0001C2 22.5305 2.21071 23.0392 2.58579 23.4143C2.96086 23.7893 3.46957 24.0001 4 24.0001H28C28.5304 24.0001 29.0391 23.7893 29.4142 23.4143C29.7893 23.0392 30 22.5305 30 22.0001V19.0001C30.0051 17.1568 29.6438 15.3309 28.9369 13.6285C28.23 11.9261 27.1918 10.3813 25.8825 9.0838ZM28 22.0001H14.9637L21.8088 12.5876C21.9649 12.3731 22.0294 12.1053 21.9882 11.8432C21.9469 11.5812 21.8032 11.3462 21.5888 11.1901C21.3743 11.0339 21.1065 10.9694 20.8444 11.0106C20.5824 11.0519 20.3474 11.1956 20.1912 11.4101L12.49 22.0001H4V19.1413C4 18.7563 4.01875 18.3763 4.05375 18.0001H7C7.26522 18.0001 7.51957 17.8947 7.70711 17.7072C7.89464 17.5196 8 17.2653 8 17.0001C8 16.7348 7.89464 16.4805 7.70711 16.2929C7.51957 16.1054 7.26522 16.0001 7 16.0001H4.40875C5.69875 11.1426 9.90875 7.47005 15 7.04255V10.0001C15 10.2653 15.1054 10.5196 15.2929 10.7072C15.4804 10.8947 15.7348 11.0001 16 11.0001C16.2652 11.0001 16.5196 10.8947 16.7071 10.7072C16.8946 10.5196 17 10.2653 17 10.0001V7.04131C19.4808 7.25008 21.8356 8.22418 23.7389 9.829C25.6422 11.4338 27.0001 13.5902 27.625 16.0001H25C24.7348 16.0001 24.4804 16.1054 24.2929 16.2929C24.1054 16.4805 24 16.7348 24 17.0001C24 17.2653 24.1054 17.5196 24.2929 17.7072C24.4804 17.8947 24.7348 18.0001 25 18.0001H27.9587C27.985 18.3313 28 18.6638 28 19.0001V22.0001Z" fill="#222222"/>
</svg>
