<svg width="32" height="32" viewBox="0 0 32 32" fill="none" xmlns="http://www.w3.org/2000/svg">
<path d="M21.9798 13.9425C21.9482 13.787 21.8799 13.6413 21.7808 13.5174C21.6817 13.3936 21.5546 13.295 21.4098 13.23L15.1598 10.4262L16.8748 3.23125C16.9256 3.01639 16.9038 2.79078 16.8128 2.58961C16.7219 2.38843 16.567 2.223 16.3722 2.11911C16.1774 2.01522 15.9537 1.97871 15.736 2.01528C15.5183 2.05184 15.3188 2.15942 15.1686 2.32125L3.26608 15.1775C3.15832 15.2939 3.07981 15.4343 3.03703 15.5871C2.99426 15.7399 2.98845 15.9006 3.02008 16.0561C3.05171 16.2116 3.11987 16.3573 3.21894 16.4812C3.31801 16.6051 3.44514 16.7037 3.58983 16.7687L9.83983 19.5737L8.12483 26.7687C8.07411 26.9836 8.0959 27.2092 8.18683 27.4104C8.27775 27.6116 8.43269 27.777 8.62749 27.8809C8.82228 27.9848 9.04598 28.0213 9.2637 27.9847C9.48141 27.9482 9.68091 27.8406 9.83108 27.6787L21.7311 14.8225C21.8395 14.7062 21.9187 14.5656 21.9619 14.4126C22.0052 14.2595 22.0113 14.0984 21.9798 13.9425ZM10.9523 23.5262L11.9723 19.2312C12.0263 19.0049 11.9996 18.7669 11.8969 18.5581C11.7942 18.3494 11.622 18.1829 11.4098 18.0875L5.67858 15.515L14.0473 6.47375L13.0273 10.7687C12.9734 10.9951 13.0001 11.2331 13.1027 11.4418C13.2054 11.6506 13.3777 11.817 13.5898 11.9125L19.3198 14.485L10.9523 23.5262ZM29.8936 26.5525L25.3936 17.5525C25.3105 17.3864 25.1829 17.2467 25.0249 17.1491C24.8669 17.0515 24.6849 16.9998 24.4992 16.9998C24.3135 16.9998 24.1315 17.0515 23.9735 17.1491C23.8156 17.2467 23.6879 17.3864 23.6048 17.5525L19.1048 26.5525C18.9861 26.7897 18.9666 27.0643 19.0504 27.316C19.1342 27.5676 19.3145 27.7757 19.5517 27.8944C19.7889 28.0131 20.0635 28.0326 20.3152 27.9488C20.5668 27.865 20.7749 27.6847 20.8936 27.4475L22.1173 25H26.8811L28.1048 27.4475C28.188 27.6136 28.3157 27.7533 28.4738 27.8509C28.6319 27.9485 28.8141 28.0001 28.9998 28C29.1703 27.9999 29.3379 27.9563 29.4867 27.8732C29.6355 27.7901 29.7606 27.6704 29.8502 27.5254C29.9397 27.3803 29.9907 27.2148 29.9983 27.0446C30.0059 26.8743 29.9699 26.7049 29.8936 26.5525ZM23.1173 23L24.4998 20.2362L25.8811 23H23.1173Z" fill="#222222"/>
</svg>
