<svg width="32" height="32" viewBox="0 0 32 32" fill="none" xmlns="http://www.w3.org/2000/svg">
<path d="M6.74025 4.32749C6.65243 4.2285 6.54584 4.14792 6.42665 4.09043C6.30746 4.03294 6.17805 3.99967 6.04591 3.99256C5.91377 3.98545 5.78153 4.00464 5.65686 4.04902C5.53219 4.09339 5.41757 4.16207 5.31964 4.25106C5.22171 4.34006 5.14241 4.44761 5.08635 4.56748C5.03029 4.68735 4.99858 4.81716 4.99306 4.94937C4.98754 5.08159 5.00831 5.21359 5.05417 5.33771C5.10004 5.46184 5.17008 5.57563 5.26025 5.67249L10.1665 11.07L5.269 16.32C5.1553 16.4398 5.07304 16.5859 5.02958 16.7453C4.98612 16.9046 4.98282 17.0723 5.01996 17.2332C5.0571 17.3942 5.13353 17.5434 5.24243 17.6676C5.35132 17.7918 5.48929 17.8871 5.644 17.945L12.8478 20.6462L11.0203 29.8037C10.9788 30.0167 11.0077 30.2374 11.1026 30.4325C11.1975 30.6276 11.3533 30.7866 11.5465 30.8853C11.7397 30.9841 11.9598 31.0174 12.1736 30.9801C12.3873 30.9429 12.5831 30.8371 12.7315 30.6787L20.464 22.3937L25.2603 27.6687C25.3481 27.7677 25.4547 27.8483 25.5739 27.9058C25.693 27.9633 25.8225 27.9966 25.9546 28.0037C26.0867 28.0108 26.219 27.9916 26.3436 27.9472C26.4683 27.9028 26.5829 27.8342 26.6809 27.7452C26.7788 27.6562 26.8581 27.5486 26.9141 27.4287C26.9702 27.3089 27.0019 27.1791 27.0074 27.0469C27.013 26.9146 26.9922 26.7826 26.9463 26.6585C26.9005 26.5344 26.8304 26.4206 26.7403 26.3237L6.74025 4.32749ZM13.6715 26.75L14.9803 20.2025C15.0271 19.9703 14.99 19.729 14.8755 19.5216C14.7611 19.3142 14.5767 19.1541 14.3553 19.07L7.75025 16.5887L11.5153 12.555L19.1128 20.9125L13.6715 26.75ZM13.5828 8.87499C13.4867 8.78538 13.4092 8.67772 13.3548 8.55817C13.3003 8.43861 13.27 8.3095 13.2655 8.17822C13.2609 8.04693 13.2823 7.91603 13.3284 7.79301C13.3745 7.66999 13.4443 7.55725 13.534 7.46124L19.269 1.31624C19.4174 1.15791 19.6132 1.05213 19.827 1.01486C20.0407 0.977594 20.2608 1.01086 20.454 1.10964C20.6472 1.20842 20.803 1.36736 20.8979 1.56247C20.9928 1.75758 21.0217 1.97827 20.9803 2.19124L19.1478 11.3625L26.3515 14.0637C26.5051 14.122 26.6419 14.2172 26.75 14.3409C26.858 14.4646 26.9339 14.613 26.971 14.773C27.0081 14.9331 27.0052 15.0997 26.9625 15.2583C26.9199 15.417 26.8388 15.5626 26.7265 15.6825L23.939 18.6687C23.7568 18.8572 23.508 18.9666 23.2459 18.9734C22.9839 18.9803 22.7297 18.8839 22.538 18.7052C22.3463 18.5264 22.2324 18.2795 22.2209 18.0176C22.2094 17.7558 22.3012 17.4999 22.4765 17.305L24.2503 15.4112L17.6503 12.9362C17.4288 12.8521 17.2444 12.6921 17.13 12.4847C17.0155 12.2773 16.9784 12.036 17.0253 11.8037L18.334 5.25624L15.0003 8.82749C14.9105 8.92402 14.8026 9.00186 14.6826 9.05652C14.5627 9.11119 14.4331 9.1416 14.3014 9.14602C14.1696 9.15043 14.0383 9.12876 13.915 9.08224C13.7917 9.03573 13.6788 8.9653 13.5828 8.87499Z" fill="#222222"/>
</svg>
