<svg width="32" height="32" viewBox="0 0 32 32" fill="none" xmlns="http://www.w3.org/2000/svg">
<path d="M20.7079 11.2925C20.8008 11.3854 20.8746 11.4957 20.9249 11.6171C20.9752 11.7385 21.0011 11.8686 21.0011 12C21.0011 12.1314 20.9752 12.2616 20.9249 12.383C20.8746 12.5044 20.8008 12.6146 20.7079 12.7075L12.7079 20.7075C12.6149 20.8004 12.5046 20.8741 12.3833 20.9244C12.2619 20.9747 12.1318 21.0006 12.0004 21.0006C11.869 21.0006 11.7389 20.9747 11.6175 20.9244C11.4961 20.8741 11.3858 20.8004 11.2929 20.7075C11.1999 20.6146 11.1262 20.5043 11.076 20.3829C11.0257 20.2615 10.9998 20.1314 10.9998 20C10.9998 19.8686 11.0257 19.7385 11.076 19.6171C11.1262 19.4957 11.1999 19.3854 11.2929 19.2925L19.2929 11.2925C19.3857 11.1995 19.496 11.1258 19.6174 11.0755C19.7388 11.0251 19.8689 10.9992 20.0004 10.9992C20.1318 10.9992 20.2619 11.0251 20.3833 11.0755C20.5047 11.1258 20.615 11.1995 20.7079 11.2925ZM26.9504 5.05002C26.3003 4.39993 25.5286 3.88425 24.6793 3.53242C23.83 3.1806 22.9197 2.99951 22.0004 2.99951C21.081 2.99951 20.1707 3.1806 19.3214 3.53242C18.4721 3.88425 17.7004 4.39993 17.0504 5.05002L13.2929 8.80627C13.1052 8.99391 12.9998 9.2484 12.9998 9.51377C12.9998 9.77913 13.1052 10.0336 13.2929 10.2213C13.4805 10.4089 13.735 10.5143 14.0004 10.5143C14.2657 10.5143 14.5202 10.4089 14.7079 10.2213L18.4654 6.47127C19.4065 5.55083 20.6726 5.03866 21.989 5.04591C23.3053 5.05316 24.5657 5.57924 25.4966 6.50999C26.4276 7.44074 26.9539 8.70105 26.9613 10.0174C26.9688 11.3338 26.4569 12.6 25.5366 13.5413L21.7779 17.2988C21.5902 17.4862 21.4847 17.7406 21.4846 18.0058C21.4845 18.2711 21.5898 18.5255 21.7772 18.7131C21.9647 18.9008 22.219 19.0063 22.4843 19.0064C22.7495 19.0065 23.004 18.9012 23.1916 18.7138L26.9504 14.95C27.6004 14.3 28.1161 13.5283 28.468 12.679C28.8198 11.8296 29.0009 10.9193 29.0009 10C29.0009 9.0807 28.8198 8.17039 28.468 7.32107C28.1161 6.47174 27.6004 5.70004 26.9504 5.05002ZM17.2929 21.7775L13.5354 25.535C13.073 26.0078 12.5214 26.3842 11.9125 26.6423C11.3036 26.9004 10.6496 27.0352 9.98832 27.0389C9.32702 27.0425 8.67156 26.9149 8.05989 26.6635C7.44823 26.4121 6.89252 26.0418 6.42494 25.5742C5.95736 25.1065 5.5872 24.5507 5.33589 23.939C5.08458 23.3273 4.95711 22.6718 4.96087 22.0105C4.96463 21.3492 5.09954 20.6952 5.35779 20.0864C5.61603 19.4776 5.99249 18.9261 6.46536 18.4638L10.2216 14.7075C10.4092 14.5199 10.5147 14.2654 10.5147 14C10.5147 13.7347 10.4092 13.4802 10.2216 13.2925C10.034 13.1049 9.77947 12.9995 9.51411 12.9995C9.24874 12.9995 8.99425 13.1049 8.80661 13.2925L5.05036 17.05C3.73754 18.3628 3 20.1434 3 22C3 23.8566 3.73754 25.6372 5.05036 26.95C6.36318 28.2628 8.14375 29.0004 10.0004 29.0004C11.857 29.0004 13.6375 28.2628 14.9504 26.95L18.7079 23.1913C18.8953 23.0036 19.0006 22.7492 19.0005 22.4839C19.0004 22.2187 18.8949 21.9644 18.7072 21.7769C18.5196 21.5894 18.2652 21.4842 17.9999 21.4843C17.7347 21.4844 17.4803 21.5899 17.2929 21.7775Z" fill="#222222"/>
</svg>
