<svg width="32" height="32" viewBox="0 0 32 32" fill="none" xmlns="http://www.w3.org/2000/svg">
<path d="M29.9997 11.0289C29.9496 12.7698 29.2338 14.4251 27.9997 15.6539L23.656 20.0002C23.0233 20.6363 22.2708 21.1406 21.442 21.4839C20.6131 21.8272 19.7244 22.0027 18.8272 22.0002H18.821C17.9085 21.9995 17.0055 21.816 16.1651 21.4605C15.3248 21.105 14.5642 20.5847 13.9283 19.9303C13.2924 19.2759 12.7942 18.5007 12.4629 17.6505C12.1317 16.8003 11.9742 15.8923 11.9997 14.9802C12.0072 14.715 12.1197 14.4636 12.3125 14.2813C12.5053 14.0991 12.7626 14.0009 13.0279 14.0083C13.2931 14.0158 13.5445 14.1283 13.7267 14.3211C13.909 14.5139 14.0072 14.7712 13.9997 15.0364C13.9815 15.6813 14.0928 16.3234 14.3269 16.9245C14.561 17.5257 14.9133 18.0739 15.3628 18.5366C15.8124 18.9994 16.3502 19.3673 16.9444 19.6187C17.5385 19.87 18.1771 19.9998 18.8222 20.0002C19.4564 20.0018 20.0847 19.8777 20.6706 19.635C21.2566 19.3924 21.7886 19.036 22.236 18.5864L26.5797 14.2427C27.4759 13.3352 27.9767 12.11 27.9727 10.8346C27.9687 9.55915 27.4603 8.33711 26.5584 7.43524C25.6566 6.53338 24.4345 6.02495 23.1591 6.02096C21.8837 6.01697 20.6585 6.51774 19.751 7.41394L18.376 8.78894C18.1869 8.96856 17.9352 9.06722 17.6744 9.06388C17.4137 9.06054 17.1645 8.95547 16.9801 8.77107C16.7957 8.58667 16.6906 8.33752 16.6873 8.07676C16.684 7.816 16.7826 7.56425 16.9622 7.37519L18.3372 6.00019C18.9716 5.3656 19.7248 4.86221 20.5537 4.51876C21.3827 4.17531 22.2712 3.99854 23.1685 3.99854C24.0658 3.99854 24.9543 4.17531 25.7832 4.51876C26.6122 4.86221 27.3654 5.3656 27.9997 6.00019C28.6568 6.65889 29.173 7.4444 29.5168 8.30892C29.8606 9.17345 30.0249 10.0989 29.9997 11.0289ZM13.6247 23.2077L12.2497 24.5827C11.8013 25.0341 11.2675 25.3919 10.6795 25.6353C10.0916 25.8786 9.46108 26.0027 8.82474 26.0002C7.87011 25.9994 6.93714 25.7157 6.14369 25.1849C5.35024 24.6541 4.73193 23.9 4.36688 23.018C4.00183 22.1359 3.90641 21.1654 4.0927 20.2292C4.27898 19.2929 4.7386 18.4328 5.41349 17.7577L9.74974 13.4139C10.4327 12.7274 11.3064 12.262 12.2572 12.0783C13.2081 11.8946 14.1922 12.0011 15.0818 12.3838C15.9713 12.7666 16.7253 13.4081 17.2456 14.2248C17.766 15.0416 18.0287 15.9959 17.9997 16.9639C17.9923 17.2292 18.0905 17.4865 18.2727 17.6793C18.455 17.8721 18.7064 17.9846 18.9716 17.9921C19.2368 17.9995 19.4941 17.9013 19.687 17.7191C19.8798 17.5368 19.9923 17.2854 19.9997 17.0202C20.0237 16.0916 19.8588 15.1678 19.5151 14.3049C19.1713 13.442 18.6557 12.6579 17.9997 12.0002C16.7187 10.7197 14.9816 10.0004 13.1704 10.0004C11.3591 10.0004 9.62201 10.7197 8.34099 12.0002L3.99974 16.3439C3.04503 17.2983 2.39463 18.5142 2.13075 19.838C1.86687 21.1619 2.00134 22.5342 2.51718 23.7817C3.03301 25.0291 3.90705 26.0957 5.02885 26.8465C6.15065 27.5974 7.46985 27.9988 8.81974 28.0002C9.71707 28.0028 10.606 27.8273 11.4351 27.484C12.2642 27.1407 13.0169 26.6364 13.6497 26.0002L15.0247 24.6252C15.1866 24.4346 15.2711 24.1902 15.2617 23.9404C15.2523 23.6905 15.1496 23.4532 14.9739 23.2753C14.7982 23.0974 14.5622 22.9918 14.3125 22.9792C14.0627 22.9667 13.8174 23.0482 13.6247 23.2077Z" fill="#222222"/>
</svg>
