<svg width="32" height="32" viewBox="0 0 32 32" fill="none" xmlns="http://www.w3.org/2000/svg">
<path d="M29 24C29 24.2652 28.8946 24.5196 28.7071 24.7071C28.5196 24.8947 28.2652 25 28 25H20.1175C19.7459 25.0012 19.3814 24.8983 19.0653 24.703C18.7491 24.5077 18.494 24.2278 18.3288 23.895L11.8825 11H4C3.73478 11 3.48043 10.8947 3.29289 10.7071C3.10536 10.5196 3 10.2652 3 10C3 9.73479 3.10536 9.48044 3.29289 9.2929C3.48043 9.10537 3.73478 9.00001 4 9.00001H11.8825C12.2541 8.99882 12.6186 9.1017 12.9347 9.29699C13.2509 9.49228 13.506 9.77219 13.6713 10.105L20.1175 23H28C28.2652 23 28.5196 23.1054 28.7071 23.2929C28.8946 23.4804 29 23.7348 29 24ZM19 11H28C28.2652 11 28.5196 10.8947 28.7071 10.7071C28.8946 10.5196 29 10.2652 29 10C29 9.73479 28.8946 9.48044 28.7071 9.2929C28.5196 9.10537 28.2652 9.00001 28 9.00001H19C18.7348 9.00001 18.4804 9.10537 18.2929 9.2929C18.1054 9.48044 18 9.73479 18 10C18 10.2652 18.1054 10.5196 18.2929 10.7071C18.4804 10.8947 18.7348 11 19 11Z" fill="#222222"/>
</svg>
