<svg width="32" height="32" viewBox="0 0 32 32" fill="none" xmlns="http://www.w3.org/2000/svg">
<path d="M29.7071 2.29231C29.6142 2.19933 29.5039 2.12557 29.3825 2.07525C29.2611 2.02493 29.131 1.99902 28.9996 1.99902C28.8682 1.99902 28.738 2.02493 28.6166 2.07525C28.4952 2.12557 28.385 2.19933 28.2921 2.29231L21.7421 8.84356L21.0708 8.17106C20.3198 7.42225 19.3026 7.00175 18.2421 7.00175C17.1816 7.00175 16.1643 7.42225 15.4133 8.17106L12.4996 11.0861L11.7071 10.2923C11.5194 10.1047 11.2649 9.99925 10.9996 9.99925C10.7342 9.99925 10.4797 10.1047 10.2921 10.2923C10.1044 10.4799 9.99902 10.7344 9.99902 10.9998C9.99902 11.2652 10.1044 11.5197 10.2921 11.7073L11.0858 12.4998L8.17083 15.4136C7.7993 15.785 7.50458 16.226 7.3035 16.7114C7.10243 17.1967 6.99893 17.7169 6.99893 18.2423C6.99893 18.7677 7.10243 19.2879 7.3035 19.7733C7.50458 20.2586 7.7993 20.6996 8.17083 21.0711L8.84333 21.7423L2.29208 28.2923C2.19917 28.3852 2.12547 28.4955 2.07519 28.6169C2.0249 28.7383 1.99902 28.8684 1.99902 28.9998C1.99902 29.1312 2.0249 29.2613 2.07519 29.3827C2.12547 29.5041 2.19917 29.6144 2.29208 29.7073C2.47972 29.895 2.73422 30.0004 2.99958 30.0004C3.13097 30.0004 3.26108 29.9745 3.38248 29.9242C3.50387 29.8739 3.61417 29.8002 3.70708 29.7073L10.2571 23.1561L10.9283 23.8286C11.2998 24.2001 11.7408 24.4948 12.2261 24.6959C12.7115 24.897 13.2317 25.0005 13.7571 25.0005C14.2824 25.0005 14.8027 24.897 15.288 24.6959C15.7734 24.4948 16.2144 24.2001 16.5858 23.8286L19.4996 20.9136L20.2921 21.7073C20.385 21.8002 20.4953 21.8739 20.6167 21.9242C20.7381 21.9745 20.8682 22.0004 20.9996 22.0004C21.131 22.0004 21.2611 21.9745 21.3825 21.9242C21.5039 21.8739 21.6142 21.8002 21.7071 21.7073C21.8 21.6144 21.8737 21.5041 21.924 21.3827C21.9743 21.2613 22.0001 21.1312 22.0001 20.9998C22.0001 20.8684 21.9743 20.7383 21.924 20.6169C21.8737 20.4955 21.8 20.3852 21.7071 20.2923L20.9133 19.4998L23.8283 16.5861C24.1999 16.2146 24.4946 15.7736 24.6957 15.2883C24.8967 14.8029 25.0002 14.2827 25.0002 13.7573C25.0002 13.2319 24.8967 12.7117 24.6957 12.2264C24.4946 11.741 24.1999 11.3 23.8283 10.9286L23.1558 10.2573L29.7071 3.70731C29.8001 3.61444 29.8738 3.50415 29.9241 3.38275C29.9745 3.26135 30.0004 3.13123 30.0004 2.99981C30.0004 2.86839 29.9745 2.73827 29.9241 2.61687C29.8738 2.49547 29.8001 2.38518 29.7071 2.29231ZM15.1708 22.4173C14.7958 22.7921 14.2873 23.0026 13.7571 23.0026C13.2269 23.0026 12.7184 22.7921 12.3433 22.4173L9.58583 19.6561C9.21104 19.281 9.00051 18.7725 9.00051 18.2423C9.00051 17.7121 9.21104 17.2036 9.58583 16.8286L12.4996 13.9136L18.0858 19.4998L15.1708 22.4173ZM22.4133 15.1748L19.4996 18.0861L13.9133 12.4998L16.8283 9.58606C17.2034 9.21127 17.7119 9.00074 18.2421 9.00074C18.7723 9.00074 19.2808 9.21127 19.6558 9.58606L22.4133 12.3361C22.6 12.5219 22.7482 12.7428 22.8493 12.986C22.9504 13.2293 23.0024 13.4901 23.0024 13.7536C23.0024 14.017 22.9504 14.2778 22.8493 14.5211C22.7482 14.7643 22.6 14.9852 22.4133 15.1711V15.1748ZM11.0708 4.37481C10.9714 4.12849 10.9738 3.85275 11.0777 3.60825C11.1815 3.36375 11.3783 3.17052 11.6246 3.07106C11.8709 2.9716 12.1466 2.97407 12.3911 3.07792C12.6356 3.18177 12.8289 3.37849 12.9283 3.62481L13.9283 6.12481C13.9776 6.24678 14.0023 6.37725 14.0011 6.50877C14 6.6403 13.9729 6.77031 13.9215 6.89137C13.87 7.01243 13.7953 7.12219 13.7015 7.21436C13.6076 7.30653 13.4965 7.37931 13.3746 7.42856C13.2526 7.47781 13.1221 7.50255 12.9906 7.50137C12.8591 7.50019 12.7291 7.47312 12.608 7.4217C12.487 7.37028 12.3772 7.29552 12.285 7.20168C12.1929 7.10785 12.1201 6.99678 12.0708 6.87481L11.0708 4.37481ZM3.07083 11.6248C3.1199 11.5027 3.19259 11.3915 3.28473 11.2975C3.37687 11.2036 3.48664 11.1288 3.60776 11.0773C3.72888 11.0259 3.85896 10.9988 3.99055 10.9978C4.12213 10.9967 4.25264 11.0216 4.37458 11.0711L6.87458 12.0711C6.99654 12.1203 7.10762 12.1931 7.20145 12.2853C7.29529 12.3774 7.37005 12.4872 7.42147 12.6082C7.47289 12.7293 7.49996 12.8593 7.50114 12.9908C7.50232 13.1224 7.47758 13.2528 7.42833 13.3748C7.37908 13.4968 7.3063 13.6078 7.21413 13.7017C7.12195 13.7955 7.0122 13.8703 6.89114 13.9217C6.77008 13.9731 6.64007 14.0002 6.50854 14.0014C6.37702 14.0025 6.24654 13.9778 6.12458 13.9286L3.62458 12.9286C3.50248 12.8795 3.39127 12.8068 3.29732 12.7147C3.20336 12.6225 3.12852 12.5127 3.07708 12.3916C3.02563 12.2705 2.9986 12.1404 2.99753 12.0088C2.99646 11.8773 3.02137 11.7468 3.07083 11.6248ZM28.9283 20.3748C28.8796 20.4968 28.8073 20.608 28.7156 20.702C28.6239 20.7961 28.5145 20.8711 28.3938 20.9229C28.2731 20.9746 28.1434 21.0021 28.012 21.0037C27.8807 21.0054 27.7503 20.9811 27.6283 20.9323L25.1283 19.9323C25.0061 19.8833 24.8948 19.8107 24.8006 19.7187C24.7064 19.6266 24.6313 19.517 24.5796 19.3959C24.5278 19.2748 24.5004 19.1448 24.4989 19.0131C24.4974 18.8814 24.5218 18.7508 24.5708 18.6286C24.6198 18.5063 24.6924 18.395 24.7845 18.3008C24.8765 18.2067 24.9862 18.1316 25.1072 18.0798C25.2283 18.028 25.3584 18.0006 25.49 17.9991C25.6217 17.9976 25.7524 18.0221 25.8746 18.0711L28.3746 19.0711C28.4967 19.1201 28.6079 19.1928 28.7018 19.285C28.7958 19.3771 28.8706 19.4869 28.9221 19.608C28.9735 19.7291 29.0006 19.8592 29.0016 19.9908C29.0027 20.1224 28.9778 20.2529 28.9283 20.3748ZM20.9283 27.6323C20.9771 27.7543 21.0013 27.8846 20.9997 28.016C20.9981 28.1473 20.9706 28.2771 20.9188 28.3978C20.8671 28.5185 20.792 28.6278 20.698 28.7195C20.604 28.8113 20.4928 28.8836 20.3708 28.9323C20.2489 28.9811 20.1185 29.0053 19.9872 29.0037C19.8558 29.0021 19.7261 28.9746 19.6054 28.9228C19.4847 28.871 19.3753 28.796 19.2836 28.702C19.1919 28.6079 19.1196 28.4968 19.0708 28.3748L18.0708 25.8748C17.9714 25.6285 17.9738 25.3528 18.0777 25.1082C18.1815 24.8637 18.3783 24.6705 18.6246 24.5711C18.8709 24.4716 19.1466 24.4741 19.3911 24.5779C19.6356 24.6818 19.8289 24.8785 19.9283 25.1248L20.9283 27.6323Z" fill="#222222"/>
</svg>
