<svg width="32" height="32" viewBox="0 0 32 32" fill="none" xmlns="http://www.w3.org/2000/svg">
<path d="M29.7071 8.29257C29.6142 8.19959 29.5039 8.12583 29.3825 8.07551C29.2611 8.02518 29.131 7.99928 28.9996 7.99928C28.8682 7.99928 28.738 8.02518 28.6166 8.07551C28.4952 8.12583 28.385 8.19959 28.2921 8.29257L23.9996 12.5863L19.4133 8.00007L23.7071 3.70757C23.8947 3.51993 24.0001 3.26543 24.0001 3.00007C24.0001 2.7347 23.8947 2.48021 23.7071 2.29257C23.5194 2.10493 23.2649 1.99951 22.9996 1.99951C22.7342 1.99951 22.4797 2.10493 22.2921 2.29257L17.9996 6.58632L14.7071 3.29257C14.5194 3.10493 14.2649 2.99951 13.9996 2.99951C13.7342 2.99951 13.4797 3.10493 13.2921 3.29257C13.1044 3.48021 12.999 3.7347 12.999 4.00007C12.999 4.26543 13.1044 4.51993 13.2921 4.70757L14.0858 5.50007L7.46083 12.1251C6.99651 12.5894 6.62819 13.1406 6.3769 13.7472C6.12561 14.3539 5.99627 15.0041 5.99627 15.6607C5.99627 16.3173 6.12561 16.9675 6.3769 17.5742C6.62819 18.1808 6.99651 18.732 7.46083 19.1963L9.42458 21.1601L3.29208 27.2926C3.19917 27.3855 3.12547 27.4958 3.07519 27.6172C3.0249 27.7386 2.99902 27.8687 2.99902 28.0001C2.99902 28.1315 3.0249 28.2616 3.07519 28.383C3.12547 28.5044 3.19917 28.6147 3.29208 28.7076C3.47972 28.8952 3.73422 29.0006 3.99958 29.0006C4.13097 29.0006 4.26108 28.9747 4.38248 28.9245C4.50387 28.8742 4.61417 28.8005 4.70708 28.7076L10.8433 22.5713L12.8071 24.5351C13.2714 24.9994 13.8226 25.3677 14.4292 25.619C15.0359 25.8703 15.6861 25.9996 16.3427 25.9996C16.9993 25.9996 17.6495 25.8703 18.2562 25.619C18.8628 25.3677 19.414 24.9994 19.8783 24.5351L26.5033 17.9101L27.2958 18.7038C27.3887 18.7967 27.499 18.8704 27.6204 18.9207C27.7418 18.971 27.8719 18.9969 28.0033 18.9969C28.1347 18.9969 28.2648 18.971 28.3862 18.9207C28.5076 18.8704 28.6179 18.7967 28.7108 18.7038C28.8037 18.6109 28.8774 18.5006 28.9277 18.3792C28.978 18.2578 29.0039 18.1277 29.0039 17.9963C29.0039 17.8649 28.978 17.7348 28.9277 17.6134C28.8774 17.492 28.8037 17.3817 28.7108 17.2888L25.4133 14.0001L29.7071 9.70757C29.8001 9.6147 29.8738 9.50441 29.9241 9.38301C29.9745 9.26161 30.0004 9.13148 30.0004 9.00007C30.0004 8.86865 29.9745 8.73853 29.9241 8.61713C29.8738 8.49573 29.8001 8.38544 29.7071 8.29257ZM18.4646 23.1251C18.186 23.4038 17.8552 23.6249 17.4911 23.7758C17.127 23.9267 16.7368 24.0043 16.3427 24.0043C15.9486 24.0043 15.5584 23.9267 15.1943 23.7758C14.8302 23.6249 14.4994 23.4038 14.2208 23.1251L8.87458 17.7788C8.59584 17.5002 8.37472 17.1694 8.22386 16.8054C8.07299 16.4413 7.99535 16.051 7.99535 15.6569C7.99535 15.2628 8.07299 14.8726 8.22386 14.5085C8.37472 14.1445 8.59584 13.8137 8.87458 13.5351L15.4996 6.91007L25.0858 16.5001L18.4646 23.1251Z" fill="#222222"/>
</svg>
