<svg width="32" height="32" viewBox="0 0 32 32" fill="none" xmlns="http://www.w3.org/2000/svg">
<path d="M17.5003 25.4999C17.5003 25.7965 17.4123 26.0865 17.2475 26.3332C17.0826 26.5799 16.8484 26.7721 16.5743 26.8857C16.3002 26.9992 15.9986 27.0289 15.7076 26.971C15.4167 26.9132 15.1494 26.7703 14.9396 26.5605C14.7298 26.3507 14.587 26.0835 14.5291 25.7925C14.4712 25.5015 14.5009 25.1999 14.6144 24.9258C14.728 24.6517 14.9202 24.4175 15.1669 24.2527C15.4136 24.0878 15.7036 23.9999 16.0003 23.9999C16.3981 23.9999 16.7796 24.1579 17.0609 24.4392C17.3422 24.7205 17.5003 25.102 17.5003 25.4999ZM25.6253 15.3461C22.8869 13.1781 19.4967 11.9985 16.004 11.9985C12.5114 11.9985 9.1211 13.1781 6.38277 15.3461C6.1749 15.5109 6.04101 15.7515 6.01053 16.0149C5.98006 16.2784 6.0555 16.5432 6.22027 16.7511C6.38503 16.959 6.62562 17.0929 6.88911 17.1233C7.1526 17.1538 7.4174 17.0784 7.62527 16.9136C10.0101 15.0259 12.9625 13.9988 16.004 13.9988C19.0455 13.9988 21.9979 15.0259 24.3828 16.9136C24.4857 16.9952 24.6037 17.0557 24.73 17.0917C24.8563 17.1277 24.9885 17.1385 25.1189 17.1234C25.2494 17.1083 25.3756 17.0677 25.4904 17.0038C25.6051 16.9399 25.7062 16.854 25.7878 16.7511C25.8694 16.6482 25.9299 16.5302 25.9659 16.4039C26.0019 16.2776 26.0126 16.1454 25.9975 16.0149C25.9825 15.8845 25.9418 15.7583 25.8779 15.6435C25.8141 15.5287 25.7282 15.4277 25.6253 15.3461ZM21.5928 19.8161C19.9684 18.6356 18.012 17.9998 16.004 17.9998C13.996 17.9998 12.0396 18.6356 10.4153 19.8161C10.2008 19.9723 10.0571 20.2072 10.0158 20.4693C9.97458 20.7314 10.0391 20.9991 10.1953 21.2136C10.3514 21.4281 10.5864 21.5718 10.8485 21.613C11.1105 21.6543 11.3783 21.5898 11.5928 21.4336C12.8747 20.5013 14.419 19.9992 16.004 19.9992C17.5891 19.9992 19.1334 20.5013 20.4153 21.4336C20.5215 21.5109 20.6419 21.5666 20.7696 21.5973C20.8973 21.6281 21.0298 21.6335 21.1596 21.613C21.2894 21.5926 21.4138 21.5468 21.5259 21.4783C21.638 21.4097 21.7355 21.3198 21.8128 21.2136C21.8901 21.1074 21.9457 20.987 21.9765 20.8593C22.0073 20.7316 22.0126 20.5991 21.9922 20.4693C21.9718 20.3395 21.926 20.215 21.8574 20.103C21.7889 19.9909 21.699 19.8934 21.5928 19.8161Z" fill="#222222"/>
</svg>
