<svg width="32" height="32" viewBox="0 0 32 32" fill="none" xmlns="http://www.w3.org/2000/svg">
<path d="M17.5004 25.5001C17.5004 25.7968 17.4124 26.0868 17.2476 26.3334C17.0827 26.5801 16.8485 26.7724 16.5744 26.8859C16.3003 26.9994 15.9987 27.0291 15.7077 26.9713C15.4167 26.9134 15.1495 26.7705 14.9397 26.5608C14.7299 26.351 14.5871 26.0837 14.5292 25.7927C14.4713 25.5018 14.501 25.2002 14.6145 24.9261C14.7281 24.652 14.9203 24.4177 15.167 24.2529C15.4137 24.0881 15.7037 24.0001 16.0004 24.0001C16.3982 24.0001 16.7797 24.1581 17.061 24.4394C17.3423 24.7207 17.5004 25.1023 17.5004 25.5001ZM21.5891 19.8163C19.9648 18.6358 18.0084 18 16.0004 18C13.9924 18 12.0359 18.6358 10.4116 19.8163C10.1971 19.9725 10.0534 20.2074 10.0122 20.4695C9.97092 20.7316 10.0355 20.9994 10.1916 21.2138C10.3478 21.4283 10.5827 21.572 10.8448 21.6133C11.1069 21.6545 11.3746 21.59 11.5891 21.4338C12.871 20.5016 14.4153 19.9994 16.0004 19.9994C17.5854 19.9994 19.1297 20.5016 20.4116 21.4338C20.5178 21.5112 20.6382 21.5668 20.7659 21.5976C20.8936 21.6284 21.0261 21.6337 21.1559 21.6133C21.2857 21.5928 21.4102 21.5471 21.5222 21.4785C21.6343 21.41 21.7318 21.3201 21.8091 21.2138C21.8864 21.1076 21.9421 20.9872 21.9728 20.8595C22.0036 20.7318 22.009 20.5993 21.9885 20.4695C21.9681 20.3398 21.9223 20.2153 21.8538 20.1032C21.7853 19.9911 21.6953 19.8937 21.5891 19.8163Z" fill="#222222"/>
</svg>
