<svg width="32" height="32" viewBox="0 0 32 32" fill="none" xmlns="http://www.w3.org/2000/svg">
<path d="M24.5003 11C23.9174 10.9994 23.3436 11.1451 22.8316 11.4237C22.6784 10.9497 22.4259 10.5138 22.0908 10.1452C21.7557 9.77658 21.3458 9.48374 20.8885 9.28625C20.4312 9.08877 19.9369 8.99118 19.4389 9.00002C18.9408 9.00885 18.4503 9.12391 18.0003 9.3375V5.5C18.0003 4.57174 17.6316 3.6815 16.9752 3.02513C16.3188 2.36875 15.4286 2 14.5003 2C13.572 2 12.6818 2.36875 12.0254 3.02513C11.3691 3.6815 11.0003 4.57174 11.0003 5.5V15.5L10.5228 14.7338C10.2919 14.3361 9.98498 13.9878 9.6195 13.7088C9.25401 13.4297 8.83715 13.2254 8.3927 13.1075C7.49511 12.8693 6.53966 12.9975 5.73655 13.4637C4.93345 13.93 4.34846 14.6963 4.11029 15.5938C3.87212 16.4914 4.00027 17.4469 4.46655 18.25L5.0503 19.2787C9.35155 26.8612 11.1316 30 17.0003 30C19.9167 29.9967 22.7126 28.8367 24.7748 26.7745C26.837 24.7123 27.997 21.9164 28.0003 19V14.5C28.0003 13.5717 27.6316 12.6815 26.9752 12.0251C26.3188 11.3687 25.4286 11 24.5003 11ZM26.0003 19C25.9977 21.3861 25.0486 23.6738 23.3613 25.361C21.6741 27.0483 19.3864 27.9974 17.0003 28C12.2966 28 11.0203 25.75 6.7903 18.29L6.20405 17.2563V17.25C6.005 16.9058 5.95072 16.4967 6.05315 16.1126C6.15558 15.7284 6.40633 15.4006 6.7503 15.2013C6.97815 15.0693 7.23699 15.0002 7.5003 15.0013C7.76398 15.0009 8.02311 15.07 8.25156 15.2017C8.48001 15.3333 8.66971 15.5229 8.80155 15.7513C8.80665 15.7613 8.8125 15.7709 8.81905 15.78L11.1528 19.53C11.268 19.7139 11.4399 19.8553 11.6425 19.933C11.8451 20.0106 12.0675 20.0203 12.2761 19.9604C12.4846 19.9006 12.6681 19.7745 12.7987 19.6013C12.9294 19.428 13.0001 19.217 13.0003 19V5.5C13.0003 5.10218 13.1583 4.72064 13.4396 4.43934C13.7209 4.15804 14.1025 4 14.5003 4C14.8981 4 15.2797 4.15804 15.561 4.43934C15.8423 4.72064 16.0003 5.10218 16.0003 5.5V14C16.0003 14.2652 16.1057 14.5196 16.2932 14.7071C16.4807 14.8946 16.7351 15 17.0003 15C17.2655 15 17.5199 14.8946 17.7074 14.7071C17.8949 14.5196 18.0003 14.2652 18.0003 14V12.5C18.0003 12.1022 18.1583 11.7206 18.4396 11.4393C18.7209 11.158 19.1025 11 19.5003 11C19.8981 11 20.2797 11.158 20.561 11.4393C20.8423 11.7206 21.0003 12.1022 21.0003 12.5V15C21.0003 15.2652 21.1057 15.5196 21.2932 15.7071C21.4807 15.8946 21.7351 16 22.0003 16C22.2655 16 22.5199 15.8946 22.7074 15.7071C22.8949 15.5196 23.0003 15.2652 23.0003 15V14.5C23.0003 14.1022 23.1583 13.7206 23.4396 13.4393C23.7209 13.158 24.1025 13 24.5003 13C24.8981 13 25.2797 13.158 25.561 13.4393C25.8423 13.7206 26.0003 14.1022 26.0003 14.5V19Z" fill="#222222"/>
</svg>
