<svg width="32" height="32" viewBox="0 0 32 32" fill="none" xmlns="http://www.w3.org/2000/svg">
<path d="M27.5215 12.5001L25.3577 8.75007C24.8936 7.94644 24.1294 7.36002 23.233 7.11976C22.3366 6.87949 21.3816 7.00505 20.5777 7.46882C20.1295 7.72781 19.7451 8.08406 19.4527 8.51132L17.2752 4.75007C16.9679 4.21851 16.5261 3.77716 15.9943 3.47032C15.4625 3.16348 14.8592 3.00195 14.2452 3.00195C13.6312 3.00195 13.028 3.16348 12.4962 3.47032C11.9643 3.77716 11.5226 4.21851 11.2152 4.75007C10.5761 4.24679 9.78157 3.98189 8.96827 4.00088C8.15498 4.01988 7.3737 4.32159 6.75873 4.85415C6.14377 5.38672 5.73353 6.11688 5.59852 6.91911C5.46352 7.72135 5.6122 8.54556 6.01899 9.25007L6.21774 9.59507C5.70055 9.63518 5.199 9.79111 4.75024 10.0513C3.94649 10.5156 3.36009 11.2802 3.12004 12.1769C2.88 13.0735 3.00597 14.0288 3.47024 14.8326L8.47024 23.4976C9.18959 24.7508 10.1502 25.849 11.2966 26.7286C12.443 27.6083 13.7523 28.252 15.149 28.6226C16.0835 28.8722 17.0467 28.9983 18.014 28.9976C19.9433 28.9943 21.8378 28.4836 23.5074 27.5168C25.177 26.55 26.563 25.1611 27.5262 23.4894C28.4894 21.8178 28.996 19.9222 28.9952 17.9929C28.9944 16.0636 28.4861 14.1684 27.5215 12.4976V12.5001ZM26.689 20.3301C26.228 22.049 25.2677 23.5927 23.9294 24.766C22.5912 25.9393 20.9352 26.6895 19.1707 26.9218C17.4062 27.154 15.6124 26.8579 14.0162 26.0709C12.4199 25.2838 11.0929 24.0412 10.2027 22.5001L5.20274 13.8351C5.0124 13.4911 4.96468 13.0862 5.06984 12.7075C5.175 12.3287 5.42464 12.0064 5.76504 11.8098C6.10545 11.6132 6.50942 11.5581 6.89003 11.6564C7.27064 11.7546 7.59749 11.9983 7.80024 12.3351L10.204 16.5001C10.2677 16.6174 10.3543 16.7208 10.4586 16.8042C10.563 16.8875 10.6829 16.9491 10.8115 16.9854C10.94 17.0216 11.0745 17.0317 11.207 17.0151C11.3395 16.9985 11.4673 16.9556 11.583 16.8888C11.6986 16.822 11.7997 16.7327 11.8802 16.6262C11.9608 16.5197 12.0192 16.3982 12.0521 16.2688C12.0849 16.1393 12.0915 16.0046 12.0714 15.8726C12.0514 15.7406 12.0051 15.6139 11.9352 15.5001L7.75024 8.25007C7.64745 8.07934 7.57971 7.88984 7.55098 7.69263C7.52225 7.49543 7.5331 7.29448 7.5829 7.10152C7.63271 6.90856 7.72046 6.72745 7.84104 6.56879C7.96162 6.41012 8.11261 6.27707 8.28518 6.17741C8.45776 6.07775 8.64846 6.01348 8.84616 5.98835C9.04385 5.96322 9.24457 5.97774 9.43659 6.03105C9.62862 6.08436 9.80809 6.17541 9.96453 6.29886C10.121 6.42231 10.2512 6.5757 10.3477 6.75007L14.2502 13.5001C14.314 13.6174 14.4005 13.7208 14.5049 13.8042C14.6092 13.8875 14.7292 13.9491 14.8577 13.9854C14.9862 14.0216 15.1207 14.0317 15.2532 14.0151C15.3857 13.9985 15.5136 13.9556 15.6292 13.8888C15.7448 13.822 15.8459 13.7327 15.9265 13.6262C16.0071 13.5197 16.0655 13.3982 16.0983 13.2688C16.1312 13.1393 16.1377 13.0046 16.1177 12.8726C16.0976 12.7406 16.0513 12.6139 15.9815 12.5001L12.9465 7.25007C12.8437 7.07934 12.776 6.88984 12.7472 6.69263C12.7185 6.49543 12.7293 6.29448 12.7792 6.10152C12.829 5.90856 12.9167 5.72745 13.0373 5.56879C13.1579 5.41012 13.3089 5.27707 13.4814 5.17741C13.654 5.07775 13.8447 5.01348 14.0424 4.98835C14.2401 4.96322 14.4408 4.97774 14.6328 5.03105C14.8249 5.08436 15.0043 5.17541 15.1608 5.29886C15.3172 5.42231 15.4475 5.5757 15.544 5.75007L19.7215 12.9876C18.7484 13.9757 18.1477 15.2703 18.0215 16.6513C17.8952 18.0323 18.2512 19.4144 19.029 20.5626C19.1782 20.782 19.4084 20.9332 19.6691 20.9829C19.9298 21.0326 20.1995 20.9768 20.419 20.8276C20.6385 20.6784 20.7897 20.4481 20.8394 20.1875C20.8891 19.9268 20.8332 19.657 20.684 19.4376C20.1097 18.587 19.8842 17.5483 20.0543 16.5362C20.2244 15.5241 20.777 14.6162 21.5977 14.0001C21.7934 13.8534 21.9285 13.6401 21.9776 13.4006C22.0266 13.1611 21.9862 12.9118 21.864 12.7001L21.029 11.2501C20.9228 11.0793 20.852 10.889 20.8209 10.6903C20.7897 10.4916 20.7988 10.2888 20.8476 10.0937C20.8965 9.89863 20.984 9.71537 21.1051 9.55482C21.2261 9.39426 21.3782 9.25969 21.5524 9.15909C21.7265 9.0585 21.919 8.99394 22.1186 8.96925C22.3181 8.94456 22.5206 8.96025 22.714 9.01538C22.9074 9.07051 23.0877 9.16396 23.2442 9.29017C23.4008 9.41639 23.5303 9.57278 23.6252 9.75007L25.789 13.5001C26.3827 14.5222 26.7679 15.6518 26.9224 16.8237C27.0768 17.9956 26.9975 19.1865 26.689 20.3276V20.3301ZM23.0315 3.96382C23.0988 3.70774 23.2648 3.4888 23.4933 3.355C23.7218 3.2212 23.994 3.18346 24.2502 3.25007C25.2053 3.50177 26.1008 3.94081 26.8847 4.54166C27.6686 5.14252 28.3253 5.8932 28.8165 6.75007L28.8577 6.82132C28.9276 6.93515 28.9739 7.06182 28.9939 7.19384C29.014 7.32586 29.0074 7.46057 28.9746 7.59C28.9417 7.71944 28.8833 7.84099 28.8027 7.94748C28.7222 8.05398 28.6211 8.14325 28.5055 8.21004C28.3898 8.27684 28.262 8.31979 28.1295 8.33638C27.997 8.35296 27.8625 8.34284 27.734 8.30661C27.6054 8.27038 27.4855 8.20877 27.3811 8.12542C27.2768 8.04207 27.1902 7.93867 27.1265 7.82132L27.0852 7.75007C26.7247 7.1221 26.2429 6.57214 25.6677 6.13221C25.0926 5.69227 24.4357 5.37116 23.7352 5.18757C23.4799 5.11819 23.2625 4.95045 23.1306 4.72108C22.9987 4.4917 22.963 4.2194 23.0315 3.96382ZM10.1115 29.6251C9.94731 29.8332 9.70724 29.9676 9.44402 29.9987C9.18081 30.0299 8.91598 29.9553 8.70774 29.7913C7.21205 28.6099 5.95615 27.1533 5.00774 25.5001C4.94208 25.3863 4.89947 25.2607 4.88234 25.1305C4.86521 25.0003 4.87389 24.868 4.9079 24.7411C4.94191 24.6142 5.00058 24.4953 5.08055 24.3911C5.16052 24.2869 5.26023 24.1995 5.37399 24.1338C5.48775 24.0682 5.61332 24.0255 5.74355 24.0084C5.87377 23.9913 6.0061 24 6.13297 24.034C6.25983 24.068 6.37876 24.1267 6.48296 24.2066C6.58715 24.2866 6.67458 24.3863 6.74024 24.5001C7.56226 25.9312 8.65008 27.1921 9.94524 28.2151C10.0492 28.2964 10.136 28.3975 10.2006 28.5126C10.2653 28.6276 10.3066 28.7544 10.322 28.8854C10.3375 29.0165 10.3268 29.1494 10.2907 29.2763C10.2546 29.4032 10.1937 29.5218 10.1115 29.6251Z" fill="#222222"/>
</svg>
