<svg width="32" height="32" viewBox="0 0 32 32" fill="none" xmlns="http://www.w3.org/2000/svg">
<path d="M15.9997 10C16.7908 10 17.5641 9.76541 18.2219 9.32588C18.8797 8.88635 19.3924 8.26164 19.6952 7.53074C19.9979 6.79983 20.0771 5.99556 19.9228 5.21964C19.7685 4.44372 19.3875 3.73098 18.8281 3.17157C18.2687 2.61216 17.556 2.2312 16.78 2.07686C16.0041 1.92252 15.1998 2.00173 14.4689 2.30448C13.738 2.60723 13.1133 3.11992 12.6738 3.77772C12.2343 4.43552 11.9997 5.20888 11.9997 6C11.9997 7.06087 12.4211 8.07828 13.1712 8.82843C13.9214 9.57857 14.9388 10 15.9997 10ZM15.9997 4C16.3952 4 16.7819 4.1173 17.1108 4.33706C17.4397 4.55683 17.6961 4.86918 17.8474 5.23463C17.9988 5.60009 18.0384 6.00222 17.9612 6.39018C17.8841 6.77814 17.6936 7.13451 17.4139 7.41422C17.1342 7.69392 16.7778 7.8844 16.3898 7.96157C16.0019 8.03874 15.5998 7.99914 15.2343 7.84776C14.8688 7.69639 14.5565 7.44004 14.3367 7.11114C14.117 6.78224 13.9997 6.39556 13.9997 6C13.9997 5.46957 14.2104 4.96086 14.5855 4.58579C14.9605 4.21072 15.4692 4 15.9997 4ZM28.8572 16.515C28.7896 16.628 28.7003 16.7265 28.5945 16.8049C28.4888 16.8833 28.3686 16.94 28.2408 16.9718C28.113 17.0036 27.9803 17.0099 27.8501 16.9903C27.7199 16.9707 27.5949 16.9256 27.4822 16.8575C27.4384 16.8313 23.0934 14.2838 16.9972 14.0238V18.625L24.7472 27.3413C24.8343 27.4397 24.9012 27.5544 24.9441 27.6788C24.9869 27.8031 25.0048 27.9347 24.9968 28.066C24.9888 28.1973 24.955 28.3257 24.8974 28.4439C24.8398 28.5621 24.7594 28.6678 24.6609 28.755C24.5624 28.8422 24.4477 28.9091 24.3234 28.9519C24.199 28.9948 24.0675 29.0127 23.9362 29.0047C23.8049 28.9967 23.6765 28.9629 23.5583 28.9052C23.44 28.8476 23.3343 28.7672 23.2472 28.6688L15.9997 20.5L8.74967 28.6638C8.6625 28.7622 8.55679 28.8426 8.43857 28.9002C8.32035 28.9579 8.19193 28.9917 8.06065 28.9997C7.92938 29.0077 7.7978 28.9898 7.67345 28.9469C7.5491 28.9041 7.43441 28.8372 7.33592 28.75C7.23742 28.6628 7.15707 28.5571 7.09943 28.4389C7.04179 28.3207 7.008 28.1923 6.99999 28.061C6.99198 27.9297 7.00991 27.7981 7.05275 27.6738C7.09559 27.5494 7.1625 27.4347 7.24967 27.3363L14.9997 18.625V14.0225C8.87467 14.2825 4.55967 16.83 4.51467 16.8575C4.40201 16.9267 4.27676 16.9729 4.14614 16.9934C4.01552 17.0139 3.88214 17.0082 3.75371 16.9768C3.62528 16.9454 3.50435 16.8889 3.39792 16.8104C3.29149 16.732 3.20167 16.6332 3.13366 16.5199C3.06565 16.4065 3.0208 16.2807 3.0017 16.1499C2.9826 16.0191 2.98963 15.8858 3.02239 15.7577C3.05515 15.6296 3.11298 15.5093 3.19255 15.4037C3.27211 15.2981 3.37182 15.2093 3.48592 15.1425C3.69967 15.0138 8.80592 12 15.9997 12C23.1934 12 28.2997 15.0138 28.5147 15.1425C28.6273 15.2101 28.7255 15.2992 28.8037 15.4048C28.8819 15.5104 28.9385 15.6303 28.9703 15.7578C29.0021 15.8852 29.0085 16.0177 28.9891 16.1476C28.9697 16.2776 28.9248 16.4024 28.8572 16.515Z" fill="#222222"/>
</svg>
