<svg width="32" height="32" viewBox="0 0 32 32" fill="none" xmlns="http://www.w3.org/2000/svg">
<path d="M15.9997 11C16.7908 11 17.5642 10.7654 18.222 10.3259C18.8798 9.88635 19.3924 9.26164 19.6952 8.53074C19.9979 7.79983 20.0772 6.99556 19.9228 6.21964C19.7685 5.44372 19.3875 4.73098 18.8281 4.17157C18.2687 3.61216 17.556 3.2312 16.78 3.07686C16.0041 2.92252 15.1998 3.00173 14.4689 3.30448C13.738 3.60723 13.1133 4.11992 12.6738 4.77772C12.2343 5.43552 11.9997 6.20888 11.9997 7C11.9997 8.06087 12.4211 9.07828 13.1712 9.82843C13.9214 10.5786 14.9388 11 15.9997 11ZM15.9997 5C16.3952 5 16.7819 5.1173 17.1108 5.33706C17.4397 5.55683 17.6961 5.86918 17.8474 6.23463C17.9988 6.60009 18.0384 7.00222 17.9612 7.39018C17.8841 7.77814 17.6936 8.13451 17.4139 8.41422C17.1342 8.69392 16.7778 8.8844 16.3899 8.96157C16.0019 9.03874 15.5998 8.99914 15.2343 8.84776C14.8689 8.69639 14.5565 8.44004 14.3367 8.11114C14.117 7.78224 13.9997 7.39556 13.9997 7C13.9997 6.46957 14.2104 5.96086 14.5855 5.58579C14.9605 5.21072 15.4692 5 15.9997 5ZM5.99968 12C5.99968 11.6044 6.11697 11.2178 6.33674 10.8889C6.5565 10.56 6.86886 10.3036 7.23431 10.1522C7.59976 10.0009 8.00189 9.96126 8.38986 10.0384C8.77782 10.1156 9.13418 10.3061 9.41389 10.5858C9.69359 10.8655 9.88408 11.2219 9.96125 11.6098C10.0384 11.9978 9.99881 12.3999 9.84744 12.7654C9.69606 13.1308 9.43971 13.4432 9.11082 13.6629C8.78192 13.8827 8.39524 14 7.99968 14C7.46924 14 6.96054 13.7893 6.58546 13.4142C6.21039 13.0391 5.99968 12.5304 5.99968 12ZM27.7797 13.8263C27.6142 14.0334 27.3732 14.1663 27.1098 14.1959C26.8463 14.2254 26.5819 14.1491 26.3747 13.9838C26.2309 13.8725 23.4109 11.7713 18.9597 14.06C18.9247 15.3319 18.7994 16.5996 18.5847 17.8538L22.6384 21.2288C22.7931 21.3575 22.9053 21.53 22.9604 21.7236C23.0155 21.9171 23.0109 22.1228 22.9472 22.3138L20.9472 28.3138C20.8633 28.5654 20.6829 28.7734 20.4457 28.892C20.2084 29.0106 19.9338 29.0301 19.6822 28.9463C19.4306 28.8624 19.2226 28.682 19.1039 28.4447C18.9853 28.2075 18.9658 27.9329 19.0497 27.6813L20.8334 22.3288L18.0734 20.0288C17.8931 20.6368 17.6803 21.2347 17.4359 21.82C15.7172 25.9125 12.6384 28.6488 8.28593 29.955C8.03408 30.0243 7.76512 29.9923 7.53657 29.8659C7.30801 29.7394 7.13799 29.5286 7.06287 29.2784C6.98776 29.0282 7.01351 28.7586 7.13461 28.5272C7.25572 28.2958 7.46257 28.1209 7.71093 28.04C15.2959 25.7638 16.6034 19.0125 16.8884 15.3338C13.4997 17.485 10.8209 18 9.04468 18C8.20795 18.0028 7.37673 17.8646 6.58593 17.5913C6.37439 17.4988 6.20135 17.336 6.09617 17.1306C5.99098 16.9251 5.96013 16.6895 6.00885 16.4639C6.05758 16.2382 6.18287 16.0364 6.36347 15.8926C6.54406 15.7488 6.76885 15.6719 6.99968 15.675C7.14261 15.6748 7.28384 15.706 7.41343 15.7663C7.41343 15.7663 10.7584 17.1013 16.4372 13.2413C22.9734 8.79875 27.4372 12.27 27.6259 12.42C27.7284 12.5022 27.8136 12.6038 27.8768 12.719C27.94 12.8342 27.9799 12.9607 27.9942 13.0913C28.0084 13.2219 27.9968 13.354 27.96 13.4801C27.9232 13.6062 27.862 13.7238 27.7797 13.8263Z" fill="#222222"/>
</svg>
