<svg width="32" height="32" viewBox="0 0 32 32" fill="none" xmlns="http://www.w3.org/2000/svg">
<path d="M27.6683 13.0138C27.4067 13.0575 27.1733 13.2034 27.0193 13.4193C26.8652 13.6352 26.8033 13.9034 26.847 14.165C26.9486 14.7714 26.9996 15.3852 26.9995 16C27.0019 18.6928 26.0122 21.292 24.2195 23.3013C23.1043 21.6851 21.536 20.4348 19.712 19.7075C20.6918 18.9358 21.4068 17.878 21.7575 16.6811C22.1082 15.4843 22.0772 14.2079 21.6688 13.0294C21.2605 11.851 20.495 10.8291 19.479 10.1059C18.4629 9.38263 17.2467 8.99399 15.9995 8.99399C14.7524 8.99399 13.5362 9.38263 12.5201 10.1059C11.5041 10.8291 10.7386 11.851 10.3303 13.0294C9.92192 14.2079 9.89094 15.4843 10.2416 16.6811C10.5923 17.878 11.3073 18.9358 12.287 19.7075C10.4631 20.4348 8.89483 21.6851 7.77954 23.3013C6.37294 21.7162 5.45413 19.7586 5.1336 17.6638C4.81306 15.569 5.10445 13.4262 5.97271 11.4931C6.84098 9.55996 8.24917 7.91878 10.0279 6.7669C11.8067 5.61501 13.8804 5.00146 15.9995 5.00001C16.6144 4.99992 17.2282 5.05093 17.8345 5.15251C18.0949 5.1936 18.361 5.13021 18.5749 4.97613C18.7888 4.82204 18.9332 4.58974 18.9767 4.32974C19.0202 4.06974 18.9593 3.80309 18.8072 3.58778C18.6551 3.37247 18.4241 3.22592 18.1645 3.18001C15.4488 2.72316 12.6582 3.14118 10.1956 4.37373C7.73295 5.60628 5.72575 7.58958 4.46377 10.0373C3.2018 12.4849 2.75036 15.2704 3.17464 17.9913C3.59892 20.7123 4.87696 23.2281 6.82423 25.1753C8.7715 27.1226 11.2872 28.4006 14.0082 28.8249C16.7292 29.2492 19.5146 28.7978 21.9623 27.5358C24.41 26.2738 26.3933 24.2666 27.6258 21.804C28.8584 19.3413 29.2764 16.5507 28.8195 13.835C28.7758 13.5735 28.6299 13.34 28.414 13.186C28.1981 13.032 27.9299 12.97 27.6683 13.0138ZM11.9995 15C11.9995 14.2089 12.2341 13.4355 12.6737 12.7777C13.1132 12.1199 13.7379 11.6072 14.4688 11.3045C15.1997 11.0017 16.004 10.9225 16.7799 11.0769C17.5558 11.2312 18.2686 11.6122 18.828 12.1716C19.3874 12.731 19.7683 13.4437 19.9227 14.2197C20.077 14.9956 19.9978 15.7998 19.6951 16.5307C19.3923 17.2617 18.8796 17.8864 18.2218 18.3259C17.564 18.7654 16.7907 19 15.9995 19C14.9387 19 13.9213 18.5786 13.1711 17.8284C12.421 17.0783 11.9995 16.0609 11.9995 15ZM9.25954 24.6875C9.98296 23.5561 10.9796 22.625 12.1574 21.9801C13.3353 21.3351 14.6566 20.9971 15.9995 20.9971C17.3425 20.9971 18.6637 21.3351 19.8416 21.9801C21.0195 22.625 22.0161 23.5561 22.7395 24.6875C20.8125 26.1862 18.4408 26.9999 15.9995 26.9999C13.5583 26.9999 11.1866 26.1862 9.25954 24.6875ZM29.707 5.70751L25.707 9.70751C25.6142 9.80049 25.5039 9.87425 25.3825 9.92457C25.2611 9.9749 25.131 10.0008 24.9995 10.0008C24.8681 10.0008 24.738 9.9749 24.6166 9.92457C24.4952 9.87425 24.3849 9.80049 24.292 9.70751L22.292 7.70751C22.1991 7.6146 22.1254 7.5043 22.0752 7.38291C22.0249 7.26152 21.999 7.13141 21.999 7.00001C21.999 6.86862 22.0249 6.73851 22.0752 6.61712C22.1254 6.49572 22.1991 6.38542 22.292 6.29251C22.4797 6.10487 22.7342 5.99946 22.9995 5.99946C23.1309 5.99946 23.261 6.02534 23.3824 6.07562C23.5038 6.1259 23.6141 6.1996 23.707 6.29251L24.9995 7.58626L28.292 4.29251C28.385 4.1996 28.4953 4.1259 28.6166 4.07562C28.738 4.02534 28.8681 3.99946 28.9995 3.99946C29.1309 3.99946 29.261 4.02534 29.3824 4.07562C29.5038 4.1259 29.6141 4.1996 29.707 4.29251C29.8 4.38542 29.8737 4.49572 29.9239 4.61712C29.9742 4.73851 30.0001 4.86862 30.0001 5.00001C30.0001 5.13141 29.9742 5.26152 29.9239 5.38291C29.8737 5.5043 29.8 5.6146 29.707 5.70751Z" fill="#222222"/>
</svg>
