<svg width="32" height="32" viewBox="0 0 32 32" fill="none" xmlns="http://www.w3.org/2000/svg">
<path d="M18.0003 19.7101C19.5679 18.7337 20.7749 17.2734 21.4386 15.55C22.1023 13.8265 22.1867 11.9338 21.6789 10.1582C21.1712 8.38254 20.0989 6.82057 18.6244 5.70859C17.1499 4.59661 15.3533 3.99512 13.5065 3.99512C11.6597 3.99512 9.86312 4.59661 8.3886 5.70859C6.91407 6.82057 5.84182 8.38254 5.33407 10.1582C4.82632 11.9338 4.9107 13.8265 5.57443 15.55C6.23816 17.2734 7.44514 18.7337 9.01276 19.7101C6.43151 20.5551 4.10901 22.1339 2.24151 24.3564C2.07078 24.5594 1.9877 24.822 2.01056 25.0863C2.03341 25.3506 2.16033 25.595 2.36339 25.7657C2.56644 25.9365 2.82901 26.0196 3.09332 25.9967C3.35762 25.9738 3.60203 25.8469 3.77276 25.6439C6.28151 22.6489 9.73901 21.0001 13.5003 21.0001C17.2615 21.0001 20.719 22.6489 23.234 25.6439C23.4047 25.8469 23.6491 25.9738 23.9135 25.9967C24.1778 26.0196 24.4403 25.9365 24.6434 25.7657C24.8464 25.595 24.9734 25.3506 24.9962 25.0863C25.0191 24.822 24.936 24.5594 24.7653 24.3564C22.8978 22.1339 20.5753 20.5551 18.0003 19.7101ZM7.00026 12.5001C7.00026 11.2145 7.38148 9.95783 8.09571 8.88891C8.80994 7.81999 9.8251 6.98687 11.0128 6.4949C12.2005 6.00293 13.5075 5.87421 14.7683 6.12501C16.0292 6.37582 17.1874 6.99488 18.0965 7.90392C19.0055 8.81296 19.6246 9.97115 19.8754 11.232C20.1262 12.4929 19.9974 13.7998 19.5055 14.9876C19.0135 16.1753 18.1804 17.1904 17.1115 17.9047C16.0425 18.6189 14.7858 19.0001 13.5003 19.0001C11.777 18.9981 10.1248 18.3127 8.90626 17.0941C7.6877 15.8756 7.00225 14.2234 7.00026 12.5001ZM31.7078 16.7076L27.7078 20.7076C27.6149 20.8006 27.5046 20.8744 27.3832 20.9247C27.2618 20.975 27.1317 21.0009 27.0003 21.0009C26.8688 21.0009 26.7387 20.975 26.6173 20.9247C26.4959 20.8744 26.3856 20.8006 26.2928 20.7076L24.2928 18.7076C24.1051 18.52 23.9997 18.2655 23.9997 18.0001C23.9997 17.7348 24.1051 17.4803 24.2928 17.2926C24.4804 17.105 24.7349 16.9996 25.0003 16.9996C25.2656 16.9996 25.5201 17.105 25.7078 17.2926L27.0003 18.5864L30.2928 15.2926C30.4804 15.105 30.7349 14.9996 31.0003 14.9996C31.2656 14.9996 31.5201 15.105 31.7078 15.2926C31.8954 15.4803 32.0008 15.7348 32.0008 16.0001C32.0008 16.2655 31.8954 16.52 31.7078 16.7076Z" fill="#222222"/>
</svg>
