<svg width="32" height="32" viewBox="0 0 32 32" fill="none" xmlns="http://www.w3.org/2000/svg">
<path d="M31.7071 16.7077L28.7071 19.7077C28.6142 19.8006 28.5039 19.8744 28.3825 19.9247C28.2611 19.975 28.131 20.0009 27.9996 20.0009C27.8682 20.0009 27.738 19.975 27.6166 19.9247C27.4952 19.8744 27.385 19.8006 27.2921 19.7077L24.2921 16.7077C24.1044 16.52 23.999 16.2655 23.999 16.0002C23.999 15.7348 24.1044 15.4803 24.2921 15.2927C24.4797 15.105 24.7342 14.9996 24.9996 14.9996C25.2649 14.9996 25.5194 15.105 25.7071 15.2927L26.9996 16.5864V16.0002C27.0007 13.671 26.2625 11.4015 24.8912 9.51873C23.5199 7.63595 21.5864 6.23706 19.3692 5.52356C17.152 4.81005 14.7655 4.81878 12.5535 5.54847C10.3415 6.27817 8.4183 7.69117 7.06083 9.58391C6.90601 9.7994 6.67193 9.94456 6.41008 9.98746C6.14823 10.0304 5.88007 9.96748 5.66458 9.81266C5.44909 9.65784 5.30393 9.42376 5.26103 9.16191C5.21813 8.90007 5.28101 8.6319 5.43583 8.41641C7.04019 6.17956 9.31318 4.50972 11.9274 3.64744C14.5415 2.78515 17.362 2.77494 19.9823 3.61828C22.6027 4.46161 24.8877 6.11495 26.5082 8.34013C28.1287 10.5653 29.0011 13.2474 28.9996 16.0002V16.5864L30.2921 15.2927C30.4797 15.105 30.7342 14.9996 30.9996 14.9996C31.2649 14.9996 31.5194 15.105 31.7071 15.2927C31.8947 15.4803 32.0001 15.7348 32.0001 16.0002C32.0001 16.2655 31.8947 16.52 31.7071 16.7077ZM26.5596 23.5827C24.9548 25.8178 22.6821 27.4861 20.0688 28.3474C17.4554 29.2087 14.6362 29.2186 12.0169 28.3756C9.39756 27.5326 7.11329 25.8802 5.49288 23.6563C3.87246 21.4325 2.99947 18.7518 2.99958 16.0002V15.4139L1.70708 16.7077C1.51944 16.8953 1.26494 17.0007 0.99958 17.0007C0.734216 17.0007 0.47972 16.8953 0.29208 16.7077C0.104439 16.52 -0.000976562 16.2655 -0.000976562 16.0002C-0.000976563 15.7348 0.104439 15.4803 0.29208 15.2927L3.29208 12.2927C3.38495 12.1997 3.49524 12.1259 3.61664 12.0756C3.73804 12.0253 3.86816 11.9994 3.99958 11.9994C4.13099 11.9994 4.26112 12.0253 4.38252 12.0756C4.50392 12.1259 4.61421 12.1997 4.70708 12.2927L7.70708 15.2927C7.89472 15.4803 8.00014 15.7348 8.00014 16.0002C8.00014 16.2655 7.89472 16.52 7.70708 16.7077C7.51944 16.8953 7.26494 17.0007 6.99958 17.0007C6.73422 17.0007 6.47972 16.8953 6.29208 16.7077L4.99958 15.4139V16.0002C4.99721 18.6929 5.98689 21.2922 7.77958 23.3014C8.89487 21.6853 10.4631 20.4349 12.2871 19.7077C11.3073 18.936 10.5924 17.8781 10.2417 16.6813C9.89097 15.4844 9.92196 14.208 10.3303 13.0296C10.7387 11.8512 11.5041 10.8293 12.5202 10.106C13.5362 9.38278 14.7524 8.99414 15.9996 8.99414C17.2468 8.99414 18.4629 9.38278 19.479 10.106C20.4951 10.8293 21.2605 11.8512 21.6688 13.0296C22.0772 14.208 22.1082 15.4844 21.7575 16.6813C21.4068 17.8781 20.6918 18.936 19.7121 19.7077C21.5377 20.4351 23.1071 21.6869 24.2221 23.3052C24.4749 23.0212 24.7131 22.7246 24.9358 22.4164C25.0907 22.2009 25.3247 22.0558 25.5866 22.0129C25.8484 21.97 26.1166 22.0328 26.3321 22.1877C26.5476 22.3425 26.6927 22.5766 26.7356 22.8384C26.7785 23.1003 26.7157 23.3684 26.5608 23.5839L26.5596 23.5827ZM15.9996 19.0002C16.7907 19.0002 17.5641 18.7656 18.2219 18.326C18.8797 17.8865 19.3923 17.2618 19.6951 16.5309C19.9978 15.8 20.0771 14.9957 19.9227 14.2198C19.7684 13.4439 19.3874 12.7311 18.828 12.1717C18.2686 11.6123 17.5559 11.2314 16.7799 11.077C16.004 10.9227 15.1997 11.0019 14.4688 11.3046C13.7379 11.6074 13.1132 12.1201 12.6737 12.7779C12.2342 13.4357 11.9996 14.209 11.9996 15.0002C11.9996 16.061 12.421 17.0784 13.1712 17.8286C13.9213 18.5787 14.9387 19.0002 15.9996 19.0002ZM15.9996 27.0002C18.4401 26.997 20.8107 26.1841 22.7396 24.6889C22.0162 23.5575 21.0196 22.6264 19.8417 21.9815C18.6638 21.3365 17.3425 20.9985 15.9996 20.9985C14.6567 20.9985 13.3354 21.3365 12.1575 21.9815C10.9796 22.6264 9.983 23.5575 9.25958 24.6889C11.1856 26.1894 13.558 27.003 15.9996 27.0002Z" fill="#222222"/>
</svg>
