<svg width="32" height="32" viewBox="0 0 32 32" fill="none" xmlns="http://www.w3.org/2000/svg">
<path d="M31.9483 23.6837C31.9068 23.5591 31.8412 23.4439 31.7551 23.3447C31.6691 23.2455 31.5643 23.1642 31.4468 23.1054C31.3294 23.0467 31.2015 23.0117 31.0705 23.0024C30.9395 22.9931 30.8079 23.0096 30.6833 23.0512L28.5058 23.7774L24.8933 16.5524C24.8103 16.3865 24.6827 16.2469 24.5249 16.1493C24.367 16.0518 24.1852 16 23.9996 15.9999H13.9996V12.9999H20.9996C21.2648 12.9999 21.5192 12.8946 21.7067 12.707C21.8942 12.5195 21.9996 12.2652 21.9996 11.9999C21.9996 11.7347 21.8942 11.4804 21.7067 11.2928C21.5192 11.1053 21.2648 10.9999 20.9996 10.9999H13.9996V9.87494C14.9422 9.63154 15.7638 9.05271 16.3102 8.24693C16.8566 7.44115 17.0904 6.46375 16.9677 5.49794C16.845 4.53212 16.3743 3.6442 15.6438 3.00061C14.9133 2.35703 13.9732 2.00195 12.9996 2.00195C12.026 2.00195 11.0859 2.35703 10.3554 3.00061C9.62485 3.6442 9.15415 4.53212 9.03147 5.49794C8.9088 6.46375 9.14258 7.44115 9.68899 8.24693C10.2354 9.05271 11.0569 9.63154 11.9996 9.87494V11.2262C9.84342 11.719 7.94421 12.9885 6.66446 14.7925C5.3847 16.5964 4.81403 18.8084 5.06135 21.0063C5.30867 23.2042 6.35667 25.2341 8.00532 26.7085C9.65397 28.1829 11.7878 28.9986 13.9996 28.9999C18.1896 28.9999 21.9608 26.1612 22.9683 22.2499C23.0012 22.1227 23.0086 21.9903 22.9903 21.8602C22.9719 21.7301 22.9281 21.6049 22.8614 21.4917C22.7946 21.3785 22.7063 21.2796 22.6013 21.2006C22.4963 21.1216 22.3768 21.064 22.2496 21.0312C22.1224 20.9984 21.9899 20.9909 21.8598 21.0093C21.7297 21.0276 21.6045 21.0714 21.4914 21.1382C21.3782 21.2049 21.2793 21.2933 21.2003 21.3982C21.1212 21.5032 21.0637 21.6227 21.0308 21.7499C20.2608 24.7499 17.2383 26.9999 13.9996 26.9999C12.3186 26.9994 10.6939 26.3939 9.42254 25.2942C8.15117 24.1945 7.31799 22.674 7.07529 21.0106C6.83259 19.3472 7.19659 17.652 8.10074 16.2349C9.0049 14.8177 10.3888 13.7733 11.9996 13.2924V16.9999C11.9996 17.2652 12.1049 17.5195 12.2925 17.707C12.48 17.8946 12.7344 17.9999 12.9996 17.9999H23.3808L27.1046 25.4474C27.2125 25.6626 27.3944 25.8316 27.6169 25.9235C27.8394 26.0153 28.0876 26.0238 28.3158 25.9474L31.3158 24.9474C31.5672 24.8636 31.775 24.6834 31.8936 24.4464C32.0121 24.2095 32.0318 23.9352 31.9483 23.6837ZM10.9996 5.99994C10.9996 5.60437 11.1169 5.21769 11.3367 4.8888C11.5564 4.5599 11.8688 4.30355 12.2342 4.15218C12.5997 4.0008 13.0018 3.9612 13.3898 4.03837C13.7777 4.11554 14.1341 4.30602 14.4138 4.58572C14.6935 4.86543 14.884 5.22179 14.9612 5.60976C15.0383 5.99772 14.9987 6.39985 14.8474 6.7653C14.696 7.13076 14.4396 7.44311 14.1107 7.66288C13.7818 7.88264 13.3952 7.99994 12.9996 7.99994C12.4692 7.99994 11.9605 7.78922 11.5854 7.41415C11.2103 7.03908 10.9996 6.53037 10.9996 5.99994Z" fill="#222222"/>
</svg>
