<svg width="32" height="32" viewBox="0 0 32 32" fill="none" xmlns="http://www.w3.org/2000/svg">
<path d="M26.1811 6.76699C24.2823 5.87859 22.252 5.23294 20.1294 4.8653C19.8688 5.3366 19.5642 5.97051 19.3542 6.47478C17.0978 6.13545 14.8622 6.13545 12.6473 6.47478C12.4374 5.97051 12.1259 5.3366 11.8629 4.8653C9.73799 5.23294 7.70538 5.88096 5.80658 6.77169C1.97668 12.5592 0.938461 18.2029 1.45757 23.7665C3.99776 25.6634 6.45951 26.8158 8.87971 27.5698C9.47727 26.7474 10.0102 25.8732 10.4693 24.9518C9.59493 24.6195 8.75743 24.2095 7.9661 23.7335C8.17603 23.578 8.38139 23.4154 8.57978 23.248C13.4064 25.5056 18.6506 25.5056 23.4195 23.248C23.6202 23.4154 23.8255 23.578 24.0331 23.7335C23.2395 24.2118 22.3997 24.6219 21.5253 24.9542C21.9844 25.8732 22.5151 26.7498 23.1149 27.5722C25.5374 26.8181 28.0015 25.6658 30.5417 23.7665C31.1508 17.3169 29.5012 11.725 26.1811 6.76699ZM11.1269 20.3449C9.678 20.3449 8.48979 18.9923 8.48979 17.3451C8.48979 15.698 9.65263 14.343 11.1269 14.343C12.6012 14.343 13.7894 15.6956 13.764 17.3451C13.7663 18.9923 12.6012 20.3449 11.1269 20.3449ZM20.8724 20.3449C19.4235 20.3449 18.2353 18.9923 18.2353 17.3451C18.2353 15.698 19.3981 14.343 20.8724 14.343C22.3466 14.343 23.5348 15.6956 23.5095 17.3451C23.5095 18.9923 22.3466 20.3449 20.8724 20.3449Z" fill="#222222"/>
</svg>
