<svg width="32" height="32" viewBox="0 0 32 32" fill="none" xmlns="http://www.w3.org/2000/svg">
<path d="M20.4004 2C23.7603 2 25.4402 2.00042 26.7236 2.6543C27.8526 3.22954 28.7705 4.14739 29.3457 5.27637C29.9996 6.55977 30 8.23965 30 11.5996V20.4004C30 23.7603 29.9996 25.4402 29.3457 26.7236C28.7705 27.8526 27.8526 28.7705 26.7236 29.3457C25.4402 29.9996 23.7603 30 20.4004 30H11.5996C8.23965 30 6.55977 29.9996 5.27637 29.3457C4.14739 28.7705 3.22954 27.8526 2.6543 26.7236C2.00042 25.4402 2 23.7603 2 20.4004V11.5996C2 8.23965 2.00042 6.55977 2.6543 5.27637C3.22954 4.14739 4.14739 3.22954 5.27637 2.6543C6.55977 2.00042 8.23965 2 11.5996 2H20.4004ZM16 8C11.0294 8 7 11.3579 7 15.5C7 18.1255 8.61905 20.4355 11.0703 21.7754C10.9883 22.4423 10.7415 23.3327 10 24C11.4021 23.7476 12.5215 23.2409 13.3574 22.6719C14.193 22.8854 15.0804 23 16 23C20.9706 23 25 19.6421 25 15.5C25 11.3579 20.9706 8 16 8Z" fill="#222222"/>
</svg>
