<svg width="32" height="32" viewBox="0 0 32 32" fill="none" xmlns="http://www.w3.org/2000/svg">
<path d="M16 2C23.8855 2 29.9999 7.78178 30 15.583C30 23.3843 23.8855 29.1631 16 29.1631C14.5826 29.1631 13.2247 28.974 11.9473 28.624C11.6988 28.5575 11.4327 28.5748 11.1982 28.6797L8.41895 29.9043C8.25111 29.9783 8.06771 30.0105 7.88477 29.9971C7.70185 29.9836 7.52529 29.9249 7.37012 29.8271C7.21493 29.7293 7.08618 29.5948 6.99512 29.4355C6.90412 29.2764 6.85326 29.0973 6.84766 28.9141L6.77051 26.4219C6.76338 26.1141 6.62381 25.8269 6.39648 25.624C3.67358 23.1882 2.00012 19.6608 2 15.5801C2 7.77879 8.1145 2 16 2ZM23.209 12.958C23.545 12.421 22.8849 11.8152 22.3809 12.1992L18.5947 15.0732C18.4702 15.1677 18.3184 15.2192 18.1621 15.2197C18.0058 15.2203 17.8537 15.1698 17.7285 15.0762L14.9229 12.9727C14.724 12.8234 14.496 12.7171 14.2539 12.6602C14.0118 12.6033 13.7602 12.5975 13.5156 12.6426C13.2712 12.6877 13.0388 12.7825 12.833 12.9219C12.627 13.0614 12.4519 13.2426 12.3193 13.4531L8.79395 19.0449C8.45502 19.5819 9.11516 20.1848 9.61914 19.8008L13.4053 16.9268C13.5297 16.8323 13.6816 16.7809 13.8379 16.7803C13.9943 16.7797 14.1472 16.8301 14.2725 16.9238L17.0771 19.0273C17.2761 19.1767 17.504 19.2829 17.7461 19.3398C17.9883 19.3968 18.2397 19.4025 18.4844 19.3574C18.729 19.3123 18.962 19.2177 19.168 19.0781C19.3739 18.9386 19.5481 18.7573 19.6807 18.5469L23.209 12.958Z" fill="#222222"/>
</svg>
