<svg width="32" height="32" viewBox="0 0 32 32" fill="none" xmlns="http://www.w3.org/2000/svg">
<g clip-path="url(#clip0_2827_12102)">
<path d="M16 0C24.8366 0 32 7.16344 32 16C32 24.8366 24.8366 32 16 32C7.16344 32 0 24.8366 0 16C0 7.16344 7.16344 0 16 0ZM22.542 9.63184C21.9402 9.64244 21.0166 9.96435 16.5732 11.8125C15.0169 12.4598 11.9068 13.7992 7.24316 15.8311C6.48612 16.1321 6.08919 16.4269 6.05273 16.7148C5.98339 17.268 6.77928 17.4409 7.78125 17.7666C8.59818 18.0322 9.69727 18.3421 10.2686 18.3545C10.7868 18.3657 11.3654 18.1523 12.0039 17.7139C16.3618 14.7722 18.6117 13.285 18.7529 13.2529C18.8525 13.2303 18.9906 13.2021 19.084 13.2852C19.1775 13.3683 19.1681 13.5261 19.1582 13.5684C19.0774 13.9073 14.9893 17.626 14.75 17.874C13.8497 18.8091 12.8256 19.3819 14.4053 20.4229C15.772 21.3235 16.5675 21.8983 17.9756 22.8213C18.8755 23.4112 19.5816 24.1109 20.5107 24.0254C20.9381 23.9858 21.3793 23.5832 21.6035 22.3848C22.1335 19.5513 23.1752 13.4121 23.416 10.8818C23.4371 10.6604 23.411 10.3767 23.3896 10.252C23.3683 10.1275 23.3239 9.94969 23.1621 9.81836C22.9704 9.66282 22.6744 9.62951 22.542 9.63184Z" fill="#222222"/>
</g>
<defs>
<clipPath id="clip0_2827_12102">
<rect width="32" height="32" fill="white"/>
</clipPath>
</defs>
</svg>
