<svg width="32" height="32" viewBox="0 0 32 32" fill="none" xmlns="http://www.w3.org/2000/svg">
<path d="M29 9.00003H20C19.2238 9.00003 18.4582 9.18076 17.7639 9.52789C17.0697 9.87503 16.4657 10.379 16 11C15.5343 10.379 14.9303 9.87503 14.2361 9.52789C13.5418 9.18076 12.7762 9.00003 12 9.00003H3C2.73478 9.00003 2.48043 9.10539 2.29289 9.29292C2.10536 9.48046 2 9.73481 2 10V25C2 25.2652 2.10536 25.5196 2.29289 25.7071C2.48043 25.8947 2.73478 26 3 26H12C12.7956 26 13.5587 26.3161 14.1213 26.8787C14.6839 27.4413 15 28.2044 15 29C15 29.2652 15.1054 29.5196 15.2929 29.7071C15.4804 29.8947 15.7348 30 16 30C16.2652 30 16.5196 29.8947 16.7071 29.7071C16.8946 29.5196 17 29.2652 17 29C17 28.2044 17.3161 27.4413 17.8787 26.8787C18.4413 26.3161 19.2044 26 20 26H29C29.2652 26 29.5196 25.8947 29.7071 25.7071C29.8946 25.5196 30 25.2652 30 25V10C30 9.73481 29.8946 9.48046 29.7071 9.29292C29.5196 9.10539 29.2652 9.00003 29 9.00003ZM12 24H4V11H12C12.7956 11 13.5587 11.3161 14.1213 11.8787C14.6839 12.4413 15 13.2044 15 14V25C14.1353 24.3494 13.0821 23.9983 12 24ZM28 24H20C18.9179 23.9983 17.8647 24.3494 17 25V14C17 13.2044 17.3161 12.4413 17.8787 11.8787C18.4413 11.3161 19.2044 11 20 11H28V24ZM11.2 5.39878C11.7589 4.6536 12.4836 4.04878 13.3167 3.63222C14.1499 3.21565 15.0685 2.99878 16 2.99878C16.9315 2.99878 17.8501 3.21565 18.6833 3.63222C19.5164 4.04878 20.2411 4.6536 20.8 5.39878C20.9595 5.61079 21.0282 5.87746 20.991 6.14013C20.9539 6.40279 20.8139 6.63994 20.6019 6.7994C20.3899 6.95887 20.1232 7.02758 19.8605 6.99042C19.5979 6.95326 19.3607 6.81329 19.2013 6.60128C18.8287 6.10402 18.3455 5.70038 17.7898 5.42237C17.2341 5.14436 16.6213 4.99961 16 4.99961C15.3787 4.99961 14.7659 5.14436 14.2102 5.42237C13.6545 5.70038 13.1713 6.10402 12.7987 6.60128C12.7198 6.70625 12.6209 6.79465 12.5078 6.86142C12.3947 6.92819 12.2695 6.97202 12.1395 6.99042C12.0094 7.00882 11.877 7.00142 11.7498 6.96864C11.6226 6.93587 11.5031 6.87836 11.3981 6.7994C11.2931 6.72045 11.2048 6.62159 11.138 6.50847C11.0712 6.39535 11.0274 6.27018 11.009 6.14013C10.9906 6.01007 10.998 5.87765 11.0308 5.75045C11.0635 5.62325 11.121 5.50375 11.2 5.39878Z" fill="#222222"/>
</svg>
