<svg width="32" height="32" viewBox="0 0 32 32" fill="none" xmlns="http://www.w3.org/2000/svg">
<path d="M30.7874 15.105L25.7874 5.10501C25.6222 4.77237 25.3673 4.4926 25.0514 4.29732C24.7355 4.10204 24.3713 3.99905 23.9999 4.00001H7.99991C7.62853 3.99905 7.2643 4.10204 6.94841 4.29732C6.63251 4.4926 6.37757 4.77237 6.21241 5.10501L1.21241 15.105C1.05987 15.4098 0.98777 15.7486 1.00296 16.0892C1.01816 16.4297 1.12014 16.7607 1.29923 17.0507C1.47831 17.3408 1.72856 17.5802 2.02621 17.7464C2.32386 17.9125 2.65903 17.9998 2.99991 18H14.9999V26H11.9999C11.7347 26 11.4803 26.1054 11.2928 26.2929C11.1053 26.4804 10.9999 26.7348 10.9999 27C10.9999 27.2652 11.1053 27.5196 11.2928 27.7071C11.4803 27.8946 11.7347 28 11.9999 28H19.9999C20.2651 28 20.5195 27.8946 20.707 27.7071C20.8946 27.5196 20.9999 27.2652 20.9999 27C20.9999 26.7348 20.8946 26.4804 20.707 26.2929C20.5195 26.1054 20.2651 26 19.9999 26H16.9999V18H28.9999C29.3409 18 29.6762 17.9129 29.974 17.7468C30.2719 17.5808 30.5223 17.3414 30.7015 17.0513C30.8807 16.7612 30.9828 16.4301 30.9981 16.0895C31.0133 15.7488 30.9412 15.4099 30.7887 15.105H30.7874ZM2.99991 16L7.99991 6.00001H23.9999L28.9999 16H2.99991ZM23.9999 13C23.9999 13.2652 23.8946 13.5196 23.707 13.7071C23.5195 13.8946 23.2651 14 22.9999 14H8.99991C8.73469 14 8.48034 13.8946 8.2928 13.7071C8.10527 13.5196 7.99991 13.2652 7.99991 13C7.99991 12.7348 8.10527 12.4804 8.2928 12.2929C8.48034 12.1054 8.73469 12 8.99991 12H22.9999C23.2651 12 23.5195 12.1054 23.707 12.2929C23.8946 12.4804 23.9999 12.7348 23.9999 13Z" fill="#222222"/>
</svg>
