<svg width="32" height="32" viewBox="0 0 32 32" fill="none" xmlns="http://www.w3.org/2000/svg">
<path d="M25.7071 18.7075L16.7071 27.7075C16.6142 27.8005 16.5039 27.8742 16.3825 27.9246C16.2611 27.9749 16.131 28.0008 15.9996 28.0008C15.8682 28.0008 15.738 27.9749 15.6166 27.9246C15.4952 27.8742 15.385 27.8005 15.2921 27.7075L6.29208 18.7075C6.10444 18.5199 5.99902 18.2654 5.99902 18C5.99902 17.7346 6.10444 17.4801 6.29208 17.2925C6.47972 17.1049 6.73422 16.9994 6.99958 16.9994C7.26494 16.9994 7.51944 17.1049 7.70708 17.2925L14.9996 24.5863V5C14.9996 4.73478 15.1049 4.48043 15.2925 4.29289C15.48 4.10536 15.7344 4 15.9996 4C16.2648 4 16.5192 4.10536 16.7067 4.29289C16.8942 4.48043 16.9996 4.73478 16.9996 5V24.5863L24.2921 17.2925C24.4797 17.1049 24.7342 16.9994 24.9996 16.9994C25.2649 16.9994 25.5194 17.1049 25.7071 17.2925C25.8947 17.4801 26.0001 17.7346 26.0001 18C26.0001 18.2654 25.8947 18.5199 25.7071 18.7075Z" fill="#222222"/>
</svg>
