<svg width="32" height="32" viewBox="0 0 32 32" fill="none" xmlns="http://www.w3.org/2000/svg">
<path d="M29.9997 7V13C29.9997 13.2652 29.8943 13.5196 29.7068 13.7071C29.5193 13.8946 29.2649 14 28.9997 14H22.9997C22.7345 14 22.4801 13.8946 22.2926 13.7071C22.105 13.5196 21.9997 13.2652 21.9997 13C21.9997 12.7348 22.105 12.4804 22.2926 12.2929C22.4801 12.1054 22.7345 12 22.9997 12H26.4247L23.1009 8.955L23.0697 8.925C21.6798 7.53562 19.9113 6.58658 17.9851 6.19644C16.059 5.8063 14.0606 5.99236 12.2396 6.73138C10.4185 7.4704 8.85564 8.72961 7.74611 10.3517C6.63658 11.9738 6.0296 13.8869 6.00101 15.8519C5.97242 17.817 6.52348 19.7469 7.58535 21.4006C8.64722 23.0543 10.1728 24.3584 11.9716 25.1501C13.7703 25.9418 15.7625 26.1859 17.6991 25.852C19.6358 25.5181 21.4312 24.6209 22.8609 23.2725C23.0537 23.0902 23.311 22.9919 23.5763 22.9993C23.8415 23.0066 24.093 23.1191 24.2753 23.3119C24.4576 23.5047 24.5559 23.762 24.5485 24.0272C24.5412 24.2925 24.4287 24.5439 24.2359 24.7263C22.0128 26.8347 19.0636 28.0069 15.9997 28H15.8347C13.8694 27.9731 11.9407 27.4638 10.2183 26.517C8.49589 25.5702 7.03241 24.2147 5.95651 22.5698C4.8806 20.9249 4.22521 19.0409 4.04793 17.0834C3.87066 15.1259 4.17693 13.1549 4.93982 11.3435C5.70271 9.53203 6.89888 7.93574 8.42317 6.69487C9.94747 5.454 11.7532 4.60655 13.6817 4.227C15.6103 3.84744 17.6025 3.94741 19.4833 4.51811C21.3642 5.08881 23.076 6.11278 24.4684 7.5L27.9997 10.725V7C27.9997 6.73479 28.105 6.48043 28.2926 6.2929C28.4801 6.10536 28.7345 6 28.9997 6C29.2649 6 29.5193 6.10536 29.7068 6.2929C29.8943 6.48043 29.9997 6.73479 29.9997 7Z" fill="#222222"/>
</svg>
