<svg width="32" height="32" viewBox="0 0 32 32" fill="none" xmlns="http://www.w3.org/2000/svg">
<path d="M25.9996 9.99999V21C25.9996 23.1217 25.1567 25.1566 23.6564 26.6568C22.1561 28.1571 20.1213 29 17.9996 29C15.8778 29 13.843 28.1571 12.3427 26.6568C10.8424 25.1566 9.99958 23.1217 9.99958 21V6.41374L5.70708 10.7075C5.51944 10.8951 5.26494 11.0005 4.99958 11.0005C4.73422 11.0005 4.47972 10.8951 4.29208 10.7075C4.10444 10.5199 3.99902 10.2654 3.99902 9.99999C3.99902 9.73463 4.10444 9.48013 4.29208 9.29249L10.2921 3.29249C10.385 3.19952 10.4952 3.12576 10.6166 3.07543C10.738 3.02511 10.8682 2.99921 10.9996 2.99921C11.131 2.99921 11.2611 3.02511 11.3825 3.07543C11.5039 3.12576 11.6142 3.19952 11.7071 3.29249L17.7071 9.29249C17.8947 9.48013 18.0001 9.73463 18.0001 9.99999C18.0001 10.2654 17.8947 10.5199 17.7071 10.7075C17.5194 10.8951 17.2649 11.0005 16.9996 11.0005C16.7342 11.0005 16.4797 10.8951 16.2921 10.7075L11.9996 6.41374V21C11.9996 22.5913 12.6317 24.1174 13.7569 25.2426C14.8822 26.3679 16.4083 27 17.9996 27C19.5909 27 21.117 26.3679 22.2422 25.2426C23.3674 24.1174 23.9996 22.5913 23.9996 21V9.99999C23.9996 9.73478 24.1049 9.48042 24.2925 9.29289C24.48 9.10535 24.7344 8.99999 24.9996 8.99999C25.2648 8.99999 25.5192 9.10535 25.7067 9.29289C25.8942 9.48042 25.9996 9.73478 25.9996 9.99999Z" fill="#222222"/>
</svg>
