<svg width="32" height="32" viewBox="0 0 32 32" fill="none" xmlns="http://www.w3.org/2000/svg">
<path d="M17.9996 13V8.00001C17.9996 7.73479 18.1049 7.48044 18.2925 7.2929C18.48 7.10536 18.7344 7.00001 18.9996 7.00001C19.2648 7.00001 19.5192 7.10536 19.7067 7.2929C19.8942 7.48044 19.9996 7.73479 19.9996 8.00001V10.5863L25.2921 5.29251C25.4797 5.10487 25.7342 4.99945 25.9996 4.99945C26.2649 4.99945 26.5194 5.10487 26.7071 5.29251C26.8947 5.48015 27.0001 5.73464 27.0001 6.00001C27.0001 6.26537 26.8947 6.51987 26.7071 6.70751L21.4133 12H23.9996C24.2648 12 24.5192 12.1054 24.7067 12.2929C24.8942 12.4804 24.9996 12.7348 24.9996 13C24.9996 13.2652 24.8942 13.5196 24.7067 13.7071C24.5192 13.8946 24.2648 14 23.9996 14H18.9996C18.7344 14 18.48 13.8946 18.2925 13.7071C18.1049 13.5196 17.9996 13.2652 17.9996 13ZM12.9996 18H7.99958C7.73436 18 7.48001 18.1054 7.29247 18.2929C7.10494 18.4804 6.99958 18.7348 6.99958 19C6.99958 19.2652 7.10494 19.5196 7.29247 19.7071C7.48001 19.8947 7.73436 20 7.99958 20H10.5858L5.29208 25.2925C5.10444 25.4801 4.99902 25.7346 4.99902 26C4.99902 26.2654 5.10444 26.5199 5.29208 26.7075C5.47972 26.8951 5.73422 27.0006 5.99958 27.0006C6.26494 27.0006 6.51944 26.8951 6.70708 26.7075L11.9996 21.4138V24C11.9996 24.2652 12.1049 24.5196 12.2925 24.7071C12.48 24.8947 12.7344 25 12.9996 25C13.2648 25 13.5191 24.8947 13.7067 24.7071C13.8942 24.5196 13.9996 24.2652 13.9996 24V19C13.9996 18.7348 13.8942 18.4804 13.7067 18.2929C13.5191 18.1054 13.2648 18 12.9996 18ZM21.4133 20H23.9996C24.2648 20 24.5192 19.8947 24.7067 19.7071C24.8942 19.5196 24.9996 19.2652 24.9996 19C24.9996 18.7348 24.8942 18.4804 24.7067 18.2929C24.5192 18.1054 24.2648 18 23.9996 18H18.9996C18.7344 18 18.48 18.1054 18.2925 18.2929C18.1049 18.4804 17.9996 18.7348 17.9996 19V24C17.9996 24.2652 18.1049 24.5196 18.2925 24.7071C18.48 24.8947 18.7344 25 18.9996 25C19.2648 25 19.5192 24.8947 19.7067 24.7071C19.8942 24.5196 19.9996 24.2652 19.9996 24V21.4138L25.2921 26.7075C25.385 26.8004 25.4953 26.8741 25.6167 26.9244C25.7381 26.9747 25.8682 27.0006 25.9996 27.0006C26.131 27.0006 26.2611 26.9747 26.3825 26.9244C26.5039 26.8741 26.6142 26.8004 26.7071 26.7075C26.8 26.6146 26.8737 26.5043 26.924 26.3829C26.9743 26.2615 27.0001 26.1314 27.0001 26C27.0001 25.8686 26.9743 25.7385 26.924 25.6171C26.8737 25.4957 26.8 25.3854 26.7071 25.2925L21.4133 20ZM12.9996 7.00001C12.7344 7.00001 12.48 7.10536 12.2925 7.2929C12.1049 7.48044 11.9996 7.73479 11.9996 8.00001V10.5863L6.70708 5.29251C6.51944 5.10487 6.26494 4.99945 5.99958 4.99945C5.73422 4.99945 5.47972 5.10487 5.29208 5.29251C5.10444 5.48015 4.99902 5.73464 4.99902 6.00001C4.99902 6.26537 5.10444 6.51987 5.29208 6.70751L10.5858 12H7.99958C7.73436 12 7.48001 12.1054 7.29247 12.2929C7.10494 12.4804 6.99958 12.7348 6.99958 13C6.99958 13.2652 7.10494 13.5196 7.29247 13.7071C7.48001 13.8946 7.73436 14 7.99958 14H12.9996C13.2648 14 13.5191 13.8946 13.7067 13.7071C13.8942 13.5196 13.9996 13.2652 13.9996 13V8.00001C13.9996 7.73479 13.8942 7.48044 13.7067 7.2929C13.5191 7.10536 13.2648 7.00001 12.9996 7.00001Z" fill="#222222"/>
</svg>
