<svg width="32" height="32" viewBox="0 0 32 32" fill="none" xmlns="http://www.w3.org/2000/svg">
<path d="M28.7071 23.7075L24.7071 27.7075C24.6142 27.8005 24.5039 27.8742 24.3825 27.9246C24.2611 27.9749 24.131 28.0008 23.9996 28.0008C23.8682 28.0008 23.738 27.9749 23.6166 27.9246C23.4952 27.8742 23.385 27.8005 23.2921 27.7075L19.2921 23.7075C19.1044 23.5199 18.999 23.2654 18.999 23C18.999 22.7346 19.1044 22.4801 19.2921 22.2925C19.4797 22.1049 19.7342 21.9994 19.9996 21.9994C20.2649 21.9994 20.5194 22.1049 20.7071 22.2925L22.9996 24.5863V17.4137L15.9996 10.4137L8.99958 17.4137V24.5863L11.2921 22.2925C11.4797 22.1049 11.7342 21.9994 11.9996 21.9994C12.2649 21.9994 12.5194 22.1049 12.7071 22.2925C12.8947 22.4801 13.0001 22.7346 13.0001 23C13.0001 23.2654 12.8947 23.5199 12.7071 23.7075L8.70708 27.7075C8.61421 27.8005 8.50392 27.8742 8.38252 27.9246C8.26112 27.9749 8.13099 28.0008 7.99958 28.0008C7.86816 28.0008 7.73804 27.9749 7.61664 27.9246C7.49524 27.8742 7.38495 27.8005 7.29208 27.7075L3.29208 23.7075C3.19917 23.6146 3.12547 23.5043 3.07519 23.3829C3.0249 23.2615 2.99902 23.1314 2.99902 23C2.99902 22.8686 3.0249 22.7385 3.07519 22.6171C3.12547 22.4957 3.19917 22.3854 3.29208 22.2925C3.47972 22.1049 3.73422 21.9994 3.99958 21.9994C4.13097 21.9994 4.26108 22.0253 4.38248 22.0756C4.50387 22.1259 4.61417 22.1996 4.70708 22.2925L6.99958 24.5863V17C6.99948 16.8686 7.02525 16.7385 7.07544 16.6171C7.12563 16.4958 7.19924 16.3854 7.29208 16.2925L14.9996 8.58625V3C14.9996 2.73478 15.1049 2.48043 15.2925 2.29289C15.48 2.10536 15.7344 2 15.9996 2C16.2648 2 16.5192 2.10536 16.7067 2.29289C16.8942 2.48043 16.9996 2.73478 16.9996 3V8.58625L24.7071 16.2925C24.7999 16.3854 24.8735 16.4958 24.9237 16.6171C24.9739 16.7385 24.9997 16.8686 24.9996 17V24.5863L27.2921 22.2925C27.4797 22.1049 27.7342 21.9994 27.9996 21.9994C28.2649 21.9994 28.5194 22.1049 28.7071 22.2925C28.8947 22.4801 29.0001 22.7346 29.0001 23C29.0001 23.2654 28.8947 23.5199 28.7071 23.7075Z" fill="#222222"/>
</svg>
