<svg width="32" height="32" viewBox="0 0 32 32" fill="none" xmlns="http://www.w3.org/2000/svg">
<path d="M29.9996 9C29.9996 9.26522 29.8942 9.51957 29.7067 9.70711C29.5192 9.89464 29.2648 10 28.9996 10H11.9996V24.5863L16.2921 20.2925C16.4797 20.1049 16.7342 19.9994 16.9996 19.9994C17.2649 19.9994 17.5194 20.1049 17.7071 20.2925C17.8947 20.4801 18.0001 20.7346 18.0001 21C18.0001 21.2654 17.8947 21.5199 17.7071 21.7075L11.7071 27.7075C11.6142 27.8005 11.5039 27.8742 11.3825 27.9246C11.2611 27.9749 11.131 28.0008 10.9996 28.0008C10.8682 28.0008 10.738 27.9749 10.6166 27.9246C10.4952 27.8742 10.385 27.8005 10.2921 27.7075L4.29208 21.7075C4.19917 21.6146 4.12547 21.5043 4.07519 21.3829C4.0249 21.2615 3.99902 21.1314 3.99902 21C3.99902 20.8686 4.0249 20.7385 4.07519 20.6171C4.12547 20.4957 4.19917 20.3854 4.29208 20.2925C4.47972 20.1049 4.73422 19.9994 4.99958 19.9994C5.13097 19.9994 5.26108 20.0253 5.38248 20.0756C5.50387 20.1259 5.61417 20.1996 5.70708 20.2925L9.99958 24.5863V9C9.99958 8.73478 10.1049 8.48043 10.2925 8.29289C10.48 8.10536 10.7344 8 10.9996 8H28.9996C29.2648 8 29.5192 8.10536 29.7067 8.29289C29.8942 8.48043 29.9996 8.73478 29.9996 9Z" fill="#222222"/>
</svg>
