<svg width="32" height="32" viewBox="0 0 32 32" fill="none" xmlns="http://www.w3.org/2000/svg">
<path d="M26.7071 6.70751L20.4133 13H23.9996C24.2648 13 24.5192 13.1054 24.7067 13.2929C24.8942 13.4804 24.9996 13.7348 24.9996 14C24.9996 14.2652 24.8942 14.5196 24.7067 14.7071C24.5192 14.8946 24.2648 15 23.9996 15H17.9996C17.7344 15 17.48 14.8946 17.2925 14.7071C17.1049 14.5196 16.9996 14.2652 16.9996 14V8.00001C16.9996 7.73479 17.1049 7.48044 17.2925 7.2929C17.48 7.10536 17.7344 7.00001 17.9996 7.00001C18.2648 7.00001 18.5192 7.10536 18.7067 7.2929C18.8942 7.48044 18.9996 7.73479 18.9996 8.00001V11.5863L25.2921 5.29251C25.4797 5.10487 25.7342 4.99945 25.9996 4.99945C26.2649 4.99945 26.5194 5.10487 26.7071 5.29251C26.8947 5.48015 27.0001 5.73464 27.0001 6.00001C27.0001 6.26537 26.8947 6.51987 26.7071 6.70751ZM13.9996 17H7.99958C7.73436 17 7.48001 17.1054 7.29247 17.2929C7.10494 17.4804 6.99958 17.7348 6.99958 18C6.99958 18.2652 7.10494 18.5196 7.29247 18.7071C7.48001 18.8947 7.73436 19 7.99958 19H11.5858L5.29208 25.2925C5.10444 25.4801 4.99902 25.7346 4.99902 26C4.99902 26.2654 5.10444 26.5199 5.29208 26.7075C5.47972 26.8951 5.73422 27.0006 5.99958 27.0006C6.26494 27.0006 6.51944 26.8951 6.70708 26.7075L12.9996 20.4138V24C12.9996 24.2652 13.1049 24.5196 13.2925 24.7071C13.48 24.8947 13.7344 25 13.9996 25C14.2648 25 14.5191 24.8947 14.7067 24.7071C14.8942 24.5196 14.9996 24.2652 14.9996 24V18C14.9996 17.7348 14.8942 17.4804 14.7067 17.2929C14.5191 17.1054 14.2648 17 13.9996 17Z" fill="#222222"/>
</svg>
