<svg width="32" height="32" viewBox="0 0 32 32" fill="none" xmlns="http://www.w3.org/2000/svg">
<path d="M18.9998 8.99999H15.9998V3.99999C16 3.8021 15.9414 3.60861 15.8315 3.44401C15.7217 3.27942 15.5654 3.15112 15.3826 3.07537C15.1998 2.99962 14.9986 2.97981 14.8045 3.01846C14.6104 3.05712 14.4322 3.15248 14.2923 3.29249L2.29231 15.2925C2.19933 15.3854 2.12557 15.4957 2.07525 15.6171C2.02493 15.7385 1.99902 15.8686 1.99902 16C1.99902 16.1314 2.02493 16.2615 2.07525 16.3829C2.12557 16.5043 2.19933 16.6146 2.29231 16.7075L14.2923 28.7075C14.4322 28.8475 14.6104 28.9429 14.8045 28.9815C14.9986 29.0202 15.1998 29.0004 15.3826 28.9246C15.5654 28.8489 15.7217 28.7206 15.8315 28.556C15.9414 28.3914 16 28.1979 15.9998 28V23H18.9998C19.265 23 19.5194 22.8946 19.7069 22.7071C19.8945 22.5196 19.9998 22.2652 19.9998 22V9.99999C19.9998 9.73478 19.8945 9.48042 19.7069 9.29289C19.5194 9.10535 19.265 8.99999 18.9998 8.99999ZM17.9998 21H14.9998C14.7346 21 14.4802 21.1054 14.2927 21.2929C14.1052 21.4804 13.9998 21.7348 13.9998 22V25.5862L4.41356 16L13.9998 6.41374V9.99999C13.9998 10.2652 14.1052 10.5196 14.2927 10.7071C14.4802 10.8946 14.7346 11 14.9998 11H17.9998V21ZM27.9998 9.99999V22C27.9998 22.2652 27.8945 22.5196 27.7069 22.7071C27.5194 22.8946 27.265 23 26.9998 23C26.7346 23 26.4802 22.8946 26.2927 22.7071C26.1052 22.5196 25.9998 22.2652 25.9998 22V9.99999C25.9998 9.73478 26.1052 9.48042 26.2927 9.29289C26.4802 9.10535 26.7346 8.99999 26.9998 8.99999C27.265 8.99999 27.5194 9.10535 27.7069 9.29289C27.8945 9.48042 27.9998 9.73478 27.9998 9.99999ZM23.9998 9.99999V22C23.9998 22.2652 23.8945 22.5196 23.7069 22.7071C23.5194 22.8946 23.265 23 22.9998 23C22.7346 23 22.4802 22.8946 22.2927 22.7071C22.1052 22.5196 21.9998 22.2652 21.9998 22V9.99999C21.9998 9.73478 22.1052 9.48042 22.2927 9.29289C22.4802 9.10535 22.7346 8.99999 22.9998 8.99999C23.265 8.99999 23.5194 9.10535 23.7069 9.29289C23.8945 9.48042 23.9998 9.73478 23.9998 9.99999Z" fill="#222222"/>
</svg>
