<svg width="32" height="32" viewBox="0 0 32 32" fill="none" xmlns="http://www.w3.org/2000/svg">
<path d="M25.1927 6.80747C22.7547 4.36947 19.448 2.99982 16.0002 2.99982C12.5523 2.99982 9.24566 4.36947 6.80766 6.80748C4.36966 9.24548 3 12.5521 3 16C3 19.4478 4.36966 22.7545 6.80766 25.1925C9.24566 27.6305 12.5523 29.0001 16.0002 29.0001C19.448 29.0001 22.7547 27.6305 25.1927 25.1925C27.6307 22.7545 29.0003 19.4478 29.0003 16C29.0003 12.5521 27.6307 9.24548 25.1927 6.80747ZM23.7789 23.7787C22.2405 25.3169 20.2805 26.3644 18.1467 26.7887C16.013 27.213 13.8013 26.9951 11.7914 26.1625C9.78152 25.3299 8.06365 23.92 6.85503 22.1111C5.64641 20.3022 5.00131 18.1755 5.00131 16C5.00131 13.8244 5.64641 11.6978 6.85503 9.88887C8.06365 8.07997 9.78152 6.67007 11.7914 5.83746C13.8013 5.00484 16.013 4.78691 18.1467 5.21122C20.2805 5.63552 22.2405 6.68301 23.7789 8.22122C25.8388 10.286 26.9956 13.0834 26.9956 16C26.9956 18.9165 25.8388 21.714 23.7789 23.7787ZM21.7077 12.7075L18.4139 16L21.7077 19.2925C21.8006 19.3854 21.8743 19.4957 21.9246 19.6171C21.9748 19.7385 22.0007 19.8686 22.0007 20C22.0007 20.1314 21.9748 20.2615 21.9246 20.3829C21.8743 20.5043 21.8006 20.6146 21.7077 20.7075C21.6147 20.8004 21.5044 20.8741 21.3831 20.9244C21.2617 20.9747 21.1316 21.0005 21.0002 21.0005C20.8688 21.0005 20.7387 20.9747 20.6173 20.9244C20.4959 20.8741 20.3856 20.8004 20.2927 20.7075L16.2927 16.7075C16.1997 16.6146 16.1259 16.5043 16.0756 16.3829C16.0253 16.2615 15.9994 16.1314 15.9994 16C15.9994 15.8686 16.0253 15.7384 16.0756 15.617C16.1259 15.4956 16.1997 15.3853 16.2927 15.2925L20.2927 11.2925C20.3856 11.1996 20.4959 11.1259 20.6173 11.0756C20.7387 11.0253 20.8688 10.9994 21.0002 10.9994C21.1316 10.9994 21.2617 11.0253 21.3831 11.0756C21.5044 11.1259 21.6147 11.1996 21.7077 11.2925C21.8006 11.3854 21.8743 11.4957 21.9246 11.6171C21.9748 11.7385 22.0007 11.8686 22.0007 12C22.0007 12.1314 21.9748 12.2615 21.9246 12.3829C21.8743 12.5043 21.8006 12.6146 21.7077 12.7075ZM14.7077 12.7075L11.4139 16L14.7077 19.2925C14.8006 19.3854 14.8743 19.4957 14.9246 19.6171C14.9748 19.7385 15.0007 19.8686 15.0007 20C15.0007 20.1314 14.9748 20.2615 14.9246 20.3829C14.8743 20.5043 14.8006 20.6146 14.7077 20.7075C14.6147 20.8004 14.5044 20.8741 14.3831 20.9244C14.2617 20.9747 14.1316 21.0005 14.0002 21.0005C13.8688 21.0005 13.7387 20.9747 13.6173 20.9244C13.4959 20.8741 13.3856 20.8004 13.2927 20.7075L9.29266 16.7075C9.19968 16.6146 9.12592 16.5043 9.0756 16.3829C9.02527 16.2615 8.99937 16.1314 8.99937 16C8.99937 15.8686 9.02527 15.7384 9.0756 15.617C9.12592 15.4956 9.19968 15.3853 9.29266 15.2925L13.2927 11.2925C13.4803 11.1048 13.7348 10.9994 14.0002 10.9994C14.2655 10.9994 14.52 11.1048 14.7077 11.2925C14.8953 11.4801 15.0007 11.7346 15.0007 12C15.0007 12.2653 14.8953 12.5198 14.7077 12.7075Z" fill="#222222"/>
</svg>
