<svg width="32" height="32" viewBox="0 0 32 32" fill="none" xmlns="http://www.w3.org/2000/svg">
<path d="M26.7071 24.7075C26.6142 24.8005 26.5039 24.8742 26.3825 24.9246C26.2611 24.9749 26.131 25.0008 25.9996 25.0008C25.8682 25.0008 25.738 24.9749 25.6166 24.9246C25.4952 24.8742 25.385 24.8005 25.2921 24.7075L15.9996 15.4137L6.70708 24.7075C6.51944 24.8951 6.26494 25.0006 5.99958 25.0006C5.73422 25.0006 5.47972 24.8951 5.29208 24.7075C5.10444 24.5199 4.99902 24.2654 4.99902 24C4.99902 23.7346 5.10444 23.4801 5.29208 23.2925L15.2921 13.2925C15.385 13.1995 15.4952 13.1258 15.6166 13.0754C15.738 13.0251 15.8682 12.9992 15.9996 12.9992C16.131 12.9992 16.2611 13.0251 16.3825 13.0754C16.5039 13.1258 16.6142 13.1995 16.7071 13.2925L26.7071 23.2925C26.8001 23.3854 26.8738 23.4957 26.9241 23.6171C26.9745 23.7385 27.0004 23.8686 27.0004 24C27.0004 24.1314 26.9745 24.2615 26.9241 24.3829C26.8738 24.5043 26.8001 24.6146 26.7071 24.7075ZM5.99958 10H25.9996C26.2648 10 26.5192 9.89464 26.7067 9.70711C26.8942 9.51957 26.9996 9.26522 26.9996 9C26.9996 8.73478 26.8942 8.48043 26.7067 8.29289C26.5192 8.10536 26.2648 8 25.9996 8H5.99958C5.73436 8 5.48001 8.10536 5.29247 8.29289C5.10494 8.48043 4.99958 8.73478 4.99958 9C4.99958 9.26522 5.10494 9.51957 5.29247 9.70711C5.48001 9.89464 5.73436 10 5.99958 10Z" fill="#222222"/>
</svg>
