<svg width="32" height="32" viewBox="0 0 32 32" fill="none" xmlns="http://www.w3.org/2000/svg">
<path d="M25.1927 6.80747C22.7547 4.36947 19.448 2.99982 16.0002 2.99982C12.5523 2.99982 9.24566 4.36947 6.80766 6.80748C4.36966 9.24548 3 12.5521 3 16C3 19.4478 4.36966 22.7545 6.80766 25.1925C9.24566 27.6305 12.5523 29.0001 16.0002 29.0001C19.448 29.0001 22.7547 27.6305 25.1927 25.1925C27.6307 22.7545 29.0003 19.4478 29.0003 16C29.0003 12.5521 27.6307 9.24548 25.1927 6.80747ZM23.7789 23.7787C22.2405 25.3169 20.2805 26.3644 18.1467 26.7887C16.013 27.213 13.8013 26.9951 11.7914 26.1625C9.78152 25.3299 8.06365 23.92 6.85503 22.1111C5.64641 20.3022 5.00131 18.1755 5.00131 16C5.00131 13.8244 5.64641 11.6978 6.85503 9.88887C8.06365 8.07997 9.78152 6.67007 11.7914 5.83746C13.8013 5.00484 16.013 4.78691 18.1467 5.21122C20.2805 5.63552 22.2405 6.68301 23.7789 8.22122C25.8388 10.286 26.9956 13.0834 26.9956 16C26.9956 18.9165 25.8388 21.714 23.7789 23.7787ZM15.7077 15.2925C15.8006 15.3853 15.8744 15.4956 15.9247 15.617C15.975 15.7384 16.0009 15.8686 16.0009 16C16.0009 16.1314 15.975 16.2615 15.9247 16.3829C15.8744 16.5043 15.8006 16.6146 15.7077 16.7075L11.7077 20.7075C11.6147 20.8004 11.5044 20.8741 11.3831 20.9244C11.2617 20.9747 11.1316 21.0005 11.0002 21.0005C10.8688 21.0005 10.7387 20.9747 10.6173 20.9244C10.4959 20.8741 10.3856 20.8004 10.2927 20.7075C10.1997 20.6146 10.126 20.5043 10.0758 20.3829C10.0255 20.2615 9.9996 20.1314 9.9996 20C9.9996 19.8686 10.0255 19.7385 10.0758 19.6171C10.126 19.4957 10.1997 19.3854 10.2927 19.2925L13.5864 16L10.2927 12.7075C10.105 12.5198 9.9996 12.2653 9.9996 12C9.9996 11.7346 10.105 11.4801 10.2927 11.2925C10.4803 11.1048 10.7348 10.9994 11.0002 10.9994C11.2655 10.9994 11.52 11.1048 11.7077 11.2925L15.7077 15.2925ZM22.7077 15.2925C22.8006 15.3853 22.8744 15.4956 22.9247 15.617C22.975 15.7384 23.0009 15.8686 23.0009 16C23.0009 16.1314 22.975 16.2615 22.9247 16.3829C22.8744 16.5043 22.8006 16.6146 22.7077 16.7075L18.7077 20.7075C18.52 20.8951 18.2655 21.0005 18.0002 21.0005C17.7348 21.0005 17.4803 20.8951 17.2927 20.7075C17.105 20.5198 16.9996 20.2653 16.9996 20C16.9996 19.7346 17.105 19.4801 17.2927 19.2925L20.5864 16L17.2927 12.7075C17.105 12.5198 16.9996 12.2653 16.9996 12C16.9996 11.7346 17.105 11.4801 17.2927 11.2925C17.4803 11.1048 17.7348 10.9994 18.0002 10.9994C18.2655 10.9994 18.52 11.1048 18.7077 11.2925L22.7077 15.2925Z" fill="#222222"/>
</svg>
