<svg width="32" height="32" viewBox="0 0 32 32" fill="none" xmlns="http://www.w3.org/2000/svg">
<path d="M26.7071 20.7075C26.6142 20.8005 26.5039 20.8742 26.3825 20.9246C26.2611 20.9749 26.131 21.0008 25.9996 21.0008C25.8682 21.0008 25.738 20.9749 25.6166 20.9246C25.4952 20.8742 25.385 20.8005 25.2921 20.7075L15.9996 11.4137L6.70708 20.7075C6.51944 20.8951 6.26494 21.0006 5.99958 21.0006C5.73422 21.0006 5.47972 20.8951 5.29208 20.7075C5.10444 20.5199 4.99902 20.2654 4.99902 20C4.99902 19.7346 5.10444 19.4801 5.29208 19.2925L15.2921 9.29249C15.385 9.19952 15.4952 9.12576 15.6166 9.07543C15.738 9.02511 15.8682 8.99921 15.9996 8.99921C16.131 8.99921 16.2611 9.02511 16.3825 9.07543C16.5039 9.12576 16.6142 9.19952 16.7071 9.29249L26.7071 19.2925C26.8001 19.3854 26.8738 19.4957 26.9241 19.6171C26.9745 19.7385 27.0004 19.8686 27.0004 20C27.0004 20.1314 26.9745 20.2615 26.9241 20.3829C26.8738 20.5043 26.8001 20.6146 26.7071 20.7075Z" fill="#222222"/>
</svg>
