<svg width="32" height="32" viewBox="0 0 32 32" fill="none" xmlns="http://www.w3.org/2000/svg">
<path d="M17.7071 16.7075L7.70708 26.7075C7.51944 26.8951 7.26494 27.0006 6.99958 27.0006C6.73422 27.0006 6.47972 26.8951 6.29208 26.7075C6.10444 26.5199 5.99902 26.2654 5.99902 26C5.99902 25.7346 6.10444 25.4801 6.29208 25.2925L15.5858 16L6.29208 6.70751C6.10444 6.51987 5.99902 6.26537 5.99902 6.00001C5.99902 5.73464 6.10444 5.48015 6.29208 5.29251C6.47972 5.10487 6.73422 4.99945 6.99958 4.99945C7.26494 4.99945 7.51944 5.10487 7.70708 5.29251L17.7071 15.2925C17.8001 15.3854 17.8738 15.4957 17.9241 15.6171C17.9745 15.7385 18.0004 15.8686 18.0004 16C18.0004 16.1314 17.9745 16.2615 17.9241 16.3829C17.8738 16.5043 17.8001 16.6146 17.7071 16.7075ZM27.7071 15.2925L17.7071 5.29251C17.5194 5.10487 17.2649 4.99945 16.9996 4.99945C16.7342 4.99945 16.4797 5.10487 16.2921 5.29251C16.1044 5.48015 15.999 5.73464 15.999 6.00001C15.999 6.26537 16.1044 6.51987 16.2921 6.70751L25.5858 16L16.2921 25.2925C16.1044 25.4801 15.999 25.7346 15.999 26C15.999 26.2654 16.1044 26.5199 16.2921 26.7075C16.4797 26.8951 16.7342 27.0006 16.9996 27.0006C17.2649 27.0006 17.5194 26.8951 17.7071 26.7075L27.7071 16.7075C27.8001 16.6146 27.8738 16.5043 27.9241 16.3829C27.9745 16.2615 28.0004 16.1314 28.0004 16C28.0004 15.8686 27.9745 15.7385 27.9241 15.6171C27.8738 15.4957 27.8001 15.3854 27.7071 15.2925Z" fill="#222222"/>
</svg>
