<svg width="32" height="32" viewBox="0 0 32 32" fill="none" xmlns="http://www.w3.org/2000/svg">
<path d="M25.7073 25.2925C25.8002 25.3854 25.8739 25.4957 25.9242 25.6171C25.9745 25.7385 26.0004 25.8686 26.0004 26C26.0004 26.1314 25.9745 26.2615 25.9242 26.3829C25.8739 26.5043 25.8002 26.6146 25.7073 26.7075C25.6144 26.8004 25.5041 26.8741 25.3827 26.9244C25.2613 26.9747 25.1312 27.0006 24.9998 27.0006C24.8684 27.0006 24.7383 26.9747 24.6169 26.9244C24.4955 26.8741 24.3852 26.8004 24.2923 26.7075L14.2923 16.7075C14.1993 16.6146 14.1256 16.5043 14.0753 16.3829C14.0249 16.2615 13.999 16.1314 13.999 16C13.999 15.8686 14.0249 15.7385 14.0753 15.6171C14.1256 15.4957 14.1993 15.3854 14.2923 15.2925L24.2923 5.29251C24.4799 5.10487 24.7344 4.99945 24.9998 4.99945C25.2652 4.99945 25.5197 5.10487 25.7073 5.29251C25.895 5.48015 26.0004 5.73464 26.0004 6.00001C26.0004 6.26537 25.895 6.51987 25.7073 6.70751L16.4136 16L25.7073 25.2925ZM6.41356 16L15.7073 6.70751C15.895 6.51987 16.0004 6.26537 16.0004 6.00001C16.0004 5.73464 15.895 5.48015 15.7073 5.29251C15.5197 5.10487 15.2652 4.99945 14.9998 4.99945C14.7344 4.99945 14.4799 5.10487 14.2923 5.29251L4.29231 15.2925C4.19933 15.3854 4.12557 15.4957 4.07525 15.6171C4.02493 15.7385 3.99902 15.8686 3.99902 16C3.99902 16.1314 4.02493 16.2615 4.07525 16.3829C4.12557 16.5043 4.19933 16.6146 4.29231 16.7075L14.2923 26.7075C14.3852 26.8004 14.4955 26.8741 14.6169 26.9244C14.7383 26.9747 14.8684 27.0006 14.9998 27.0006C15.1312 27.0006 15.2613 26.9747 15.3827 26.9244C15.5041 26.8741 15.6144 26.8004 15.7073 26.7075C15.8002 26.6146 15.8739 26.5043 15.9242 26.3829C15.9745 26.2615 16.0004 26.1314 16.0004 26C16.0004 25.8686 15.9745 25.7385 15.9242 25.6171C15.8739 25.4957 15.8002 25.3854 15.7073 25.2925L6.41356 16Z" fill="#222222"/>
</svg>
