<svg width="32" height="32" viewBox="0 0 32 32" fill="none" xmlns="http://www.w3.org/2000/svg">
<path d="M28.7071 24.7076L24.7071 28.7076C24.5194 28.8952 24.2649 29.0006 23.9996 29.0006C23.7342 29.0006 23.4797 28.8952 23.2921 28.7076C23.1044 28.5199 22.999 28.2654 22.999 28.0001C22.999 27.7347 23.1044 27.4802 23.2921 27.2926L25.5858 25.0001H9.99958C9.73436 25.0001 9.48001 24.8947 9.29247 24.7072C9.10494 24.5196 8.99958 24.2653 8.99958 24.0001V7.4138L6.70708 9.70755C6.51944 9.8952 6.26494 10.0006 5.99958 10.0006C5.73422 10.0006 5.47972 9.89519 5.29208 9.70755C5.10444 9.51991 4.99902 9.26542 4.99902 9.00005C4.99902 8.73469 5.10444 8.48019 5.29208 8.29255L9.29208 4.29255C9.38495 4.19958 9.49524 4.12582 9.61664 4.07549C9.73804 4.02517 9.86816 3.99927 9.99958 3.99927C10.131 3.99927 10.2611 4.02517 10.3825 4.07549C10.5039 4.12582 10.6142 4.19958 10.7071 4.29255L14.7071 8.29255C14.8947 8.48019 15.0001 8.73469 15.0001 9.00005C15.0001 9.26542 14.8947 9.51991 14.7071 9.70755C14.5194 9.8952 14.2649 10.0006 13.9996 10.0006C13.7342 10.0006 13.4797 9.8952 13.2921 9.70755L10.9996 7.4138V23.0001H25.5858L23.2921 20.7076C23.1044 20.5199 22.999 20.2654 22.999 20.0001C22.999 19.7347 23.1044 19.4802 23.2921 19.2926C23.4797 19.1049 23.7342 18.9995 23.9996 18.9995C24.2649 18.9995 24.5194 19.1049 24.7071 19.2926L28.7071 23.2926C28.8001 23.3854 28.8738 23.4957 28.9241 23.6171C28.9745 23.7385 29.0004 23.8686 29.0004 24.0001C29.0004 24.1315 28.9745 24.2616 28.9241 24.383C28.8738 24.5044 28.8001 24.6147 28.7071 24.7076Z" fill="#222222"/>
</svg>
